<?xml version="1.0" encoding="UTF-8"?>
<svg id="Layer_1" data-name="Layer 1" xmlns="http://www.w3.org/2000/svg" viewBox="0 0 335 336.16">
  <defs>
    <style>
      .cls-1 {
        fill: #401717;
      }

      .cls-2 {
        fill: #f2e0dc;
      }

      .cls-3 {
        fill: #d97a43;
      }
    </style>
  </defs>
  <rect class="cls-2" width="335" height="335"/>
  <g>
    <g>
      <path class="cls-1" d="M261.21,259.88c1.26.68,3.53.81,3.9.23.14-.22-.16-.4-.68-.4s-1.51-.36-2.23-.8c-1.55-.95-2.09-1-2.09-.21,0,.32.49.85,1.1,1.18Z"/>
      <path class="cls-1" d="M268.34,270.93c-7.07.08-8.52.25-7.85.91.29.29,2.76.53,6.6.66,3.38.11,6.28.34,6.45.5.36.36,1.54.4,1.87.06.14-.14-.04-.68-.39-1.22-.63-.96-.69-.97-6.68-.9Z"/>
      <path class="cls-1" d="M278.79,269.48c-1.68-.28-4.43-1.23-7.08-2.46-1.83-.85-4.62-1.15-5-.54-.41.66-.29.73,3.02,1.63,1.63.45,3.86,1.06,4.96,1.37,1.1.3,2.54.62,3.19.72,2.2.32,3.05.3,2.82-.07-.13-.2-.99-.49-1.93-.65Z"/>
      <path class="cls-1" d="M289.69,271.84c0,.32,1.58.48,5.19.53,5,.07,6.36-.25,4.3-1.03-2.88-1.09-9.49-.73-9.49.5Z"/>
      <path class="cls-1" d="M286.91,265.75c-1.36-.91-3.32-1.55-7.02-2.29-3.91-.79-7.17-2.79-8.05-4.95-1.18-2.9-9.56-6.42-11.25-4.72-.78.78-.58.92,1.42.96,1.93.05,6.04,1.61,7.37,2.83.47.43.63.95.47,1.59-.25.99.74,2.53,1.61,2.53.24,0,1.21.7,2.15,1.56,1.1,1,2.26,1.66,3.23,1.83.84.14,2.95.76,4.69,1.38,3.73,1.33,5.07,1.46,5.8.57.47-.57.42-.74-.42-1.29Z"/>
      <path class="cls-1" d="M296.75,262.89c-1.36,0-3.26-.19-4.22-.41-.96-.22-3.48-.43-5.59-.47-3.57-.06-3.85,0-3.85.71s.4.8,4.4,1.05c2.41.14,5.11.44,5.99.66.88.21,2.99.41,4.7.43,2.53.03,3.1-.07,3.1-.57,0-.87-1.67-1.39-4.52-1.4Z"/>
      <path class="cls-1" d="M311.17,269.17c-.94-.12-2.6-.33-3.7-.48-1.32-.17-2.41-.08-3.2.27-1.13.49-.98.54,2.6.75,2.09.12,4.29.27,4.89.3,1.78.12,1.26-.62-.6-.85Z"/>
      <path class="cls-1" d="M307.38,263.58c-.11.33.63.53,2.37.63,4.24.26,5.32.15,5.32-.51,0-1.36-7.24-1.47-7.69-.12Z"/>
      <path class="cls-1" d="M140.62,212.74c-.58,0-.86,1.02-.92,3.19-.01.66-.3,1.4-.66,1.65-.52.38-.54.57-.11,1.09.6.73.28,1.46-.64,1.46-.57,0-.57.08-.05.7.33.38.52,1.03.43,1.43-.13.57-.4.67-1.33.47-1.42-.31-1.61.54-.3,1.35.74.46.77.6.25.89-.38.21-.55.7-.43,1.3.1.53-.01,1.09-.25,1.24-.24.15-.44.53-.44.85,0,.94,1.03.66,1.52-.42.25-.55.62-1,.83-1,.79,0,2.5-7.65,2.59-11.59.04-2-.07-2.6-.51-2.6Z"/>
      <path class="cls-1" d="M150.61,202.76c-.5-.31-.71.09-1.02,1.99l-.27,1.59.82-1c.87-1.07,1.08-2.21.47-2.58Z"/>
      <path class="cls-1" d="M65.79,199.35c-.33.76-1.55,5.72-1.55,6.3,0,.21.63.07,1.16-.27.38-.24.6-1.39.69-3.69.1-2.65.05-3.14-.3-2.34Z"/>
      <path class="cls-1" d="M163.17,71.14c1.14.28,1.58.12,1.72-.62.09-.46-.28-.72-1.33-.92-2.39-.44-2.75.96-.4,1.54Z"/>
      <path class="cls-1" d="M91.58,255.66c-.42-.16-.96-.31-1.22-.32-.67-.04-4.58,3.58-4.31,4.01.35.57.83.43,2.1-.64.65-.55,1.36-1,1.58-1s.88-.39,1.5-.87c1.03-.81,1.05-.9.36-1.17Z"/>
      <path class="cls-1" d="M79.1,115.78c-.1.3,1.31-.26,3.15-1.25,1.84-1,3.41-2.03,3.5-2.31.09-.28-1.32.28-3.15,1.25-1.82.97-3.4,2.01-3.5,2.31Z"/>
      <path class="cls-1" d="M85.62,59.86c.72-1.38.75-1.61.21-1.61-.21,0-.5.45-.64,1-.14.55-.42,1-.61,1s-.36.18-.36.4c0,.81.8.36,1.39-.78Z"/>
      <path class="cls-1" d="M87.2,48.4c.49-.19.54-.37.18-.8-.85-1.02-2.82-.43-2.16.65.28.45,1.03.51,1.98.15Z"/>
      <path class="cls-1" d="M86.62,52.26c.46-.29.48-.49.12-.85-.59-.6-1.73-.19-1.73.62,0,.69.7.79,1.6.23Z"/>
      <path class="cls-1" d="M83.68,255.53c-1.05.19-1.4.1-1.61-.43-.19-.51-.55-.62-1.44-.45-.9.18-1.31.04-1.76-.59-.54-.77-.64-.78-1.78-.19-.67.34-1.31.79-1.43.98-.12.19-.69.26-1.26.15l-1.05-.2,1.14-.9c.62-.5,1-1.04.85-1.2-.16-.16-.52-.12-.8.1-.78.61-4.12,1.37-3.56.81,1.21-1.21-.24-2-1.97-1.08-.55.3-1.07.26-1.87-.14-1.05-.53-4.12-.48-4.07.08.1,1.23,6.88,4.05,9.73,4.05.94,0,2.71-.34,3.93-.76,2.21-.76,2.21-.76,2,.05-.19.74-.08.78,1.44.53,1.1-.19,1.66-.14,1.66.15,0,.55.36.55,1.94,0,1.68-.59,1.62-1.26-.08-.94Z"/>
      <path class="cls-1" d="M31.26,258.9c-.49-.4-.6-.38-.6.08,0,.33.12.7.26.85.38.38.94.33.94-.08,0-.19-.27-.57-.6-.85Z"/>
      <path class="cls-1" d="M66.95,194.48c-.22.22-.27.61-.11.87.2.31.42.33.69.07.22-.22.27-.61.11-.86-.19-.31-.42-.34-.69-.07Z"/>
      <path class="cls-1" d="M86.66,96.45c.68-.57,1.46-1.03,1.75-1.03.68,0,1.55-1.07,1.1-1.35-.49-.31-4.07,2.23-4.08,2.88,0,.34.45.16,1.23-.49Z"/>
      <path class="cls-1" d="M69.61,203.15c.14,1.5-.07,4.42-.57,7.79-.44,2.97-.8,5.62-.8,5.89,0,.73.72.6,1.14-.2.5-.95.82-3.78,1.07-9.5.18-4.01.11-4.94-.42-5.6-.59-.73-.62-.62-.41,1.61Z"/>
      <path class="cls-1" d="M116.13,216.42c-.21.27-.27,1.03-.13,1.7.25,1.13,1.15,1.82.95.72-.05-.27.03-1.04.19-1.7.69-2.92,1.39-8.82,1.08-9.13-.61-.62-1.16,1.15-1.43,4.57-.14,1.85-.44,3.58-.66,3.85Z"/>
      <path class="cls-1" d="M81.83,125.59c-.22.14-.4.43-.4.65s.18.29.4.15c.22-.14.4-.42.4-.64s-.18-.29-.4-.16Z"/>
      <path class="cls-1" d="M254.66,250.89c-.95-.4-2.7-1.36-3.88-2.12-1.18-.75-4.07-2.31-6.41-3.45-2.34-1.14-4.25-2.2-4.25-2.36s-1.06-1.48-2.36-2.95c-1.34-1.51-2.49-3.21-2.65-3.95-.27-1.25-1.28-3.28-2.43-4.94-.31-.44-.55-1.37-.55-2.08,0-2.45-1.52-4.93-3.03-4.93-1.14,0-1.25-.38-1.59-5.8-.15-2.41-.44-4.83-.65-5.37-.2-.54-1.18-1.86-2.18-2.92-1.36-1.45-1.76-2.17-1.61-2.82.31-1.26-.73-6.33-1.4-6.84-1.24-.94-2.73-3.36-2.73-4.43,0-1.76-1.82-4.48-3.62-5.4-1.18-.6-1.58-1.05-1.58-1.76,0-.53-.54-2.1-1.2-3.49-.66-1.4-1.2-2.73-1.2-2.97s-.38-.78-.84-1.2c-1.02-.92-1.96-2.67-1.96-3.64,0-.4-.54-1.53-1.2-2.52-.9-1.36-1.2-2.26-1.2-3.68,0-2.43-.6-3.74-2.66-5.76-2.16-2.14-2.93-3.68-3.11-6.23-.08-1.18-.4-2.25-.72-2.49-.32-.23-.79-.82-1.04-1.3-.26-.48-1.2-1.72-2.08-2.75-.89-1.03-1.99-2.65-2.44-3.61l-.82-1.74,1.59-1.81c1.57-1.79,2.49-4.18,2.48-6.48,0-1.69-2.45-4.01-5.86-5.56-2.26-1.03-3.14-1.69-3.99-2.99-.94-1.42-1.02-1.72-.52-2.12.32-.25.89-1.12,1.27-1.94.62-1.33.62-1.55.07-2.1-.34-.34-.87-.61-1.18-.61s-.57-.28-.57-.62-.53-.92-1.19-1.3c-.68-.39-1.29-1.14-1.42-1.74-.13-.59-.49-1.17-.81-1.29-.31-.12-.57-.67-.57-1.21,0-1.12-1.32-2.23-2.65-2.23-.74,0-.97-.42-1.6-2.9-.63-2.48-.73-4.48-.71-14.09.02-7.4.2-12.07.54-13.79.28-1.43.56-5.3.63-8.59.12-6.66-.47-11.25-1.98-15.19-.5-1.32-1.15-3.11-1.43-3.99-1.57-4.82-7.07-10.11-15.39-14.81-3-1.69-5.55-3.37-5.66-3.73-.87-2.72-1.05-2.9-4.91-4.84-2.13-1.07-4.74-2.62-5.82-3.44-2.56-1.95-5.93-3.47-7.96-3.58-10.21-.56-10.42-.6-12.65-2.28-2.06-1.56-2.13-1.58-4.13-1.18-1.12.21-2.58.31-3.24.21-.83-.13-1.9.18-3.45,1-1.24.66-3.05,1.31-4,1.46-2.63.4-3.9.99-6.58,3.1-1.35,1.05-2.8,1.91-3.22,1.91s-1.38.45-2.12,1c-.75.55-1.54,1-1.77,1-.66,0-4.45,1.53-10.34,4.16-1.27.57-2.53,1.03-2.8,1.03s-1.13.51-1.89,1.13c-.77.62-2.43,1.81-3.69,2.64-1.67,1.09-2.3,1.76-2.3,2.41,0,.49-.34,1.9-.77,3.12-1.29,3.75-1.46,9.35-.43,14.47.83,4.13.85,4.71.4,10.39-.27,3.31-.57,7.82-.69,10.02-.22,4.2.41,10.71,1.33,13.79.3.99.55,3.41.55,5.39,0,1.98.27,4.44.57,5.46.31,1.03.47,2.25.35,2.7-.12.46-.04.83.18.83.69,0,.81,1.43.24,2.78-.75,1.8-.69,5.04.12,6.43.55.93.6,1.39.24,2.54-.27.88-.35,3.55-.21,7.15.21,5.61.19,5.78-.84,7.83-2.15,4.28-3.4,10.66-2.29,11.76.75.76.47,2.2-.7,3.56-.62.72-1.46,1.87-1.85,2.55-.7,1.22-.7,1.25.36,2.94l1.08,1.71-1.2,1.26c-1.33,1.4-1.98,2.45-4.67,7.64-5.34,10.29-5.48,10.63-7.01,16.59-1.15,4.52-1.52,13.51-.74,18.35.87,5.41.59,21.38-.45,24.83-.23.77-.76,3.9-1.18,6.96-.87,6.36-1.02,6.61-4.47,7.59l-2.26.64-3.94-1.42c-3.17-1.14-4.31-1.78-5.81-3.25-1.49-1.46-2.27-1.9-3.8-2.15-3.53-.58-4.91-.43-6.74.73-3.02,1.93-4.53,5.93-3.86,10.22.38,2.38-.01,6.1-.83,7.87-.25.55-1.08,1.78-1.83,2.74-2.43,3.08-3.06,6.08-1.67,8.03.44.61.96,1.57,1.18,2.14.21.57.89,1.35,1.51,1.74.61.4,1.29.93,1.52,1.19.21.25,1.03.84,1.8,1.3,1,.59,2.08.83,3.77.83,2.04,0,2.54-.15,3.5-1.07.62-.59,1.12-1.5,1.12-2.04,0-1.43-1.2-3.21-2.48-3.65-.61-.21-1.12-.55-1.12-.74s.87-1.14,1.93-2.12c1.05-.98,2.77-3.09,3.81-4.7,1.39-2.17,2.06-2.87,2.57-2.72.38.1,1.33.32,2.09.47,4.76.92,13.6,3.89,17.19,5.76,2.94,1.54,6.66,2.75,9.18,3,3.22.32,7.09.99,8.2,1.41.57.21,2.23.58,3.7.82,1.47.23,4.56,1.05,6.87,1.83,5.94,1.99,7.31,1.89,11.42-.81,4.23-2.78,6.29-3.84,7.44-3.84h1.2l-.22-3.9c-.13-2.24-.01-5.43.27-7.49l.5-3.6,1.91-.63c1.86-.62,5.48-3.01,5.48-3.61,0-.17.37-.42.83-.56.94-.3,4.46-3.67,6.05-5.79,1.61-2.15,4.78-7.51,6.09-10.29.64-1.37,1.31-2.5,1.49-2.5.4,0,.68,1.18.92,3.91.1,1.16.29,2.28.42,2.49.21.34.22,10.16.02,12.99-.12,1.68-.97,4.52-1.85,6.18-3.42,6.43-4.22,10.08-2.87,13.06,1.21,2.67,2.97,3.96,5.97,4.37,1.06.14,2.06.34,2.23.44.15.09.68-.03,1.14-.29.61-.32.77-.33.58-.01-.15.25.36.14,1.15-.23,1.35-.64,1.64-.64,5.32.05,2.15.4,4.46,1.05,5.14,1.47.68.41,2.65,1.04,4.37,1.39,2.66.55,3.98.58,8.68.23,5.87-.44,6.89-.78,8.16-2.72.56-.85.6-1.31.26-2.6-.23-.86-.31-1.63-.17-1.71.13-.08,1.16-.27,2.27-.42,1.93-.26,2.02-.32,1.86-1.37-.14-.94-.35-1.1-1.52-1.13-.75-.03-1.47.12-1.59.32-.12.19-.75.36-1.4.36-.88,0-1.18.19-1.18.75,0,.44-.37.85-.9,1-1.33.36-3.42.3-3.66-.09-.12-.19-1.01-.57-1.98-.84-3.88-1.09-9.54-5.66-12.42-10.01-2.38-3.6-2.45-3.98-1.62-8.19.13-.66.51-2.73.85-4.6.57-3.08.93-4.22,2.78-8.79.53-1.3.88-2.43,3-9.6.42-1.43,1.12-4.82,1.55-7.53.44-2.71.89-5.08,1-5.27.12-.19.38-1.12.57-2.07.19-.94,1.01-3.43,1.83-5.52,2.8-7.25,3.33-10.59,2.08-13.06-.31-.62-.86-2.04-1.23-3.14-.71-2.17-1.97-3.25-4.85-4.19-.88-.29-2.41-1.18-3.4-1.99-2.94-2.4-3.7-2.81-5.24-2.81-.8,0-2.32-.38-3.36-.84-1.33-.59-2.38-.78-3.48-.63-.9.12-2.13-.02-2.87-.33-.78-.33-3.06-.57-5.75-.62-4.5-.07-7.62-.46-9.08-1.14-.44-.21-1.67-.46-2.73-.56-2.34-.22-3.25-.91-2.07-1.56,1.46-.8,6.25-6.54,7.23-8.66.36-.79,1.09-2.02,1.62-2.72.52-.7.95-1.42.95-1.59s.53-1.13,1.18-2.11c.65-.98,1.3-2.3,1.44-2.94.36-1.63,1.8-4.8,2.41-5.27.28-.21.7-1.14.94-2.06.24-.92.7-2.17,1.02-2.8.33-.62.59-1.35.6-1.61,0-.27.19-.91.43-1.43.42-.94.49-.9,3.62,2.15,2.17,2.12,4.19,3.62,6.32,4.73,3.41,1.78,4.95,1.98,8.85,1.19,1.18-.24,4.04-.47,6.35-.52,2.31-.05,4.47-.17,4.8-.27.7-.2.7.4.05,3.57-.38,1.84-.34,2.31.25,3.34.87,1.5,3.98,3.12,5.99,3.12,1.33,0,1.73.24,3.08,1.85,1.79,2.13,2.58,4.07,2.6,6.35.01,1.15.42,2.22,1.45,3.78,1.19,1.8,1.47,2.64,1.66,4.98.18,2.25.45,3.11,1.31,4.22,1.76,2.27,2.27,3.62,2.55,6.79.19,2.22.58,3.56,1.46,5.2,3.37,6.21,3.4,6.32,2.62,8.35-1.72,4.51-1.61,7.24.59,14.56l.94,3.13-1.1,4.27c-1.56,6.02-1.7,7.81-.87,10.87,1.28,4.74.54,8.87-2.31,12.91-1.69,2.39-2.67,4.76-2.27,5.5.21.39.38.95.38,1.25s-1.89,2.46-4.2,4.83c-4.16,4.24-5.11,5.88-3.41,5.88.71,0,7.44-4.78,8.07-5.73.14-.21.18-.6.08-.87-.11-.29.47-.61,1.52-.83,1.68-.36,1.72-.4,3.21-3.94.84-1.96,1.66-3.68,1.83-3.8.87-.63,1.34-3,1.5-7.57.12-3.66.31-5.04.67-5.04.83,0,1.13,2.63.68,5.76-.24,1.63-.57,3.34-.75,3.8-.23.59-.1,1.07.44,1.67.74.81.74.91.07,3.49-.58,2.2-.88,2.73-1.79,3.1-1.05.44-3.41,3.09-3.23,3.63.05.14-.18.49-.51.76-.49.4-.7.36-1.13-.23-.58-.79-1.63-.45-1.3.4.12.31-.67,1.1-1.94,1.95-1.18.78-2.27,1.8-2.41,2.27-.38,1.19-.08,1.31.91.38,1.11-1.03,1.26-1,1.16.18-.1,1.37.66,1.27,1.02-.13.18-.69,1.02-1.7,2.09-2.5.98-.74,1.8-1.46,1.8-1.61.03-.6,3.99-4.34,4.59-4.34.73,0,1.47-1.57,2.21-4.72.27-1.16.94-2.65,1.5-3.3.56-.66,1.05-1.84,1.13-2.67.35-3.66.7-5.72,1.03-5.92.19-.12.34-.48.34-.79,0-.48-.14-.49-.81-.08-.92.57-1.58,2.59-1.59,4.8,0,.82-.14,1.5-.3,1.5-.48,0-.53-3.25-.07-5,.32-1.23.26-2.43-.25-5.2-.68-3.64-.82-6.77-.38-8.5.19-.75.09-.92-.43-.82-.64.12-1.8,2.72-2.35,5.26-.29,1.35-1.06,1.22-1.58-.25-.28-.79-.22-1.24.23-1.77.33-.39,1.02-1.76,1.53-3.03.81-2.04.85-2.44.38-3.33-.3-.55-.51-1.8-.47-2.76.04-.96-.1-1.85-.31-1.98-.21-.14-.39-.96-.39-1.85s-.16-1.91-.36-2.28c-.57-1.07-.06-2.87.8-2.87,1.14,0,1.31-1.48.98-8.15-.17-3.32-.31-6.98-.31-8.13,0-1.43-.16-2.1-.5-2.1-.73,0-1.37.89-1.65,2.34-.36,1.8-1.18,1.56-1.7-.51-.58-2.3-.6-2.22.49-2.22,1.22,0,1.59-.41.89-.96-.31-.24-.83-1.36-1.16-2.49-.53-1.84-.53-2.11.03-2.68.49-.49.53-.75.16-1.2-.61-.74-.21-1.74.79-2,.64-.17.72-.36.39-.94-.48-.85-2.1-4.46-3.01-6.67-.35-.85-.63-2.26-.63-3.14,0-1.73-.7-2.85-3.45-5.54-1.06-1.04-1.83-2.25-2.15-3.4-.41-1.48-.7-1.83-1.74-2.11-.75-.2-1.35-.18-1.5.06-.33.49-2.74-1.18-2.74-1.9,0-.29-.26-.74-.58-1.01-.47-.38-.49-.64-.1-1.29.38-.64.38-.86-.02-1-.56-.2-.7-2.91-.14-2.91.44,0,.85.99.85,2.02,0,.81,2.34,4.37,2.88,4.37.17,0,.32-.26.32-.59,0-.86-1.28-3.41-1.72-3.41-.21,0-.27-.53-.14-1.16.16-.82,0-1.46-.56-2.17-.92-1.16-.75-1.34,1.42-1.5,1.76-.12,3.4.56,3.4,1.41,0,.3.27.65.6.77.77.29.75.06-.04-1.16-.59-.9-.59-1.09.02-2.38.54-1.13.89-1.4,1.85-1.4.81,0,1.18.19,1.18.64,0,.34.36,1.09.8,1.65.44.56.8,1.33.8,1.72,0,.83,1.25,3.17,1.7,3.17.16,0,.3-.2.3-.45,0-.75-.91-3.71-1.31-4.23-.34-.45-.05-2.91.35-2.91,1.19,0,3.7,3.43,3.79,5.17.05,1.04,1.36,3,2.29,3.42.48.22.88.62.88.9s.34.5.77.5.89.19,1.04.43c.14.23.51.33.82.21.31-.12.56.03.56.32s.27.76.6,1.03c.34.28.6,1.15.6,1.97s.27,1.83.59,2.25c.76,1.01.79,3.62.04,3.9-.46.18-.48.54-.13,1.95.46,1.85,2.15,4.72,2.78,4.72.21,0,.3.22.21.49-.09.27.34,1.29.97,2.28.62.98,1.13,1.91,1.13,2.07s.72,1.55,1.59,3.1c.89,1.56,1.6,3.11,1.6,3.46,0,.46.31.61,1.1.51,1.67-.19,2.58,1.54,3.3,6.25.26,1.75.71,3.37.99,3.6.72.59,3.83,5.41,3.49,5.41-.15,0-1.29-.96-2.52-2.13-1.83-1.75-2.36-2.57-2.97-4.6-.56-1.86-.92-2.47-1.48-2.47-.4,0-.84.26-.96.59-.27.71,1.35,6.1,1.99,6.62.25.21,1.65,1.45,3.09,2.77,2.56,2.33,2.65,2.48,3.13,5.18.42,2.38.68,2.92,1.76,3.73.7.52,1.59,1.07,1.97,1.21.97.36,1.5,1.93,1.5,4.52,0,1.57-.17,2.25-.6,2.41-.96.37-.73,1.96.36,2.45,2.21,1.01,3.81,4.5,3.83,8.4,0,.94.31,2.16.66,2.71.36.55.79,2.35.95,4l.29,3,2.66,2.75c2.57,2.67,3.84,4.77,3.84,6.36,0,1.34,1.31,2.42,4.2,3.46,1.54.55,3.28,1.36,3.88,1.8.59.43,1.33.8,1.64.8s1.22.45,2.04,1c.81.55,1.78,1,2.15,1s1.24.34,1.91.75c.68.42,1.67.88,2.2,1.05.53.17,2.04.92,3.33,1.67,2.11,1.23,2.43,1.31,2.97.77.77-.77.18-1.57-1.95-2.65-.81-.42-1.58-1.03-1.71-1.37-.3-.77-.12-.77,1.39,0,.84.44,1.35.5,1.7.21.35-.29.75-.24,1.35.18.46.32.94.43,1.07.23.33-.53-2.41-2.8-4.42-3.66ZM164.1,267.91c3.17-.17,3.7.34,1.24,1.23-1.65.59-3.17.67-3.92.19-1.17-.74-.17-1.27,2.68-1.42ZM186.4,246.72c-.14.66-.33,1.69-.42,2.28-.1.6-.37,1.45-.61,1.9-.61,1.14-1.06,1.01-1.57-.45-.24-.69-.44-1.31-.44-1.37s.74-.88,1.65-1.84q1.65-1.74,1.39-.53ZM190.58,230.74c.2.12.37.49.37.8,0,.66-.63.77-1,.18-.32-.53.16-1.28.63-.98ZM190.56,202.14c.21,0,.4.9.4,2s-.18,2-.4,2-.4-.9-.4-2,.18-2,.4-2ZM186.23,177.31l.12-1.72.67,1.02c.36.56.75,1.59.86,2.28.25,1.54-.19,1.9-1.1.9-.47-.52-.64-1.28-.55-2.48ZM185.55,182.28c.38.98.62,2.2.55,2.72-.1.68-.35.25-.9-1.55-.89-2.91-.64-3.76.35-1.17ZM181.62,176.69c-.14-.14-.25-.64-.24-1.1.03-.76.06-.75.41.13.39.98.31,1.45-.17.97ZM184.12,178.14c.36-.9.39-.86.42.52.03,1.52-.23,1.94-.6.98-.11-.29-.03-.96.18-1.5ZM178.25,162.52c.28-.83,4.71,4.39,4.71,5.54,0,.43.19,1.33.43,2.01.23.67.36,1.89.3,2.71-.12,1.44-.14,1.46-.83.7-.38-.43-.7-1.07-.7-1.44,0-1.55-.99-4.23-1.63-4.4-.64-.17-2.53-4.39-2.28-5.12ZM186.16,125.28c1.01.26,1,.7-.03,2.15-.81,1.12-1.55,1.44-2.11.89-.86-.86.9-3.37,2.13-3.04ZM185.54,132.62c-.31.49-1.27.47-1.58-.03-.31-.49.79-.97,1.39-.61.23.14.32.43.19.64ZM183.84,122.74c.83.51.95,1.06.24,1.06-.27,0-1.07.57-1.8,1.28-1.01.98-1.32,1.12-1.32.59,0-.83.79-2.28,1.58-2.91.43-.34.76-.34,1.3-.01ZM181.85,120.14c.36.36.37.67.06,1.17-.51.81-4.33,3.14-3.87,2.36.18-.3,1-1.32,1.83-2.28,1.18-1.37,1.61-1.63,1.98-1.25ZM177.36,66.64c.22,0,.4.17.4.4s-.17.4-.4.4-.4-.18-.4-.4.17-.4.4-.4ZM180.5,116.69c1.31.25.83,1.35-1.3,3.01-2.05,1.59-3.44,2.14-3.44,1.35,0-.7,4.11-4.49,4.74-4.37ZM156.18,42.25c.44.23.8.6.8.81,0,.53-.55.48-1.12-.09-.75-.75-.57-1.19.32-.72ZM153.49,45.7c.81-.54,1.54-.69,2.7-.53.87.12,1.69.05,1.82-.15.12-.2.52-.36.88-.36.51,0,.55.1.18.47-.85.85-.52,1.12,1.29,1.12,2,0,2.65.55,1.44,1.2-.45.24-.81.56-.81.73s1.29.63,2.87,1.04c2.6.67,2.8.79,2.13,1.29-.42.3-1.48.55-2.37.56h-1.62s.91.77.91.77c.51.42,1.76.89,2.8,1.03,4.6.66,6.27,2.58,2.26,2.58-2.37,0-2.63.55-.47,1.01.72.15,1.69.64,2.18,1.09.49.45,1.28,1.01,1.76,1.26,1.4.72.86,1.26-1.1,1.12-2.52-.17-2.13.64.89,1.85,2.58,1.03,3.77,1.89,3.77,2.75,0,.6-1.42.39-3.19-.47-1.5-.73-3.2-1.07-3.2-.64,0,.21.4.51.87.66.48.15,1.33.72,1.9,1.27.56.54,1.6,1.24,2.3,1.54,1.24.54,2.11,1.37,1.44,1.37-.18,0-1.68-.45-3.32-.99-1.65-.55-3.32-.99-3.72-1-1.01-.01-.6.96.47,1.12.61.09.86.41.86,1.07,0,1.26-.68,1.62-1.57.83-.66-.6-.76-.6-1.26,0-.3.36-.49,1.24-.44,1.95.1,1.18-.01,1.33-1.21,1.61-.73.17-1.5.34-1.72.36-.22.03-.35.34-.3.68.08.51-.8.76-4.7,1.33-3.68.55-4.8.85-4.8,1.31s.29.55,1.1.39c.69-.14,1.54.06,2.3.53.87.53,1.75.7,3.19.59,2.7-.2,4.26.31,1.8.6-1.72.2-1.8.26-1.67,1.41.18,1.76,1.12,3,2.28,3,.8,0,.99-.2.99-1.03,0-1.15.9-1.16,1.13-.02.13.7-.93,4.47-1.54,5.45-.55.89-1.41-.14-2.18-2.6-.38-1.21-.85-2.3-1.05-2.42-.2-.12-.36-.62-.36-1.1,0-.66-.36-1-1.49-1.35-1.56-.49-2.5-.16-2.5.88,0,.32-.48.49-1.3.45-1.62-.07-1.85,1.08-.25,1.26,1,.12,1.05.24,1,2.2-.08,2.88.92,2.87,1.7-.02.31-1.15.7-2.1.85-2.1.25,0,2.79,4.93,2.79,5.42,0,.1.36.54.8.98,1.37,1.37,1.03,2.23-1.18,2.95-1.08.36-2.35.64-2.81.64-1.01,0-4.01,1.48-4.01,1.97,0,.53-3.14,2.06-3.39,1.65-.55-.9-.47-5.86.12-7.11.73-1.53.9-1.57,1.9-.46,1.15,1.27,2.05,1.65,2.31.98.12-.34-.53-1.37-1.6-2.49-1-1.05-2.1-2.41-2.46-3.02-.98-1.65-2.95-1.5-6.87.55-1.74.9-3.25,1.89-3.36,2.2-.29.74-1.44.71-1.44-.04,0-.32.67-1.21,1.5-1.97,1.12-1.02,1.63-1.26,2.01-.94.38.31.75.21,1.4-.36,1.44-1.27,2.93-2.09,4.56-2.51.84-.21,2.59-.75,3.88-1.2,1.3-.46,2.97-.83,3.7-.83.87,0,1.33-.19,1.33-.55,0-.74-1.81-1.16-2.78-.65-.42.22-1.14.41-1.61.41s-1.24.25-1.73.55c-1.27.8-2.69,1.17-2.69.7,0-.21.92-.73,2.03-1.15,1.11-.42,2.06-.92,2.1-1.13.04-.21-.87-.46-2.03-.57l-2.1-.2,1.41-1.13c1.34-1.06,2.73-1.57,7.73-2.87,2.67-.68,3.03-1,1.13-1-1.52,0-1.8-.31-.99-1.11.79-.79.1-.96-2.13-.51-1.18.24-2.67.52-3.34.62-1.12.18-1.11.16.2-.32.77-.28,1.85-.72,2.4-.97,3.19-1.46,5.03-2.1,6.05-2.1,1.2,0,1.56-.66.57-1.05-1.2-.45-6.47.71-9.22,2.04-1.54.74-3.28,1.46-3.88,1.58-1.33.29-2.27,1.74-1.45,2.28.42.27.33.52-.46,1.16-.55.44-1.5.91-2.11,1.05-.6.13-1.2.4-1.32.59-.42.68-.89.33-.68-.49.21-.77.75-1.13,2.65-1.74.57-.18.64-.36.29-.77-.54-.66.25-2.77,1.54-4.15.7-.73.77-1.05.4-1.74-.38-.72-.28-1.02.68-2.04,1.24-1.31,3.1-2.42,3.46-2.06.3.3,5.39-1.41,5.71-1.93.81-1.31-2.73-.94-5.72.6-1.66.86-1.98.83-2.24-.16-.17-.65-.06-.77.52-.58.4.12.85.04.99-.19.14-.23.68-.42,1.19-.42s1.35-.35,1.87-.78l.94-.79h-1.45c-.81-.02-1.67.23-1.95.57-.55.66-1.6.81-1.6.23,0-.2.45-.73,1.01-1.17.92-.72.75-1.66-.18-1.08-.51.32-.91-1.11-.62-2.25.19-.78.32-1.57.57-3.55.02-.12.68-.45,1.47-.74.89-.32,1.3-.66,1.06-.89-.23-.23-.79-.22-1.46.04-1.61.61-2.24.51-2.24-.38,0-.58.27-.8.96-.8.98,0,2.03-.47,3.95-1.76ZM167.51,105.66c.23,1.7.21,1.75-.87,1.75-1.87,0-2.53-.8-2.71-3.3-.14-1.93-.03-2.38.72-3.08.48-.45,1.11-.81,1.39-.81.74,0,2.25,3.08,1.69,3.43-.28.17-.36.92-.21,2.02ZM157.63,127.6c-.44.32-1.26.44-2.08.31-.89-.14-1.69,0-2.35.43-1.73,1.14-1.97.96-2.35-1.8-.11-.8-1.08-2.87-2.15-4.6-1.07-1.73-2.13-3.59-2.38-4.14-.7-1.6-1.34-3.22-1.34-3.43,0-.55,2.61,1.29,4.09,2.89.94,1.02,2.59,2.77,3.66,3.89,5.87,6.11,5.69,5.87,4.89,6.45ZM157.97,131c-.14.21-.31.4-.4.4s-.27-.18-.4-.4c-.14-.22.04-.4.4-.4s.53.18.4.4ZM156.03,133.09c-.13.49-.24,1.13-.25,1.4,0,.59-.65.67-.98.13-.29-.47.58-2.43,1.09-2.43.21,0,.27.4.14.9ZM133.06,93.22l-.9-.87c-.83-.81-.96-.83-1.83-.25-.76.5-1.05.52-1.54.12-.44-.36-.49-.64-.18-1.01.55-.68-.3-1.26-.93-.63-.74.74-.96.51-.76-.81.15-1.03.06-1.22-.44-1.03-.86.33-3.47-.44-3.49-1.03,0-.27-.35-.92-.76-1.46-.65-.85-.85-.9-1.41-.44-.51.43-.76.44-1.13.06-.38-.38-.32-.61.27-1.05.77-.57.65-1.79-.18-1.79-.29,0-.36-.37-.21-.97.14-.54.08-1.42-.12-1.95-.28-.72-.2-1.31.3-2.21,1.15-2.1,3.85-6.01,4.17-6.04.17-.01.19.71.05,1.6-.23,1.42-.16,1.65.58,1.84.83.22.83.23-.18,1.56-1,1.31-1.05,2.97-.1,2.97.22,0,.29.36.14.8-.32,1.04,1,1.11,1.91.1,1.17-1.29,1.58-2.93.91-3.66-.34-.38-.49-1.03-.36-1.54.14-.55.05-.88-.24-.88s-.38-.31-.21-.83c.16-.5.03-1.09-.34-1.5-.66-.75-1-5.01-.47-6.21.21-.49.13-.86-.22-1.07-.45-.28-.4-.68.25-2.26.44-1.06.97-1.93,1.18-1.95,2.03-.1,4.72-.86,6.56-1.85,1.85-.99,2.56-1.17,4.29-1.03,3.31.26,6.52,3.26,6.52,6.1,0,1.04-.23,1.3-1.71,1.9-.93.38-1.9.7-2.15.7-.81,0-.99,1.31-.9,6.57.07,3.65-.04,5.22-.37,5.33-.26.09-.47-.03-.47-.25s-.49-.46-1.1-.53c-.96-.11-1.09-.29-1.04-1.43.05-1.01-.1-1.3-.67-1.3-1,0-1.98,1.07-1.98,2.15,0,.6-.43,1.13-1.3,1.6-.71.39-2.1,1.14-3.08,1.68-1.82.98-3.14,2.71-2.43,3.15.21.14.71.06,1.1-.14.4-.21,1.04-.49,1.43-.61.4-.12.92-.77,1.15-1.46.3-.88.55-1.11.86-.8.24.23.79.43,1.23.43.62,0,.7.1.32.47-.52.53-.66,2.72-.17,2.72.61,0,2.59,2.91,2.68,3.94.05.58.22,1.36.38,1.72.16.36.23,1.32.16,2.13-.1,1.17-.22,1.37-.62.96-.27-.27-.5-.74-.5-1.02,0-.8-.63-.62-1.31.38l-.61.9ZM133.21,94.75s-.37.47-.85.98c-.84.87-.88.88-1.07.14-.16-.59.04-.82.84-.97.58-.12,1.06-.18,1.07-.14ZM126.2,100.21c.77,0,1.2-.2,1.2-.58,0-.31.17-.68.37-.81.57-.35.21,3.29-.4,4.02-.79.96-2.33,1.48-4.57,1.56-1.1.04-2.26.19-2.59.34-.98.45-6.79-5.33-6.79-6.75,0-.55,3.42.27,4.52,1.07,1.32.96,2.38.73,2.2-.49-.08-.58-.9-1.24-2.54-2.1-1.33-.69-2.93-1.66-3.56-2.16-.63-.5-1.56-1.01-2.06-1.14-.86-.21-3.35-3.51-3.35-4.43,0-.39,4.01-1.01,4.37-.67.1.08-.22.57-.7,1.08-.48.51-.87,1.05-.87,1.2,0,.48,2.37.3,3.77-.28,1.28-.53,1.36-.51,1.78.4.24.53.63.96.87.96s.34.15.22.34c-.36.59,1.17,4.25,1.83,4.38,1.14.21,2.02-1.09,1.74-2.58-.24-1.31-.22-1.34,1.18-1.34,1.32,0,1.41.07,1.17,1-.27,1.1.18,1.27,1.48.57.44-.23,1.33-.31,1.98-.17l1.18.26-1.27,2.26c-.7,1.25-1.52,2.55-1.81,2.89-.8.94-.66,1.17.66,1.17ZM120.32,112.82c-1.08,2.43-2.44,5.1-3.01,5.95l-1.04,1.53.21-1.74c.23-2,4.83-11.6,5.69-11.87.82-.26.43,1.06-1.84,6.14ZM100.43,67.45c-.36-.4-.82-1.85-1.01-3.22-.21-1.5-.66-2.82-1.13-3.34-.67-.74-3.12-7.41-2.79-7.61.07-.04.72-.56,1.45-1.15,1.62-1.31,3.46-1.41,4.7-.25,1.33,1.24,3.86,1.46,5.15.44.84-.66,1.27-.75,2.32-.45.7.21,1.78.37,2.38.37,1.27,0,1.35.36.46,2.08-.59,1.15-.59,1.35,0,2.6.94,1.96.81,2.73-.74,4.44-1.63,1.8-2.21,3.17-2.22,5.19,0,.97-.42,2.08-1.2,3.23-1.57,2.33-1.65,4.81-.18,6.28.55.56.9,1.18.77,1.39-.12.2.04.87.38,1.47.84,1.52,1.7,4.9,1.52,6-.1.64-.42.9-1.09.9-.52,0-1.22.27-1.54.6-.79.78-.78.78-1.52-.5-.35-.6-.59-1.72-.53-2.5.12-1.67-1.52-5.41-2.63-6.01-.61-.32-.77-.85-.77-2.43,0-1.41-.25-2.38-.83-3.19-.62-.87-.76-1.48-.57-2.39.19-.86.08-1.43-.39-1.95ZM114.87,80.59c-.53.79-1.16,1.8-1.39,2.24-.32.62-.37.4-.19-1,.27-2.08,1.87-4.41,2.29-3.32.14.37-.16,1.26-.72,2.08ZM115.62,84.69c1.07-1.02,1.26-.69.53.92-.48,1.05-1.54,1.41-1.53.52,0-.27.45-.92,1-1.44ZM121.7,89.59c.14.13.06.44-.18.67-.29.28-.51.29-.68.02-.28-.45.48-1.07.86-.69ZM122.6,64.46c0-.34.17-.62.4-.62s.4.17.4.38-.18.48-.4.62c-.22.14-.4-.03-.4-.37ZM127.4,58.63c0-.21.34-.39.75-.39s1.36-.1,2.1-.21c.98-.15,1.13-.12.55.14-1.37.6-3.4.87-3.4.46ZM134.06,43.05c.42,0,.97-.19,1.21-.44.24-.24.77-.37,1.18-.29.49.1-.3.66-2.32,1.63-3.31,1.61-3.53,1.67-3.53,1.12s2.56-2.03,3.46-2.03ZM130.2,42.45c-1.78,1.21-3.38,2.2-3.57,2.2s-.56.27-.83.6c-.85,1.02-1.64.75-1.2-.4.21-.55.56-2.11.77-3.45.22-1.34.68-2.87,1.01-3.38l.62-.94,1.59.83c.87.45,2.09.87,2.69.93,2.2.19,4.09.71,3.87,1.06-.12.2-.56.36-.98.36s-2.21.99-3.99,2.2ZM136.19,50.85c.21.14.4.32.4.42s-.18.18-.4.18-.4-.19-.4-.42.18-.31.4-.17ZM143.03,46.71c.76,1.07.77,1.14.08,1.11-1.4-.05-2.52-.87-2.52-1.83,0-1.08-.97-1.24-2.14-.35-.74.56-1.86.43-1.86-.21,0-.18.49-.57,1.1-.87.81-.39,1.09-.83,1.09-1.62-.03-1.55,1.07-1.4,2.8.38.93.96,1.29,1.61,1.04,1.87-.25.25-.11.78.42,1.52ZM141.2,51.99c.32.46.58.98.58,1.15s-.36.3-.8.3-.8-.18-.8-.41-.45-.58-1-.79c-.79-.3-1-.66-.99-1.69v-1.31s.76.9.76.9c.51.6.99.81,1.49.63.4-.14.6-.12.45.05-.16.17-.03.7.3,1.15ZM141.38,54.24c.53,0,.8.27.8.8,0,.9-.41,1.03-1.12.32-.7-.7-.59-1.12.32-1.12ZM137.4,53.44c.45,0,.91.27,1.03.59.34.89.04,1.23-.95,1.09-1.18-.17-1.26-1.67-.08-1.67ZM142.71,69.81c-.12.45-.37.82-.57.82-.54,0-.42-.64.21-1.17.47-.39.53-.32.35.35ZM137.39,80.62c0,.22-.68.4-1.5.4-1.12,0-1.35-.1-.9-.4.79-.51,2.4-.51,2.4,0ZM133.89,96.65c.7-.02,1.1-.25,1.1-.63,0-.33.18-.6.4-.6s.4.33.4.74c0,.55.39.81,1.48.99,1.71.28,2.52-.23,2.52-1.58,0-.79-.21-.95-1.18-.95-.64,0-1.27-.15-1.39-.34-.33-.53.94-2.06,1.72-2.06s1.81,1.81,1.41,2.45c-.13.21-.06.6.15.87.21.26.27,1.27.13,2.24-.14.97-.43,1.82-.65,1.89-.21.07-1.14-.3-2.06-.82-.91-.52-2.44-1.22-3.4-1.56-1.5-.53-1.59-.62-.64-.64ZM138.99,88.97c0-.29,3.02-1.95,3.53-1.95.1,0-.1.33-.46.72-.73.81-.49,2.49.35,2.49,1.03,0,2.47-.75,2.73-1.42.15-.38-.02-1.13-.4-1.69-.62-.96-.61-1.03.29-1.73,1.46-1.13,2.35-.97,2.35.42,0,.65.17,1.28.38,1.41.21.13.29.47.18.76-.11.28-.24,1.66-.29,3.05-.08,2.35-.63,3.43-1.24,2.44-.13-.21-1.09-.7-2.13-1.09-2-.74-5.29-2.86-5.29-3.41ZM142.7,93.97c.4-.4,2.03.15,2.92.98.45.42,1.21.98,1.69,1.23,1.16.62,1.11,1.57-.12,1.87-.55.14-1.53.86-2.19,1.61-.66.75-1.37,1.36-1.57,1.36-.92,0-1.56-6.21-.73-7.05ZM151.04,102.38c-.67.34-1.31.63-1.44.63-.45,0-.18-1.03.51-1.92.7-.92.71-.92,1.42-.13.7.77.68.81-.49,1.42ZM152.05,113.81c.37,0,.53.31.46.87-.13.86-.77,1.35-1.21.92-.42-.42.16-1.78.75-1.78ZM150.19,106.81c1.06.34.83,1.11-.42,1.4-.57.14-1.04.6-1.18,1.18-.12.52-.47,1.03-.78,1.14-.4.13-.47-.02-.23-.57.17-.42.4-1.15.51-1.64.27-1.22,1.11-1.83,2.11-1.51ZM147.45,112.37c-.23.14-.53.06-.68-.18-.38-.62.14-1.01.65-.5.29.29.3.51.03.68ZM157.77,121.85c0-.19.3-.6.67-.9.6-.5.62-.47.18.35-.49.93-.85,1.16-.85.55ZM158.57,111.41v-1.05c0-.89.1-.98.6-.56.49.4.6.39.6-.08,0-.81-1.28-1.89-2.65-2.26-1-.27-1.2-.57-1.56-2.45-.47-2.43-1.03-2.89-1.7-1.41-.48,1.07-1.05,1.3-1.49.6-.31-.51,1.49-1.99,3.39-2.76.78-.32,1.69-.9,2.02-1.3.83-.99,4.51-1.2,4.7-.26.12.55-.14.62-1.63.45-2.48-.28-2.66.38-.7,2.51,1.85,2.01,2.43,3.23,2.43,5.16,0,1.2-.21,1.44-2,2.38l-2,1.04ZM155.67,98.17c.27-.27.59-.4.72-.27.12.12-.1.34-.49.49-.57.22-.61.17-.22-.22ZM159.45,114.14c.08-.53.81-1.24,1.93-1.86,1.52-.85,2.1-.96,3.7-.71,2.21.33,2.43.84.6,1.37-.71.2-2.25.75-3.41,1.22-2.64,1.06-2.97,1.05-2.81-.01ZM166.74,96.19c.66.72.62.75-.7.75-.77,0-1.95.12-2.63.27-1.08.23-1.24.16-1.24-.58,0-.7-.2-.84-1.1-.73-.85.1-1.09.33-1.07,1.03.04,1.12-.25,1.13-1.17.06-.57-.66-1-.79-1.97-.6-2.13.43-4.26,1.6-4.27,2.34,0,.47-.32.7-.96.7-.6,0-1.43.53-2.19,1.4-.67.77-1.41,1.4-1.64,1.4-.72,0-.44-.97.59-2.09.55-.59,1-1.25,1-1.47,0-.73,2.57-2.36,5.4-3.43,2.67-1.01,3.04-1.05,7.99-.81,6.19.29,7,.44,7,1.22,0,.53-.16.53-1.24-.04-.68-.35-1.52-.53-1.85-.4-.55.21-.54.32.06.99ZM166.41,88.02c-.76-.63-.89-.99-.61-1.7.53-1.4,1.11-1.07,1.61.9.25,1,.61,1.91.8,2.02.19.12.35.66.35,1.19,0,.81-.19.97-1.1.95-.6-.02-1.45-.17-1.89-.34-.76-.29-.74-.33.2-.83,1.52-.81,1.67-1.33.63-2.2ZM168.79,78.99c-.21-.2-1.29-.39-2.4-.42-1.11-.03-1.57-.14-1.01-.23.55-.1,1.17-.34,1.38-.55.58-.57,2.11-.43,2.35.2.12.32.71.63,1.31.7.6.07,1.16.35,1.26.63.09.27-.08.47-.37.45-1.04-.09-2.13-.44-2.51-.79ZM170.15,103.44c.51-.96,1.82-1.11,2.16-.23.26.69-.08,1.8-.56,1.8-.18,0-.61.11-.95.24-.83.32-1.22-.75-.65-1.81ZM172.37,92.22c-.33,0-.6-.36-.6-.8,0-.95.61-1.06.96-.17.13.35.24.71.24.8s-.27.17-.6.17ZM124.38,29.11c.79-.79,1.21-.34.59.66-.27.44-.36,1.12-.2,1.54.29.73.3.73.85,0,.3-.42,1.12-1.39,1.84-2.17l1.29-1.42.58.86c.73,1.09,1.67,1.11,3.04.03,1.22-.96,2.67-.77,1.84.24-.42.51-.29.6.93.6.78,0,1.53.17,1.67.39.13.21,1.01.36,1.94.32,1.33-.06,2.03.18,3.2,1.07.83.63,1.73,1.43,1.99,1.78.26.35,1.01.82,1.67,1.04.66.23,1.43.89,1.71,1.48.28.59.83,1.16,1.22,1.29.39.12,1.35.9,2.11,1.73,1.25,1.33,1.39,1.69,1.24,3.19-.18,1.81-.88,2.37-.88.71,0-2.5-3.56-6.44-6.07-6.71-1.21-.14-1.3,1.36-.1,1.68,1.71.45,3.54,2.31,3.64,3.69.05.73.22,2.11.38,3.08.42,2.57-.46,1.77-1.08-.99-.43-1.92-.75-2.41-2.48-3.79-2.1-1.68-3.08-1.98-3.08-.95,0,.7,1.76,2.59,3.04,3.28.62.33.9.98,1.09,2.55.29,2.43-.28,3.47-.93,1.69-1.08-2.95-1.46-3.53-3.72-5.57-1.72-1.56-2.73-2.18-3.55-2.18-.62,0-1.5-.38-1.96-.84-.61-.61-.96-.72-1.28-.4-.64.64-1.61.55-1.35-.13.12-.31-.05-.79-.38-1.07-.49-.41-.64-.34-.82.37-.31,1.16-1.1,1.1-1.66-.13-.45-.98-1.67-1.41-1.67-.59,0,.27-.29.26-.85-.04-.72-.38-.81-.7-.6-1.99.27-1.67-.18-2.32-.96-1.38-.27.33-.68.59-.92.59s-.74.3-1.14.66c-.67.6-.74.6-.98-.02-.38-.97.12-3.48.82-4.18ZM124.07,50.81c.7-.3,1.42-.8,1.6-1.11.18-.31,1.03-.86,1.89-1.22l1.58-.65,1.33,1.29c.95.92,1.45,1.17,1.76.86.23-.24.77-.34,1.2-.23.56.15.76.55.76,1.54s.14,1.28.6,1.11c.68-.26.77.37.2,1.45-.62,1.16-1.93.58-2.08-.92-.16-1.72-1.35-1.94-1.7-.32-.42,1.87-2.19,2-2.21.16,0-.27-.37-.5-.81-.5-.52,0-.8.27-.8.76,0,.59-.39.83-1.7,1.05-.94.15-1.97.51-2.3.8-.78.68-3.6,1.21-3.6.68,0-.22.22-.57.49-.79,1.05-.83,4.35-2.5,4.94-2.5.34,0,.54-.23.44-.5-.1-.28-.76-.48-1.53-.45l-1.36.05,1.28-.54ZM121.76,31.46c.14,0,.24.49.21,1.1-.03.6.14,1.51.36,2.02.32.7.27,1.05-.2,1.52-.55.55-.64.47-.85-.85-.25-1.54.04-3.79.49-3.79ZM120.39,29.33c.84-.33.77-.01-.4,2-1.09,1.86-1.39,2.1-1.39,1.12s1.09-2.86,1.79-3.12ZM116.92,33.78c.42-.42.59-.04,1.08,2.38.2,1,.13,1.3-.33,1.3-.73,0-1.35-3.07-.75-3.68ZM117.96,54.54c.13.13.03.48-.21.77-.57.7-1.15.68-1.15-.02,0-.6.97-1.14,1.36-.75ZM117.38,60.64c.43,0,.88-.17,1.01-.37.13-.21,1.26-.59,2.51-.85,1.26-.26,2.49-.55,2.75-.65.51-.2.55,2,.05,2.5-.16.16-.29.62-.29,1.03s-.14.71-.3.68c-.17-.03-.8-.14-1.41-.23-.6-.09-1.28-.5-1.49-.9-.32-.59-.71-.69-2-.52-1.05.14-1.61.06-1.61-.23,0-.25.35-.46.77-.46ZM119.6,66.5c-.29.29-.64.53-.77.53-.36,0-.25-.94.18-1.59.33-.51.44-.52.75-.04.23.37.17.75-.17,1.1ZM116.75,65.08c-.5,1.45-.49,1.76.03,2.56.95,1.45,2.36,2.82,3.22,3.14.62.23.67.36.24.63-.33.2-.45.7-.31,1.28.13.52.01,1.22-.25,1.54-.99,1.22-2.53,2.4-2.79,2.13-.56-.55-.24-1.73.73-2.69,1.85-1.86.75-2.83-1.81-1.59-1.22.58-1.51.92-1.35,1.57.25,1-1.14,2.38-2.04,2.04-.55-.21-.53-.42.18-1.82.44-.87.99-1.69,1.22-1.84.23-.14.31-.42.18-.62-.12-.21.19-.37.72-.37,1.32,0,2.48-.94,2.18-1.74-.34-.9-1.7-.83-2.67.13-.44.44-1.29.9-1.9,1.03-1.09.23-1.09.21.39-1.13.97-.88,1.5-1.72,1.5-2.37,0-.55.4-1.52.88-2.16,1.75-2.28,2.49-2.15,1.65.29ZM113.41,55.87c0-.21.18-.49.4-.62.22-.14.4.03.4.38s-.18.62-.4.62-.4-.17-.4-.37ZM115.06,38.53c0,.87-.83.38-1.41-.82-.72-1.53-.83-2.5-.3-2.82.3-.18,1.71,2.81,1.71,3.64ZM101.96,36.9c.26-2.71,2.64-7.99,3.91-8.67.65-.35.7-.25.47.92-.14.72-.59,1.97-1.01,2.77-.57,1.1-.72,2.12-.64,4.16.12,2.78.59,3.49,1.57,2.4,1.27-1.4,1.43-1.75,1.65-3.64.38-3.18,2.35-7.03,4.27-8.36.9-.62,1.75-1.02,1.89-.89.14.14-.19.93-.74,1.76-.54.83-1.6,3.04-2.36,4.91-1.26,3.11-1.37,3.74-1.35,7.4.02,2.85.22,4.44.71,5.56.84,1.94.46,2.43-.68.86-.47-.65-1.26-1.57-1.76-2.05-.55-.53-.81-1.13-.66-1.52.14-.36.06-.64-.17-.64-.56,0-.74,1.46-.41,3.4.15.88.21,1.67.13,1.74-.31.31-2.65-3.84-3.11-5.5-.3-1.12-.74-1.83-1.22-1.96-.66-.17-.72-.48-.51-2.63ZM75.71,99.3l1.88.28c1.81.27,1.94.23,3.26-1.22,1.34-1.46,1.6-2.36.39-1.36-.48.4-1,.4-2.5.03-2.43-.61-2.79-.94-3.94-3.55-1.02-2.28-.97-2.87.21-2.87.4,0,.94-.25,1.2-.56.38-.46.24-.7-.72-1.26-1.14-.68-1.2-.85-1.46-4.33-.19-2.57-.08-4.68.36-7.23.97-5.58,1.17-8.97.68-11.58-.43-2.28-.4-2.42.49-3.19,1.54-1.34,2.05-2.6,1.34-3.3-.66-.66-1.48-.38-1.48.51,0,.32-.25.58-.57.58-1.28,0-1.24-6.29.08-12.3.72-3.27,4.68-7.19,9.51-9.43,1.3-.6,2.86-1.35,3.46-1.66,1.05-.54,1.1-.53,1.1.42,0,.54.14.98.3.96.62-.02,2.15-1.58,1.91-1.95-.13-.22.29-.68.95-1.01,1.53-.79,1.56-.78,1.71.29.19,1.37,1.41,1.1,2.27-.5.44-.82,1.11-1.45,1.61-1.53.92-.14.91-.25.26,2.83-.23,1.07.45,1.63.75.6.08-.27.38-1.31.68-2.3l.55-1.8.2,3.2c.15,2.48.33,3.19.8,3.19.38,0,.96,1.03,1.6,2.83.55,1.55,1.33,3.32,1.73,3.93.93,1.41.67,1.67-.64.64-1.3-1.03-2.31-1.03-2.58,0-.12.44-.29.8-.37.8-.09,0-1.83-.56-3.87-1.24-3.02-1.01-3.83-1.45-4.37-2.4-.46-.81-.98-1.16-1.68-1.16-1.33,0-1.35,1.11-.02,1.44.55.14,1,.53,1,.88s.94,1.5,2.1,2.56c1.67,1.53,1.99,2.01,1.52,2.3-.71.46-2.23-.28-3.58-1.73-1.43-1.52-2.34-1.36-2.65.46-.37,2.23-.98,4.07-2.04,6.18-1.2,2.4-1.29,3.65-.14,2.21.43-.56.79-1.14.79-1.28s.23-.52.5-.83c.27-.3.73-.84,1.03-1.18,1.59-1.9,1.49,2.04-.21,7.79-.55,1.87-1.1,3.94-1.22,4.59l-.21,1.19,1.43-1.19c.79-.65,1.44-1.56,1.46-2.01.02-.46.4-2.25.85-4,.8-3.06,1.66-4.62,2.23-4.05.61.61.17,5.09-.84,8.48-2.82,9.44-3.34,10.78-5.73,14.51-.74,1.17-1.27,2.21-1.18,2.31.42.42,1.52-.41,1.74-1.29.14-.53.55-1.13.92-1.33.38-.2,1.2-1.68,1.82-3.29.62-1.61,1.78-4,2.57-5.32.79-1.32,1.87-3.34,2.41-4.5.54-1.18,1.12-1.96,1.31-1.76.43.43-.6,5.54-1.72,8.46-1.2,3.17-1.31,3.6-.87,3.6.62,0,1.17-.86,1.72-2.7.92-3.12,2.36-3.19,2.37-.12,0,1.37-1.37,6.83-2.84,11.31-1.11,3.38-1,3.94.44,2.36.66-.72,1.31-1.77,1.45-2.32.14-.56.82-2.13,1.5-3.48l1.24-2.46.12,3.1c.06,1.7-.06,3.43-.29,3.84-.46.87-.2,1.26.84,1.26.4,0,.73.14.73.3-.01,1.5-3.2,9-4.8,11.29-.38.55-1.74,2.97-3,5.39-2.56,4.88-4.06,7.21-6.14,9.5-1.23,1.37-2.06,1.91-5.56,3.64-.58.29-.85.7-.73,1.14.25,1-.23,1.15-1.52.48-.62-.32-1.48-.58-1.93-.58-.75,0-.79-.17-.55-2.1.75-5.89.64-5.65,2.75-6.04,1.72-.31,1.9-.45,1.9-1.45s-.12-1.11-2.26-1.33c-1.24-.13-2.51-.49-2.82-.8-.34-.33-.66-1.82-.8-3.68l-.23-3.11ZM92.22,51.09c0,.19-.27.35-.61.35-.64,0-1.26-1.06-.85-1.47.29-.29,1.46.62,1.46,1.12ZM60.45,186.86c.62-2.45.96-.85.73,3.4-.14,2.47-.3,4.55-.36,4.63-.55.67-.86-6.06-.37-8.02ZM57.28,241.82c.14-.72.39-1.3.55-1.3s.4-1.57.52-3.49c.13-1.93.54-4.58.92-5.9.44-1.57.72-4.24.79-7.74.14-6.4.99-12.57,1.63-11.92.57.57.55,3.57-.04,6.46-.47,2.27-.69,6.14-.82,14.15-.16,9.84-.25,11.09-.86,11.54-1.54,1.13-3.07.1-2.69-1.8ZM101.42,260.92c-.56-1.7-2.17-3.52-2.56-2.89-.13.21.03,1.26.36,2.33.81,2.67.75,4.28-.18,5.12-.75.68-.78.66-.9-1.03-.15-2.1-1.26-2.67-1.7-.87-.15.62-.64,1.89-1.08,2.82-.61,1.28-1.04,1.7-1.74,1.7-.87,0-.91-.09-.55-1.41.21-.77.28-1.58.14-1.8-.31-.51-1.39-.51-1.39,0,0,.75-2.51,3.26-2.89,2.88-.23-.23-.17-.7.15-1.21.89-1.43-.06-1.81-1.96-.77-1.78.98-2.56.75-1.78-.51.41-.65.38-.83-.14-1.03-.35-.14-1.09-.05-1.63.21-1.35.61-1.53.56-.77-.2,1-1,.33-1.2-.72-.22-1.21,1.13-2.85,1.19-2.56.08.34-1.32-.58-1.7-2.5-1.02-2.09.74-2.74.78-2.09.12.27-.26.48-.59.48-.73,0-.28-2.81-.12-4.44.25-.85.19-1.09.06-1.28-.65-.17-.66-.42-.82-.96-.61-1.48.57-2.92.72-2.92.3,0-.23.18-.54.4-.68.71-.44.42-1-.52-1-.51,0-1.11-.19-1.35-.44-.31-.31-.78-.25-1.66.2-1.63.84-1.67.83-1.67-.61,0-1.16-.08-1.23-1.2-1.07-.82.12-1.2,0-1.2-.36,0-.62-1.04-.72-1.4-.13-.47.76-1.5.45-1.29-.38.12-.43-.01-1.09-.29-1.46-.45-.62-.56-.62-1.5,0-1.19.78-1.98.57-2.54-.66-.23-.49-.67-.82-1-.74-1.41.38-2.21.2-2.55-.59-.31-.72-.7-.83-2.66-.81-1.65.02-2.5-.16-3.06-.66-1.03-.93-1.97-.87-2.23.14-.18.7-.42.79-1.39.59-.97-.21-1.29-.08-1.84.76-.36.56-1.02,1.01-1.46,1.01s-.79.27-.79.6-.2.6-.45.6c-.26,0-.36.42-.25.99.12.64-.07,1.23-.55,1.67-.41.37-.74.94-.74,1.26,0,.95-1.27,1.62-2.64,1.4-1.49-.24-2.12.46-.98,1.07.85.45.85.42-.53,3.07-.94,1.81-.86,1.98,1.18,2.59,1.8.53,2.84,1.57,2.36,2.36-.66,1.06-4.02-.29-4.61-1.86-.2-.54-.91-1.29-1.57-1.67-.66-.38-1.3-.94-1.42-1.24-.12-.31.51-1.57,1.39-2.8,5.59-7.79,6.47-9.55,3.23-6.4-1.27,1.23-1.78,1.52-2.02,1.13-.21-.33.11-1.07.88-2.05,1.05-1.33,1.16-1.67.8-2.69-.53-1.53-.22-2.6.94-3.23,1.13-.6,1.57-1.56.99-2.15-.3-.3-.67-.27-1.25.1-.46.28-.91.43-1.01.34-.42-.42.9-2.34,2.12-3.06.81-.49,1.33-1.11,1.33-1.6,0-1-1.05-1.07-2.07-.15-.4.36-.86.52-1.03.34-.16-.17-.08-.4.19-.49.26-.09,1.12-1.06,1.9-2.14,1.34-1.87,1.51-1.97,3.24-1.97,2.91,0,4.23,1.08,2.69,2.21-.59.43-.61.59-.12,1.18.41.49.9.6,1.89.42,1.17-.22,1.37-.12,1.73.81.33.88.6,1.03,1.5.88.6-.1,1.39-.32,1.76-.47.64-.28,1.45.72,2.17,2.67.36.97,1.1.88,1.57-.2.22-.49.8-.96,1.29-1.03,1.01-.14,1.04-.09.53,1.23-.21.56-.21,1.19,0,1.53.3.48.62.42,1.95-.33,2-1.14,2.04-1.14,1.63.27-.56,1.95.79,2.3,2.26.59.98-1.15,2.13-1.07,2.13.14,0,1.1,1.21,2.65,1.69,2.17.22-.22.68-.3,1.02-.17.48.19.55.03.35-.8-.36-1.42.06-2.3,1.08-2.3.47,0,1.1-.37,1.38-.83.4-.65.64-.73,1.07-.38.42.35.77.31,1.5-.16.82-.53,1.59-.56,5.52-.21,5.02.45,7.16,1.02,11.37,3.01,2.24,1.06,3.45,1.37,6.08,1.53,1.89.11,3.38.03,3.52-.18.88-1.43,6.03,1.09,8.34,4.07,1.8,2.32,2.6,4.29,2.62,6.43.03,1.95-.52,1.91-1.18-.08ZM63.94,220.3c1.09-1.09,1.53,3.26,1.28,12.83-.12,4.61-.29,8.61-.38,8.89-.34,1.05-.95.43-1.17-1.2-.33-2.38-.08-20.15.28-20.52ZM68.87,226c.55.12,1.35,3.68,1.36,6.02,0,2.35-.7,7.43-1.23,8.8-.57,1.5-1.16,1.02-1.22-1-.31-9.99,0-14.05,1.09-13.82ZM72.23,244.4c.44-.12.7-.05.58.15-.12.2-.48.36-.8.36-.83,0-.71-.27.22-.51ZM72.6,233.91c.57.35,1.58,3.76,1.87,6.31.26,2.27.25,2.3-.76,2.3-1.16,0-1.41-.53-1.5-3.19-.12-3.64.03-5.64.38-5.41ZM79.74,235.59c.36-1.14.41-1,.45,1.43.02,1.48-.04,2.69-.14,2.69-.45,0-.68-2.98-.3-4.13ZM158.39,266.89c1.63-1.53,2.19-.07.66,1.71-.78.9-1.14.88-1.39-.07-.13-.48.14-1.09.72-1.64ZM157.16,265.29c.13.21-.26.91-.87,1.57-1.25,1.34-3.71,2.1-3.71,1.14,0-.31.36-.89.8-1.29.44-.4.79-.97.79-1.26,0-.62,2.61-.76,2.99-.15ZM153.38,263.11c.66.4.45,1.36-.46,2.1-.47.38-1.44,1.19-2.15,1.8-.72.6-1.63,1.09-2.04,1.08-.62,0-.56-.16.38-.93.96-.79,1.25-1.33,1.44-2.66.06-.45,2.45-1.62,2.83-1.39ZM156.97,186.67c0,.17-.43.51-.97.76-1.22.55-1.78,2.57-.89,3.26.33.26.66.83.74,1.27.08.44.45.85.83.92.51.1.7-.13.7-.87,0-1.18.74-1.78,1.24-1,.49.77.45,4.25-.05,4.56-.23.14-.98,1.5-1.65,3.03-1.22,2.72-1.26,2.76-2.61,2.61-1.63-.18-2.29.62-2.72,3.28-.3,1.89-.47,1.81,2.12,1.06.51-.15,1.1-.73,1.31-1.29.21-.56.48-.92.6-.81.39.39-1.14,4.36-1.79,4.64-1.33.58-3.24,1.87-3.24,2.19,0,.18.36.79.79,1.35,1.07,1.35,1.02,1.75-.4,3.1-1.33,1.28-1.5,1.8-.59,1.8.83,0,1.18,1.08.58,1.8-.27.32-.33.6-.14.6.19,0,.03.2-.35.42-.39.23-1.07,1.13-1.52,2.01l-.81,1.6,1.01-.67c.95-.62,1.03-.62,1.28.03.17.45-.02.92-.54,1.34-.88.7-2.25,3.25-1.92,3.58.1.11.54-.11.96-.49.57-.51.84-.57,1.07-.2.18.3-.21.9-1.05,1.58-1.2.98-1.28,1.17-.77,1.78.51.61.42.81-.79,1.8-1.28,1.04-1.31,1.15-.68,1.78.83.83.84.71-.1,1.79-.42.49-.67,1.16-.55,1.48.12.32-.17,1-.65,1.51-.62.68-.8,1.21-.61,1.95.18.72.06,1.12-.42,1.39-.57.32-.6.5-.16,1.21.44.71.4,1.05-.23,2.23-.65,1.2-.68,1.48-.19,2.07.48.59.46.75-.2,1.23-.75.55-.75.57.01,1.15.67.51.7.65.18,1.01-.53.36-.51.48.1.95.89.68.93,2.25.07,2.25-.35,0-.56.22-.46.5.1.27.65.44,1.24.38.81-.09,1.05.06,1.05.65,0,.42-.27.99-.6,1.26-.87.72-.74,1.2.35,1.2.62,0,1.33.49,2.01,1.39.69.91,1.61,1.54,2.65,1.82.87.23,1.59.66,1.59.93,0,.42-4.88,4.67-5.36,4.67-.08,0-.25-.39-.37-.87-.3-1.14.35-2.28,1.56-2.74.81-.31,1.4-1.18.8-1.18-.23,0-3.15,1.69-3.42,1.98-.11.12-.71.66-1.32,1.2-.94.84-1.18.9-1.49.4-.55-.87-.5-1.03.86-2.57q1.24-1.41.28-1.41c-.55,0-1.6.61-2.47,1.42-1.43,1.35-2.86,1.7-2.86.7,0-.81-.56-1.06-1.18-.54-.33.27-.86.4-1.18.28-.34-.13-1.32.51-2.4,1.56-2.04,1.98-2.32,1.65-.83-.97,1.61-2.82,1.14-3.9-.72-1.68-1.2,1.42-2.39,1.73-2.61.66-.19-.92.67-3.79,1.4-4.66.28-.35.53-.83.53-1.08,0-.45,1.53-1.69,2.1-1.69.17,0,.48.41.68.92.35.94.47.96,4.48.72.8-.05,1.31-1.22.77-1.76-.26-.27-.58-.23-.97.08-.78.65-3.45-.6-3.45-1.61,0-.62-.14-.66-1-.26-.55.25-1.11.35-1.23.23-.12-.12.23-1.2.8-2.4,1.24-2.61,1.83-5.52,1.83-8.98,0-1.88-.13-2.53-.49-2.41-.28.09-.55.87-.6,1.74-.21,3.36-1.09,7.34-1.81,8.23l-.75.93.25-1.2c.46-2.29.97-7.21.99-9.66.02-1.82.18-2.51.64-2.69.36-.14.7.01.8.35.58,1.87.77,1.92.9.25.09-1.17-.06-1.97-.49-2.43-.34-.38-.62-1.14-.62-1.68s-.18-1.17-.4-1.39c-.22-.22-.49-2.1-.6-4.18-.11-2.08-.28-5-.38-6.49-.19-2.75.44-7.71,1.52-12.03.78-3.1,3.16-6.41,6.09-8.46,2.86-2.01,3.16-2.45,2.61-3.89l-.43-1.12-2.27,2.22c-2.34,2.29-3.18,2.74-2.81,1.52,2.43-8.01,6.06-13.3,10.96-15.97.92-.51,2.12-.92,2.65-.92,2.06,0,6.19,2.45,6.25,3.71ZM130.99,252.36c0-.33.18-.71.4-.85.22-.14.4.02.4.35s-.18.71-.4.85c-.21.14-.4-.02-.4-.35ZM135.25,193.05c.58-.94,1.34-1.2,1.34-.47,0,.23-.47,1.22-1.03,2.2-.57.97-1.11,1.77-1.19,1.77-.32,0,.35-2.64.89-3.5ZM117.88,178.03c1.56-.8,3.01-1.35,3.22-1.21.21.13-.39.93-1.35,1.77-2.43,2.13-1.26,1.95,1.64-.25l2.4-1.82,5.18.08c2.84.04,5.39.21,5.66.38.32.2-.28,1.05-1.89,2.63-2.47,2.44-3.68,4.49-4.15,7.05-.4,2.14.18,2.19,1.16.11.45-.98,1.07-1.92,1.37-2.1.29-.18,1.01-1.03,1.58-1.88,2.23-3.33,6.03-5.56,8.26-4.85,1.2.38,1.04.77-.86,2.02-3.07,2.02-5.56,4.35-6.62,6.18-.57.99-1.48,2.39-2.01,3.11-1.08,1.44-1.07,1.55.2,1.75.64.1,1.14-.26,1.9-1.38.57-.83,1.03-1.71,1.03-1.95,0-1.24,8.82-7.85,10.94-8.2,1.41-.23,3.05.38,3.05,1.14,0,.64-1.26,1.5-2.24,1.52-.46,0-1.45.45-2.2.99-.75.54-1.98,1.3-2.75,1.69-1.67.85-5.07,4.14-6.54,6.35-.58.87-1.49,2.22-2.02,3.01-.53.79-1.15,2.04-1.37,2.8-.23.75-.96,2.93-1.62,4.83-.66,1.91-1.32,4.35-1.46,5.42-.25,1.86-.21,1.95.68,1.93.51-.01,1.14-.15,1.39-.31.32-.21.35.21.12,1.49-.76,4.05-2.87,11.31-4.18,14.39-.38.88-1.09,2.73-1.6,4.13-1.29,3.53-4.28,8.17-7.14,11.07-2.4,2.43-5.62,4.99-6.29,4.99-.19,0,1.37-1.73,3.46-3.85,2.12-2.14,3.92-4.31,4.05-4.9.13-.58,1.29-3.21,2.56-5.84,2.72-5.61,3.6-8.61,2.8-9.58-.67-.81-1.61-.12-1.61,1.17s-5.45,11.97-7.24,14.12c-.86,1.03-2.21,2.65-2.99,3.58-.78.94-1.78,1.89-2.22,2.13-.73.39-.76.35-.36-.4.25-.45.62-.83.83-.83s.38-.25.38-.55.99-2.13,2.2-4.06c1.21-1.93,2.2-3.72,2.2-3.99s.33-.91.74-1.44c.4-.52.97-1.67,1.25-2.55.27-.88.84-2.16,1.26-2.84.79-1.31,1.03-3.17.36-2.76-.21.13-1.01,1.53-1.76,3.12-.75,1.58-1.72,3.08-2.15,3.34-.42.25-1.82,2.32-3.09,4.59-3.15,5.62-4.2,6.75-4.2,4.51,0-1.16.55-2.39,1.61-3.57.73-.81,2.08-3.21,3.86-6.8,1.72-3.47,2.09-4.37,2.28-5.48.1-.61.29-1.26.41-1.46.4-.65-1.54.04-2.46.87-.49.44-1.2,1.63-1.57,2.64-.99,2.67-4.14,7.07-4.59,6.38-.19-.29-.34-.81-.34-1.14,0-.6,1.69-4.13,2.87-6,.34-.55,1.39-2.8,2.3-5,.92-2.2,1.83-4.29,2.02-4.65,1.44-2.74,2.63-15,1.81-18.54-.56-2.41-.25-4.85.81-6.47.72-1.09.77-2.64.08-2.42-.27.09-1.04,1.09-1.71,2.21l-1.22,2.03.13,5.93c.13,5.61-.55,13.27-1.46,16.36-.49,1.69-1.74,4.15-2.09,4.15-.17,0-.97,1.22-1.79,2.7-2.3,4.18-3.36,5.13-3.34,3,0-.6.44-1.82.97-2.7,4.48-7.45,6.12-11.14,5.35-12.07-.4-.48-.71.04-1.74,2.95-.69,1.94-1.7,4.32-2.24,5.29-1.01,1.82-1.95,2.55-1.95,1.5,0-.59,1.89-5.04,3.08-7.27.44-.81.68-2.45.75-5.08.06-2.25.45-5.27.94-7.2.94-3.75,1.3-6.8.77-6.47-.19.12-.9,1.3-1.57,2.62-.97,1.93-1.32,2.32-1.76,1.95-.44-.37-.62-.02-.98,1.87-.25,1.27-.6,2.9-.8,3.62-.22.81-.21,1.39.04,1.54.52.33.53.3,1.24-2.44l.62-2.4-.2,4.4c-.19,3.98-.37,4.81-1.93,8.8-.94,2.42-1.88,4.92-2.08,5.57-.19.64-.6,1.26-.9,1.35-.43.14-.47-.28-.21-2.17.18-1.3.29-2.93.27-3.62-.05-1.16.05-1.27,1.04-1.2.99.07,1.08-.04.98-1.12-.06-.66-.29-4.07-.49-7.56-.3-5.05-.52-6.52-1.06-7.11-.87-.97-1.19-.44-1.52,2.5-.31,2.67-.31,2.49,0,5.17.24,2.15.23,2.18-.48,1.38-.4-.45-1.03-.93-1.4-1.07-.37-.14-.79-.9-.94-1.69-.25-1.31-1.37-2.48-1.89-1.97-.21.21.32,1.74,1.5,4.35.3.66.66,1.74.81,2.4.14.66.42,1.65.6,2.19.69,2.09.78,4,.17,4-.32,0-.57-.17-.57-.37s-.51-.88-1.12-1.5c-.62-.62-1.54-2.18-2.06-3.47-.85-2.1-1.72-3.1-2.24-2.57-.1.1.24.81.76,1.58.52.77,1.07,2.04,1.21,2.82.15.78.68,1.84,1.19,2.36,1.19,1.21,3.06,4.43,3.06,5.26,0,.35.22.79.49.96.99.63,2.63,5.31,1.87,5.31-.5,0-1.97-1.5-1.97-2.01,0-.23-.68-1.1-1.5-1.93-.83-.83-1.81-2.09-2.18-2.78-.38-.7-.96-1.27-1.3-1.27-.89,0-.77.66.38,2.16.55.72,1,1.52,1,1.77s.6,1.14,1.35,1.96c.74.82,1.66,2.13,2.04,2.9.39.77.94,1.67,1.22,2,.66.76,1.75,3.9,1.46,4.19-.12.12-.64-.17-1.15-.66-1.52-1.43-1.53-.51-.01,1.35,1.85,2.27,3.42,8.21,2.34,8.88-.19.12-1.2-.68-2.23-1.78-1.03-1.09-2.04-1.99-2.22-1.99-1.02,0-.69,1.03.76,2.36.9.83,1.64,1.72,1.64,1.96s.53,1.05,1.19,1.8c1.34,1.53,1.89,4.27,1.22,6.04-.43,1.12-1.21,1.07-1.21-.1,0-.85-2.46-2.84-3.68-2.97-.83-.09-.91.06-.84,1.36.08,1.38,1.22,3.5,2.66,4.94.36.36.66,1,.66,1.42,0,1.19-.83.9-2.9-1.01-2.76-2.54-7.45-4.03-10.42-3.31-.92.22-2.08.38-2.58.35-.49-.03-.9.13-.9.35s-.18.39-.4.39-.4-.28-.4-.62-.54-1.08-1.2-1.63c-.75-.63-1.2-1.39-1.2-2.02,0-.98.03-.99.9-.35,2.72,1.99,3.33,2.23,5.5,2.2,3.36-.05,6.12-.51,6.29-1.05.25-.76-1.8-1.07-3.57-.54-2.07.62-4.43.21-5.6-.96-1.97-1.97-3.02-4.94-3.48-9.78-.24-2.52-.62-4.76-.84-4.98-.22-.22-.4-1.16-.4-2.09,0-1.91-.3-2.95-.86-2.95-.21,0-.36,1.27-.32,2.9.03,1.59-.06,3.28-.21,3.75-.15.48-.08.98.16,1.13.55.34.57,1.42.03,1.42-.22,0-.4-.31-.4-.68,0-1.11-.64-.1-1.39,2.18-.75,2.31-.62,3.53.68,6.6.44,1.05.7,2.02.57,2.16-.47.46-1.86-1.68-2.52-3.87-.62-2.06-.62-2.56.05-7.78.71-5.56.97-15.29.43-16.16-.16-.25-.48-.34-.71-.19-.29.18-.34,1.55-.18,4.11.21,3.26.1,4.45-.7,7.75-.51,2.15-1.07,4.03-1.22,4.18-.16.16-.51-.03-.8-.41-.28-.39-.8-.7-1.16-.7-1.03,0-1.19-1.65-.82-8.54.4-7.49.41-12.13.02-12.52-.64-.64-1.1.75-1.23,3.71-.16,3.52-1.23,7.76-1.96,7.75-2.11-.03-2.71-3.5-1.82-10.43.25-1.93.33-3.96.19-4.53-.27-1.08-1.44-1.43-1.44-.43,0,1.05-1.29,3.86-1.63,3.53-1.41-1.42.87-26.13,2.86-30.91,1-2.41,1.03-2.57.59-2.74-.5-.19-2.59,3.87-2.6,5.05-.01,1.28-1.08,3.68-1.63,3.68s-.34-1.36.79-4.56c.46-1.3.84-2.91.85-3.6.01-1.19.43-2.49,2.43-7.59.53-1.35,1.66-3.15,2.64-4.18.94-1,1.72-2.05,1.72-2.34,0-.74.33-.64,1.74.52,5.9,4.86,9.58,6.6,10.98,5.2.49-.49.51-.71.08-1.22-.29-.34-.87-.62-1.3-.62-1.19,0-5.75-2.69-6.92-4.07-1.4-1.67-.94-1.91.77-.4,1.86,1.63,6.1,3.51,12.82,5.66,4.31,1.39,6.19,2.35,6.59,3.38.37.98,1.42,1.42,3.41,1.44,1.54.01,2.38.55,2.08,1.33-.19.51-.47.54-1.56.19-2.04-.66-3.28-.61-3.42.12-.11.53.46.71,3.19,1,1.82.19,4.02.3,4.89.23,1.49-.1,1.54-.07.92.6-.36.39-.65.89-.66,1.11,0,.22-.57.51-1.26.66-.69.14-1.45.45-1.69.68-.64.65.84,1.09,1.75.52.41-.25,1.18-.46,1.72-.46s1.45-.21,2.01-.46c1.33-.61,1.68-.2.87,1.03-1.22,1.86-2.37,5.46-1.9,5.93.51.51,2.45-1.37,2.45-2.37s2.78-4.5,4.14-5.19l1.26-.64-1.05,1.15c-1.46,1.59-2.61,4.02-2.95,6.2-.26,1.75-.22,1.84.76,2.03.71.14,1.04.02,1.04-.35,0-.3.16-.86.36-1.24.2-.38.75-1.7,1.22-2.93.81-2.12,1-2.32,3.68-3.69ZM103.01,224.93c0,.22-.08.4-.17.4s-.29-.18-.42-.4c-.14-.22-.06-.4.17-.4s.42.17.42.4ZM101.36,170.61c.49-.31,2.06-.16,2.06.2,0,.09-.58.15-1.3.15-.88,0-1.13-.12-.75-.35ZM108.31,174.87c.09-.27.78-.53,1.53-.58l1.37-.1-1.35.59c-1.63.71-1.76.71-1.55.09ZM118.68,166.08c-1.61,1.82-3.21,2.62-4.11,2.07-.46-.29-.42-.45.23-.96.44-.33.92-.6,1.08-.61.15,0,1.11-.57,2.12-1.26,1.01-.68,1.91-1.17,2-1.09.09.09-.51.92-1.32,1.84ZM131.03,142.39c-.87,1.87-4.99,6.71-5.82,6.83-.31.04-1.22.72-2.02,1.5-.79.77-2.24,1.78-3.21,2.24-1.75.82-2.33,1.63-1.17,1.63.33,0,.6-.14.6-.31s.64-.66,1.43-1.08c.79-.42,1.91-1.25,2.5-1.84.59-.58,1.56-1.16,2.15-1.26l1.09-.19-.77,1.09c-1.42,1.99-4.44,4.03-10.96,7.38-3.47,1.78-4.59,2.69-4.62,3.72-.02.86,1.14.55,3.24-.9,1.12-.77,2.24-1.4,2.49-1.4.84,0,4.06-1.83,6.19-3.52,1.88-1.48,3.25-2.1,3.25-1.46,0,.12-.29.77-.63,1.44-.49.96-.81,1.17-1.53.99-.66-.17-1.21.08-2.03.94-.62.64-2.08,1.66-3.27,2.26-1.18.59-2.14,1.35-2.14,1.68,0,.53.08.53.7,0,.94-.79,4.05-2.11,4.32-1.84.63.63-8.16,6.3-9.77,6.3-1.45,0-2.41.69-2.17,1.57.28,1.1-1.33,1.44-3.82.8-1.69-.44-2.32-.41-4.34.16-2.84.8-2.71.79-3.26.13-.59-.72-.17-1.06,1.31-1.07.68,0,2.02-.36,2.97-.8.96-.44,2.08-.79,2.5-.79s.75-.2.75-.45c0-.32-1.02-.36-3.49-.17-4.39.34-4.9.49-4.9,1.45,0,1.02-.81.98-3.32-.19-1.14-.53-2.79-1.16-3.67-1.39-1.86-.49-2.91-1.78-2.17-2.67.26-.31.81-.57,1.22-.57s.75-.27.75-.6c0-.79-.34-.75-2.58.23-1.95.86-2.87.81-3.26-.2-.23-.6,2.26-3.43,3.03-3.43.23,0,.42-.18.42-.4,0-.55-.08-.53-2.69.63-1.85.83-2.71.99-4.27.81-2.08-.24-2.82-.62-1.84-.96.55-.19,6.09-5.67,7-6.94.22-.31,1.04-1.36,1.83-2.35,1.83-2.3,2.12-2.79,1.61-2.79-.23,0-.67.49-.98,1.1-.7,1.35-6.02,6.9-6.62,6.9-.24,0-.43-.23-.43-.49s-.4.05-.87.73c-.81,1.13-4.5,2.93-4.99,2.43-.5-.49,5.06-5.06,6.17-5.06.62,0,2.18-1.93,1.91-2.37-.16-.26-.61-.04-1.15.58-.48.55-1.8,1.59-2.93,2.29-1.14.71-2.89,1.89-3.9,2.61-2.92,2.1-3.53.93-1.3-2.48.74-1.12,1.45-2.49,1.59-3.04.13-.56,1.16-1.98,2.27-3.15,1.12-1.18,2.29-2.61,2.6-3.19.31-.58,1.65-2.22,2.97-3.65,2.32-2.5,3.02-3.99,1.87-3.99-.31,0-.84.4-1.18.9-.9,1.31-7.27,7.9-7.62,7.9-.45,0-1.44-1.09-1.44-1.58,0-.23.17-.43.37-.43.47,0,7.22-6.77,7.22-7.24,0-.78-1.04-.27-1.65.81-.83,1.46-4.86,4.69-5.07,4.05-.08-.25.36-1.24.98-2.2,2.38-3.6,4.37-6.38,5.34-7.41.56-.59,1.37-1.78,1.8-2.63.44-.86,1.21-2.25,1.72-3.09,1.54-2.54.75-2.56-.92-.03-.86,1.3-1.75,2.62-1.98,2.93-.79,1.07-3.93,4.03-4.28,4.03-.9,0-.16-1.77,1.34-3.19,1.98-1.86,1.89-2.53-.11-.82-.75.64-1.49,1.18-1.63,1.19-.4.03-.14-7.94.29-8.35.21-.2,1.08-.43,1.95-.5,1.26-.1,1.7-.36,2.23-1.32.43-.79,1.33-1.47,2.63-2,2.34-.95,5.33-3.63,7.16-6.4.73-1.09,2.53-4.33,4.01-7.19,1.48-2.86,2.84-5.39,3.02-5.62.61-.77,3.57-6.96,3.57-7.47,0-1.05.85-3.5,1.21-3.5.87,0,.78,2-.21,4.82-.57,1.63-1.39,4.14-1.81,5.57-.43,1.43-1.59,4.16-2.58,6.08-2.16,4.16-2.34,5.14-.71,3.98.67-.48,1.4-1.63,1.86-2.93.42-1.18.83-1.92.92-1.66.19.55-3.04,9.25-4.57,12.3-.55,1.11-1.31,2.37-1.69,2.8-.38.44-1.1,1.52-1.59,2.4l-.9,1.6,1.65-1.8c2.98-3.25,4.26-4.97,4.91-6.59,2.92-7.37,3.67-8.99,3.95-8.54.17.28.14.81-.06,1.2-.21.38-.37,1.19-.37,1.79s-.21,1.69-.47,2.41c-.27.73-.35,1.45-.19,1.61.57.57,1.2-.7,1.53-3.06.18-1.33.68-3.18,1.1-4.11.42-.92.89-2.36,1.05-3.19.35-1.86.88-2.26,1.22-.9.32,1.26-.03,3.61-1.28,8.8-1.37,5.68-1.66,6.44-3.61,9.49-.96,1.5-1.74,2.81-1.74,2.92s-.72,1.66-1.6,3.43c-.88,1.78-1.59,3.31-1.59,3.38s.27.04.62-.09c.84-.32,2.8-3.49,5.36-8.65,1.17-2.37,2.27-4.39,2.43-4.5.16-.1.42-.85.57-1.67.77-4.1,2.88-8.78,3.62-8.03.15.14-.55,3.83-1.22,6.46-.24.96-.18,1.12.42,1,.79-.16,1.53-2.6,1.96-6.54.61-5.52,1.98-7.32,1.63-2.15-.25,3.78-.73,5.38-3.08,10.32-1.09,2.32-2.34,5.09-2.77,6.17-.43,1.07-1.04,2.33-1.36,2.78-.33.46-.59,1.14-.59,1.5,0,.81-1.07,3.23-2.34,5.28-.52.83-.86,1.6-.75,1.71.35.35,2.68-2.63,2.91-3.74.12-.61.4-1.37.59-1.69.2-.33.83-1.5,1.41-2.6.57-1.1,1.44-2.54,1.95-3.19.49-.66,1.41-2.1,2.01-3.2.61-1.1,1.58-2.8,2.16-3.79,1.05-1.78,1.06-1.79,1.18-.66.07.62-.27,2.29-.77,3.7-.63,1.8-.77,2.69-.48,2.99.86.86,1.59-.8,2.51-5.68.51-2.72,1.08-5.11,1.27-5.32.19-.21.34-.87.34-1.48,0-1.34.53-1.72,1.59-1.14.62.33.76.69.58,1.52-.22,1-1.4,4.4-2.18,6.28-.19.44-.64,1.79-1.01,3-.38,1.21-1.11,2.93-1.63,3.83-1.18,2.06-1.18,2.31.06,2,.55-.14.99-.19.99-.1s-.79,1.84-1.75,3.9c-.96,2.07-2.68,6.12-3.82,9.01-1.15,2.89-2.44,5.65-2.89,6.12-1.09,1.18-.79,1.33,1,.52,1.2-.54,1.72-1.17,2.67-3.19.65-1.38,1.18-2.73,1.18-3s1.18-2.93,2.63-5.89c1.44-2.97,2.82-5.8,3.06-6.3.24-.49.75-1,1.15-1.12.38-.12.83-.8.98-1.5.15-.7.79-2.01,1.4-2.88.61-.88,1.43-2.59,1.8-3.79.38-1.21.93-2.48,1.23-2.83.29-.35.54-.85.54-1.11,0-.75,1.97-3.67,2.64-3.93.34-.13.79-.68.99-1.24.21-.55.49-.89.62-.75.33.33-1.31,4.1-2.71,6.18-.63.95-1.15,1.89-1.15,2.1s-.16.38-.36.38-.57.57-.81,1.28c-.25.7-.73,1.59-1.09,1.99-.6.66-.6.73,0,.97.83.32,3.25-2.25,4.64-4.92.55-1.05,1.22-2.05,1.5-2.23.29-.17.51-.57.51-.88s.25-.71.55-.88c.3-.18.92-1.04,1.38-1.91.65-1.25.84-1.41.85-.73.01.48-.15.98-.36,1.11-.21.13-1.21,1.89-2.22,3.92-1.01,2.02-2.15,4.14-2.52,4.71-.37.57-1.06,1.61-1.53,2.33-.47.71-1.23,1.56-1.68,1.89-.67.47-2.86,4.13-2.86,4.78,0,.09.35.17.79.17.51,0,.89-.35,1.04-.98.27-1.09,1.24-2.08,1.65-1.67.14.14-.13.79-.61,1.44-.48.65-.86,1.41-.86,1.69.01.62,3.15-2.88,3.17-3.53.04-1.28,4.23-8.46,4.68-8.01.1.1-.36,1.37-1.04,2.81-.67,1.44-1.22,2.74-1.22,2.91s-.25.57-.55.91c-.3.35-1.41,2.34-2.46,4.43-1.05,2.09-3.05,5.71-4.45,8.05-2.47,4.14-3.07,5.93-2.01,5.93.81,0,2.8-2.32,4.57-5.33.94-1.6,1.72-2.54,1.89-2.28.15.25.05.72-.21,1.04-.72.87-.11,1.22.75.44,1.93-1.74,1.78.06-.21,2.77-.5.68-.91,1.37-.91,1.52s-.63,1.11-1.4,2.12c-.77,1.01-1.4,2.05-1.4,2.31s-.36.81-.8,1.2c-1.01.92-1.01,1.4-.02,1.4.44,0,1.08-.52,1.48-1.2.39-.66.83-1.2.97-1.2s.75-.72,1.37-1.6c.6-.88,1.31-1.61,1.55-1.61.25,0,1.16-1.01,2.04-2.23.88-1.22,1.65-2.04,1.72-1.81.25.76-2.71,6.34-4.41,8.28-3.42,3.92-8.55,8.82-10.79,10.31-1.26.84-2.3,1.67-2.3,1.84s.42.4.94.49c.67.13,1.63-.33,3.3-1.56,1.29-.95,2.87-2.05,3.51-2.43,1.63-.98,7.12-6.66,9.93-10.27,1.67-2.14,2.02-1.58.74,1.18ZM102.86,98.5c-.14.14-.23-.1-.21-.52.02-.47.11-.56.24-.24.11.29.1.63-.03.76ZM130.2,121.44c0-.67.9-2.45,1.24-2.45.17,0,.13.54-.1,1.2-.42,1.21-1.14,1.99-1.14,1.24ZM130.4,126.99c-.14.22-.33.4-.42.4s-.18-.18-.18-.4.19-.4.42-.4.31.17.18.4ZM127.72,126.8c-.25.55-.58,1-.75,1s-.08-.45.17-1c.25-.55.59-1,.75-1s.09.45-.16,1ZM135.82,101.41c-.43,0-1.04.27-1.37.6-.81.81-1.28.75-2.24-.27-1.74-1.86-.66-3.94,1.38-2.67.66.41,1.61.95,2.1,1.21,1.1.57,1.17,1.14.13,1.14ZM138.44,101.52c.85.11,2.06.4,2.67.64l1.13.45-1.18,1.5c-.65.83-1.25,1.84-1.33,2.25-.14.71-.17.71-.83-.02-.44-.48-.6-1.09-.45-1.67.16-.6-.06-1.32-.66-2.12l-.9-1.22,1.54.19ZM137.38,129.94l.23-1.37c.45-2.64,1.55-4.48,4.33-7.22,1.97-1.94,2.89-2.6,3.11-2.25.46.72.4,1.1-.17,1.1-.27,0-.94.64-1.46,1.43-.53.78-1.58,2.08-2.33,2.89-.75.81-1.46,1.96-1.57,2.54-.12.59-.65,1.48-1.18,1.98l-.96.9ZM139.25,131.99c.14-.66.68-1.82,1.2-2.59.52-.77.94-1.56.94-1.76,0-.44,2.67-3.77,3.8-4.73,1.11-.96,1.59-.88,2.15.34.51,1.11.24,1.9-.33.98-.54-.88-1.51-.21-2.97,2.06-.75,1.16-1.74,2.34-2.19,2.61-.46.27-1.28,1.35-1.84,2.39-.79,1.51-.95,1.65-.75.7ZM142.19,137.1c-.41.93-.87,2.36-1.02,3.19-.15.83-.41,1.5-.57,1.5-.35,0-1.22-1.82-1.22-2.55,0-.95,2.05-5.56,3.43-7.72.75-1.17,1.37-2.22,1.37-2.32,0-.6,3.56-3.38,4.33-3.39.79-.01.37.6-2.7,3.98-3.45,3.8-4.09,4.87-3.25,5.39.21.14.06.96-.37,1.93ZM145.78,133.57c0,.32-.18.69-.4.83-.22.14-.4-.12-.4-.58s.18-.82.4-.82.4.26.4.57ZM143.93,136.99c.14-.55.25-1.13.25-1.29,0-.17.19-.3.43-.3.26,0,.32.36.16.9-.4,1.32-1.15,1.95-.84.7ZM162.97,138.59c-.22,0-.4.51-.4,1.13,0,1.57-1.09,5.08-1.75,5.63-.41.34-.65.32-.96-.05-.3-.36-.19-.96.37-2.1.72-1.46.84-2.3.77-5.47-.01-.59-.22-1.2-.47-1.35-.79-.49-1.44.77-1.91,3.69-.63,3.97-1.03,4.83-2.54,5.46-1.81.76-2.04.47-1.09-1.39.83-1.62.92-3.58.18-3.81-.54-.17-2.17,2.4-2.47,3.89-.13.66-.61,1.46-1.07,1.78-1.11.78-4.19.73-5.51-.09-1.24-.77-1.67-2.64-1.18-5.21.36-1.87.94-2.76,2.03-3.1.4-.13.83-.63.97-1.12.3-1.08,3.3-4.54,3.64-4.2.14.14-.38,1.21-1.16,2.38-1.46,2.22-2.51,5.48-2.11,6.53.44,1.16,1.3.61,1.68-1.06.31-1.36.6-1.75,1.57-2.06.66-.21,1.42-.7,1.69-1.08.27-.38,1.11-.81,1.85-.95.75-.14,1.61-.55,1.91-.9.65-.79,3.37-2.54,3.94-2.54.49,0,2.4,4.18,2.4,5.25,0,.41-.18.75-.4.75ZM164.2,145.78c-.7,0-.8-.68-.22-1.44.54-.72.57-.7.58.34,0,.61-.15,1.1-.36,1.1ZM163.21,129.79c-.47-.47.15-1.68,1.96-3.77,1.08-1.24,1.28-1.72.97-2.3-.49-.9-1.2-.58-3.14,1.45-.75.79-1.52,1.43-1.7,1.43-.75,0-.22-1.28,1.07-2.56,1.41-1.41,2.27-3.44,1.47-3.44-.23,0-1.14.77-2.01,1.7-.87.93-1.72,1.56-1.88,1.4-.45-.45.7-3.53,1.52-4.03.39-.25.72-.59.72-.75,0-.53-.9-.33-1.67.36-.4.36-.86.54-1.02.39-.3-.31,2.87-3.5,4.12-4.16,1.48-.77,4.14-.98,6.16-.45,2.05.53,2.45.9,1.4,1.31-.33.12-.6.42-.6.64,0,.53,2.27.54,2.6.01.14-.22.6-.4,1.02-.4s.77.17.77.4-.32.4-.71.4c-.74,0-1.68.72-1.68,1.28,0,.18.27.32.6.32.85,0,.74.57-.36,1.89-1.54,1.83-1.53,3.48.02,4,.97.32,1.06.55,1.1,2.53.04,2.12.07,2.18,1.24,2.28,1.6.14,4.2.95,4.2,1.31,0,.16-.4.4-.89.53-.66.17-.77.35-.45.68.32.32.87.32,1.97.03,1.09-.3,1.67-.29,2.05.01.83.7.63,1.09-.77,1.46-1.42.36-2.05,1.66-.83,1.71.54.03.57.08.13.23-.33.1-.96.35-1.41.55-.44.19-2.04.9-3.55,1.57-3.32,1.47-3.43,1.48-2.27.25.5-.53.79-1.16.64-1.4-.47-.75-2.37,0-3.81,1.51-2.06,2.15-2.8,2.69-2.8,2.02,0-.29.99-1.47,2.2-2.61,2.52-2.38,2.82-3.3,1-3.03-1.33.19-1.47-.12-.59-1.29.83-1.09.74-1.42-.41-1.42-.55,0-1,.16-1,.35,0,.42-1.22.96-1.51.67-.1-.11.37-.84,1.06-1.63.69-.78,1.25-1.6,1.25-1.81,0-.55-1.35-.48-1.92.09-.37.38-.47.34-.47-.18,0-.36.17-.77.4-.9.4-.25.57-1.8.2-1.8-.12,0-1.05.8-2.1,1.78-1.19,1.13-2.03,1.65-2.27,1.41ZM185.76,141.79c-.78.5-1.31.5-1,0,.14-.22.55-.4.92-.4.58,0,.59.06.07.4ZM192.37,144.33c-.19-.77-.04-1.29.56-1.93,1.18-1.25,1.04-2.67-.4-4.05-1.1-1.05-1.48-1.17-3.7-1.13-2.78.04-5.1.55-6.86,1.5-.66.36-1.43.66-1.71.66-.71,0-4.89,2.35-6.1,3.41-.55.49-1.57,1.18-2.29,1.54-.71.36-1.59,1.24-1.95,1.95-.36.71-1,1.72-1.41,2.25-.73.94-1.01,3.68-.51,4.99.14.36.97.72,2,.88,1.11.17,1.76.47,1.76.82,0,.88-3.16.69-4.74-.27-1.24-.75-1.33-.94-1.11-2.33.36-2.23,1.65-4.9,3.02-6.25.66-.65,1.21-1.37,1.22-1.59,0-.22.58-.85,1.27-1.4.69-.55,1.82-1.45,2.5-2.01,4.13-3.36,7.53-5.13,10.34-5.4.93-.09,2.54-.28,3.57-.42,2.69-.37,4.39.06,6.13,1.57,1.32,1.14,1.52,1.53,1.47,2.89-.07,1.75-.71,3.62-1.61,4.67-.81.96-1.14.88-1.45-.35ZM201.01,169.11c-.62-.94-.8-1.57-.53-1.83.26-.26.62-.05,1.06.62.37.56.61,1.39.54,1.83-.12.7-.27.61-1.07-.62ZM222.13,215.81c0-.79.67-.53,1.38.55.37.56.61,1.2.54,1.42-.16.49-1.92-1.31-1.92-1.98ZM228.49,225.55c.21-.12.48-.06.61.15.13.21.06.48-.14.61-.21.13-.48.07-.61-.14-.13-.21-.06-.49.14-.62ZM249.06,251.57c-.41.14-.85.32-.97.38-.13.06-.76-.42-1.41-1.06-.75-.75-2.02-1.4-3.52-1.79-1.3-.33-2.55-.74-2.8-.89-.25-.16-1.24-.56-2.21-.89-.97-.34-1.91-.88-2.08-1.21-.17-.32-.9-1.83-1.63-3.33-.77-1.6-1.87-3.18-2.66-3.8-4.22-3.32-4.16-3.23-4.37-6.79-.11-1.98-.03-3.26.2-3.26.47,0,1.71,1.32,1.71,1.83,0,.88,1.85,4.9,2.87,6.25.62.81,1.13,1.6,1.13,1.76,0,.26,1.78,2.35,4.46,5.23.65.7,2.02,1.65,3.05,2.11,1.03.46,2.33,1.11,2.88,1.44.55.33,1.9,1.02,3,1.53,1.1.5,2.25,1.22,2.54,1.58.47.57.44.7-.2.93Z"/>
      <path class="cls-1" d="M74.92,215.74c-.44,0-.63,1.04-.85,4.7-.16,2.58-.38,5.13-.51,5.65-.18.7-.09.9.32.76.32-.11.53-.68.5-1.35-.03-.64.09-1.88.27-2.76.17-.88.43-2.81.57-4.29.21-2.19.15-2.7-.3-2.7Z"/>
      <path class="cls-1" d="M75.37,209.74c-.42,0,.03,1.23.78,2.1.69.81,1.28.91,1.28.23,0-.55-1.58-2.33-2.06-2.33Z"/>
      <path class="cls-1" d="M74.62,208.24c-.02-.58-1.18-1.84-1.44-1.58-.15.15.06.63.46,1.07.78.86,1.01.98.99.5Z"/>
      <path class="cls-1" d="M127.9,203.71c.59-2.48,2.02-6.96,2.36-7.35.46-.53.41-1.82-.07-1.82-.22,0-.4.21-.4.46s-.45,1.41-.99,2.56c-.96,2.02-2.21,6.14-2.21,7.28,0,1.07,1,.2,1.31-1.14Z"/>
      <path class="cls-1" d="M119.56,220.53c.94,0,1.87-6.08,1.01-6.61-.76-.47-1.06.32-1.31,3.51-.19,2.48-.14,3.1.31,3.1Z"/>
      <path class="cls-1" d="M119.59,203.8c.28-1.28-.09-3.25-.61-3.25-.48,0-.9,2.57-.58,3.57.37,1.17.9,1.03,1.2-.31Z"/>
      <path class="cls-1" d="M128.04,181.92c.38-.79.92-1.53,1.22-1.65.3-.11.54-.49.54-.83,0-.48-.24-.4-1.04.35-.93.87-2.16,2.78-2.16,3.35,0,.73.87,0,1.45-1.22Z"/>
      <path class="cls-1" d="M98.04,182.04c-.29-.29-.8-1.07-1.15-1.73-.73-1.42-1.72-2.33-2.02-1.85-.11.19.14,1.12.57,2.06.42.95.77,2.01.77,2.35s.42,1.72.94,3.06c.52,1.33,1.05,2.75,1.18,3.13.26.74,1.07.97,1.07.3,0-.22.29-.4.64-.4.49,0,.58-.24.39-1.02-.49-1.94-1.89-5.38-2.41-5.89Z"/>
      <path class="cls-1" d="M144.68,97.74c.66-.09.9-.4.9-1.13s-.24-1.03-.9-1.13c-.98-.14-1.54.72-1.15,1.75.15.38.6.58,1.15.5Z"/>
      <path class="cls-1" d="M161.26,106.53c-.09-.92-.38-1.75-.65-1.84-.36-.12-.42.24-.21,1.38.15.85.35,1.67.45,1.84.4.7.55.18.41-1.38Z"/>
      <path class="cls-1" d="M129.69,62.27c.17.02,1.17.1,2.23.19,1.42.1,2.41.5,3.79,1.53,2.25,1.67,2.87,1.77,2.87.46,0-1.18-.9-1.73-3.72-2.25-4.3-.79-5.47-.88-5.47-.41,0,.25.14.46.3.48Z"/>
      <path class="cls-1" d="M150.97,66.04c-.83.43-2.15,1.14-2.94,1.57-.79.43-1.45.92-1.45,1.1,0,.44,1.74.42,2.22-.02.64-.58,9.02-4.05,9.8-4.05,1.15,0,1.31-.75.21-1.03-1.18-.3-4.94.44-5.76,1.14-.32.27-1.26.85-2.09,1.29Z"/>
      <path class="cls-1" d="M149.02,65.59c.46-.56.43-.62-.22-.5-.42.08-.83.37-.92.65-.24.71.5.62,1.14-.15Z"/>
      <path class="cls-1" d="M149.78,64.7c0,.47.44.43,2.45-.26,2.44-.84,5.51-2.34,5.53-2.7.03-.56-2.37-.3-4.42.48-2.03.77-3.55,1.83-3.55,2.48Z"/>
      <path class="cls-1" d="M128.35,65.56c.3.12.67.85.82,1.65.35,1.89,1.54,2.61,4.91,3,1.5.17,2.84.34,2.97.37.36.07.74-1.03.74-2.13s-2.02-3.41-2.95-3.41c-.51,0-.55.19-.24,1.03.21.56.39,1.11.39,1.22s-.99.14-2.19.07c-1.86-.1-2.2-.23-2.2-.89,0-1.01-1.13-2.23-2.06-2.23-.86,0-1,1.01-.19,1.33Z"/>
      <path class="cls-1" d="M122.75,102.21c-.31,0-.55.27-.55.6,0,.38.38.6,1.05.6.89,0,.98-.09.55-.6-.27-.33-.75-.6-1.05-.6Z"/>
      <path class="cls-1" d="M95.02,94.56c0-.92-.92-.03-3.46,3.36-3.02,4.02-4.14,5.69-4.12,6.18.03.74,7.58-8.77,7.58-9.54Z"/>
      <path class="cls-1" d="M100.22,44.28c0-.96-.84-2.42-1.39-2.42-.71,0-.79.9-.2,2.02.42.79,1.59,1.08,1.59.4Z"/>
      <path class="cls-1" d="M87.1,68.94c.6-.19.92-1.11.4-1.11-.21,0-.5.29-.64.63-.15.39-.06.57.23.47Z"/>
      <path class="cls-1" d="M41.94,246.91c-.42,0-1.51-.7-2.43-1.55-1.58-1.45-1.76-1.52-2.97-1.09-.71.25-1.51.6-1.79.77-.68.44-.62,2.06.11,3.49.81,1.56,1.48,1.5,2.43-.22.55-1,2.01-1.24,2.89-.49,1.39,1.2,4.94,1.93,5.45,1.11.28-.45-2.6-2.02-3.7-2.02Z"/>
      <path class="cls-1" d="M196.47,217.17c.07-1.56-.06-2.94-.3-3.17-.51-.51-.57,1.89-.12,4.33.27,1.47.31,1.37.42-1.16Z"/>
      <path class="cls-1" d="M194.01,159.69l-1.38-1.09.6,1.22c.34.67.84,1.3,1.13,1.41.29.11.64.83.78,1.61.14.77.45,1.83.7,2.35.24.53.58.86.77.74,1.05-.65-.63-4.69-2.6-6.25Z"/>
      <path class="cls-1" d="M195.9,174.46c-.31-2.04-2.43-6.41-2.94-6.1-.36.22.94,2.79,1.61,3.21.18.12.45,1.06.6,2.1.16,1.04.35,2.02.45,2.19.41.72.51.18.27-1.4Z"/>
      <path class="cls-1" d="M178.1,151.94c-.98-.6-.73.42.6,2.59.8,1.3,1.46,2.56,1.46,2.8s.11.44.24.44c.64,0-1.46-5.32-2.3-5.84Z"/>
      <path class="cls-1" d="M189.76,154.16c0,.21.57,1.2,1.28,2.2.7,1,1.35,1.82,1.44,1.82.37,0-.43-2.23-1.18-3.28-.79-1.11-1.54-1.47-1.54-.73Z"/>
      <path class="cls-1" d="M196.13,212.98c.36-.59.02-3.24-.42-3.24s-.45.64-.1,2.38c.14.71.38,1.09.52.86Z"/>
      <path class="cls-1" d="M202.94,243.12c-.19.44-.35,1.07-.36,1.4-.02.53.02.53.36,0,.21-.33.38-.96.36-1.4l-.02-.8-.34.8Z"/>
      <path class="cls-1" d="M203.62,240.22c-.26.08-.53.57-.61,1.07-.16,1.11.55.78.86-.39.14-.53.05-.77-.25-.68Z"/>
      <path class="cls-1" d="M196.96,223.76c0,.79.12,1.57.29,1.74.47.48.59-1.67.14-2.46-.34-.58-.42-.45-.43.72Z"/>
      <path class="cls-1" d="M199.75,174.72c0-.31-.27-.56-.6-.56s-.6.15-.6.35.27.57.6.85c.33.27.6.73.6,1.02s.45,1.05,1,1.7c.55.66,1,1.66,1,2.23s.18,1.04.4,1.04c.85,0,.34-2-1-4-.77-1.14-1.4-2.34-1.4-2.64Z"/>
      <path class="cls-1" d="M201.75,182.72c0,.35.29.63.63.63s.56-.21.47-.47c-.25-.74-1.11-.86-1.11-.16Z"/>
      <path class="cls-1" d="M204.83,239.25c.62-.52.55-3.39-.08-3.23-.22.06-.42.91-.43,1.89-.03,1.48.06,1.72.52,1.33Z"/>
      <path class="cls-1" d="M206.93,257.65c-.3.96-.93,2-1.41,2.3-.9.6-1.78,2.17-1.78,3.21,0,.9.98.42,1.12-.55.06-.46.53-1.26,1.04-1.77,1.26-1.28,1.93-2.66,2.12-4.33.19-1.76-.36-1.18-1.09,1.14Z"/>
      <path class="cls-1" d="M208.51,200.72c-.2-.12-.36-.55-.36-.95,0-.77-1.07-1.89-1.44-1.52-.12.12.1,1.13.5,2.26.4,1.12.84,2.03.98,2.03.43,0,.7-1.58.32-1.82Z"/>
      <path class="cls-1" d="M191.46,269.83c-3.15.12-4.77.71-4.25,1.54.13.21.71.27,1.29.12.58-.15,2-.41,3.17-.57,1.16-.15,2.32-.5,2.58-.75.34-.34-.33-.43-2.79-.33Z"/>
      <path class="cls-1" d="M202.13,211.3c-.45-1.14-.73-2.33-.62-2.62.26-.68-.85-5.89-1.6-7.59-.31-.69-.57-1.48-.57-1.75,0-1.07-.94-3.55-1.41-3.73-.4-.15-.39.21.01,1.74.28,1.06.62,2.11.75,2.32.21.33,1.13,3.53,1.69,5.88.1.44.29,2.05.4,3.58.12,1.53.38,3.09.58,3.47.21.38.74,2.6,1.19,4.92.79,4.07.76,6.74-.06,7.25-.2.12-.36.6-.36,1.07,0,1.22.58.4,1.16-1.64.99-3.48.52-8.58-1.18-12.9Z"/>
      <path class="cls-1" d="M191.67,259.31c-.38,0-1.18.62-1.79,1.38-.63.79-1.63,1.5-2.32,1.65-.66.15-1.43.59-1.71.98-.9,1.29-2.99,2.08-5.69,2.15-2.86.07-4.4.68-4.4,1.74,0,.6.44.68,3.5.62,1.93-.03,3.69-.08,3.92-.1.81-.07,2.97-2.31,2.97-3.09,0-.94.72-1.74,1.57-1.76.9-.03,4.8-3.57,3.94-3.58Z"/>
      <path class="cls-1" d="M160.97,274.63c1.38-.23,1.39-.23.4-.62-.91-.36-9.51-.12-9.91.27-.09.08-.05.33.08.55.24.39,6.66.25,9.43-.19Z"/>
      <path class="cls-1" d="M173.47,273.99c.71-.25,2.19-.47,3.29-.52,2.67-.1,2.98-.2,1.8-.57-1.78-.57-5.85-.46-6.38.18-.27.32-.38.75-.25.97.16.25.71.23,1.54-.06Z"/>
      <path class="cls-1" d="M198.44,232.12c.29,1.1.51,1,.51-.22,0-.57-.16-.92-.36-.8-.2.12-.27.59-.15,1.02Z"/>
      <path class="cls-1" d="M200.15,254.71c-.22.14-.4.75-.4,1.37,0,2.76-1.46,4.94-3.64,5.43-.57.13-1.73.94-2.58,1.82-.99,1.01-1.33,1.58-.94,1.58.34,0,1.05-.47,1.58-1.04.53-.57,1.78-1.45,2.78-1.96,1.06-.54,2.04-1.39,2.35-2.06.29-.63.69-1.45.88-1.84.49-.96.45-3.61-.04-3.3Z"/>
      <path class="cls-1" d="M198.18,229.89c-.02.42.08.66.21.53.13-.14.15-.48.03-.77-.13-.32-.22-.23-.24.24Z"/>
      <path class="cls-1" d="M208.18,203.51c-.02.42.08.66.21.53.13-.14.15-.48.03-.77-.13-.32-.22-.23-.24.24Z"/>
      <path class="cls-1" d="M250.2,259.89c-.33.33.42,1.05,1.65,1.59,1.39.62,2.26.63,2.39.04.08-.39-3.74-1.93-4.03-1.63Z"/>
      <path class="cls-1" d="M214.93,229.72c0,.22.09.4.18.4.1,0,.29-.18.43-.4.13-.21.05-.4-.18-.4s-.42.18-.42.4Z"/>
      <path class="cls-1" d="M152,91.03c-.67-.55-1.41-.23-1.41.61,0,.35.39.58.99.58,1.13,0,1.29-.46.42-1.18Z"/>
      <path class="cls-1" d="M220.06,241.87c-.48-.48-.56-.36-.56.84,0,1.57.44,1.85.85.56.16-.51.05-1.06-.29-1.4Z"/>
      <path class="cls-1" d="M220.93,264.52c-.99,0-.98,0,.35,1.18,1.54,1.35,2.05,1.48,2.05.54,0-.88-1.17-1.72-2.4-1.72Z"/>
      <path class="cls-1" d="M221.51,231.42c.21,1.46.44,1.9.99,1.9.62,0,.7-.27.53-2.1-.21-2.26-1.04-4.3-1.75-4.3-.29,0-.36-.57-.23-1.61.19-1.39.14-1.56-.37-1.13-.32.27-.55.95-.52,1.52.1,1.57.05,1.64-.99,1.24-.7-.27-1.09-.21-1.43.19-.7.84-.06,1.5,1.2,1.25,1.46-.29,2.23.61,2.57,3.04Z"/>
      <path class="cls-1" d="M215.87,224.13c-.28-1.41-.97-2.85-1.87-3.88-.44-.5-.73-1.35-.68-2,.38-4.53-.64-7-3.21-7.77-1.52-.45-1.54-.49-1.69-2.7l-.14-2.25-.07,2.68-.08,2.68,1.41.67c2.32,1.1,3.04,2.48,2.8,5.37-.2,2.32-.12,2.6,1.39,5.09,1.49,2.47,1.8,3.52,1.66,5.49l-.06.8.62-.8c.35-.46.51-1.13.36-1.59-.14-.44-.34-1.25-.45-1.8Z"/>
      <path class="cls-1" d="M231.13,254.11c-.49-.4-.6-.38-.6.08,0,.32.12.7.26.85.38.38.94.32.94-.08,0-.19-.27-.58-.6-.85Z"/>
      <path class="cls-1" d="M241.32,255.45c0-.86-3.45-3.42-9.26-6.9-.94-.56-1.63-1.36-1.92-2.22-.49-1.5-2.48-4.71-3.84-6.22-.5-.55-1.1-1.51-1.33-2.13-.5-1.33-1.57-1.31-2.06.02-.27.73-.02,1.25,1.32,2.8.9,1.05,1.98,2.65,2.37,3.55.4.9,1.41,2.38,2.23,3.27,1.46,1.57,7.79,6.08,8.55,6.08.59,0,3.95,3.24,3.95,3.81,0,.29.23.6.5.7,1.01.37,1.25-.51.38-1.44-.48-.51-.88-1.11-.88-1.33Z"/>
      <path class="cls-1" d="M228.79,257.58c-.3-.11-.75-1.01-1-1.99-.44-1.74-1.43-3.05-1.93-2.55-.14.14.01.57.34.96.33.39,1.01,1.56,1.5,2.6.49,1.05,1.06,1.9,1.26,1.9.57,0,.43-.69-.17-.92Z"/>
      <path class="cls-1" d="M243.81,261.93c-1.54-.47-.99.45.8,1.33,1.94.96,2.16.99,2.5.43.23-.37-1.13-1.1-3.31-1.76Z"/>
      <path class="cls-1" d="M209.17,247.11c-.23-.58-.37-.65-.52-.24-.12.3.56,2.06,1.5,3.9.94,1.83,1.86,3.34,2.05,3.34.42,0-.71-2.93-1.85-4.79-.48-.77-1-1.76-1.18-2.2Z"/>
      <path class="cls-1" d="M159.91,89.75c.29-1.1.03-1.53-.93-1.53-.78,0-1.43,1.29-1,1.99.45.73,1.7.43,1.93-.46Z"/>
    </g>
    <path class="cls-3" d="M97.33,163.65c-.46-.17-1.83-2.31-1.65-2.56.1-.13.73-.51,1.41-.83,1.77-.84,2.79-1.73,2.67-2.33-.09-.43-.24-.48-1.18-.38-2.62.28-2.75.02-.84-1.67,1.59-1.4,2.3-1.48,1.99-.23-.36,1.41.52,1.43,1.93.03,1.24-1.24,1.31-1.26,2.4-.86.62.23,1.78.96,2.58,1.63.8.67,1.55,1.17,1.66,1.12.43-.19.24-1.41-.32-2.05-.58-.65-1.62-2.56-1.53-2.8.03-.07.99-.58,2.13-1.15,1.72-.85,2.08-1.14,2.01-1.65-.06-.43-.28-.63-.74-.67-.37-.03-1.54-.14-2.6-.26l-1.93-.21-.7-1.67c-.52-1.25-.65-2.08-.48-3.31.13-.9.29-2.67.38-3.94.08-1.27.3-3.74.48-5.49.18-1.75.38-4.05.45-5.11.16-2.48.28-2.76,1.19-2.76.76,0,3.37,1.53,4.22,2.48.22.24,1.14,1.1,2.04,1.92.91.82,2.7,2.57,3.98,3.89,1.28,1.32,2.39,2.42,2.46,2.45.15.06,1.9,1.79,4.72,4.66,1.06,1.09,2.76,2.64,3.75,3.45,1,.81,1.91,1.63,2.02,1.83.12.2.94,1.14,1.83,2.1.89.96,1.52,1.87,1.4,2.03-.12.15-.7.26-1.29.24-1.08-.05-1.84.58-1.25,1.03.18.14,1.15.94,2.15,1.78l1.83,1.53-.57,2c-.31,1.1-.52,2.1-.47,2.22.13.28,2.09-.57,3.31-1.43.53-.37,1.18-.68,1.44-.66.26,0,1.23.59,2.16,1.27.93.69,1.81,1.23,1.95,1.2.56-.11.34-1.25-.5-2.56-.49-.76-.8-1.58-.71-1.83.3-.79,3.96-2.09,7.09-2.51,4.39-.6,6.1-.85,11.84-1.73,9.55-1.47,10.4-1.56,10.53-1.04.06.26-.26,1.27-.72,2.24-.64,1.35-.78,1.89-.57,2.25.23.39.46.31,1.32-.49.57-.53,1.64-1.26,2.37-1.61l1.33-.64,1.89,1.41c1.04.78,2.06,1.57,2.27,1.77.25.23.5.21.74-.05.25-.28.19-.84-.19-1.74-.99-2.38-1.35-3.72-1.15-4.26.12-.32.99-.77,2.16-1.14,1.34-.41,2.03-.8,2.19-1.22.27-.72.02-.86-1.7-.91-.69-.02-1.99-.13-2.88-.25-1.56-.21-1.63-.25-1.88-1.06-.14-.47-.24-1.3-.23-1.86.02-.64-.15-1.08-.46-1.2-.42-.16-.63.1-1.3,1.6-.72,1.6-.92,1.83-1.99,2.24-.65.25-1.48.35-1.84.22-.36-.13-1.25-.26-1.98-.27-.73-.01-1.65-.15-2.06-.29l-.73-.26.69.67c.38.37.79.94.9,1.27.13.37.62.75,1.28,1,.59.22,1.03.52.98.66-.05.14-2.7.67-5.88,1.18-3.18.5-6.7,1.1-7.83,1.33-6.44,1.33-14.61,1.53-15.89.39-.21-.18-.43-.76-.49-1.28-.16-1.38-1.35-1.7-1.57-.43-.12.67-1.03,1.7-1.39,1.56-.22-.08-1.08-.83-1.92-1.66-.84-.83-1.62-1.55-1.74-1.6-.13-.05-1.41-1.31-2.84-2.8-1.44-1.49-2.68-2.74-2.75-2.77-.07-.03-.98-.92-2.02-1.98-1.04-1.06-2.16-2.13-2.49-2.39-.34-.27-1.13-.99-1.76-1.62-.63-.64-1.68-1.63-2.32-2.22-1.94-1.76-5.69-5.74-5.86-6.21-.09-.24-.51-.8-.95-1.25-.44-.45-1.09-1.35-1.46-2.01l-.66-1.19,2.71-1.1c1.49-.61,2.75-1.24,2.81-1.4.17-.46-1-.87-2.31-.8-.67.04-1.26-.03-1.31-.15-.1-.22,1.07-1.75,2.41-3.13,1.97-2.04,2.38-2.48,3.14-3.37.45-.53,2.66-2.96,4.92-5.4,2.26-2.45,5.6-6.09,7.41-8.09,2.47-2.72,3.49-3.66,4.02-3.69.39-.02.84-.18.99-.36.64-.71,3.45-2.58,4.01-2.66.38-.05,1.29.29,2.52.95,1.06.57,2.15,1.15,2.42,1.3.32.17.59.08.78-.26.22-.4-.09-1.03-1.28-2.63l-1.57-2.11,2.41-1.13c2.47-1.16,3.25-1.95,2.2-2.24-.31-.09-1.57-.21-2.8-.28-1.23-.07-2.28-.23-2.34-.37-.12-.25,1.16-2.72,3.58-6.93.74-1.28,2.84-4.96,4.66-8.18,1.82-3.22,4.65-8.1,6.28-10.87,1.63-2.76,3.12-5.44,3.31-5.95.29-.78.78-1.14,2.91-2.16,2.87-1.36,2.53-1.42,6,.92.87.59,1.67,1.04,1.76.99.53-.24,0-1.37-1.23-2.6-.77-.77-1.54-1.74-1.7-2.17-.39-.98-.02-1.21,2.7-1.73,1.1-.21,2.01-.42,2.03-.47.43-1.15-1.31-1.97-3.35-1.56-.75.15-1.7.14-2.12-.02-.69-.26-.73-.38-.39-1.27.62-1.66,1.9-3.33,2.85-3.71l.9-.37,1.64,1.39c.9.77,1.76,1.44,1.92,1.5.53.2.46-1.24-.12-2.61-.69-1.63-.48-1.91,2.28-2.95,1.58-.59,1.81-.78,1.66-1.27-.16-.53-.39-.57-2.47-.37-1.26.12-2.43.16-2.61.11-.18-.06-.71-.98-1.18-2.05-1.09-2.46-1.71-2.6-2.2-.49l-.33,1.44-1.57.09c-2.9.17-3.19.22-3.34.62-.08.22.13.61.46.86.34.26,1.11.83,1.72,1.28l1.11.82-.47,1.87c-.59,2.36-.9,2.78-1.38,1.86-.19-.37-.59-.72-.89-.76-.46-.08-.64.18-1.18,1.71-.71,2.01-1.05,2.25-2.8,1.94-1.51-.26-2.84-.03-3.05.54-.15.4.17.72,1.62,1.6,2.34,1.41,2.58,1.79,1.82,2.73-.32.4-1.25,2.1-2.07,3.79-1.71,3.55-2.93,5.85-4.24,8.02-.51.84-1.84,3.18-2.96,5.19-1.12,2.01-2.38,4.23-2.8,4.94-.43.71-1.21,2.12-1.74,3.13-.53,1.02-1.95,3.5-3.16,5.52-1.21,2.02-2.24,3.8-2.29,3.94-.21.56-.84-.04-1.14-1.08-.51-1.8-1.15-1.58-2.21.77-1.06,2.33-1.15,2.37-4.83,1.91-1.15-.14-2.13-.16-2.17-.05-.04.12.05.26.19.31.15.06.21.29.12.52-.1.27.12.52.65.71.44.17,1.51.85,2.39,1.53,2.13,1.65,2.07,2.05-.72,5.01-1.18,1.24-2.3,2.49-2.5,2.76-.19.27-1.47,1.78-2.83,3.35-1.36,1.57-3.13,3.6-3.92,4.51-.79.92-2.61,2.93-4.04,4.47-1.43,1.54-2.81,3.08-3.08,3.42-1.11,1.41-6.46,6.91-6.95,7.14-.47.21-.59.15-.92-.48-.21-.4-.48-1.24-.6-1.86-.22-1.13-1.01-1.77-1.48-1.21-.13.17-.47,1.07-.74,2.01-.55,1.9-.64,1.95-3.27,1.78-2.01-.13-3.02.08-3.24.66-.15.4,0,.63.54.86.41.17,1.38.71,2.14,1.19,1.65,1.05,1.71,1.68.33,3.64-1.74,2.46-1.48,2.9.95,1.6.87-.46,1.64-.71,1.72-.54.07.17.07.85,0,1.52-.07.67-.21,2.39-.29,3.83-.08,1.44-.34,4.32-.57,6.4-.37,3.33-.55,4.09-1.53,6.33l-1.11,2.55-1.24-.06c-2.3-.1-2.33-.09-2.64.74-.28.74-.23.82.79,1.2.6.22,1.37.65,1.7.95l.62.54-1.91,1.72c-1.05.95-2.27,1.99-2.71,2.3-.75.54-.81.54-1.04-.07-.13-.36-.28-.97-.33-1.37-.05-.39-.31-.76-.59-.82-.43-.09-.68.24-1.44,1.93-.51,1.12-1.01,2.08-1.11,2.12-.1.04-.76.1-1.46.12-2.26.07-3.69.21-3.75.35-.03.08.6.54,1.41,1.04.81.5,1.87,1.28,2.36,1.74l.89.84-.73,1.71c-.82,1.94-.84,2.69-.04,2.41.28-.1.57-.32.64-.49.06-.17.45-.52.87-.77l.74-.46,1.09,5.01c2.74,12.64,3.56,16.57,3.65,17.63.05.63.29,1.81.51,2.62.23.81.74,3.1,1.13,5.07.38,1.97,1.22,5.94,1.86,8.82.63,2.88,1.2,5.82,1.26,6.54.06.71.34,2.17.62,3.23.29,1.06.72,2.83.96,3.93.24,1.11.59,2.54.79,3.18.19.64.53,2.2.75,3.46.22,1.26.6,2.72.85,3.26.5,1.1.71,2.24.5,2.8-.08.21-.84.37-1.69.36-1.71-.02-2.62.33-2.36.9.09.2.86.77,1.7,1.26,2.81,1.65,2.72,1.54,2.32,2.68-.47,1.34-.56,2.46-.23,2.73.14.12,1.09-.33,2.1-1,1.04-.68,2.05-1.13,2.33-1.03.26.1,1.26.75,2.21,1.43.99.73,1.83,1.17,1.98,1.06.27-.21-.18-1.27-1.33-3.09-.4-.64-.69-1.25-.64-1.36.04-.12.89-.66,1.88-1.21,2.51-1.39,2.31-1.84-.96-2.11-2.79-.24-2.82-.29-1.21-2.26.46-.57,1.5-1.99,2.31-3.16.81-1.17,1.96-2.73,2.55-3.46.59-.73,2.08-2.63,3.31-4.21,2.11-2.72,2.26-2.86,2.56-2.27.29.57.37.59.9.29.32-.18.98-.74,1.47-1.23l.89-.89,2.07.95c1.14.52,2.26,1.12,2.48,1.32.32.29.46.23.65-.28.19-.51,0-.89-.91-1.77-.63-.62-1.11-1.23-1.06-1.36.05-.13,1.26-.06,2.68.16,1.42.22,4.2.47,6.17.55,5.84.24,13.05,1.35,15.4,2.36,1.09.47,2.07,1.06,2.18,1.31.12.26-.06,1.09-.42,1.97-.54,1.3-.56,1.54-.11,1.7.28.1,1.12-.2,1.87-.68,1.17-.74,1.55-.83,2.55-.56,2.35.62,4.43,2.53,3.4,3.13-.25.14-.71.16-1.02.04-.58-.22-1.85.13-2.01.55-.05.13.1.3.32.39.22.08.83.54,1.35,1.01.9.82.92.92.5,2.05-.55,1.46-.58,2.86-.06,2.88.21,0,.89-.56,1.52-1.27l1.14-1.28,1.15.52c.64.28,1.46.86,1.83,1.27.38.43,1.02.8,1.48.88.72.12,3.13,2.45,5.89,5.71.24.29,1.3,1.44,2.35,2.57,6.06,6.52,5.99,6.39,3.57,6.38-.76,0-1.45.16-1.53.36-.08.22.65.97,1.83,1.86,1.08.82,2,1.56,2.04,1.64.04.08-.26.94-.66,1.92-.97,2.34-.4,2.67,1.41.83.97-.99,1.36-1.21,1.68-.95.69.54,4.9,2.6,5.18,2.55.39-.08.6-.83.28-.95-.16-.06-.73-.84-1.27-1.74-.54-.89-1.1-1.67-1.24-1.72-.69-.26.36-1.21,2.19-1.98,1.13-.48,2.13-1.05,2.21-1.27.23-.61-1.04-.94-3.04-.8-.97.07-1.89.08-2.04.03-.14-.05-.38-.64-.53-1.29-.15-.66-.42-1.33-.61-1.51-.5-.45-1.35.23-1.8,1.43-.21.57-.5,1.05-.64,1.08-.25.04-5.88-5.88-10.45-11-1.28-1.44-2.7-2.94-3.16-3.34-.45-.41-1.07-1.09-1.37-1.52-.3-.43-.73-.85-.95-.93-.23-.08-.5-.41-.61-.73-.17-.51,0-.67,1.37-1.24,2.31-.96,2.55-2.14.38-1.88-.5.06-1.47,0-2.16-.15-1.17-.25-1.29-.35-1.72-1.51-.67-1.81-.91-2.01-1.54-1.3-.46.53-.6.54-.99.11-.25-.28-.41-.59-.37-.7.04-.11-.38-.71-.92-1.33-.55-.62-.96-1.22-.92-1.33.04-.11.88-.63,1.87-1.14,1.72-.9,2.11-1.46,1.25-1.78-.22-.08-.67-.11-.98-.05-.32.05-1.22.07-1.99.05l-1.4-.05-.7-1.71c-.95-2.34-1.56-2.35-2.14-.02l-.42,1.68-1.07.09c-1.91.15-6.18-.19-14.16-1.12-11.23-1.31-11.32-1.32-11.37-1.6-.03-.14.53-.49,1.24-.77,1.91-.76,2.01-1.9.16-1.71-.46.05-1.49,0-2.3-.1l-1.48-.19-.75-1.6c-.98-2.1-1.54-2.12-2.31-.06l-.57,1.53-1.99.22c-2.61.29-2.75.83-.58,2.29,1.38.93,1.54,1.14,1.24,1.57-.19.27-1.2,1.81-2.24,3.41-1.04,1.61-2.61,3.85-3.49,4.99-.88,1.14-2.4,3.13-3.37,4.41-1.67,2.21-3.3,4.09-3.7,4.28-.1.05-.37-.47-.6-1.14-.49-1.44-1.28-1.65-1.75-.46l-.3.77-.47-1.28c-.42-1.16-1.4-5.2-3.46-14.37-.73-3.24-4.09-19.45-5.98-28.87-.47-2.35-1.02-5.03-1.23-5.97-.2-.94-.73-3.69-1.19-6.12-.45-2.43-1.03-5.1-1.28-5.96-.79-2.68-.09-3.22,2.33-1.78,1.35.81,1.4.82,1.63.19.13-.35.12-.69-.02-.74ZM135.71,157.88c-.36.27-.4.24-.25-.17.1-.26.3-.44.46-.38.34.13.33.16-.21.55ZM172.73,149.91c.22-.59-.47-1.33-1.68-1.78-.54-.2-.94-.49-.88-.65.06-.15.4-.16.75-.03,1.21.45,2.6.31,3.03-.3.35-.5.46-.51.81-.06.31.41.56.5,1.08.39.37-.08.88-.06,1.14.04.43.16.42.19-.19.51-.59.31-.65.44-.61,1.5.06,1.72-.03,1.79-1.34,1.08-.78-.42-1.36-.57-1.73-.44-.45.15-.52.11-.39-.25ZM138.71,154.58c.11.8.31,1.6.43,1.77.38.49-1.93-.16-2.4-.67-.3-.33-.29-.6,0-.98.23-.29.61-.85.85-1.25.57-.95.88-.64,1.11,1.13ZM167.57,38.78c.07-.38.32-.82.56-.95.24-.14.46-.54.47-.88.02-.35.14-.59.27-.54.13.05.48.64.77,1.32.41.96.43,1.3.07,1.6-.25.21-.67.3-.94.2-.26-.1-.69-.08-.94.03-.25.12-.44.15-.43.08.01-.07.08-.45.15-.84ZM161.37,49.95c.09-.24-.06-.84-.32-1.33l-.48-.88.96-.39c.53-.22,1.04-.6,1.13-.86.26-.68.74.28.91,1.83.18,1.64.18,1.64-.77,1.37-.19-.05-.63.08-.97.3-.49.31-.58.3-.47-.04ZM160.34,51.83c.06-.15.25-.31.44-.34.19-.04.29.06.24.21-.06.15-.25.31-.44.35-.19.04-.29-.06-.23-.21ZM136.36,89.92c-.05-.68-.21-.84-1.01-1.01l-.96-.21.97.05c1.24.06,1.7-.21,2.26-1.36l.45-.93.22,1.26.23,1.27,1.27-.03c.7-.01,1.4.07,1.56.2.4.33-.88.87-1.51.63-.58-.22-1.19.08-1.62.78-.18.31-.59.43-1.04.32-.57-.13-.77-.36-.81-.98ZM138.88,92.06c.22,0,.53.11.69.26.16.15-.02.15-.4,0-.38-.14-.51-.26-.29-.27ZM103.93,123.53c-1.52-.94-1.45-1.25.21-.92,1.07.22,1.18.17,1.77-.87l.63-1.1.39,1.03c.21.57.27,1.12.14,1.23-.14.11-.21.49-.16.86.08.59,0,.64-.59.42-.37-.14-.76-.15-.87-.03-.11.13-.73-.12-1.52-.61ZM103.37,151.76c-.22-.48-.56-.75-1.01-.8-.66-.07-.65-.09,0-.54.45-.31.74-.78.85-1.38l.16-.92.64,1.33c.6,1.22.76,2.18.26,1.53-.34-.43-.44.19-.12.75.16.27.24.61.19.74-.15.41-.63.07-.98-.69ZM91.89,161.31c.11-.3,0-.78-.26-1.08l-.47-.53.89-.39c.69-.3,1.09-.28,1.74.09.97.55.96.59-.17,1.45-.46.34-.98.76-1.14.91-.46.43-.82.16-.59-.45ZM108.65,231.04c.08,1.08.87,1.55,2.21,1.29,1.24-.25,1.36.12.19.58-.41.16-.79.43-.86.6-.06.17.14.66.46,1.09l.57.78-1.25-.64c-.96-.49-1.34-.56-1.65-.3-.35.29-.5.2-1.18-.77-.43-.61-.97-1.17-1.19-1.26-.33-.12-.32-.21.09-.44.28-.16.67-.23.88-.15.4.15.58-.09.88-1.16.24-.85.78-.62.84.37ZM186.24,244.56c.17.29.61.53,1.08.58.73.08.76.14.36.66-1.15,1.49-1.23,1.71-.68,2.1.98.7.37.93-.74.29-3.17-1.84-4.39-3.21-2.36-2.67.68.18,1.03.11,1.24-.26.62-1.1.81-1.21,1.11-.69ZM164.96,225.04c-.73.03-1.17-.1-1.47-.43-.41-.46-.4-.48.21-.65.35-.1,1.05,0,1.55.2,1.16.49,1.04.83-.3.88ZM157.66,216.8c-.1-.32-.44-.77-.74-1.01l-.56-.44.94-.38c.81-.34,1.02-.31,1.52.2.66.67.54,1.27-.36,1.83-.56.34-.63.33-.79-.19ZM124.94,211.75c-.04-.28-.51-.67-1.09-.92-1.19-.5-1.65-1.19-.76-1.15,1.82.08,2.09,0,2.22-.75.19-1.07.55-.98,1.08.27.26.61.6,1.07.76,1.04.54-.11.11.4-1.01,1.2-.88.62-1.15.69-1.21.3Z"/>
  </g>
</svg>