<?xml version="1.0" encoding="UTF-8"?>
<svg id="Layer_1" data-name="Layer 1" xmlns="http://www.w3.org/2000/svg" viewBox="0 0 335 335">
  <defs>
    <style>
      .cls-1 {
        fill: #401717;
      }

      .cls-2 {
        fill: #f2e0dc;
      }

      .cls-3 {
        fill: #d97a43;
      }
    </style>
  </defs>
  <rect class="cls-2" width="335" height="335"/>
  <g>
    <g>
      <path class="cls-1" d="M104.56,140.66c-.41.52-1.82,2.09-3.14,3.48-1.31,1.39-2.38,2.71-2.38,2.93,0,.98,1.18.18,3.48-2.34,1.37-1.51,3.19-3.47,4.04-4.37.85-.9,1.65-1.92,1.76-2.28.11-.36.75-.97,1.43-1.36.7-.41,1.01-.79.74-.88-.5-.17-4.63,3.19-5.94,4.82Z"/>
      <path class="cls-1" d="M191.02,160.62c-.96,0-.93.51.12,1.65.72.78,1.8,1.31,1.8.87,0-.76-1.34-2.52-1.92-2.52Z"/>
      <path class="cls-1" d="M190.55,159.61c.14.14.66.26,1.16.26,1.25,0,.9-.91-.4-1.07-.96-.12-1.31.25-.76.81Z"/>
      <path class="cls-1" d="M166.83,126.08c.17,0,.47-.18.69-.39.27-.26.61-.15,1.08.38.89.99,1.71.99,1.71,0,0-1-2.75-3.99-3.34-3.63-.49.3-.62,3.64-.15,3.64Z"/>
      <path class="cls-1" d="M160.54,155.8c4.18.01,4.43-.39.58-.95-2.27-.33-4.19-.08-4.41.58-.07.22,1.47.37,3.83.37Z"/>
      <path class="cls-1" d="M192.58,165.76c-.44-.27-1.55.14-1.55.59,0,.18.43.34.95.34.94,0,1.27-.51.61-.93Z"/>
      <path class="cls-1" d="M192.2,155.71c0-.42-1.82-.97-2.14-.65-.12.12-.1.39.04.62.31.51,2.1.54,2.1.04Z"/>
      <path class="cls-1" d="M102.01,187.34c.22-1.19.21-4.64-.02-4.64-.63,0-1.41,2.84-1.07,3.88.32.96.97,1.42,1.09.76Z"/>
      <path class="cls-1" d="M103.38,185.09c.29,1.04,1.04.54,1.04-.71,0-.88-.18-1.14-.9-1.24-.75-.11-.86,0-.63.57.15.38.37,1.01.48,1.38Z"/>
      <path class="cls-1" d="M99.16,190.48c.61-.42.8-1,.85-2.57.07-1.71-.07-2.16-.85-2.9-1.41-1.34-1.75-.76-1.65,2.82.09,3.31.27,3.61,1.65,2.65Z"/>
      <path class="cls-1" d="M206.67,161.18c.7.29,1.64.29,1.92,0,.43-.43-.55-1.26-1.49-1.27-.95,0-1.26.92-.43,1.26Z"/>
      <path class="cls-1" d="M207.12,164.26c-.73.56-.73.57,0,1.14,1.12.87,1.83.73,1.52-.29-.39-1.3-.71-1.47-1.51-.86Z"/>
      <path class="cls-1" d="M208,176.48c-.26.25-.17.59.26,1.02.68.69,2.1.68,2.32,0,.21-.6-2.09-1.5-2.58-1.02Z"/>
      <path class="cls-1" d="M207.73,171.82c-1.11.35-.91,1.42.33,1.77,1.35.38,1.44.38,1.68,0,.12-.19-.1-.72-.47-1.19-.51-.63-.9-.78-1.53-.59Z"/>
      <path class="cls-1" d="M207.52,168.23c-.83.69-.74,1.05.45,1.69,1.43.79,1.7.74,1.41-.25-.43-1.44-1.17-2.01-1.86-1.44Z"/>
      <path class="cls-1" d="M199.7,167.84c-.8,0-.99.96-.24,1.26.6.25,1.42.3,1.42.1,0-.68-.58-1.36-1.17-1.36Z"/>
      <path class="cls-1" d="M199,163.11c0,.42.26.58.85.5.47-.07.85-.29.85-.5,0-.21-.38-.43-.85-.5-.59-.09-.85.07-.85.5Z"/>
      <path class="cls-1" d="M200.51,161.03c0-.55-.24-.76-.94-.76-1.04,0-1.2.35-.5,1.06.69.7,1.43.55,1.44-.3Z"/>
      <path class="cls-1" d="M199.16,165.78c1.35,1,2.42.46,1.17-.59-.31-.25-.87-.35-1.23-.21-.63.24-.62.29.07.8Z"/>
      <path class="cls-1" d="M199.76,171.04c-.62.38-.5.89.25,1.06,1.02.24,1.36-.12.74-.75-.31-.31-.75-.45-.99-.31Z"/>
      <path class="cls-1" d="M95.24,187.3c-.49.09-.7.56-.79,1.73-.1,1.4-.02,1.61.66,1.61.67,0,.78-.24.78-1.73,0-1.45-.11-1.71-.65-1.61Z"/>
      <path class="cls-1" d="M50.32,230.68c0-.62,1.77-2.18,2.09-1.85.07.07-.29,1.39-.8,2.94-.51,1.55-1.03,3.46-1.16,4.26-.24,1.47-.24,1.47,1.38,1.61.4.03.53.38.43,1.17-.39,3.12-.32,3.39.9,3.52.99.1,1.24-.07,1.8-1.25.36-.75.81-1.27.98-1.16.18.11.34,1.3.34,2.65,0,2.47.49,4.01,1.27,4.01.24,0,1.25.53,2.25,1.18,2.17,1.4,2.43,2.34.6,2.16-1.02-.1-1.25.02-1.35.69-.13.91,1.42,1.65,3.48,1.67.65,0,1.64.25,2.21.55.73.38,2.18.52,4.92.48,2.48-.04,4.16.11,4.65.4.78.48,2.82.35,5.01-.31.95-.29,1.41-.24,2.07.23,1.21.85,2.31.75,3.33-.34,1.04-1.11,1.41-1.15,2.32-.33.75.69,1.46.43,1.47-.53,0-1.17.77-3.41,1.46-4.24l.67-.82,1.17.99c1.46,1.23,1.77,1.24,2.33.03.89-1.94-.65-5.85-2.31-5.86-.82,0-3.22-2.63-3.67-4.02-.36-1.1-.69-1.33-2.57-1.89-1.47-.44-2.82-.56-4.24-.41-7.98.85-9.93.58-13.36-1.93-2.06-1.51-2.16-2.06-1.19-6.66.52-2.47,1.09-4.14,3.63-10.6.93-2.36,3.5-6.59,5.05-8.31,2.12-2.35,8.29-4.29,15.23-4.8,2.1-.15,4.55-.54,5.45-.86,1.43-.51,1.61-.51,1.42-.02-.36.92,1.64.29,6.35-2.02,2.33-1.15,5.27-2.41,6.52-2.82,2.87-.92,13.17-6.35,15.76-8.29,1.07-.81,1.99-1.42,2.05-1.35,1.76,2.12.96,9.8-1.52,14.63-1,1.95-2.23,3.21-4.71,4.81-2.09,1.34-3.22,3.45-2.9,5.38.41,2.46.55,2.68,2.09,3.37,3.05,1.36,4.46,5.94,3,9.8-1.13,3-.41,3.8,2.39,2.65.69-.29.71-.13.47,3.72-.3,4.81-.2,5.23,1.24,4.95,1.01-.2,1.08-.12,1.33,1.44.49,2.98,1.15,3.43,2.89,1.95.56-.47.77-.44,1.75.29.61.45,1.51,1.54,1.98,2.4,1.02,1.85,1.45,2.2,2.34,1.93.46-.14.89.18,1.42,1.06.91,1.5.96,2.32.18,2.97-.52.42-.51.56.09,1.22.81.9,2.51.77,5.11-.4.96-.43,2.32-.84,3.02-.89,1.19-.09,1.26-.03,1.27,1.11.01.67.13,1.33.25,1.46.14.14,1.12-.04,2.19-.39,1.29-.42,2.48-.55,3.53-.4,3.48.53,4.32.57,6.51.36,2.01-.2,2.44-.39,3.71-1.71,1.23-1.27,1.6-1.45,2.54-1.24.98.22,1.14.13,1.37-.79.27-1.04-.74-3.57-1.41-3.57-.18,0-.32-.25-.32-.57,0-.71.43-.71,2.16.01,1.98.84,2.3.31,1.42-2.34-.71-2.1-.78-2.18-2.56-2.63-1-.26-2.13-.74-2.5-1.09-.37-.33-1.6-.72-2.72-.85-1.31-.16-2.48-.59-3.29-1.2-1.2-.92-1.34-.94-3.22-.48-1.08.27-3.15.97-4.61,1.56-2.74,1.12-4.42,1.33-5.96.74-.71-.27-1.08-1-1.86-3.7-1.16-4-1.92-9.65-1.93-14.35,0-3.37.02-3.43,1.43-5.3,2.17-2.87,4.92-4.9,9.93-7.36,3.43-1.69,5.15-2.8,7.02-4.55,1.36-1.28,3.49-3.17,4.75-4.22,3.51-2.91,6.88-6.58,9.18-10.01,1.15-1.71,2.26-3.21,2.45-3.33.2-.12.92.35,1.61,1.05,1.52,1.53,3.64,2.59,5.17,2.6,1.12,0,1.47.61.79,1.35-.19.2-.44.81-.57,1.35-.34,1.41.63,2.09,3.44,2.4,2,.22,2.37.17,2.37-.32,0-.45.43-.59,1.87-.58,2.29,0,2.66.48,1.28,1.66-.95.81-1.01,1-.61,1.88.33.73.71.97,1.5.94,1.89-.06,6.73.17,7.01.34.15.09.07.49-.19.89-.38.6-.34.86.21,1.41.56.57,1.37.67,5.39.67,2.59,0,4.72.06,4.72.12,0,.07-.36.61-.8,1.19-1.61,2.17-.18,3.3,2.73,2.15,1.78-.7,2.4-.49,1.81.62-.66,1.23.06,1.57,1.96.91,1.92-.66,4.52-.76,4.51-.18,0,.22-.43.83-.95,1.34-.52.52-.95,1.09-.95,1.28,0,.67,1.56.84,2.23.25.51-.46,3.49-1.74,4.04-1.73.06,0,.02.32-.08.71-.27,1.02.5,1.35,2.98,1.29,2.16-.06,2.17-.05,2.4,1.17.34,1.87-1.23,5.83-3.72,9.4-.64.9.25,1.88,1.51,1.66.52-.1,1.09-.09,1.26.02.17.1-.13,1.3-.64,2.66-.52,1.36-1.05,3.75-1.19,5.29-.24,2.74-.22,2.81.62,2.81.79,0,.84.12.61,1.54-.14.85-.27,1.66-.29,1.8-.02.14-.01.98,0,1.87.03,1.51.11,1.61,1.13,1.61.81,0,1.36-.35,2.16-1.39l1.06-1.38.55,1.17c.65,1.38,4.93,3.84,5.39,3.1.41-.67,1.39-.12,2.26,1.27.64,1.02.75,1.68.6,3.66-.16,2.15-.1,2.43.55,2.61.56.15.71.47.62,1.36-.16,1.58,1.26,2.14,3.58,1.44.88-.27,2.26-.57,3.07-.68,1.62-.21,1.6-.29.77,3.02-.22.87-.14,1.04.5,1.04.41,0,1.45-.24,2.3-.54,1.69-.59,2.42-.47,5.53.95,1.63.74,2.25.81,4.87.61,3.12-.25,4.98-.95,7.01-2.65,1.45-1.21,2.13-1.21,2.68,0,.23.52.74.94,1.14.95.57,0,.77-.37.97-1.79.25-1.75.22-1.83-1.26-3.07-1.65-1.37-2.12-3-.76-2.57.41.13,1.1.34,1.51.47.66.21.76.06.76-1.1,0-1.45-.79-2.2-4.92-4.64-1.06-.62-2.56-1.57-3.32-2.09-1.89-1.29-5.06-1.24-7.72.14-2.19,1.13-2.94,1.18-4.54.35-1.28-.67-1.36-.72-3.39-2.43-1.87-1.58-2.21-3.21-2.35-11.56-.06-3.75-.3-7.74-.52-8.86-.61-3.06-.49-4.58.54-6.67.51-1.04.94-2.1.95-2.36.01-.57,1.67-1.03,2.52-.7.45.17.55.53.39,1.33-.17.87-.04,1.22.63,1.66,1,.66,1.68.41,3.57-1.36.68-.64,1.26-1,1.29-.8.03.2.07.68.09,1.07.06,1.15,1.19,1.65,2.01.9.39-.35,1.34-.9,2.11-1.21,1.19-.49,1.41-.5,1.4-.05,0,.8,1.75,1.09,2.94.49.57-.29,1.64-.65,2.36-.8.73-.15,1.89-.61,2.57-1.02.99-.6,1.35-.66,1.79-.29.44.37.84.31,1.97-.27,1.88-.96,3.67-.58,5.1,1.06.58.67,1.06,1.37,1.06,1.56,0,.18.43.51.96.71.61.24.92.61.85,1.04-.08.49.1.63.74.55.76-.11.83,0,.61,1.14-.14.69-.39,1.54-.57,1.89-.5.98-.4,1.83.49,4,.81,1.97,1.71,2.69,4.56,3.66.36.12.66.46.66.75,0,.3.43,1.31.95,2.26,1.07,1.92,3.31,3.3,5.4,3.31,1,0,1.2.15,1.2.86,0,.47.32,1.06.71,1.3.59.37.84.31,1.47-.38,1.06-1.16,1.62-2.32,1.62-3.4,0-.56.27-1,.66-1.12.36-.1.97-.31,1.34-.46.6-.24.66-.08.56,1.38-.1,1.52-.03,1.66.84,1.77.76.1,1.25-.27,2.42-1.79.8-1.05,1.71-2.74,2.02-3.76.43-1.45.79-1.95,1.68-2.31.62-.26,1.31-.8,1.53-1.2.57-1.05.07-2.77-.97-3.33-.57-.3-1.2-1.3-1.73-2.72-.45-1.24-1.32-2.71-1.91-3.27-.6-.56-1.09-1.2-1.1-1.4-.02-.5-4.38-3.24-5.15-3.24-.33,0-1.98-1.36-3.68-3.03-2.54-2.5-3.72-3.33-6.82-4.8-2.46-1.17-5.11-2.87-7.74-4.96-3.95-3.14-5.22-3.94-9.67-6.16-3.85-1.92-3.82-1.87-2.83-4.16.53-1.22,1.15-2.04,1.66-2.2,3.18-.97,5.11-4.83,5.76-11.5.13-1.35.7-3.57,1.25-4.92.59-1.43,1.02-3.22,1.04-4.28.02-1.36.23-1.98.8-2.46,1.32-1.09,1.81-2.45,1.41-3.92-.31-1.12-.35-2.19-.12-3.43.02-.15.86-.5,1.85-.79l1.79-.52.26-2.81c.14-1.54.55-3.48.9-4.31.66-1.53,2.27-3.17,3.14-3.2.29,0,.47-.57.47-1.48,0-.81.25-2.05.54-2.75.45-1.08,1.41-10.3,1.32-12.63-.02-.42.34-2.75.8-5.19.46-2.44.84-5.16.86-6.06.02-1.02.35-2.11.88-2.92.79-1.2,1.17-1.36,5.19-2.35,2.39-.58,4.71-1.06,5.16-1.06,1.11,0,2.02-.38,2.02-.83,0-.43-2.72-.27-7.85.45-1.92.27-3.61.38-3.75.24-.41-.41,1.37-1.64,3.44-2.36,1.06-.37,2.77-1.15,3.81-1.72,2.11-1.16,7.19-2.18,11.18-2.25l2.46-.04-2.08-.34c-4.08-.67-7.27-.03-15.91,3.18-1.98.74-3.78,1.35-4,1.35-.22,0-.43-.48-.47-1.07-.07-.91.14-1.17,1.34-1.7.78-.34,2.28-1.09,3.32-1.66,2.06-1.12,4.64-2.27,7.5-3.3.99-.36,1.8-.74,1.8-.85,0-.6-5.04.34-7.33,1.37-1.43.64-2.74,1.17-2.9,1.17-.54,0,.09-1.66,1.11-2.91,2.19-2.66,2.75-3.91,2.5-5.58-.18-1.22-.05-1.91.56-2.99.95-1.68,1.01-2.91.21-4.46-.42-.82-.47-1.28-.18-1.63.22-.26.51-1.52.65-2.77.23-2.13.17-2.4-.96-4.03-.66-.97-1.31-1.76-1.46-1.76-.15,0-.31-.77-.36-1.71-.12-2.24-1.39-4.9-2.81-5.93-.62-.45-1.69-1.68-2.37-2.74-1.79-2.8-2.89-3.94-4.04-4.23-.56-.14-1.4-.82-1.88-1.52-1.26-1.85-3-2.57-5.51-2.26-2,.25-2.08.22-3.27-1.09-.7-.76-1.9-1.54-2.78-1.81-1.4-.42-1.71-.39-2.84.27l-1.28.75-1.2-.93c-.95-.74-1.63-.93-3.28-.91-1.14,0-2.18-.15-2.3-.35-.13-.2-.9-.72-1.73-1.14-1.64-.84-3.58-.74-5.2.26-.6.38-1.25.46-2.08.26-.66-.16-1.37-.24-1.58-.17-.21.07-1.78.25-3.5.41-2.51.23-3.76.59-6.35,1.84-1.77.85-3.22,1.71-3.22,1.91,0,.2-.9.81-2,1.36-3.09,1.54-4.12,2.39-4,3.24.09.62-.4.95-2.73,1.88-1.56.62-2.96,1.3-3.09,1.53-.34.55.02,1.42.59,1.43.25,0,.78.24,1.18.53.92.68.61,1.07-3.07,3.82-2.22,1.66-2.72,2.22-2.56,2.85.13.47.62.86,1.29,1,1.49.3,1.36.73-.52,1.68-1.91.96-6.37,5.49-6.37,6.47,0,.73,1.69,1.58,2.52,1.27,1.96-.75-2.8,5.12-5.87,7.22-1.13.78-1.08,1.28.27,2.58,1.11,1.06,1.49,2.09.78,2.09-.19,0-1.3.9-2.47,2.01-2.54,2.4-3.76,5.25-3.41,7.9.18,1.35.08,1.75-.58,2.35-.85.76-1.05,1.91-.43,2.31,1.03.64-.74,3.73-2.98,5.19-1.56,1.02-4.7,2.17-5.93,2.17-1.23,0-1.83.75-1.18,1.48.84.95.32,2.57-.97,3.01-2.91,1-14.46,1.99-21.48,1.82-3.27-.08-9.52-.01-13.9.15l-7.95.29-5.68-1.93c-5.14-1.75-13.04-3.42-13.83-2.94-.15.1-2.65.24-5.56.33-5.78.17-11.19,1.28-18.31,3.77-4.59,1.6-8.44,1.94-12.89,1.11-6.55-1.2-7.19-1.48-13.09-5.47-5.93-4.01-7.99-4.65-14.99-4.67-10.65-.03-15.06,1.93-20.69,9.22-3.27,4.23-5.72,9.3-6.28,12.98-.53,3.54-.5,13.7.07,17.21.67,4.13.59,7.5-.21,8.71-.38.57-1,1.04-1.37,1.04-.38,0-1.17.27-1.77.62-1.56.89-3.48.42-5.35-1.31-1.52-1.42-3.83-5.41-3.83-6.61,0-.36-.15-.73-.32-.85-.35-.22-1.41-4.74-1.24-5.29.06-.18-.18-1.19-.53-2.24-.47-1.43-.58-2.76-.43-5.36.17-3.13.34-3.74,1.77-6.5.87-1.68,1.58-3.26,1.58-3.53,0-.27.62-1.85,1.36-3.53,3.31-7.46,3.92-10.7,2.46-13.1-.97-1.61-2.82-3.19-4.14-3.57-.76-.21-1.09-.6-1.27-1.51-.51-2.6-1.76-4.43-4.62-6.74-3-2.43-4.56-2.97-4.15-1.44.13.47.33,1.54.44,2.37l.22,1.52-1.55-1.61c-1.85-1.92-3.35-2.77-4.92-2.77-.86,0-1.16.17-1.16.68,0,.38.15.84.33,1.04.18.2.55,1.04.8,1.88.26.83,1.04,2.68,1.74,4.1.84,1.71,1.27,3.12,1.26,4.17-.01,1.46-.05,1.52-.48.76-.25-.45-.98-1.59-1.59-2.52-.62-.93-1.3-1.96-1.51-2.3-.2-.33-.8-.65-1.32-.71-.88-.09-.96.04-1.23,2.17-.16,1.24-.19,3.42-.08,4.83.2,2.34.14,2.62-.63,3.24-.83.66-.83.71-.2,1.94.4.78.75,2.7.91,5.1.34,4.93,1.16,6.82,4.16,9.62,2.5,2.32,3.76,4.1,3.71,5.24-.03.9,1.12,8.5,1.35,8.88.09.14.35,1.44.57,2.89.76,4.84,2.69,9.5,5.61,13.55,1.27,1.77,6.09,5.96,6.84,5.96.21,0,1.4.35,2.64.77,2.16.73,2.37.74,4.72.15,4.37-1.08,6.89-3.82,8.38-9.08.92-3.26.94-3.59.76-12.41-.17-7.83-.1-9.41.47-11.55.36-1.37.8-2.65.98-2.84.18-.2.32-.66.32-1.03,0-1.1,1.24-3.32,1.97-3.55.38-.12.69-.4.69-.63,0-.65,6.11-6.32,7.66-7.11,2.48-1.26,4.7-1.55,8.44-1.09,1.89.23,4.05.59,4.81.8,1.5.41,4.82,2.56,6.39,4.14.54.54,2.08,2.04,3.44,3.33,1.95,1.86,2.65,2.84,3.33,4.68.47,1.28,1.1,2.42,1.38,2.53.65.25.43,1.03-1.25,4.49-1.29,2.65-2.91,8.04-2.58,8.58.1.16.44.29.76.29,1.1,0-.15,3.91-2.18,6.8-.37.53-.78,1.68-.91,2.57-.21,1.44-.15,1.61.53,1.61.42,0,.78.22.81.48.1,1.06-.15,2.02-.65,2.59-.3.33-.54.94-.54,1.37,0,.43-.43,1.05-.95,1.4-1.12.72-1.2,1.28-.29,1.95.61.45.58.57-.48,1.69-.63.66-2.08,1.84-3.23,2.62-3.59,2.44-4.1,3.56-2.1,4.48l.91.42-1.6,3.12c-1.06,2.06-2.42,3.94-4,5.55-1.32,1.34-2.26,2.56-2.09,2.72.17.17.81.35,1.43.42,1.11.13,1.07.18-1.68,2.3-2.47,1.9-3.73,2.44-5.09,2.19-.68-.13-1.76.41-1.77.88,0,.27.34.8.75,1.17.42.38.76.83.76,1,0,.58-3.73,2.23-4.01,1.78-.57-.92-3.49-1.88-5.01-1.64-.81.13-1.64.35-1.84.48-1.51,1.03-3.56,6.32-3.57,9.2,0,.91-.31,1.76-.9,2.46-1.57,1.86-2.84,4.75-3.46,7.88-.33,1.67-.71,3.48-.83,4.02-.21.92-.15.99.85.8.59-.11,1.22-.43,1.38-.71.17-.28.44-.51.62-.51.63,0-1.38,4.58-2.54,5.77-1.42,1.46-4.31,7.03-4.41,8.51-.06.81.11,1.07.75,1.17,1.15.16,2.39-.57,2.39-1.41ZM91.59,244.79c.22,0,.29.17.16.38-.13.21-.31.38-.4.38-.09,0-.17-.17-.16-.38,0-.21.18-.38.4-.37ZM86.63,241.55c1.79.92,2.09,1.55,1.57,3.25-.26.86-.69,1.5-1.01,1.5-.62,0-2.06-1.32-2.06-1.89,0-.67-1.8-1.58-3.63-1.85-2.72-.4-2.2-.99,1.13-1.28,2.24-.2,3.24-.13,4.01.27ZM111.4,195.34c-.42.11-.76.13-.76.05,0-.07.34-.32.76-.54.42-.23.76-.25.76-.06,0,.19-.34.44-.76.55ZM129.32,203.66c.69-.57,9.07-3.43,10.05-3.42.42,0,.86-.15.98-.34.12-.19.94-.46,1.82-.6,1.47-.23,4.06-.83,9.76-2.26,1.15-.29,2.65-.52,3.33-.53h1.25s-.97,1.04-.97,1.04c-.83.89-1.28,1.04-3.15,1.08-3.11.05-8.39,1.09-12.11,2.39-1.76.61-4.59,1.47-6.29,1.89-1.71.43-3.48,1.02-3.94,1.31-.46.3-.93.54-1.04.54-.39,0-.2-.67.32-1.09ZM137.5,185.65c.47.47-1.03,1.77-2.79,2.43-2.46.91-3.21.97-3.21.26,0-.46,5.69-3.01,6.01-2.69ZM134.55,183.64c.62-.39.75-.37.75.09,0,.31-.34.73-.74.95-.4.21-.83.39-.94.39-.43,0,.21-.99.92-1.43ZM134.33,190.57c1.46-.35,3.25-.95,3.98-1.34,1.52-.8,3.94-1.48,5.27-1.48,1.3,0,.72.42-1.59,1.16-1.09.35-3.6,1.23-5.58,1.96-1.98.73-3.88,1.43-4.23,1.57-.69.28-1.35-.45-.84-.93.18-.17,1.52-.59,2.98-.94ZM149.11,182.5c-.12.19-.42.34-.67.34s-.95.26-1.56.57c-.62.32-2.5,1.07-4.17,1.66-1.68.59-3.36,1.2-3.72,1.34-.87.34-.85-.29.03-1.08,1.37-1.23,10.73-3.86,10.09-2.83ZM140.69,178.63c.09-.28.4-.57.67-.66.28-.09.42.05.33.33-.09.27-.39.57-.67.66-.28.09-.43-.05-.33-.33ZM141.75,181.68c0-.21.19-.38.4-.37.22,0,.29.17.16.38-.12.21-.31.38-.4.38-.09,0-.17-.17-.16-.38ZM144.02,180.97c0-.27,1.94-1.17,2.52-1.16.52,0-.04.71-.83,1.07-1.16.53-1.69.56-1.68.09ZM151.81,172.63c-.12.2-.49.37-.8.37-.31,0-.46-.17-.33-.38.13-.21.5-.38.8-.38.31,0,.46.17.33.38ZM154.23,174.15c.65,0,.49.7-.25,1.07-.98.5-3.2.85-2.96.48.25-.4,2.63-1.55,3.21-1.55ZM151.04,178.04c1.34-.21,1.39-.18.98.56-.23.44-.72.87-1.09.97-1.93.54-3.13.64-3.13.27,0-.62,1.67-1.56,3.23-1.81ZM145.38,209.82c-.08.52-.43.89-.9.96-1.12.16-1.41-.32-.68-1.12.89-.97,1.73-.88,1.58.17ZM147.8,207.97c-.82.74-1.07.77-1.43.19-.29-.48.81-1.46,1.63-1.46.7,0,.61.53-.2,1.27ZM150.58,205.58c-.13.21-.4.37-.59.37-.19,0-.35-.17-.35-.38,0-.21.27-.38.59-.38.33,0,.49.18.36.38ZM154.11,201.92c-.87.7-1.59.83-4.74.92-4.6.12-8.03.75-14.19,2.6-3.9,1.17-5,1.66-5.93,2.64-.63.67-1.33,1.21-1.56,1.21-.23,0-.41.42-.41.95,0,1.22.46,1.19,2.69-.17,2.58-1.58,7.46-2.75,10.67-2.56,2.92.17,3.26-.38.63-1.03l-1.68-.41,1.97-.64c1.08-.35,2.94-.63,4.12-.63,2.14,0,2.15,0,1.59.86-.31.47-.94,1.05-1.4,1.28-.46.23-1.42.98-2.11,1.65-1.26,1.21-1.27,1.21-4.64,1.07-2.76-.12-3.49-.03-4.01.48-.35.34-1.45.93-2.44,1.29-2.04.75-3.14,1.54-3.14,2.29,0,.69-.06.7,3.51-.93,5.07-2.32,9.76-2.38,9.75-.12,0,.4-.24.48-.86.29-2.59-.81-2.69-.79-2.44.49.24,1.23-.03,1.51-.77.77-.31-.31-.96-.24-2.45.23-3.77,1.23-6.94,3.14-6.28,3.81.21.22,2.23-.76,3.31-1.62.82-.65,4.2-1.73,4.49-1.44.14.14.25.45.25.69,0,.26.6.45,1.41.45.78,0,1.41.13,1.42.29.03,1.19-.11,1.44-.94,1.64-.74.18-.95.48-.95,1.34,0,.88-.24,1.2-1.24,1.62-3.99,1.67-5.28,2.3-5.65,2.74-.69.82.48.61,2.55-.47,2.98-1.55,3.84-1.73,4.07-.85.16.65.29.68.96.27.43-.26.88-.37,1.02-.24.38.38-.19,1.05-.9,1.06-.35,0-1.07.34-1.59.75-.52.4-1.13.74-1.35.74-.46.01-2.74,2.27-2.28,2.28.17,0,1.13-.44,2.14-.99,1.69-.91,1.88-.94,2.45-.38.34.35.83.63,1.1.63.27,0,.79.34,1.16.75.63.7.64.77.03,1-.36.13-1.05.03-1.54-.24-.78-.42-1.11-.36-2.57.49-1.78,1.04-2.8,2.03-2.45,2.39.12.12.91-.33,1.75-1.01l1.53-1.22,1.81.8c1.26.56,1.55.81.96.82-1.28.01-1.02.83.62,1.99.84.59,1.54,1.45,1.64,2,.21,1.1.24,1.09-1.02.51-.53-.24-1.07-.34-1.19-.22-.38.38,1.79,2.95,2.4,2.85.38-.07.78.56,1.22,1.98.7,2.23,1.45,2.67,2.09,1.22.32-.74.62-.86,1.95-.78,1.53.1,3.14-.4,6.48-2.01,1.74-.83,4.02-1.09,4.17-.47.05.2-.29.49-.76.61-5.86,1.65-10.14,3.23-10.15,3.73,0,.62,2.96.8,4.04.25.59-.3,1.67-.67,2.39-.83.72-.16,1.57-.43,1.89-.6.32-.18,1.6-.66,2.85-1.08,3.74-1.25,6.33-.87,6.8.99.4,1.59-.26,1.85-1.87.75-1.85-1.27-3.87-1.28-6.19-.05-.97.52-2.44,1.21-3.28,1.55-.99.4-1.32.68-.94.82.31.11.67.36.79.55.23.36,4.01-.66,4.68-1.26.2-.18,1.06-.32,1.92-.32,1.21,0,1.78.24,2.57,1.07.56.59,1.01,1.48,1.01,1.99-.03,1.93-1.85,2.96-2.83,1.61-.43-.59-.54-.58-1.56.11-.6.41-1.8.95-2.65,1.19-2.2.62-4.53.55-5.23-.16-1.01-1.02-2.91-1.35-6.36-1.1l-3.31.23-.46-1.08c-.89-2.06-4.17-6.68-4.88-6.87-.39-.1-.71-.32-.71-.48,0-.16-.32-.38-.71-.48-.43-.11-.83-.67-.98-1.37-.35-1.63-1.49-2.21-2.36-1.2-1.13,1.32-1.34.88-1.05-2.26.32-3.43-.1-4.05-1.93-2.85l-.99.64.28-2.3c.27-2.23.23-2.34-.91-3.5-.81-.81-1.16-1.51-1.11-2.19.19-2.38-.04-3.83-.59-3.84-.31,0-.98-.92-1.5-2.03-.52-1.11-1.37-2.25-1.89-2.53-2.25-1.22-1.29-5.17,1.62-6.62.85-.42,1.86-1.05,2.25-1.39.94-.84,5.35-2.35,11.31-3.89,7.12-1.84,8.04-2.04,9.25-2.04.59,0,1.29-.25,1.56-.56.64-.76,3.03-.76,3.03,0,0,.47.13.49.7.13.4-.24,1.03-.31,1.42-.16.66.26.63.34-.32,1.1ZM157.13,198.49c-.93,1.08-1.37,1.33-1.79,1.05-.36-.23-.42-.48-.19-.67.2-.17,1.02-.89,1.8-1.6.89-.81,1.42-1.09,1.42-.75,0,.3-.56,1.18-1.24,1.96ZM158.09,193.41c-.91,1.41-1.65,1.93-2.75,1.94-.52,0-2.65.42-4.74.93-2.08.51-5.15,1.17-6.82,1.46-1.67.3-4.82.89-7.01,1.32-4.66.9-4.27.87-3.98.4.13-.21.48-.38.77-.38.3,0,1.52-.43,2.73-.96,1.2-.53,3.13-1.14,4.28-1.34,1.15-.21,3.36-.79,4.93-1.31,1.56-.51,4.46-1.34,6.44-1.82,1.98-.49,4.12-1.04,4.74-1.23,1.74-.53,2.19-.21,1.42.99ZM143.06,194.4c-3.09.89-3.22.59-.34-.78,1.5-.72,2.83-1.48,2.96-1.69.13-.21.7-.39,1.26-.38.98,0,2.61-.5,4.62-1.41,2-.91,9.47-1.57,9.47-.84,0,.7-1.22,1.54-2.23,1.53-1.6,0-9.88,1.87-15.75,3.57ZM160.94,193.86c-.5.8-1.43,1.32-1.43.81,0-.36,1.27-1.56,1.64-1.56.14,0,.05.34-.21.75ZM162.55,189.89c-.2.13-.38.06-.38-.14,0-.21.17-.49.38-.62.21-.13.38-.06.38.15,0,.2-.17.48-.38.61ZM163.63,185.2c-.11.34-1.04.61-2.6.76-3.17.3-5.55.87-8.4,2.02-1.27.51-2.45.94-2.62.94-.17,0-1.55.57-3.07,1.27-3.76,1.73-6.79,2.81-9.75,3.47-1.36.31-2.83.65-3.24.77-1.18.33-.27-.45,1.82-1.55,1-.53,2.04-.96,2.3-.96.27,0,1.15-.31,1.97-.69.82-.39,2.35-.92,3.39-1.19,1.04-.27,2.18-.79,2.54-1.15.74-.75,2.46-1.36,4.66-1.64.83-.11,2.54-.47,3.79-.8,1.25-.34,3.21-.74,4.36-.9,1.15-.16,2.74-.42,3.55-.58,1.17-.23,1.44-.18,1.29.24ZM149.15,186.49c-2.77.94-3.37,1.01-4.56.54-.71-.28-.7-.32.19-.89,1.51-.98,3.02-1.22,3.02-.5,0,.9.39.75,1.68-.66,1.19-1.29,3.67-2.13,6.28-2.12.6,0,1.2-.16,1.33-.37.13-.21.86-.39,1.63-.39.77,0,2.6-.24,4.05-.52,1.5-.29,2.8-.37,3-.18.51.49-.49,1.49-1.47,1.49-1.95,0-10.51,2.03-15.15,3.61ZM165.38,194.63c-.13.21-.31.38-.4.38-.09,0-.17-.17-.17-.38,0-.21.18-.38.4-.38.22,0,.3.17.17.38ZM166.28,185.24c-.61.92-1.44,1.34-1.44.73,0-.5,1.08-1.57,1.6-1.57.23,0,.17.35-.16.83ZM156.46,180.97c-2.02.41-3.94.85-4.26.97-.33.13-.6.13-.6.02,0-.47,1.83-1.14,6.41-2.34,5.09-1.34,9.14-1.96,9.13-1.4,0,.35-4.22,1.44-10.68,2.76ZM163.74,175.49c3.3-.63,4.47-.69,3.96-.22-.2.18-2.07.62-4.15.98-2.09.36-4.63.89-5.66,1.17-2.26.62-3.57.68-3.02.13.37-.36,2.54-.87,8.87-2.06ZM156.92,174.17c0-.83,4.36-1.9,6.54-1.61,1.57.21,1.95.86.5.86-.51,0-1.32.14-1.8.33-1.57.58-5.24.88-5.24.43ZM167.52,192.47c-.38.37-.42.33-.21-.22.14-.37.36-.58.47-.46.12.12,0,.42-.26.68ZM168.31,182.24c-.38.37-.42.33-.22-.21.14-.38.36-.58.48-.47.12.12,0,.42-.26.68ZM171.29,182.91c-.21,0-.38-.17-.38-.38,0-.21.17-.38.38-.37.2,0,.38.17.38.38,0,.21-.17.38-.38.37ZM184.53,186.74c0-.21.69-.38,1.54-.38.93,0,1.45.16,1.31.39-.13.21-.82.37-1.54.37-.71,0-1.3-.17-1.3-.38ZM201.64,195.34c-.55.83-3.5.94-3.5.13,0-.38,2.29-.87,3.17-.67.33.08.47.32.33.54ZM220.47,203.51c-.73.47-1.04.47-1.33,0-.14-.22.22-.38.83-.37.83,0,.94.09.5.37ZM222.93,200.86c-.13.21-.69.37-1.25.35-.91-.03-.94-.06-.26-.35,1.06-.45,1.8-.44,1.52,0ZM222.36,197.74c-3.59,1.78-3.77,1.83-3.77,1.06,0-.3.9-1.05,2-1.68,1.1-.62,3.19-2.26,4.63-3.64,2.4-2.29,2.67-2.45,3.12-1.83.27.37.49.82.48.99,0,.85-3.59,3.68-6.47,5.1ZM231.31,206.74c-.25.64-2.14.81-2.14.19,0-.48,1.81-1.33,2.14-1.01.13.13.13.5,0,.82ZM229.46,201.64c.36-.42.79-.76.95-.76.16,0,.29.34.29.76,0,.56-.25.76-.95.75-.91,0-.92-.03-.29-.76ZM234.07,222.63c-.21.52-.74,1.15-1.19,1.39-.77.41-.81.37-.58-.53.5-1.97,1-2.89,1.56-2.89.67,0,.74.67.22,2.04ZM254.88,249.61c-1-.71-1.09-1.32-.17-1.3.82.02,1.99.88,1.99,1.45,0,.61-.82.53-1.81-.16ZM268.63,241.15c.65,0,1.72,1.03,1.72,1.64,0,.31-1.03.46-3.22.49-1.78.02-3.22-.04-3.22-.13,0-.25,4.13-2,4.73-2ZM255.93,201.91c-.58.74-.59.74-.6-.12,0-1.17,2.56-5.79,3.79-6.79,4.25-3.48,8.8-6.11,11.68-6.76,1.35-.31,1.01.62-.45,1.22-.72.29-2.06,1.05-3,1.68-.93.63-2.14,1.13-2.68,1.13-1.23,0-5.96,4.67-7.27,7.17-.49.93-1.15,2.04-1.48,2.46ZM258.11,187.13c-.63.19-.86.1-.86-.34,0-.32.44-.69.97-.82,1.05-.26,1.65.05,1.09.57-.19.18-.74.45-1.2.59ZM257.91,194.32c-1.03.71-1.43.74-1.43.09,0-.7.79-1.4,1.59-1.4.92,0,.86.59-.16,1.31ZM259.3,181.64c.14-.67.25-1.49.25-1.82,0-1.14.73.11.84,1.44.08,1.02-.05,1.34-.61,1.45-.62.13-.68-.01-.47-1.07ZM260.16,172.2c-.6-.5-1.49-.19-1.13.4.12.2.03.95-.21,1.67-.75,2.25-1.15,2.09-2.05-.85-.2-.65.08-1.21,1.21-2.46.81-.89,1.82-2.08,2.25-2.64l.78-1.03.23,1.98c.34,2.9.28,4.81-.15,4.81-.21,0-.38-.32-.38-.71,0-.39-.24-.92-.55-1.17ZM256.94,190c.77-.71,1.45-.99,1.44-.6,0,.09-.52.72-1.15,1.41-.82.9-1.14,1.07-1.14.6,0-.35.38-.98.84-1.4ZM263.41,182.87c-.26-.17-.65-1.38-.85-2.67-.32-2.01-.28-2.45.24-2.96.49-.49.68-.51.92-.13.49.8,1.14.07,1.14-1.28,0-1.09.11-1.23.86-1.08.79.15.84.33.71,2.51-.08,1.29-.32,2.55-.53,2.82-.22.26-.51,1.03-.65,1.7-.26,1.24-.97,1.67-1.85,1.1ZM263.87,186.24c-.57.82-1.12,1.49-1.22,1.49-.22,0,.24-3,.53-3.47.28-.45,1.2-.4,1.49.08.13.22-.22,1.07-.79,1.9ZM258.69,205.36c-.51.54-1.22,1.14-1.59,1.34-1.19.64-.77-.96.44-1.67,1.64-.96,2.2-.8,1.14.33ZM259.87,200.97c-1.2,0-.89-.98.89-2.83,2.2-2.28,2.86-2.16,1.2.23-.73,1.06-1.34,2.09-1.34,2.27,0,.18-.34.33-.75.33ZM262.3,203.02c-1.23.47-1.62.18-1.01-.78.21-.33.45-.32.95.05.6.45.61.52.06.73ZM270.76,198.53c-.68.9-1.68,2.37-2.22,3.29-.68,1.13-1.6,1.98-2.98,2.73-1.76.95-1.98.99-1.86.38.08-.39.48-.76.89-.84,1.15-.21,2.03-1.15,1.81-1.96-.18-.7,1.54-3.21,2.19-3.21.15,0,.98-.45,1.84-1.01l1.56-1.02-1.24,1.64ZM272.09,198.44c.85-1.29,3.06-2.53,5.54-3.11,1.21-.28,1.23-.27.57.35-.38.35-1.38,1.14-2.21,1.76-.84.62-1.92,1.59-2.41,2.16-.9,1.05-2.34,1.41-2.34.58,0-.25.38-1.03.86-1.74ZM272.7,203.52c-.46.56-1.86.72-1.85.22,0-.62.85-1.12,1.56-.93.57.16.63.31.29.72ZM305.52,208.31c.85,0,2.43,1.01,2.42,1.54,0,.58-.53.41-1.89-.6-1.03-.76-1.13-.95-.53-.95ZM277.63,189.74c-.28-.28-.3-.45-.06-.45.78,0,5.03,3.02,7.65,5.45,1.66,1.53,3.36,2.72,4.48,3.13,3.63,1.32,5.08,2.2,6.45,3.89.77.95,1.66,2,1.98,2.34.32.34,1.44,1.64,2.48,2.89,1.05,1.24,2.6,2.98,3.44,3.85,1.54,1.59,3.34,4.9,3.72,6.85.29,1.49-.35,2.83-1.71,3.62-1.15.67-1.18.67-1.18-.07,0-.41.43-1.08.95-1.49.52-.41.95-1.04.95-1.4,0-.54-.22-.62-1.19-.42l-1.19.24,1.01-.93c1.47-1.36,1.31-1.86-.52-1.62l-1.52.2.24-1.29c.21-1.13.15-1.29-.53-1.3-.43,0-1.54-.67-2.49-1.49-1.86-1.62-3.25-1.75-3.25-.31,0,.72-.09.7-1.14-.31-.77-.74-1.26-.97-1.52-.71-.48.48.99,2.55,3.92,5.53,2.08,2.11,2.64,3.44,1.62,3.83-.77.29-1.78,2.66-1.78,4.2,0,1.48-.37,1.65-1.86.88-1.44-.75-2.3-2.23-2.48-4.27-.3-3.36-.7-4.53-1.6-4.67-.62-.1-.89.12-1.08.85-.28,1.12-.47,1.17-1.54.41-.55-.39-.85-1.14-1.01-2.51-.2-1.7-.1-2.11.71-3.17,1.03-1.34,1.23-2.48.43-2.48-.28,0-.71-.68-.96-1.51-.26-.87-.69-1.52-1.01-1.52-.65,0-.68.18-.16,1.17.58,1.09.05,1.66-.82.88-.5-.46-.6-.79-.33-1.12.78-.93-.47-2.34-1.5-1.71-.65.41-4.52-2.26-4.54-3.13,0-.36.26-.66.59-.66,1.01,0,4.25-2.46,3.81-2.91-.3-.3-5.05,2.14-5.82,2.98-.33.37-.81.67-1.07.67-.25,0-.92.36-1.47.79-1.26.99-1.49.81-.94-.74.34-.97.63-1.19,1.52-1.19.68,0,1.1-.19,1.1-.52,0-.29.56-.79,1.25-1.11,1.33-.62,2.93-2.14,2.27-2.14-.97,0-4.73,2.03-6.33,3.43-1.43,1.26-1.86,1.46-2.31,1.08-.47-.4-.46-.57.11-1.34.36-.48,1.05-.98,1.54-1.11.49-.12,1.09-.4,1.33-.6.98-.83,5.18-3.36,5.58-3.36.85,0,.09-.96-.85-1.07-.75-.09-.93-.28-.78-.85.29-1.07-.79-.95-3.4.37-2.91,1.47-2.81.7.2-1.53,1.11-.82,1.34-1.79.59-2.54ZM300.73,215.55c0,.97-.42.86-1.42-.35-.92-1.13-1.15-2.2-.38-1.76,1.09.62,1.8,1.45,1.79,2.11ZM274.41,192.42c-4.27,3.8-9.62,8.17-9.62,7.85,0-.7,2.22-3.62,3.68-4.86,3.19-2.7,4.23-3.48,4.65-3.48.24,0,.86-.28,1.38-.62,1.54-1,1.49-.3-.09,1.11ZM273.09,187.5c.28-.11.6-.1.73.03.13.12-.1.21-.49.2-.44-.02-.54-.11-.23-.23ZM273.77,189.39c.11.11-.79.83-2.01,1.59-1.22.77-2.88,2.01-3.69,2.77-.81.76-2.47,2.62-3.71,4.14-1.22,1.52-2.23,2.64-2.23,2.48,0-.86,1.09-3.06,2-4.03.57-.62,1.05-1.34,1.05-1.6,0-1.28,7.8-6.15,8.59-5.36ZM271.49,177.53c-.28,0-.84.45-1.24.99l-.73,1-.24-1.47c-.2-1.28-.09-1.62.86-2.61.6-.63,1.29-1.86,1.52-2.75.73-2.72,1.54-1.87,1.53,1.62,0,2.05-.63,3.22-1.71,3.21ZM276.78,172c-.39,1.82-.8,1.96-1.31.41-.37-1.13-.37-1.47.02-1.71.95-.58,1.55.04,1.29,1.29ZM276.96,164.81c-1.82,1.55-2.04,1.62-2.39.71-.31-.82.69-1.61,1.71-1.34.6.15.74,0,.74-.79,0-.58.32-1.18.76-1.46.95-.59.98-1.28.07-1.52-.99-.26-1.36-2.43-.61-3.57.71-1.07,1.86-1.21,1.53-.18-.14.43.07.95.52,1.37,1.33,1.22.15,4.7-2.33,6.79ZM276.14,152.65h0c.13.12.16.44.07.7-.12.39-.22.39-.46,0-.31-.51,0-1.09.39-.7ZM281.89,151.02c-.09,1.55-.34,2.88-.56,2.95-1.14.37-2.27-2.87-1.22-3.52.27-.17.26-.41-.05-.78-.34-.41-.33-.67.03-1.1.58-.69.25-1.71-.54-1.72-.92,0-.68-.67.65-1.87,1.94-1.73,2.09-1.18,1.69,6.03ZM282.01,130.59c-.65,0-.76-.21-.69-1.23.26-3.64-.29-3.7-1.28-.15-.34,1.22-1.24,3.11-2,4.22-1.42,2.05-1.59,3.3-.48,3.52.46.09.75-.28,1.04-1.32.22-.79.89-2.18,1.49-3.08l1.1-1.63.25,1.01c.14.56.14,1.74,0,2.64-.15,1-.07,1.95.2,2.47.28.53.32.94.08,1.08-.2.13-.76,1-1.23,1.93-.47.94-.91,1.76-.97,1.83-.06.07-.56-.17-1.12-.54-1.4-.93-1.79-.18-1.05,2.02.39,1.17.44,1.77.17,1.94-.56.34-1.22,2.15-1.23,3.38-.02.96-.05.98-.56.31-1.1-1.46-2.13.24-2.73,4.51-.18,1.28-.69,2.4-1.71,3.74-1.54,2.02-1.61,2.38-.6,3.01.5.32.91.13,1.99-.91,1.12-1.09,1.41-1.21,1.71-.74.56.9.42,1.51-.35,1.51-.87,0-1.72.94-1.37,1.51.37.59.65,5.97.38,7.05-.39,1.55-1.1,1.06-.83-.57.3-1.82-.35-2.58-1.52-1.77-.68.47-.83.45-1.44-.27-.66-.77-.7-.78-1.2-.1-.29.39-.52,1.09-.52,1.56,0,.47-.17.96-.38,1.08-.23.15-.38-.62-.38-2.05,0-1.81-.13-2.36-.67-2.65-1.12-.6-1.6.03-1.44,1.87.17,1.88-.11,3.77-.54,3.77-.16,0-.39-.69-.53-1.53-.21-1.33-.39-1.56-1.41-1.77l-1.18-.24.25-2.35c.2-1.88.13-2.45-.34-2.84-.77-.65-.98-.37-2.3,3.13-.6,1.61-1.24,2.94-1.4,2.94-.39,0-.36-.43.13-1.84.54-1.55.21-2.61-.62-1.94-1.01.84-1.1.02-.11-1.05.64-.69.94-1.41.89-2.17-.09-1.59-.67-1.43-2.26.65-1.48,1.93-2.35,2.37-1.86.94.16-.47.3-1.36.31-1.99.02-.87-.16-1.16-.77-1.25-.63-.09-.93.23-1.44,1.56-.85,2.2-.91,4.5-.19,7.07.43,1.53.78,2.11,1.33,2.2.58.09.85-.22,1.21-1.4.63-2.1,1.18-2.29,1.25-.44.03.85.07,1.75.09,1.99.02.25-.52.59-1.2.77-.8.2-1.61.84-2.28,1.77-.57.81-1.26,1.78-1.53,2.17-.41.59-.46.26-.27-2.05.21-2.77-.32-6.15-.98-6.15-.19,0-1.2.79-2.23,1.75-1.06.98-1.88,1.51-1.88,1.22,0-.3.78-1.21,1.73-2.04,2.61-2.26,3.38-3.95,3.32-7.29-.05-2.73-.04-2.77,1.16-3.49.67-.41,1.5-.64,1.86-.53.88.29,1.45-.92.91-1.95l-.42-.8-2,.75c-1.12.42-2.29,1.18-2.68,1.74-1.18,1.69-1.99,4.19-1.77,5.46.2,1.16-.3,2.54-.75,2.09-.12-.12-.24-1.4-.25-2.83-.03-3.07-.12-3.31-1.07-2.8-.59.32-.69.69-.53,2.18.14,1.4-.02,2.2-.74,3.64-1.02,2.04-1.19,1.98-1.55-.57-.42-2.95.34-4.94,2.68-7.08,2.23-2.03,2.52-2.99,1.3-4.22-.84-.84-1.08-.9-1.83-.43-.41.26-.42.47-.03,1.09.43.68.3.99-1.14,2.7-.89,1.06-1.76,1.92-1.93,1.92-.17,0-.84.44-1.48.98-1.34,1.12-1.59.51-.41-.98.41-.52.75-1.49.76-2.16.02-2.06,1.08-5.4,2.1-6.6,1.44-1.7.7-2.38-1.39-1.3-.93.48-1.08.47-1.42-.1-.34-.57-.52-.49-1.52.67-1.26,1.44-1.32,1.35-1.15-1.75.05-.86-.11-1.69-.34-1.83-.56-.35.13-1.19,1.59-1.94,1.27-.66,1.02-1.45-.35-1.11-.55.13-1.18.03-1.53-.26-.49-.42-.71-.32-1.38.6-.44.6-1.09,1.45-1.45,1.89-.63.78-.64.78-.45.03.14-.54-.17-1.1-1.01-1.85-1.15-1.03-1.19-1.17-1-3.3.24-2.6,1.3-4.64,2.49-4.8.46-.07.83-.36.83-.63,0-.85-1.26-.88-2.18-.07-.93.82-1.39.7-1.01-.27.13-.35.57-.62.97-.62.66,0,.71-.19.49-1.86-.19-1.41-.09-2.08.37-2.74.34-.48.61-1.32.62-1.87,0-.55.35-1.44.77-1.96.93-1.18,1.38-3.11.8-3.47-.65-.41-.48-1.5.35-2.21.42-.36.9-.64,1.07-.64.56,0,2.05-1.82,1.88-2.32-.09-.29-1.12.47-2.54,1.9-2.31,2.31-2.38,2.45-2.16,3.88.18,1.17.07,1.7-.54,2.46-.42.54-.77,1.38-.77,1.88,0,.5-.29,1.54-.64,2.31-.35.78-.69,1.82-.75,2.34-.06.51-.36,1.45-.66,2.08-.3.63-.74,1.61-.96,2.19-.24.61-.7,1.04-1.1,1.04-.38,0-.88.19-1.11.42-.3.3-.62.21-1.15-.33-.69-.7-.71-.91-.23-3.83.27-1.69.61-3.27.74-3.48.14-.22.7-.3,1.26-.17.81.18,1.26-.03,2.28-1.07,1.21-1.24,1.25-1.36.82-2.68-.24-.76-.5-1.78-.54-2.26-.19-1.79.57-5.55,1.41-6.94.47-.79,1.05-1.77,1.27-2.18.23-.41,1.22-1.27,2.19-1.92.98-.64,1.87-1.25,1.97-1.36.29-.29,1.21-4.08,1.49-6.16.32-2.35,1.31-5.55,1.89-6.09.6-.56,3.62-1.83,3.84-1.6.1.1-.05.94-.34,1.85-.91,2.92-1.39,5.24-1.39,6.7,0,1.92-1.34,5.41-2.39,6.24-.47.37-1.56,1.02-2.43,1.44-1.67.81-3.23,2.23-2.45,2.23.25,0,.91-.28,1.48-.63,3.35-2.04,4.19-2.65,5.3-3.87.95-1.04,1.31-1.24,1.56-.85.38.6-.39,3.44-1.27,4.69-.77,1.09-.74,1.41.14,1.42.4,0,.84-.34.98-.75.13-.42.44-.76.69-.76.25,0,.75-.52,1.11-1.16.58-1.01.84-1.14,2.09-1.03l1.42.12-.12,1.7c-.06.94-.39,2.11-.72,2.61-.53.81-.64.84-.94.29-.2-.35-.5-.63-.69-.63-.62,0-1.97,3.55-2.18,5.73-.19,1.86-.11,2.22.59,2.83.94.81,1.03,1.91.22,2.81-.7.76-.35,1.97.52,1.8.42-.09.58-.44.5-1.12-.07-.55.06-1.11.29-1.24.72-.44.46-2.26-.4-2.8-.71-.45-.78-.75-.59-2.53.27-2.48,1.2-3.86,2.85-4.17,1.6-.32,2.36-1.43,2.37-3.48,0-1.92.55-3.11,1.42-3.1.34,0,.93-.28,1.31-.63,1.21-1.09,1.17-.27-.05,1.11-1.32,1.49-1.41,1.78-.57,1.78.99,0,.47,1.64-.69,2.19-.73.34-1.04.79-1.05,1.43,0,.52-.41,1.74-.89,2.73-1.27,2.55-1.28,4.03-.03,5.28.85.86,1,1.31.93,2.83-.07,1.36.04,1.81.46,1.81.35,0,.63-.59.8-1.69.26-1.72-.04-2.72-1.08-3.6-1.43-1.19-.12-5.38,2.51-8.02,1.22-1.21,1.85-2.16,1.85-2.79,0-1.09.56-1.25.94-.27.22.57.33.52.8-.36.7-1.31,4.58-4.46,5.49-4.45.43,0,.74.32.81.85.1.7.35.85,1.45.83.73-.02,1.63-.16,2-.33.6-.26.67-.11.56,1.36l-.11,1.65h2.65s0,2.85,0,2.85c0,3.01.09,3.13,2.08,2.62.44-.12.59.29.68,1.84.06,1.18.29,2.01.56,2.05.25.03.67.08.94.1.27.02.69.45.94.97.27.54.97,1.05,1.69,1.24.74.2,1.22.57,1.22.93,0,1.25,2.96,2.3,3.6,1.27.13-.21.54-.38.91-.38.37,0,.98-.34,1.37-.76.82-.9,1.45-.95,2.08-.18.38.46.34.76-.24,1.56-1.71,2.39-2.03,3.01-1.82,3.66.29.93-.83,2.53-1.78,2.53ZM232.16,148.24c-.3,0-.54-.14-.54-.32,0-.45,1.68-1.95,2.19-1.95.56,0,.87,1.95.71,4.47-.08,1.26-.38,2.24-.79,2.65-.62.61-.65.52-.54-1.63.12-2.41-.13-3.22-1.02-3.22ZM233.14,155.82c.28,0,1.14-.61,1.92-1.36,2.51-2.44,2.84-.71.92,4.74-.54,1.53-.98,2.94-.98,3.12,0,.63,1.19.33,2.42-.61,1.41-1.07,2.93-1.34,2.12-.37-.26.31-.71.57-.98.57-.28,0-.71.38-.95.85-.24.47-1.05,1.49-1.81,2.27-.75.78-1.47,1.41-1.6,1.41-.49,0-1.07-2.95-1.31-6.72-.21-3.12-.16-3.88.25-3.88ZM240.53,165.27c.13.5.42.65.95.51.83-.21.81.12-.13,3.79-.2.78-.44,1.42-.53,1.42-.31,0-1.31-3.95-1.31-5.18,0-1.35.71-1.72,1.01-.54ZM241.65,171.45c.35.07.7.34.79.59.23.7-.92.58-1.19-.13-.16-.41-.03-.56.4-.47ZM230.33,143.42c-1.2,2-1.6,2.14-1.61.57,0-.68-.14-2.1-.29-3.15-.22-1.54-.16-2,.33-2.41.54-.45.61-.37.61.61,0,.72.34,1.41.96,1.95l.96.84-.95,1.59ZM230.28,150.52c-.53.83-1.01,1.51-1.08,1.51-.39,0-.63-.67-.62-1.77,0-1.07.14-1.26.87-1.26.48,0,1.08-.2,1.33-.45.83-.82.52.36-.5,1.98ZM227.46,142.26c.01.53-.78.29-1-.3-.31-.8.21-1.23.64-.54.19.31.35.68.36.84ZM222.84,132.4c-.19-5.82-.25-6.39-.75-7.76-.56-1.51-.54-1.76.17-2.39.77-.69,2.73-3.95,2.39-3.95-.11,0-.98.68-1.93,1.52-1.9,1.66-2.41,1.73-1.39.2.74-1.13,1.19-2.91,1.75-7.02.25-1.76.66-3.12,1.08-3.59.38-.42.97-1.31,1.32-2,.35-.68,1.14-1.69,1.76-2.23,1.11-.98,1.49-2,.75-2.01-.53,0-.47-1.41.08-1.75.25-.15.52-.08.6.17.21.65,2.24.55,2.5-.12.12-.31.46-.57.77-.56.3,0,.6-.13.68-.28.07-.15.9-.95,1.84-1.76,2.72-2.36,3.42-3.74,3.42-6.85.01-3.06.39-3.78,2.85-5.47,2.77-1.9,3.72-1.31,1.88,1.16-2.1,2.83-4.35,7.1-4.78,9.07-.24,1.14-.67,2.51-.94,3.04-.27.53-.6,1.77-.71,2.75-.12.99-.39,2.12-.62,2.53-.22.4-.29,1.14-.16,1.65.19.76-.05,1.08-1.42,2-1,.66-1.69,1.44-1.78,1.97-.07.49-.73,1.66-1.47,2.62-.74.96-1.49,2.15-1.68,2.63-.46,1.2-.44,4.87.04,6.61.32,1.15.27,1.59-.24,2.37-.68,1.02-1.51,1.25-1.78.48-.12-.34-.38-.29-.94.22-1.1.96-1.54,2.26-1.92,5.7-.3,2.67-.27,3.06.35,3.59.9.77.87,1.08-.26,3.3-.53,1.02-.96,2.15-.96,2.5,0,.35-.17.75-.38.87-.64.4-.87-.9-.36-2.1.35-.82.42-2.77.28-7.09ZM247.67,96.97c-.71,1.35-1.42,2.45-1.59,2.45-.41,0-.39-.14.13-1.4,1.09-2.66,1.52-3.5,1.88-3.73.93-.56.78.38-.42,2.68ZM249.42,101.99c1.55-1.49,2.03-1.34,2.03.64,0,1.44-.22,1.9-1.62,3.37-1.3,1.37-1.92,1.74-3.22,1.88-.89.1-1.61.04-1.61-.12,0-.43,3.16-4.55,4.43-5.78ZM245.82,100.18c.39,0-.8,3.15-1.47,3.88-1.07,1.18-1.28.7-.39-.9.47-.86,1.03-1.88,1.24-2.27.2-.39.48-.71.62-.71ZM251.49,89.9c-.02-1.07.73-2.64,1.14-2.39.21.13.37.46.37.74,0,.28-.34.91-.75,1.4-.6.72-.75.77-.76.25ZM281.16,113.42c1.42,1.37,1.96,1.65,3.19,1.65.82,0,1.58.17,1.7.35.39.64-.24,1.55-1.08,1.55-.47,0-1.59.75-2.62,1.75l-1.79,1.76v-1.9c0-1.3-.19-2.07-.6-2.42-.54-.45-.75-.35-1.69.77-.9,1.08-1.12,1.18-1.32.65-.13-.35-.04-.89.22-1.2.72-.86.17-1.77-.99-1.64-.87.1-1.07-.08-1.52-1.39-.83-2.4-.19-2.94,2.24-1.91.46.2.67.11.67-.28,0-.63-1.71-1.43-2.81-1.32-.91.1-1.71-1.33-1.72-3.06,0-.68-.25-1.75-.56-2.35-.71-1.38-.29-1.65,1.56-1,1.13.39,1.53.78,1.8,1.71.46,1.62,2.83,3.7,4.83,4.25,1.71.47,6.95.22,7.68-.35.22-.17.94-.43,1.62-.57,1.18-.24,1.23-.21,1.23.9,0,1.35-.86,2.03-3.6,2.84-1.69.51-2.02.49-4.04-.2-2.19-.75-4.11-.98-4.11-.5,0,.14.77.99,1.71,1.9ZM286.38,138.42c-.31.6-.57,1.79-.57,2.65,0,.86-.12,2.1-.25,2.74-.23,1.14-.66,1.51-1.04.89-.41-.67-1-5.11-.78-5.82.17-.52-.03-1.07-.6-1.69-.98-1.05-.78-1.56.38-.93.58.32,1,.32,1.57,0,.93-.49,1.87-.22,1.87.54,0,.3-.26,1.03-.57,1.62ZM287.61,127.51c-.35.38-.63.91-.63,1.18,0,.26-.56,1.4-1.24,2.52-.67,1.13-1.45,2.05-1.71,2.05-.54,0-.66-1.36-.14-1.68.18-.11.33-.62.33-1.13,0-1.37,1.48-3.51,2.62-3.79,1.28-.32,1.55,0,.77.86ZM288.13,120.38c-.62,0-1.13-.11-1.13-.25,0-.52,2.73-3.54,3.2-3.54.68,0,1.15,3.68.55,4.39-.59.71-1.49.68-1.49-.03,0-.38-.37-.57-1.13-.57ZM290.51,133.09c-.69,1.06-.91,1.11-1.54.39-.64-.74-.49-2.84.33-4.46.39-.78.71-1.77.71-2.22,0-.68.09-.74.57-.34.83.69.69,2.02-.42,3.99-1.12,1.99-1.02,2.6.18,1.09.76-.97.8-.98.8-.19,0,.46-.28,1.24-.62,1.75ZM291.34,123.8c-.13.2-.31.38-.4.38-.09,0-.17-.17-.17-.38,0-.21.18-.38.4-.38.22,0,.29.17.16.38ZM293.18,114.24c-.32,1.1-.74,1.99-.92,1.99-.52,0-.39-.98.43-3.12.42-1.1.77-2.46.77-3.04,0-.57.18-1.04.39-1.04.48,0,.16,2.46-.67,5.21ZM293.85,103.56c-.39.46-.41.77-.08,1.3.24.38.32.79.2.92-.87.85-2.75-.78-2.75-2.39,0-.6.26-1.3.57-1.56.31-.26.57-.68.57-.94,0-.68,1.41-1.83,1.88-1.53.54.34.26,3.42-.39,4.2ZM293.74,89.76c-.23-.38,1.46-3.82,1.87-3.82.09,0,.01.48-.16,1.07-.53,1.84-1.4,3.24-1.7,2.75ZM293.18,79.11c-.8,0-.97-.6-.41-1.47.43-.67,1.18-.21,1.18.74,0,.49-.26.74-.76.74ZM295.26,92.15c-.35-.91-.29-.97.53-.53.42.22.76.58.76.77,0,.6-1.04.41-1.29-.24ZM296.92,95.6c-.21.13-.38-.03-.37-.36,0-.32.17-.59.38-.58.21,0,.38.16.38.35,0,.2-.17.46-.38.59ZM300.55,85.1c-.15.36-.31,1.02-.37,1.46-.15,1.2-.5,1.6-2.12,2.42-.82.41-1.56.75-1.65.75-.43,0,1.16-3.21,2.09-4.2,1.16-1.24,2.49-1.52,2.05-.43ZM296.96,82.57c0-.66,1.35-1.85,2.52-2.22,1.07-.35,1.17-.32.99.35-.11.4-.62,1.07-1.15,1.48-.98.76-2.37,1-2.37.4ZM302.1,74.98l-1.97,1.88c-2.23,2.13-3.08,2.43-2.8.97.03-.18-.12-.46-.34-.59-.65-.4,2.58-2.27,3.91-2.26h1.2ZM299.99,70.8c.61,0,.5,1.03-.18,1.6-.32.26-.88.75-1.24,1.07-.35.33-1.11.87-1.68,1.23-1.2.75-1.32.77-1.62.26-.57-.93,3.09-4.16,4.71-4.15ZM282.42,52.4c.11.3.17.53.12.51-.91-.38-2.16-1.41-2.16-1.78,0-.62,1.73.46,2.04,1.27ZM281.72,59.18c-.64,1.51-.99,1.7-.98.56,0-.42-.23-1.23-.51-1.8-.28-.56-.64-1.85-.77-2.86-.21-1.47-.17-1.78.24-1.55,2.08,1.2,2.92,3.54,2.03,5.66ZM279.91,49.78c.23.71-1.11,1.17-2.08.71-.47-.22-.79-.57-.73-.78.18-.53,2.62-.47,2.81.07ZM250.16,48.65c1.19-.6,2.04-.76,3.39-.62,1,.1,1.87.04,1.92-.13.06-.17.54-.36,1.06-.41.83-.09.94.03.84.92-.13,1.15.74,1.82,2.36,1.83.7,0,1.08.28,1.34.95.22.58.66.94,1.13.95.42,0,1.35.61,2.06,1.34,1.03,1.06,1.35,1.75,1.54,3.41.14,1.14.15,2.33.03,2.65-.38,1.01-.82.63-1.35-1.19-.28-.97-.8-2.04-1.15-2.37-1.35-1.3-2.91-2.41-4.63-3.31-1.53-.79-2.11-.89-3.97-.69-1.2.13-2.76.47-3.46.76l-1.28.51.22-1.09c.18-.89.06-1.16-.7-1.51-1.3-.6-1.16-1.06.67-1.98ZM243.16,52.73c3.56-1.4,5.14-1.1,2.56.49-.73.45-1.33,1.01-1.32,1.25,0,.31.09.32.28.03.16-.22.79-.59,1.42-.8.62-.22,1.43-.52,1.79-.67.46-.19.67-.09.67.32,0,1.16,2.45,1.39,6.26.59,1.77-.37,2.02-.33,3.41.58,3.62,2.35,4.33,2.95,4.3,3.57h0c-.01.37-.16,1-.32,1.42-.28.73-.3.73-.73-.07-.54-1.02-5.43-3.76-7.35-4.12-.91-.17-1.61-.11-1.97.19-.3.25-.72.35-.92.22-.58-.36-.91.51-.42,1.11.45.56.22,1.33-.41,1.32-.19,0-.35-.32-.35-.72,0-1.14-2.04-1.69-3.49-.95-.96.49-1.31.51-2.05.11-.49-.27-.89-.69-.89-.94,0-.25-.42-.74-.94-1.09-1.28-.84-1.19-1.18.47-1.84ZM254.23,59.25l-1.7-1.53,2.17.2c3.03.27,5.07,1.49,5.39,3.2.32,1.71-.19,2.19-1.35,1.32-.5-.38-1.34-.9-1.86-1.18-.52-.27-1.71-1.17-2.64-2.01ZM256.85,69.66c0,.57-.7.1-3.03-2.04-2.34-2.15-2.4-2.26-1.39-2.26.59,0,1.39.17,1.79.38.65.35,2.63,3.31,2.63,3.92ZM242.39,57.25c1.26-.24,2.08.35,1.01.74-.39.15-1.13.58-1.63.96-.5.38-1.15.69-1.45.69-.95,0,.91-2.15,2.07-2.38ZM240.24,56.44c.26.16.25.41-.05.77-.51.6-1.87.72-1.87.17,0-.52,1.46-1.23,1.92-.94ZM236.71,62.04c.57-.13,1.38-.51,1.79-.85.47-.39.36-.12-.29.71-.57.73-1.42,1.96-1.89,2.74-.47.78-.94,1.4-1.04,1.38-1.1-.21-2.05-.63-2.17-.97-.19-.58,2.37-2.72,3.6-3.01ZM233.06,69.93c.67.06,1.23-.07,1.24-.28.03-.88,1.26-2.02,2.3-2.14.71-.08,1.08-.31,1.01-.64-.16-.77,1.06-1.94,2.02-1.94.52,0,.92-.28,1.04-.72.11-.42,1.17-1.22,2.5-1.88,1.26-.64,2.48-1.49,2.71-1.9.22-.41,1.09-.93,1.94-1.15,1.39-.37,1.77-.3,3.99.75,2.68,1.26,2.84,1.93.48,1.92-.99,0-1.58.19-1.73.56-.24.63-1.86.77-2.22.18-.5-.81-2.49-.37-4.36.97-1.56,1.12-1.95,1.62-2.14,2.81-.31,1.91-1.66,3.19-2.99,2.85-.69-.18-1.32-.01-2.12.55-.62.44-1.39.7-1.71.58-.33-.13-.92.15-1.41.68-.82.88-3.66,1.62-4.18,1.08-.99-1,1.35-2.47,3.63-2.29ZM239.99,71.75c-.13.21-.3.38-.38.38-.08,0-.25-.17-.38-.38-.13-.21.04-.38.38-.38.34,0,.5.17.38.38ZM230.84,75.67c-.12.33-.4.6-.6.6-.5,0-.18-.86.39-1.05.28-.09.36.08.21.45ZM228.01,82.9c.38-.34.81-1.21.94-1.92.4-2.08,1.62-3.09,3.49-2.89.89.09,1.68-.01,1.82-.25.14-.23.08-.41-.14-.41-.66,0-.45-.98.36-1.71.44-.4.68-.97.57-1.33-.11-.35.08-.87.42-1.15.52-.43.67-.41.98.15.2.36.52.55.71.43.2-.12.36.03.36.33,0,.7,1.37.4,1.67-.35.12-.29.53-.53.91-.53.59,0,.71.3.7,1.7,0,.94-.11,1.71-.23,1.72-.12.01-.8.5-1.5,1.11-1.66,1.41-1.23,2.26.48.97,1.48-1.12,3.43-1.6,3.83-.94.15.25.05.6-.23.78-1.2.74-4.14,3.19-4.14,3.46,0,.66,1.44.24,1.63-.47.11-.43.35-.73.52-.68.17.05.72-.13,1.2-.4.49-.26,1.79-.53,2.9-.59,2.84-.15,3.71-.83,2.04-1.58-.44-.2-1-.93-1.22-1.64-.25-.77-.88-1.53-1.55-1.91-1.05-.58-1.14-.81-1.21-2.87-.05-1.32.14-2.71.45-3.38.3-.62.63-1.44.75-1.8.11-.37.64-.86,1.16-1.1.84-.38,1.07-.31,1.88.58.7.76,1.29,1.01,2.43,1.01,1.33,0,1.77.27,3.8,2.28,1.3,1.29,2.3,2.61,2.3,3.04,0,1.06.92.95,1.44-.16.36-.79.67-.92,1.98-.86,1.39.06,1.73-.11,3.06-1.55,1.4-1.51,1.67-2.62.54-2.19-.52.2-3.59-2.24-3.59-2.85,0-.2.17-.26.38-.13.21.13.51-.12.68-.56l.3-.8,1.02.8c1.25.99,2.03.68,1.22-.49-.78-1.12-.71-1.51.21-1.21.43.14,1.01.05,1.3-.19.59-.49,2.09.09,2.09.8,0,.21.47.34,1.03.27.92-.1,1.09-.35,1.52-2.2.95-4.05-.15-7.48-2.9-9.1-1.93-1.13-2.46-2.28-1.06-2.27,1.7.01,5.84,3.49,6.37,5.36.47,1.66.46,4.01-.03,4.31-1.11.69.35,2.84,1.93,2.85.54,0,.68-.58.92-3.59.39-4.94-.02-5.91-3.46-8.25-2.33-1.59-2.96-1.83-5.3-2.06-1.95-.18-2.76-.43-3.07-.93-.33-.52-.29-.78.14-1.13.44-.37.7-.34,1.24.16.37.34,1.27.63,1.99.63.72,0,2.28.35,3.46.77,1.18.42,2.38.76,2.67.76.28,0,1.1.72,1.8,1.6,2.57,3.17,2.62,3.3,2.36,6.18-.13,1.45-.41,2.86-.61,3.12-.53.68-.07,2.1.88,2.69.72.45.92.41,1.59-.25.67-.66.91-.71,1.75-.3,2.87,1.36,4.36-.4,4.1-4.83-.14-2.32-.1-2.55.36-1.9.29.41.85,1.1,1.26,1.53.59.64.69,1.15.52,2.65-.11,1.02-.45,2.32-.75,2.88-.5.96-.48,1.07.29,1.48.73.4.96.3,1.9-.74.89-1,1.07-1.53,1.08-3.26,0-2.5-.89-4.92-2.36-6.42-.97-.98-1.02-1.14-.46-1.46,1.09-.61,2.4.04,3.31,1.63.47.83,1.05,1.51,1.31,1.51.66,0,.79.35,1.07,2.94.25,2.27.23,2.35-.74,2.79-.64.29-.99.75-1,1.3,0,.46-.43,1.24-.95,1.73-1.18,1.11-1.26,2.22-.17,2.22,1.32,0,2.85-1.14,3.73-2.79.68-1.28,1.22-2.25,2.22-3.97.04-.08.36.08.69.36.86.72.49,2.47-.97,4.63-.66.97-1.36,1.86-1.56,1.98-.5.31-.46,1.69.05,1.69,1.1,0,3.15-1.39,3.98-2.69.51-.8,1.08-1.45,1.26-1.45.62,0-.29,2.72-1.1,3.29-1.86,1.29-2.78,2.28-2.52,2.7.4.65,1.39.54,2.79-.31,1.59-.97,2.06-.95.85.03-1.45,1.15-3.88,2.35-4.88,2.38-.68.03-1.01.39-1.4,1.53-.29.81-1.3,2.62-2.25,4-1,1.46-1.74,2.95-1.74,3.55,0,1.18,2.1,5.92,2.63,5.92.19,0,.53.73.75,1.62.22.88.73,2.38,1.12,3.31,1.43,3.38,1.38,3.87-.64,5.79l-1.81,1.72-.66-1.1c-1.42-2.34-5.37-4.39-6.57-3.4-.91.75-.69-.39.28-1.42,1-1.06.5-1.85-.94-1.49-1.26.32-2.88,3.65-1.78,3.65.22,0,.56.44.76.98.34.92.48.97,2.17.76.99-.13,1.98-.1,2.22.06.23.16.89,1.24,1.46,2.38.58,1.15,1.45,2.47,1.95,2.93.87.82.88.89.31,2.28-.32.78-.93,1.71-1.35,2.06-1.12.93-4.74,1.28-6.57.63-1.47-.52-3.25-2.37-2.77-2.86.14-.14,1.18.11,2.33.55,1.38.53,2.16.67,2.32.4.38-.61-.97-1.72-3.03-2.49-1.96-.73-2.31-1.12-1.76-1.98.28-.44.54-.46,1.48-.06.63.26,1.45.41,1.83.33.56-.12.4-.33-.72-1.03-1.01-.62-1.41-1.13-1.41-1.79,0-1.16-.9-1.53-2.14-.87-.86.45-1.02.43-1.49-.22-.29-.4-.53-1.01-.53-1.35,0-1.04-1.59-1.63-3.64-1.34-3.66.5-5.48.42-5.99-.29-.63-.86-2.28-.92-1.96-.07.12.33.23.67.23.75,0,.31,3.66,2.01,5.3,2.45,1.96.54,4.6,1.82,5,2.43,1.37,2.09-2.27,1.61-4.32-.57l-1.38-1.48-.25,1.1c-.17.78-.58,1.23-1.36,1.5-.62.21-1.12.57-1.12.79,0,.48,1.51,1.12,2.12.89.62-.23,1.19.65,1.49,2.31l.27,1.48-.89-.63c-.49-.35-1.33-.63-1.87-.63-.53,0-1.26-.35-1.61-.76-.36-.42-1.11-.79-1.69-.81-.57-.03-1.47-.09-1.99-.13-.52-.04-1.76-.1-2.74-.14-1.31-.06-1.8-.23-1.8-.65,0-1.05,1.45-2.08,2.9-2.07,1.36,0,1.37,0,.7-.76-.82-.91-1.64-.95-3.48-.2-1.65.68-2.01.47-1.03-.61,1.1-1.21,2.69-1.9,3.75-1.63.86.22.95.13.95-.93,0-1.17,0-1.18-2.09-1.18-2.15,0-4.38.7-5.55,1.74-1.02.92-1.62.26-.86-.94.35-.55.85-1.17,1.1-1.38.25-.21.67-1,.92-1.77.59-1.76,1.96-2.67,3.77-2.51,1.72.16,1.87-.57.36-1.71-.94-.71-1.18-.74-2.4-.3-.74.26-1.41.42-1.48.35-.07-.07-.18-.73-.25-1.46-.12-1.28-.08-1.33,1.08-1.23,1.6.13,1.88-.44.74-1.58-.84-.85-1.07-.9-2.39-.54-1.89.51-3.92,1.46-3.92,1.83,0,.17-.75,1.13-1.66,2.14-.91,1.01-2.04,2.58-2.51,3.49-.73,1.43-.92,1.58-1.38,1.12-.44-.44-.45-.76-.07-1.76.25-.67.76-1.31,1.11-1.42.88-.28,2.98-2.7,2.98-3.43,0-.97,1.26-2.79,1.92-2.79.34,0,.82-.42,1.05-.95.24-.53.76-.94,1.16-.94.89,0,1.32-.93.68-1.47-.26-.22-1.2-.51-2.09-.65-1.61-.26-1.62-.26-4.2,2.38-2.02,2.06-2.91,2.7-4.06,2.91-2.08.38-6.05,4.33-6.37,6.34-.13.78-.33,2.05-.45,2.81-.16,1.05-.8,1.96-2.57,3.73-2.5,2.48-4.05,3.34-4.05,2.25,0-1.08.75-2.06,2.3-3.04,1.62-1.01,1.85-1.47.91-1.83-1.18-.45-4.72,2.32-4.72,3.69,0,.26-.6,1.31-1.33,2.33-.73,1.03-1.33,2.26-1.33,2.75,0,.49-.79,1.9-1.75,3.14-1.77,2.28-2.8,5-2.82,7.43,0,.68-.22,1.57-.47,1.98-.38.6-.38.91.01,1.54.63,1.01.27,2.07-1.32,3.92-.7.82-1.28,1.7-1.28,1.96,0,.26-.17.58-.38.71-.23.15-.4-.61-.43-1.97-.03-1.21-.08-2.87-.12-3.69-.06-1.04.14-1.73.66-2.27,1.14-1.21,2.66-3.93,2.48-4.46-.1-.3-.66.07-1.46.96-1.39,1.56-3.67,3.12-4.02,2.76-.12-.12.34-.85,1.01-1.61.68-.77,1.43-1.64,1.66-1.93.58-.71,1.78-1.83,2.71-2.52.73-.55.7-.57-.5-.59-1.14-.02-1.24-.11-1.13-1.05.08-.62.39-1.09.77-1.16.35-.07,1.74-1.17,3.08-2.46,2-1.92,2.62-2.82,3.46-5.04.78-2.06,1.56-3.26,3.28-5.06,2.03-2.12,2.64-3.01,2.07-3.01-.1,0-.53.34-.95.75-.41.42-1.07.76-1.46.75-.92,0-4.59,3.7-4.85,4.91-.41,1.87-.88,2.64-1.47,2.41-.86-.33-.68-2.11.31-3.04.48-.45,1.27-1.6,1.76-2.55.8-1.55,1.17-1.89,1.95-1.79.13.01.47-.43.76-1,.29-.56,1.5-1.91,2.67-3,1.18-1.09,2.42-2.56,2.75-3.26.34-.7.87-1.48,1.18-1.75.31-.26.58-.86.58-1.34,0-.6.82-1.56,2.68-3.16,2.65-2.28,2.83-2.64.96-1.94-1.01.38-2.4,1.52-5.7,4.68-3.15,3.01-3.45,3.26-3.89,3.26-.76,0-.84-1.06-.13-1.7ZM292.26,82.41c-.13.12-.21-.1-.2-.5.02-.44.11-.53.23-.23.11.28.1.6-.03.73ZM219.56,125.59c0,.28-.6,1.08-1.33,1.78l-1.33,1.28v-1.37c0-1.5.08-1.58,1.63-1.94.73-.17,1.04-.1,1.03.26ZM218.11,103.04c0-.69.68-1.26,1.04-.89.13.13-.05.52-.4.87-.59.58-.64.59-.64.01ZM228.01,87.25c0-.2.27-.37.59-.37.33,0,.49.18.36.38-.13.21-.4.38-.59.38-.2,0-.36-.17-.36-.38ZM219.36,92.88c.92-1.14,6.79-5.65,7.1-5.45.17.1.4.54.51.96.16.59-.02.81-.8.98-.55.12-1.21.27-1.45.35-.24.07-1.58,1.54-2.98,3.27-2.81,3.47-3.5,4.05-3.83,3.19-.21-.54.48-2.09,1.45-3.3ZM217.37,105.4c.56,0,.42.42-.9,2.62-1.32,2.19-2.17,2.82-2.16,1.62,0-.81,2.48-4.25,3.06-4.24ZM210.49,113.28c.41-.49.75-.7.76-.46,0,.24-.33.83-.74,1.32-.41.49-.75.7-.76.46,0-.24.32-.83.74-1.32ZM210.07,119.25c.24-.29.87-.52,1.41-.52.92,0,.87.1-.86,1.69-1.01.93-2.42,1.92-3.12,2.22-.7.29-2.24.53-3.41.53h-2.13s1.24-.76,1.24-.76c.68-.41,1.36-.76,1.5-.75.14,0,.93-.63,1.75-1.41.95-.91,1.54-1.25,1.65-.95.23.64,1.43.61,1.97-.04ZM28.47,96.65c.32-.31,1.09.2,3.06,2.04,2.16,2.01,2.8,3.24,3.11,6,.24,2.1.22,2.17-.57,1.96-.5-.13-.93,0-1.12.33-.25.44-.4.36-.73-.38-.23-.51-.54-1.59-.67-2.39-.14-.8-.73-2.06-1.31-2.81-1.07-1.38-2.18-4.35-1.77-4.75ZM29.94,123.78c-.35,0-.52.48-.52,1.5,0,1.97-.66,2.31-.99.51-.21-1.11-.07-1.77.65-3.1.5-.93,1.07-1.7,1.26-1.72.19-.02.85.79,1.46,1.79l1.11,1.82-.65,1.68c-.82,2.13-1.5,2.22-1.15.15.27-1.6-.19-2.64-1.18-2.64ZM30.94,114.87c-.22-.14-.5.11-.61.55-.21.79-.69,1.03-1.01.51-.32-.52,0-2.55.65-3.97.35-.77.63-2.04.64-2.82,0-2.08.69-1.11,1.21,1.69.44,2.44-.01,4.57-.88,4.04ZM22.7,98.86c-1.12-2.37-1.03-3.01.34-2.57,1.18.37,4.46,4.72,5.28,7,.7,1.94.73,2.28.24,4.2l-.53,2.08-.03-1.94c-.04-1.85-1.27-5.45-1.87-5.46-.15,0-.48.2-.72.43-.58.58-1.61.12-1.61-.71,0-.37-.5-1.73-1.11-3.03ZM27.94,111.65c0,.8-.56,1.02-.95.38-.28-.45.09-1.14.6-1.14.2,0,.36.35.35.76ZM26.38,106.96l-.13,1.09-.47-1.3c-.5-1.37-.35-1.96.32-1.28.22.22.34.89.27,1.49ZM19.92,106.04c.25-.08.46.02.46.24,0,.21.33.71.74,1.09.41.38,1.18,1.87,1.71,3.3.54,1.43.92,2.94.86,3.35-.1.64-.37.49-1.74-1.01-.88-.97-1.76-2.16-1.95-2.65-.55-1.47-.61-4.15-.09-4.32ZM94.58,149.28c.19-.56,1.06-.87,1.06-.37,0,.2-.27.47-.6.6-.37.14-.54.05-.45-.22ZM94.48,159.85c.49.13,1.1-.18,1.8-.89.58-.59,1.56-1.36,2.18-1.71.62-.35,1.69-1,2.36-1.45.68-.45,1.24-.63,1.24-.4,0,.62-2.55,3.3-4.33,4.57-.86.61-2.18,1.44-2.94,1.86l-1.38.76-.19-1.03c-.24-1.26.28-1.96,1.27-1.7ZM89.61,167.25c1.16-1.15,1.93-.91.86.27-.38.41-.96.75-1.28.75-.43,0-.32-.27.43-1.02ZM88.08,172.53c.33-.36.66-1.08.73-1.58.2-1.39,1.08-1.46,1.08-.08,0,.76-.29,1.35-.85,1.74-1.13.79-1.69.74-.96-.08ZM83.4,179.69c.28-.09.43.05.33.33-.09.28-.39.57-.66.66-.28.09-.42-.05-.33-.33.09-.27.39-.57.67-.66ZM73.51,191.15c.61-.13,1.89-.75,2.83-1.38.99-.65,2.09-1.08,2.59-1.01l.86.13-1.03,1.04c-.62.63-1.45,1.04-2.09,1.05-.59,0-1.49.25-2.01.55-1.08.62-2.27.73-2.27.21,0-.19.5-.45,1.1-.59ZM54.03,222.85l1.74-1.41-.28,1.08c-.25,1-.22,1.04.37.55.88-.72,3.22-3.98,4.1-5.72.69-1.35.65-2.57-.1-2.58-.33,0-2.3,3.72-2.34,4.42-.01.39-1.36,2.01-1.66,2.01-.35,0-.25-1.7.12-2.1.8-.85,2.04-5.13,1.84-6.36-.18-1.1-.04-1.4.91-2.09.7-.52,1.11-1.16,1.11-1.75,0-1.4-.61-1.15-2.86,1.14-1.13,1.14-2.13,2.08-2.25,2.08-.72,0,.1-1.71,1.89-3.96,1.86-2.31,2.09-2.8,2.1-4.36,0-.97.25-2.08.55-2.49.3-.4.46-1.11.35-1.56-.26-1.07.47-3.25,1.36-4.05,1.08-.97,3.05-.85,4.73.3,1.52,1.04,2.81,1.06,4.02.07.31-.26,1.72-1.07,3.13-1.8,1.41-.74,2.83-1.61,3.16-1.93.33-.33,1.12-.6,1.75-.6,1.31,0,2.87-1.43,3.89-3.58.64-1.35,1.12-1.64,1.55-.95.42.68,1.33.4,1.68-.51.19-.49.61-1,.94-1.12.33-.13.6-.58.6-1,0-.86-.85-1.01-2.44-.41-1.27.48-1.33-.4-.11-1.59.47-.46,1.48-1.83,2.24-3.04,1.33-2.12,3.28-3.81,10.67-9.22,1.64-1.2,2.21-2.24,1.57-2.88-.14-.14-1.17.6-2.31,1.63-2.15,1.96-3.15,2.34-3.13,1.21,0-.37.96-1.33,2.17-2.17,3.19-2.23,5.41-4.34,5.42-5.14,0-.92-.47-.9-1.35.07-.39.42-1.82,1.57-3.19,2.53-1.37.96-2.71,1.97-2.98,2.24-1.17,1.14-1.18.37,0-.94.7-.78,1.68-2.02,2.18-2.76.5-.73,1.4-1.69,2.02-2.12,2.69-1.9,5.93-5.06,6.1-5.96.1-.53.04-.97-.14-.97-.18,0-.33-.12-.33-.29,0-1.04,7.71-6.89,9.07-6.88.64,0,.77-.2.68-1.04-.07-.57-.24-1.1-.4-1.17-.16-.07-1.75,1.03-3.55,2.45-4.54,3.59-10.19,7.79-11.55,8.58l-1.13.67.12-1.46c.1-1.13.29-1.48.91-1.56.43-.06,1.63-.77,2.66-1.58,4.27-3.35,5.44-4.37,5.65-4.91.12-.31,1.29-1.7,2.6-3.07,1.84-1.94,2.32-2.69,2.17-3.35-.17-.74-.56-.43-3.2,2.58-2.53,2.88-6.37,6.39-8.07,7.36-.24.14-.72.15-1.05,0-.56-.21-.56-.32-.03-1.12.72-1.1.76-2.29.07-2.69-.35-.2-.45-.73-.33-1.55.14-.92.73-1.71,2.23-3,2.5-2.14,4.06-4.29,3.73-5.15-.36-.96-.63-.79-2.26,1.36-1.55,2.05-2.54,3.04-3.69,3.7-1,.58-.8.14.65-1.46,1.22-1.35,1.27-1.51.8-2.43-.44-.85-.42-1.1.1-1.87.34-.49.96-1.16,1.39-1.51.62-.52.68-.72.29-1.13-.35-.36-.66-.39-1.12-.1-1.09.68-2.79,3.01-3.32,4.53-.52,1.48-1.34,2.19-1.34,1.14,0-.32.48-1.4,1.07-2.39,1.61-2.73,2.48-5.62,1.97-6.58-.35-.66-.29-.82.37-.99.74-.19,1.12-.85.5-.89-.15,0-.68-.35-1.17-.76l-.89-.74,1-1.18c.79-.93.91-1.29.56-1.71-.38-.46-.57-.46-1.33.04-1.24.8-1.93.73-1.15-.12.76-.84.83-1.96.11-1.96-.29,0-.73.25-.99.57-.54.65-1.09.71-1.88.2-.48-.3-.47-.45.09-1.06.98-1.08.81-1.26-.92-.99-1.25.2-1.53.14-1.39-.28.09-.29.54-.58.99-.65.46-.06.83-.26.83-.44,0-.35-.53-.54-2.58-.96-.81-.17-1.36-.56-1.57-1.12-.32-.85-2.44-1.91-3.05-1.53-.17.11-.61-.32-.98-.95-.77-1.3-.98-1.38-1.65-.59-.68.82-1.19.71-2.12-.47-.76-.96-.89-1-1.79-.52-.85.45-1.1.44-1.92-.1-.87-.58-.98-.58-1.56,0-.51.52-.85.55-1.99.19-1.13-.35-1.49-.32-2.01.15-.71.63-1.61.74-2.9.32-.64-.2-.92-.09-1.12.44-.4,1.05-1.33,1.65-2.4,1.55-.75-.08-.97.1-1.08.85-.2,1.39-.67,1.78-1.95,1.59-1-.15-1.14-.06-1.14.76,0,.96-.81,1.88-2.03,2.31-.44.15-.62.47-.48.84.33.87-.81,2.79-1.9,3.2-.89.34-.94.48-.7,2.1.21,1.44.12,1.92-.55,2.82-.45.6-.81,1.66-.82,2.35,0,.7-.2,1.47-.45,1.71-.35.34-.33.67.07,1.43.42.8.43,1.12.04,1.74-.33.52-.36.9-.1,1.23.21.26.31,1.55.22,2.9-.1,1.38.03,3,.28,3.71.4,1.12.37,1.33-.27,1.79-.67.49-.68.58-.11,1.21.82.91.58,4.99-.32,5.49-.43.24-.54.64-.38,1.38.15.7.03,1.2-.36,1.53-.38.31-.5.8-.36,1.38.21.82.11.9-1.12.9-1.46,0-2.11.56-1.44,1.24.73.73.52,1.49-.29,1.05-.85-.46-1.18-.19-1.19.94,0,1.18-1.1,1.49-1.97.55-.91-.98-1.46-.98-1.72,0-.17.65-.4.73-1.38.53-3.69-.78-11.17-7.9-11.83-11.27-.12-.59-.36-1.17-.54-1.28-.18-.11-.33-.75-.33-1.41,0-.67-.4-2.7-.9-4.53-.49-1.82-1.1-5.14-1.35-7.38-.61-5.54-1.33-7.04-4.86-10.28-2.58-2.36-2.96-2.89-3.51-4.87-.66-2.36-1.12-8.84-.63-8.84.16,0,.9.68,1.64,1.5,1.43,1.58,1.76,2.57,2.49,7.37.57,3.74.68,4.02,1.56,4.02.78,0,.96-.56.32-.96-.76-.47.28-7.43,1.3-8.79.57-.75,1.19-.55,1.85.59.6,1.01.58,1.15-.47,3.38-1.6,3.41-1.71,4.53-.69,6.54.7,1.39,1.11,1.75,2.19,1.97,1.65.33,2.42-.28,3.66-2.89,1.11-2.35,1.13-3.28.1-4.2-.81-.72-1.77-2.64-2.06-4.12-.23-1.18.24-2.86.79-2.86.28,0,.61-.43.74-.96.14-.53.38-.87.56-.77.3.19-.05,3.23-.54,4.78-.4,1.25.19,1.64,1.13.75l.86-.81-.4,1.73c-.37,1.6-.05,2.99.41,1.73.11-.31,1.03-2.15,2.04-4.09,1.88-3.59,2.71-6.45,1.9-6.56-1.45-.2-1.39-.26-1.52,1.66-.03.36-.18.67-.33.67-.16,0-.29-1.71-.29-3.79,0-2.08.07-3.78.17-3.78.09,0,.73.44,1.43.97,2.56,1.96,2.92,4.14,1.31,7.94-.44,1.04-1.58,3.85-2.52,6.24-1.9,4.79-4.19,9.28-4.95,9.73-1.08.63-1.37,1.85-.98,4.13,1.78,10.44,3.72,16.5,6.69,20.79,1.82,2.65,2.84,3.43,5.17,4,1.98.48,2.06.47,3.85-.68,3.67-2.34,4.64-6.18,3.34-13.21-.43-2.36-.53-4.7-.39-9.12.21-6.65.69-10.02,1.74-12.12,2.29-4.57,3.41-6.18,7.07-10.16,1.36-1.48,2.05-1.97,2.56-1.81.39.13,1.16-.09,1.74-.49,1.45-.99,4.16-2.19,6.07-2.68,3.65-.94,4.63-1.08,8.43-1.12,3.4-.04,4.31.09,6.25.87,1.96.79,8.92,5.14,11.96,7.47,1.09.83,4.39,1.76,8.27,2.32,3.49.5,12.36-.78,17.62-2.54,4.54-1.53,10.06-2.43,16.3-2.66,5.56-.21,6.28-.16,8.71.61,1.46.46,3.25.96,3.97,1.11,1.39.29,3.75,1.21,7.07,2.73,1.08.5,2.13.9,2.33.9.2,0,1.22.43,2.25.96,1.04.52,2.07.95,2.29.95.57,0,1.29-1.46,1.05-2.11-.12-.3,0-.55.25-.56.25,0,2.76-.09,5.57-.19,2.82-.1,5.36-.26,5.65-.35.29-.1,3.87-.27,7.95-.36,4.08-.09,9.12-.42,11.21-.72,2.08-.3,4.47-.65,5.31-.76.83-.11,2.59-.55,3.9-.96,1.32-.42,2.49-.66,2.6-.55.36.36-.29,1.77-.81,1.77-.28,0-.83.55-1.24,1.22-.56.93-1.34,1.45-3.17,2.14-7.34,2.75-7.29,5.48.09,5.19,3.62-.14,6.48-.89,7.74-2.03.64-.57,3.31-1.96,3.77-1.96.1,0,.17,1.12.17,2.49,0,2.07-.24,2.96-1.34,5.24-.74,1.51-1.33,2.93-1.34,3.14,0,1.5,4.76.01,7.07-2.21.7-.67,1.29-.98,1.43-.75.14.22.35,2,.47,3.97.22,3.55.21,3.59-1.36,7.41-.87,2.11-1.58,4.17-1.58,4.57,0,1.01,1.74.86,2.88-.26.98-.95,2.59-1.1,4.16-.38l1.01.47-.2,4.75c-.13,2.97-.44,5.36-.83,6.4-.34.91-.62,1.69-.62,1.75,0,.05.47.11,1.04.12.79.01,1.48-.46,2.84-1.93l1.79-1.96v1.28c.02,3.08,2.02,13.4,2.9,14.94.09.17.41.11.69-.13.28-.23.69-.32.9-.19.22.13.65-.4.98-1.18.84-2.01,2.09-2.73,2.08-1.21,0,.44.5,2.32,1.13,4.19.62,1.87,1.12,3.86,1.12,4.43,0,.88.15,1.02,1.03.99.75-.03,1.22-.38,1.74-1.33.39-.71,1.1-1.72,1.55-2.23.46-.52,1.34-1.61,1.93-2.42q1.09-1.48,1.44-.56c.46,1.2.06,5.81-.68,7.88-.83,2.33-.77,2.68.52,2.68.87,0,1.51-.44,2.94-2.05,1.7-1.91,1.87-2.02,2.49-1.45.95.86.83,1.81-.32,2.56-.7.45-.87.77-.59,1.05.28.28.28.63,0,1.17-.33.6-.28.86.24,1.25.56.41.6.67.23,1.7-.6,1.69-.55,1.85.52,1.86,1.21,0,1.21.42-.02,5.17-1.32,5.1-2.56,8.85-2.93,8.85-.17,0-.31-.67-.3-1.49,0-1.92-.58-3.43-1.31-3.44-.7,0-.69-.09-.76,7.04-.06,4.9-.16,5.87-.78,6.82-.4.6-.94,1.23-1.21,1.39-.74.44-.19,1.41.79,1.41.7,0,.9.27,1.09,1.43.46,2.82.37,3.06-1.19,3.19-2.05.17-1.97,1.24.09,1.28,1.25.02,1.54.17,1.63.84.09.63-.19.94-1.26,1.38-1.56.65-1.45,1.35.21,1.35.98,0,1.12.14,1.11,1.12,0,.92-.18,1.13-1.05,1.22-1.42.16-1.36,1.19.09,1.45,1.08.19,1.18.38.99,1.9-.03.21-.39.37-.81.37-1.07,0-.95.93.19,1.45,1.1.5,1.23,1.39.28,1.92-.6.34-.54.49.56,1.58.68.67,1.23,1.4,1.23,1.64,0,.47,1.79,2.77,3.59,4.66.82.85,1.74,1.32,3.25,1.63,2.29.49,3.46.24,5.16-1.09,1.01-.79,2.55-.99,2.92-.39.33.54-4.3,2.96-6.64,3.46-2.89.62-3.44,1.19-1.89,1.97,1.12.56,1.34.55,3.16-.13,2.74-1.03,3.02-.98,2.71.45-.18.81-.11,1.28.25,1.51.75.48,1.46.41,1.46-.14,0-.74,1.4-1.44,3.39-1.67,1.15-.13,1.91-.05,2.08.22.15.23.65.43,1.12.43,1.24,0,1.48.42.61,1.02-.42.3-.76.84-.76,1.22,0,1.69-6.79,3.06-8.55,1.72-.68-.53-.63-.56.78-.58,1.35-.02,1.44-.08.85-.53-.37-.28-1.66-.62-2.86-.77-1.21-.14-2.78-.57-3.49-.95-2.51-1.35-4.11-1.37-4.6-.04-.13.34-1.31.83-2.97,1.23-2.82.67-3.72.56-2.53-.3.8-.58.53-1.56-.51-1.84-.78-.21-.96-1.33-.39-2.45.84-1.65,1.19-3.44.86-4.32-.31-.83-1.89-2.21-2.53-2.21-.32,0,.13,1.79.84,3.31.32.67.5,1.44.4,1.7-.09.27-.49-.18-.89-.99-.98-2.05-2.44-3.05-4.26-2.95-1.12.06-1.76-.16-2.65-.91-1.06-.9-1.18-1.21-1.17-3.15,0-2.31-.5-4.59-1.1-4.97-.23-.14-.18-1.31.18-3.24,1.47-8.2,1.52-10.49.33-13.81-.19-.52-.38-1.78-.42-2.79-.05-1.02-.48-3.11-.97-4.66-.68-2.17-.8-3.1-.54-4.02.48-1.65.45-1.83-.27-1.7-.98.17-1.33-1.76-.66-3.71.52-1.51.5-1.72-.16-2.82-.43-.7-.82-1.03-.98-.78-.43.7-.92.45-1.54-.76-.45-.88-.49-1.29-.17-1.68.3-.36.32-.74.05-1.23-.31-.57-.06-1.25,1.19-3.34.86-1.44,1.7-2.67,1.88-2.74.17-.07.59-.72.95-1.46.48-1.02.54-1.5.22-2.01-.23-.37-.33-1.01-.22-1.42.11-.42-.07-1.28-.4-1.92-.81-1.57-.75-2.37.19-2.61.6-.16.67-.28.28-.53-.28-.17-.71-.32-.97-.33-.76,0-1.62,2.58-1.89,5.65-.17,2.05-.5,3.27-1.13,4.28-.49.77-.89,1.56-.89,1.73,0,.18-.52,1.1-1.16,2.05-.85,1.28-1.09,1.99-.92,2.7.45,1.83-2.01,4.18-8.07,7.71-3.86,2.25-4.34,1.98-1.41-.78,3.92-3.69,5.47-5.29,5.47-5.63,0-.5-.69-.37-1.02.19-.17.28-.82.82-1.45,1.21-.62.39-1.66,1.15-2.31,1.69-2.89,2.44-6.59,4.58-8.19,4.74l-1.64.17,2.09-1.13c1.15-.62,2.77-1.65,3.61-2.27.83-.63,2.07-1.42,2.75-1.77.68-.36,1.23-.78,1.24-.95,0-.17.67-.64,1.49-1.05,1.28-.64,2.31-2.02,1.86-2.48-.07-.07-1.41.71-2.97,1.75-2.97,1.98-8.57,4.86-9.44,4.85-.41,0-.41-.11-.03-.57.26-.31.63-.57.82-.57.39,0,2.98-2.49,2.98-2.87,0-.14.3-.47.66-.74.36-.26.55-.6.41-.74-.14-.14-1.21.37-2.37,1.13-3.04,2.01-8.15,4.43-7.65,3.64.1-.17.93-.81,1.82-1.41,2.76-1.85,5.17-4.3,4.98-5.05-.32-1.23-1.74-.79-3.1.97-.7.9-1.56,1.65-1.91,1.65-.35,0-.8.16-1,.34-.85.8-5.54,3.06-5.9,2.84-.55-.34.68-1.6,2.43-2.49.79-.4,1.53-.96,1.64-1.25.11-.29.85-.97,1.66-1.52,1.47-1.01,2.26-2.46,1.36-2.47-.27,0-1.62.81-3.01,1.79-5.07,3.6-7.34,4.76-8.22,4.22-.6-.37-.75-.25,2.06-1.89,1.22-.72,2.37-1.59,2.56-1.94.19-.36,1.19-1.11,2.22-1.69,1.55-.87,2.68-2.12,2.68-2.98,0-.51-1.1.07-4.45,2.33-3.55,2.39-7.59,4.66-8.31,4.65-.18,0-.97.43-1.74.94-1.42.96-2.74,1.21-3.11.6-.28-.45.51-1.06,1.8-1.38,1.83-.46,10.39-5.12,10.97-5.99.85-1.25-.23-1.1-4.58.61-2.93,1.16-3.94,1.17-2.05.02.62-.37,1.15-.85,1.19-1.06.04-.21.62-.39,1.29-.4,1.79-.02,2.86-.48,3.14-1.35.35-1.08.07-1.2-1.39-.58-2.19.91-3.94,1.38-5.21,1.37-1.39,0-6.14.96-7.74,1.57-.75.28-1.18.29-1.46,0-.66-.66.72-1.12,5.96-1.95,3.45-.54,5.05-.96,5.38-1.41.95-1.26.52-1.53-1.3-.83-.59.23-3.54.62-6.56.89l-5.5.47-2.17-.96c-1.2-.53-2.18-1.13-2.18-1.34,0-.2.27-.15.59.11.8.67,3.46.56,5.29-.21.83-.36,2.75-.74,4.27-.87,1.52-.12,2.75-.4,2.74-.6,0-.21-.57-.35-1.24-.32-3.81.19-8.17.52-9.05.7-.55.11-1.12.02-1.25-.2-.45-.72-1.72-.47-1.72.35,0,1.01-.64.97-.97-.07-.34-1.09.68-1.82,2.54-1.82.78,0,2.33-.33,3.44-.73,1.1-.4,2.64-.84,3.42-.98.78-.14,1.42-.42,1.42-.64,0-.24-.55-.29-1.42-.15-.78.13-3.1.48-5.14.79l-3.72.56-.71-.86c-.39-.48-.72-.96-.72-1.08-.03-.54,2.04-1.05,5.23-1.3,2.21-.17,3.61-.45,3.9-.78.24-.29.37-.58.29-.66-.08-.07-2.28.01-4.88.18-5.11.32-5.4.29-7.95-.94l-1.71-.82,2.65-.24c6.15-.57,7.39-.92,7.39-2.1,0-.43-.24-.5-1.04-.3-1.06.27-9.73.99-11.46.95-.52-.01-2.31-.13-3.97-.25-2.33-.18-3.92-.05-6.82.57-6.41,1.36-5.81,1.28-4.9.61,1.76-1.3,4.25-2.4,4.78-2.1.3.17,1.21.13,2.03-.07,2.71-.68,7.47-.97,10.37-.64,1.8.21,2.99.2,3.22-.04.2-.2.81-.37,1.36-.37.54,0,1.15-.15,1.35-.34.2-.18,1.13-.51,2.07-.72,1.41-.31.94-.36-2.65-.25-6.04.17-5.8.17-10.23.13-2.76-.03-5,.2-7.31.73-3.87.89-4.56.94-4.34.29.09-.26,1.25-.77,2.59-1.14,1.34-.37,3.03-.85,3.76-1.06,3.63-1.06,10.05-1.65,10.47-.97.37.61.94.26.83-.5-.19-1.26-4.86-2.73-10.43-3.26-2.36-.22-2.77-.17-2.99.37-.13.35-.17.7-.09.78.13.14,3.42.51,5.02.57,1.44.05.21.49-2.81,1.01-3.53.61-5.67,1.56-6.59,2.95-.89,1.35-1.24,1.21-1.48-.56-.2-1.6-.89-2.77-1.41-2.45-.17.1-.14.8.06,1.53.51,1.87.18,5.76-.55,6.48-1.13,1.13-1.54.22-1.26-2.77.22-2.37.18-2.79-.32-2.79-.64,0-.68.26-.75,4.79-.05,3.16-.47,4.17-2.15,5.06-.53.28-.58-.05-.42-2.92.15-2.64.08-3.21-.34-3.07-.33.11-.63,1.07-.81,2.63-.15,1.35-.57,3.12-.93,3.94-.36.82-.62,1.62-.58,1.78.04.17-.11.64-.32,1.04-.81,1.49-1.13.72-1.03-2.38.14-4.03-.52-4.44-1.06-.67-.44,3-1.16,5.55-1.8,6.35-.44.55-3.69,2.78-3.69,2.54,0-.15.22-.67,1.69-4.03.66-1.53.81-3.35.26-3.35-.2,0-.63.95-.98,2.12-.34,1.16-1.03,3.04-1.54,4.16-.5,1.12-.74,2.04-.54,2.05.72,0-.22,1.08-1.94,2.23-1.57,1.05-1.72,1.09-1.83.42-.06-.39.16-1.15.5-1.66.68-1.03,1.8-4.82,1.51-5.11-.29-.3-.74.42-1.26,2.04-.63,1.93-2.58,5.7-3.76,7.26-.78,1.03-3.13,2.76-3.74,2.76-.18,0,1.18-1.95,3.28-4.69,1.08-1.41,1.46-2.5.85-2.49-.16,0-1.22,1.38-2.37,3.07-1.14,1.69-2.52,3.34-3.04,3.67-1.37.85-1.36.83-.79,1.18.39.24.21.48-.71.95-1.59.82-1.81.54-.82-1.06,1.05-1.69,1.03-2.16-.03-.82-.72.92-.86.96-1.06.39-.19-.54-.47-.35-1.54,1.06-1.32,1.74-2.26,2.24-2.25,1.18,0-.79-1.04-.72-1.29.09-.25.78-3.46,2.96-4.86,3.3-.52.13-1.13.62-1.34,1.08-.68,1.47-12.76,5.4-14.07,4.58-1.11-.69-11.95,2.09-14.67,3.76-2.04,1.26-5.1,4.09-5.11,4.73,0,.73-.67,1.33-1.71,1.52-.6.11-.74.38-.65,1.34.09.89-.08,1.33-.66,1.69-.53.33-.79.88-.79,1.67,0,.81-.28,1.37-.86,1.77-.76.51-.8.66-.35,1.42.44.74.41.97-.25,1.86-.53.7-.65,1.2-.42,1.63.51.91-.26,2.56-1.17,2.55-.89,0-1.05,1.05-.21,1.38.9.35.66,1.62-.38,2.09-1.15.53-1.2.91-.16,1.47.55.3.73.67.58,1.21-.22.84.67,2.94,1.26,2.95.2,0,.26.51.13,1.13-.25,1.24.13,1.43,1.46.72.72-.38.76-.34.53.58-.32,1.27.62,1.72,1.67.79.59-.53,1.02-.6,2.16-.35,1.67.37,6.28.37,10.37,0,3.53-.33,4.3.28,1.17.93-1.19.24-2.94.61-3.87.79-.94.19-2.86.45-4.26.57-1.75.15-2.56.38-2.56.71,0,.28.24.59.55.71.3.12.59.84.65,1.65.13,1.62.5,1.71,3.72.89,2.04-.52,5.6-.16,6.5.65.8.72,1.2,3.09.86,5.08-.26,1.5-.31,1.55-1.46,1.32-.67-.13-2.19.02-3.39.34-2.37.61-5.3.69-6.5.18-.42-.17-1.76-.22-3-.11l-2.23.2.26-1c.21-.81.12-1.01-.42-1.01-.38,0-.99.35-1.35.78-1.16,1.35-1.94.79-2.18-1.56-.3-2.86-.79-3.64-2.49-3.96-2.34-.45-2.86-.88-2.66-2.21.1-.65-.06-2.1-.36-3.23-.29-1.13-.44-2.14-.33-2.25.11-.11-.05-.69-.36-1.29-.5-.96-.5-1.22.03-2.21.66-1.28.75-2.29.2-2.29-.21,0-.38.17-.38.38,0,.71-.77.38-1.1-.48-.18-.47-.67-1.16-1.08-1.53-.63-.57-.7-.91-.43-2.08.46-1.95.43-2.48-.18-3.32-.5-.69-.56-.7-1.26-.08-.4.36-.93.66-1.16.66-.78,0-.04-1.07,1.73-2.51ZM188.89,185.94l.75-.32c.42-.18,1.02-.33,1.33-.34.51-.02.5.03,0,.35-.31.2-.91.36-1.33.35l-.75-.03ZM191.55,183.73c.13-.2.61-.38,1.06-.37.68,0,.73.08.26.37-.75.48-1.63.48-1.33,0Z"/>
      <path class="cls-1" d="M93.54,176.57c1.06-.51,1.71-1.14,1.97-1.87.5-1.41-.32-1.54-1.36-.22-.39.49-2.16,1.93-3.94,3.19-3.65,2.6-4.7,3.61-4.35,4.2.4.65.64.51,3.43-2.08,1.46-1.35,3.37-2.81,4.25-3.22Z"/>
      <path class="cls-1" d="M65.3,206.19c1.21-.03,1.37.08,1.37.87,0,1.46,1.35,1.18,2.12-.44.36-.74,1.05-1.61,1.53-1.93.49-.31,1.4-1.4,2.02-2.41,1.34-2.15,2.46-2.81,5.42-3.13,1.2-.13,3.16-.69,4.36-1.24,1.2-.55,3.12-1.3,4.27-1.67,1.15-.37,1.96-.67,1.8-.69-.15-.01-.02-.32.31-.68.33-.36.92-1.09,1.31-1.6.61-.81.82-.88,1.47-.49,1.05.65,1.65-.18,1.5-2.03-.08-1.02-.31-1.48-.78-1.57-.52-.1-.66.14-.66,1.19,0,1.29-.48,1.77-1.77,1.76-.36,0-.52-.29-.44-.81.06-.45-.1-.89-.35-.98-.41-.14-.65.26-1.44,2.5-.16.43-.29.43-.79.01-.51-.43-.68-.39-1.13.22-.29.39-.53.88-.53,1.07,0,.19-.27.12-.61-.16-.53-.45-.73-.37-1.48.57-.62.77-1.06,1.01-1.55.82-.47-.18-.88-.02-1.29.53-.42.55-1.24.88-2.67,1.08-2.86.39-6.42,2.36-6.43,3.56,0,.71-1.87,2.81-2.68,3.02-.59.15-.87,0-1-.5-.27-1.05-1.27-1.3-1.51-.39-.23.84-.87.98-1.53.32-.59-.6-1.61-.13-1.62.75,0,1.36,1.29,2.49,2.78,2.45Z"/>
      <path class="cls-1" d="M56,229.53c.21,0,.38-.25.38-.57,0-.32.15-.57.33-.57.41,0,2.87-5.27,2.59-5.55-.57-.58-1.36.45-2.46,3.18-.66,1.65-1.21,3.12-1.21,3.25,0,.14.17.25.38.25Z"/>
      <path class="cls-1" d="M61.47,220.46c.79,0,1.3-.79,1.73-2.73.22-.96,1.01-3.14,1.77-4.84,1.26-2.84,1.46-4.16.64-4.16-1.06,0-4.65,8.1-4.65,10.52,0,.77.18,1.21.51,1.21Z"/>
      <path class="cls-1" d="M217.13,177.96c0-.74-.61-1.36-1.36-1.36-.85,0-1.22.7-.66,1.26.27.27,2.02.36,2.02.1Z"/>
      <path class="cls-1" d="M216.69,175c-.07-.55-.42-.9-.97-.98-.94-.14-1.15.61-.4,1.37.76.76,1.5.55,1.37-.39Z"/>
      <path class="cls-1" d="M285.17,104.85c.43,0,.68-.17.55-.38-.13-.21-.48-.38-.78-.38-.3,0-.54.16-.54.37,0,.21.35.38.78.38Z"/>
      <path class="cls-1" d="M261.95,147.57c-.15,0-.55.58-.88,1.28-.48.99-.57,1.95-.41,4.17.11,1.58.37,2.89.58,2.89.22,0,.3-.88.19-2.18-.14-1.65-.01-2.52.53-3.57.65-1.28.65-2.57,0-2.58Z"/>
      <path class="cls-1" d="M272.19,142.3c-1.75,0-3,.77-2.24,1.4.28.23.93.5,1.45.6,1.56.29,1.68.28,2.42-.29,1.04-.79.17-1.7-1.63-1.71Z"/>
      <path class="cls-1" d="M266.68,150.24c-.83,0-1.06.6-.42,1.14.81.68.71,1.06-.62,2.17-1.15.96-1.18,1.07-1,3.39.1,1.31.4,2.65.66,2.97.79.95,1.15.06.78-1.92-.37-2.03-.15-2.75,1.33-4.34.81-.87.83-1.03.36-2.17-.29-.68-.77-1.24-1.09-1.24Z"/>
      <path class="cls-1" d="M270.08,140.37c0-.29-.3-.59-.66-.66-.65-.13-.92.67-.4,1.2.39.4,1.07.06,1.07-.54Z"/>
      <path class="cls-1" d="M266.21,144.84c.77.85,1.39,1.1,1.41.57.02-.5-2.44-5.02-2.74-5.03-.43,0-.34,1.84.13,2.77.23.46.77,1.22,1.2,1.69Z"/>
      <path class="cls-1" d="M265.12,87.83c0,.56,1.21.16,1.65-.54.22-.36.28-.76.14-.91-.3-.3-1.79.91-1.79,1.45Z"/>
      <path class="cls-1" d="M271.66,149.96c-.62.2-1.76,2.51-1.79,3.62-.03,1.2.52.76,1.46-1.18.91-1.85,1.01-2.66.33-2.44Z"/>
      <path class="cls-1" d="M274.2,141.01c.39,1.02,1.31.55,2.29-1.2,1.21-2.16.94-2.76-.65-1.44-1.47,1.22-1.91,1.92-1.64,2.63Z"/>
      <path class="cls-1" d="M226.3,123.51c.65-.69.91-1.81,1.42-6.09.34-2.89.86-5.61,1.15-6.06.29-.45,1.01-2.26,1.6-4.01.74-2.2,1.47-3.58,2.32-4.43,1.39-1.38,1.5-1.64.68-1.64-.3,0-.84.47-1.19,1.04-.35.57-1.1,1.72-1.65,2.55-.56.83-1.32,2.28-1.69,3.22-.37.93-1.08,2.41-1.59,3.28-.66,1.12-.93,2.15-.94,3.59-.02,3.03-.7,7.09-1.34,8-.32.44-.57.94-.57,1.1,0,.59,1.02.27,1.81-.55Z"/>
      <path class="cls-1" d="M263.42,85.69c.88.66,1.28.06.55-.83-.34-.41-.58-.46-.89-.15-.3.3-.21.57.34.97Z"/>
      <path class="cls-1" d="M251.79,242.99c.21,0,.38-.17.38-.37,0-.21-.17-.38-.38-.38-.2,0-.38.17-.38.38,0,.2.17.38.38.38Z"/>
      <path class="cls-1" d="M249.03,75.41c.5.12,1.3.64,1.77,1.14,1.17,1.25,1.8,1.16,2.44-.34,1.06-2.51-1.11-6.16-4.28-7.23-1.94-.65-2.63-.48-3.12.79-.52,1.36-.47,1.48.97,2.34,1.05.62,1.32,1.02,1.32,1.93,0,.89.2,1.19.91,1.37Z"/>
      <path class="cls-1" d="M269.96,87.4c-.67.02-2.29,2.15-2,2.62.41.67.93.42,1.71-.85.88-1.43.94-1.8.29-1.77Z"/>
      <path class="cls-1" d="M244.76,216.21c.79.32,1.8.28,1.8-.08,0-.6-1.03-1.2-1.66-.96-.73.28-.8.77-.14,1.04Z"/>
      <path class="cls-1" d="M217.14,180.79c.72.46,1.5.47,1.5,0,0-.55-.73-.87-1.43-.6-.55.21-.55.29-.08.59Z"/>
      <path class="cls-1" d="M237.52,203.25c-.03,3.19.06,6.31.19,6.94.14.63.23,2.03.21,3.13-.02,1.1.12,1.99.32,1.99.61,0,.87-1.86.62-4.54-.2-2.21-.13-2.69.53-3.52.85-1.07.96-1.66.36-1.86-.26-.09-.2-.54.19-1.26.74-1.42.76-2.07.03-2.07-.31,0-.57-.16-.57-.33,0-.18.25-.55.57-.81.88-.73.68-1.45-.46-1.58l-1.03-.12,1.03-1.02c1.27-1.25,1.31-1.81.15-1.82-.73,0-.89-.2-.89-1.15,0-1.25-.59-2.11-1.18-1.75-.6.37-.94,2.89-.47,3.46.28.34.41,2.53.37,6.32Z"/>
      <path class="cls-1" d="M237.11,81.78c-.54-.17-1.11.08-1.92.82-1.82,1.68-2.25,2.81-2.26,6,0,2.53.07,2.87.65,2.76.87-.16,1.61-1.7,1.63-3.36,0-.94.42-1.93,1.34-3.21,1.53-2.14,1.63-2.66.57-3.01Z"/>
      <path class="cls-1" d="M281.74,88.29c-.85.22-.92-.45-.14-1.47.31-.4.57-1.22.57-1.8.02-1.58-1.05-1.18-2.15.8-.87,1.55-.92,3.1-.09,3.11.57,0,.4.72-.46,1.87-.45.6-.69,1.27-.55,1.5.46.75,1.14.42,2.59-1.26,1.49-1.74,1.61-3.09.24-2.74Z"/>
      <path class="cls-1" d="M284.93,74.61c-.55-.08-.83.08-.83.47,0,.39.34.6.98.6,1.18,0,1.06-.89-.15-1.07Z"/>
      <path class="cls-1" d="M272.44,87.45c-.63.12-1.4,2.06-1.04,2.64.37.6.93.32,1.3-.65.55-1.44.46-2.12-.27-1.99Z"/>
      <path class="cls-1" d="M286.83,86.29c.11.41.03.85-.16.97-.22.13-.19.43.08.76.32.38.32.54.02.54-.46,0-.59,1.22-.17,1.65.14.14.43.09.64-.13.22-.21.72-.38,1.11-.38.54,0,.65-.17.45-.66-.15-.36-.35-1.46-.46-2.44-.11-1.04-.41-1.86-.72-1.99-.64-.25-1.05.63-.78,1.68Z"/>
      <path class="cls-1" d="M283.9,79.5c0-.74-1.1-1.34-1.9-1.04-.64.24-.64.29.02,1.02.75.83,1.87.84,1.87.02Z"/>
      <path class="cls-1" d="M265.42,78.02c.77.66,2.11,1.92,2.99,2.79,1.02,1.03,2.02,1.66,2.85,1.78,3.97.62,4.02.61,5.48-.54,1.6-1.27,2.21-1.25,2.28.08.03.5.07,1.12.09,1.39.02.26.29.47.6.47.31,0,.57-.21.57-.47,0-.27.26-.96.57-1.55.71-1.35.38-2.9-.6-2.9-.39,0-.71-.26-.71-.58,0-.31.25-.57.57-.57.73,0,.72-.5-.05-2-.78-1.54-3.79-5.28-4.61-5.75-.34-.19-.8-.6-1.03-.91-.28-.38-.74-.48-1.42-.31-1.35.33-1.27.92.23,1.55,1.32.56,2.8,1.97,2.45,2.33-.12.12-.87-.12-1.67-.52-2.06-1.04-4.91-1.75-5.7-1.45-.62.24-.6.32.22.99.48.4,1.12.73,1.42.73.29,0,.52.13.52.29,0,.16-.95.31-2.1.34-2.1.06-3.21.55-3.21,1.45,0,.63,1.7,1.05,3.08.75,1.05-.22,1.08-.19,1.08,1.29,0,.84-.15,1.61-.34,1.73-.18.11-1.1-.48-2.04-1.31-1.1-.96-1.93-1.43-2.31-1.28-.93.35-.74.85.8,2.17ZM276.73,76.45c.32.63.53,1.33.46,1.56-.17.5-2.56-2.34-2.56-3.03,0-.83,1.43.17,2.1,1.47ZM273.73,78.42c1.29-.66,1.35-.64,1.2.35-.14.96-1.06,1.28-1.73.61-.35-.35-.23-.57.53-.96ZM271.73,75.39c.3-.3,1.39.15,1.39.58,0,.63-1.16.81-1.39.21-.12-.31-.12-.68,0-.8Z"/>
      <path class="cls-1" d="M283.92,72.98c.97.61,1.21.63,1.7.17.31-.3.91-.78,1.33-1.08.71-.52.72-.57.09-.95-.36-.22-.66-.8-.66-1.28,0-.91-.8-1.33-2.55-1.35-.6,0-.85.21-.85.76,0,.56.32.83,1.22,1.01l1.22.25-1.31.44c-1.62.54-1.67,1.11-.18,2.03Z"/>
      <path class="cls-1" d="M244.58,140.65c-.82-.7-1.12-4.45-.39-4.9.77-.47.07-2.84-.99-3.32-.52-.24-.94-.75-.93-1.15,0-.79-.87-1.71-1.26-1.32-.61.6-.15,1.75,1.25,3.11l1.51,1.47-.56,1.84c-.89,2.9-.77,4.18.45,4.85,1.7.93,2.27.57.92-.59Z"/>
      <path class="cls-1" d="M136.83,233.95c.88-.32,1.41-1.52.68-1.52-.49,0-1.98,1.15-1.98,1.53,0,.45.1.45,1.3,0Z"/>
      <path class="cls-1" d="M138.02,236.82c.33-.12.73-.23.91-.23.37,0,.89-1.9.6-2.19-.31-.31-2.11,1.48-2.11,2.11,0,.34.23.46.6.31Z"/>
      <path class="cls-1" d="M249.78,140.1c-.22-.27-.44-1.18-.48-2.02-.09-1.87-.69-2.62-1.53-1.92-.63.52-.8,1.53-.25,1.53.18,0,.55.52.8,1.16.39.93.38,1.35,0,2.18-1.27,2.67-1.2,4.16.27,5.84,1.01,1.16,1.2.33.29-1.28l-.88-1.56,1.1-1.72c.81-1.28.99-1.85.69-2.21Z"/>
      <path class="cls-1" d="M130.88,221.36c.18-.09,1.19-.53,2.23-.99,3.46-1.53,3.57-1.62,1.71-1.38-1.86.23-3.83,1.2-4.1,2.02-.09.28-.03.44.16.36Z"/>
      <path class="cls-1" d="M255.76,119.17c-.13-.41.03-1.25.36-1.87.73-1.39.73-1.55.07-1.55-.58,0-1.44,2.8-1.13,3.64.31.82.96.62.7-.21Z"/>
      <path class="cls-1" d="M238.08,119.7c-1.03-.73-1.23-.55-1.78,1.67-.45,1.82-.29,3.11.55,4.34.73,1.08.62,1.64-.47,2.58-1.33,1.14-1.63,3.47-.76,5.85.36.99.93,2.01,1.24,2.27.94.76.99.25.13-1.41-1.15-2.22-1.04-4.07.36-5.96,1.13-1.54,1.14-1.57.59-3.2-.64-1.86-.42-4.43.44-5.11.46-.37.41-.53-.31-1.04Z"/>
      <path class="cls-1" d="M282.21,201.96c0,.36.46.24,2.17-.58.91-.44,1.57-.88,1.48-.98-.21-.22-3.65,1.25-3.65,1.55Z"/>
      <path class="cls-1" d="M258.54,133.37c0-.21-.34-.82-.74-1.33-.41-.52-.74-1.32-.75-1.77,0-.46-.27-1.1-.6-1.43-.66-.66-2.05-.81-2.05-.22,0,.21.25.38.54.38.8,0,1.11.71.58,1.34-.37.44-.23.75.72,1.65.65.61,1.17,1.33,1.17,1.6,0,.27.46.97,1.02,1.56.55.58,1.24,1.06,1.51,1.06.71,0,.62-.27-.45-1.44-.52-.56-.95-1.19-.95-1.4Z"/>
      <path class="cls-1" d="M255.13,147.42c.79-.55.89-1.77.17-2.01-.58-.19-2.09,2.24-2.09,3.36,0,.64.41,1.34,1.18,1.98,1.4,1.18,1.95.97.77-.29-1.03-1.11-1.04-2.33-.02-3.04Z"/>
      <path class="cls-1" d="M251.38,130.35c-.2-1.5-.89-2.21-1.25-1.29-.34.89.3,3.88,1.01,4.72.38.45.92.73,1.21.62.67-.25.65-.51-.13-1.63-.36-.51-.74-1.6-.84-2.43Z"/>
      <path class="cls-1" d="M257.82,125.24c0-.45-.74-.93-1.01-.66-.11.11-.09.38.05.6.31.5.96.53.96.05Z"/>
      <path class="cls-1" d="M125.92,210.43c-.54,0-1.69,1.41-1.68,2.07,0,.22.86,1.37,1.91,2.57,2.03,2.31,2.79,2.66,3.18,1.45.3-.94-.31-2.11-1.51-2.9-.55-.36-1.02-1.13-1.16-1.9-.13-.71-.46-1.29-.74-1.29Z"/>
      <path class="cls-1" d="M292.73,203.05c2.31,1.51,3.1,1.75,3.1.92,0-1.45-4.44-4.66-5.3-3.81-.66.65-.09,1.39,2.19,2.89Z"/>
    </g>
    <path class="cls-3" d="M287.01,111.85c-.24.08-.54,1.1-.66,2.27-.25,2.31-.63,2.75-2.41,2.76-.69,0-1.46.3-1.84.72-.75.8,0,.95-9.45-1.86-6.2-1.85-6.5-2.07-4.92-3.64.93-.94.87-1.01-1.11-1.26-2.13-.27-2.82-.7-3.07-1.91-.27-1.32-1.32-2.66-1.59-2.03-.5,1.2-1.53-.38-2.33-3.57-.23-.91-.67-2.5-.98-3.54-.56-1.83-.55-1.93.22-3.02.44-.62,1.1-1.34,1.46-1.59.36-.26.74-.82.85-1.25.19-.73.02-.81-2.14-1.04-2.1-.23-2.4-.36-2.89-1.31-1.02-1.98-2.73-2.09-2.74-.18,0,1.42-.6,1.86-2.53,1.86-1.29,0-2.03.2-2.49.67-.63.64-.61.7.55,1.68,1.46,1.24,1.65,1.06-4.32,4.14-2.52,1.3-4.92,2.55-5.32,2.77-.4.22-2.14,1.05-3.85,1.84-1.71.79-4.4,2.05-5.98,2.8-3.68,1.74-5.59,2.41-6.9,2.41-1.09,0-1.19-.14-2.47-3.39-.45-1.13-1.13-1.34-1.17-.36-.01.35-.38,1.38-.83,2.29-.78,1.59-.87,1.65-2.45,1.65-2.24,0-2.4.9-.39,2.23,1.69,1.11,1.86,1.94.93,4.57-.72,2.05-.24,2.64,1.25,1.54.58-.43,1.14-.7,1.24-.6.1.1-.2,1.94-.67,4.11-2.17,9.91-2.39,10.34-3.47,6.65-.8-2.8-1.49-2.62-2.12.57-.28,1.41-.59,2.65-.69,2.75-.09.1-1.52.27-3.17.37l-3,.18-.11,1.15c-.09.89.05,1.19.64,1.34,1.03.27.97,1.06-.07.84-.45-.1-1.9-.27-3.2-.39-3.98-.37-13.91-1.62-17.41-2.2-1.81-.31-5.28-.72-7.7-.93-7.68-.66-22.51-2.75-23-3.24-.15-.15.38-1.17,1.19-2.25,1.69-2.27,1.9-3.14.64-2.69-.45.17-1.95.3-3.33.3-2.78,0-3.54-.53-3.54-2.4,0-.54-.35-1.43-.79-1.98l-.78-1-.89.96c-.49.53-.98,1.57-1.1,2.32-.38,2.49-.58,2.65-3.42,2.65-1.4,0-2.55.15-2.55.33,0,.88.57,1.59,1.81,2.22,2.16,1.1,2.45,1.66,1.4,2.65-.82.77-4.68,3.72-9.05,6.89-2.23,1.62-20.3,15.15-23.48,17.59-1.31,1-3.87,2.89-5.68,4.19-1.81,1.31-3.74,2.71-4.27,3.13-1.48,1.15-2.06.96-2.54-.8-1.06-3.9-1.94-4.73-2.37-2.2-.62,3.6-.84,4.03-2.17,4.28-.7.13-2.1.13-3.11,0-1.8-.24-1.84-.22-1.84.69,0,.66.54,1.39,1.89,2.56l1.89,1.63-1.03,3.24c-.71,2.24-.9,3.29-.61,3.38.23.08.42.38.42.66,0,.98.92.5,2.88-1.5,1.92-1.96,1.97-1.99,2.98-1.47,1.28.66,2.87,2.52,3.17,3.7.23.94,1.05,1.21,1.32.43.09-.25,0-1.82-.21-3.49-.25-2.01-.26-3.16-.01-3.39.52-.52,9.55-1.84,25.43-3.71,8.23-.97,10.48-1.06,10.34-.39-.05.26-.14,1.59-.2,2.94-.08,1.94-.33,2.88-1.22,4.47-.62,1.11-2.24,4.16-3.6,6.78-1.37,2.62-2.95,5.52-3.53,6.44-.58.92-1.24,2.19-1.46,2.84-.45,1.31-1.07,1.55-1.07.43,0-1.01-1.27-.95-1.99.08-.32.45-.57,1.34-.57,1.99,0,1.47-.44,1.75-2.8,1.78-2.11.02-3.08.58-2.8,1.62.13.48.69.78,1.88,1.01,1.92.35,1.89.25,1.39,4.44-.27,2.28-.26,2.31.51,1.9.43-.23,1.12-.76,1.54-1.18l.75-.76.84,1.8c.69,1.47,2.74,6.82,6.25,16.27.79,2.11.67,2.58-.55,2.33-.87-.17-1.18-.04-1.68.73-.76,1.16-.52,1.58,1.34,2.32l1.46.58-.26,2.7h0c-.31,3.29.14,3.51,2.42,1.16l1.49-1.54.92,1.17c1,1.28,2.3,1.57,2.37.53.02-.35.01-1.5-.04-2.56-.07-1.69.05-2.04.98-2.93.58-.56,1.37-1.19,1.75-1.41,1.25-.7.27-1.26-2.18-1.26h-2.33l-.58-2.02c-.69-2.36-1.41-2.6-2.19-.73-.5,1.21-1.31,1.75-1.31.89,0-.22-.5-1.58-1.12-3.02-1.06-2.48-1.32-3.12-2.15-5.1-1.06-2.54-3.71-11.01-3.5-11.21.13-.13.89.46,1.69,1.31.8.86,1.59,1.56,1.76,1.56s.23-1.45.13-3.23c-.18-3.16-.17-3.24.76-3.85.53-.34,1.14-.97,1.37-1.4.53-.99-.04-1.4-1.94-1.41-.76,0-1.38-.09-1.38-.21,0-.56,4.16-9.05,7.53-15.37,1.18-2.22,2.86-5.39,3.74-7.05l1.59-3.03.99.51c.54.28,1.35.94,1.81,1.47.45.52.99.95,1.19.95.48,0,.47-.96-.02-1.88-.22-.41-.32-.95-.21-1.22.22-.58.91-.45,12.7,2.52,10.87,2.74,10.21,2.56,15.03,4.03,2.32.7,5.29,1.53,6.6,1.84,2.44.58,5.67,1.47,9.9,2.73,1.31.39,3.95,1.15,5.86,1.68,4.01,1.11,7.97,2.26,10.08,2.94.8.26,2.7.82,4.21,1.25,1.52.43,5.14,1.54,8.07,2.46,2.92.92,5.52,1.74,5.77,1.81.69.22.55.7-.51,1.77-.81.81-.89,1.05-.49,1.53.26.31.7.48.98.37.58-.22,4.5,1.66,5.2,2.49.54.64.72,6.2.25,7.51-.27.76-.21.85.56.73.57-.08,1.15-.63,1.68-1.59.45-.81,1.28-2.02,1.84-2.69l1.02-1.22,3.33,2.05c4.68,2.88,5.33,2.75,3.64-.7-1.56-3.16-1.22-3.6,2.01-2.59,2.4.75,16.59,5.98,23.46,8.65,1.51.59,4.6,1.66,6.89,2.39,4.02,1.29,9.4,3.56,9.73,4.11.38.62-.59,4.78-1.46,6.26-.51.88-.85,1.67-.75,1.77.27.28,3.19-2.63,3.2-3.2.02-.79,1.4-2.27,1.93-2.06.26.1,1.01,1.19,1.67,2.42.83,1.56,1.41,2.24,1.9,2.24.85,0,.86-.04.16-1.71-.3-.72-.55-2.11-.55-3.09,0-1.71.06-1.8,1.62-2.72,1.86-1.09,2.39-1.63,2.59-2.69.15-.8-.09-.9-3.6-1.38-1.57-.22-1.84-.38-2.29-1.47-.28-.67-.51-1.56-.51-1.97,0-1.39-.97-.75-1.97,1.28l-.99,2.02-2.46-.24-2.46-.24.7.79c.92,1.03.36,1-2.46-.1-3.01-1.18-9.75-3.73-12.71-4.82-1.31-.48-4.86-1.77-7.88-2.87-8.7-3.16-11.16-4.08-14.4-5.38l-3.04-1.22,2.43-2.45c1.34-1.34,2.27-2.54,2.09-2.65-.19-.12-1.88-.05-3.77.14-1.9.19-3.57.21-3.75.04-.17-.17-.14-1.85.08-3.76.22-1.9.56-5.1.76-7.11.2-2.02.53-4.79.72-6.15.2-1.36.36-3.04.36-3.73,0-1.57.45-1.86,1.83-1.17.61.31,1.19.4,1.3.22.11-.18-.07-1.43-.41-2.77l-.62-2.45,1.55-1.38,1.55-1.39-1.23-.2c-.68-.11-1.72-.25-2.33-.3-.87-.08-1.12-.29-1.2-1.02-.29-2.71-.49-3.3-1.16-3.3-.71,0-1.12.68-1.12,1.86,0,.39-.1.7-.23.7-.79,0-16.47-15.22-17-16.5-.66-1.59-.19-2.76,1.64-4.11.9-.66,1.63-1.4,1.64-1.64.03-.77-1.21-1.15-3.07-.94l-1.79.2.28-1.24c.16-.69.41-1.91.56-2.72.57-3.07,2.26-9.87,2.61-10.51.44-.82.67-.83,1.74-.08,1.13.79,1.44.36.68-.93-.35-.58-.63-1.29-.63-1.57,0-.68,4.43-5.05,5.12-5.05.31,0,11.12-5.28,18.6-9.09,2.05-1.05,3.93-1.9,4.16-1.9.3,0,.35.59.17,2.02-.21,1.72-.15,2.05.38,2.26.63.24,1.02-.11,2.67-2.36.68-.94.72-.95,1.66-.33,1.31.86,2.82,4.03,4.84,10.16.14.44-.33.67-2.13,1.06-1.27.27-2.11.57-1.86.66.26.09.46.47.46.84s.57,1.13,1.28,1.71c1.22,1,1.26,1.1.92,2.5-.6,2.49-.49,3.04.51,2.85.49-.09,1.34-.64,1.9-1.23.56-.59,1.21-1.07,1.43-1.07s.81.66,1.31,1.46c.88,1.41,1.82,1.94,1.82,1.01,0-.25-.28-1.24-.62-2.19-.34-.95-.51-1.85-.36-1.99.23-.24,5.67.88,8.49,1.75.6.18,2.83.84,4.95,1.47,2.12.62,4.38,1.28,5.03,1.47,1.54.45,1.65.69,1.64,3.47-.01,1.3.14,2.35.32,2.35.4,0,1.43-.99,2.26-2.18.78-1.1,2.14-.8,3.61.81,1.61,1.76,2.05.91.87-1.67l-.95-2.07.7-1.56c.39-.86,1.15-1.97,1.68-2.46,1.44-1.33,1.25-1.86-.69-1.86-1.06,0-1.65-.16-1.65-.45,0-.61,3.69-9.18,5.74-13.35,1.63-3.32,3.42-5.63,4.37-5.63.27,0,1.04.58,1.73,1.28,1.55,1.59,1.87,1.62,1.56.1-.84-4.08-.56-5.2,1.63-6.32,1.61-.83,1.34-1.28-.75-1.28-1.68,0-1.87-.09-2.19-1.01-1.15-3.3-2.55-3.89-3-1.28-.37,2.18-.49,2.29-2.51,2.29-1.4,0-1.88.15-2.17.7-.31.58-.16.89.9,1.83,1.81,1.59,1.73,3.01-.4,7.31-.93,1.86-1.82,3.83-1.99,4.38-.49,1.58-3.13,7.46-4.03,8.99l-.82,1.39-.9-1.32c-.49-.73-1.09-1.26-1.33-1.18ZM133.12,225.69c.47-1.24,1.92-3.97,2.11-3.97.58,0,1.89,1.25,1.73,1.65-.1.27,0,.84.22,1.25.52.97-.04.99-.9.03-1.04-1.15-1.95-.95-2.09.45-.07.79-.33,1.23-.76,1.31-.53.1-.58-.02-.32-.73ZM132.23,222.09c.32,0,.57.16.57.36s-.16.37-.35.37-.45-.17-.57-.37c-.13-.2.03-.36.35-.36ZM127.38,194.67c-.24.24-.44.74-.44,1.1,0,.54-.31.66-1.59.66s-1.67-.15-2.08-.91c-.27-.51-.42-.97-.34-1.03.55-.42,2.93-.86,3.11-.58.11.18.55.33.99.33.61,0,.69.1.35.44ZM285.13,207.27c.52-.7.54-.69,1.31.13.6.63,1.04.79,1.84.63,1.34-.27,1.37.39.04.92-.55.22-1.46.64-2.02.93-.97.51-1.01.49-1.01-.33,0-.48-.15-1.02-.34-1.21-.22-.21-.14-.62.18-1.06ZM237.09,157.43l.44-1.06.58,1.17c.32.64.49,1.41.38,1.7-.29.74-1.47.66-1.67-.11-.1-.35.03-1.11.27-1.7ZM145.13,126.42c.98,0,1.6-.69,1.62-1.81.01-1.13.89-2.39,1.43-2.05.22.14.39.77.41,1.41,0,.64.25,1.49.54,1.87.44.58.68.64,1.37.3.87-.43,3.57-.8,3.57-.49,0,.09-.42.62-.93,1.16-.79.82-.94,1.32-.95,3.22-.01,2.09-.06,2.23-.7,1.88-.38-.21-.87-.7-1.09-1.1-.58-1.1-1.52-.88-3.2.74-.84.8-1.71,1.47-1.93,1.47-.44,0-.19-2.08.45-3.77.33-.88.27-1.16-.45-1.93-.81-.85-.81-.9-.13-.9ZM100.62,166.42c-1.27,1.23-1.82,2.02-1.61,2.29.18.23.43.95.55,1.61.27,1.41-.36,1.61-1.4.46-.88-.97-1.05-.94-3.01.55-2.84,2.17-3.36,1.64-1.59-1.57.94-1.72,1.13-3.01.43-3.01-.55,0-2.3-1.83-2.08-2.18.3-.49,2.76-.51,2.76-.02,0,.2.24.37.54.37.64,0,1.3-1.11,1.3-2.21,0-1.35.88-.58,1.61,1.41.73,2.02,1.13,2.34,1.44,1.16.15-.58.49-.73,1.6-.73h1.41s-1.93,1.88-1.93,1.88ZM142.88,162.48c-.33.51-.49,1.12-.35,1.35.19.3-.07.35-.94.15-1-.22-1.32-.12-1.9.6l-.7.86.22-.99c.17-.81.01-1.15-.87-1.8-1.22-.9-1.15-1.42.18-1.42.49,0,.9-.17.9-.37s.18-.36.42-.36.64-.29.91-.64c.46-.61.48-.61.49.01,0,.36.47.84,1.02,1.08.55.24,1.06.46,1.13.51.07.04-.15.49-.49,1.01ZM237.85,188.19c1.07-.34,2.13-.51,2.34-.38.54.33-.36,1.52-1.96,2.61-1.47,1-1.49.76.47,4.97.63,1.34,1.13,2.54,1.13,2.65,0,.62-1.13,0-2.93-1.62-1.11-1-2.27-1.81-2.58-1.82-.31,0-1.17.64-1.91,1.46-.75.8-1.5,1.46-1.69,1.46s-.26-.91-.15-2.12l.19-2.13-2.06-1.25c-1.13-.69-2.06-1.44-2.06-1.68s1.32-.9,2.93-1.47c2.9-1.03,2.93-1.06,2.8-2.21-.2-1.79.27-2.2,1.15-.98.4.58.8,1.46.87,1.96.17,1.18,1.03,1.32,3.46.55ZM220.35,142.95c.55-.3,1.77.76,7.59,6.59,5.98,5.99,6.8,6.94,5.97,6.94-.87,0-1.41.57-1.41,1.49,0,.18.57.57,1.28.86,1.47.62,1.7,1.77.67,3.5-.79,1.35-.42,2.34.79,2.12.88-.17.91-.11.91,1.88,0,1.13-.16,2.72-.34,3.53-.18.8-.52,3.36-.74,5.68-.73,7.46-.98,8.24-1.8,5.5-.59-1.97-1.43-1.94-2.71.08-.4.63-.63,1.73-.63,3,0,1.1-.1,2.26-.23,2.58-.25.63-.76.72-1.61.26-.3-.16-2.11-.73-4.03-1.26-1.92-.53-5.79-1.65-8.61-2.48-7.86-2.31-11.07-3.23-14.67-4.21-5.35-1.46-6.83-1.88-9.35-2.67-1.31-.41-4.38-1.25-6.81-1.87-2.44-.62-5.35-1.45-6.46-1.84-2.01-.7-5.39-1.65-15.86-4.45-3.03-.81-7.73-2.1-10.45-2.88-7.66-2.18-7.99-2.39-5.87-3.6,1.98-1.13,1.26-2.3-1.36-2.21-1.58.06-2.06-.43-2.63-2.62-.36-1.38-.65-1.85-1.15-1.85-.7,0-.87.37-1.25,2.63-.29,1.7-.71,2.03-2.92,2.3-.99.11-1.89.3-1.99.4-.11.1.17.82.61,1.6l.8,1.43-1.19.22c-.66.11-3.75.39-6.87.61-3.13.22-5.93.47-6.23.55-1.19.33-11.04,1.65-14.99,2.01-4.22.39-5.22.27-3.89-.46,1.03-.57,3.11-2.69,3.11-3.17,0-.23-.66-.4-1.5-.4-.9,0-1.44-.16-1.37-.39.16-.46,4.15-3.58,7.99-6.25,3.27-2.26,9.4-6.83,10.44-7.78.41-.37,2.23-1.68,4.04-2.91,3.59-2.43,6.55-4.66,10.81-8.14,3.24-2.64,6.03-4.59,6.58-4.59.21,0,.39.58.39,1.29,0,1.16.09,1.28,1.06,1.28.73,0,1.51-.45,2.57-1.47.83-.8,1.72-1.47,1.97-1.46.25,0,1.19.66,2.08,1.47.91.82,1.99,1.46,2.48,1.46,1,0,1.01-.08.32-2.4-.57-1.88-.29-2.54.9-2.18.75.23,5.99.81,13.41,1.47,6.85.62,10.38,1.01,23.61,2.68,8.7,1.1,16.21,2.15,17.85,2.52.76.17.79.31.58,3.45-.17,2.58-.11,3.26.28,3.26.7,0,2.16-1.47,1.96-1.97-.09-.24.33-.91.93-1.48,1.03-.99,1.16-1.02,2.28-.55.66.27,1.83,1.13,2.59,1.9,1.12,1.12,1.53,1.32,2.05,1.04ZM219.31,133.74c0,.2-.65.77-1.44,1.27-1.62,1.02-2.12,1.64-1.6,1.98.2.13.45.7.55,1.26l.19,1.03-.84-.79c-.75-.7-.92-.73-1.59-.27-.41.29-1.1.97-1.52,1.5-1.15,1.47-1.51,1.23-1.24-.82.2-1.51.11-1.99-.56-2.93-.44-.62-1.01-1.13-1.28-1.13-.49,0-1.52-1.01-1.26-1.26.08-.08.76-.26,1.52-.4,1.13-.21,1.38-.15,1.38.33,0,.33.17.59.37.59.48,0,1.09-1.59,1.09-2.79s.58-.82,1.25.71c.27.64.73,1.47,1.01,1.83.47.61.59.61,1.6.09,1.24-.64,2.37-.75,2.37-.21ZM220.35,113.68c-1.12.95-2.14,1.74-2.27,1.74-.37,0-.25-.49.3-1.23.38-.5.42-.93.16-1.62-.26-.69-.23-1.01.11-1.23.26-.16.47-.67.47-1.13,0-1.31.71-1.19.92.16.15.99.38,1.23,1.26,1.39l1.08.18-2.04,1.74ZM255.96,97.47c0,.2-.32.36-.71.36s-.82.16-.94.36c-.12.2-.56.54-.97.76-.69.37-.73.32-.5-.71.27-1.26-.3-2.62-1.1-2.62-.29,0-.54-.13-.54-.28s1.25-.24,2.77-.18c2.08.08,2.91-.04,3.32-.45.3-.31.82-.56,1.15-.56.39,0,.08.5-.94,1.48-.85.82-1.54,1.64-1.54,1.83ZM260.18,117.26c-.45.37-.55.35-.55-.13,0-.68.6-1.13.89-.66.11.18-.04.54-.34.79ZM261.88,115.33c-1.09.58-1.15.58-1.15-.08,0-.29-.33-.71-.73-.92-1.61-.86-.39-2.17,1.29-1.4.7.32,1.03.32,1.35-.01.48-.48,2.48-.59,2.48-.13,0,.33-1.93,1.84-3.25,2.54ZM299.55,91.75c.57.51.85.56,1.48.22.43-.23,1.11-.31,1.53-.18l.75.24-.74.79c-.41.43-1.25,1.09-1.87,1.45l-1.12.66v-1.1c0-.6-.17-1.2-.36-1.32-.2-.13-.37-.49-.37-.81,0-.52.08-.51.7.05ZM289.78,117.37c1.19-.08,1.27.26.27,1.16-.58.54-.68.94-.49,2.12.22,1.32.17,1.43-.48,1.23-.39-.13-1.03.01-1.43.31-1.07.8-1.26.69-1.26-.74,0-1-.26-1.53-1.1-2.24-1.28-1.07-1.15-1.59.39-1.59.8,0,1.2-.24,1.5-.91.52-1.13.76-1.15,1.23-.09.26.6.64.81,1.37.76Z"/>
  </g>
</svg>