<?xml version="1.0" encoding="UTF-8"?>
<svg id="Layer_1" data-name="Layer 1" xmlns="http://www.w3.org/2000/svg" viewBox="0 0 335 335.84">
  <defs>
    <style>
      .cls-1 {
        fill: #401717;
      }

      .cls-2 {
        fill: #f2e0dc;
      }

      .cls-3 {
        fill: #d97a43;
      }
    </style>
  </defs>
  <rect class="cls-2" width="335" height="335"/>
  <g>
    <g>
      <path class="cls-1" d="M287.64,126.8c-.11.17-.33.32-.5.32-.48,0-.73-.62-.34-.85.45-.28,1.09.12.84.53Z"/>
      <path class="cls-1" d="M210.07,59.84c-2.41-1.85-3.08-2.77-3.08-4.2,0-1.06.89-1.11,1.22-.07.13.42.58,1.08,1,1.47.42.39.82.85.89,1.02.08.18.72.75,1.44,1.29.92.69,1.53.91,2.11.77,1.02-.26,1.37.26.66.97-.89.89-1.78.63-4.23-1.25Z"/>
      <path class="cls-1" d="M195.82,33.45c-1.86.97-2.02,1-2.29.58-.4-.64.23-1.29,1.79-1.84,1.95-.7,2.12-.71,2.12-.08,0,.27-.73.87-1.62,1.34Z"/>
      <path class="cls-1" d="M205.97,53.96c0-.28.23-.51.51-.51.53,0,.68.4.28.79-.39.4-.79.25-.79-.28Z"/>
      <path class="cls-1" d="M188.92,52.27c0-1.41.65-2.99,1.17-2.81.4.14.34,1.19-.19,2.87-.46,1.46-.98,1.42-.98-.07Z"/>
      <path class="cls-1" d="M203.59,38.44c-.11,0-.74-.45-1.39-1.01-.65-.55-1.37-1.01-1.6-1.02-.23,0-.43-.17-.43-.37s-.47-.52-1.04-.72c-.57-.2-.99-.42-.92-.48.24-.24,2.84.69,4.09,1.46,1.59.98,2.18.99,2.69.02.28-.52.46-.62.57-.31.08.25-.28.9-.81,1.45-.53.55-1.05.99-1.16.99Z"/>
      <path class="cls-1" d="M113.76,228.07c-.35,0-.6-.44-.73-1.28-.11-.7-.28-1.78-.37-2.39-.18-1.19.32-1.5.83-.51.17.33.42,1.4.56,2.39.21,1.49.15,1.79-.28,1.79Z"/>
      <path class="cls-1" d="M289.65,243.72c-.12.49-.37,1.1-.56,1.34-.57.72-.99-.07-.74-1.4.27-1.42,2.04-3.98,2.76-3.98.93,0,.84.92-.2,2.03-.57.62-1.14,1.52-1.25,2.02Z"/>
      <path class="cls-1" d="M187.16,82.25c-.67-.22-.89-1.18-.27-1.18.99,0,3.5,1.93,3.19,2.44-.31.49-1.03.33-1.67-.38-.33-.37-.9-.77-1.25-.88Z"/>
      <path class="cls-1" d="M185.86,83.7c-1.02-.69-.53-1.57.55-.98,1.26.68,2.94,2.73,2.73,3.3-.18.46-.4.36-1.33-.6-.61-.63-1.49-1.41-1.95-1.73Z"/>
      <path class="cls-1" d="M183.39,84.21c3.24,2.36,5.53,4.2,5.53,4.43,0,.16-.12.28-.26.28-.51,0-3.58-2.24-5.26-3.84-.82-.78-.84-1.47-.02-.87Z"/>
      <path class="cls-1" d="M197.59,58.81c-.21,1.34,1.17,5.92,2.07,6.86.67.7,1.38.13.74-.58-.62-.69-1.37-5.43-1.06-6.66.43-1.69.77-.89,1.01,2.35.22,2.89.73,4.42,1.11,3.29.16-.48.98-.53,1.26-.07.11.18-.11.94-.49,1.69-.38.75-.93,2.1-1.22,3-.29.9-.6,1.83-.68,2.06-.16.49-.49.53-1.12.13-.29-.19-.45-1.12-.47-2.81-.02-2.14-.2-2.9-1.18-4.97-1.23-2.59-1.35-3.3-.82-4.7.51-1.35,1.07-1.08.84.4Z"/>
      <path class="cls-1" d="M191.29,145.7c.47.15.98-.06,1.63-.67.52-.48,2.05-1.49,3.41-2.24,2.36-1.3,2.49-1.43,2.99-3.14.57-1.97,1.69-4,2.2-4,.18,0,.37-.34.43-.76.11-.74,1.74-1.65,2.18-1.21.12.11-.11.79-.5,1.52-1.18,2.19-2.86,6.35-3.09,7.62-.19,1.09-.31,1.19-1.27,1.11-.8-.06-1.1.08-1.23.59-.19.71-1.14,1.2-3.65,1.88-1.31.36-1.66.64-2.37,1.99-.46.87-1.03,1.65-1.25,1.73-.28.11-.26-.12.07-.75.58-1.12.62-1.77.09-1.77-.66,0-2.61,1.65-2.85,2.41-.28.87-.98.69-1.13-.31-.23-1.56,2.92-4.44,4.36-3.98Z"/>
      <path class="cls-1" d="M106.43,235.92c.34,0,.39,1.83.06,2.16-.33.33-.44.29-1.03-.3-.47-.47-.47-.59.08-1.19.33-.37.73-.67.89-.67Z"/>
      <path class="cls-1" d="M214.02,180.67c.66,0,.92,1.24.51,2.48-.48,1.44-.55,2.62-.23,3.61.22.66.15.78-.34.68-1.01-.19-1.31-1.83-.82-4.43.27-1.43.61-2.34.87-2.34Z"/>
      <path class="cls-1" d="M151.75,135.82c.18.11.3.77.28,1.46-.03.69.06,1.76.2,2.37.19.88.14,1.1-.29,1.1-.53,0-.72-.52-.99-2.73-.16-1.29.29-2.53.8-2.21Z"/>
      <path class="cls-1" d="M125.91,156.49c-.89-.75-2.07-1.53-2.61-1.74-.74-.28-.89-.48-.61-.76.28-.28.72-.16,1.68.48,1.5,1,3.16,2.61,3.16,3.07,0,.17-.73-.3-1.61-1.05Z"/>
      <path class="cls-1" d="M162.51,139.55c-.31.73-.71,1.21-.96,1.12-.56-.19-.36-1.62.34-2.4.84-.94,1.22-.17.62,1.28Z"/>
      <path class="cls-1" d="M149.34,137.37c-.48.91-.89.83-1.16-.24-.15-.6-.06-1.08.27-1.4.97-.97,1.63.27.89,1.65Z"/>
      <path class="cls-1" d="M214.3,115.79c.67.08,1.22.28,1.22.44,0,.35-2.16.42-2.49.09-.44-.44.1-.67,1.28-.53Z"/>
      <path class="cls-1" d="M125.16,173.84c1.76,1.69,3.28,3.07,3.38,3.07.27,0,3.08,2.61,3.08,2.86,0,.62-1.38.06-2.39-.98-.64-.66-1.34-1.19-1.57-1.19s-.67-.4-.98-.88c-1.02-1.56-3.04-3.63-4.36-4.46-.7-.44-1.28-.96-1.28-1.14,0-.87,1.17-.1,4.11,2.73Z"/>
      <path class="cls-1" d="M211.4,181c.47,0,.69,1.38.36,2.25-.28.74-1.35,1.18-1.35.56,0-.72.75-2.82.99-2.82Z"/>
      <path class="cls-1" d="M208.88,109.71c.38-.62.84-.33,1.33.84.4.95.7,1.19,1.63,1.28.88.08,1.12.25,1.08.77-.03.37.19.85.51,1.09.53.39.53.43-.03.65-.33.13-.51.37-.4.53.4.64-.82.27-1.65-.5-1.04-.97-2.75-4.19-2.46-4.66Z"/>
      <path class="cls-1" d="M208.25,181.06c.86.81,1.04,1.83.37,2.1-.23.09-.46.18-.5.19-.11.04-1.46-2.62-1.46-2.85,0-.43.87-.13,1.59.55Z"/>
      <path class="cls-1" d="M133.09,137.65c.13-.5-.04-.77-.65-1-.9-.34-1.08-.67-.37-.67.25,0,.81.3,1.23.67.42.37,1.59.91,2.58,1.19,1.81.53,3.58,2.06,3.58,3.11,0,.7-.49.6-1.59-.32-1.16-.96-2.66-1.74-3.99-2.06-.77-.18-.93-.38-.79-.92Z"/>
      <path class="cls-1" d="M132.46,140.35c1.73,0,2.57.37,2.57,1.13,0,.49-.17.64-.59.52-.33-.09-1.33-.27-2.22-.39-2.3-.31-2.11-1.27.24-1.27Z"/>
      <path class="cls-1" d="M123.59,177.09c.99.84,2.08,1.53,2.43,1.53.76,0,2.87,1.98,2.87,2.69,0,.4-.09.42-.41.11-.22-.23-.69-.41-1.03-.41-.69,0-5.82-4.29-6-5.01-.18-.74.26-.51,2.14,1.09Z"/>
      <path class="cls-1" d="M136.9,137.16c-1.27-.74-2.97-2.88-2.29-2.88.17,0,1.02.47,1.89,1.05.87.58,1.85.99,2.19.93.49-.1.35-.37-.76-1.42-.75-.71-1.71-1.43-2.13-1.6-.72-.29-1.12-1.69-.47-1.69.51,0,4.77,4.1,5,4.81.12.38.03.92-.2,1.19-.32.39-.33.61-.03.91.22.22.4.52.4.67,0,.53-.92.27-1.57-.44-.36-.39-1.27-1.08-2.02-1.51Z"/>
      <path class="cls-1" d="M126.89,170.77c.62,0,3.03,2.33,3.03,2.93,0,.2-.11.48-.23.61-.33.32-.37.31-1.58-.53-2.44-1.69-7.03-6.55-6.6-6.98.11-.12.71.27,1.32.85,2.24,2.14,3.51,3.12,4.06,3.13Z"/>
      <path class="cls-1" d="M125.94,163.78c-.89-1.03-1.89-1.96-2.24-2.07-.64-.2-.88-1.17-.28-1.17s5.12,4.1,5.12,4.62c0,.99-1.02.45-2.6-1.38Z"/>
      <path class="cls-1" d="M130.04,171.46c-.38,0-3-2.49-3.58-3.39-.3-.48-1.56-1.87-2.81-3.09-2.23-2.19-2.61-2.73-1.9-2.73.53,0,8.51,8.2,8.51,8.74,0,.25-.09.47-.22.47Z"/>
      <path class="cls-1" d="M126.66,161.21c-.53-.76-1.57-1.8-2.33-2.3-1.85-1.25-2.09-2.04-.34-1.16,1.99,1.02,4.62,3.59,4.36,4.27-.33.85-.64.7-1.69-.82Z"/>
      <path class="cls-1" d="M36.11,162.66c-2.37-3.13-4.66-8.34-4.97-11.33-.24-2.33.97-5.29,2.61-6.37,1.25-.83,2.36-.97,2.42-.29.01.18-.42.58-.96.88-1.12.61-2.73,3.32-3.03,5.1-.28,1.62,2.19,8.74,3.26,9.39.41.26.42.36-.38-2.2-.38-1.21-.77-3.28-.87-4.61-.16-2.04-.08-2.58.52-3.52.69-1.09,1.74-1.51,1.73-.68,0,.23-.31.81-.68,1.28-1.15,1.47-.81,5.73.83,10.23.53,1.47,3.11,7.02,4.14,8.92.27.49.49,1.38.49,1.96,0,.64-.17,1.05-.44,1.05-.3,0-.4-.37-.3-1.19.11-.96-.17-1.68-1.44-3.71-.86-1.39-1.57-2.65-1.57-2.82s-.62-1.1-1.37-2.09Z"/>
      <path class="cls-1" d="M99.71,194.03l-1.01-.12c-.62-.07-1.15-.4-1.38-.87-.2-.41-.93-1.27-1.63-1.9-1.24-1.14-1.61-1.95-.87-1.95.34,0,2.3,1.89,4.21,4.06l.68.77Z"/>
      <path class="cls-1" d="M36.54,167.39c1.89,2.52,2.3,3.31,2.29,4.34v1.25s-.94-2.05-.94-2.05c-.96-2.11-1.61-3.14-3.22-5.04-.51-.6-.93-1.21-.94-1.35,0-.7.71.03,2.81,2.84Z"/>
      <path class="cls-1" d="M94.93,128.53c.53-.1.59.03.39.82-.13.52-.6,1.23-1.05,1.58-.45.36-.94,1.22-1.09,1.92l-.27,1.26-.11-1.15c-.14-1.4,1.24-4.25,2.13-4.42Z"/>
      <path class="cls-1" d="M111.03,125.46c1.6-.79,2.37-1.01,2.63-.75.54.54-.08.99-2.37,1.72-2.39.75-2.52.77-2.52.42,0-.14,1.02-.77,2.27-1.38Z"/>
      <path class="cls-1" d="M27.38,142.34c-.69,1.62-.85,7.78-.23,8.82.32.55.43.58.57.17.09-.28.42-1.3.72-2.27.54-1.73,1.56-3.06,2-2.63.38.38.26,1.23-.27,1.81-.82.9-1.53,4.97-1.13,6.43.41,1.51,1.56,3.78,2.98,5.86.57.84,1.04,1.8,1.04,2.13,0,.91-.64.71-1.11-.34-.23-.52-1.07-2.05-1.87-3.42-.8-1.37-1.45-2.58-1.45-2.7,0-.12-.21-.47-.47-.76-.26-.29-.91-1.77-1.44-3.26-.82-2.32-.97-3.24-.96-6.14.02-2.83.15-3.66.77-4.86,1.27-2.46,1.98-1.5.86,1.15Z"/>
      <path class="cls-1" d="M98.19,190.15c0-1.42.67-.91,3.36,2.54.42.53.38.59-.27.59-.86,0-3.09-2.27-3.09-3.14Z"/>
      <path class="cls-1" d="M99.58,125.93c.53.33.38.7-1.04,2.42-.75.91-1.37,1.87-1.37,2.14s-.09.4-.2.28c-.11-.11-.1-.79.02-1.52.23-1.37,2.03-3.67,2.59-3.32Z"/>
      <path class="cls-1" d="M101.94,126.6c0-.17.49-.8,1.08-1.41.86-.88,1.2-1.04,1.7-.78.43.23.98.19,1.79-.15.64-.27,1.76-.54,2.48-.61,1.1-.09,1.31-.01,1.31.53,0,.5-.47.78-2.05,1.22-1.13.31-2.38.75-2.79.97-.41.22-1.05.4-1.42.4-.86,0-2.76,1.58-2.83,2.33-.02.32-.11.21-.19-.23-.09-.44.09-1.06.38-1.39.3-.33.54-.73.54-.89Z"/>
      <path class="cls-1" d="M84.24,130.19c.86,0,.57,1.15-.7,2.87-1.42,1.92-2.75,2.54-2.75,1.29,0-.65,2.91-4.17,3.45-4.17Z"/>
      <path class="cls-1" d="M10.98,131.21c-2.75,6.02-2.57,13.1.48,18.42,1.33,2.32,4.32,5.92,6.28,7.57,7.02,5.89,10.23,9.05,12.08,11.85,2.98,4.52,2.85,7.63-.47,10.84-1.02.99-2.04,1.8-2.26,1.8s-.67.2-1.01.45c-.53.38-.56.57-.2,1.24.4.74.57.78,3.05.61,2.81-.19,4.6-.89,6.23-2.44.51-.48,1.11-.88,1.33-.88.42,0,4.05-2.6,4.44-3.17.12-.18.38-.22.59-.1.2.12.76-.03,1.23-.34.58-.38,1-.46,1.29-.23.76.59,2.43-.17,3.33-1.53,2.22-3.34,2.7-4.4,2.91-6.41.27-2.57-.21-3.84-2.27-6-1.45-1.53-3.59-4.6-4.84-6.95-.94-1.78-1.08-3.4-.44-5.08.46-1.2.91-1.66,2.35-2.45,2.36-1.29,4.25-1.5,10.04-1.13,3.22.21,5.96.19,8.18-.06,1.84-.2,5.49-.49,8.12-.66,2.63-.16,5.43-.44,6.23-.63.8-.18,1.51-.23,1.58-.11.22.38.7,4.28.62,4.98-.11.95.93,6.31,1.47,7.52.25.56.54,1.41.63,1.87.3,1.43,1.79,5.55,2.53,7,.38.75,1.25,1.97,1.93,2.71.67.74,1.23,1.43,1.23,1.53,0,.1-.8.63-1.79,1.18-.98.55-3.02,2.29-4.52,3.88-2.57,2.7-2.85,2.9-4.55,3.17-2.29.36-4.78,1.94-6.05,3.82-.53.79-1.48,2.07-2.09,2.84-.62.77-1.12,1.72-1.12,2.11s.87,1.65,1.93,2.8l1.93,2.08-.44,2.35c-.43,2.27-.41,2.45.48,4.9,1.02,2.8,2.37,4.57,5.27,6.92,1.06.86,2.61,2.2,3.44,2.98.83.78,2.03,1.83,2.66,2.33.63.5,1.63,1.58,2.2,2.39.58.81,1.18,1.55,1.33,1.65.75.5,2.08,4.52,2.71,8.26.4,2.3.79,4.25.88,4.34.09.09.67.12,1.3.06,1.11-.1,1.16-.05,1.65,1.72.28,1,.62,2.32.74,2.92.15.76.43,1.11.84,1.11.88,0,1.31.67,1.44,2.22.12,1.4.08,1.38,2.11,1.5.5.03.58.19.39.8-.14.42-.36,1.69-.5,2.82-.22,1.76-.14,2.27.53,3.63.43.87,1.78,2.56,2.98,3.75,1.78,1.76,2.85,2.47,5.56,3.68,1.85.83,3.97,1.63,4.72,1.77.76.14,1.6.36,1.9.47.29.11.63.1.76-.02.13-.13,1.04-.41,2.03-.63l1.8-.4.11-1.63c.11-1.78-.63-5.21-1.63-7.47-.35-.79-1.37-2.41-2.28-3.61-2.5-3.29-2.85-3.88-2.85-4.9,0-.51.07-.93.17-.93s1.1.71,2.24,1.58c2.3,1.75,6.76,3.34,11.03,3.92,2.04.28,2.64.23,4.55-.41,1.66-.55,2.35-.99,2.82-1.75.61-1,.61-1.05-.1-2.27-2.7-4.71-7.44-9.16-12.92-12.13-1.96-1.07-2.17-1.29-2.73-2.98-.33-1-.61-1.85-.62-1.88-.03-.19-5.14-3.43-6.61-4.19-4.13-2.13-9.07-5.23-9.65-6.05-.35-.49-.89-1.16-1.21-1.5-.93-.98-3.69-5.21-3.69-5.65,0-.22.73-.64,1.62-.92,2.12-.68,6.88-1.64,7.2-1.44.14.09,1.32.01,2.62-.16,1.3-.17,4.21-.54,6.47-.82,8.34-1.02,10.56-1.76,15.35-5.11,1.5-1.05,3.87-2.67,5.28-3.6,1.41-.93,2.87-2.15,3.24-2.72.94-1.42,1.23-1.45,2.94-.32.82.54,1.69.99,1.93.99.65,0,6.58,2.35,7.76,3.08.57.35,2.25.97,3.75,1.38,1.5.41,2.8.84,2.89.97.28.37,4.75,2,8.02,2.93,1.69.48,3.38,1.01,3.75,1.18.37.17,1.22.39,1.88.48.66.1,2.65.5,4.43.91,1.78.4,4.16.77,5.29.82,1.12.05,2.81.25,3.75.45.94.2,4.81.38,8.6.4,5.47.04,7.69-.09,10.75-.63,2.11-.37,5.23-.86,6.92-1.09,1.69-.23,4.37-.85,5.97-1.39,1.59-.53,3.18-.97,3.51-.97.67,0,2.26,1.61,2.28,2.3.02.64,2.73,2.48,3.68,2.48.46,0,1.78-.25,2.93-.55,1.34-.35,2.71-.47,3.8-.34,3.68.44,6.56.87,8.18,1.23,3.88.85,11.01.11,18.25-1.89,2.01-.55,5.8-1.05,5.8-.76,0,.1-.34.92-.75,1.84-.69,1.51-.76,2.21-.77,7.63-.01,5.5.04,6.1.75,7.57.42.88.89,1.68,1.05,1.78.16.09,1.34-.14,2.64-.52,3.22-.95,5.47-3.11,6.81-6.53.75-1.91,1.4-2.86,3.11-4.55,1.23-1.21,2.16-2.43,2.16-2.81s.13-.77.29-.87c.7-.43,3.84,4.1,5.22,7.55.95,2.36,1.02,2.78.76,4.83-.36,2.95-.22,4.11.59,4.78.47.39.67,1.02.71,2.25.03.94.27,1.95.53,2.27.29.34.43,1.13.37,2.05-.1,1.33-.02,1.49.68,1.59.43.06,1.16-.13,1.61-.43,1.23-.8,1.87-.68,1.87.36,0,.88-.98,1.97-4.24,4.73-1.48,1.26-2.45,4.36-1.85,5.9.21.5.57,2.06.82,3.46.25,1.39.93,3.47,1.51,4.6,1.62,3.17,4.97,7.01,6.13,7.01.33,0,1.3-.75,2.15-1.66,1.5-1.6,2.28-3.37,2.29-5.14,0-1.14,1.14-3.38,2.55-5.04,1.49-1.73,1.95-3.7,1.55-6.51-.36-2.58-.21-3.15,1.88-7.15l1.64-3.13-.46-1.91c-.48-2.02-1.37-3.52-6.31-10.74-3.85-5.63-4.74-7.12-8.02-13.5-1.73-3.36-2.9-6.13-3.36-7.96-.96-3.78-1.65-4.77-4.82-6.9l-2.7-1.81.18-1.88c.11-1.03.56-3.05,1-4.49.93-2.98,1.12-6.42.43-8-.26-.58-2.02-2.54-3.92-4.35l-3.46-3.29-2.85-.07c-3.16-.07-4.74.36-8.24,2.24-1.17.62-3.42,1.57-5.01,2.1-2.54.85-3.47.98-7.51,1.04-2.53.04-5.51.17-6.61.29-1.84.2-1.98.17-1.75-.39.14-.34.31-3.49.37-7.02.09-5.46.02-6.78-.55-8.98-.36-1.42-.75-3.6-.88-4.85-.12-1.25-.44-2.53-.72-2.84-.43-.49-.43-.69,0-1.54.86-1.7.98-3.72.36-6.26-.54-2.26-.54-2.41.04-3.05,1.07-1.19,1.23-3.29.49-6.32-1.02-4.14-3.08-10.51-3.6-11.11-.61-.7-.58-1.22.07-1.47.29-.11.75-.74,1.03-1.4.28-.66.58-1.2.68-1.2.21,0,6.27,6.18,9.19,9.38,2.8,3.07,7.87,8.07,11.26,11.1.74.67,2.35,2.34,3.57,3.72,1.22,1.38,2.47,2.75,2.78,3.05.36.34.66,1.42.81,2.93.14,1.32.6,3.17,1.02,4.14.62,1.42.99,1.82,1.92,2.1,2.3.7,3.59.78,4.03.26.59-.72.17-2.83-1.04-5.19-.95-1.86-.96-1.97-.39-2.6,1.03-1.15,4.2-3.09,8.44-5.16,2.25-1.11,4.9-2.53,5.88-3.16,2.42-1.56,5.11-4.36,5.38-5.59.12-.54.38-1.09.57-1.21.49-.3,2.67-5.03,2.68-5.81,0-.35.32-1.79.7-3.19.38-1.41.82-4.16.96-6.12.18-2.43.4-3.61.7-3.71.24-.08.92-.57,1.49-1.08.97-.87,1.05-1.1,1.12-3.52.04-1.48.34-3.28.68-4.18.51-1.34.54-1.75.18-2.66-.23-.59-.64-1.79-.92-2.66-.37-1.18-.81-1.79-1.69-2.33-1.18-.73-1.3-1.5-.21-1.28.31.07.72-.08.9-.32.27-.34.71-.34,2.22.04,1.03.26,2.29.57,2.79.68.85.19.88.27.52,1.23-.32.85-.29,1.12.19,1.6.48.48.71.5,1.49.15.67-.31,2.16-.36,5.38-.2,6.75.33,8.05.41,10.09.67,2.01.25,3.9-.23,3.67-.93-.08-.22-1.74-.97-3.7-1.65-1.95-.68-5.47-2.17-7.82-3.3-4.96-2.4-5.66-2.64-5.97-2.14-.14.22-.64.29-1.19.17-.53-.12-1.05-.06-1.16.12-.19.32,1.25,1.73,2.45,2.41,1.05.59.1.83-1.72.43-.99-.22-2.71-.49-3.84-.62-1.13-.12-2.4-.35-2.85-.51-.75-.29-.79-.41-.56-2.38.13-1.14.45-2.48.71-2.98.26-.5.47-1.14.47-1.44s.48-1.83,1.07-3.41c.96-2.6,1.07-3.28,1.1-6.97.04-4.59-.63-7.24-2.64-10.58-2.65-4.38-11.71-10.76-17.36-12.22-3.59-.92-4.62-2.06-3.24-3.57,1.21-1.32,2.04-3.82,1.91-5.76l-.1-1.64-1.39-.1c-1.15-.08-1.75.14-3.51,1.32-2.41,1.61-3.44,3.23-3.54,5.61-.06,1.4-.14,1.54-.93,1.54-.48,0-2.75.92-5.05,2.04-2.3,1.13-4.24,2.05-4.31,2.05-.17,0-4.2,1.86-9.37,4.33-2.13,1.02-4.66,2.16-5.63,2.54-.96.38-2.44,1.05-3.28,1.5-.84.45-3.84,1.9-6.65,3.23-2.81,1.33-6.61,3.17-8.43,4.09l-3.32,1.67-.92-1.68c-.51-.93-1.04-1.69-1.18-1.69s-.59-.46-.98-1.02l-.72-1.01,1.29-.61c1.65-.77,1.89-1.97.63-3.15-1.18-1.1-1.09-1.59.37-2.08,1.19-.39,1.23-.45,1.06-1.72-.19-1.44-.84-2.41-3.69-5.55-2.04-2.24-2.7-3.9-2.64-6.62.03-1.59-1.17-3.7-2.65-4.68-.45-.29-.82-.74-.82-.98s-.42-.66-.94-.92c-.52-.26-.98-.5-1.04-.53-.06-.03.21-.66.6-1.37.91-1.7.88-2.28-.15-3.4-.47-.51-.85-1.04-.85-1.18s-.65-.51-1.45-.82c-1.19-.45-1.94-.49-4.24-.24-1.65.19-3.46.19-4.42.01-1.04-.19-2.68-.17-4.54.08-3.45.45-4.01.64-5.13,1.73-.99.95-2.04,1.64-4.72,3.09-2.36,1.28-3.04,1.85-3.31,2.78-.4,1.35-1.54,3.56-2.09,4.01-1.72,1.43-3.4,5.92-3.05,8.13.16,1.02.04,1.78-.47,2.89-.77,1.69-.89,3.6-.29,4.72.22.41.9,1.34,1.51,2.06.68.79,1.21,1.87,1.35,2.73.13.78.42,1.8.66,2.27,1.95,4.01,2.3,4.82,2.15,4.97-.1.09-2.82.25-6.05.34-3.23.1-6.51.31-7.29.47-3.98.82-7.31,1.87-8.97,2.85-1.02.6-2.42,1.42-3.12,1.83-.69.41-1.49.75-1.77.77-1.01.06-6.21,2.88-6.71,3.64-1.04,1.59-.36,5.3,1.87,10.03.69,1.48,2.73,3.38,3.64,3.4.38,0,1.4.39,2.27.85,2.61,1.39,7.85,3.54,9.54,3.91.87.19,2.02.51,2.55.72,1.42.54,6.56.44,8.26-.16l1.44-.51,1.92,3.82c1.65,3.29,2.23,4.09,4.09,5.7l2.16,1.88v2.13c0,1.17.18,2.86.39,3.75.79,3.35,1.45,5.4,1.99,6.23.31.47,1.21,2.24,2.01,3.92.79,1.69,1.81,3.8,2.25,4.7l.8,1.63-.82.83c-.45.45-.83,1.04-.83,1.31s-.61,1.24-1.37,2.14c-1.65,2.01-3.49,6.23-3.34,7.72.09.97,0,1.09-1.09,1.33-1.35.3-7.39-.4-12.11-1.4-3.37-.72-6.65-1.28-10.06-1.73-1.22-.15-4.36-.74-6.99-1.29-2.62-.56-5.51-1.12-6.4-1.24-.9-.12-3.11-.6-4.91-1.06-1.8-.45-3.68-.83-4.16-.83-.54,0-1.44-.49-2.26-1.23-.75-.67-1.99-1.71-2.76-2.3-.77-.59-2.19-1.72-3.15-2.5-.97-.78-3.64-2.35-5.94-3.48-3.74-1.84-6.05-2.69-12.6-4.61-2.91-.85-10.05-1.08-13.24-.42-8.05,1.67-11.12,2.82-15.4,5.78-1.19.82-2.9,1.92-3.79,2.43-.89.52-3.35,2.58-5.46,4.58-4.16,3.95-5.58,4.91-9.58,6.5-7.65,3.04-17.82.8-30.08-6.63-2.68-1.62-7.84-3.66-11.3-4.46-3.38-.78-9.54-.82-10.92-.06-.61.33-1.43.59-1.85.59-1.55,0-4.1,2.45-5.32,5.12ZM310.65,84.85l1.11.39c.62.21,1.51.59,1.98.84.47.24,1.2.45,1.63.45s.77.21.77.48.42.58.93.71c.99.24,1.79.78,1.79,1.19,0,.39-5.72.42-5.96.02-.12-.19.08-.35.47-.35s.77-.14.88-.31c.27-.44-.76-1.39-1.52-1.39-.35,0-.96-.45-1.35-1.01l-.72-1.01ZM308.38,88.03c.12-.11.41-.12.66-.02.27.11.19.19-.21.21-.36.01-.56-.07-.45-.18ZM48.09,167.79c.02-.33.15-.98.31-1.45.23-.72.28-.63.31.6.02.79-.12,1.45-.31,1.45s-.32-.27-.31-.6ZM194.56,135.35c.56-.11.58-.05.18.42-.54.66-1.17.73-.97.13.08-.23.43-.48.79-.55ZM165.36,87.89c.76.84,1.38,1.65,1.38,1.79,0,.36-.61.32-1.39-.1-.36-.19-.66-.67-.66-1.04s-.16-1.03-.36-1.44c-.19-.41.26-.06,1.02.79ZM161.97,84.43c-1.11-1.53-1.43-2.76-.52-2.01.7.58,2.25,3.42,1.87,3.42-.18,0-.78-.63-1.34-1.41ZM154.61,80.47c.17-.16,1.9,3.63,1.9,4.14,0,.65-1.34-1.59-1.69-2.84-.18-.65-.27-1.23-.21-1.3ZM164.72,71.19c.93.83,1.07,1.1.68,1.34-.32.2-.96.03-1.87-.49-.76-.43-1.58-.71-1.81-.63-.5.19-.58,1.13-.09,1.13.77,0,.25.55-1.03,1.08-2.53,1.07-1.38,1.87,1.84,1.28,4.43-.8,8.74-.36,8.74.89,0,.24-.42.76-.94,1.14-1.04.78-.48.98,1.07.39.74-.28.87-.22.96.43.18,1.27,1.05.84,1.62-.78.69-1.98.97-2.39,1.61-2.39.39,0,.47.22.32.83-.23.9.03,1.9.5,1.9.16,0,.4-.41.52-.91.21-.81.28-.84.65-.34.61.83,1.15.69,1.38-.37.58-2.7,1.72-3.53,1.34-.98-.4,2.64.84,2.41,1.63-.3.37-1.27.66-1.7,1.14-1.7.66,0,.67.12.24,2.3-.27,1.34.74,1.24,1.45-.14l.56-1.09.85,1.79c.97,2.03,1.92,2.61,3.08,1.88.75-.48.76-.46.72,1.19-.02.92.07,1.84.19,2.05.29.47,1.79.5,2.07.04.37-.59.76-.37,1.19.67.57,1.36,1.46,1.58,2.9.69.75-.47,1.44-.65,1.89-.51.97.31.32,1.06-1.18,1.33-1.06.2-1.16.33-1.34,1.83-.12.89-.06,2.61.12,3.83.46,3.09.2,8.41-.48,10.04-.31.73-.86,1.54-1.23,1.8-.37.26-.68.86-.68,1.33,0,.82.08.85,1.58.69,1.42-.15,2.15-.6,2.17-1.33,0-.14.16-.26.35-.26s.34.61.34,1.35.14,2.08.32,2.98c.18.9.41,2.66.51,3.91.29,3.72,1.37,7.55,2.48,8.86.26.31.77,1.14,1.14,1.85.51,1,.57,1.37.24,1.58-.32.22-.27.4.21.77.51.39.57.67.32,1.42-.31.92-.71,1.27-1.89,1.63-.33.11-.86.73-1.17,1.39-.88,1.84-1.37,1.53-1.33-.84.03-1.78.11-2.02.63-1.85.82.26,1.96-.14,1.96-.69,0-.59-.76-.87-2.36-.87-1.04,0-1.35-.17-1.68-.87-.55-1.22-.52-1.26.61-.67,1.27.66,2.06.66,2.06.02,0-.28-.83-.89-1.84-1.37-1.01-.48-2.05-1.13-2.3-1.43-.41-.49-.36-.54.46-.38,2.19.42,2.14-1.04-.06-1.77-.94-.31-1.54-.75-1.74-1.28-.43-1.12-.43-1.1.74-1.1,1.41,0,1.23-.99-.27-1.5-1.37-.46-2.03-1.13-2.33-2.33-.22-.92.25-1.33.7-.6.3.5,1.61.43,1.45-.08-.07-.23-.7-.69-1.39-1.03-1.24-.59-1.84-1.59-.66-1.1,1.15.49,2.05.57,2.28.21.4-.64-.46-1.72-1.6-2.02-.89-.23-1.1-.46-1.12-1.21-.01-.68-.49-1.34-1.79-2.48-.98-.86-1.78-1.69-1.78-1.86s.46-.22,1.03-.1c1.49.29,1.26-.08-.87-1.44-1.55-.99-2.54-2.19-2.54-3.06,0-.37.69-.08,2.08.87,1.5,1.01,2.51,1.33,2.3.7-.07-.18-1.34-1.14-2.83-2.13-2.44-1.62-5.05-4.39-4.57-4.86.09-.1.98.52,1.97,1.36,1.74,1.48,3.12,1.98,3.09,1.1-.02-.47-5.19-4.35-5.81-4.35-.21,0-1.07-.61-1.91-1.34-1.69-1.49-3.43-2.09-3.9-1.34-.45.7-.38.89.6,1.55,1.44.98,2.85,2.51,2.85,3.11,0,.33-1.01-.46-2.56-1.99-1.59-1.59-2.55-2.33-2.55-1.98,0,.32.15.67.34.78.32.2,2.6,3.17,3.19,4.17,1.11,1.87-4.19-2.75-5.45-4.75-.45-.71-.99-1.3-1.2-1.3-.69,0,.06,1.8,1.43,3.44.73.88,1.34,1.73,1.34,1.88s.33.63.74,1.06c.48.51.58.79.29.79-1.01,0-6.89-6.45-7.9-8.66-.44-.97-1.32-1.21-1.32-.36,0,.77,2.81,4.97,4.59,6.84,1.4,1.48,1.67,2.18.83,2.18-.18,0-1.05-.69-1.94-1.54-.88-.84-1.7-1.53-1.82-1.53-.39,0-4.02-4.74-5.11-6.66-.58-1.03-1.18-1.87-1.33-1.87s-.37.38-.48.86c-.28,1.11-.57,1.06-1.39-.25-.81-1.27-1.44-1.55-1.59-.72-.14.72,1.7,4.42,3.33,6.68.64.89,1.07,1.62.94,1.62s-1.03-.85-2.02-1.89c-1.72-1.8-3.9-5.7-3.9-6.97,0-.82-1.65-1.57-1.93-.87-.27.72-.8.28-.8-.67,0-.44-.23-.89-.51-.99-.28-.11-.51-.48-.51-.83,0-1.27,2.67-2.95,6.63-4.18,1.19-.37,2.35-.89,2.58-1.18.64-.77,1.46-.62,2.75.53ZM197.88,85.49s-.25-.31-.47-.71c-.45-.85.02-1.3,1.37-1.32.45,0,1.08-.24,1.4-.52.7-.64,1.68-.33,1.47.46-.11.43-2.58,1.79-3.76,2.09ZM191.84,69.77c1.08-2.08,1.59-.68.61,1.63l-.57,1.32-.27-.99c-.19-.67-.11-1.29.23-1.96ZM190.45,69.14c-.28.23-.52.75-.53,1.15-.02.72-.03.72-.4-.04-.27-.56-.27-1,.02-1.64.22-.47.4-1.28.4-1.79,0-.51.3-1.3.66-1.77l.64-.84.24.96c.28,1.12-.31,3.36-1.04,3.97ZM188.95,74.84c-.37.79-.87,1-1.19.49-.09-.15-.28-.92-.4-1.7-.21-1.29-.17-1.42.51-1.42.96,0,1.59,1.53,1.09,2.63ZM166.22,68.79c.67.22,1.21.53,1.21.7s.46.83,1.02,1.47c.57.64,1.03,1.35,1.03,1.57,0,.46.05.49-3.09-1.68-1.98-1.37-2.29-1.7-1.87-2.05.39-.32.77-.32,1.7-.01ZM175.08,69.92c1.52,2.24,1.01,2.66-.85.71-1.28-1.35-3.66-3.2-4.13-3.2-.72,0-.17,1.13,1.09,2.27,1.73,1.56,2.83,3.08,2.55,3.53-.26.42-1.19.45-1.19.04,0-.17-1.3-1.41-2.9-2.76-1.59-1.35-2.82-2.59-2.73-2.74.09-.15.94-.53,1.87-.84,2.82-.93,4-.37,6.28,3ZM182.1,70.55c0,.63-.68.22-2.27-1.37-.91-.92-2.15-1.92-2.75-2.22-1.75-.89-1.73,0,.03,1.68,1.53,1.47,1.93,2.2,1.22,2.2-.57,0-4.81-4.42-4.58-4.78.32-.52,4.26-.42,4.26.11,0,.24.44.61.99.81.9.34,3.1,2.88,3.1,3.58ZM180.13,65.87c.27-.27,3.19,2.07,3.46,2.77.25.67.02.62-.89-.17-.42-.37-1.23-1.05-1.78-1.52-.55-.47-.91-.96-.78-1.08ZM186.04,67.4c-.36.58-.85.45-2.02-.53l-1.08-.91,1.34.22c1.48.23,2.1.67,1.75,1.23ZM189.77,31.41c-.37.28-.83.67-1.02.85-.45.44-.95.47-.68.03.12-.19.7-.58,1.3-.87.94-.45.99-.45.4-.01ZM210.49,29c.69.55.77,1.28.18,1.86-.56.57-.64.54-1.89-.63-.61-.57-1.11-1.25-1.11-1.51,0-.28-.44-.52-1.08-.58-1.2-.12-1.65-.75-.77-1.09.55-.21,3.45,1,4.66,1.95ZM210.94,27.69c-.92-.47-1.89-.86-2.16-.86s-.41-.19-.33-.42c.18-.5,1.77-.39,2.79.19.39.22.97.4,1.29.41.33,0,.59.12.6.26.04,1.56.06,1.56-2.19.43ZM224.39,65.71c0,1.22-.16,1.49-1.42,2.4-1.85,1.33-2.12,1.02-.52-.62.69-.7,1.25-1.47,1.25-1.7,0-.83-.99-.37-2.03.93-.95,1.2-1.2,1.33-2.33,1.23-.7-.06-1.31-.13-1.36-.15-.05-.02.16-.42.47-.89.84-1.29.34-1.39-.92-.19-.63.6-1.47,1.05-1.95,1.05-.8,0-.82-.03-.29-.62.31-.34.56-.82.56-1.05,0-.64-1.07-.3-1.5.48-.21.38-.41.74-.45.82-.05.08-.46-.27-.92-.77-.47-.5-1.15-.91-1.54-.91s-.7-.22-.7-.49c0-.72-.64-.99-1.21-.52-.42.35-.49.25-.49-.61,0-.56-.23-1.57-.52-2.25-.28-.67-.51-1.62-.51-2.1s-.4-1.26-.94-1.8c-1.93-1.91-2.99-4.67-1.95-5.07.28-.11.5-.45.5-.77s.31-.83.69-1.16l.69-.59-.77-1.41c-.43-.78-.97-1.76-1.21-2.2-.24-.43-.74-.88-1.11-1-.91-.29-.85-1.12.1-1.25.42-.06.82-.39.88-.75.11-.57-.04-.62-1.38-.47-1.14.13-1.69.02-2.29-.47-.77-.62-.77-.63-.06-.63s.99-.81.38-1.19c-.19-.12-.34-.35-.34-.52s.66,0,1.46.36c1.69.77,2.3.84,2.29.24,0-.4-2.39-2.3-2.88-2.3-.12,0-1-.53-1.97-1.18-.96-.65-1.88-1.1-2.03-1-.64.4-.2,1.13,1.23,2.06l1.52.98h-2.96c-2.52-.01-2.97.07-3.07.57-.1.49.22.59,2.04.68,2.16.1,2.97.69,1.23.89-1.42.17-2.65,1.84-2.42,3.27.12.78,0,1.43-.37,1.95-.6.87-.73,2-.23,2,.18,0,.42-.16.53-.34.29-.47.9-.41,1.65.16.61.45.6.51-.12,1.48-.57.78-.69,1.26-.51,2.09.26,1.15.96,1.25,1.13.16.13-.81.79-2.19,1.06-2.19.11,0,.22.74.25,1.66.09,3.17,1.9,6.81,3.04,6.14.25-.15,1.15,1.42,1.17,2.04,0,.26.3.87.64,1.37,1.08,1.53,1.55,3.4,1.03,4.02-.25.3-.42,1.23-.39,2.09.07,1.85-.17,2.36-.73,1.59-.64-.87-1.77-.49-1.63.54.07.46.14,1.81.18,2.99.04,1.46.23,2.25.57,2.46.63.39.13.92-1.02,1.07-.65.09-.93.42-1.21,1.43-.2.72-.63,1.46-.95,1.64-.76.43-.73.02.11-1.24.49-.74.68-1.6.68-3.14,0-1.16-.12-2.19-.27-2.28-.64-.4-1.18.52-1.4,2.4-.25,2.11-1.12,3.76-2.72,5.13-1.27,1.09-1.72.4-.61-.93,1.01-1.2,1.02-1.24.92-3.49-.06-1.16.13-1.95.67-2.83.62-.99.72-1.55.57-3.16-.32-3.6-1.32-5.8-2.07-4.57-.18.28.43,2.28.93,3.06.42.66-.11,3.18-.9,4.3-.55.78-.69,1.45-.64,3.15.06,2.03-.3,2.82-.75,1.65-.26-.67-1.21-.65-1.98.06-.77.69-.79.28-.07-1.08,1.09-2.06,2.22-5.99,2.17-7.59-.11-3.75-.15-4-.76-4.11-.33-.06-.59-.24-.59-.41s-.09-.53-.2-.83c-.12-.29-.04-.54.17-.54s.38.23.38.51c0,.81.59.59.82-.3.2-.81-.3-2.82-.86-3.44-.16-.18-.3-.74-.3-1.25,0-1.28-.33-2-.9-2-.82,0-.89.89-.16,2.31.74,1.45.66,1.78-.41,1.78-.61,0-.65.16-.46,1.55.13.98.09,1.48-.12,1.34-.19-.12-.34-1.13-.34-2.26,0-1.93-.04-2.04-.77-1.94-.72.11-.77.29-.82,2.71-.03,1.43-.22,2.91-.43,3.3-.21.39-.38,1.18-.38,1.75s-.17,1.05-.38,1.05c-.25,0-.31-.44-.16-1.28.12-.7.21-2.96.19-5.03-.03-4.32.27-5.18,1.33-3.9l.69.83v-1.13c.02-.62.25-1.56.53-2.11.28-.54.38-1.07.22-1.17-.38-.23-1.26.77-1.58,1.8-.24.78-.26.79-.83.17-.32-.35-.77-1.22-1.01-1.93-.39-1.15-.36-1.42.27-2.49.74-1.25.92-2.19.42-2.19-.61,0-3.08,2.04-3.29,2.71-.23.7-.57.88-.96.49-.23-.24.93-2.7,1.43-3,.17-.11.24-.77.14-1.48-.14-1.09-.06-1.33.63-1.62.44-.19,1.04-.86,1.34-1.49.3-.63.8-1.29,1.11-1.47.53-.29.82-1.3.37-1.3s-2.18,1.43-2.18,1.79c0,.6-1.75,2.98-2.2,2.98-.22,0-.66.54-.97,1.19-.31.66-.73,1.19-.92,1.19-.4,0,.47-1.87,1.02-2.22.64-.4.38-1.14-.34-.95-.8.21-.9-.32-.17-.92.28-.23.52-.64.52-.91s.69-.96,1.53-1.56c1.93-1.36,2.14-2.39.26-1.26-.71.42-1.52.97-1.82,1.22-.68.58-1,.58-1,0s1.68-2.14,2.61-2.43c.88-.27,1.29-1.14.8-1.73-.26-.31-.13-.57.49-.98.46-.31,1.03-.56,1.27-.56s.84-.4,1.35-.89c.51-.49,1.27-1.07,1.68-1.28.97-.49.96-.96-.04-1.47l-.79-.4.83-.36c.46-.19,1.42-.58,2.15-.87,1.13-.45,1.29-.63,1.11-1.34-.16-.63,0-.95.65-1.38.52-.34.85-.88.85-1.39,0-1.01.46-1.14,4.35-1.29,2.13-.08,2.81,0,2.81.34,0,.31-.61.44-2.09.44-2.02,0-2.14.05-3.63,1.54-1.49,1.49-1.51,1.53-.63,1.53.49,0,1.47-.31,2.17-.68,2.5-1.34,6.94-.7,8.97,1.28,1.24,1.21,1.19,1.8-.07,1.01-.44-.28-1.91-.59-3.27-.69-2.02-.15-2.47-.1-2.47.3,0,.27-.3.49-.68.49-1.34,0-.65.94,1.23,1.66,1.04.4,2.13.73,2.41.73.83,0,.36-1.13-.49-1.19-.9-.07-1.9-.86-1.08-.84.62,0,2.61.72,3.7,1.32.71.39.99.36,2.21-.28.77-.4,1.72-.95,2.09-1.22.63-.45.82-.38,2.19.8,1.07.92,1.74,1.25,2.3,1.14.82-.16,1.11.42.36.73-.23.09-.11.18.28.2.85.03,2.36,2.51,2.04,3.34-.18.48-.28.45-.73-.18-.58-.83-2.1-.99-3.31-.34-.41.22-1.37,1.03-2.14,1.8-.77.77-1.76,1.43-2.19,1.46-.89.07-1.38.66-1.12,1.34.22.59.78.57,1.62-.07.99-.75,1.32-.6,1.1.49-.14.69-.03,1.13.38,1.48,1.37,1.17,4.78,1.83,5.75,1.12.57-.42.58-.5.08-1.08-.63-.73-.67-2.55-.07-2.75.23-.07.79.61,1.25,1.5.46.9,1.33,2.18,1.93,2.84,3.3,3.62,3.52,4.74,1.02,5.22-.84.16-1.68.44-1.86.61-.56.54-.84.34-1.14-.79-.31-1.21-.98-1.44-1.55-.54-.24.38-.25,1-.03,1.88.27,1.07.47,1.3,1.18,1.32.96.02,1.7.38,1.7.83,0,.17-.6.73-1.35,1.26-1.39.99-2.07,2.04-2.07,3.19,0,.97.31.84,1.92-.78,3.13-3.15,3.4-3.34,4.09-2.83.6.44.58.48-.3.89-.52.23-.94.62-.94.85s-.22.51-.49.61c-.27.11-.76.59-1.08,1.09-.67,1.02-.24,1.58.95,1.27.82-.22,2.57,1.34,3.22,2.89.26.61.47,1.72.47,2.47ZM215.78,40.98c-3.11.66-3.08.67-2.59-.11.22-.36.84-.91,1.38-1.23.78-.46,1.08-.49,1.48-.17.73.6.61,1.31-.27,1.5ZM199.49,46.46c0,1.02,1.4,1.86,2.12,1.29.24-.19,1.11-.37,1.93-.39,1.29-.04,1.43.02,1.07.46-.23.28-.72.51-1.08.51s-.72.23-.81.51c-.57,1.82-.51,1.76-1.12,1.01-.32-.38-1.44-1.19-2.49-1.79-1.17-.66-2.01-1.4-2.13-1.86-.38-1.41-.22-2.28.48-2.65.57-.31.88-.22,1.73.5.57.48,1.18.87,1.35.87s.32.15.32.34-.31.34-.68.34c-.5,0-.68.23-.68.86ZM201.28,53.1c.7,0,.77.16.77,1.85,0,2.11-.59,2.06-1.19-.09-.47-1.69-.45-1.76.42-1.76ZM203.36,55.41c.09-.23.17-.05.17.43s-.08.66-.17.43c-.1-.24-.1-.62,0-.85ZM204.25,59.24c.2,0,.36.15.36.34s-.07.34-.15.34-.24-.15-.36-.34c-.12-.19-.05-.34.15-.34ZM204.86,51.65c-.23-.07-.48-.49-.54-.93-.11-.73-.07-.75.43-.26.64.64.72,1.39.12,1.19ZM209.31,67.43c.45,0,.59.24.56.94-.03.52-.08,1.01-.12,1.1-.1.31-1.05-1.14-1.05-1.6,0-.24.28-.44.62-.44ZM217.23,71.01c.23-.28.65-.51.94-.51.42,0,.43.09.08.51-.23.28-.66.51-.93.51-.42,0-.43-.09-.09-.51ZM284.33,52.42c3.99,2.02,8.1,6.03,9.76,9.55,1.14,2.41,1.21,2.76,1.23,6.14.02,4.03-.15,5.03-1.61,9.38-.57,1.69-1.23,3.82-1.47,4.74l-.44,1.66-2.08-.26c-1.14-.14-2.53-.31-3.1-.37-.56-.06-2.77-.28-4.91-.48-2.14-.2-4.21-.44-4.61-.53-.64-.15-7.01-1.02-13.84-1.89-1.41-.18-4.4-.63-6.66-1.02-2.25-.38-5.7-.91-7.67-1.18-1.97-.27-4.73-.73-6.14-1-6-1.2-8.14-1.61-10.23-1.97-1.22-.2-2.6-.63-3.07-.94-1.4-.92-3.41-1.64-6.4-2.28-1.55-.33-2.77-.75-2.71-.92.06-.17.84-.61,1.75-.96,2.19-.87,3.34-1.8,3.76-3.1.31-.93.96-1.37,5.3-3.54,8.23-4.11,20.78-10.01,21.31-10.01.09,0,2.74-1.27,5.89-2.82,6.71-3.29,12.23-5.83,14.14-6.5.39-.13.65.02.79.47.53,1.67,4.71,4.65,10.99,7.82ZM234.62,77.32c.41.27.36.33-.26.34-.43,0-.77-.15-.77-.34,0-.42.36-.42,1.03,0ZM246.29,81.24c.24-.24,8.45.58,12.39,1.24,1.13.19,3.05.41,4.26.48,3.1.18,6.46.7,11.13,1.72,4.16.91,10.48,2.08,12.15,2.27l.95.11-1.39,1.53c-1.38,1.53-1.4,1.53-4.2,1.74-2.33.17-3.61.04-7.58-.78-4.86-1.01-12.25-1.6-14.57-1.17-.64.12-1.68.73-2.33,1.38-1.32,1.3-1.69,1.46-1.69.72,0-.28-.42-.73-.94-1-.51-.27-1.78-1.45-2.81-2.62-2.51-2.85-3.04-3.39-4.44-4.45-.66-.49-1.08-1.01-.95-1.15ZM289.27,87.81c.08-.23.59-.48,1.14-.54.96-.11.97-.09.31.42-.83.64-1.64.7-1.45.12ZM294.5,84.14c-.48,0-.87-.15-.87-.34s.29-.34.66-.34.75.15.87.34c.12.19-.17.34-.66.34ZM295.76,86.19c.52,0,.94.15.94.33,0,.43-.7.43-1.37,0-.4-.26-.3-.33.43-.33ZM275.1,44.07c-.03-.19.36-.39.87-.45.52-.06.94.04.94.23,0,.69-1.68.89-1.81.22ZM275.04,41.38c.28.11.51.33.51.5s-.23.31-.51.31-.51-.22-.51-.5c0-.31.2-.42.51-.31ZM275.87,39.96c-1.25-.64-1.26-.98-.07-2.09.94-.87,1.77-1.29,3.34-1.68.69-.17.84-.08.84.5,0,.39-.34,1.4-.75,2.25-.83,1.72-1.58,1.94-3.36,1.02ZM297.61,81.07c-.41,0-.94-.31-1.18-.68h0c-.23-.37-.65-.68-.93-.68s-.51-.15-.51-.34.39-.34.86-.34c.95,0,1.2-.92.34-1.24-.8-.31-.61-1.05.34-1.29.95-.24,1.12-.8.34-1.1-.68-.26-.67-1.83,0-1.83.8,0,1-.97.35-1.69-.54-.6-.54-.69,0-1.52.47-.72.5-.98.15-1.4-.36-.42-.32-.64.18-1.19.57-.63.58-.72.05-1.3-.63-.7-.74-1.62-.22-1.94.53-.32.4-1.19-.17-1.19-.31,0-.51-.32-.51-.82,0-.44-.22-.9-.5-1-.27-.11-.82-.83-1.22-1.61-.4-.79-2.07-2.75-3.72-4.37-2.43-2.39-3.66-3.28-6.53-4.77-4.27-2.21-7.84-4.52-7.69-4.99.18-.57,1.23-.59,2.37-.06.59.28,2.08.77,3.3,1.08,5.04,1.29,9.18,3.86,13.98,8.69,1.88,1.89,2.37,2.64,3.2,4.94,1.08,2.95,1.69,7.07,1.39,9.22-.31,2.18-1.54,7.08-2.02,8.02-.24.47-.54,1.43-.67,2.13-.18,1.02-.38,1.28-.99,1.28ZM295.67,102.9c-.18,0-.34-.14-.34-.32s.16-.42.34-.53c.19-.12.34.03.34.32s-.15.53-.34.53ZM291.57,104.1c.63-.57.73-.57,2.21.04,1.47.6,2.21,1.39.95,1.01-.33-.1-1.02-.28-1.54-.4-.54-.13-1.14-.06-1.42.17-.75.63-.94-.15-.2-.82ZM290.83,102.9c-.23,0-.2-.19.07-.52.24-.29.51-.45.59-.37.24.24-.24.88-.66.88ZM294.95,100.85c.19,0,.44.15.56.34.12.19.06.34-.13.34s-.43-.15-.55-.34c-.12-.19-.06-.34.13-.34ZM272.46,133.95l3.41-1.71c1.87-.94,4.18-2,5.11-2.35,2.16-.82,4.18-2.42,5.51-4.34.73-1.07,1.26-1.5,1.85-1.5,1.05,0,1.46-.67.74-1.2-.76-.56-.71-.78.2-.91.61-.08.75-.31.7-1.04-.05-.74.12-.98.77-1.15.96-.24,1.04-.56.32-1.16-.79-.65-.61-1.78.43-2.61.92-.74.93-.77.26-1.27-.68-.5-.68-.51.12-1.59.58-.79.7-1.19.42-1.46-.47-.47-.49-1.84-.03-2.11.58-.36.38-1.1-.34-1.29-.91-.24-.87-.64.15-1.59.8-.75.89-.76,2.13-.27,1.24.49,1.3.59,1.4,2.26.1,1.69-.24,4.64-.94,7.99-.3,1.44-1.47,4.1-3.08,7.02-1.64,2.96-4.96,5.59-10.58,8.37-1.78.88-3.93,2.04-4.77,2.58-1.9,1.2-2.39,1.23-3.16.17l-.61-.84ZM268.73,140.74c0-.67.02-.67.99.06,2.02,1.49,4.06,5.19,2.56,4.6-.3-.11-.84-.21-1.22-.21-.49,0-.9-.52-1.5-1.89-.46-1.03-.83-2.19-.83-2.57ZM270.94,136.32c-.5-.55-.54-.78-.2-1.11.33-.33.52-.28.91.24,1.01,1.37.41,2.1-.71.87ZM270.12,138.37c-.16,0-.48-.23-.72-.51-.34-.42-.33-.51.1-.51.28,0,.6.23.72.51.11.28.07.51-.1.51ZM239.4,101.84l2.29,1.28c1.9,1.06,2.86,1.35,5.71,1.72,2.8.36,3.73.63,5.13,1.52,1.23.78,2.24,1.12,3.59,1.23,1.67.13,2.09.02,3.64-.94,1.69-1.05,1.83-1.08,3.51-.72.96.21,2.51.38,3.44.38,1.98,0,7.72-.94,8.6-1.42.33-.18,1.55-.63,2.71-1,1.16-.37,2.34-.88,2.64-1.14,1.08-.96,2.82-1.16,4.28-.49.75.34,1.7.62,2.12.63.93,0,1.39.83,2.19,3.92.72,2.77.78,4.55.27,8.23-.29,2.12-.74,3.37-2.24,6.25-2.76,5.32-3.83,6.3-9.33,8.59-1.22.51-3.05,1.39-4.07,1.95-1.37.76-2.13.98-2.87.83-.78-.16-.94-.1-.73.24.4.65-2.53,3.11-3.25,2.73-.29-.16-1.21-1.08-2.05-2.07-1.69-1.98-4.43-4.75-9.24-9.36-1.76-1.69-4.32-4.3-5.69-5.8-1.37-1.5-3.08-3.34-3.78-4.09-.71-.75-2.54-2.71-4.07-4.36l-2.78-3v-5.13ZM240.76,177.6c-.18-.28-.33-.74-.32-1.02.02-.34.12-.28.32.17.4.94.4,1.48,0,.86ZM242.85,176.03c.48,1.23.81,2.31.73,2.39-.47.47-1.13-.42-1.48-2-.61-2.71-.24-2.91.75-.39ZM244.42,176.83c-.91-2.53-1.78-8.07-1.34-8.52.22-.21.48-.31.58-.2.11.1.48,2.09.84,4.41.36,2.33.75,4.57.88,4.99.43,1.4-.43.8-.96-.68ZM246.21,169.32c0,1.17-.1,1.48-.34,1.11-.18-.28-.33-1.01-.33-1.62,0-.61.14-1.11.33-1.11s.34.73.34,1.62ZM247.2,173.15c.23.75.86,2.35,1.39,3.55,1.18,2.63,1.03,3.04-.81,2.2-.67-.31-.89-.72-1.06-1.96-.11-.87-.35-2.31-.52-3.21-.18-.91-.32-1.88-.32-2.18,0-.95.88.11,1.32,1.59ZM252.21,177.83c.95,1.65,1.05,2.31.28,2.02-.29-.12-.69-.21-.87-.21-.41,0-2.3-4.11-3.35-7.27-.81-2.45-.75-4.44.14-4.78.73-.28,1.22.56,1.17,2.03-.05,1.54,1.42,6.13,2.63,8.22ZM252.15,168.81c.75,3.89,1.1,5.12,1.94,6.79.53,1.06,1.09,1.98,1.24,2.04.14.07.63.64,1.08,1.27.65.93.72,1.2.34,1.44-.69.44-.87.38-1.55-.49-.34-.44-1.06-1.78-1.59-2.99-.53-1.21-1.25-2.8-1.6-3.55-.82-1.79-1.1-3.29-.82-4.39.28-1.1.77-1.17.97-.13ZM255.08,169.01c0,1.48,1.56,4.76,3.66,7.71,1.14,1.59,1.17,1.7.58,2.13-.89.65-1.17.47-2.74-1.77-2.33-3.32-3.61-9.02-2.09-9.32.49-.09.6.14.6,1.25ZM259.3,180.96c.61-.82,6.16-3.71,7.11-3.71.47,0,1.26.32,1.75.71.8.63.9.94.9,2.84,0,1.17-.1,2.24-.23,2.36-.39.39-2.83.26-5.66-.32-3.44-.69-4.41-1.17-3.88-1.88ZM258.96,171.46c.28.47.7,1.38.94,2.03.24.65.88,1.68,1.42,2.29.54.62.88,1.28.77,1.47-.34.54-.66.43-1.63-.59-1.49-1.57-3.77-5.91-4.13-7.84-.31-1.67.68-1.44,1.48.34.36.8.88,1.83,1.15,2.3ZM279.6,175.75c-.99,2.79-1.65,6.59-1.19,6.87.51.31-2.99,1-5.34,1.06-1.08.03-1.96-.09-1.96-.27s.81-.44,1.79-.6c1.23-.19,1.79-.44,1.79-.79,0-.4-.39-.49-1.82-.41-2.3.13-2.07-.5.31-.82,1.89-.25,2.26-.53,1.51-1.16-.34-.28-1.02-.34-2.11-.18-1.36.2-1.55.17-1.21-.24.22-.26,1.17-.84,2.11-1.28.94-.44,1.72-.93,1.72-1.09,0-.69-1.22-.67-2.55.06-2.06,1.13-2.54.62-1.02-1.07.68-.74,1.17-1.54,1.09-1.76-.27-.82-1.22-.59-1.83.43-.72,1.22-1.34,1.39-.99.28.8-2.54.32-3.84-.86-2.28l-.6.8-.12-.84c-.08-.57-.34-.83-.8-.83-.55,0-.72.31-.92,1.69-.25,1.77-.79,2.43-2.3,2.81-.66.16-1.03-.02-1.76-.9-.92-1.1-3.72-7.42-3.72-8.39,0-1.3.99-.2,2.39,2.66,1.02,2.09,1.82,3.28,2.38,3.55,1.14.55,1.29.28.48-.84-1.14-1.58-2.21-4.2-2.1-5.15.09-.8.22-.68,1.13,1.09.56,1.09,1.29,2.14,1.62,2.32.81.43.76.04-.25-2.14-.47-1-.84-2.29-.84-2.85v-1.03s.85.96.85.96c.46.53.84,1.18.84,1.45,0,.3.34.49.86.49.95,0,1.08-.53.39-1.55-.25-.37-.56-1.09-.68-1.59-.26-1.09.19-1.42,2.69-1.98,2.55-.57,4.42-.14,6.08,1.41.78.73,2.13,1.9,3.01,2.6.87.7,1.83,1.78,2.13,2.4.76,1.57.68,4.68-.18,7.1ZM286.78,238.99c.2,0,.36.16.36.34s-.07.34-.15.34-.24-.16-.36-.34c-.12-.18-.05-.34.15-.34ZM287.49,235.28c0,.68-.46,1.14-.63.63-.07-.22.04-.57.24-.77.28-.28.38-.24.38.14ZM289.62,236.67c-.77.16-.91-.19-.43-1.09.21-.39.53-.62.7-.51.55.35.36,1.47-.27,1.6ZM291.91,239.38c.57.78,1.03,1.67,1.03,1.98s.75,1.29,1.68,2.19c.93.89,1.78,2.07,1.9,2.6.3,1.38-.41,3.7-1.6,5.2-1.09,1.38-1.66,1.58-2.31.79-.33-.4-.24-.88.47-2.43,1.04-2.26,1.02-2.19.38-2.19-.28,0-.91.61-1.4,1.36-.49.74-1.04,1.28-1.2,1.17-.59-.36-.29-2.29.61-3.94.5-.92.82-1.76.71-1.87-.5-.49-1.62.37-2.27,1.75-.39.84-.87,1.52-1.07,1.52-.35,0-1.52-2.41-1.89-3.94-.14-.55.06-1.16.64-1.93.46-.62.95-1.48,1.08-1.9.13-.43.68-1,1.23-1.29.98-.5,1-.5,2.02.91ZM273.8,200.8c-1.18-1.12-2.06-2.11-1.97-2.21.1-.09.92.11,1.83.46,1.21.45,1.82.94,2.27,1.78,1.4,2.63.66,2.62-2.13-.03ZM270.22,208.89c-.76-.8-1.73-1.95-2.14-2.56-.42-.61-1.02-1.12-1.33-1.14-.33-.02-.22-.13.28-.28.6-.17.82-.44.73-.91-.07-.36-.16-1.15-.2-1.75-.05-.61-.28-1.33-.52-1.62-.36-.44-.33-.53.21-.58.35-.03.92-.03,1.25,0,.34.03,1.08-.19,1.65-.48.57-.29,1.07-.48,1.1-.42.03.06.56.84,1.18,1.73,1.27,1.83.82,2.22-.89.78-.73-.61-1.09-.74-1.37-.46-.53.53,0,1.42,1.91,3.23.86.8,1.48,1.54,1.39,1.64-.43.43-2.59-1.18-3.65-2.71-.85-1.23-1.13-1.47-.99-.85.33,1.48,1.08,3.19,2.02,4.61.98,1.47,1.56,3.24,1.06,3.24-.17,0-.93-.65-1.69-1.45ZM266.85,206.92l-.8.68c-1,.86-1.84.9-1.69.1.08-.41.49-.63,1.3-.69l1.19-.09ZM268.73,214.62c0-.08.15-.24.34-.36.19-.12.34-.05.34.15s-.15.36-.34.36-.34-.07-.34-.15ZM264.8,214.63c0-.39.47-.76,1.35-1.07,1.8-.62,1.98-.31.54.9-1.28,1.07-1.89,1.12-1.89.16ZM264.48,211.75c.41-.37,3.94-1.5,4.11-1.32.08.08-.74.61-1.83,1.19-1.23.66-2.09.94-2.29.73-.2-.2-.2-.43,0-.61ZM257.22,198.53c.12-.11.41-.13.66-.03.27.11.19.19-.21.2-.36.02-.56-.07-.45-.18ZM228.87,190.61c.38.61.38,3.44,0,3.21-.17-.11-.4-.7-.52-1.34-.26-1.38.07-2.58.52-1.87ZM228.62,189.44c-.11-.12-.13-.41-.03-.66.11-.27.19-.19.2.21.02.36-.07.56-.18.45ZM209.25,196.77c.84-.69,2.86-3.61,2.86-4.15,0-.2.23-.36.51-.36.67,0,.66,1.32-.03,3.05-.47,1.16-.73,1.39-1.79,1.57-.68.11-1.4.26-1.59.32-.68.23-.67.14.04-.44ZM155.79,191.58c.18,0,.43.15.55.34.12.19.06.34-.13.34s-.44-.15-.56-.34c-.12-.18-.06-.34.13-.34ZM147.95,188.85c.18,0,.43.15.55.34.12.19.06.34-.13.34s-.44-.15-.55-.34c-.12-.19-.06-.34.13-.34ZM144.75,185.44c.84,1.57,1.09,2.58.55,2.24-.17-.1-.55-.71-.85-1.35-.88-1.86-.63-2.63.3-.89ZM143.21,182.71c0-.18.07-.34.15-.34s.24.16.36.34c.12.19.05.34-.15.34s-.36-.16-.36-.34ZM139.82,178.18c-.46-1.65-.37-4.05.11-2.8.14.38.45,1.14.7,1.71.24.56.56,1.54.69,2.16.23,1.05.2,1.11-.42.78-.37-.2-.85-1.03-1.08-1.85ZM139.46,184.01c0-.45.77-.17.94.34.08.25-.07.33-.4.2-.29-.12-.54-.36-.54-.54ZM138.27,185.44c.12-.19.36-.34.53-.34s.32.15.32.34-.24.34-.53.34-.44-.15-.32-.34ZM98.19,212.67c-.47,0-.66-.07-.43-.17.23-.1.62-.1.85,0,.24.1.04.17-.42.17ZM100.13,214.64c-1.28.44-2.02.4-2.2-.15-.07-.22.15-.39.49-.4.34,0,1.24-.1,1.99-.22,1.54-.24,1.39.19-.28.77ZM104.67,215.81c0,.53-.81.79-2.26.71-1.16-.06-1.52.07-1.82.62-.44.82-1.12.9-1.7.2-.61-.72-.21-1.09,1.23-1.14.7-.03,1.77-.28,2.37-.57,1.05-.51,2.18-.41,2.18.18ZM108.41,217.85l-1.28,1.16c-1.19,1.07-1.98,1.4-3.64,1.52-.39.03-.53-.07-.34-.25.18-.16,1.07-.57,1.98-.91,1.86-.69,2.34-1.4,1.4-2.08-.84-.62-.37-.59.88.06l1,.52ZM103.4,222.41c.11-.12.41-.13.66-.03.27.11.19.19-.21.2-.36.02-.56-.07-.44-.18ZM112.18,220.19c0,.53-1.02.73-1.67.33-.5-.31-.87-.21-1.94.52-1.52,1.03-1.42.99-1.66.6-.1-.16.43-.72,1.17-1.24.75-.52,1.36-1.15,1.36-1.41s.12-.46.25-.46c.47,0,2.48,1.35,2.48,1.66ZM124.01,237.85c.23-.38,1.12.69,1.12,1.37,0,.74-.93.5-1.14-.3-.11-.4-.1-.89.02-1.07ZM120.99,235.58c.8.02,1.75,1.69,1.75,3.09,0,.76-.33.83-1.09.23-.52-.42-1.11-3.33-.67-3.32ZM119.2,229.84c-.49-.49-.65-.5-1.32-.07-2.49,1.58-3.86,2.07-5.2,1.86-1.97-.31-2.31-.83-.55-.83.81,0,1.88-.21,2.37-.47,1.02-.53,2.3-1.08,3.24-1.38.9-.29.49-1.08-.48-.94-.46.07-1.16.42-1.55.79-.52.48-.8.56-.98.28-.14-.24-.65-.32-1.23-.2-.81.16-.98.08-.98-.46,0-1.09-.75-2.4-1.38-2.4-.34,0-.57-.24-.54-.58.07-.85-.88-.91-1.74-.11-.93.87-1.79.89-1.79.04,0-.65.94-1.22,3.54-2.13.72-.26,1.67-.89,2.11-1.4,1.02-1.22,1.18-1.18,1.18.23,0,.64.15,1.27.34,1.39.19.11.34.81.34,1.55s.15,1.34.34,1.34.34-.15.34-.34c0-.57.63-.39,3.65,1.02,1.96.92,3.5,1.95,4.74,3.15,1,.99,2.6,2.47,3.54,3.29.94.83,1.71,1.62,1.71,1.78s.48.98,1.06,1.85c.58.86,1,1.63.92,1.71-.43.43-2.65,1.16-3.56,1.17-.86.01-1.14-.17-1.42-.93-.19-.52-.44-1.45-.55-2.08-.32-1.8-1.48-4.15-2.06-4.15-.29,0-.53.22-.53.49,0,.41-.15.41-1.02-.03-.56-.28-1.02-.67-1.02-.86s-.35-.27-.78-.16c-.54.14-.9,0-1.19-.47-.35-.55-.31-.72.31-1.04.67-.36.68-.42.16-.94ZM107.23,227.73c.12-.19.36-.34.55-.34s.25.15.13.34c-.12.18-.37.34-.56.34s-.24-.16-.13-.34ZM108.4,228.76c.2,0,.36.15.36.34s-.07.34-.15.34-.24-.15-.36-.34c-.12-.19-.05-.34.15-.34ZM111.77,232.89c.5.19.97.3,1.04.24.06-.06.5.54.97,1.34.47.8.79,1.45.71,1.45s-.93-.76-1.89-1.69c-1.42-1.37-1.58-1.63-.83-1.34ZM104.11,243.33c.09-.23.17-.04.17.43s-.08.66-.17.43c-.09-.23-.09-.62,0-.85ZM101.94,243.76c.25,0,.69,1.64.69,2.6,0,.69-.61.57-1.02-.21-.37-.69-.14-2.4.33-2.4ZM97.68,232.85c.57.62.57.68.05.68-.32,0-.67-.24-.78-.53-.32-.83.06-.9.73-.15ZM89.31,218.53c.19,0,.36.15.36.34s-.07.34-.16.34c-.08,0-.24-.15-.36-.34-.11-.19-.04-.34.16-.34ZM88.64,217.69c0-.27.16-.59.34-.7.18-.12.34.11.34.49s-.16.7-.34.7-.34-.22-.34-.49ZM72.36,189.83c.57.44.74.73.47.73-.07,0-.34-.27-.6-.6-.42-.54-.41-.55.13-.13ZM73.19,187.57c.54.61,1.55,1.54,2.25,2.06,1.23.93,1.63,1.6.93,1.6-.19,0-.92-.51-1.62-1.13-.7-.63-1.78-1.57-2.39-2.1-.61-.53-1.11-1.09-1.11-1.25,0-.65,1.02-.22,1.94.82ZM75.18,185.57c.27.11.5.43.5.72s.17.52.38.52c.47,0,4.05,3.43,4.05,3.87,0,.54-2.53-.07-3.07-.73-3.49-4.34-4.34-5.87-3.26-5.87.27,0,.58.29.7.65.11.36.43.74.7.84ZM79.97,185.8c.17.29.89.96,1.59,1.49,1.35,1.01,1.54,1.5.87,2.18-.68.68-1.43.47-2.59-.7-.6-.61-1.78-1.91-2.61-2.89-2.35-2.76-2.59-3.5-1.17-3.5.58,0,3.29,2.37,3.92,3.43ZM79.98,181.89c4.66,4.18,5.66,5.2,5.45,5.55-.4.65-1.41.44-2.65-.55-1.86-1.48-4.37-4.47-4.37-5.21,0-.9.39-.84,1.57.22ZM86.27,183.2c1.53,1.38,1.55,1.45.79,2.29-.72.8-1.15.55-3.79-2.2-1.18-1.22-2.13-2.39-2.13-2.6,0-1.29,2-.32,5.13,2.51ZM84.2,177.25c.38.2.68.49.68.64s.73.78,1.62,1.4c.89.62,2.2,1.76,2.91,2.52l1.29,1.38-.78.43c-1.05.59-1.08.58-2.37-.47-.62-.5-1.96-1.73-2.98-2.73-1.72-1.67-1.82-1.86-1.45-2.66.33-.74.5-.82,1.08-.5ZM90.16,178.61c1.54,1.77,3.01,3.08,3.46,3.08.22,0,.57.22.79.48.3.37.29.52-.05.66-.76.31-1.65.24-2.43-.17-.41-.22-1.14-.79-1.64-1.28-.49-.48-1.99-1.95-3.33-3.25-1.34-1.3-2.43-2.48-2.43-2.62s.31-.35.68-.47c.75-.24,3.08,1.45,4.93,3.58ZM94.53,180.67c-.19,0-.53-.23-.77-.51-.24-.29-.27-.52-.08-.52s.53.23.77.52.27.51.08.51ZM89.17,174.86c-.08,0-.24-.15-.36-.34-.12-.19-.05-.34.15-.34s.36.15.36.34-.07.34-.15.34ZM74.12,141.36c.03-.96.44-1.27,1.7-1.28.99,0,.99,0,.34.72-.36.4-.95.84-1.33,1-.38.15-.69.29-.71.3-.02.01-.02-.32,0-.74ZM42.01,146.34c-.83-.22-1.48.72-2.24,3.29-.78,2.63-1.05,4.92-.67,5.67.18.35.43,1.09.57,1.66l.23,1.02-.57-.8c-.32-.44-.79-1.5-1.04-2.35-.36-1.19-.38-2.05-.12-3.7.43-2.68.56-3.04,1.77-4.82,1.18-1.74,2.36-2.14,6.29-2.14,5.58,0,6.69.83,1.48,1.11-2.22.12-3.7.37-4.22.71-.44.29-1.1.44-1.47.35ZM40.32,153.66c.11-.27.19-.19.21.21.02.36-.06.56-.18.44-.11-.11-.12-.41-.03-.65ZM42.25,161.56c-.36-.66-.64-1.5-.64-1.88,0-.45.23-.22.64.68.84,1.8.84,2.72,0,1.19ZM44.17,164.83c.47,1.13.67,3.52.27,3.11-.12-.11-.48-1.21-.81-2.44-.62-2.29-.3-2.69.54-.68ZM41.91,175.9c0-.18.44-.83.98-1.45.53-.62,1.15-1.68,1.38-2.36.24-.73.68-1.32,1.07-1.42,1.02-.27.92-3.85-.18-6.53-.92-2.24-.87-2.66.2-1.69,1.58,1.43,2.15,3.65,1.63,6.28-.52,2.62-2.3,6.3-3.35,6.94-.99.62-1.72.71-1.72.23ZM30.68,166.06c.25.08.52.36.6.6.08.25-.04.38-.3.3-.24-.08-.52-.35-.59-.6-.09-.26.04-.38.29-.3ZM29.08,164.3c.31,0,.56.23.56.51s-.06.51-.13.51-.32-.23-.56-.51c-.34-.42-.32-.51.13-.51ZM13.26,145.74c.56,1.51,2.41,4.95,3.3,6.14.78,1.03,5.59,4.84,8.55,6.77,1.58,1.03,1.77,1.4.85,1.64-.33.09-.65.18-.71.2-.06.02-1.1-.67-2.32-1.54-1.22-.87-2.77-2.25-3.46-3.07-.68-.82-1.43-1.49-1.65-1.49-.94,0-3.68-4.42-4.72-7.63-.58-1.79-.44-2.67.16-1.03ZM18.51,152.75c-1.54-1.53-3.83-5.33-3.45-5.72.09-.09.53.42.96,1.13.78,1.28,1.93,2.8,3.84,5.08,1.45,1.73.56,1.41-1.36-.49ZM12.38,137.55c.13-1.52.26-3.31.31-3.99.09-1.42,2.55-4.94,3.76-5.39,2.19-.81,2.96-.97,3.16-.66.12.18-.04.61-.34.94-1.02,1.13-.6,1.44.87.64.77-.42,1.8-.99,2.29-1.25.74-.4,1.36-.41,3.96-.04,3.41.48,6.91,1.67,10.96,3.7,1.48.74,3.3,1.54,4.05,1.78.75.23,2.3.94,3.45,1.58,1.15.64,3.23,1.55,4.61,2.04,3.25,1.13,3.84,1.47,2.59,1.48-1.29.02-8.59-2.14-12.26-3.63-1.64-.66-3.15-1.14-3.37-1.07s.66.57,1.95,1.1c1.29.53,2.81,1.19,3.37,1.46,1.69.82,9.43,3.11,11.3,3.36,1.14.15,1.83.09,1.98-.15.33-.53,1.78-.46,3.77.18,1.02.32,3.28.59,5.63.65,4.08.12,4.89-.08,8.53-2.08,1.4-.78,2.81-1.44,4.53-2.17,1.22-.51,1.75-.97,2.1-1.81.26-.62,1.37-1.97,2.47-3,1.82-1.7,3.23-2.81,8.46-6.69,2.6-1.93,6.1-3.37,10.24-4.21,5.58-1.13,7.89-1.39,10.91-1.23,2.94.17,4.76.76,5.77,1.88.36.39.81.71,1.02.71s-.08-.42-.62-.92c-.54-.5-.83-.97-.63-1.04.5-.17,4.83,1.02,8.13,2.24,6.16,2.27,10.01,4.71,15.44,9.76,2.12,1.98,4.16,3.76,4.52,3.96.82.44,1.33.16,1.33-.72,0-.47.23-.66.83-.66.45,0,.93.15,1.04.34.12.19.61.34,1.1.34s1.88.17,3.08.38c1.98.35,2.17.45,2.02,1.11-.61,2.52-.63,3.29-.12,3.29.56,0,1.26-1.65,1.26-2.97,0-.74.12-.81,1.28-.72.92.07,1.25.25,1.17.6-.06.28-.2,1.24-.31,2.13-.18,1.49-.13,1.63.53,1.63.49,0,.78-.27.9-.86.09-.47.26-1.23.36-1.7.16-.79.94-1.12,2.04-.85.19.05,1.3.27,2.48.5,1.18.23,2.21.48,2.29.57.08.08-.02.73-.24,1.43-.32,1.05-.3,1.37.12,1.78.45.45.6.32,1.33-1.23l.82-1.75,1.37.22c.75.12,1.42.27,1.48.33.06.06-.14.66-.46,1.32-.56,1.15-.48,2.29.14,2.29.16,0,.47-.37.67-.83.45-.99,1.49-2.24,1.85-2.24.14,0,.23.73.18,1.62-.11,2.11.69,2.21,1.37.17.41-1.23.62-1.45,1.39-1.44,1.37,0,1.69.37,1.64,1.84-.06,1.61.65,2.02,1.16.67.2-.52.52-1.13.7-1.35.55-.67,1.53-.15,1.86,1,.39,1.32,1.41,1.65,1.57.51.11-.73.27-.79,2.33-.77,1.22,0,2.83.13,3.58.28,1.25.24,1.55.14,3.58-1.23,3.37-2.27,5.28-4.34,4.48-4.83-.16-.11-.22-.57-.13-1.04.15-.81.08-.86-1.24-.86-1.57,0-1.53.04-1.06-1.21.31-.81.48-.89,1.45-.69,2.12.43,2.78.38,2.9-.2.11-.56-.11-.68-2.06-1.12-.83-.18-.9-.29-.58-.91.45-.84,1.86-.77,1.86.1,0,.59,1.08,1.61,1.71,1.62.38,0,1.53-2.15,1.53-2.87,0-.26.2-.68.44-.92.24-.25.86-1.18,1.37-2.06.84-1.45,1.03-1.59,1.91-1.41,1.53.3,1.69-.5.34-1.63-1.01-.83-1.07-.96-.45-.97.39,0,.81-.11.93-.22.38-.38-.4-1.4-1.24-1.61-.45-.12-1.23-.74-1.73-1.41-.8-1.05-.84-1.2-.29-1.2.35,0,.97.24,1.38.53.72.5,1.44.42,1.44-.16,0-.14-.58-.55-1.28-.91-2.68-1.35-3.37-2.6-1.37-2.45,1.58.12,1.45-.75-.25-1.64-1.57-.82-2.12-2.02-.77-1.68.53.13.97.02,1.25-.32.38-.45.22-.58-1.15-.95-1.29-.34-1.57-.55-1.48-1.12.06-.42.4-.73.87-.8.42-.06.77-.32.77-.58s-.34-.51-.77-.57c-.49-.07-.8-.38-.88-.88-.09-.64.05-.77.88-.77.54,0,1.09-.1,1.21-.22.36-.35-.46-1.14-1.17-1.14-.54,0-.65-.29-.7-1.88-.03-1.03-.07-2.14-.08-2.47-.06-1.23,1.1-.69,4.4,2.06,5.05,4.21,6.83,5.35,8.37,5.35,1.2,0,2.38-.67,2.38-1.34,0-.58-.91-.97-2.22-.94-1.65.03-4.36-1.6-6.58-3.99-.81-.87-1.59-1.58-1.75-1.58-.49,0-2.35-2.09-2.9-3.25-.44-.92-.48-1.64-.22-4.15.17-1.67.54-3.56.83-4.21.28-.65.7-1.93.94-2.85.33-1.31.67-1.81,1.58-2.34.83-.49,1.13-.89,1.05-1.4-.16-1.12-1.98-1.15-3.58-.07-.71.48-1.57.88-1.92.88-.96,0-.56-1.17.45-1.31.47-.07.94-.27,1.05-.45.17-.28.82-.5,1.75-.6.49-.05.25-1.05-.25-1.05-.28,0-.51-.16-.51-.37s.52-.32,1.28-.26c.96.08,1.28-.02,1.28-.4,0-.28-.35-.56-.77-.62-.42-.06-.77-.27-.77-.46,0-.22.61-.27,1.67-.12,1.58.22,1.7.18,2.41-.82l.75-1.05-.74-.27c-.66-.24-.68-.32-.19-.72.3-.24.54-.66.54-.92s.23-.47.52-.47.61-.22.71-.49c.11-.27.57-.74,1.04-1.05.8-.53.83-.53.52.07-.19.34-.66.92-1.05,1.27-.4.36-.72.85-.72,1.1,0,.79,1.63.5,2.6-.47.61-.62.98-.78,1.07-.5.22.67-.19,1.43-.78,1.43-1.25,0-5.65,4.3-5.03,4.91.44.44,1.72.16,2.33-.5,1.28-1.41,4.71-3.04,6.41-3.04,1.13,0,1.78-.2,2.27-.68.7-.7,2.73-.96,2.73-.33,0,.19-.38.52-.85.73-.47.22-.85.51-.85.66,0,.94,2.52.69,3.74-.36.69-.6,1.72-.62,1.72-.04,0,.13-.62.58-1.37,1-1.32.74-1.64,1.19-1.11,1.53.54.33,3.66-.71,3.78-1.27.14-.72.48-.7,1.44.07.87.71.66,1.42-.44,1.42s-3.01.78-2.87,1.18c.07.2.63.31,1.24.24.9-.09,1.08,0,.92.42-.31.79.38,1.04,2.61.95,1.96-.08,2.05-.04,3.38,1.35l1.36,1.43,1.41-.52c1.94-.72,2.45-.48,1.58.74-1.14,1.59-.73,2.39.52,1.02.35-.38,1.13-1,1.73-1.38,1.04-.64,1.16-.65,2.26-.12,1.3.62,2.32,1.9,1.68,2.12-.56.18-.48,1.09.1,1.09.27,0,.73-.24,1.03-.54.6-.6,1.72-.38,1.44.29-.63,1.56-.64,1.62-.1,1.62.3,0,.85-.19,1.22-.41.54-.34.78-.3,1.39.26,1.2,1.08,1.8,2.5,1.32,3.09-.33.39-.28.63.2,1.17.34.37.86.68,1.16.68s.98.23,1.52.51c.53.28,1.17.51,1.4.51s.62.22.84.49c.22.27,1.09.72,1.93,1.01,1.32.44,1.55.45,1.72.03.11-.27-.13-.89-.52-1.39-.52-.65-.62-1.06-.39-1.49.58-1.08,1.19-1.32,4.1-1.55,3.02-.24,7.59.31,11.77,1.42,1.19.32,3.66.57,5.93.61,3.71.06,3.92.11,4.6.93.6.73.93.84,2,.71.72-.09,1.49.01,1.76.24.36.3.67.31,1.19.03.76-.4.93-1.2.34-1.56-.21-.13-.29-.42-.2-.66.36-.94-.53-1.18-1.86-.5-.72.37-1.5.67-1.74.67-.82,0,1.6-1.38,3.34-1.89.95-.28,2.03-.73,2.39-1.01.75-.56,2.46-.66,3.61-.2,1.16.45,3.09,2.35,2.83,2.78-.32.52.12,2.03.59,2.03.63,0,1.64,1.08,1.64,1.76,0,.89-.7.78-1.52-.24-.48-.6-.88-.8-1.29-.64-.83.32-.74,1.06.26,2.06.47.47.85.91.85.97s-.46.2-1.02.32c-1.19.24-1.28.64-.36,1.56.93.93,1.78,2.67,1.42,2.9-.17.1-.51-.07-.77-.38-1-1.22-3.15-2.5-4.19-2.49-.58,0-1.82.38-2.76.85-.98.48-2.31.84-3.14.84-1.4,0-2.15-.42-1.48-.84.52-.32.42-1.53-.14-1.75-.57-.22-2.17.49-5.51,2.46-1.33.78-2.94,1.54-3.59,1.68-.64.13-1.58.46-2.08.72-.5.26-2.58.7-4.6.99-2.92.42-4.2.44-6.16.15-2.04-.31-2.8-.28-4.31.16-1,.29-2.02.77-2.25,1.05-.67.8-1.1.61-2.39-1.03-1.07-1.37-1.3-1.5-2.26-1.32-.95.18-1.13.08-1.62-.91-.31-.61-.55-1.53-.55-2.04,0-.88-.71-1.55-1.16-1.1-.37.37-.22,3.01.2,3.43.22.22.29.51.16.65-.13.13-.48-.1-.77-.52-.29-.42-.93-1.13-1.4-1.57-.51-.47-.97-1.35-1.08-2.09-.26-1.6-.91-1.87-1.18-.5-.12.57-.4,1.04-.65,1.04s-1.1-1.02-1.91-2.25c-1.99-3.05-2.61-2.49-.93.85.67,1.33,1.08,2.43.91,2.43-.38,0-3.96-5.32-4.45-6.6-.19-.49-.5-.9-.69-.9-.64,0-.36,1.04.79,2.83,2.15,3.37,1.77,4.37-.73,1.93-.88-.87-1.55-1.92-1.8-2.81-.21-.79-.44-1.63-.51-1.86-.19-.69-1.07-.48-1.28.31-.11.4-.03,1.04.16,1.4.25.47.24.78-.02,1.04-.2.2-.38.31-.4.22-.23-1.41-.41-1.94-.8-2.33-.66-.66-1.31-.14-1.07.84.17.67.08.82-.53.82-1.01,0-4.67,2.09-5.88,3.36-1.06,1.11-1.03,1.82.13,2.43.61.33.84.23,1.63-.66.51-.57,1.15-1.04,1.44-1.04.51,0,4.26,3.57,5.95,5.67.85,1.06,1.71,2.86,1.36,2.86-.27,0-3.34-2.55-5.89-4.88-1.19-1.09-2.25-1.89-2.36-1.78-.11.11.98,1.38,2.43,2.83,1.45,1.45,2.95,3.17,3.34,3.83.39.66,1.03,1.54,1.42,1.96,1.44,1.58,0,.68-1.8-1.12-1.03-1.03-2.38-2.1-2.98-2.39-.61-.29-1.11-.7-1.11-.91s-.11-.28-.23-.15c-.13.13.47.97,1.33,1.85.86.89,2.26,2.67,3.12,3.96.86,1.29,1.87,2.57,2.24,2.83.66.47,1.62,3.07,1.26,3.43-.1.1-1.19-.69-2.44-1.75-1.24-1.05-2.4-1.83-2.58-1.72-.43.26-.06.83.55.83s1.3,1.26,1.03,1.95c-.25.66,3.11,4.19,3.98,4.19.49,0,1.63,1.54,1.63,2.2,0,.62-1.25-.02-2.61-1.35-.87-.84-1.84-1.53-2.17-1.53s-.78-.23-1.02-.51c-.23-.28-.58-.51-.78-.51s1.17,1.54,3.03,3.42c3.11,3.15,4.06,4.42,3.3,4.42-.17,0-.98-.69-1.8-1.54-.83-.84-1.77-1.53-2.1-1.53s-.68-.15-.8-.34c-.12-.18-.52-.34-.91-.34-.92,0-.63.82.34.96.42.06.98.57,1.29,1.16l.54,1.05-1.05-.21c-.83-.17-1.06-.1-1.06.33,0,.75-1.94.36-4.03-.81-2.73-1.53-3.29-1.79-3.81-1.79-.28,0-.97-.31-1.53-.68-1.79-1.19-1.72-.74.17,1.02,1,.94,2.02,1.7,2.25,1.7.88,0,5.6,3.46,5.6,4.1,0,.35.32.73.71.86.39.12,1.69,1.21,2.9,2.41,1.57,1.57,2.19,2.44,2.19,3.08,0,.88,0,.88-.94.29-.52-.33-1.25-.88-1.64-1.23-.39-.36-.92-.63-1.19-.63-.35,0-.3.15.17.51,1.03.78,3.94,3.54,3.94,3.74,0,.47-.85.04-2.64-1.3-1.35-1.02-3.22-1.93-5.99-2.92-4.62-1.65-6.26-1.74-2.95-.16,2.39,1.14,3.24,1.89,2.96,2.63-.28.73.17,1.17,2.16,2.08,2.11.96,2.53,1.3,5.02,4.06,1.64,1.82,2.29,3.29,1.45,3.29-.52,0-.4,1.23.17,1.71.78.66.67,1.68-.17,1.47-1.08-.28-.84.79.43,1.93,1.31,1.17,1.02,1.78-.44.92-.97-.57-1.01-.57-1.01,0,0,.33.69,1.24,1.54,2.01.84.78,1.53,1.59,1.53,1.8,0,.48-.91.53-1.19.06-.12-.19-.53-.34-.91-.34-.57,0-.67.17-.54.85.09.47.03.85-.13.85-.66,0-.23,1.19.87,2.4,1.54,1.71,1.93,2.47,1.55,3.08-.24.39-.49.27-1.24-.64-.94-1.14-3.63-3.13-4.23-3.13-.18,0-.32.15-.32.34s.17.34.38.34c1.23,0,5,4.97,4.59,6.05-.13.34-.92-.29-2.61-2.09-1.33-1.43-2.56-2.59-2.73-2.59-.63,0-.26.93.75,1.89,1.58,1.51,3.02,3.73,3.23,5l.18,1.12-.61-.85c-1.09-1.53-3.83-4.09-4.36-4.09-.82,0-.62.52.87,2.23.75.88,1.28,1.69,1.17,1.81-.21.21-3.19-2.98-3.22-3.45,0-.14-.25-.26-.54-.26s-.43.16-.31.36c.12.19.06.56-.14.79-.27.32.17,1.5,1.68,4.5,2.15,4.3,2.47,5.86,1.51,7.23-.48.68-2.44,1.15-2.13.5.07-.14.33-.67.59-1.18.25-.5.36-1.18.23-1.51-.19-.51-.29-.53-.69-.11-.76.79-2.23,3.62-1.99,3.85.12.12.94.22,1.84.22s2.04.15,2.54.35c.65.24,1.06.23,1.38-.04.95-.79,9.91-.42,13.95.58,1.12.28,3.04.79,4.26,1.15,5.92,1.73,11.48,3.04,13.98,3.3,2.2.22,1.78.23,7.14-.18l4.24-.33,1.87,1.19c2.97,1.9,3.29,2.39,4.72,7.27.84,2.85,5.45,12.16,6.43,12.97.27.23.5.53.5.68,0,.32,6.61,10.23,8.31,12.45,1.55,2.04,2.7,5.06,2.42,6.36-.12.53-.92,2.14-1.77,3.56l-1.55,2.59.19,2.78c.11,1.62.03,3.42-.19,4.32-.41,1.65-2.45,4.77-3.12,4.77-.22,0-.91-.65-1.51-1.44-1.08-1.4-1.09-1.44-.39-1.7,1.13-.42.69-1.43-.7-1.63-.78-.12-1.04-.27-.75-.45.57-.37,1.44-2.49,1.44-3.51,0-.76-.3-.96-1.26-.84-.28.03-.34-.33-.21-1.15.17-1.07.1-1.23-.73-1.54-.87-.33-.91-.43-.68-1.97.13-.89.45-1.92.7-2.29.69-1,.57-1.31-.8-2-1.21-.6-1.28-.6-1.7-.02-.24.33-.44.73-.44.88s-.33.28-.73.28c-.66,0-.7-.13-.5-1.41.13-.77.45-1.73.73-2.12.28-.39.5-1,.5-1.37,0-.53-.17-.61-1-.45-.63.13-1.05.05-1.13-.21-.16-.48.54-4.04.92-4.64.42-.69-.47-1.42-1.43-1.18q-.87.22-.66-1.6c.33-2.81.86-2.94,2.15-.5.4.75.83,1.83.95,2.39.37,1.63,2.72,6.28,3.19,6.29.23,0,.43.32.43.68,0,.79,1.08,1.47,1.85,1.17,1.19-.45.37-2.39-1.25-2.97-.79-.28-.75-1.01.09-1.77.79-.72.88-1.63.22-2.18-.36-.29-.67-.22-1.33.3-1.05.83-1.49.22-.75-1.06.88-1.54.93-1.72.53-2.11-.3-.3-.55-.3-1.05.01-.87.54-1.12.1-.98-1.72.1-1.26.03-1.43-.56-1.38-.93.08-1.14-.38-.94-2.14.11-.93.03-1.5-.19-1.5-.19,0-.42.18-.49.4-.08.23-.32.29-.58.13-.31-.19-.37-.71-.21-1.77.18-1.2.12-1.49-.29-1.49-.28,0-.61.16-.73.36-.44.72-1.25-.44-1.07-1.53.09-.58.22-1.34.28-1.72.07-.41-.11-.71-.45-.78-.4-.08-.74.34-1.17,1.49-.61,1.59-.61,1.61.19,3,1.63,2.82,2.66,5.15,2.35,5.27-.72.26-1.32-.32-1.32-1.28,0-.71-.21-1.07-.68-1.23-.47-.15-.68-.52-.68-1.17,0-.53-.23-1.15-.51-1.38-.28-.24-.52-.31-.52-.17s-.23.06-.51-.17c-.28-.24-.51-.98-.51-1.69,0-.98-.17-1.35-.75-1.61-.52-.23-.75-.64-.77-1.33-.01-.83-.14-.98-.8-.91-.84.09-3.51-1.81-3.44-2.45.12-1.11-.06-1.3-1.08-1.1-.59.12-1.33.03-1.7-.21-.54-.34-.77-.31-1.23.16-.53.53-.66.53-1.8-.05-.97-.49-1.9-.6-4.47-.54-2.8.06-3.3-.01-3.69-.56-.45-.64-1.43-.87-1.43-.33,0,.17.24.49.53.74.42.35.44.49.08.72-.59.38-1.98.37-1.98-.02,0-.42-2.12-1.73-2.45-1.53-.39.24.7,1.78,1.37,1.92.32.07-.24.23-1.23.37-1.54.22-1.94.15-2.69-.44-.88-.69-1.81-.92-1.81-.44.02.99.5,1.79,1.08,1.79.69,0,1.64.74,1.64,1.28,0,.17-1.8.76-4.01,1.3-4.95,1.24-8.53,1.3-12.54.23-1.5-.4-4.17-.92-5.94-1.14-2.82-.37-3.13-.47-2.57-.87.79-.58,3.27-.58,6.81,0,3.19.52,14.67.53,15.18.02.45-.45-3.3-4.34-3.95-4.09-.52.2-.34,1.05.42,1.94.26.3.36.64.23.77-.57.57-1.43.11-2.44-1.33-1.48-2.1-2.29-1.48-1.26.96.51,1.22-1.04.6-2.69-1.08-1.64-1.66-2.59-1.92-2.59-.72,0,.33.38.86.85,1.17,1.03.68,1.1,1.23.14,1.23-.78,0-1.25-.39-2.18-1.81-.42-.64-.74-.84-.97-.61-.23.22-.14.64.26,1.26l.61.92-1.15-.23c-1.13-.23-2.32-1.34-2.34-2.17,0-.23-.36-.51-.79-.62-.65-.17-.87-.57-1.21-2.23-.39-1.91-1.04-2.74-1.1-1.43-.02.33-.06,1.12-.09,1.76-.1,2.11-.8,1.55-1.4-1.12-.54-2.45-1.81-4.65-2.14-3.71-.28.79-.78.43-.78-.58,0-.55-.14-1.09-.33-1.21-.7-.43-1.43,1.55-1.73,4.66-.16,1.75-.39,3.65-.52,4.22-.29,1.38.39,3.9,1.06,3.9.76,0-.02,1.3-1.07,1.78-1.14.52-2.35-.07-3.08-1.5-1.52-2.96-4.51-5.58-9.27-8.1-3.06-1.63-3.84-2.43-3.84-4.01,0-1.03-.22-1.49-1.08-2.25-1.28-1.12-2.16-1.07-2.18.12-.02.92-.05.93-2.71.39-2.84-.57-3.03.08-.43,1.48,1.84.99,3.74,2.35,5.54,3.95.57.51,1.37,1.02,1.79,1.14.42.13.77.37.77.54,0,.72-1.7,3.27-2.5,3.74-.47.28-1.27,1.01-1.77,1.62-.5.61-1.15,1.1-1.45,1.1-.43,0-.39-.15.2-.79.41-.43.74-1.01.74-1.28s.32-1.01.7-1.64c.87-1.42.65-2.5-.32-1.62-.35.32-.89,1.16-1.22,1.88-.38.84-1,1.5-1.75,1.86-.89.42-1.17.77-1.17,1.46,0,.76-.11.87-.77.69-.42-.11-1.23-.21-1.79-.22l-1.02-.02.82-.58c1.28-.91,3.11-2.88,3.11-3.35,0-.88-.73-.83-1.63.11-1.54,1.61-4.36,3.45-5.41,3.52-1.84.13-1.94,0-.7-.94,1.34-1.02,1.87-2,1.33-2.53-.22-.22-.55-.12-.97.3-1.41,1.42-4.87,3.51-5.79,3.51-.45,0,.03-.86.89-1.59.98-.82,1.4-2.16.68-2.16-.33,0-1.4,1.03-3.01,2.89-.48.55-.99.84-1.3.72-.29-.11-.84-.2-1.24-.2-.64,0-.58-.14.54-1.29.69-.71,1.27-1.4,1.27-1.53,0-.67-1.17-.09-2.48,1.23-1.58,1.58-2.29,1.69-2.29.37,0-.52-.2-.82-.53-.82-.42,0-.48-.25-.3-1.23.21-1.08.16-1.22-.41-1.11-.35.07-.91.66-1.24,1.31-.61,1.23-1.39,1.58-1.51.68-.31-2.35-.54-3.07-.98-3.07-.56,0-.96,1.24-.78,2.44.09.67-.02.79-.66.7-.46-.07-.85.11-.97.42-.32.82-.82.64-.82-.3,0-.46-.16-.93-.34-1.04-.19-.12-.35-.78-.36-1.47-.01-1.29-.62-2.45-1.28-2.45s-.77.61-.41,2.25c.62,2.77-.69,2.89-2.15.21-.48-.88-.98-2.33-1.1-3.22-.13-.89-.37-1.62-.53-1.62-.53,0-.72,2.26-.32,3.73.21.8.31,1.54.21,1.64-.26.26-1.15-.53-1.65-1.47-1.04-1.94-4.01-7.92-4.39-8.84-.4-.99-.42-1-.56-.21-.17.99,1.25,5.08,3.01,8.7.73,1.48,1.24,2.82,1.15,2.97-.23.37-1.18,0-1.18-.46,0-.33-1.41-2.11-3.16-4.01-.43-.47-1.15-1.78-1.6-2.9-.44-1.12-1.56-3.04-2.49-4.26-1.86-2.44-1.86-1.95-.03,1.95.64,1.35,1.15,2.63,1.15,2.84s.54,1.45,1.19,2.75q1.35,2.69.77,2.67c-.54-.02-3.35-4.32-4.46-6.81-1.9-4.28-2.97-6.41-3.44-6.79-.75-.63-1.01.15-.42,1.24.28.52.9,2.51,1.37,4.44.47,1.92,1.03,3.8,1.23,4.17.29.54.26.64-.13.49-.68-.26-2.97-4.81-4.12-8.16-.51-1.5-1.21-3.34-1.55-4.09-.34-.75-.71-1.65-.82-2.01-.11-.36-.28-.58-.36-.49-.32.32.59,4.65,1.71,8.09.64,1.98,1.09,3.65,1.02,3.74-.59.58-2.39-3.13-3.21-6.6-.4-1.7-1.9-5.42-2.52-6.23-1.05-1.39-1.23.62-.28,3.16,1.3,3.49,1.22,5.5-.16,3.41-.31-.47-.77-.86-1.02-.86-.58,0-1.95-4.39-2.03-6.48-.09-2.54-.14-2.73-.68-2.73-.28,0-.67.41-.86.9-.33.87-.36.88-1.01.29-.37-.33-.67-.92-.67-1.3,0-.92,2.02-5.01,2.57-5.22.24-.1.53-.41.65-.68.27-.72-.14-2.16-.61-2.16-.79,0-2.32,2.08-3,4.09-.73,2.17-.73,1.72-.08,12.29l.19,3.25-1.22,1.82c-.67,1-1.23,2.02-1.23,2.27,0,.56-1.61,1.87-2.3,1.87-.52,0-4.38,2.68-6.74,4.69-.75.63-2.44,1.68-3.75,2.33-2.51,1.23-2.35,1.2-15.34,2.54-2.06.22-4.67.61-5.8.87-1.13.27-2.54.49-3.15.49-1,0-1.11-.09-1.11-1.01,0-1.21-.44-1.32-1.17-.28-.37.52-.42.87-.17,1.17.49.59-2.8.96-6.01.68-2.44-.22-4.25-.03-4.25.45,0,.64.97,1.39,2.03,1.57,1.41.24,2.06.72,2.06,1.52,0,.33.44,1.42.98,2.43.54,1.01,1.09,2.22,1.23,2.69.25.86,2.56,5.56,4.27,8.7.51.94,1.11,2.24,1.32,2.9.48,1.48,4.33,6.05,6.16,7.32.75.52,1.78,1.5,2.29,2.19.51.68,1.43,1.81,2.06,2.52.86.97,1.13,1.59,1.13,2.58,0,1.12-.11,1.3-.73,1.28-.52-.02-.83.26-1.06.93-.4,1.17-.11,1.54.78.98.54-.34.67-.33.67.08,0,.27-.15.59-.34.7-.52.32-.42.64.37,1.14.6.37.77.36,1.1-.09.34-.45.51-.33,1.14.83.72,1.32.72,1.38.11,1.71-.34.18-.86.34-1.14.34-.8,0-.93.53-.29,1.13,1.9,1.79,3.02,2.51,3.58,2.31.54-.19.55-.28.09-.89-.8-1.05-.68-1.77.16-1,1.23,1.12,2.63,4.02,3.06,6.38.49,2.73.36,3.24-.92,3.4-1.41.18-1.64.03-2.13-1.36-.59-1.66-.98-2.12-1.6-1.89-.29.12-.72-.11-1.02-.53-.59-.85-1.15-.96-1.15-.22,0,.28-.23.51-.5.51-.46,0-.69-.75-.94-3.07-.06-.49-.31-.85-.61-.85-.37,0-.52.4-.54,1.45-.02.8-.12,1.54-.22,1.64-.37.38-.95-2.03-.95-3.96,0-1.09-.15-2.37-.34-2.86-.28-.73-.45-.83-.98-.55-.52.28-.71.19-1.02-.49-.21-.46-.63-.84-.94-.84-1.59,0-3.66-3.11-3.08-4.62.18-.47.42-.31,1.26.85.85,1.17,1.13,1.35,1.53,1.02.65-.54.62-1.07-.11-1.89-.8-.9-2.13-2.79-2.13-3.02,0-.1-.23-.45-.52-.78-.78-.88-2.89-3.81-2.89-4.01,0-.09.23-.17.51-.17s.51.3.51.66c0,.42.5.95,1.36,1.43.75.42,1.37,1,1.37,1.28s.1.41.22.28c.12-.12.42-.06.67.14.58.48,1.18.09.92-.59-.37-.95-1.89-2.38-2.06-1.91-.24.68-.78.49-.78-.27,0-.38-.22-.78-.48-.88-.27-.1-.59-.79-.72-1.54-.17-1.01-.37-1.33-.79-1.24-.31.06-.62.45-.68.89-.06.43-.33.87-.61.98-.28.11-.73.63-1.01,1.17-.28.54-.62.98-.75.98-.34,0-1.52-3.79-1.25-4.05.11-.12.41.06.64.39.24.33.77.59,1.17.59.58,0,.73-.21.73-.99,0-1.4-.32-2.08-.99-2.08-.6,0-1.53-1.81-1.43-2.78.09-.85-.53-1.05-1.18-.4-.44.44-.53.93-.38,2.02.16,1.12.08,1.48-.33,1.64-.82.31-1.05,0-1.31-1.71-.22-1.5-.18-1.63.98-2.69,1.83-1.68,1.59-2.26-.57-1.37-.56.23-.56.17-.06-1.04.49-1.17.49-1.31,0-1.59-.29-.17-.54-.6-.54-.97,0-.94-.9-.83-1.57.18-.69,1.06-1.25.79-.81-.37.56-1.47.36-2.3-.88-3.63-1.47-1.58-1.88-1.62-1.63-.13.2,1.27-.31,1.88-1.06,1.26-.45-.37-.32-1.63.32-3.19.43-1.06-.72-1.93-2.52-1.9-.87.02-1.77.18-2.02.38-.32.26-.67.13-1.28-.44-1.14-1.08-1.08-1.7.18-1.7.57,0,1.33-.3,1.71-.68.82-.82.91-2.57.14-2.86-.93-.36-1.17-.23-1.17.64,0,.53-.19.86-.51.86-.28,0-.51-.28-.51-.62s-.19-.88-.43-1.21c-.4-.54-.51-.52-1.53.33-.61.51-1.1,1.12-1.1,1.38,0,.77-.5.52-1.15-.58-.9-1.52-1.27-3.05-.9-3.72.17-.32.47-1.57.66-2.77.4-2.52.9-3.03,2.9-3.05,2.46-.02,5.58-.88,6.92-1.9.7-.54,2.2-1.58,3.33-2.3,1.12-.73,2.49-1.63,3.03-2,1.44-1,5.56-1.41,9.48-.95,4.67.55,5.15.56,5.31.12.07-.22-.68-.81-1.68-1.3-2.36-1.18-3.45-2.19-2.99-2.75.4-.48-.76-1.44-2.74-2.28-1.2-.5-2.29-1.5-1.98-1.81.09-.09.75.08,1.46.37.98.41,1.38.44,1.67.14.28-.3.22-.5-.26-.79-.35-.22-1.19-.76-1.88-1.21-.68-.46-1.76-.86-2.4-.9-1.02-.06-1.27-.28-1.98-1.68-.45-.89-.77-1.67-.69-1.74.07-.07,1.01.48,2.11,1.23,1.83,1.24,3.22,1.77,2.78,1.06-.1-.16-1.57-1.27-3.26-2.47-2.81-1.98-3.55-2.7-2.81-2.7.15,0,.42.14.6.31.58.55,5.16,2.76,5.73,2.76,1.15,0,.48-.66-1.91-1.86-3.18-1.6-5.41-2.86-6.06-3.4-.28-.24-.77-.52-1.09-.64-.74-.26-1.5-1.6-.91-1.6.23,0,.66.21.95.47,1.86,1.62,6.17,2.99,6.17,1.97,0-.17-.98-.78-2.17-1.36-1.19-.59-2.85-1.67-3.68-2.4-.84-.73-1.89-1.39-2.33-1.45-.55-.08-.9-.42-1.06-1.03-.13-.5-.16-1-.06-1.1.1-.1.96.38,1.93,1.07.95.68,2.28,1.35,2.93,1.48.65.13,1.48.36,1.84.5.47.2.6.14.48-.21-.09-.26-1.08-1.02-2.2-1.67-2.96-1.74-5.92-4.16-5.92-4.86,0-.33.07-.61.16-.61s1.62.72,3.41,1.59c4.78,2.34,4.71,1.52-.16-1.9-1.03-.72-2.25-1.72-2.7-2.21-.46-.49-1.03-.89-1.28-.89s-.45-.25-.45-.55c0-.39.18-.48.6-.31.33.14,1.07.38,1.64.55.57.17,1.67.84,2.44,1.5,1.37,1.17,2.14,1.49,2.14.89,0-.17-.73-.89-1.62-1.6-1.88-1.51-5.88-5.57-5.88-5.96,0-.14.81.18,1.79.72.98.54,1.98.99,2.22.99.87.01.4-1.32-.7-2-.62-.38-1.41-1.01-1.76-1.39-.35-.38-.91-.69-1.26-.69-.76,0-.83-.96-.12-1.5.79-.58.83-2.93.05-3.4-.52-.32-.71-.27-1.02.26-.91,1.5-2.58,2.94-3.44,2.94-1.16,0-1.11-.14.32-1.03,1.21-.74,1.54-1.53.77-1.79-.33-.11-.32-.27.04-.7,1.1-1.33-.55-2.11-2.19-1.04-.46.3-1.42.75-2.12.99-.82.28-1.27.66-1.28,1.04,0,.75-.72,1.02-1.34.49-.36-.29-.95-.26-2.46.17-1.1.31-2.34.64-2.76.74-1.07.25-.96.78.15.78,1.29,0,.69.45-2.05,1.53-1.6.63-2.61.85-3.24.69-1.23-.31-9.02-.87-14.91-1.07-4.32-.14-4.87-.1-5.84.51-2.46,1.54-3.54,4.2-3.54,8.76,0,2.72.43,3.94,2.3,6.49.42.58.78,1.19.78,1.37,0,.17.31.92.67,1.67.36.75.66,1.58.67,1.83,0,.26.4,1.23.87,2.16.84,1.68,1.2,4.63.51,4.2-.19-.12-.34-.51-.34-.87s-.17-.67-.38-.67-.3.31-.19.74c.31,1.17-.39,4.11-1.15,4.81-.85.79-1.67.55-1.72-.5-.03-.59-.12-.48-.38.41-.98,3.37-3.14,6.02-6.23,7.64-1.73.9-3.24,1.17-3.24.56,0-.18.36-.53.8-.77,1.34-.73,4.64-4.56,4.86-5.62.11-.55.04-1.86-.16-2.92-.42-2.26-3.68-9.13-5.15-10.83-.57-.66-1.03-1.32-1.03-1.48,0-.29-3.95-5.26-4.65-5.86-.78-.66-4.92-6.78-5.63-8.33-.53-1.16-.76-2.5-.89-5.24-.17-3.54-.14-3.71.73-4.96,1.64-2.37.72-3.51-1.02-1.24-.91,1.2-.92,1.24-.71,5.15.19,3.46.35,4.24,1.32,6.38,1.05,2.31,3.14,5.35,6,8.72,1.85,2.18.34,1.21-2.17-1.39-2.23-2.32-3.8-4.44-5.53-7.49-1.03-1.81-1.09-2.11-1.09-5.39,0-4.53.45-6.23,2.1-7.96.72-.76,1.32-1.59,1.32-1.84,0-.87-.94-.45-2.28,1-1.88,2.04-2.29,3.76-2.08,8.84.15,3.62.11,4.06-.31,3.49-1.04-1.42-1.56-4.24-1.33-7.11ZM233.6,195.16c.19.12.26.36.15.53-.29.48-.49.39-.49-.21,0-.29.15-.44.34-.32ZM239.48,159.57c-.61-.43-1.11-.92-1.11-1.09,0-.67.58-.27,1.71,1.21.44.58.36.56-.6-.11ZM238.52,129.15c-.2,0-.88-.53-1.51-1.18-1.58-1.63-1.18-1.72.51-.12.75.72,1.2,1.3,1,1.3ZM232.91,97.91c0-.07.33-.13.73-.13.71,0,3.03,2.11,3.03,2.76,0,.18-.84-.31-1.88-1.09-1.03-.78-1.88-1.48-1.88-1.55ZM236.33,103.66c0,.34-3.42-2.14-5.2-3.78-.7-.65-1.28-1.29-1.28-1.43,0-.55,1.17-.64,1.93-.15.88.58,4.56,4.91,4.56,5.36Z"/>
      <path class="cls-1" d="M21.76,135.57c-1.01,1.88-1.04,2.07-.93,5.7.09,3.1.24,4.01.88,5.21.42.81.77,1.53.77,1.62,0,.47-.41,0-1.23-1.4-1.13-1.92-1.52-3.89-1.53-7.58,0-2.27.13-3.05.7-3.97,1.71-2.76,2.87-2.4,1.35.42Z"/>
      <path class="cls-1" d="M25.71,128.37c1.64,0,4.74.97,5.31,1.67.56.67.01.63-.74-.06-.91-.82-3.39-.99-5.26-.35-.93.32-1.81.43-2.1.27-.8-.44,1.17-1.53,2.79-1.53Z"/>
      <path class="cls-1" d="M28.29,132.26c2.62.03,3.83.6,1.34.63-2.08.03-3.69.8-4.62,2.22-.64.99-1.17.86-1.17-.29,0-1.32,2.2-2.59,4.45-2.56Z"/>
      <path class="cls-1" d="M79.26,197.24c0-.9,1.11-1.56,1.52-.9.18.3.17.74-.03,1.13-.43.79-1.49.63-1.49-.22Z"/>
      <path class="cls-1" d="M84.18,199.7c-.64.06-1.31.25-1.5.43-.48.47-1.03.18-1.03-.53,0-.52.32-.63,1.97-.68,2.14-.07,2.61.59.56.78Z"/>
      <path class="cls-1" d="M88.98,198.75c-.28.18-.81.32-1.18.33-.64,0-.64-.03.08-.75.61-.61.84-.67,1.18-.33.34.35.33.49-.08.75Z"/>
      <path class="cls-1" d="M87.91,194.58c-.82-.08-1.1-.29-1.19-.87-.08-.53.06-.77.45-.77.62,0,1.81.94,1.81,1.44,0,.17-.49.26-1.08.2Z"/>
      <path class="cls-1" d="M86.45,195.88c-.27.1-.82,0-1.24-.22-.54-.29-.68-.29-.51-.01.13.21.06.61-.17.88-.3.36-.58.4-1.05.14-.78-.42-.84-1.2-.11-1.48.29-.11.44-.34.34-.51-.33-.54.67-.67,1.97-.27,1.27.4,1.65,1.12.77,1.46Z"/>
      <path class="cls-1" d="M91.18,194.31c-.7,0-.84-.13-.67-.64.13-.41,0-.72-.32-.84-.62-.23-.71-1.24-.12-1.24.64,0,1.99,1.42,1.99,2.1,0,.44-.25.62-.88.62Z"/>
      <path class="cls-1" d="M93.74,197.21c.47,0,1.14,2,.79,2.35-.33.34-1.12-.24-1.17-.85-.03-.36-.07-.84-.08-1.08-.02-.23.19-.42.46-.42Z"/>
      <path class="cls-1" d="M90.69,197.21c.51-.32,1.02.12.8.69-.11.28-.4.51-.67.51-.54,0-.64-.88-.13-1.19Z"/>
      <path class="cls-1" d="M84.07,203.04c.83-.32,3.59,2.84,3.16,3.63-.44.83-1,.73-2.04-.36-1.61-1.68-2.04-2.93-1.13-3.28Z"/>
      <path class="cls-1" d="M95.46,193.54c0,.79-2.19.39-2.33-.43-.07-.37-.44-1.02-.82-1.44-.64-.7-.66-.78-.11-.98.65-.25,3.26,2.04,3.26,2.85Z"/>
      <path class="cls-1" d="M229.84,175.87c0-.79,1.29-1.9,1.72-1.48.22.22-.09.83-.9,1.78-.68.8-1.32,1.36-1.43,1.25s-.01-.37.21-.59.4-.66.4-.97Z"/>
      <path class="cls-1" d="M216.74,183.2c.52.7.61,2.28.27,4.37-.22,1.33-.35,1.45-1.07.99-.3-.19-.39-1.04-.31-2.9.14-2.91.38-3.45,1.11-2.47Z"/>
      <path class="cls-1" d="M274.45,99.83c.32,0,1.16-.1,1.87-.22.83-.14,1.28-.08,1.28.17,0,.52-1.49,1.45-2.82,1.77-1.54.36-1.89.37-2.09.04-.26-.42,1.08-1.76,1.77-1.76Z"/>
      <path class="cls-1" d="M271.14,94.15c-.82-1.04-.89-1.49-.23-1.49.48,0,1.57,1.41,1.57,2.04s-.61.38-1.34-.55Z"/>
      <path class="cls-1" d="M270.09,94.6c0,.97-1.25.44-1.96-.82-.37-.66-.36-.77.14-.77.71,0,1.82.97,1.82,1.59Z"/>
      <path class="cls-1" d="M272.08,101.31c.11.53-.39.75-2.33,1-1.09.14-1.7-.06-1.7-.55,0-1.14,3.81-1.55,4.03-.44Z"/>
      <path class="cls-1" d="M275.12,94.83c-.74.3-.95.24-1.17-.32-.21-.55.39-1.14,1.17-1.15.23,0,.42.29.42.65s-.19.73-.42.83Z"/>
      <path class="cls-1" d="M217.57,118.74c0,.63-.72.7-1.3.13-.58-.58-.52-1.98.09-1.98.55,0,1.21,1.01,1.21,1.85Z"/>
      <path class="cls-1" d="M229.01,139.74c.41,0,1.68.81,2.52,1.6.48.46,1.69,1.38,2.69,2.05,1.6,1.08,2.44,2.17,2.44,3.19s-1.71-.03-4.6-2.8c-2.79-2.68-3.82-4.05-3.05-4.05Z"/>
      <path class="cls-1" d="M226.43,170.04c0,.37-.19.75-.43.85-.81.33-.98.22-.88-.54.14-.99,1.3-1.26,1.3-.31Z"/>
      <path class="cls-1" d="M229.98,147.34c.11-.11.68.28,1.29.87.6.58,1.37,1.16,1.71,1.27.34.11.62.34.62.51,0,.54-.52.36-1.96-.68-1.48-1.07-1.98-1.65-1.66-1.97Z"/>
      <path class="cls-1" d="M231.72,152.82c-.28-.28-.51-.69-.5-.92.02-.59,1.69,1.42,1.69,2.03,0,.28-.15.42-.34.3-.19-.12-.34-.37-.34-.56s-.23-.58-.52-.86Z"/>
      <path class="cls-1" d="M227.76,153.72c.49,0,4.47,3.37,4.47,3.78,0,.2-.2.23-.48.07-.87-.5-4.34-3.85-4-3.85Z"/>
      <path class="cls-1" d="M228.2,170.36c.32.32.23.6-.39,1.27-.89.94-1.22,1.04-1.57.48-.13-.21.17-.78.66-1.27.69-.69.98-.8,1.3-.48Z"/>
      <path class="cls-1" d="M222.49,189.56c.48.45.87,1.07.87,1.37,0,.3.31,1.43.68,2.51.37,1.09.59,2.11.49,2.27-.36.58-1.35.3-1.69-.46-.18-.42-.76-.97-1.27-1.22-.71-.33-.95-.71-1-1.54-.11-1.92.03-2.73.54-3.25.44-.45.61-.41,1.37.32Z"/>
      <path class="cls-1" d="M218.68,185.18c.37.12,1.21,3.45,1.25,4.95.01.52-.18.77-.61.77-.48,0-.73-.43-1.05-1.88-.44-1.98-.23-4.04.4-3.83Z"/>
      <path class="cls-1" d="M215.48,82.31c-.87-.44-1.9-.88-2.3-.99-.79-.21-1.01-.94-.29-.94.24,0,1.35.24,2.48.53,2.14.56,3.11,1.21,2.73,1.83-.34.54-.86.46-2.62-.43Z"/>
      <path class="cls-1" d="M213.54,131.68c.48-.48.9-.5,3.35-.17,1.54.21,3.41.56,4.14.78,1.51.45,3.17,1.82,2.85,2.34-.29.48-.54.43-1.34-.29-.53-.47-1.7-.72-4.76-1.01-4.32-.41-5.15-.73-4.23-1.64Z"/>
      <path class="cls-1" d="M211.81,87.21c2.99,1.17,3.71,1.51,3.71,1.78,0,.64-1.93.15-3.95-1.02-2.54-1.46-2.44-1.8.24-.77Z"/>
      <path class="cls-1" d="M211.95,90.61c-.14.22-.48.31-.76.2-.28-.11-.88-.29-1.34-.41-1.19-.29-.78-.99.54-.93,1.25.06,1.92.55,1.55,1.13Z"/>
      <path class="cls-1" d="M217.15,85.12c.07.21-.18.39-.55.39-.87,0-6.2-2.39-6.2-2.78s.8-.37,1.21.03c.18.18,1.47.69,2.87,1.14,1.39.45,2.6,1,2.67,1.22Z"/>
      <path class="cls-1" d="M215.18,87.19c0,.66-.89.37-3.61-1.19-1.73-.99-2.34-1.47-1.68-1.33,1.57.34,5.29,2.12,5.29,2.52Z"/>
      <path class="cls-1" d="M229.48,172.64c.24.14.16.5-.23,1.04-.65.9-1.45,1.11-1.45.38,0-.64,1.24-1.7,1.68-1.43Z"/>
      <path class="cls-1" d="M265.47,94c-1-1.59-.94-1.87.28-1.3.92.42,1.6,1.57,1.37,2.28-.26.75-.74.47-1.65-.97Z"/>
      <path class="cls-1" d="M266.69,100.69c.53.32.38,1.12-.27,1.5-.9.52-1.45.43-1.45-.23s1.22-1.58,1.72-1.26Z"/>
      <path class="cls-1" d="M232.91,146.8c0,.56-.98.12-1.73-.78-.26-.32-1.05-.94-1.76-1.39-1.87-1.18-1.58-1.72.33-.62,1.99,1.15,3.15,2.18,3.15,2.79Z"/>
      <path class="cls-1" d="M277.17,191.31c.46-.14.56.92.21,2.23-.2.75-1.27,1.07-1.63.48-.24-.39.89-2.54,1.42-2.71Z"/>
      <path class="cls-1" d="M262.56,92.57c.33-.33.63-.16,1.41.78.54.66.99,1.47,1,1.79.02,1.03-.88.66-1.88-.78-.75-1.08-.87-1.47-.53-1.79Z"/>
      <path class="cls-1" d="M269.83,191.3c.12.71.19.67.77-.49.69-1.37,1.34-1.52,1.4-.32.06,1.11-.83,2.18-1.6,1.93-.5-.16-.66-.05-.66.51,0,.59-.11.66-.64.37-.72-.38-1.24-2.37-.75-2.86.5-.5,1.33-.02,1.47.86Z"/>
      <path class="cls-1" d="M296.21,227.57c-.19.75-.13.89.28.73.28-.11.75.03,1.03.32.4.4.67.43,1.21.14,1.45-.78,1.76.23.6,1.94-.72,1.05-1.96,1.55-1.96.79,0-.18-.38-.34-.83-.34-1.05,0-1.3-.41-.92-1.43.29-.77.26-.81-.93-.67l-1.24.14.89-1.16c.49-.63,1.16-1.21,1.49-1.28.49-.1.55.04.37.81Z"/>
      <path class="cls-1" d="M279.85,193.99c1.46-1,2.35-.53,1.19.63-.75.75-1.3.88-1.98.44-.27-.17-.02-.52.78-1.07Z"/>
      <path class="cls-1" d="M228.65,85.17c.52,0,.75,1.7.29,2.16-.51.51-.8.16-.8-.96,0-.84.16-1.19.51-1.19Z"/>
      <path class="cls-1" d="M262.26,100.17c.43,0,1.08,1.65.82,2.07-.27.42-1.09.4-1.36-.05-.3-.48.11-2.03.54-2.03Z"/>
      <path class="cls-1" d="M241.87,82.78c.54-.02.22,1.18-.51,1.96-.62.66-.79.72-.88.29-.11-.54.93-2.23,1.39-2.25Z"/>
    </g>
    <path class="cls-3" d="M87.13,217.97c.28.9,1.01,3.46,1.62,5.71.62,2.24,1.52,5.46,2.01,7.16,1.38,4.84,1.61,5.92,1.59,7.57-.02,2.03-.46,2.48-2.5,2.6-2.33.14-2.36.8-.07,2.18l1.8,1.09v1.76c0,1.51.08,1.75.63,1.75.34,0,1-.48,1.46-1.06l.83-1.06,1,1.09c1.26,1.38,2.12,1.21,1.78-.36-.12-.58-.24-1.2-.27-1.38-.1-.69,1.57-.48,5.4.65,7.33,2.18,10.13,3.04,18.99,5.82,4.84,1.51,9.35,2.85,10.02,2.98.67.13,1.3.36,1.39.5.1.15,0,1.25-.22,2.43-.33,1.78-.32,2.2.04,2.43.49.3,1.35-.16,3.48-1.85.75-.59,1.47-1.08,1.6-1.08s1.01.59,1.95,1.32c1.69,1.3,3.73,2.18,3.73,1.6,0-.16-.37-1.42-.81-2.79-.45-1.37-.82-2.74-.82-3.04s.59-1.12,1.3-1.81c.77-.76,1.3-1.58,1.3-2.03,0-.7-.13-.75-2.04-.75-1.12,0-2.22-.12-2.45-.26-.22-.14-.75-1.13-1.16-2.2-.58-1.5-.92-1.96-1.51-2.04-.9-.13-1.31.4-1.32,1.68-.01,1.83-.46,2.17-2.89,2.17-2.26,0-3.96.51-3.96,1.2,0,.21.36.82.81,1.35.45.53.81,1.06.81,1.16,0,.75-6.21-.96-24.11-6.66-4.04-1.28-7.6-2.41-7.92-2.5-.89-.26-.55-1.42.65-2.23,1.42-.95,5.95-2.77,18.67-7.49,9.35-3.47,15.05-5.4,15.26-5.19.15.14-.22,1.96-.8,3.99-.36,1.27.75.87,2.89-1.03l1.98-1.77,1.17.64c.64.36,1.79,1.09,2.56,1.64,1.02.73,1.62.94,2.2.8,1.01-.26,1-.42-.15-2.17-.52-.79-1.2-2.07-1.51-2.85l-.56-1.41,1.5-1.36c1.64-1.49,2.14-2.73,1.03-2.57-.35.05-1.46.18-2.45.28l-1.79.19-.98-1.9c-.69-1.35-1.19-1.94-1.71-2.01-.53-.07-.74.06-.74.49,0,.33-.2.97-.44,1.43-.24.46-.53,1.23-.65,1.71-.21.84-.32.88-2.31.88-1.15,0-2.47.14-2.94.32-.73.28-.8.42-.5.98.19.36.93.95,1.64,1.31,1.41.72,1.6,1.1.72,1.45-.31.12-2.33.89-4.48,1.7-4.96,1.87-9.87,3.75-13.96,5.36-1.77.7-3.38,1.26-3.59,1.26s-.77.21-1.26.46c-.48.25-2.47,1-4.4,1.65-1.94.66-3.77,1.33-4.08,1.49-.31.16-1.33.38-2.28.49l-1.72.2-.59-1.26c-.32-.69-.85-1.77-1.18-2.39-.59-1.15-2.46-7.27-4.43-14.5-.59-2.15-1.53-5.45-2.09-7.33-.57-1.88-1.67-5.76-2.44-8.63-.77-2.87-1.51-5.45-1.62-5.74-.15-.37.14-.83.97-1.51,1.64-1.35,1.46-2.23-.41-2.09-1.34.1-1.37.09-2.22-1.6-1.28-2.52-1.68-4.12-2.6-10.39-.47-3.14-1.05-6.73-1.3-7.99-.49-2.49-3.03-16.93-3.44-19.55-.13-.9-.64-3.68-1.11-6.19-1.01-5.38-1.36-8.63-.93-8.63.16,0,.49.18.72.4.33.33.5.29.86-.2.38-.53.36-.77-.19-1.79-.78-1.45-.79-1.77-.06-2.4.81-.7,5.21-2.31,5.62-2.05.21.13.26.82.13,1.81-.19,1.44-.15,1.61.41,1.61.42,0,.76-.38,1.05-1.14.52-1.46,1.28-1.46,2.29,0,.84,1.23.94,1.28,1.66.82.4-.25.42-.48.09-1.4-.73-2.01-.57-2.31,1.8-3.53,1.21-.63,4.69-2.54,7.74-4.24,5.79-3.25,7.85-4.37,16.06-8.72,2.74-1.46,5.35-2.89,5.8-3.18,1.25-.82,1.68-.16,1,1.56-.3.75-.49,1.42-.43,1.48.28.28,2.42-.92,3.29-1.82.53-.55,1.1-1,1.29-1s.87.53,1.53,1.17c1.05,1.03,1.27,1.12,1.86.75.53-.33.59-.52.3-.99-.2-.32-.26-.68-.14-.8.29-.29,3.96-.2,7.41.19,1.52.17,4.78.47,7.23.65,6.7.51,12.86,1.19,13.31,1.47.28.18.34.89.21,2.45-.17,2.05-.14,2.18.43,2.04.34-.09.71-.4.81-.7.11-.3.63-.88,1.16-1.3l.96-.76,1.22,1.34c.67.73,1.38,1.34,1.56,1.34.4,0,1.68,1.3,2.22,2.24.62,1.09,3.54,5.36,4.49,6.57.84,1.06.87,1.23.52,2.39-.42,1.37-1.19,1.84-3.04,1.84-1.58,0-1.57,1.1.01,1.67,1.44.52,1.56.88.96,2.89-.27.91-.4,1.79-.29,1.97.23.37,1.27-.1,2.33-1.06,1.49-1.35,2.94.14,5.2,5.33,1.55,3.59,1.53,3.8-.36,3.92-.97.06-1.9.14-2.69.23-1.02.12-.22,1.07,1.74,2.06l2.15,1.08-.22,1.96c-.12,1.08-.3,2.35-.39,2.83-.24,1.19.4,1.05,2.16-.46.77-.66,1.84-1.29,2.37-1.41.84-.19,1.16-.03,2.33,1.12.92.9,1.65,1.34,2.25,1.34.97,0,1.09-.33.48-1.41-.56-1.01-1.21-2.9-1.22-3.53,0-.3.34-.63.77-.73.98-.24,2.81-1.93,2.81-2.59,0-.34-.38-.53-1.22-.6-1.2-.1-1.1-.19,4.97-4.21,7.86-5.21,8.31-5.45,8.31-4.4,0,.7,1.26.24,1.85-.66.66-1,1.01-.98,2.64.23,1.2.88,1.44.95,1.99.56.55-.39.57-.51.17-1.06-1-1.36-.64-1.7,2.39-2.25,1.57-.28,4.54-.73,6.6-1,2.06-.26,4.83-.64,6.14-.83,1.31-.19,2.52-.26,2.68-.15.16.1.3.67.3,1.26,0,.97.08,1.06.8.92.43-.09,1.04-.43,1.35-.77,1.08-1.19,1.25-.86,1.95,3.79.25,1.7.7,4.51.99,6.26.88,5.29.9,5.87.3,6.47-.3.3-.52.92-.49,1.39.13,2.03.16,1.99-2.3,1.99-2.9,0-2.97.38-.4,2.05.76.49,1.38,1.05,1.38,1.25s-.44,1.35-.98,2.57c-1.14,2.6-1.16,2.71-.4,2.48.31-.1.78-.05,1.04.12.41.25.38.52-.22,1.87-.38.86-1.61,3.77-2.72,6.45-1.11,2.69-2.43,5.7-2.93,6.68-.77,1.52-.94,1.69-1.14,1.14-.14-.36-.54-1.08-.9-1.6l-.65-.94-.6.74c-.32.4-.59.98-.59,1.27,0,.3-.16,1.1-.35,1.78-.4,1.43-1.33,1.96-4.12,2.33-.93.13-1.86.43-2.07.68-.31.37-.11.58,1.04,1.09.78.35,1.99,1.13,2.69,1.73,1.21,1.06,1.25,1.15.91,2.22-.2.61-.46,1.89-.57,2.83-.29,2.26.2,2.25,2.5-.08.97-.99,1.89-1.79,2.05-1.79s1.03.62,1.95,1.38c.92.76,1.94,1.61,2.27,1.88.33.27.94,1.16,1.36,1.97.42.82,1.01,1.69,1.3,1.94.66.55,2.55,4.22,2.2,4.28-.14.02-.91.06-1.71.08-2.12.06-2.06.78.19,2.13l1.85,1.1-.2,2.06c-.17,1.85-.13,2.04.37,1.85.31-.12.71-.33.88-.48.18-.15.84-.64,1.47-1.09l1.14-.82.7.82c.39.45.92,1.11,1.18,1.49.3.43.67.6,1.01.47.69-.26.67-.54-.12-2.09-.82-1.61-.82-1.78.12-3.03.42-.57.87-1.44.99-1.94.21-.9.21-.9-1.43-.84-.9.03-1.7,0-1.77-.07-.07-.07-.48-.86-.9-1.74-.93-1.96-1.46-2.18-2.01-.86l-.42,1.01-.65-.74c-.65-.74-2.09-2.77-3.12-4.42-.84-1.34-2.75-5.3-3.17-6.58-.37-1.13-.36-1.15,1.57-2.93,1.17-1.08,2.02-2.17,2.14-2.74.21-.94.2-.94-1.03-.72-.68.12-1.81.31-2.51.42l-1.27.2.19-1.16c.19-1.18,7.44-18.32,8.35-19.76l.49-.78,1.7,1.82c1.59,1.71,1.72,1.79,2.21,1.24.29-.32.52-.75.52-.96,0-.91,1.64-.03,5.2,2.82.98.78,2.41,1.72,3.19,2.08,1.83.86,2.06,1.34,1.64,3.45-.25,1.3-.24,1.82.05,2.12.3.3.47.26.72-.18.18-.31.6-.57.95-.57s.64-.11.65-.24c0-.13.37-.68.81-1.21l.8-.98,1.46,1.43c1.21,1.19,1.54,1.36,1.94,1.03.42-.35.36-.6-.47-1.91-.52-.83-.95-1.73-.95-2.01,0-.88,2.01-1.87,5.21-2.6,1.7-.39,3.54-.84,4.07-1,.92-.28,6.45-1.3,7.03-1.3.15,0,.18.74.07,1.63-.12,1.05-.07,1.63.15,1.63.18,0,.56.08.83.18.3.12.56-.06.69-.45.11-.35.56-1.03,1-1.5l.8-.86,1.19,1.32c.93,1.03,1.38,1.29,2.05,1.2.92-.13.92-.14.39-2.8-.32-1.57-.29-1.84.25-2.45.34-.37.71-1.06.82-1.54.23-.99-.18-1.25-1.94-1.25-1.01,0-1.19-.14-1.85-1.55-1.05-2.24-1.83-2.61-2.2-1.03-.11.44-.4.79-.66.79s-.49.29-.5.65c-.11,1.98-.09,1.97-2.01,2.58-1.03.33-2.07.65-2.31.72-.65.18-.28.9.56,1.09,1.64.39.64.86-3.22,1.52-2.24.38-5.38.93-6.99,1.23-3.31.6-4.09.49-4.09-.6,0-.66-2.06-3.11-2.63-3.11-.11,0-.33.69-.5,1.54-.23,1.22-.53,1.69-1.41,2.28-2.18,1.46-3.19,1.07-8.79-3.45l-3.05-2.47,1.09-.91c.9-.75,1.03-1.01.74-1.47-.2-.31-1-.68-1.79-.83-1.6-.29-2.83-1.66-2.84-3.16,0-.45-.16-1.55-.35-2.44-.89-4.18-2.33-13.08-2.24-13.81.13-1.07.62-1.19,1.55-.38.83.72,1,.76,1.78.46.76-.29.64-.82-.63-2.59-.63-.88-1.14-1.78-1.14-1.99s.67-.94,1.49-1.62c1.38-1.12,1.49-1.31,1.32-2.36-.16-.99.03-1.44,1.46-3.44,2.08-2.93,6.18-8.9,8.83-12.88,1.13-1.69,2.58-3.6,3.22-4.23.64-.64,1.58-1.78,2.08-2.55.5-.76,1.1-1.38,1.35-1.38s.81.58,1.27,1.3c.96,1.52,1.36,1.62,1.81.44.24-.63.2-1.3-.14-2.46l-.47-1.59,1.11-.85c.71-.54,1.11-1.12,1.11-1.62,0-.71-.14-.78-1.55-.8l-1.55-.02-1.08-2.26c-1.42-2.97-2.33-2.99-2.34-.04,0,2.22-.37,3.64-.93,3.63-.42,0-.44-.06-.09-.29.76-.48-.09-.66-1.56-.33-2.89.65-3.2,1.37-1.06,2.45,1.82.92,2.34,1.45,2.34,2.38,0,.52-1.16,2.59-3.03,5.41-6.78,10.21-9.41,14.02-12.03,17.4-1.51,1.95-3.02,2.45-3.9,1.26-1.54-2.06-1.96-2.53-2.25-2.53-.34,0-.35.01-1.1,2.7-.56,2.04-.94,2.33-3.54,2.78-.69.12-1.26.37-1.27.55,0,.18.55.65,1.24,1.04.86.49,1.11.77.78.89-1.87.66-16.41,2.45-16.8,2.07-.1-.11.05-.56.35-1.01.51-.77.5-.84-.12-1.17-.36-.19-.9-.35-1.21-.35s-1.02-.53-1.59-1.2c-1.11-1.28-1.63-1.26-2.15.11-.16.44-.41.74-.55.66-.14-.08-1.51-.74-3.04-1.47-3.87-1.84-3.91-1.91-2.11-3.95,2.18-2.46,2.05-2.75-1.08-2.47l-2.56.23-.87-1.58c-1.47-2.67-3.14-6.35-3.14-6.93,0-.3-.13-.68-.28-.85-.15-.17-.83-1.7-1.51-3.41-.67-1.7-1.42-3.54-1.66-4.07-.24-.54-1.03-2.48-1.76-4.32-1.11-2.83-1.26-3.45-.92-3.99.33-.52.3-.81-.16-1.6-.56-.93-.55-.98.25-1.93,1.23-1.46,1.1-2.28-.4-2.4-1.1-.09-1.29-.25-1.95-1.65-.87-1.85-1.72-2.07-1.72-.46,0,.59-.09,1.18-.2,1.29-.24.24-3.76-1.5-4.28-2.13-.51-.61.22-1.64,1.91-2.71,1.27-.8,1.7-1.89.87-2.2-.22-.08-1.09-.07-1.93.02-2.39.26-3.05-.04-3.88-1.79-.91-1.91-1.88-3.34-2.27-3.34-.16,0-.39.71-.5,1.59-.31,2.34-.66,2.69-1.54,1.54-.39-.51-1.27-1.54-1.95-2.28-2.85-3.11-10.01-13.26-10.01-14.2,0-.29.74-1.25,1.63-2.13,1.86-1.83,2.13-2.66.73-2.25-.49.15-1.6.27-2.47.28l-1.57.02-.66-1.96c-1.11-3.3-1.96-3.15-2.78.51l-.58,2.56-2.61.1c-3.23.12-3.39.57-.77,2.13l1.84,1.09.22,2.22c.2,1.99.3,2.22.93,2.22.45,0,1.09-.52,1.77-1.43.59-.78,1.34-1.43,1.66-1.43.63,0,4.04,3.45,5.91,5.98.63.85,1.58,2.11,2.12,2.8.53.69,1.71,2.23,2.61,3.42.9,1.2,1.96,2.59,2.36,3.1s.73,1.09.73,1.28c0,.37-.51.47-2.76.5-1.88.03-1.93.89-.11,1.8.77.39,1.77.97,2.22,1.31l.81.61-.54,2.55c-.29,1.4-.58,2.76-.65,3.01-.06.27.17.53.53.61.48.1,1.15-.41,2.5-1.93,1.76-1.96,1.89-2.04,2.65-1.63.43.23,1.03.92,1.32,1.52.57,1.2,1.95,2.28,2.48,1.95.18-.11,1.01.09,1.84.46,1.49.66,1.5.67,1.28,1.96-.12.71-.13,1.43-.03,1.6.31.5,1.42.04,1.61-.67.35-1.36,1.09-.1,3.63,6.26.83,2.06,1.63,4.04,1.79,4.4.16.36,1.05,2.56,1.99,4.89,1.66,4.14,1.7,4.31,1.73,7.71l.03,3.47-1.63.35c-.9.2-1.99.4-2.44.44-1.52.15-1.17,1.13.63,1.77.91.32,1.64.66,1.64.75-.01.18-5.9,2.76-7.05,3.09-.39.11-.81.04-.93-.16-.21-.34-1.75-.23-2.91.22-.46.18-2.78-2.75-2.79-3.51,0-.24-.72-1.28-1.59-2.3-.87-1.02-2.18-2.92-2.91-4.24-.73-1.31-1.99-3.19-2.81-4.17-.82-.98-1.48-2.02-1.48-2.31s.37-.86.83-1.29c1.12-1.05.96-2.08-.34-2.15-.54-.03-1.24-.06-1.55-.08-.31-.02-.57-.29-.58-.6,0-.31-.42-1.07-.92-1.67-.81-.97-1-1.06-1.62-.72-.48.26-.72.7-.74,1.43-.07,2.24-.36,2.66-2.1,2.98-2.04.37-9.96.3-13.18-.12-1.34-.18-4.57-.48-7.17-.67-5.56-.42-7.49-.83-7.49-1.59,0-.29.27-.7.61-.91.43-.27.56-.63.44-1.25-.15-.81-.25-.86-1.44-.67-1.18.19-1.31.13-1.82-.83-.92-1.7-1.95-2.77-2.3-2.4-.17.18-.39,1.09-.48,2.03-.1.93-.25,1.82-.34,1.96-.08.15-1.23.31-2.54.36-1.3.05-2.49.17-2.63.26-.56.34-.2,1.04.73,1.43.54.22,1.05.52,1.14.67.15.23-5.45,3.72-7.83,4.87-.54.26-1.71.93-2.61,1.48-.9.55-2.32,1.32-3.18,1.71-.85.39-2.24,1.02-3.09,1.42-.85.39-2.06,1.03-2.69,1.41-3.5,2.15-9.39,4.93-10.59,4.99-.72.04-1.59.1-1.94.14-.51.07-.77-.31-1.3-1.87-.51-1.51-.82-1.96-1.32-1.96s-.71.34-.98,1.72c-.38,1.97-.67,2.22-2.84,2.52-1.62.22-1.83.41-1.18,1.06.5.5.26.72-1.26,1.07-2.36.55-2.7.44-3.4-1.16-.58-1.33-1.74-2.41-2.14-2.02-.08.09-.26.86-.38,1.74l-.23,1.58-2.26.04c-1.25.02-2.3.17-2.35.33-.05.16.8.85,1.89,1.55,1.97,1.26,1.98,1.27,1.79,2.52-.11.69-.3,1.85-.41,2.56-.17,1.07-.11,1.3.32,1.3.29,0,.74-.42,1.01-.94.43-.82,1.4-1.55,1.68-1.26.15.15.47,1.89.65,3.51.09.81.45,2.93.8,4.72,1.63,8.4,2.3,12.06,2.93,16.13.74,4.73,1.78,10.82,2.46,14.5,1.06,5.68,1.84,12.27,1.62,13.72-.28,1.88-1.28,2.86-3.47,3.43-2.01.51-1.99,1.13.04,1.89l1.46.54v1.78c0,.98.11,1.95.24,2.15.24.37,1.54.23,1.56-.17.01-.11.45-.71.97-1.33.93-1.09.97-1.1,1.62-.52.36.33.66.8.66,1.04s.31.75.7,1.13c.87.87,1.64,2.92,3.03,8.1.6,2.24,1.32,4.8,1.59,5.7ZM130.43,249.9c.12-.12.38-.12.57,0,.47.29,4.25.54,4.94.32.3-.1.63-.68.75-1.32.26-1.38.82-1.3,1.32.2.42,1.24.8,1.51,2.53,1.79,1.47.24,1.54.59.24,1.36-1.12.67-1.14.72-.48,2.85.78,2.59.62,2.73-1.2,1-.66-.63-1.42-1.13-1.68-1.13s-1.01.66-1.67,1.46c-1.77,2.16-2.06,2.01-1.49-.81l.3-1.47-2.17-2.01c-1.2-1.11-2.08-2.12-1.96-2.23ZM133.79,224.94c1.43-.08,2.43-.47,2.43-.95,0-.18.26-.58.59-.9.57-.57.61-.56,1.16.16.36.48.91.75,1.51.75,1.35,0,1.46.47.32,1.43l-.99.84.74,1.29c.41.71.63,1.41.48,1.55-.14.14-.92-.1-1.75-.54l-1.49-.79-.76.88c-1.04,1.21-1.22,1.11-.98-.51l.21-1.4-1.52-.74c-.83-.4-1.45-.8-1.38-.87.07-.07.71-.16,1.42-.2ZM93.24,241.63c.67-.91.72-.92,1.29-.35.36.37.85.52,1.27.42.85-.22.87.24.02.97-.36.31-.65.78-.65,1.05,0,.34-.33.49-1.1.49-1.47,0-1.85-1.18-.82-2.57ZM226.19,208.61c1.86-1.1,2.35-1.23,2.89-.74.3.28.82.5,1.14.5.48,0,.51.08.18.49-.22.27-.55.49-.71.49s-.79.37-1.38.82c-1.23.94-1.55,1.02-1.28.31.11-.28-.07-.79-.39-1.14-.32-.35-.52-.68-.45-.72ZM211.75,191.07c-.81-.47-.71-.85.29-1.1,1-.26,1.53.13,1.23.91-.24.62-.7.67-1.52.19ZM218.66,188.9c1.74-.24,1.74.42,0,1.9-1.5,1.27-1.57,1.59-.59,2.91.98,1.32.53,1.56-.97.52-.68-.47-1.42-.86-1.63-.86s-.64.54-.96,1.2c-.73,1.53-1.58,1.91-1.25.55.12-.51.42-1.09.65-1.27.23-.18.61-1.64.83-3.26.54-3.87.67-4.06,1.74-2.66.79,1.04.97,1.12,2.18.96ZM265.74,166.19c1.58-.66,4.08-.7,4.08-.06,0,.55-.7.85-1.98.85-.53,0-.95.15-.95.33,0,.43-.63.36-1.6-.17l-.78-.43,1.23-.51ZM243.56,171.87c.44,0,.99-.32,1.27-.74l.49-.73.71.75c.7.74.7,1.69-.01,1.69h0c-.2,0-.6.27-.9.6-.53.58-.57.57-1.44-.26-1.1-1.05-1.12-1.32-.12-1.32ZM228.06,161.14c.21.34.67.62,1.02.62.9,0,1.2.67.52,1.17-.38.28-.5.64-.35,1.09.27.85.16.84-.72-.03-.59-.6-.78-.64-1.22-.28-.44.36-.59.33-.99-.19-.63-.84-.62-.9.43-2.02.87-.94.93-.95,1.3-.36ZM245.39,104.95c.66-.39.98-.83.98-1.37,0-.44.14-.8.32-.8s.32.29.32.63.24.87.55,1.17c.42.42.45.59.12.8-.23.14-.67.19-.99.11-.32-.09-.68,0-.8.2-.26.42-.52.44-1.07.09-.28-.18-.11-.43.57-.83ZM221.28,135.75c.54-.19,1.07-.6,1.17-.93.1-.32.33-.96.51-1.4l.33-.82.63,1.22c.48.94.82,1.22,1.48,1.22.81,0,.83.03.32.59-.3.33-.54.84-.54,1.14s-.25.55-.55.55-.97.39-1.47.88c-.83.8-.91.82-.91.24,0-.65-1.03-1.77-1.63-1.77-.7,0-.26-.61.66-.93ZM197.85,138.92c.79-.75,1.12-.88,1.47-.58.55.46.58,1.66.06,2.18-.54.54-1.42.49-2.04-.13-.47-.47-.43-.6.51-1.47ZM146.95,71.83c-.31,0-.86.51-1.23,1.14-.91,1.54-1.42,1.46-1.3-.2.08-1.22,0-1.38-.97-1.89-1.14-.59-1.08-1.01.14-1.01.42,0,.91-.29,1.1-.65.19-.36.55-.65.8-.65s.53-.18.64-.41c.14-.31.23-.3.39.04.43.94,1.38,1.62,2.05,1.45.37-.1.67-.06.67.09,0,.5-1.75,2.09-2.31,2.09ZM165.24,95.03h0c-.5.03-1.26.51-1.91,1.21l-1.08,1.17.18-1.06c.1-.58.27-1.47.37-1.97.15-.74.04-.99-.65-1.36-1.08-.57-1.08-.99,0-.99,1.37,0,2.1-.57,2.1-1.64,0-1.34.51-1.21,1.3.33.65,1.27.99,1.44,2.53,1.32.4-.03.73.05.73.18,0,.56-2.81,2.76-3.57,2.81ZM171.25,98.55c-.31.5-1.46.38-1.68-.18-.11-.28-.1-.59.01-.71.31-.31,1.89.52,1.67.89ZM175.25,100.04c-.38.38-2.46.52-2.67.18-.13-.2-.18-.38-.13-.39.06-.02.46-.09.9-.17.44-.08.9-.3,1.01-.48.13-.21.37-.14.63.18.23.28.35.59.26.68ZM179.16,155.41c-1.18.59-1.61,1.52-.9,1.96.18.11.32.34.32.53s-.32.1-.73-.18c-1.05-.74-1.42-.64-2.21.64-.73,1.18-1.8,1.98-2.06,1.54-.25-.4.08-2.42.47-2.9.45-.54-.43-2.07-1.19-2.07-.26,0-.48-.14-.48-.3,0-.41,1.2-.77,1.64-.5.72.45,1.87-.17,2.23-1.2.4-1.16.51-1.12,1.28.43.41.84.8,1.13,1.68,1.27l1.14.18-1.22.62ZM183.48,132.11c.88,0,.97-.1.99-1.06,0-.58.2-1.49.42-2.01l.41-.96.98,1.45c.9,1.32,1.09,1.44,2.18,1.35.66-.05,1.2.02,1.2.16,0,.49-2.25,2.7-2.75,2.7-.28,0-.88.59-1.33,1.3-.45.72-.89,1.3-.96,1.3-.38,0-.53-.77-.34-1.65.25-1.13-.25-1.94-1.18-1.94-.34,0-.62-.15-.62-.33s.44-.32.98-.32ZM170.97,141.53c.14-.86.47-1.49.97-1.81,1.38-.91,10.32-4.39,10.79-4.21.33.13.41.47.28,1.16-.59,3.09-.6,2.9.16,2.84.46-.04,1.19-.69,2.01-1.79.7-.96,1.48-1.82,1.73-1.91.24-.09,1.27.42,2.29,1.15,1.56,1.12,1.93,1.26,2.45.93.38-.24.55-.6.43-.96-.23-.74.1-.72,1.41.07,1.21.74,1.34,1.17.41,1.47-1.02.32-.77,1.06.67,1.97.73.46,1.28.95,1.22,1.1-.14.36-12.01,8.33-13.67,9.18-.74.37-1.67,1.04-2.08,1.48-.66.72-.79.74-1.24.3-.27-.28-.58-.91-.7-1.41-.11-.5-.56-1.34-1-1.88-.78-.94-.82-.95-1.29-.33-.27.34-.49.93-.49,1.3,0,.37-.13.87-.29,1.11-.33.52-.59.21-1.22-1.42-.21-.53-.98-2.33-1.72-4-1.12-2.53-1.3-3.24-1.13-4.34ZM168.75,137.49c.06.36.35.84.64,1.06.47.37.42.51-.51,1.36-1.55,1.41-2.23,1.53-2.5.45-.15-.61-.08-1,.23-1.24.25-.18.6-.77.78-1.31.37-1.11,1.18-1.3,1.35-.32ZM154.56,118.65c.29-.57.58-1.33.64-1.69.06-.36.32-.65.58-.65s.53.29.58.65c.29,1.93.41,2.12,1.3,2.12h.89l-.87.82c-.49.45-1.1.82-1.37.82s-.65.29-.84.65h0c-.46.86-1.08.85-.81,0,.12-.37.03-.89-.2-1.17-.33-.41-.31-.69.12-1.53ZM119.11,115.5c.62-.24,1.21-.66,1.31-.92.15-.4.27-.38.66.14.68.9.59,1.34-.33,1.57-.45.11-.81.34-.81.53,0,.52-.84.36-1.41-.28-.51-.56-.47-.62.58-1.03ZM80.63,134.07c.45,0,.91.15,1.03.34.12.2.52.46.89.6.49.18.55.29.21.41-.52.2-2.42-.52-2.73-1.02-.12-.2.13-.33.61-.33ZM71.73,138.44c-.26.31-.69.45-1.05.34-.43-.14-.71.04-.98.64-.21.46-.51.84-.66.84-.39,0-.18-2.71.22-3.01.52-.39,1.62-.29,2.29.2.53.39.56.53.18.99ZM81.63,199.19c-.49.38-1.15.7-1.47.7s-.68.14-.79.32c-.3.48-.82.4-.82-.13,0-.25-.22-.54-.49-.64-.86-.33-.53-1.2.65-1.7.94-.39,1.14-.64,1.14-1.45,0-1.22.57-1.27.84-.08.11.49.57,1.21,1.01,1.59l.81.68-.89.7Z"/>
  </g>
</svg>