<?xml version="1.0" encoding="UTF-8"?>
<svg id="Layer_1" data-name="Layer 1" xmlns="http://www.w3.org/2000/svg" viewBox="0 0 2054 2046">
  <defs>
    <style>
      .cls-1 {
        fill: #ccbbf2;
      }

      .cls-2 {
        fill: #f2e0dc;
      }

      .cls-3 {
        opacity: .6;
      }
    </style>
  </defs>
  <rect class="cls-1" x="0" y="4" width="2052.03" height="2050"/>
  <g class="cls-3">
    <g>
      <path class="cls-2" d="M706.94,1447.1c0,26.16-9.71,40.61-26.76,40.61-15.04,0-25.22-14.09-25.45-39.54,0-25.81,11.13-40.01,26.76-40.01s25.45,14.44,25.45,38.95ZM665.15,1448.29c0,20.01,6.16,31.37,15.63,31.37,10.66,0,15.75-12.43,15.75-32.08s-4.85-31.37-15.63-31.37c-9.12,0-15.75,11.13-15.75,32.08Z"/>
      <path class="cls-2" d="M1405.54,311.65c0,26.16-9.71,40.61-26.76,40.61-15.04,0-25.22-14.09-25.45-39.54,0-25.81,11.13-40.01,26.76-40.01s25.45,14.44,25.45,38.95ZM1363.75,312.83c0,20.01,6.16,31.37,15.63,31.37,10.65,0,15.75-12.43,15.75-32.08s-4.85-31.37-15.63-31.37c-9.12,0-15.75,11.13-15.75,32.08Z"/>
      <path class="cls-2" d="M300.65,748.85c0,26.16-9.71,40.61-26.76,40.61-15.04,0-25.22-14.09-25.45-39.54,0-25.81,11.13-40.01,26.76-40.01s25.45,14.44,25.45,38.95ZM258.86,750.04c0,20.01,6.16,31.37,15.63,31.37,10.66,0,15.75-12.43,15.75-32.08s-4.85-31.37-15.63-31.37c-9.12,0-15.75,11.13-15.75,32.08Z"/>
      <path class="cls-2" d="M1825.02,527.44v-20.96h-35.75v-6.87l34.33-49.13h11.25v47.83h10.77v8.17h-10.77v20.96h-9.83ZM1825.02,498.31v-25.69c0-4.03.12-8.05.36-12.08h-.36c-2.37,4.5-4.26,7.81-6.39,11.37l-18.82,26.16v.24h25.22Z"/>
      <path class="cls-2" d="M443.97,1463.34v-20.95h-35.75v-6.87l34.33-49.13h11.25v47.83h10.77v8.17h-10.77v20.95h-9.83ZM443.97,1434.21v-25.69c0-4.03.12-8.05.35-12.08h-.35c-2.37,4.5-4.26,7.81-6.39,11.37l-18.82,26.16v.24h25.22Z"/>
      <path class="cls-2" d="M1107.83,1565.89v-20.96h-35.75v-6.87l34.33-49.13h11.25v47.83h10.77v8.17h-10.77v20.96h-9.83ZM1107.83,1536.77v-25.69c0-4.03.12-8.05.35-12.08h-.35c-2.37,4.5-4.26,7.81-6.39,11.37l-18.82,26.16v.24h25.22Z"/>
      <path class="cls-2" d="M840.17,402.37v-20.96h-35.75v-6.87l34.33-49.13h11.25v47.83h10.77v8.17h-10.77v20.96h-9.83ZM840.17,373.24v-25.69c0-4.03.12-8.05.35-12.08h-.35c-2.37,4.5-4.26,7.81-6.39,11.37l-18.82,26.16v.24h25.22Z"/>
      <path class="cls-2" d="M634.57,1239.42h-29.36l-2.96,19.77c1.78-.24,3.43-.47,6.27-.47,5.92,0,11.84,1.3,16.57,4.14,6.04,3.43,11.01,10.06,11.01,19.77,0,15.04-11.96,26.28-28.65,26.28-8.41,0-15.51-2.37-19.18-4.74l2.6-7.93c3.2,1.89,9.47,4.26,16.46,4.26,9.83,0,18.23-6.39,18.23-16.69-.12-9.94-6.75-17.05-22.14-17.05-4.38,0-7.81.47-10.66.83l4.97-36.94h36.82v8.76Z"/>
      <path class="cls-2" d="M1446.52,1309.79c-2.13-.12-4.85,0-7.81.47-16.34,2.72-24.98,14.68-26.76,27.35h.36c3.67-4.85,10.06-8.88,18.59-8.88,13.62,0,23.2,9.83,23.2,24.86,0,14.09-9.59,27.11-25.57,27.11s-27.23-12.79-27.23-32.79c0-15.15,5.45-27.11,13.02-34.69,6.39-6.27,14.92-10.18,24.62-11.37,3.08-.47,5.68-.59,7.58-.59v8.52ZM1443.56,1354.18c0-11.01-6.27-17.64-15.86-17.64-6.27,0-12.08,3.91-14.92,9.47-.71,1.18-1.18,2.72-1.18,4.62.24,12.67,6.04,22.02,16.93,22.02,9,0,15.04-7.46,15.04-18.47Z"/>
      <path class="cls-2" d="M170.82,1293.3c-2.13-.12-4.85,0-7.81.47-16.34,2.72-24.98,14.68-26.76,27.35h.36c3.67-4.85,10.06-8.88,18.59-8.88,13.62,0,23.2,9.83,23.2,24.86,0,14.09-9.59,27.11-25.57,27.11s-27.23-12.79-27.23-32.79c0-15.15,5.45-27.11,13.02-34.69,6.39-6.27,14.92-10.18,24.62-11.37,3.08-.47,5.68-.59,7.58-.59v8.52ZM167.86,1337.7c0-11.01-6.27-17.64-15.86-17.64-6.27,0-12.08,3.91-14.92,9.47-.71,1.18-1.18,2.72-1.18,4.62.24,12.67,6.04,22.02,16.93,22.02,9,0,15.04-7.46,15.04-18.47Z"/>
      <path class="cls-2" d="M1600.9,914.38c-2.13-.12-4.85,0-7.81.47-16.34,2.72-24.98,14.68-26.76,27.35h.36c3.67-4.85,10.06-8.88,18.59-8.88,13.62,0,23.2,9.83,23.2,24.86,0,14.09-9.59,27.11-25.57,27.11s-27.23-12.79-27.23-32.79c0-15.15,5.45-27.11,13.02-34.69,6.39-6.27,14.92-10.18,24.62-11.37,3.08-.47,5.68-.59,7.58-.59v8.52ZM1597.94,958.77c0-11.01-6.27-17.64-15.86-17.64-6.27,0-12.08,3.91-14.92,9.47-.71,1.18-1.18,2.72-1.18,4.62.24,12.67,6.04,22.02,16.93,22.02,9,0,15.04-7.46,15.04-18.47Z"/>
      <path class="cls-2" d="M862.26,1112.55c0-9.71,5.8-16.57,15.27-20.6l-.12-.35c-8.52-4.03-12.19-10.66-12.19-17.29,0-12.19,10.3-20.48,23.8-20.48,14.92,0,22.38,9.35,22.38,18.94,0,6.51-3.2,13.5-12.67,18v.36c9.59,3.79,15.51,10.54,15.51,19.89,0,13.38-11.48,22.38-26.16,22.38-16.1,0-25.81-9.59-25.81-20.84ZM903.7,1112.07c0-9.35-6.51-13.85-16.93-16.81-9,2.61-13.85,8.52-13.85,15.86-.36,7.81,5.56,14.68,15.39,14.68s15.39-5.8,15.39-13.73ZM875.05,1073.6c0,7.7,5.8,11.84,14.68,14.21,6.63-2.25,11.72-6.98,11.72-13.97,0-6.16-3.67-12.55-13.02-12.55-8.64,0-13.38,5.68-13.38,12.31Z"/>
      <path class="cls-2" d="M654.85,659.55c0-9.71,5.8-16.57,15.27-20.6l-.12-.35c-8.52-4.03-12.19-10.66-12.19-17.28,0-12.19,10.3-20.48,23.8-20.48,14.92,0,22.38,9.35,22.38,18.94,0,6.51-3.2,13.5-12.67,18v.35c9.59,3.79,15.51,10.54,15.51,19.89,0,13.38-11.48,22.38-26.16,22.38-16.1,0-25.81-9.59-25.81-20.84ZM696.28,659.08c0-9.35-6.51-13.85-16.93-16.81-9,2.61-13.85,8.52-13.85,15.86-.36,7.81,5.56,14.68,15.39,14.68s15.39-5.8,15.39-13.73ZM667.63,620.6c0,7.7,5.8,11.84,14.68,14.21,6.63-2.25,11.72-6.98,11.72-13.97,0-6.16-3.67-12.55-13.02-12.55-8.64,0-13.38,5.68-13.38,12.31Z"/>
      <path class="cls-2" d="M402.84,1124.74c2.25.24,4.85,0,8.41-.35,6.04-.83,11.72-3.31,16.1-7.46,5.09-4.62,8.76-11.37,10.18-20.48h-.36c-4.26,5.21-10.42,8.29-18.11,8.29-13.85,0-22.73-10.42-22.73-23.56,0-14.56,10.54-27.35,26.28-27.35s25.45,12.79,25.45,32.44c0,16.93-5.68,28.77-13.26,36.11-5.92,5.8-14.09,9.35-22.38,10.3-3.79.59-7.1.71-9.59.59v-8.52ZM406.63,1080.46c0,9.59,5.8,16.34,14.8,16.34,6.99,0,12.43-3.43,15.15-8.05.59-.95.95-2.13.95-3.79,0-13.14-4.85-23.2-15.75-23.2-8.88,0-15.15,7.81-15.15,18.71Z"/>
      <path class="cls-2" d="M1131.75,500.61c2.25.24,4.85,0,8.41-.35,6.04-.83,11.72-3.31,16.1-7.46,5.09-4.62,8.76-11.37,10.18-20.48h-.36c-4.26,5.21-10.42,8.29-18.11,8.29-13.85,0-22.73-10.42-22.73-23.56,0-14.56,10.54-27.35,26.28-27.35s25.45,12.79,25.45,32.44c0,16.93-5.68,28.77-13.26,36.11-5.92,5.8-14.09,9.35-22.38,10.3-3.79.59-7.1.71-9.59.59v-8.52ZM1135.54,456.33c0,9.59,5.8,16.34,14.8,16.34,6.99,0,12.43-3.43,15.15-8.05.59-.95.95-2.13.95-3.79,0-13.14-4.85-23.2-15.75-23.2-8.88,0-15.15,7.81-15.15,18.71Z"/>
      <path class="cls-2" d="M805.13,1837.13c2.25.24,4.85,0,8.41-.35,6.04-.83,11.72-3.31,16.1-7.46,5.09-4.62,8.76-11.37,10.18-20.48h-.36c-4.26,5.21-10.42,8.29-18.11,8.29-13.85,0-22.73-10.42-22.73-23.56,0-14.56,10.54-27.35,26.28-27.35s25.45,12.79,25.45,32.44c0,16.93-5.68,28.77-13.26,36.11-5.92,5.8-14.09,9.35-22.38,10.3-3.79.59-7.1.71-9.59.59v-8.52ZM808.91,1792.85c0,9.59,5.8,16.34,14.8,16.34,6.99,0,12.43-3.43,15.15-8.05.59-.95.95-2.13.95-3.79,0-13.14-4.85-23.2-15.75-23.2-8.88,0-15.15,7.81-15.15,18.71Z"/>
    </g>
    <g>
      <path class="cls-2" d="M1024.4,1999.75c-132.7,0-261.44-25.99-382.63-77.25-117.05-49.51-222.18-120.39-312.46-210.66-90.28-90.28-161.15-195.4-210.66-312.45-51.26-121.19-77.25-249.92-77.25-382.63s25.99-261.44,77.25-382.63c49.51-117.05,120.39-222.18,210.66-312.46,90.28-90.28,195.4-161.15,312.46-210.66,121.19-51.26,249.92-77.25,382.63-77.25s261.44,25.99,382.63,77.25c117.05,49.51,222.18,120.39,312.45,210.66,90.28,90.28,161.15,195.4,210.66,312.46,51.26,121.19,77.25,249.92,77.25,382.63s-25.99,261.44-77.25,382.63c-49.51,117.05-120.39,222.18-210.66,312.45-90.28,90.28-195.4,161.15-312.45,210.66-121.19,51.26-249.92,77.25-382.63,77.25ZM1024.4,36.07C483.65,36.07,43.71,476,43.71,1016.76s439.94,980.69,980.69,980.69,980.69-439.94,980.69-980.69S1565.16,36.07,1024.4,36.07Z"/>
      <path class="cls-2" d="M1024.4,1886.29c-117.39,0-231.26-22.99-338.46-68.33-103.54-43.8-196.54-106.49-276.39-186.35-79.86-79.86-142.55-172.85-186.35-276.39-45.34-107.2-68.33-221.08-68.33-338.46s22.99-231.26,68.33-338.46c43.79-103.54,106.49-196.53,186.35-276.39,79.86-79.86,172.85-142.55,276.39-186.35,107.2-45.34,221.08-68.33,338.46-68.33s231.26,22.99,338.46,68.33c103.54,43.79,196.53,106.49,276.39,186.35,79.86,79.86,142.55,172.85,186.35,276.39,45.34,107.2,68.33,221.08,68.33,338.46s-22.99,231.26-68.33,338.46c-43.8,103.54-106.49,196.53-186.35,276.39-79.86,79.86-172.85,142.55-276.39,186.35-107.2,45.34-221.08,68.33-338.46,68.33ZM1024.4,149.53c-478.19,0-867.23,389.04-867.23,867.23s389.04,867.23,867.23,867.23,867.23-389.04,867.23-867.23S1502.6,149.53,1024.4,149.53Z"/>
      <path class="cls-2" d="M1024.4,1702.9c-92.63,0-182.49-18.14-267.08-53.92-81.71-34.56-155.08-84.03-218.1-147.05-63.01-63.01-112.49-136.39-147.04-218.1-35.78-84.59-53.92-174.45-53.92-267.08s18.14-182.49,53.92-267.08c34.56-81.71,84.03-155.08,147.04-218.1,63.01-63.01,136.39-112.49,218.1-147.04,84.59-35.78,174.45-53.92,267.08-53.92s182.49,18.14,267.08,53.92c81.7,34.56,155.08,84.03,218.1,147.04,63.01,63.01,112.49,136.39,147.05,218.1,35.78,84.59,53.92,174.45,53.92,267.08s-18.14,182.49-53.92,267.08c-34.56,81.7-84.03,155.08-147.05,218.1-63.01,63.01-136.39,112.49-218.1,147.05-84.59,35.78-174.45,53.92-267.08,53.92ZM1024.4,332.44c-377.34,0-684.32,306.99-684.32,684.32s306.99,684.32,684.32,684.32,684.32-306.99,684.32-684.32-306.99-684.32-684.32-684.32Z"/>
      <path class="cls-2" d="M1024.4,1992.44c-91.69,0-177.89-35.71-242.73-100.54-64.84-64.84-100.54-151.04-100.54-242.73s35.71-177.89,100.54-242.73c64.84-64.84,151.04-100.54,242.73-100.54s177.89,35.71,242.73,100.54c64.83,64.83,100.54,151.04,100.54,242.73s-35.71,177.89-100.54,242.73c-64.84,64.83-151.04,100.54-242.73,100.54ZM1024.4,1308.14c-188.05,0-341.04,152.99-341.04,341.04s152.99,341.04,341.04,341.04,341.04-152.99,341.04-341.04-152.99-341.04-341.04-341.04Z"/>
      <path class="cls-2" d="M1024.4,1706.66c-91.69,0-177.89-35.71-242.73-100.54-64.84-64.84-100.54-151.04-100.54-242.73s35.71-177.89,100.54-242.73c64.84-64.84,151.04-100.54,242.73-100.54s177.89,35.71,242.73,100.54c64.83,64.84,100.54,151.04,100.54,242.73s-35.71,177.89-100.54,242.73c-64.84,64.84-151.04,100.54-242.73,100.54ZM1024.4,1022.35c-188.05,0-341.04,152.99-341.04,341.04s152.99,341.04,341.04,341.04,341.04-152.99,341.04-341.04-152.99-341.04-341.04-341.04Z"/>
      <path class="cls-2" d="M1567.65,1678.62c-59.48,0-118.18-15.6-171.08-46.14-79.41-45.85-136.21-119.87-159.94-208.44-23.73-88.57-11.55-181.07,34.29-260.48,45.85-79.41,119.87-136.21,208.44-159.94,88.57-23.73,181.07-11.55,260.48,34.29,79.41,45.85,136.21,119.87,159.94,208.44,23.73,88.57,11.55,181.07-34.29,260.48-45.85,79.41-119.87,136.21-208.44,159.94-29.57,7.92-59.59,11.84-89.4,11.84ZM1568.78,994.23c-117.96,0-232.82,61.16-295.92,170.45-94.03,162.86-38.03,371.84,124.83,465.87,162.85,94.02,371.84,38.03,465.86-124.83,45.55-78.89,57.65-170.8,34.07-258.79-23.58-87.99-80.01-161.53-158.9-207.08-53.57-30.93-112.13-45.62-169.95-45.62Z"/>
      <path class="cls-2" d="M1320.16,1535.73c-59.48,0-118.18-15.6-171.08-46.14-79.41-45.85-136.21-119.87-159.94-208.44-23.73-88.57-11.55-181.07,34.29-260.48,45.85-79.41,119.87-136.21,208.44-159.94,88.57-23.73,181.07-11.55,260.48,34.29,79.41,45.84,136.21,119.87,159.94,208.44,23.73,88.57,11.55,181.07-34.29,260.48-45.85,79.41-119.87,136.21-208.44,159.94-29.57,7.92-59.59,11.84-89.4,11.84ZM1321.29,851.34c-117.96,0-232.82,61.16-295.92,170.45-94.02,162.85-38.03,371.84,124.83,465.87,53.57,30.93,112.13,45.62,169.95,45.62,117.96,0,232.82-61.16,295.92-170.45,94.03-162.86,38.03-371.84-124.83-465.87-53.57-30.93-112.13-45.62-169.95-45.62Z"/>
      <path class="cls-2" d="M1568.77,1050.69c-29.82,0-59.83-3.92-89.4-11.84-88.57-23.73-162.59-80.53-208.44-159.94-45.85-79.41-58.02-171.91-34.29-260.48,23.73-88.57,80.53-162.59,159.94-208.44l.56.97-.56-.97c79.4-45.85,171.91-58.03,260.48-34.29,88.57,23.73,162.59,80.53,208.44,159.94,45.84,79.41,58.02,171.91,34.29,260.48-23.73,88.57-80.53,162.59-159.94,208.44-52.89,30.54-111.6,46.14-171.08,46.14ZM1567.66,366.09c-59.1,0-117.41,15.5-169.96,45.84-78.89,45.55-135.32,119.09-158.9,207.08-23.58,87.99-11.48,179.9,34.07,258.79,63.09,109.28,177.97,170.44,295.92,170.45,57.83,0,116.37-14.69,169.95-45.62,78.89-45.55,135.32-119.09,158.9-207.08,23.58-87.99,11.48-179.9-34.07-258.79-45.55-78.89-119.09-135.32-207.08-158.9-29.38-7.87-59.2-11.77-88.82-11.77Z"/>
      <path class="cls-2" d="M1321.28,1193.58c-29.82,0-59.83-3.92-89.4-11.84-88.57-23.73-162.59-80.53-208.44-159.94-45.85-79.41-58.02-171.91-34.29-260.48,23.73-88.57,80.53-162.59,159.94-208.44,79.41-45.85,171.91-58.02,260.48-34.29,88.57,23.73,162.59,80.53,208.44,159.94,45.85,79.41,58.02,171.91,34.29,260.48-23.73,88.57-80.53,162.59-159.94,208.44-52.89,30.54-111.6,46.14-171.08,46.14ZM1149.64,553.85l.56.97c-78.89,45.55-135.32,119.09-158.9,207.08-23.58,87.99-11.48,179.9,34.07,258.79,45.55,78.89,119.09,135.32,207.08,158.9,87.99,23.58,179.9,11.48,258.79-34.07,162.85-94.02,218.85-303.01,124.83-465.87-94.02-162.85-303.01-218.85-465.87-124.83l-.56-.97Z"/>
      <path class="cls-2" d="M1024.4,736.57c-91.69,0-177.89-35.71-242.73-100.54-64.84-64.84-100.54-151.04-100.54-242.73s35.71-177.89,100.54-242.73c64.84-64.84,151.04-100.54,242.73-100.54s177.89,35.71,242.73,100.54c64.83,64.84,100.54,151.04,100.54,242.73s-35.71,177.89-100.54,242.73c-64.84,64.84-151.04,100.54-242.73,100.54ZM1024.4,52.27c-188.05,0-341.04,152.99-341.04,341.04s152.99,341.04,341.04,341.04,341.04-152.99,341.04-341.04S1212.45,52.27,1024.4,52.27Z"/>
      <path class="cls-2" d="M1024.4,1022.35c-91.69,0-177.89-35.71-242.73-100.54-64.84-64.84-100.54-151.04-100.54-242.73s35.71-177.89,100.54-242.73c64.84-64.84,151.04-100.54,242.73-100.54s177.89,35.71,242.73,100.54c64.83,64.83,100.54,151.04,100.54,242.73s-35.71,177.89-100.54,242.73c-64.84,64.84-151.04,100.54-242.73,100.54ZM1024.4,338.05c-188.05,0-341.04,152.99-341.04,341.04s152.99,341.04,341.04,341.04,341.04-152.99,341.04-341.04-152.99-341.04-341.04-341.04Z"/>
      <path class="cls-2" d="M480.04,1050.69c-59.48,0-118.18-15.6-171.08-46.14-79.41-45.84-136.21-119.87-159.94-208.44-23.73-88.57-11.55-181.07,34.29-260.48,45.85-79.41,119.87-136.21,208.44-159.94,88.57-23.73,181.07-11.55,260.48,34.29,79.41,45.85,136.21,119.87,159.94,208.44,23.73,88.57,11.55,181.07-34.29,260.48-45.85,79.41-119.87,136.21-208.44,159.94-29.57,7.92-59.59,11.84-89.4,11.84ZM481.15,366.09c-29.62,0-59.44,3.89-88.82,11.77-87.99,23.58-161.53,80.01-207.08,158.9-45.55,78.89-57.65,170.8-34.07,258.79,23.58,87.99,80.01,161.53,158.9,207.08,53.57,30.93,112.13,45.62,169.95,45.62,117.96,0,232.82-61.16,295.92-170.45,45.55-78.89,57.65-170.8,34.07-258.79-23.58-87.99-80.01-161.53-158.9-207.08-52.55-30.34-110.87-45.84-169.96-45.84Z"/>
      <path class="cls-2" d="M727.53,1193.58c-59.48,0-118.18-15.6-171.08-46.14-79.41-45.85-136.21-119.87-159.94-208.44-23.73-88.57-11.55-181.07,34.29-260.48,45.85-79.41,119.87-136.21,208.44-159.94,88.57-23.73,181.07-11.55,260.48,34.29,79.41,45.85,136.21,119.87,159.94,208.44,23.73,88.57,11.55,181.07-34.29,260.48-45.85,79.41-119.87,136.21-208.44,159.94-29.57,7.92-59.59,11.84-89.4,11.84ZM728.64,508.98c-29.62,0-59.44,3.89-88.82,11.77-87.99,23.58-161.53,80.01-207.08,158.9-45.55,78.89-57.65,170.8-34.07,258.79,23.58,87.99,80.01,161.53,158.9,207.08,78.89,45.55,170.8,57.65,258.79,34.07,87.99-23.58,161.53-80.01,207.08-158.9,45.55-78.89,57.65-170.79,34.07-258.79-23.58-87.99-80.01-161.53-158.9-207.08-52.55-30.34-110.87-45.84-169.96-45.84Z"/>
      <path class="cls-2" d="M481.16,1678.62c-29.82,0-59.83-3.92-89.4-11.84-88.57-23.73-162.59-80.53-208.44-159.94-45.85-79.41-58.02-171.91-34.29-260.48,23.73-88.57,80.53-162.59,159.94-208.44,79.41-45.84,171.91-58.02,260.48-34.29,88.57,23.73,162.59,80.53,208.44,159.94,45.85,79.41,58.02,171.91,34.29,260.48-23.73,88.57-80.53,162.59-159.94,208.44-52.89,30.54-111.6,46.14-171.08,46.14ZM480.02,994.23c-57.83,0-116.37,14.69-169.95,45.62-78.89,45.55-135.32,119.09-158.9,207.08-23.58,87.99-11.48,179.9,34.07,258.79,94.02,162.85,303.01,218.85,465.87,124.83l.56.97-.56-.97c162.85-94.02,218.85-303.01,124.83-465.87-63.09-109.28-177.97-170.45-295.92-170.45Z"/>
      <path class="cls-2" d="M728.65,1535.73c-29.82,0-59.83-3.92-89.4-11.84-88.57-23.73-162.59-80.53-208.44-159.94-45.85-79.41-58.02-171.91-34.29-260.48,23.73-88.57,80.53-162.59,159.94-208.44,79.41-45.85,171.91-58.03,260.48-34.29,88.57,23.73,162.59,80.53,208.44,159.94,45.85,79.41,58.02,171.91,34.29,260.48-23.73,88.57-80.53,162.59-159.94,208.44-52.89,30.54-111.6,46.14-171.08,46.14ZM727.52,851.34c-57.83,0-116.37,14.69-169.95,45.62-78.89,45.55-135.32,119.09-158.9,207.08-23.58,87.99-11.48,179.9,34.07,258.79,63.09,109.28,177.97,170.44,295.92,170.45,57.83,0,116.37-14.69,169.95-45.62,78.89-45.55,135.32-119.09,158.9-207.08,23.58-87.99,11.48-179.9-34.07-258.79-63.09-109.28-177.97-170.45-295.92-170.45Z"/>
      <rect class="cls-2" x="1023.49" y="34.92" width="1.82" height="108.56"/>
      <rect class="cls-2" x="577.19" y="289.25" width="1.82" height="183.29" transform="translate(-112.64 427.41) rotate(-37.23)"/>
      <rect class="cls-2" x="365.25" y="318.63" width="1.82" height="108.56" transform="translate(-156.44 368.14) rotate(-45)"/>
      <rect class="cls-2" x="255.93" y="803.11" width="1.82" height="183.29" transform="translate(-664.43 1028.31) rotate(-82.23)"/>
      <rect class="cls-2" x="47.04" y="1038.07" width="108.56" height="1.82"/>
      <rect class="cls-2" x="309.28" y="1478.37" width="183.29" height="1.82" transform="translate(-813.6 544.44) rotate(-37.25)"/>
      <rect class="cls-2" x="337.19" y="1689.88" width="108.56" height="1.82" transform="translate(-1081.31 772.68) rotate(-45.03)"/>
      <rect class="cls-2" x="818.15" y="1784.28" width="183.29" height="1.82" transform="translate(-981.82 2445.8) rotate(-82.25)"/>
      <rect class="cls-2" x="1050.2" y="1885.14" width="1.82" height="108.56"/>
      <rect class="cls-2" x="1474.16" y="1559.62" width="1.82" height="183.29" transform="translate(-698.46 1229.05) rotate(-37.23)"/>
      <rect class="cls-2" x="1685.34" y="1607.93" width="1.82" height="108.56" transform="translate(-681.47 1679.22) rotate(-45)"/>
      <rect class="cls-2" x="1786.58" y="1068.64" width="1.82" height="183.29" transform="translate(396.27 2774.56) rotate(-82.23)"/>
      <rect class="cls-2" x="1892.1" y="1020.33" width="108.56" height="1.82"/>
      <rect class="cls-2" x="1577.36" y="579.2" width="183.29" height="1.82" transform="translate(-10.85 1128.02) rotate(-37.23)"/>
      <rect class="cls-2" x="1636.19" y="374.47" width="108.56" height="1.82" transform="translate(229.28 1304.64) rotate(-44.97)"/>
      <rect class="cls-2" x="1075.89" y="251.75" width="183.29" height="1.82" transform="translate(759.76 1375.47) rotate(-82.25)"/>
      <rect class="cls-2" x="835.14" y="56.26" width="1.82" height="296.68" transform="translate(-24.61 194.17) rotate(-13.06)"/>
      <rect class="cls-2" x="863.75" y="47.77" width="1.82" height="299.06" transform="translate(-21.78 169.09) rotate(-11.03)"/>
      <rect class="cls-2" x="316.02" y="427.32" width="1.82" height="296.68" transform="translate(-339.24 540.03) rotate(-58.06)"/>
      <rect class="cls-2" x="331.09" y="400.74" width="1.82" height="299.06" transform="translate(-309.87 518.16) rotate(-56.03)"/>
      <rect class="cls-2" x="63.9" y="1204.21" width="296.68" height="1.82" transform="translate(-266.72 79.08) rotate(-13.05)"/>
      <rect class="cls-2" x="55.42" y="1175.6" width="299.06" height="1.82" transform="translate(-221.24 60.92) rotate(-11.03)"/>
      <rect class="cls-2" x="434.97" y="1723.33" width="296.68" height="1.82" transform="translate(-1188.4 1306.76) rotate(-58.05)"/>
      <rect class="cls-2" x="408.39" y="1708.25" width="299.06" height="1.82" transform="translate(-1171.48 1217.55) rotate(-56.05)"/>
      <rect class="cls-2" x="1211.85" y="1680.59" width="1.82" height="296.68" transform="translate(-381.84 321.28) rotate(-13.06)"/>
      <rect class="cls-2" x="1183.24" y="1686.69" width="1.82" height="299.06" transform="translate(-329.47 260.51) rotate(-11.03)"/>
      <rect class="cls-2" x="1730.97" y="1309.52" width="1.82" height="296.68" transform="translate(-421.51 2156.19) rotate(-58.06)"/>
      <rect class="cls-2" x="1715.9" y="1333.71" width="1.82" height="299.06" transform="translate(-472.56 2078.3) rotate(-56.03)"/>
      <rect class="cls-2" x="1688.23" y="827.49" width="296.68" height="1.82" transform="translate(-139.89 437.43) rotate(-13.09)"/>
      <rect class="cls-2" x="1694.33" y="856.1" width="299.06" height="1.82" transform="translate(-130.18 369.71) rotate(-11.06)"/>
      <rect class="cls-2" x="1317.16" y="308.37" width="296.68" height="1.82" transform="translate(427.93 1389.46) rotate(-58.07)"/>
      <rect class="cls-2" x="1341.36" y="323.45" width="299.06" height="1.82" transform="translate(388.71 1379.42) rotate(-56.02)"/>
      <path class="cls-2" d="M1426.46,1018.24h-804.11l.79-1.36,401.27-695.02.79,1.36,401.27,695.02ZM625.49,1016.43h797.82l-398.91-690.93-398.91,690.93Z"/>
      <path class="cls-2" d="M676.95,1219.07V414.96l1.36.79,695.02,401.27-1.36.79-695.02,401.27ZM678.77,418.11v797.82l690.93-398.91-690.93-398.91Z"/>
      <path class="cls-2" d="M824.66,1365.69l-.79-1.36-401.27-695.02h804.11l-.79,1.36-401.27,695.02ZM425.75,671.13l398.91,690.93,398.91-690.93H425.75Z"/>
      <path class="cls-2" d="M1025.89,1418.82l-1.36-.79-695.02-401.27,1.36-.79,695.02-401.27v804.12ZM333.14,1016.76l690.93,398.91v-797.82l-690.93,398.91Z"/>
      <path class="cls-2" d="M1226.72,1364.21H422.6l.79-1.36,401.27-695.02.79,1.36,401.27,695.02ZM425.75,1362.39h797.82l-398.91-690.93-398.91,690.93Z"/>
      <path class="cls-2" d="M676.95,1618.56v-804.12l1.36.79,695.02,401.27-1.36.79-695.02,401.27ZM678.77,817.59v797.82l690.93-398.91-690.93-398.91Z"/>
      <path class="cls-2" d="M1024.4,1711.66l-.79-1.36-401.27-695.02h804.11l-.79,1.36-401.27,695.02ZM625.49,1017.09l398.91,690.93,398.91-690.93h-797.82Z"/>
      <path class="cls-2" d="M1371.85,1618.56l-1.36-.79-695.02-401.27,1.36-.79,695.02-401.27v804.12ZM679.1,1216.5l690.93,398.91v-797.82l-690.93,398.91Z"/>
      <path class="cls-2" d="M1626.2,1364.21h-804.12l.79-1.36,401.27-695.02.79,1.36,401.27,695.02ZM825.24,1362.39h797.82l-398.91-690.93-398.91,690.93Z"/>
      <path class="cls-2" d="M1022.92,1418.82v-804.12l1.36.79,695.02,401.27-1.36.79-695.02,401.27ZM1024.74,617.85v797.82l690.93-398.91-690.93-398.91Z"/>
      <path class="cls-2" d="M1224.15,1365.69l-.79-1.36-401.27-695.02h804.12l-.79,1.36-401.27,695.02ZM825.24,671.13l398.91,690.93,398.91-690.93h-797.82Z"/>
      <path class="cls-2" d="M1371.85,1219.07l-1.36-.79-695.02-401.27,1.36-.79,695.02-401.27v804.11ZM679.1,817.02l690.93,398.91V418.11l-690.93,398.91Z"/>
      <g>
        <polygon class="cls-2" points="622.85 990.32 595.23 1038.15 650.47 1038.15 622.85 990.32"/>
        <polygon class="cls-2" points="1424.89 990.32 1397.27 1038.15 1452.5 1038.15 1424.89 990.32"/>
      </g>
      <g>
        <polygon class="cls-2" points="802.64 1349.57 830.26 1397.4 857.88 1349.57 802.64 1349.57"/>
        <polygon class="cls-2" points="1050.37 1714.57 1022.75 1666.73 995.13 1714.57 1050.37 1714.57"/>
        <polygon class="cls-2" points="1203.66 649.5 1231.28 697.34 1258.9 649.5 1203.66 649.5"/>
      </g>
      <g>
        <polygon class="cls-2" points="1203.66 1373.49 1258.9 1373.49 1231.28 1325.65 1203.66 1373.49"/>
        <polygon class="cls-2" points="798.24 682.72 853.48 682.72 825.86 634.88 798.24 682.72"/>
      </g>
    </g>
    <g>
      <circle class="cls-2" cx="1021.75" cy="1018.4" r="20.58" transform="translate(-204.16 1778.84) rotate(-76.72)"/>
      <circle class="cls-2" cx="1021.75" cy="330.37" r="20.58" transform="translate(465.46 1248.88) rotate(-76.72)"/>
      <circle class="cls-2" cx="424.18" cy="1357.54" r="20.58" transform="translate(-835.69 697.55) rotate(-45)"/>
      <circle class="cls-2" cx="1624.63" cy="1357.54" r="20.58" transform="translate(-69.86 2626.81) rotate(-76.72)"/>
      <polygon class="cls-2" points="1587.12 689.36 1642.36 689.36 1614.74 641.53 1587.12 689.36"/>
      <polygon class="cls-2" points="459.51 654.98 404.27 654.98 431.89 702.82 459.51 654.98"/>
    </g>
    <g>
      <polygon class="cls-2" points="1376.04 393.99 1413.41 293.43 1402.27 272.98 1385.29 272.66 1379.01 286.87 1375.76 285.43 1382.99 269.06 1404.4 269.47 1417.3 293.15 1388.58 370.44 1436.35 303.93 1458.83 299.72 1474.01 320.59 1461.18 334.48 1458.57 332.06 1469.43 320.32 1457.28 303.62 1438.4 307.16 1376.04 393.99"/>
      <path class="cls-2" d="M1653.95,624.23l9.86-31.07,30.01-8.11,7.31,5.31-3.64-20.31,14.52-26.12-3.08-10.97,3.42-.96,3.48,12.38-14.61,26.29,4.07,22.71,19.17,13.94,29.19,1.47,11.67,10.01-2.31,2.7-10.75-9.22-29.03-1.46-17.03-12.38,1.74,9.72-20.57,20.08-33.42-4ZM1666.61,596.08l-7.98,25.14,27.47,3.29,18-17.58-2.07-11.52-8.93-6.49-26.5,7.16Z"/>
      <g>
        <polygon class="cls-2" points="1857.09 1061.76 1849.67 1033.07 1848.96 1001.18 1854.91 969.47 1858.4 970.13 1852.48 1001.65 1853.21 1032.78 1860.53 1060.87 1857.09 1061.76"/>
        <rect class="cls-2" x="1776.08" y="1000.52" width="74.58" height="3.55" transform="translate(-22.82 42.44) rotate(-1.33)"/>
        <rect class="cls-2" x="1776.83" y="1032.18" width="74.58" height="3.55" transform="translate(-23.55 42.47) rotate(-1.33)"/>
        <polygon class="cls-2" points="1765.41 1062.9 1775.06 1034.56 1774.29 1002.01 1766.54 974.2 1769.96 973.24 1777.83 1001.48 1778.62 1035.11 1768.77 1064.04 1765.41 1062.9"/>
      </g>
      <g>
        <path class="cls-2" d="M1702.87,1418.21l-2.28-2.72,30.52-25.59,19.1-29.46,2.05-8.26-23.08-3.25-9.54-29.22,25.61-12.09,15.83,23.79-7.57,30.46-19.71,30.41-30.92,25.94ZM1723.98,1321.58l7.88,24.13,21.25,2.99,4.13-16.64-13.26-19.94-20,9.44Z"/>
        <path class="cls-2" d="M1688.37,1410.85l-15.83-23.79,7.57-30.46.16-.25,19.55-30.16,30.92-25.94,2.28,2.72-30.52,25.59-19.1,29.46-2.05,8.26,23.08,3.25,9.54,29.22-25.61,12.09ZM1676.36,1386.4l13.26,19.94,20.01-9.44-7.88-24.14-21.25-2.99-4.13,16.64Z"/>
      </g>
      <g>
        <polygon class="cls-2" points="204.09 1043.25 153.88 993.36 200.01 946.93 202.53 949.43 158.9 993.35 206.59 1040.73 204.09 1043.25"/>
        <g>
          <rect class="cls-2" x="156.38" y="990.61" width="152.13" height="3.55" transform="translate(-12.82 3.09) rotate(-.74)"/>
          <rect class="cls-2" x="280.36" y="968.37" width="3.55" height="49.51" transform="translate(-3.23 .92) rotate(-.19)"/>
        </g>
      </g>
      <path class="cls-2" d="M269.89,643.42l-1.76-3.08,15.58-8.92,30.36,12.16,27.02,13.11-27.99-20.54-22.6-27.17,7.69-18.69,34.84,15.58,49.91,16.98-5.87-12.91,11.21-20.36,19.74,4.93,2.2,20.19-21.34,12.63,5.5,12.1-4.82,19.66-3.45-.85,4.53-18.47-5.68-12.49-53.3-18.14-31.57-14.12-5.48,13.32,20.95,25.19,43.39,31.83-1.82,3.03-44.54-21.6-28.6-11.45-14.09,8.07ZM381.04,610.08l6.36,13.99,19.04-11.27-1.69-15.45-14.69-3.67-9.03,16.4Z"/>
      <g>
        <polygon class="cls-2" points="523.94 415.93 544.9 381.97 572.73 383.63 582.23 354.29 618.52 350.69 618.87 354.22 584.89 357.6 575.26 387.34 546.81 385.64 526.96 417.8 523.94 415.93"/>
        <polygon class="cls-2" points="537.33 434.06 558.3 400.1 586.13 401.75 595.62 372.42 631.91 368.81 632.27 372.35 598.28 375.72 588.66 405.46 560.2 403.77 540.35 435.92 537.33 434.06"/>
      </g>
      <g>
        <polygon class="cls-2" points="987.18 293.18 1001.13 263.24 1002.07 209.72 989.21 177.9 992.5 176.57 1005.64 209.06 1004.67 264.06 990.4 294.68 987.18 293.18"/>
        <polygon class="cls-2" points="1059.44 296.05 1042.61 264.82 1043.57 210.47 1055.82 177.79 1059.15 179.03 1047.11 211.15 1046.17 263.96 1062.57 294.37 1059.44 296.05"/>
        <rect class="cls-2" x="1022.92" y="196.79" width="3.55" height="83.8" transform="translate(767.99 1259.02) rotate(-88.99)"/>
      </g>
      <path class="cls-2" d="M1399.79,1684.46l-4.62-14.31,17.88-17.59,21.21,10.89,16.6,29.69,13.74,21.89,18.4,8.8,12.17-9.2-2.12-14.44-23.83-22.47-19.45-29.66,8.59-21.17,26.59,3.1,8.36,17.72-9.81,19.08-19.14-2.96,7.6,11.58,24.42,23.04,2.6,17.74-15.57,11.77-21.28-10.17-14.33-22.84-16.12-28.83-17.98-9.23-14.48,14.25,3.95,12.23-3.38,1.09ZM1453.76,1647.66l8.61,13.13.13-.84,19.01,2.94,7.84-15.24-6.77-14.36-21.95-2.56-6.87,16.94Z"/>
      <g>
        <polygon class="cls-2" points="1052.68 1837.37 1051.02 1774.33 1054.57 1774.24 1056.19 1835.63 1063.65 1841.64 1061.42 1844.41 1052.68 1837.37"/>
        <polygon class="cls-2" points="1032.23 1843.79 1027.68 1831.69 1027.67 1831.39 1026.25 1777.49 1029.8 1777.4 1031.22 1831 1034.34 1839.31 1044.68 1835.74 1052.82 1825.94 1055.55 1828.21 1046.78 1838.77 1032.23 1843.79"/>
        <polygon class="cls-2" points="1008.47 1844.47 1003.19 1834.71 1001.64 1776.24 996.51 1769.88 986.46 1766.75 987.51 1763.35 998.59 1766.8 1005.16 1774.94 1006.71 1833.76 1010.04 1839.9 1017.81 1836.51 1027.93 1824.35 1030.66 1826.62 1020 1839.42 1008.47 1844.47"/>
        <polygon class="cls-2" points="986.36 1808.61 985.73 1784.91 990.19 1774.78 1012.48 1757.26 1030.13 1762.21 1029.17 1765.63 1013.26 1761.16 993.08 1777.02 989.3 1785.61 989.81 1804.97 996.62 1804.79 1002.08 1796.42 1005.06 1798.36 998.58 1808.29 986.36 1808.61"/>
      </g>
      <g>
        <polygon class="cls-2" points="290.12 1392.49 291.97 1381.4 346.18 1348.97 348.01 1352.01 295.21 1383.6 293.63 1393.07 290.12 1392.49"/>
        <polygon class="cls-2" points="276.32 1366.7 284.65 1356.78 331.25 1328.9 333.07 1331.95 286.98 1359.52 281.26 1366.34 289.46 1373.61 302.01 1375.91 301.38 1379.4 287.84 1376.93 276.32 1366.7"/>
        <polygon class="cls-2" points="264.05 1346.29 269.97 1336.88 270.34 1336.67 320.26 1306.8 323.29 1299.19 321.14 1289.16 312.87 1275.33 315.92 1273.51 324.49 1287.85 326.99 1299.5 323.12 1309.23 272.53 1339.5 268.8 1345.42 275.58 1350.53 291.17 1353.39 290.53 1356.89 274.12 1353.87 264.05 1346.29"/>
        <polygon class="cls-2" points="313.7 1290.34 311.25 1269.38 329.57 1280.74 327.7 1283.76 315.63 1276.27 317.22 1289.92 313.7 1290.34"/>
      </g>
      <g>
        <path class="cls-2" d="M511.78,1678.38l5.41-29.52,14.68-7.94-37.58-22.36,1.82-3.05,42.96,25.56-18.69,10.1-4.67,25.48c9.11,5.71,22.8,14.13,26.23,15.83,2.67-2.06,12.44-9.8,19.44-15.35l.93-22.22,45.05,26.8-1.82,3.05-39.93-23.76-.75,17.9-.64.51c-4.74,3.76-20.26,16.07-21.03,16.56-1.2.77-1.7,1.09-30.4-16.95l-1.02-.64Z"/>
        <rect class="cls-2" x="554.54" y="1576.19" width="3.55" height="129.46" transform="translate(-1138.31 1279.87) rotate(-59.24)"/>
      </g>
    </g>
    <g>
      <g>
        <circle class="cls-2" cx="1098.28" cy="436.63" r="2.5"/>
        <circle class="cls-2" cx="1106.61" cy="604.15" r="4.73"/>
        <path class="cls-2" d="M1009.23,627.39c0,1.9-1.54,3.44-3.44,3.44s-3.45-1.54-3.45-3.44,1.54-3.45,3.45-3.45,3.44,1.54,3.44,3.45Z"/>
        <path class="cls-2" d="M744.22,630.81c0,.94-.76,1.7-1.7,1.7s-1.7-.76-1.7-1.7.76-1.7,1.7-1.7,1.7.76,1.7,1.7Z"/>
        <path class="cls-2" d="M822.16,669.27c0,3.61-2.93,6.53-6.53,6.53s-6.53-2.93-6.53-6.53,2.93-6.53,6.53-6.53,6.53,2.93,6.53,6.53Z"/>
        <circle class="cls-2" cx="689.93" cy="819.25" r="5.48"/>
        <path class="cls-2" d="M821.85,983.62c0,3.44-2.79,6.22-6.22,6.22s-6.22-2.79-6.22-6.22,2.79-6.22,6.22-6.22,6.22,2.79,6.22,6.22Z"/>
        <circle class="cls-2" cx="1083.74" cy="1067.63" r="2.66"/>
        <circle class="cls-2" cx="924.85" cy="1170.47" r="5.81"/>
        <path class="cls-2" d="M1053.84,1209.91c0,3.72-3.02,6.73-6.73,6.73s-6.73-3.02-6.73-6.73,3.02-6.73,6.73-6.73,6.73,3.02,6.73,6.73Z"/>
        <path class="cls-2" d="M1023.37,1317.57c0,1.18-.95,2.13-2.13,2.13s-2.13-.95-2.13-2.13.95-2.13,2.13-2.13,2.13.95,2.13,2.13Z"/>
        <path class="cls-2" d="M1115.15,1247.96c0,3.03-2.45,5.48-5.48,5.48s-5.48-2.45-5.48-5.48,2.45-5.48,5.48-5.48,5.48,2.45,5.48,5.48Z"/>
        <circle class="cls-2" cx="1222.74" cy="1363.01" r="2.42"/>
        <path class="cls-2" d="M1397.27,1486.36c0,1.87-1.52,3.39-3.39,3.39s-3.39-1.52-3.39-3.39,1.52-3.39,3.39-3.39,3.39,1.52,3.39,3.39Z"/>
        <path class="cls-2" d="M1610.42,1513.98c0,2.59-2.1,4.7-4.7,4.7s-4.7-2.1-4.7-4.7,2.1-4.7,4.7-4.7,4.7,2.1,4.7,4.7Z"/>
        <path class="cls-2" d="M1642.57,1438.55c0,1.96-1.59,3.55-3.55,3.55s-3.55-1.59-3.55-3.55,1.59-3.55,3.55-3.55,3.55,1.59,3.55,3.55Z"/>
        <circle class="cls-2" cx="1723.06" cy="1196.33" r="6.84"/>
        <circle class="cls-2" cx="1887.95" cy="1062.46" r="3.4"/>
      </g>
      <g>
        <path class="cls-2" d="M1888.93,1825.34c0,2.72-2.2,4.92-4.92,4.92s-4.92-2.2-4.92-4.92,2.2-4.92,4.92-4.92,4.92,2.2,4.92,4.92Z"/>
        <path class="cls-2" d="M1757.26,1693.86c0,.95-.77,1.72-1.72,1.72s-1.72-.77-1.72-1.72.77-1.72,1.72-1.72,1.72.77,1.72,1.72Z"/>
        <path class="cls-2" d="M1654.65,1459.16c0,1.22-.99,2.21-2.21,2.21s-2.21-.99-2.21-2.21.99-2.21,2.21-2.21,2.21.99,2.21,2.21Z"/>
        <path class="cls-2" d="M1585.87,1611.07c0,2.84-2.3,5.13-5.13,5.13s-5.13-2.3-5.13-5.13,2.3-5.13,5.13-5.13,5.13,2.3,5.13,5.13Z"/>
        <path class="cls-2" d="M1551.54,1589.56c0,1.77-1.43,3.2-3.2,3.2s-3.2-1.43-3.2-3.2,1.43-3.2,3.2-3.2,3.2,1.43,3.2,3.2Z"/>
        <circle class="cls-2" cx="1515.61" cy="1646.16" r="6.61"/>
        <circle class="cls-2" cx="1338.2" cy="1523.62" r="4.73"/>
        <circle class="cls-2" cx="1151.52" cy="1972.13" r="4.15"/>
        <path class="cls-2" d="M1012.79,1585.28c0,1.15-.93,2.08-2.08,2.08s-2.08-.93-2.08-2.08.93-2.08,2.08-2.08,2.08.93,2.08,2.08Z"/>
        <path class="cls-2" d="M892.75,1837.11c0,2.98-2.41,5.39-5.39,5.39s-5.39-2.41-5.39-5.39,2.41-5.39,5.39-5.39,5.39,2.41,5.39,5.39Z"/>
        <circle class="cls-2" cx="727.5" cy="1564.68" r="4.06"/>
        <path class="cls-2" d="M535.88,1467.77c0,3.25-2.64,5.89-5.89,5.89s-5.89-2.64-5.89-5.89,2.64-5.89,5.89-5.89,5.89,2.64,5.89,5.89Z"/>
        <circle class="cls-2" cx="284.8" cy="1832.68" r="1.96"/>
        <path class="cls-2" d="M284.08,1623.56c0,3.37-2.73,6.1-6.1,6.1s-6.1-2.73-6.1-6.1,2.73-6.1,6.1-6.1,6.1,2.73,6.1,6.1Z"/>
        <path class="cls-2" d="M91.07,1715.49c0,1.73-1.4,3.13-3.13,3.13s-3.13-1.4-3.13-3.13,1.4-3.13,3.13-3.13,3.13,1.4,3.13,3.13Z"/>
        <path class="cls-2" d="M492.38,1423.33c0,3.31-2.68,5.99-5.99,5.99s-5.99-2.68-5.99-5.99,2.68-5.99,5.99-5.99,5.99,2.68,5.99,5.99Z"/>
        <circle class="cls-2" cx="140.76" cy="1192.99" r="6.46"/>
        <path class="cls-2" d="M386.86,1224.94c0,1.21-.98,2.18-2.18,2.18s-2.18-.98-2.18-2.18.98-2.18,2.18-2.18,2.18.98,2.18,2.18Z"/>
        <path class="cls-2" d="M315.71,887.75c0,1.97-1.59,3.56-3.56,3.56s-3.56-1.59-3.56-3.56,1.59-3.56,3.56-3.56,3.56,1.59,3.56,3.56Z"/>
        <path class="cls-2" d="M543.12,1227.42c0,.92-.74,1.66-1.66,1.66s-1.66-.74-1.66-1.66.74-1.66,1.66-1.66,1.66.74,1.66,1.66Z"/>
        <path class="cls-2" d="M655.29,1150.63c0,3.42-2.77,6.18-6.18,6.18s-6.18-2.77-6.18-6.18,2.77-6.18,6.18-6.18,6.18,2.77,6.18,6.18Z"/>
        <path class="cls-2" d="M791.81,988.26c0,1.18-.96,2.14-2.14,2.14s-2.14-.96-2.14-2.14.96-2.14,2.14-2.14,2.14.96,2.14,2.14Z"/>
        <path class="cls-2" d="M798.85,761.08c0,2.23-1.81,4.04-4.04,4.04s-4.04-1.81-4.04-4.04,1.81-4.04,4.04-4.04,4.04,1.81,4.04,4.04Z"/>
        <circle class="cls-2" cx="982.18" cy="795.23" r="7.17"/>
        <path class="cls-2" d="M1033.54,952.31c0,1.16-.94,2.09-2.09,2.09s-2.09-.94-2.09-2.09.94-2.09,2.09-2.09,2.09.94,2.09,2.09Z"/>
        <path class="cls-2" d="M1200.67,966.64c0,3.37-2.73,6.09-6.09,6.09s-6.09-2.73-6.09-6.09,2.73-6.09,6.09-6.09,6.09,2.73,6.09,6.09Z"/>
        <circle class="cls-2" cx="1302.35" cy="745.76" r="2.64"/>
        <circle class="cls-2" cx="1520.2" cy="1048.51" r="2.6"/>
        <path class="cls-2" d="M1699.25,1013.33c0,2.69-2.18,4.87-4.87,4.87s-4.87-2.18-4.87-4.87,2.18-4.87,4.87-4.87,4.87,2.18,4.87,4.87Z"/>
        <circle class="cls-2" cx="1805.28" cy="916.61" r="3.29"/>
        <path class="cls-2" d="M1844.45,575.98c0,1.32-1.07,2.38-2.38,2.38s-2.38-1.07-2.38-2.38,1.07-2.38,2.38-2.38,2.38,1.07,2.38,2.38Z"/>
        <circle class="cls-2" cx="2013.82" cy="495.3" r="4.9"/>
        <path class="cls-2" d="M1990.24,722.76c0,3.17-2.57,5.73-5.73,5.73s-5.73-2.57-5.73-5.73,2.57-5.73,5.73-5.73,5.73,2.57,5.73,5.73Z"/>
        <path class="cls-2" d="M1864.44,423.53c0,3.2-2.59,5.79-5.79,5.79s-5.79-2.59-5.79-5.79,2.59-5.79,5.79-5.79,5.79,2.59,5.79,5.79Z"/>
        <path class="cls-2" d="M1915,242.35c0,.94-.76,1.7-1.7,1.7s-1.7-.76-1.7-1.7.76-1.7,1.7-1.7,1.7.76,1.7,1.7Z"/>
        <path class="cls-2" d="M1708.39,112.28c0,1.25-1.01,2.26-2.26,2.26s-2.26-1.01-2.26-2.26,1.01-2.26,2.26-2.26,2.26,1.01,2.26,2.26Z"/>
        <path class="cls-2" d="M1420.03,227.2c0,2.27-1.84,4.11-4.11,4.11s-4.11-1.84-4.11-4.11,1.84-4.11,4.11-4.11,4.11,1.84,4.11,4.11Z"/>
        <circle class="cls-2" cx="1142.44" cy="121.14" r="2.14"/>
        <path class="cls-2" d="M833.95,221.07c0,3.09-2.51,5.6-5.6,5.6s-5.6-2.51-5.6-5.6,2.51-5.6,5.6-5.6,5.6,2.51,5.6,5.6Z"/>
        <path class="cls-2" d="M677.64,190.57c0,2.03-1.65,3.68-3.68,3.68s-3.68-1.65-3.68-3.68,1.65-3.68,3.68-3.68,3.68,1.65,3.68,3.68Z"/>
        <circle class="cls-2" cx="508.37" cy="114.15" r="6.49"/>
        <path class="cls-2" d="M474.54,77.62c0,1.8-1.46,3.27-3.27,3.27s-3.27-1.46-3.27-3.27,1.46-3.27,3.27-3.27,3.27,1.46,3.27,3.27Z"/>
        <path class="cls-2" d="M497.91,180.15c0,2.73-2.21,4.95-4.95,4.95s-4.95-2.21-4.95-4.95,2.21-4.95,4.95-4.95,4.95,2.21,4.95,4.95Z"/>
        <path class="cls-2" d="M96.9,49.01c0,1.19-.97,2.16-2.16,2.16s-2.16-.97-2.16-2.16.97-2.16,2.16-2.16,2.16.97,2.16,2.16Z"/>
        <circle class="cls-2" cx="258.2" cy="337.49" r="2.88"/>
        <circle class="cls-2" cx="338.19" cy="488.98" r="3.58"/>
        <path class="cls-2" d="M162.29,544.34c0,2.06-1.67,3.73-3.73,3.73s-3.73-1.67-3.73-3.73,1.67-3.73,3.73-3.73,3.73,1.67,3.73,3.73Z"/>
        <path class="cls-2" d="M201.88,636.21c0,3.46-2.8,6.26-6.26,6.26s-6.26-2.8-6.26-6.26,2.8-6.26,6.26-6.26,6.26,2.8,6.26,6.26Z"/>
        <path class="cls-2" d="M222.82,830.6c0,3.64-2.95,6.58-6.58,6.58s-6.58-2.95-6.58-6.58,2.95-6.58,6.58-6.58,6.58,2.95,6.58,6.58Z"/>
        <path class="cls-2" d="M295.5,946.22c0,3.81-3.09,6.9-6.9,6.9s-6.9-3.09-6.9-6.9,3.09-6.9,6.9-6.9,6.9,3.09,6.9,6.9Z"/>
        <path class="cls-2" d="M189.83,1030.52c0,1.96-1.59,3.55-3.55,3.55s-3.55-1.59-3.55-3.55,1.59-3.55,3.55-3.55,3.55,1.59,3.55,3.55Z"/>
        <path class="cls-2" d="M223.86,1244.33c0,1.75-1.42,3.16-3.16,3.16s-3.16-1.42-3.16-3.16,1.42-3.16,3.16-3.16,3.16,1.42,3.16,3.16Z"/>
        <path class="cls-2" d="M348.62,1429.15c0,1.6-1.3,2.89-2.89,2.89s-2.89-1.3-2.89-2.89,1.3-2.89,2.89-2.89,2.89,1.3,2.89,2.89Z"/>
        <path class="cls-2" d="M271.92,1549.65c0,2.55-2.07,4.62-4.62,4.62s-4.62-2.07-4.62-4.62,2.07-4.62,4.62-4.62,4.62,2.07,4.62,4.62Z"/>
        <path class="cls-2" d="M43.55,1799.05c0,2.77-2.24,5.01-5.01,5.01s-5.01-2.24-5.01-5.01,2.24-5.01,5.01-5.01,5.01,2.24,5.01,5.01Z"/>
        <path class="cls-2" d="M154.89,1839.41c0,.83-.67,1.5-1.5,1.5s-1.5-.67-1.5-1.5.67-1.5,1.5-1.5,1.5.67,1.5,1.5Z"/>
        <circle class="cls-2" cx="382.79" cy="1831.37" r="4.5"/>
        <circle class="cls-2" cx="533.58" cy="1706.32" r="3.44"/>
        <circle class="cls-2" cx="605.89" cy="1605.42" r="4.03"/>
        <path class="cls-2" d="M754.08,1626.76c0,1.48-1.2,2.69-2.69,2.69s-2.69-1.2-2.69-2.69,1.2-2.69,2.69-2.69,2.69,1.2,2.69,2.69Z"/>
        <circle class="cls-2" cx="841.85" cy="1928.77" r="2.06"/>
        <path class="cls-2" d="M1167.44,1770.24c0,3.21-2.6,5.81-5.81,5.81s-5.81-2.6-5.81-5.81,2.6-5.81,5.81-5.81,5.81,2.6,5.81,5.81Z"/>
        <circle class="cls-2" cx="1199.37" cy="1800.66" r="2.39"/>
        <path class="cls-2" d="M1372.11,1731.57c0,3.59-2.91,6.49-6.49,6.49s-6.49-2.91-6.49-6.49,2.91-6.49,6.49-6.49,6.49,2.91,6.49,6.49Z"/>
        <path class="cls-2" d="M1428.44,1831.69c0,2.46-1.99,4.45-4.45,4.45s-4.45-1.99-4.45-4.45,1.99-4.45,4.45-4.45,4.45,1.99,4.45,4.45Z"/>
        <path class="cls-2" d="M1600.41,1882.48c0,1.61-1.3,2.91-2.91,2.91s-2.91-1.3-2.91-2.91,1.3-2.91,2.91-2.91,2.91,1.3,2.91,2.91Z"/>
        <circle class="cls-2" cx="1715.21" cy="1811.23" r="2.16"/>
        <circle class="cls-2" cx="1825.74" cy="1612.75" r="4.06"/>
      </g>
      <g>
        <path class="cls-2" d="M436.27,1987.13c0,1.16-.94,2.1-2.1,2.1s-2.1-.94-2.1-2.1.94-2.1,2.1-2.1,2.1.94,2.1,2.1Z"/>
        <circle class="cls-2" cx="603.7" cy="1752.59" r="5.96"/>
        <circle class="cls-2" cx="950.73" cy="1885.83" r="3.64"/>
        <path class="cls-2" d="M1288.13,1882.45c0,2.15-1.75,3.9-3.9,3.9s-3.9-1.75-3.9-3.9,1.75-3.9,3.9-3.9,3.9,1.75,3.9,3.9Z"/>
        <circle class="cls-2" cx="1296.47" cy="1808.35" r="6.34"/>
        <path class="cls-2" d="M1507.25,1819.16c0,.91-.74,1.66-1.66,1.66s-1.66-.74-1.66-1.66.74-1.66,1.66-1.66,1.66.74,1.66,1.66Z"/>
        <path class="cls-2" d="M1602.22,2047.77c0,3.53-2.86,6.38-6.38,6.38s-6.38-2.86-6.38-6.38,2.86-6.38,6.38-6.38,6.38,2.86,6.38,6.38Z"/>
        <circle class="cls-2" cx="1895.06" cy="1856.58" r="1.7"/>
        <path class="cls-2" d="M1479.16,1831.86c0,1.32-1.07,2.4-2.4,2.4s-2.4-1.07-2.4-2.4,1.07-2.4,2.4-2.4,2.4,1.07,2.4,2.4Z"/>
        <path class="cls-2" d="M1886.76,1868.77c0,1.62-1.32,2.94-2.94,2.94s-2.94-1.32-2.94-2.94,1.32-2.94,2.94-2.94,2.94,1.32,2.94,2.94Z"/>
        <path class="cls-2" d="M1713.02,1418.94c0,2.29-1.85,4.14-4.14,4.14s-4.14-1.85-4.14-4.14,1.85-4.14,4.14-4.14,4.14,1.85,4.14,4.14Z"/>
        <circle class="cls-2" cx="1889.42" cy="1130.31" r="3.61"/>
        <circle class="cls-2" cx="1968.68" cy="879.55" r="5.71"/>
        <circle class="cls-2" cx="2023.76" cy="786.27" r="6.25"/>
        <path class="cls-2" d="M1816.86,775.01c0,2.21-1.79,4-4,4s-4-1.79-4-4,1.79-4,4-4,4,1.79,4,4Z"/>
        <path class="cls-2" d="M1940.13,291.59c0,3.78-3.06,6.84-6.84,6.84s-6.84-3.06-6.84-6.84,3.06-6.84,6.84-6.84,6.84,3.06,6.84,6.84Z"/>
        <path class="cls-2" d="M1595.19,373.63c0,1.21-.98,2.2-2.2,2.2s-2.2-.98-2.2-2.2.98-2.2,2.2-2.2,2.2.98,2.2,2.2Z"/>
        <path class="cls-2" d="M1400.49,598.11c0,2.48-2.01,4.49-4.49,4.49s-4.49-2.01-4.49-4.49,2.01-4.49,4.49-4.49,4.49,2.01,4.49,4.49Z"/>
        <path class="cls-2" d="M1391.59,480.58c0,3.03-2.46,5.49-5.49,5.49s-5.49-2.46-5.49-5.49,2.46-5.49,5.49-5.49,5.49,2.46,5.49,5.49Z"/>
        <path class="cls-2" d="M1465.62,56.93c0,.82-.66,1.48-1.48,1.48s-1.48-.66-1.48-1.48.66-1.48,1.48-1.48,1.48.66,1.48,1.48Z"/>
        <circle class="cls-2" cx="1231.96" cy="287.28" r="7.13"/>
        <path class="cls-2" d="M1017.93,90.63c0,3.68-2.98,6.66-6.66,6.66s-6.66-2.98-6.66-6.66,2.98-6.66,6.66-6.66,6.66,2.98,6.66,6.66Z"/>
        <path class="cls-2" d="M1013.83,93.45c0,3.24-2.63,5.87-5.87,5.87s-5.87-2.63-5.87-5.87,2.63-5.87,5.87-5.87,5.87,2.63,5.87,5.87Z"/>
        <path class="cls-2" d="M805.44,85.48c0,1.63-1.32,2.95-2.95,2.95s-2.95-1.32-2.95-2.95,1.32-2.95,2.95-2.95,2.95,1.32,2.95,2.95Z"/>
        <path class="cls-2" d="M748.95,72.87c0,2.08-1.69,3.76-3.76,3.76s-3.76-1.69-3.76-3.76,1.69-3.76,3.76-3.76,3.76,1.69,3.76,3.76Z"/>
        <path class="cls-2" d="M721.34,351.44c0,2.6-2.11,4.71-4.71,4.71s-4.71-2.11-4.71-4.71,2.11-4.71,4.71-4.71,4.71,2.11,4.71,4.71Z"/>
        <path class="cls-2" d="M646.44,159.76c0,1.95-1.58,3.53-3.53,3.53s-3.53-1.58-3.53-3.53,1.58-3.53,3.53-3.53,3.53,1.58,3.53,3.53Z"/>
        <path class="cls-2" d="M520.39,327.18c0,3.25-2.63,5.88-5.88,5.88s-5.88-2.63-5.88-5.88,2.63-5.88,5.88-5.88,5.88,2.63,5.88,5.88Z"/>
        <circle class="cls-2" cx="300.87" cy="167.19" r="2.1"/>
        <path class="cls-2" d="M1.05,131.31c0,1.24-1,2.24-2.24,2.24s-2.24-1-2.24-2.24,1-2.24,2.24-2.24,2.24,1,2.24,2.24Z"/>
        <path class="cls-2" d="M33.03,596.33c0,3.05-2.47,5.52-5.52,5.52s-5.52-2.47-5.52-5.52,2.47-5.52,5.52-5.52,5.52,2.47,5.52,5.52Z"/>
        <circle class="cls-2" cx="30.97" cy="738.35" r="2.58"/>
        <circle class="cls-2" cx="267.54" cy="1046.89" r="6.48"/>
        <path class="cls-2" d="M152.84,1106.34c0,.88-.71,1.59-1.59,1.59s-1.59-.71-1.59-1.59.71-1.59,1.59-1.59,1.59.71,1.59,1.59Z"/>
        <path class="cls-2" d="M85.7,1244.36c0,3.64-2.95,6.59-6.59,6.59s-6.59-2.95-6.59-6.59,2.95-6.59,6.59-6.59,6.59,2.95,6.59,6.59Z"/>
        <path class="cls-2" d="M13.94,1379.88c0,3.81-3.09,6.9-6.9,6.9s-6.9-3.09-6.9-6.9,3.09-6.9,6.9-6.9,6.9,3.09,6.9,6.9Z"/>
        <circle class="cls-2" cx="79.07" cy="1398.27" r="6.65"/>
        <circle class="cls-2" cx="194.83" cy="1384.41" r="2.29"/>
        <path class="cls-2" d="M189.12,1570.46c0,1.03-.84,1.87-1.87,1.87s-1.87-.84-1.87-1.87.84-1.87,1.87-1.87,1.87.84,1.87,1.87Z"/>
        <path class="cls-2" d="M235.76,1870.07c0,3.58-2.9,6.48-6.48,6.48s-6.48-2.9-6.48-6.48,2.9-6.48,6.48-6.48,6.48,2.9,6.48,6.48Z"/>
        <path class="cls-2" d="M408.58,1614.39c0,2.09-1.69,3.78-3.78,3.78s-3.78-1.69-3.78-3.78,1.69-3.78,3.78-3.78,3.78,1.69,3.78,3.78Z"/>
      </g>
      <g>
        <circle class="cls-2" cx="1122.54" cy="1579.96" r="1.7"/>
        <path class="cls-2" d="M819.59,1447.65c0,2.65-2.15,4.8-4.8,4.8s-4.8-2.15-4.8-4.8,2.15-4.8,4.8-4.8,4.8,2.15,4.8,4.8Z"/>
        <circle class="cls-2" cx="824.02" cy="1302.66" r="4.16"/>
        <path class="cls-2" d="M954.48,1183.68c0,2.02-1.64,3.66-3.66,3.66s-3.66-1.64-3.66-3.66,1.64-3.66,3.66-3.66,3.66,1.64,3.66,3.66Z"/>
        <circle class="cls-2" cx="1007.75" cy="1181.68" r="1.65"/>
        <circle class="cls-2" cx="1032.64" cy="1065.33" r="2.54"/>
        <circle class="cls-2" cx="1006.71" cy="891.17" r="2.21"/>
        <path class="cls-2" d="M1018.6,853.26c0,2.89-2.34,5.24-5.24,5.24s-5.24-2.34-5.24-5.24,2.34-5.24,5.24-5.24,5.24,2.34,5.24,5.24Z"/>
        <path class="cls-2" d="M1018.07,693.15c0,3.24-2.62,5.86-5.86,5.86s-5.86-2.62-5.86-5.86,2.62-5.86,5.86-5.86,5.86,2.62,5.86,5.86Z"/>
        <circle class="cls-2" cx="1025.88" cy="620.74" r="2.76"/>
        <circle class="cls-2" cx="1267.54" cy="302.72" r="6.2"/>
        <circle class="cls-2" cx="1013.29" cy="308.45" r="5.45"/>
        <path class="cls-2" d="M898.7,323.18c0,.95-.77,1.72-1.72,1.72s-1.72-.77-1.72-1.72.77-1.72,1.72-1.72,1.72.77,1.72,1.72Z"/>
        <path class="cls-2" d="M821.45,535.42c0,3.01-2.44,5.45-5.45,5.45s-5.45-2.44-5.45-5.45,2.44-5.45,5.45-5.45,5.45,2.44,5.45,5.45Z"/>
        <path class="cls-2" d="M634.79,544.68c0,2.69-2.18,4.86-4.86,4.86s-4.86-2.18-4.86-4.86,2.18-4.86,4.86-4.86,4.86,2.18,4.86,4.86Z"/>
        <path class="cls-2" d="M596.1,603.51c0,2.21-1.79,3.99-3.99,3.99s-3.99-1.79-3.99-3.99,1.79-3.99,3.99-3.99,3.99,1.79,3.99,3.99Z"/>
        <circle class="cls-2" cx="611.14" cy="662.59" r="6.53"/>
        <circle class="cls-2" cx="300.88" cy="551.47" r="7.18"/>
        <path class="cls-2" d="M227.06,583.23c0,1.08-.88,1.96-1.96,1.96s-1.96-.88-1.96-1.96.88-1.96,1.96-1.96,1.96.88,1.96,1.96Z"/>
        <path class="cls-2" d="M508.35,830.53c0,1.42-1.15,2.57-2.57,2.57s-2.57-1.15-2.57-2.57,1.15-2.57,2.57-2.57,2.57,1.15,2.57,2.57Z"/>
        <path class="cls-2" d="M170.27,1076.95c0,2.6-2.11,4.7-4.7,4.7s-4.7-2.11-4.7-4.7,2.11-4.7,4.7-4.7,4.7,2.11,4.7,4.7Z"/>
        <path class="cls-2" d="M373.76,1158.14c0,3.3-2.68,5.98-5.98,5.98s-5.98-2.68-5.98-5.98,2.68-5.98,5.98-5.98,5.98,2.68,5.98,5.98Z"/>
        <path class="cls-2" d="M598.13,1201.74c0,2.84-2.3,5.14-5.14,5.14s-5.14-2.3-5.14-5.14,2.3-5.14,5.14-5.14,5.14,2.3,5.14,5.14Z"/>
        <circle class="cls-2" cx="628.56" cy="1280.43" r="2.54"/>
        <path class="cls-2" d="M626.61,1521.51c0,1.01-.82,1.84-1.84,1.84s-1.84-.82-1.84-1.84.82-1.84,1.84-1.84,1.84.82,1.84,1.84Z"/>
        <path class="cls-2" d="M693.61,1625.51c0,2.71-2.2,4.91-4.91,4.91s-4.91-2.2-4.91-4.91,2.2-4.91,4.91-4.91,4.91,2.2,4.91,4.91Z"/>
        <path class="cls-2" d="M835.12,1389.51c0,2.03-1.64,3.67-3.67,3.67s-3.67-1.64-3.67-3.67,1.64-3.67,3.67-3.67,3.67,1.64,3.67,3.67Z"/>
        <circle class="cls-2" cx="968.82" cy="1523.9" r="5.41"/>
        <path class="cls-2" d="M1039.33,1464.03c0,3.23-2.62,5.85-5.85,5.85s-5.85-2.62-5.85-5.85,2.62-5.85,5.85-5.85,5.85,2.62,5.85,5.85Z"/>
        <path class="cls-2" d="M1252.44,1590.95c0,3.05-2.47,5.52-5.52,5.52s-5.52-2.47-5.52-5.52,2.47-5.52,5.52-5.52,5.52,2.47,5.52,5.52Z"/>
        <path class="cls-2" d="M1357.91,1583.2c0,3.5-2.84,6.33-6.33,6.33s-6.33-2.84-6.33-6.33,2.84-6.33,6.33-6.33,6.33,2.84,6.33,6.33Z"/>
        <circle class="cls-2" cx="1331.25" cy="1402.13" r="7.14"/>
        <path class="cls-2" d="M1455.06,1551.07c0,1.82-1.47,3.29-3.29,3.29s-3.29-1.47-3.29-3.29,1.47-3.29,3.29-3.29,3.29,1.47,3.29,3.29Z"/>
        <path class="cls-2" d="M1465.59,1553.7c0,1.63-1.32,2.96-2.96,2.96s-2.96-1.32-2.96-2.96,1.32-2.96,2.96-2.96,2.96,1.32,2.96,2.96Z"/>
      </g>
      <g>
        <g>
          <circle class="cls-2" cx="1371.85" cy="1436.63" r="3.95"/>
          <path class="cls-2" d="M1096.09,1423.5c0,2.3-1.87,4.17-4.17,4.17s-4.17-1.87-4.17-4.17,1.87-4.17,4.17-4.17,4.17,1.87,4.17,4.17Z"/>
          <path class="cls-2" d="M986.86,1734.97c0,3.93-3.18,7.11-7.11,7.11s-7.11-3.18-7.11-7.11,3.18-7.11,7.11-7.11,7.11,3.18,7.11,7.11Z"/>
          <path class="cls-2" d="M951.57,1632.45c0,2.76-2.24,5.01-5.01,5.01s-5.01-2.24-5.01-5.01,2.24-5.01,5.01-5.01,5.01,2.24,5.01,5.01Z"/>
          <path class="cls-2" d="M559.08,1730.38c0,3.72-3.01,6.73-6.73,6.73s-6.73-3.01-6.73-6.73,3.01-6.73,6.73-6.73,6.73,3.01,6.73,6.73Z"/>
          <path class="cls-2" d="M857.86,1198.35c0,1.82-1.48,3.3-3.3,3.3s-3.3-1.48-3.3-3.3,1.48-3.3,3.3-3.3,3.3,1.48,3.3,3.3Z"/>
          <path class="cls-2" d="M353.31,1243.52c0,1.75-1.42,3.16-3.16,3.16s-3.16-1.42-3.16-3.16,1.42-3.16,3.16-3.16,3.16,1.42,3.16,3.16Z"/>
          <path class="cls-2" d="M266.88,1194.91c0,1.47-1.19,2.66-2.66,2.66s-2.66-1.19-2.66-2.66,1.19-2.66,2.66-2.66,2.66,1.19,2.66,2.66Z"/>
          <circle class="cls-2" cx="303.62" cy="1100.21" r="3.01"/>
          <circle class="cls-2" cx="679.61" cy="926.24" r="5.19"/>
          <path class="cls-2" d="M584.31,895.68c0,1.31-1.06,2.37-2.37,2.37s-2.37-1.06-2.37-2.37,1.06-2.37,2.37-2.37,2.37,1.06,2.37,2.37Z"/>
          <path class="cls-2" d="M428.61,787.66c0,2.2-1.78,3.98-3.98,3.98s-3.98-1.78-3.98-3.98,1.78-3.98,3.98-3.98,3.98,1.78,3.98,3.98Z"/>
          <path class="cls-2" d="M406.05,591.93c0,1.1-.89,1.99-1.99,1.99s-1.99-.89-1.99-1.99.89-1.99,1.99-1.99,1.99.89,1.99,1.99Z"/>
          <path class="cls-2" d="M363.42,414.23c0,1.96-1.59,3.55-3.55,3.55s-3.55-1.59-3.55-3.55,1.59-3.55,3.55-3.55,3.55,1.59,3.55,3.55Z"/>
          <path class="cls-2" d="M627.24,387.18c0,1.01-.82,1.83-1.83,1.83s-1.83-.82-1.83-1.83.82-1.83,1.83-1.83,1.83.82,1.83,1.83Z"/>
          <circle class="cls-2" cx="870.05" cy="493.86" r="2.27"/>
          <path class="cls-2" d="M849.95,286.32c0,3.17-2.57,5.74-5.74,5.74s-5.74-2.57-5.74-5.74,2.57-5.74,5.74-5.74,5.74,2.57,5.74,5.74Z"/>
          <path class="cls-2" d="M838.64,144.36c0,.81-.65,1.46-1.46,1.46s-1.46-.65-1.46-1.46.65-1.46,1.46-1.46,1.46.65,1.46,1.46Z"/>
          <path class="cls-2" d="M1017.78,432.11c0,1.85-1.5,3.35-3.35,3.35s-3.35-1.5-3.35-3.35,1.5-3.35,3.35-3.35,3.35,1.5,3.35,3.35Z"/>
          <path class="cls-2" d="M1080.94,297.75c0,1.84-1.49,3.34-3.34,3.34s-3.34-1.49-3.34-3.34,1.49-3.34,3.34-3.34,3.34,1.49,3.34,3.34Z"/>
          <path class="cls-2" d="M1176.49,62.04c0,3.06-2.48,5.53-5.53,5.53s-5.53-2.48-5.53-5.53,2.48-5.53,5.53-5.53,5.53,2.48,5.53,5.53Z"/>
          <path class="cls-2" d="M1174.23,159.65c0,3.19-2.59,5.78-5.78,5.78s-5.78-2.59-5.78-5.78,2.59-5.78,5.78-5.78,5.78,2.59,5.78,5.78Z"/>
          <circle class="cls-2" cx="1265.01" cy="363.41" r="3.29"/>
          <circle class="cls-2" cx="1407.02" cy="321.54" r="3.58"/>
          <circle class="cls-2" cx="1430.71" cy="264.84" r="4.27"/>
          <circle class="cls-2" cx="1552.99" cy="292.51" r="3.24"/>
          <circle class="cls-2" cx="1769.83" cy="368.04" r="5.94"/>
          <path class="cls-2" d="M1882.59,449.18c0,3.19-2.58,5.77-5.77,5.77s-5.77-2.58-5.77-5.77,2.58-5.77,5.77-5.77,5.77,2.58,5.77,5.77Z"/>
          <circle class="cls-2" cx="1984.41" cy="601.91" r="5.42"/>
          <circle class="cls-2" cx="1956.37" cy="872.63" r="5.96"/>
          <path class="cls-2" d="M2001.88,921.6c0,2.54-2.06,4.6-4.6,4.6s-4.6-2.06-4.6-4.6,2.06-4.6,4.6-4.6,4.6,2.06,4.6,4.6Z"/>
          <path class="cls-2" d="M1743.03,1315.43c0,1.23-.99,2.22-2.22,2.22s-2.22-.99-2.22-2.22.99-2.22,2.22-2.22,2.22.99,2.22,2.22Z"/>
          <circle class="cls-2" cx="1503.57" cy="1260.55" r="2.89"/>
          <circle class="cls-2" cx="1478.65" cy="1358.56" r="2.04"/>
          <path class="cls-2" d="M1367.78,1672.96c0,2.27-1.84,4.11-4.11,4.11s-4.11-1.84-4.11-4.11,1.84-4.11,4.11-4.11,4.11,1.84,4.11,4.11Z"/>
          <path class="cls-2" d="M1211.36,1549.17c0,.87-.71,1.58-1.58,1.58s-1.58-.71-1.58-1.58.71-1.58,1.58-1.58,1.58.71,1.58,1.58Z"/>
          <circle class="cls-2" cx="989.52" cy="1395.64" r="6.33"/>
          <circle class="cls-2" cx="974.42" cy="1229.84" r="6.21"/>
          <path class="cls-2" d="M717,1103.08c0,2.4-1.95,4.35-4.35,4.35s-4.35-1.95-4.35-4.35,1.95-4.35,4.35-4.35,4.35,1.95,4.35,4.35Z"/>
          <circle class="cls-2" cx="944.12" cy="871.54" r="2.35"/>
          <path class="cls-2" d="M659.25,619.83c0,2.04-1.65,3.69-3.69,3.69s-3.69-1.65-3.69-3.69,1.65-3.69,3.69-3.69,3.69,1.65,3.69,3.69Z"/>
          <path class="cls-2" d="M989.39,640.28c0,3.72-3.01,6.73-6.73,6.73s-6.73-3.01-6.73-6.73,3.01-6.73,6.73-6.73,6.73,3.01,6.73,6.73Z"/>
          <path class="cls-2" d="M692.49,594.46c0,2.11-1.71,3.83-3.83,3.83s-3.83-1.71-3.83-3.83,1.71-3.83,3.83-3.83,3.83,1.71,3.83,3.83Z"/>
          <path class="cls-2" d="M972.64,474.7c0,2.99-2.42,5.41-5.41,5.41s-5.41-2.42-5.41-5.41,2.42-5.41,5.41-5.41,5.41,2.42,5.41,5.41Z"/>
          <circle class="cls-2" cx="815.7" cy="329.14" r="3.21"/>
          <path class="cls-2" d="M1215.53,429.87c0,3.06-2.48,5.54-5.54,5.54s-5.54-2.48-5.54-5.54,2.48-5.54,5.54-5.54,5.54,2.48,5.54,5.54Z"/>
          <path class="cls-2" d="M1029.17,361.27c0,1.49-1.21,2.71-2.71,2.71s-2.71-1.21-2.71-2.71,1.21-2.71,2.71-2.71,2.71,1.21,2.71,2.71Z"/>
          <path class="cls-2" d="M1098.47,365.1c0,1.95-1.58,3.54-3.54,3.54s-3.54-1.58-3.54-3.54,1.58-3.54,3.54-3.54,3.54,1.58,3.54,3.54Z"/>
          <circle class="cls-2" cx="1043.64" cy="338.8" r="5.48"/>
          <path class="cls-2" d="M1246.8,475.83c0,.86-.69,1.55-1.55,1.55s-1.55-.69-1.55-1.55.69-1.55,1.55-1.55,1.55.69,1.55,1.55Z"/>
          <path class="cls-2" d="M1325.35,567.11c0,1.28-1.04,2.32-2.32,2.32s-2.32-1.04-2.32-2.32,1.04-2.32,2.32-2.32,2.32,1.04,2.32,2.32Z"/>
          <path class="cls-2" d="M988.52,748.25c0,1.13-.91,2.04-2.04,2.04s-2.04-.91-2.04-2.04.91-2.04,2.04-2.04,2.04.91,2.04,2.04Z"/>
          <path class="cls-2" d="M909.35,767.66c0,3.49-2.83,6.32-6.32,6.32s-6.32-2.83-6.32-6.32,2.83-6.32,6.32-6.32,6.32,2.83,6.32,6.32Z"/>
          <path class="cls-2" d="M985.48,849.58c0,3.95-3.2,7.16-7.16,7.16s-7.16-3.2-7.16-7.16,3.2-7.16,7.16-7.16,7.16,3.2,7.16,7.16Z"/>
          <path class="cls-2" d="M880.6,896.31c0,1.94-1.58,3.52-3.52,3.52s-3.52-1.58-3.52-3.52,1.58-3.52,3.52-3.52,3.52,1.58,3.52,3.52Z"/>
          <circle class="cls-2" cx="902.48" cy="1013.91" r="3.3"/>
          <path class="cls-2" d="M707.75,984.78c0,2.46-2,4.46-4.46,4.46s-4.46-2-4.46-4.46,2-4.46,4.46-4.46,4.46,2,4.46,4.46Z"/>
          <path class="cls-2" d="M554.49,1013.2c0,3.07-2.49,5.56-5.56,5.56s-5.56-2.49-5.56-5.56,2.49-5.56,5.56-5.56,5.56,2.49,5.56,5.56Z"/>
          <path class="cls-2" d="M520.99,1119.25c0,3.97-3.22,7.19-7.19,7.19s-7.19-3.22-7.19-7.19,3.22-7.19,7.19-7.19,7.19,3.22,7.19,7.19Z"/>
          <circle class="cls-2" cx="392.97" cy="1292.1" r="2.99"/>
          <circle class="cls-2" cx="310.48" cy="1206.91" r="5.71"/>
          <path class="cls-2" d="M75.07,1350c0,3.38-2.74,6.13-6.13,6.13s-6.13-2.74-6.13-6.13,2.74-6.13,6.13-6.13,6.13,2.74,6.13,6.13Z"/>
          <circle class="cls-2" cx="128.22" cy="1137.34" r="2.44"/>
          <path class="cls-2" d="M152.3,560.94c0,.85-.69,1.54-1.54,1.54s-1.54-.69-1.54-1.54.69-1.54,1.54-1.54,1.54.69,1.54,1.54Z"/>
          <circle class="cls-2" cx="176.04" cy="492.86" r="5.28"/>
          <path class="cls-2" d="M255.46,371.47c0,.99-.8,1.79-1.79,1.79s-1.79-.8-1.79-1.79.8-1.79,1.79-1.79,1.79.8,1.79,1.79Z"/>
          <path class="cls-2" d="M201.67,98.82c0,3.41-2.77,6.18-6.18,6.18s-6.18-2.77-6.18-6.18,2.77-6.18,6.18-6.18,6.18,2.77,6.18,6.18Z"/>
          <path class="cls-2" d="M210.67,12.25c0,2.4-1.94,4.34-4.34,4.34s-4.34-1.94-4.34-4.34,1.94-4.34,4.34-4.34,4.34,1.94,4.34,4.34Z"/>
          <path class="cls-2" d="M296.24,34.92c0,2.05-1.66,3.7-3.7,3.7s-3.7-1.66-3.7-3.7,1.66-3.7,3.7-3.7,3.7,1.66,3.7,3.7Z"/>
          <path class="cls-2" d="M520.09,284.59c0,1.28-1.03,2.31-2.31,2.31s-2.31-1.03-2.31-2.31,1.03-2.31,2.31-2.31,2.31,1.03,2.31,2.31Z"/>
          <path class="cls-2" d="M682.69,453.36c0,2.72-2.21,4.93-4.93,4.93s-4.93-2.21-4.93-4.93,2.21-4.93,4.93-4.93,4.93,2.21,4.93,4.93Z"/>
          <path class="cls-2" d="M884.38,327.57c0,3.23-2.62,5.84-5.84,5.84s-5.84-2.62-5.84-5.84,2.62-5.84,5.84-5.84,5.84,2.62,5.84,5.84Z"/>
          <circle class="cls-2" cx="996.97" cy="92.47" r="5.53"/>
          <path class="cls-2" d="M1124.34,365.02c0,2.15-1.75,3.9-3.9,3.9s-3.9-1.75-3.9-3.9,1.75-3.9,3.9-3.9,3.9,1.75,3.9,3.9Z"/>
          <path class="cls-2" d="M1265.14,426.94c0,3.68-2.98,6.67-6.67,6.67s-6.67-2.98-6.67-6.67,2.98-6.67,6.67-6.67,6.67,2.98,6.67,6.67Z"/>
          <circle class="cls-2" cx="1223.42" cy="535.26" r="6.43"/>
          <circle class="cls-2" cx="1210.89" cy="638.29" r="6.66"/>
          <circle class="cls-2" cx="1462.43" cy="678.17" r="2.65"/>
          <path class="cls-2" d="M1034.61,783.55c0,2.58-2.09,4.67-4.67,4.67s-4.67-2.09-4.67-4.67,2.09-4.67,4.67-4.67,4.67,2.09,4.67,4.67Z"/>
          <path class="cls-2" d="M999.36,802.1c0,2.32-1.88,4.21-4.21,4.21s-4.21-1.88-4.21-4.21,1.88-4.21,4.21-4.21,4.21,1.88,4.21,4.21Z"/>
          <path class="cls-2" d="M1197.14,961.96c0,.94-.76,1.7-1.7,1.7s-1.7-.76-1.7-1.7.76-1.7,1.7-1.7,1.7.76,1.7,1.7Z"/>
          <circle class="cls-2" cx="1027.64" cy="995.05" r="5.66"/>
          <circle class="cls-2" cx="1115.38" cy="1235.43" r="7.09"/>
          <circle class="cls-2" cx="1142.73" cy="1403.42" r="2.91"/>
          <path class="cls-2" d="M919.68,1343.04c0,1.24-1,2.24-2.24,2.24s-2.24-1-2.24-2.24,1-2.24,2.24-2.24,2.24,1,2.24,2.24Z"/>
          <path class="cls-2" d="M520.09,1281.32c0,3.14-2.54,5.68-5.68,5.68s-5.68-2.54-5.68-5.68,2.54-5.68,5.68-5.68,5.68,2.54,5.68,5.68Z"/>
          <path class="cls-2" d="M558.8,1227.16c0,1.18-.96,2.14-2.14,2.14s-2.14-.96-2.14-2.14.96-2.14,2.14-2.14,2.14.96,2.14,2.14Z"/>
          <path class="cls-2" d="M924.43,955.86c0,3.67-2.98,6.65-6.65,6.65s-6.65-2.98-6.65-6.65,2.98-6.65,6.65-6.65,6.65,2.98,6.65,6.65Z"/>
          <path class="cls-2" d="M505.26,748.48c0,3.35-2.71,6.06-6.06,6.06s-6.06-2.71-6.06-6.06,2.71-6.06,6.06-6.06,6.06,2.71,6.06,6.06Z"/>
          <path class="cls-2" d="M506.08,659.95c0,3.74-3.03,6.77-6.77,6.77s-6.77-3.03-6.77-6.77,3.03-6.77,6.77-6.77,6.77,3.03,6.77,6.77Z"/>
          <circle class="cls-2" cx="940.04" cy="617.33" r="4.23"/>
          <circle class="cls-2" cx="716.72" cy="359.37" r="2.09"/>
          <circle class="cls-2" cx="1009.35" cy="546.98" r="1.77"/>
          <path class="cls-2" d="M1162.48,427.79c0,2.16-1.75,3.91-3.91,3.91s-3.91-1.75-3.91-3.91,1.75-3.91,3.91-3.91,3.91,1.75,3.91,3.91Z"/>
          <circle class="cls-2" cx="1226.15" cy="396.46" r="7.04"/>
          <circle class="cls-2" cx="1298.84" cy="414.83" r="3.91"/>
          <path class="cls-2" d="M1530.94,145.01c0,2.2-1.79,3.99-3.99,3.99s-3.99-1.79-3.99-3.99,1.79-3.99,3.99-3.99,3.99,1.79,3.99,3.99Z"/>
          <path class="cls-2" d="M1458.03,345.89c0,2.31-1.87,4.18-4.18,4.18s-4.18-1.87-4.18-4.18,1.87-4.18,4.18-4.18,4.18,1.87,4.18,4.18Z"/>
          <path class="cls-2" d="M1533.92,245.41c0,.98-.8,1.78-1.78,1.78s-1.78-.8-1.78-1.78.8-1.78,1.78-1.78,1.78.8,1.78,1.78Z"/>
          <path class="cls-2" d="M1563.31,294.25c0,1.71-1.39,3.09-3.09,3.09s-3.09-1.39-3.09-3.09,1.39-3.09,3.09-3.09,3.09,1.39,3.09,3.09Z"/>
          <path class="cls-2" d="M1481.72,636.12c0,2.11-1.71,3.82-3.82,3.82s-3.82-1.71-3.82-3.82,1.71-3.82,3.82-3.82,3.82,1.71,3.82,3.82Z"/>
          <path class="cls-2" d="M1969.99,574.96c0,2.59-2.1,4.69-4.69,4.69s-4.69-2.1-4.69-4.69,2.1-4.69,4.69-4.69,4.69,2.1,4.69,4.69Z"/>
          <path class="cls-2" d="M1984.57,845.8c0,3.69-2.99,6.69-6.69,6.69s-6.69-2.99-6.69-6.69,2.99-6.69,6.69-6.69,6.69,2.99,6.69,6.69Z"/>
          <path class="cls-2" d="M1869.05,1084.15c0,2.14-1.73,3.87-3.87,3.87s-3.87-1.73-3.87-3.87,1.73-3.87,3.87-3.87,3.87,1.73,3.87,3.87Z"/>
          <path class="cls-2" d="M1630.45,1012.2c0,2.14-1.73,3.87-3.87,3.87s-3.87-1.73-3.87-3.87,1.73-3.87,3.87-3.87,3.87,1.73,3.87,3.87Z"/>
          <circle class="cls-2" cx="1562.08" cy="1163" r="2.92"/>
          <circle class="cls-2" cx="1673.92" cy="1317.79" r="2.33"/>
          <path class="cls-2" d="M1735.64,1474.7c0,2.54-2.06,4.59-4.59,4.59s-4.59-2.06-4.59-4.59,2.06-4.59,4.59-4.59,4.59,2.06,4.59,4.59Z"/>
          <circle class="cls-2" cx="1476.79" cy="1486.55" r="3.19"/>
          <path class="cls-2" d="M1099.42,1317.17c0,2.04-1.65,3.69-3.69,3.69s-3.69-1.65-3.69-3.69,1.65-3.69,3.69-3.69,3.69,1.65,3.69,3.69Z"/>
          <path class="cls-2" d="M1144.35,1557.37c0,1.08-.87,1.95-1.95,1.95s-1.95-.87-1.95-1.95.87-1.95,1.95-1.95,1.95.87,1.95,1.95Z"/>
          <path class="cls-2" d="M964.17,1602.38c0,1.04-.84,1.87-1.87,1.87s-1.87-.84-1.87-1.87.84-1.87,1.87-1.87,1.87.84,1.87,1.87Z"/>
          <path class="cls-2" d="M951.61,1591.54c0,3.95-3.2,7.15-7.15,7.15s-7.15-3.2-7.15-7.15,3.2-7.15,7.15-7.15,7.15,3.2,7.15,7.15Z"/>
          <path class="cls-2" d="M912.08,1648.94c0,1.04-.85,1.89-1.89,1.89s-1.89-.85-1.89-1.89.85-1.89,1.89-1.89,1.89.85,1.89,1.89Z"/>
          <path class="cls-2" d="M804.65,1690.44c0,3.7-3,6.7-6.7,6.7s-6.7-3-6.7-6.7,3-6.7,6.7-6.7,6.7,3,6.7,6.7Z"/>
          <circle class="cls-2" cx="643.41" cy="1748.93" r="5.46"/>
          <circle class="cls-2" cx="582.17" cy="1553.01" r="6.55"/>
          <circle class="cls-2" cx="656.41" cy="1444.94" r="3.71"/>
          <path class="cls-2" d="M607.3,1382.41c0,2.89-2.34,5.23-5.23,5.23s-5.23-2.34-5.23-5.23,2.34-5.23,5.23-5.23,5.23,2.34,5.23,5.23Z"/>
          <circle class="cls-2" cx="713.55" cy="1321.37" r="2.88"/>
          <path class="cls-2" d="M800.38,1133.2c0,1.82-1.48,3.3-3.3,3.3s-3.3-1.48-3.3-3.3,1.48-3.3,3.3-3.3,3.3,1.48,3.3,3.3Z"/>
          <path class="cls-2" d="M665.16,949.55c0,1.02-.82,1.84-1.84,1.84s-1.84-.82-1.84-1.84.82-1.84,1.84-1.84,1.84.82,1.84,1.84Z"/>
          <circle class="cls-2" cx="1075.94" cy="1053.14" r="2.32"/>
          <path class="cls-2" d="M714.96,731.75c0,3.45-2.8,6.25-6.25,6.25s-6.25-2.8-6.25-6.25,2.8-6.25,6.25-6.25,6.25,2.8,6.25,6.25Z"/>
          <circle class="cls-2" cx="1030.72" cy="795.52" r="1.79"/>
          <path class="cls-2" d="M1186.65,820.4c0,1.74-1.41,3.15-3.15,3.15s-3.15-1.41-3.15-3.15,1.41-3.15,3.15-3.15,3.15,1.41,3.15,3.15Z"/>
          <path class="cls-2" d="M1069.13,870.32c0,1.63-1.32,2.96-2.96,2.96s-2.96-1.32-2.96-2.96,1.32-2.96,2.96-2.96,2.96,1.32,2.96,2.96Z"/>
          <circle class="cls-2" cx="1133.28" cy="923.8" r="2.4"/>
          <path class="cls-2" d="M1134.57,949.8c0,3-2.43,5.43-5.43,5.43s-5.43-2.43-5.43-5.43,2.43-5.43,5.43-5.43,5.43,2.43,5.43,5.43Z"/>
          <path class="cls-2" d="M1056.42,936.59c0,1.12-.91,2.03-2.03,2.03s-2.03-.91-2.03-2.03.91-2.03,2.03-2.03,2.03.91,2.03,2.03Z"/>
          <path class="cls-2" d="M1030.89,1113.29c0,1.51-1.22,2.73-2.73,2.73s-2.73-1.22-2.73-2.73,1.22-2.73,2.73-2.73,2.73,1.22,2.73,2.73Z"/>
          <path class="cls-2" d="M914.52,848.88c0,3.81-3.09,6.89-6.89,6.89s-6.89-3.09-6.89-6.89,3.09-6.89,6.89-6.89,6.89,3.09,6.89,6.89Z"/>
          <path class="cls-2" d="M722,1101.86c0,.98-.8,1.78-1.78,1.78s-1.78-.8-1.78-1.78.8-1.78,1.78-1.78,1.78.8,1.78,1.78Z"/>
          <path class="cls-2" d="M659.21,926.65c0,3.03-2.46,5.49-5.49,5.49s-5.49-2.46-5.49-5.49,2.46-5.49,5.49-5.49,5.49,2.46,5.49,5.49Z"/>
          <path class="cls-2" d="M509.89,952.17c0,2.16-1.75,3.91-3.91,3.91s-3.91-1.75-3.91-3.91,1.75-3.91,3.91-3.91,3.91,1.75,3.91,3.91Z"/>
          <path class="cls-2" d="M462.48,866.82c0,2.48-2.01,4.5-4.5,4.5s-4.5-2.01-4.5-4.5,2.01-4.5,4.5-4.5,4.5,2.01,4.5,4.5Z"/>
          <path class="cls-2" d="M354.56,1183.36c0,1.83-1.49,3.32-3.32,3.32s-3.32-1.49-3.32-3.32,1.49-3.32,3.32-3.32,3.32,1.49,3.32,3.32Z"/>
          <circle class="cls-2" cx="58.3" cy="1054.77" r="6.23"/>
          <path class="cls-2" d="M300.35,1476.4c0,1.86-1.51,3.36-3.36,3.36s-3.36-1.51-3.36-3.36,1.51-3.36,3.36-3.36,3.36,1.51,3.36,3.36Z"/>
          <path class="cls-2" d="M167.92,1380.92c0,1.19-.97,2.16-2.16,2.16s-2.16-.97-2.16-2.16.97-2.16,2.16-2.16,2.16.97,2.16,2.16Z"/>
          <path class="cls-2" d="M139.38,1711.71c0,2.33-1.89,4.22-4.22,4.22s-4.22-1.89-4.22-4.22,1.89-4.22,4.22-4.22,4.22,1.89,4.22,4.22Z"/>
          <path class="cls-2" d="M262.36,1753.1c0,2.21-1.79,4-4,4s-4-1.79-4-4,1.79-4,4-4,4,1.79,4,4Z"/>
          <path class="cls-2" d="M641.41,1426.32c0,3.27-2.65,5.93-5.93,5.93s-5.93-2.65-5.93-5.93,2.65-5.93,5.93-5.93,5.93,2.65,5.93,5.93Z"/>
          <path class="cls-2" d="M586.33,1970.77c0,1.74-1.41,3.15-3.15,3.15s-3.15-1.41-3.15-3.15,1.41-3.15,3.15-3.15,3.15,1.41,3.15,3.15Z"/>
          <path class="cls-2" d="M915.94,1658.89c0,3.51-2.84,6.35-6.35,6.35s-6.35-2.84-6.35-6.35,2.84-6.35,6.35-6.35,6.35,2.84,6.35,6.35Z"/>
          <path class="cls-2" d="M1013.24,1583.75c0,3.38-2.74,6.12-6.12,6.12s-6.12-2.74-6.12-6.12,2.74-6.12,6.12-6.12,6.12,2.74,6.12,6.12Z"/>
          <path class="cls-2" d="M1084.16,2042.66c0,1.02-.83,1.85-1.85,1.85s-1.85-.83-1.85-1.85.83-1.85,1.85-1.85,1.85.83,1.85,1.85Z"/>
          <path class="cls-2" d="M1267.32,1629.32c0,1.34-1.09,2.44-2.44,2.44s-2.44-1.09-2.44-2.44,1.09-2.44,2.44-2.44,2.44,1.09,2.44,2.44Z"/>
          <circle class="cls-2" cx="1586.22" cy="1813.41" r="6.55"/>
          <circle class="cls-2" cx="1850.05" cy="1872.54" r="3.57"/>
          <path class="cls-2" d="M1554.93,1532.39c0,3.93-3.18,7.11-7.11,7.11s-7.11-3.18-7.11-7.11,3.18-7.11,7.11-7.11,7.11,3.18,7.11,7.11Z"/>
          <path class="cls-2" d="M1947.52,1436.91c0,1.36-1.11,2.47-2.47,2.47s-2.47-1.11-2.47-2.47,1.11-2.47,2.47-2.47,2.47,1.11,2.47,2.47Z"/>
          <path class="cls-2" d="M1699.47,1253.59c0,2.92-2.37,5.29-5.29,5.29s-5.29-2.37-5.29-5.29,2.37-5.29,5.29-5.29,5.29,2.37,5.29,5.29Z"/>
          <path class="cls-2" d="M1970.87,1128.91c0,2.45-1.98,4.43-4.43,4.43s-4.43-1.98-4.43-4.43,1.98-4.43,4.43-4.43,4.43,1.98,4.43,4.43Z"/>
          <path class="cls-2" d="M1959.11,1096.79c0,1.31-1.06,2.37-2.37,2.37s-2.37-1.06-2.37-2.37,1.06-2.37,2.37-2.37,2.37,1.06,2.37,2.37Z"/>
        </g>
        <g>
          <circle class="cls-2" cx="1600.22" cy="971.67" r="6.64"/>
          <circle class="cls-2" cx="1598.57" cy="758.51" r="6.58"/>
          <circle class="cls-2" cx="1385.91" cy="657.45" r="3.74"/>
          <path class="cls-2" d="M1442.29,469.87c0,1.5-1.22,2.72-2.72,2.72s-2.72-1.22-2.72-2.72,1.22-2.72,2.72-2.72,2.72,1.22,2.72,2.72Z"/>
          <path class="cls-2" d="M1214.78,368.38c0,2.04-1.65,3.69-3.69,3.69s-3.69-1.65-3.69-3.69,1.65-3.69,3.69-3.69,3.69,1.65,3.69,3.69Z"/>
          <path class="cls-2" d="M1242.81,255.39c0,2.33-1.89,4.22-4.22,4.22s-4.22-1.89-4.22-4.22,1.89-4.22,4.22-4.22,4.22,1.89,4.22,4.22Z"/>
          <circle class="cls-2" cx="1089.97" cy="76.94" r="6.64"/>
          <circle class="cls-2" cx="815.61" cy="271.52" r="6.63"/>
          <path class="cls-2" d="M668,23.58c0,.93-.75,1.68-1.68,1.68s-1.68-.75-1.68-1.68.75-1.68,1.68-1.68,1.68.75,1.68,1.68Z"/>
          <circle class="cls-2" cx="318.55" cy="195.92" r="6.08"/>
          <path class="cls-2" d="M553.51,281.44c0,1.37-1.11,2.48-2.48,2.48s-2.48-1.11-2.48-2.48,1.11-2.48,2.48-2.48,2.48,1.11,2.48,2.48Z"/>
          <circle class="cls-2" cx="497.88" cy="416.28" r="3.58"/>
          <circle class="cls-2" cx="700.47" cy="487.41" r="3.02"/>
          <circle class="cls-2" cx="404.82" cy="553.18" r="4.6"/>
          <path class="cls-2" d="M748.24,775.12c0,1.52-1.23,2.74-2.74,2.74s-2.74-1.23-2.74-2.74,1.23-2.74,2.74-2.74,2.74,1.23,2.74,2.74Z"/>
          <path class="cls-2" d="M591.89,1023.66c0,3.04-2.46,5.51-5.51,5.51s-5.51-2.46-5.51-5.51,2.46-5.51,5.51-5.51,5.51,2.46,5.51,5.51Z"/>
          <path class="cls-2" d="M558.92,1064.92c0,1.66-1.35,3.01-3.01,3.01s-3.01-1.35-3.01-3.01,1.35-3.01,3.01-3.01,3.01,1.35,3.01,3.01Z"/>
          <circle class="cls-2" cx="280.99" cy="1197.11" r="6.85"/>
          <circle class="cls-2" cx="554.04" cy="1421.79" r="7.08"/>
          <path class="cls-2" d="M300.29,1481.48c0,1.21-.98,2.2-2.2,2.2s-2.2-.98-2.2-2.2.98-2.2,2.2-2.2,2.2.98,2.2,2.2Z"/>
          <path class="cls-2" d="M435.29,1534.04c0,3.36-2.73,6.09-6.09,6.09s-6.09-2.73-6.09-6.09,2.73-6.09,6.09-6.09,6.09,2.73,6.09,6.09Z"/>
          <path class="cls-2" d="M459.26,1586.49c0,1.23-.99,2.22-2.22,2.22s-2.22-.99-2.22-2.22.99-2.22,2.22-2.22,2.22.99,2.22,2.22Z"/>
          <path class="cls-2" d="M626.96,1644.53c0,3.46-2.8,6.26-6.26,6.26s-6.26-2.8-6.26-6.26,2.8-6.26,6.26-6.26,6.26,2.8,6.26,6.26Z"/>
          <path class="cls-2" d="M572.93,1664.68c0,2.61-2.12,4.73-4.73,4.73s-4.73-2.12-4.73-4.73,2.12-4.73,4.73-4.73,4.73,2.12,4.73,4.73Z"/>
          <path class="cls-2" d="M618.81,1830.51c0,1.88-1.52,3.4-3.4,3.4s-3.4-1.52-3.4-3.4,1.52-3.4,3.4-3.4,3.4,1.52,3.4,3.4Z"/>
          <path class="cls-2" d="M764.08,1610.79c0,1.51-1.22,2.73-2.73,2.73s-2.73-1.22-2.73-2.73,1.22-2.73,2.73-2.73,2.73,1.22,2.73,2.73Z"/>
          <circle class="cls-2" cx="612.03" cy="1841.24" r="2.13"/>
          <path class="cls-2" d="M760.53,1688.76c0,1.51-1.22,2.73-2.73,2.73s-2.73-1.22-2.73-2.73,1.22-2.73,2.73-2.73,2.73,1.22,2.73,2.73Z"/>
          <path class="cls-2" d="M1012.44,1478.21c0,3.71-3.01,6.71-6.71,6.71s-6.71-3.01-6.71-6.71,3.01-6.71,6.71-6.71,6.71,3.01,6.71,6.71Z"/>
          <circle class="cls-2" cx="1093.97" cy="2018.27" r="6.26"/>
          <circle class="cls-2" cx="1326.81" cy="2032.96" r="4.93"/>
          <path class="cls-2" d="M1497.51,1785.16c0,2.09-1.7,3.79-3.79,3.79s-3.79-1.7-3.79-3.79,1.7-3.79,3.79-3.79,3.79,1.7,3.79,3.79Z"/>
          <path class="cls-2" d="M1681.02,1964.84c0,2.79-2.27,5.06-5.06,5.06s-5.06-2.27-5.06-5.06,2.27-5.06,5.06-5.06,5.06,2.27,5.06,5.06Z"/>
          <path class="cls-2" d="M1735.88,1706.39c0,2.61-2.11,4.72-4.72,4.72s-4.72-2.11-4.72-4.72,2.11-4.72,4.72-4.72,4.72,2.11,4.72,4.72Z"/>
          <path class="cls-2" d="M1687.79,1668.63c0,1.58-1.28,2.86-2.86,2.86s-2.86-1.28-2.86-2.86,1.28-2.86,2.86-2.86,2.86,1.28,2.86,2.86Z"/>
          <path class="cls-2" d="M1757.74,1560.77c0,3.12-2.53,5.65-5.65,5.65s-5.65-2.53-5.65-5.65,2.53-5.65,5.65-5.65,5.65,2.53,5.65,5.65Z"/>
          <path class="cls-2" d="M1738.61,1493.31c0,1.24-1.01,2.25-2.25,2.25s-2.25-1.01-2.25-2.25,1.01-2.25,2.25-2.25,2.25,1.01,2.25,2.25Z"/>
          <path class="cls-2" d="M1860.95,1397.16c0,1.38-1.12,2.5-2.5,2.5s-2.51-1.12-2.51-2.5,1.12-2.5,2.51-2.5,2.5,1.12,2.5,2.5Z"/>
          <path class="cls-2" d="M2019.16,1179c0,1-.81,1.81-1.81,1.81s-1.81-.81-1.81-1.81.81-1.81,1.81-1.81,1.81.81,1.81,1.81Z"/>
          <path class="cls-2" d="M1883.84,1069.77c0,.89-.72,1.61-1.61,1.61s-1.61-.72-1.61-1.61.72-1.61,1.61-1.61,1.61.72,1.61,1.61Z"/>
          <path class="cls-2" d="M1579.28,1044.81c0,3.52-2.85,6.37-6.37,6.37s-6.37-2.85-6.37-6.37,2.85-6.37,6.37-6.37,6.37,2.85,6.37,6.37Z"/>
          <circle class="cls-2" cx="1728.88" cy="882.52" r="2.77"/>
          <path class="cls-2" d="M1634.12,794.51c0,3.67-2.98,6.65-6.65,6.65s-6.65-2.98-6.65-6.65,2.98-6.65,6.65-6.65,6.65,2.98,6.65,6.65Z"/>
          <path class="cls-2" d="M1680.76,718.33c0,1.57-1.27,2.85-2.85,2.85s-2.85-1.27-2.85-2.85,1.27-2.85,2.85-2.85,2.85,1.27,2.85,2.85Z"/>
          <path class="cls-2" d="M1882.54,636.57c0,2.9-2.35,5.24-5.24,5.24s-5.24-2.35-5.24-5.24,2.35-5.24,5.24-5.24,5.24,2.35,5.24,5.24Z"/>
          <path class="cls-2" d="M1722.45,455.05c0,3.2-2.59,5.79-5.79,5.79s-5.79-2.59-5.79-5.79,2.59-5.79,5.79-5.79,5.79,2.59,5.79,5.79Z"/>
        </g>
        <g>
          <path class="cls-2" d="M1698.58,1155.75c0,3.39-2.75,6.13-6.13,6.13s-6.13-2.75-6.13-6.13,2.75-6.13,6.13-6.13,6.13,2.75,6.13,6.13Z"/>
          <path class="cls-2" d="M1736.13,1303.97c0,.96-.78,1.74-1.74,1.74s-1.74-.78-1.74-1.74.78-1.74,1.74-1.74,1.74.78,1.74,1.74Z"/>
          <path class="cls-2" d="M1621.3,1386.05c0,.92-.75,1.67-1.67,1.67s-1.67-.75-1.67-1.67.75-1.67,1.67-1.67,1.67.75,1.67,1.67Z"/>
          <path class="cls-2" d="M1650.39,1470.17c0,3.33-2.7,6.03-6.03,6.03s-6.03-2.7-6.03-6.03,2.7-6.03,6.03-6.03,6.03,2.7,6.03,6.03Z"/>
          <circle class="cls-2" cx="1688.52" cy="1667.87" r="3.41"/>
        </g>
        <g>
          <path class="cls-2" d="M1464.07,720.34c0,1.42-1.15,2.58-2.58,2.58s-2.58-1.15-2.58-2.58,1.15-2.58,2.58-2.58,2.58,1.15,2.58,2.58Z"/>
          <path class="cls-2" d="M1461.42,817.97c0,3.9-3.16,7.05-7.05,7.05s-7.05-3.16-7.05-7.05,3.16-7.05,7.05-7.05,7.05,3.16,7.05,7.05Z"/>
          <circle class="cls-2" cx="1710.73" cy="917.29" r="7.16"/>
        </g>
        <g>
          <path class="cls-2" d="M1465.11,2050.47c0,3.56-2.89,6.45-6.45,6.45s-6.45-2.89-6.45-6.45,2.89-6.45,6.45-6.45,6.45,2.89,6.45,6.45Z"/>
          <path class="cls-2" d="M1324.79,1861.27c0,2.16-1.75,3.91-3.91,3.91s-3.91-1.75-3.91-3.91,1.75-3.91,3.91-3.91,3.91,1.75,3.91,3.91Z"/>
          <path class="cls-2" d="M1293.58,1702.98c0,3.19-2.58,5.77-5.77,5.77s-5.77-2.58-5.77-5.77,2.58-5.77,5.77-5.77,5.77,2.58,5.77,5.77Z"/>
          <circle class="cls-2" cx="1411.22" cy="1561.06" r="2.24"/>
          <path class="cls-2" d="M1340.84,1603.27c0,2.44-1.98,4.43-4.43,4.43s-4.43-1.98-4.43-4.43,1.98-4.43,4.43-4.43,4.43,1.98,4.43,4.43Z"/>
          <path class="cls-2" d="M1330.78,1295.54c0,1.85-1.5,3.35-3.35,3.35s-3.35-1.5-3.35-3.35,1.5-3.35,3.35-3.35,3.35,1.5,3.35,3.35Z"/>
          <path class="cls-2" d="M1180.09,1209.4c0,3.5-2.84,6.34-6.34,6.34s-6.34-2.84-6.34-6.34,2.84-6.34,6.34-6.34,6.34,2.84,6.34,6.34Z"/>
          <path class="cls-2" d="M700.76,1390.12c0,3.5-2.83,6.33-6.33,6.33s-6.33-2.83-6.33-6.33,2.83-6.33,6.33-6.33,6.33,2.83,6.33,6.33Z"/>
          <circle class="cls-2" cx="688.77" cy="1291.46" r="3.34"/>
          <path class="cls-2" d="M889.07,983.94c0,2.3-1.86,4.16-4.16,4.16s-4.16-1.86-4.16-4.16,1.86-4.16,4.16-4.16,4.16,1.86,4.16,4.16Z"/>
          <circle class="cls-2" cx="878.2" cy="843.19" r="5.37"/>
          <circle class="cls-2" cx="842.86" cy="728.56" r="4.35"/>
          <path class="cls-2" d="M612.03,667.35c0,3.06-2.48,5.54-5.54,5.54s-5.54-2.48-5.54-5.54,2.48-5.54,5.54-5.54,5.54,2.48,5.54,5.54Z"/>
          <circle class="cls-2" cx="940.91" cy="539.43" r="2.13"/>
          <circle class="cls-2" cx="790.57" cy="441.12" r="5.49"/>
          <path class="cls-2" d="M869.78,400.43c0,3.31-2.69,6-6,6s-6-2.69-6-6,2.69-6,6-6,6,2.69,6,6Z"/>
          <circle class="cls-2" cx="959" cy="207.8" r="5.49"/>
          <path class="cls-2" d="M1004.35,424.02c0,3.6-2.92,6.52-6.52,6.52s-6.52-2.92-6.52-6.52,2.92-6.52,6.52-6.52,6.52,2.92,6.52,6.52Z"/>
          <path class="cls-2" d="M1072.48,485.25c0,2.59-2.1,4.69-4.69,4.69s-4.69-2.1-4.69-4.69,2.1-4.69,4.69-4.69,4.69,2.1,4.69,4.69Z"/>
          <circle class="cls-2" cx="1415.81" cy="369.75" r="7.05"/>
          <path class="cls-2" d="M1138.9,697.04c0,3.15-2.55,5.7-5.7,5.7s-5.7-2.55-5.7-5.7,2.55-5.7,5.7-5.7,5.7,2.55,5.7,5.7Z"/>
          <path class="cls-2" d="M1581.77,734.22c0,1.87-1.52,3.38-3.38,3.38s-3.38-1.52-3.38-3.38,1.52-3.38,3.38-3.38,3.38,1.52,3.38,3.38Z"/>
          <path class="cls-2" d="M1187.19,949.49c0,.9-.73,1.63-1.63,1.63s-1.63-.73-1.63-1.63.73-1.63,1.63-1.63,1.63.73,1.63,1.63Z"/>
          <path class="cls-2" d="M1151.72,1028.85c0,1.98-1.61,3.59-3.59,3.59s-3.59-1.61-3.59-3.59,1.61-3.59,3.59-3.59,3.59,1.61,3.59,3.59Z"/>
          <circle class="cls-2" cx="1506.39" cy="1047.47" r="1.88"/>
          <path class="cls-2" d="M1193.1,1137.48c0,2.79-2.27,5.06-5.06,5.06s-5.06-2.27-5.06-5.06,2.27-5.06,5.06-5.06,5.06,2.27,5.06,5.06Z"/>
          <path class="cls-2" d="M1257.4,1351.76c0,3.15-2.56,5.71-5.71,5.71s-5.71-2.56-5.71-5.71,2.56-5.71,5.71-5.71,5.71,2.56,5.71,5.71Z"/>
          <path class="cls-2" d="M1333.22,1587.64c0,1.77-1.44,3.21-3.21,3.21s-3.21-1.44-3.21-3.21,1.44-3.21,3.21-3.21,3.21,1.44,3.21,3.21Z"/>
          <path class="cls-2" d="M1443.56,1700c0,1.61-1.3,2.91-2.91,2.91s-2.91-1.3-2.91-2.91,1.3-2.91,2.91-2.91,2.91,1.3,2.91,2.91Z"/>
          <path class="cls-2" d="M1454,1736.39c0,1.75-1.42,3.17-3.17,3.17s-3.17-1.42-3.17-3.17,1.42-3.17,3.17-3.17,3.17,1.42,3.17,3.17Z"/>
          <circle class="cls-2" cx="1497.47" cy="1676.91" r="6.27"/>
          <circle class="cls-2" cx="1760.11" cy="1923.02" r="2.17"/>
          <path class="cls-2" d="M1940.26,1678.55c0,1.54-1.25,2.79-2.79,2.79s-2.79-1.25-2.79-2.79,1.25-2.79,2.79-2.79,2.79,1.25,2.79,2.79Z"/>
          <path class="cls-2" d="M1983.32,1832.06c0,1.07-.87,1.94-1.94,1.94s-1.94-.87-1.94-1.94.87-1.94,1.94-1.94,1.94.87,1.94,1.94Z"/>
          <circle class="cls-2" cx="1889.21" cy="1723.67" r="6.96"/>
          <path class="cls-2" d="M1910.87,1375.89c0,3.86-3.13,7-7,7s-7-3.13-7-7,3.13-7,7-7,7,3.13,7,7Z"/>
          <path class="cls-2" d="M1908.19,1195.63c0,3.73-3.03,6.76-6.76,6.76s-6.76-3.03-6.76-6.76,3.03-6.76,6.76-6.76,6.76,3.03,6.76,6.76Z"/>
          <path class="cls-2" d="M1680.07,1230.5c0,3.86-3.13,6.98-6.98,6.98s-6.98-3.13-6.98-6.98,3.13-6.98,6.98-6.98,6.98,3.13,6.98,6.98Z"/>
          <path class="cls-2" d="M1671.15,1092.9c0,2.2-1.78,3.98-3.98,3.98s-3.98-1.78-3.98-3.98,1.78-3.98,3.98-3.98,3.98,1.78,3.98,3.98Z"/>
          <path class="cls-2" d="M1574.71,1154.42c0,1.85-1.5,3.35-3.35,3.35s-3.35-1.5-3.35-3.35,1.5-3.35,3.35-3.35,3.35,1.5,3.35,3.35Z"/>
          <circle class="cls-2" cx="1340.95" cy="1548.1" r="5.86"/>
          <path class="cls-2" d="M1358.79,1025.01c0,2.11-1.71,3.82-3.82,3.82s-3.82-1.71-3.82-3.82,1.71-3.82,3.82-3.82,3.82,1.71,3.82,3.82Z"/>
          <path class="cls-2" d="M1167.71,1223.66c0,3.1-2.51,5.62-5.61,5.62s-5.62-2.51-5.62-5.62,2.51-5.62,5.62-5.62,5.61,2.51,5.61,5.62Z"/>
          <circle class="cls-2" cx="969.91" cy="1095.84" r="6.7"/>
          <circle class="cls-2" cx="764.6" cy="1299.63" r="3.86"/>
          <circle class="cls-2" cx="547.09" cy="1340.39" r="3.04"/>
          <circle class="cls-2" cx="497.11" cy="1173.78" r="4.34"/>
          <path class="cls-2" d="M340.49,1317.05c0,.89-.72,1.61-1.61,1.61s-1.61-.72-1.61-1.61.72-1.61,1.61-1.61,1.61.72,1.61,1.61Z"/>
          <path class="cls-2" d="M575.77,911.24c0,.85-.69,1.54-1.54,1.54s-1.54-.69-1.54-1.54.69-1.54,1.54-1.54,1.54.69,1.54,1.54Z"/>
          <circle class="cls-2" cx="551.58" cy="838.66" r="1.67"/>
          <path class="cls-2" d="M519.63,769.48c0,2.77-2.24,5.01-5.01,5.01s-5.01-2.24-5.01-5.01,2.24-5.01,5.01-5.01,5.01,2.24,5.01,5.01Z"/>
          <path class="cls-2" d="M377.04,751.92c0,3.58-2.9,6.49-6.49,6.49s-6.49-2.9-6.49-6.49,2.9-6.49,6.49-6.49,6.49,2.9,6.49,6.49Z"/>
          <circle class="cls-2" cx="457.73" cy="673.95" r="1.85"/>
          <path class="cls-2" d="M159.53,523.87c0,3.94-3.19,7.13-7.13,7.13s-7.13-3.19-7.13-7.13,3.19-7.13,7.13-7.13,7.13,3.19,7.13,7.13Z"/>
          <path class="cls-2" d="M206.54,416.92c0,2.17-1.76,3.93-3.93,3.93s-3.93-1.76-3.93-3.93,1.76-3.93,3.93-3.93,3.93,1.76,3.93,3.93Z"/>
          <circle class="cls-2" cx="173.35" cy="174.72" r="6.37"/>
          <path class="cls-2" d="M386.28,248.5c0,2.21-1.79,4-4,4s-4-1.79-4-4,1.79-4,4-4,4,1.79,4,4Z"/>
          <path class="cls-2" d="M441.5,104.89c0,1.51-1.22,2.73-2.73,2.73s-2.73-1.22-2.73-2.73,1.22-2.73,2.73-2.73,2.73,1.22,2.73,2.73Z"/>
          <path class="cls-2" d="M508.4,24.27c0,1.45-1.17,2.62-2.62,2.62s-2.62-1.17-2.62-2.62,1.17-2.62,2.62-2.62,2.62,1.17,2.62,2.62Z"/>
          <path class="cls-2" d="M706.66,308.6c0,2.93-2.37,5.3-5.3,5.3s-5.3-2.37-5.3-5.3,2.37-5.3,5.3-5.3,5.3,2.37,5.3,5.3Z"/>
          <path class="cls-2" d="M816.77,32.45c0,1.2-.97,2.18-2.18,2.18s-2.18-.97-2.18-2.18.97-2.18,2.18-2.18,2.18.97,2.18,2.18Z"/>
          <path class="cls-2" d="M974.63,392.83c0,2.59-2.1,4.69-4.69,4.69s-4.69-2.1-4.69-4.69,2.1-4.69,4.69-4.69,4.69,2.1,4.69,4.69Z"/>
          <path class="cls-2" d="M1078.23,307.54c0,3.65-2.96,6.61-6.61,6.61s-6.61-2.96-6.61-6.61,2.96-6.61,6.61-6.61,6.61,2.96,6.61,6.61Z"/>
          <circle class="cls-2" cx="1285.5" cy="87.82" r="2.18"/>
          <circle class="cls-2" cx="1323.71" cy="348.05" r="4.75"/>
          <path class="cls-2" d="M1402.35,403.41c0,3.62-2.94,6.56-6.56,6.56s-6.56-2.94-6.56-6.56,2.94-6.56,6.56-6.56,6.56,2.94,6.56,6.56Z"/>
          <path class="cls-2" d="M1502.49,342.74c0,3.3-2.67,5.97-5.97,5.97s-5.97-2.67-5.97-5.97,2.67-5.97,5.97-5.97,5.97,2.67,5.97,5.97Z"/>
          <path class="cls-2" d="M1672.41,443.85c0,2.35-1.91,4.26-4.26,4.26s-4.26-1.91-4.26-4.26,1.91-4.26,4.26-4.26,4.26,1.91,4.26,4.26Z"/>
          <circle class="cls-2" cx="1871.25" cy="343.64" r="6.16"/>
          <path class="cls-2" d="M1990.03,556.58c0,.87-.7,1.57-1.57,1.57s-1.57-.7-1.57-1.57.7-1.57,1.57-1.57,1.57.7,1.57,1.57Z"/>
          <circle class="cls-2" cx="1600.88" cy="595.76" r="1.81"/>
          <path class="cls-2" d="M1939.98,920.35c0,1.57-1.28,2.85-2.85,2.85s-2.85-1.28-2.85-2.85,1.28-2.85,2.85-2.85,2.85,1.28,2.85,2.85Z"/>
          <path class="cls-2" d="M1640.31,1048.56c0,3.08-2.49,5.57-5.57,5.57s-5.57-2.49-5.57-5.57,2.49-5.57,5.57-5.57,5.57,2.49,5.57,5.57Z"/>
          <circle class="cls-2" cx="1478.3" cy="734.91" r="6.39"/>
          <circle class="cls-2" cx="1273.59" cy="879.49" r="3.37"/>
          <circle class="cls-2" cx="1154.61" cy="1294.18" r="6.98"/>
          <path class="cls-2" d="M1055.43,1121.66c0,2.6-2.11,4.71-4.71,4.71s-4.71-2.11-4.71-4.71,2.11-4.71,4.71-4.71,4.71,2.11,4.71,4.71Z"/>
          <circle class="cls-2" cx="945.29" cy="1298.73" r="5.56"/>
          <path class="cls-2" d="M774.54,1245.47c0,1.46-1.19,2.65-2.65,2.65s-2.65-1.19-2.65-2.65,1.19-2.65,2.65-2.65,2.65,1.19,2.65,2.65Z"/>
          <path class="cls-2" d="M725.76,1026.9c0,1.16-.94,2.1-2.1,2.1s-2.1-.94-2.1-2.1.94-2.1,2.1-2.1,2.1.94,2.1,2.1Z"/>
          <circle class="cls-2" cx="683.44" cy="864.24" r="2.98"/>
          <path class="cls-2" d="M563.69,1080.15c0,2.73-2.21,4.94-4.94,4.94s-4.94-2.21-4.94-4.94,2.21-4.94,4.94-4.94,4.94,2.21,4.94,4.94Z"/>
          <path class="cls-2" d="M502.91,949.98c0,2.84-2.3,5.14-5.14,5.14s-5.14-2.3-5.14-5.14,2.3-5.14,5.14-5.14,5.14,2.3,5.14,5.14Z"/>
          <circle class="cls-2" cx="536.23" cy="1386.27" r="5.35"/>
          <path class="cls-2" d="M391.73,961.47c0,2.13-1.72,3.85-3.85,3.85s-3.85-1.72-3.85-3.85,1.72-3.85,3.85-3.85,3.85,1.72,3.85,3.85Z"/>
          <path class="cls-2" d="M404.51,1168.96c0,2.15-1.75,3.9-3.9,3.9s-3.9-1.75-3.9-3.9,1.75-3.9,3.9-3.9,3.9,1.75,3.9,3.9Z"/>
          <path class="cls-2" d="M149.96,1065.48c0,1.85-1.5,3.35-3.35,3.35s-3.35-1.5-3.35-3.35,1.5-3.35,3.35-3.35,3.35,1.5,3.35,3.35Z"/>
          <path class="cls-2" d="M457.41,1360.19c0,.81-.66,1.47-1.47,1.47s-1.47-.66-1.47-1.47.66-1.47,1.47-1.47,1.47.66,1.47,1.47Z"/>
          <circle class="cls-2" cx="21.15" cy="1425.91" r="4.52"/>
          <path class="cls-2" d="M278.85,1599.02c0,2.12-1.72,3.84-3.84,3.84s-3.84-1.72-3.84-3.84,1.72-3.84,3.84-3.84,3.84,1.72,3.84,3.84Z"/>
          <path class="cls-2" d="M7.96,1616.24c0,3.28-2.66,5.95-5.95,5.95s-5.95-2.66-5.95-5.95,2.66-5.95,5.95-5.95,5.95,2.66,5.95,5.95Z"/>
          <path class="cls-2" d="M428.21,1685.43c0,3.53-2.86,6.39-6.39,6.39s-6.39-2.86-6.39-6.39,2.86-6.39,6.39-6.39,6.39,2.86,6.39,6.39Z"/>
          <circle class="cls-2" cx="343.51" cy="1696.32" r="2.51"/>
          <circle class="cls-2" cx="443.94" cy="1730.34" r="4.31"/>
          <path class="cls-2" d="M246.29,1897.13c0,1.3-1.05,2.35-2.35,2.35s-2.35-1.05-2.35-2.35,1.05-2.35,2.35-2.35,2.35,1.05,2.35,2.35Z"/>
          <path class="cls-2" d="M293.89,1875.27c0,3.06-2.48,5.54-5.54,5.54s-5.54-2.48-5.54-5.54,2.48-5.54,5.54-5.54,5.54,2.48,5.54,5.54Z"/>
          <path class="cls-2" d="M583.53,1944.69c0,1.89-1.53,3.42-3.42,3.42s-3.42-1.53-3.42-3.42,1.53-3.42,3.42-3.42,3.42,1.53,3.42,3.42Z"/>
          <path class="cls-2" d="M892.11,1805.46c0,2.51-2.04,4.55-4.55,4.55s-4.55-2.04-4.55-4.55,2.04-4.55,4.55-4.55,4.55,2.04,4.55,4.55Z"/>
          <path class="cls-2" d="M932.88,1922.17c0,2.58-2.09,4.67-4.67,4.67s-4.67-2.09-4.67-4.67,2.09-4.67,4.67-4.67,4.67,2.09,4.67,4.67Z"/>
          <circle class="cls-2" cx="987.13" cy="1899.67" r="3.53"/>
          <path class="cls-2" d="M1061.33,1716.86c0,1.79-1.45,3.24-3.24,3.24s-3.24-1.45-3.24-3.24,1.45-3.24,3.24-3.24,3.24,1.45,3.24,3.24Z"/>
          <path class="cls-2" d="M1225.81,1697.55c0,3.51-2.85,6.36-6.36,6.36s-6.36-2.85-6.36-6.36,2.85-6.36,6.36-6.36,6.36,2.85,6.36,6.36Z"/>
          <path class="cls-2" d="M1375.23,1796.9c0,2.71-2.2,4.91-4.91,4.91s-4.91-2.2-4.91-4.91,2.2-4.91,4.91-4.91,4.91,2.2,4.91,4.91Z"/>
          <circle class="cls-2" cx="1520.7" cy="1788.78" r="5.9"/>
          <path class="cls-2" d="M1714.46,1865.26c0,3.09-2.51,5.6-5.6,5.6s-5.6-2.51-5.6-5.6,2.51-5.6,5.6-5.6,5.6,2.51,5.6,5.6Z"/>
          <path class="cls-2" d="M1774.36,1726.92c0,3.78-3.07,6.85-6.85,6.85s-6.85-3.07-6.85-6.85,3.07-6.85,6.85-6.85,6.85,3.06,6.85,6.85Z"/>
          <circle class="cls-2" cx="1389.99" cy="1469.69" r="7.01"/>
          <path class="cls-2" d="M1371.07,1406.43c0,.81-.66,1.46-1.46,1.46s-1.46-.66-1.46-1.46.66-1.46,1.46-1.46,1.46.66,1.46,1.46Z"/>
          <path class="cls-2" d="M1447.74,940.33c0,1.41-1.14,2.56-2.56,2.56s-2.56-1.14-2.56-2.56,1.14-2.56,2.56-2.56,2.56,1.14,2.56,2.56Z"/>
          <path class="cls-2" d="M1166.57,1246.4c0,1.89-1.53,3.42-3.42,3.42s-3.42-1.53-3.42-3.42,1.53-3.42,3.42-3.42,3.42,1.53,3.42,3.42Z"/>
          <path class="cls-2" d="M1162.77,926.26c0,1.79-1.45,3.24-3.24,3.24s-3.24-1.45-3.24-3.24,1.45-3.24,3.24-3.24,3.24,1.45,3.24,3.24Z"/>
          <path class="cls-2" d="M940.8,1048.83c0,1.64-1.33,2.98-2.98,2.98s-2.98-1.33-2.98-2.98,1.33-2.98,2.98-2.98,2.98,1.33,2.98,2.98Z"/>
          <path class="cls-2" d="M769.86,1286.47c0,2.98-2.41,5.39-5.39,5.39s-5.39-2.41-5.39-5.39,2.41-5.39,5.39-5.39,5.39,2.41,5.39,5.39Z"/>
          <circle class="cls-2" cx="777.54" cy="972.22" r="3.12"/>
          <circle class="cls-2" cx="679.73" cy="1014.77" r="4.71"/>
          <path class="cls-2" d="M560.95,1092.46c0,2.67-2.17,4.84-4.84,4.84s-4.84-2.17-4.84-4.84,2.17-4.84,4.84-4.84,4.84,2.17,4.84,4.84Z"/>
          <path class="cls-2" d="M639.11,828.46c0,2.14-1.73,3.87-3.87,3.87s-3.87-1.73-3.87-3.87,1.73-3.87,3.87-3.87,3.87,1.73,3.87,3.87Z"/>
          <path class="cls-2" d="M482.37,752.4c0,1.89-1.53,3.42-3.42,3.42s-3.42-1.53-3.42-3.42,1.53-3.42,3.42-3.42,3.42,1.53,3.42,3.42Z"/>
          <path class="cls-2" d="M498.35,602.59c0,1.7-1.38,3.08-3.08,3.08s-3.08-1.38-3.08-3.08,1.38-3.08,3.08-3.08,3.08,1.38,3.08,3.08Z"/>
          <path class="cls-2" d="M482.5,508.28c0,1.97-1.6,3.58-3.58,3.58s-3.58-1.6-3.58-3.58,1.6-3.58,3.58-3.58,3.58,1.6,3.58,3.58Z"/>
          <path class="cls-2" d="M299.6,412.94c0,1.39-1.13,2.52-2.52,2.52s-2.52-1.13-2.52-2.52,1.13-2.52,2.52-2.52,2.52,1.13,2.52,2.52Z"/>
          <circle class="cls-2" cx="612.23" cy="323.57" r="3.02"/>
          <path class="cls-2" d="M684.16,280.38c0,.89-.72,1.61-1.61,1.61s-1.61-.72-1.61-1.61.72-1.61,1.61-1.61,1.61.72,1.61,1.61Z"/>
          <path class="cls-2" d="M820.25,71.95c0,2.35-1.91,4.26-4.26,4.26s-4.26-1.91-4.26-4.26,1.91-4.26,4.26-4.26,4.26,1.91,4.26,4.26Z"/>
        </g>
      </g>
    </g>
  </g>
</svg>