<?xml version="1.0" encoding="UTF-8"?>
<svg id="Layer_1" data-name="Layer 1" xmlns="http://www.w3.org/2000/svg" viewBox="0 0 16 16">
  <defs>
    <style>
      .cls-1 {
        fill: #401717;
      }

      .cls-2 {
        fill: #ccbbf2;
      }

      .cls-3 {
        fill: #d97a43;
      }
    </style>
  </defs>
  <path class="cls-1" d="M3.72,7.59s-.02-.05-.05-.05h-1.18s-.05.02-.05.05.02.05.05.05h1.18s.05-.02.05-.05Z"/>
  <path class="cls-1" d="M1.25,7.03l-.14-.61-.14.61c-.05.2-.2.35-.4.4l-.61.14.61.14c.2.05.35.2.4.4l.14.61.14-.61c.05-.2.2-.35.4-.4l.61-.14-.61-.14c-.2-.05-.35-.2-.4-.4Z"/>
  <path class="cls-1" d="M14.24,7.58s-.02-.05-.05-.05h-.84s-.05.02-.05.05.02.05.05.05h.84s.05-.02.05-.05Z"/>
  <path class="cls-1" d="M15.1,7.97l.1.44.1-.44c.03-.14.15-.26.29-.29l.44-.1-.44-.1c-.14-.03-.26-.15-.29-.29l-.1-.44-.1.44c-.03.14-.15.26-.29.29l-.44.1.44.1c.14.03.26.15.29.29Z"/>
  <path class="cls-1" d="M3.17,5.14c.06,0,.11-.03.14-.09.04-.08,0-.17-.07-.21-.08-.04-.17,0-.21.07-.04.08,0,.17.07.21.02.01.05.02.07.02Z"/>
  <path class="cls-1" d="M8.09,1.81s0,0,.01,0c.09,0,.15-.08.15-.17,0-.09-.08-.15-.17-.15-.09,0-.15.08-.15.17,0,.08.08.15.16.15Z"/>
  <path class="cls-1" d="M2.85,5.97c.07,0,.13-.04.15-.11.03-.08-.02-.17-.1-.2-.08-.03-.17.02-.2.1-.03.08.02.17.1.2.02,0,.03,0,.05,0Z"/>
  <path class="cls-1" d="M2.84,9.48s.03,0,.05,0c.08-.03.13-.11.1-.2-.03-.08-.11-.13-.2-.1-.08.03-.13.11-.1.2.02.07.08.11.15.11Z"/>
  <path class="cls-1" d="M2.49,6.65c-.01.09.05.17.13.18,0,0,.02,0,.02,0,.08,0,.14-.06.16-.13.01-.09-.05-.17-.13-.18-.09-.01-.17.05-.18.13Z"/>
  <path class="cls-1" d="M3.17,10.31s.05,0,.07-.02c.08-.04.11-.13.07-.21-.04-.08-.13-.11-.21-.07-.08.04-.11.13-.07.21.03.06.08.09.14.09Z"/>
  <path class="cls-1" d="M3.7,11.05c.07-.05.09-.15.04-.22-.05-.07-.15-.09-.22-.04-.07.05-.09.15-.04.22.03.04.08.07.13.07.03,0,.06,0,.09-.03Z"/>
  <path class="cls-1" d="M2.8,8.44c-.01-.09-.09-.15-.18-.13-.09.01-.15.09-.13.18.01.08.08.13.16.13,0,0,.02,0,.02,0,.09-.01.15-.09.13-.18Z"/>
  <path class="cls-1" d="M8.82,1.64c0,.09.06.16.15.17,0,0,0,0,.01,0,.08,0,.15-.06.16-.15,0-.09-.06-.16-.15-.17-.09,0-.16.06-.17.15Z"/>
  <path class="cls-1" d="M13.89,5.16s.05,0,.07-.02c.08-.04.11-.13.07-.21-.04-.08-.13-.11-.21-.07-.08.04-.11.13-.07.21.03.06.08.09.14.09Z"/>
  <path class="cls-1" d="M13.36,4.1c-.07.05-.09.15-.04.22.03.04.08.07.13.07.03,0,.06,0,.09-.03.07-.05.09-.15.04-.22-.05-.07-.15-.09-.22-.04Z"/>
  <path class="cls-1" d="M13.74,10.09c-.04.08,0,.17.07.21.02.01.05.02.07.02.06,0,.11-.03.14-.09.04-.08,0-.17-.07-.21-.08-.04-.17,0-.21.07Z"/>
  <path class="cls-1" d="M14.16,9.48s.03,0,.05,0c.07,0,.13-.04.15-.11.03-.08-.02-.17-.1-.2-.08-.03-.17.02-.2.1-.03.08.02.17.1.2Z"/>
  <path class="cls-1" d="M13.57,11.01c.05-.07.03-.17-.04-.22-.07-.05-.17-.03-.22.04-.05.07-.03.17.04.22.03.02.06.03.09.03.05,0,.1-.02.13-.07Z"/>
  <path class="cls-1" d="M8.08,13.66c.08,0,.15-.06.16-.15,0-.09-.06-.16-.15-.17-.09,0-.16.06-.17.15,0,.09.06.16.15.17,0,0,0,0,.01,0Z"/>
  <path class="cls-1" d="M14.25,6.72c.01.08.08.13.16.13,0,0,.02,0,.02,0,.09-.01.15-.09.13-.18-.01-.09-.09-.15-.18-.13-.09.01-.15.09-.13.18Z"/>
  <path class="cls-1" d="M8.96,13.34c-.09,0-.15.08-.15.17,0,.08.08.15.16.15,0,0,0,0,.01,0,.09,0,.15-.08.15-.17,0-.09-.08-.15-.17-.15Z"/>
  <path class="cls-1" d="M14.17,5.68c-.08.03-.13.11-.1.2.02.07.08.11.15.11.02,0,.03,0,.05,0,.08-.03.13-.11.1-.2-.03-.08-.11-.13-.2-.1Z"/>
  <path class="cls-1" d="M4.17,11.77s.08-.01.11-.04c.06-.06.07-.16,0-.22-.06-.06-.16-.07-.22,0-.06.06-.07.16,0,.22.03.03.07.05.12.05Z"/>
  <path class="cls-1" d="M14.41,8.62c.08,0,.14-.06.16-.13.01-.09-.05-.17-.13-.18-.09-.01-.17.05-.18.13-.01.09.05.17.13.18,0,0,.02,0,.02,0Z"/>
  <path class="cls-1" d="M3.71,4.09c-.07-.05-.17-.03-.22.04-.05.07-.03.17.04.22.03.02.06.03.09.03.05,0,.1-.02.13-.07.05-.07.03-.17-.04-.22Z"/>
  <path class="cls-1" d="M10.64,12.96c-.08.03-.12.12-.09.2.02.06.08.1.15.1.02,0,.04,0,.06-.01.08-.03.12-.12.09-.2-.03-.08-.12-.12-.21-.09Z"/>
  <path class="cls-1" d="M12.13,12.1c-.07.05-.08.15-.03.22.03.04.08.06.12.06.03,0,.07-.01.1-.03.07-.05.08-.15.02-.22-.05-.07-.15-.08-.22-.03Z"/>
  <path class="cls-1" d="M11.42,12.59c-.08.04-.1.14-.06.22.03.05.08.08.14.08.03,0,.05,0,.08-.02.08-.04.1-.14.06-.22-.04-.08-.14-.1-.22-.06Z"/>
  <path class="cls-1" d="M13,3.66c.06-.06.07-.16,0-.22-.06-.06-.16-.07-.22,0-.06.06-.07.16,0,.22.03.03.07.05.12.05.04,0,.08-.01.11-.04Z"/>
  <path class="cls-1" d="M12.24,3.09s.09-.02.12-.06c.05-.07.04-.17-.02-.22-.07-.05-.17-.04-.22.02-.05.07-.04.17.02.22.03.02.06.03.1.03Z"/>
  <path class="cls-1" d="M12.88,11.78s.08-.02.12-.05c.06-.06.06-.16,0-.22-.06-.06-.16-.06-.22,0-.06.06-.06.16,0,.22.03.03.07.04.11.04Z"/>
  <path class="cls-1" d="M4.17,3.68s.08-.02.12-.05c.06-.06.06-.16,0-.22-.06-.06-.16-.06-.22,0-.06.06-.06.16,0,.22.03.03.07.04.11.04Z"/>
  <path class="cls-1" d="M9.81,13.21c-.09.02-.14.1-.12.19.02.07.08.12.15.12.01,0,.02,0,.04,0,.09-.02.14-.1.12-.19-.02-.09-.1-.14-.19-.12Z"/>
  <path class="cls-1" d="M4.69,12.12c-.05.07-.04.17.02.22.03.02.06.03.1.03.05,0,.09-.02.12-.06.05-.07.04-.17-.02-.22-.07-.05-.17-.04-.22.02Z"/>
  <path class="cls-1" d="M6.2,13.05c-.03.08,0,.17.09.21.02,0,.04.01.06.01.06,0,.12-.04.15-.1.03-.08,0-.17-.09-.2-.08-.03-.17,0-.21.09Z"/>
  <path class="cls-1" d="M7.05,13.33c-.02.08.03.17.12.19.01,0,.02,0,.04,0,.07,0,.14-.05.15-.12.02-.09-.03-.17-.12-.19-.09-.02-.17.03-.19.12Z"/>
  <path class="cls-1" d="M5.41,12.64c-.04.08-.02.17.06.22.02.01.05.02.08.02.05,0,.11-.03.14-.08.04-.08.02-.17-.06-.22-.08-.04-.17-.02-.22.06Z"/>
  <path class="cls-1" d="M4.93,3.05c.07-.05.08-.15.03-.22-.05-.07-.15-.08-.22-.03-.07.05-.08.15-.03.22.03.04.08.06.12.06.03,0,.07-.01.1-.03Z"/>
  <path class="cls-1" d="M7.21,1.94s.02,0,.03,0c.09-.02.14-.1.12-.19-.02-.09-.1-.14-.19-.12-.09.02-.14.1-.12.19.02.07.08.12.15.12Z"/>
  <path class="cls-1" d="M5.56,2.58s.05,0,.08-.02c.08-.04.1-.14.06-.22-.04-.08-.14-.1-.22-.06-.08.04-.1.14-.06.22.03.05.08.08.14.08Z"/>
  <path class="cls-1" d="M9.86,1.94c.07,0,.14-.05.15-.12.02-.08-.03-.17-.12-.19-.09-.02-.17.03-.19.12-.02.09.03.17.12.19.01,0,.02,0,.04,0Z"/>
  <path class="cls-1" d="M10.71,2.21c.06,0,.12-.04.15-.1.03-.08,0-.17-.09-.2-.08-.03-.17,0-.21.09-.03.08,0,.17.09.2.02,0,.04.01.06.01Z"/>
  <path class="cls-1" d="M11.51,2.59c.05,0,.11-.03.14-.08.04-.08.02-.17-.06-.22-.08-.04-.17-.02-.22.06-.04.08-.02.17.06.22.02.01.05.02.08.02Z"/>
  <path class="cls-1" d="M6.36,2.2s.04,0,.06-.01c.08-.03.12-.12.09-.2-.03-.08-.12-.12-.21-.09-.08.03-.12.12-.09.2.02.06.08.1.15.1Z"/>
  <path class="cls-1" d="M8.58.79V-2s-.02-.05-.05-.05-.05.02-.05.05V.79s.02.05.05.05.05-.02.05-.05Z"/>
  <path class="cls-1" d="M8.2.86s0,0,0,0c.03,0,.05-.03.05-.06l-.17-2.09s-.03-.05-.06-.05c-.03,0-.05.03-.05.06l.17,2.09s.03.05.05.05Z"/>
  <path class="cls-1" d="M8.85.86s0,0,0,0c.03,0,.05-.02.05-.05l.17-2.09s-.02-.05-.05-.06c-.03,0-.05.02-.06.05l-.17,2.09s.02.05.05.06Z"/>
  <path class="cls-1" d="M9.42-.71l-.24,1.55s0,.01,0,.02c0,0,0,0,0,0,0,.03.02.05.05.06,1.29.13,2.5.64,3.51,1.45,0,0,.02.01.03.01.02,0,.03,0,.04-.02,0,0,.01,0,.02-.02l.93-1.26s.01-.06-.01-.07c-.02-.02-.06-.01-.07.01l-.91,1.24c-.43-.34-.9-.63-1.39-.86l.31-.69s0-.06-.03-.07c-.03-.01-.06,0-.07.03l-.31.69c-.08-.03-.15-.07-.23-.1l.28-.71s0-.06-.03-.07c-.03-.01-.06,0-.07.03l-.28.71c-.08-.03-.16-.06-.24-.09l.24-.72s0-.06-.03-.07c-.03,0-.06,0-.07.03l-.24.72c-.43-.14-.87-.23-1.32-.28l.23-1.52s-.02-.06-.04-.06c-.03,0-.06.02-.06.04Z"/>
  <path class="cls-1" d="M8.53,14.31s-.05.02-.05.05v2.78s.02.05.05.05.05-.02.05-.05v-2.78s-.02-.05-.05-.05Z"/>
  <path class="cls-1" d="M8.85,14.29s-.05.03-.05.06l.17,2.09s.03.05.05.05c0,0,0,0,0,0,.03,0,.05-.03.05-.06l-.17-2.09s-.03-.05-.06-.05Z"/>
  <path class="cls-1" d="M8.21,14.29s-.05.02-.06.05l-.17,2.09s.02.05.05.06c0,0,0,0,0,0,.03,0,.05-.02.05-.05l.17-2.09s-.02-.05-.05-.06Z"/>
  <path class="cls-1" d="M15.26.77l-1.97,1.97s-.02.05,0,.07c.01.01.02.02.04.02s.03,0,.04-.02l1.97-1.97s.02-.05,0-.07c-.02-.02-.05-.02-.07,0Z"/>
  <path class="cls-1" d="M14.48.92s-.06-.02-.07,0l-1.36,1.6s-.02.06,0,.07c0,0,.02.01.03.01.01,0,.03,0,.04-.02l1.36-1.6s.02-.06,0-.07Z"/>
  <path class="cls-1" d="M13.58,3.06l1.6-1.36s.02-.05,0-.07c-.02-.02-.05-.02-.07,0l-1.6,1.36s-.02.05,0,.07c.01.01.03.02.04.02.01,0,.02,0,.03-.01Z"/>
  <path class="cls-1" d="M1.75,14.39s.03,0,.04-.02l1.97-1.97s.02-.05,0-.07c-.02-.02-.05-.02-.07,0l-1.97,1.97s-.02.05,0,.07c.01.01.02.02.04.02Z"/>
  <path class="cls-1" d="M2.6,14.24s.03,0,.04-.02l1.36-1.6s.02-.06,0-.07c-.02-.02-.06-.02-.07,0l-1.36,1.6s-.02.06,0,.07c0,0,.02.01.03.01Z"/>
  <path class="cls-1" d="M3.47,12.09l-1.6,1.36s-.02.05,0,.07c.01.01.03.02.04.02.01,0,.02,0,.03-.01l1.6-1.36s.02-.05,0-.07c-.02-.02-.05-.02-.07,0Z"/>
  <path class="cls-1" d="M13.37,12.34s-.05-.02-.07,0c-.02.02-.02.05,0,.07l1.97,1.97s.02.02.04.02.03,0,.04-.02c.02-.02.02-.05,0-.07l-1.97-1.97Z"/>
  <path class="cls-1" d="M15.11,13.53s.02.01.03.01c.01,0,.03,0,.04-.02.02-.02.02-.06,0-.07l-1.6-1.36s-.06-.02-.07,0c-.02.02-.02.06,0,.07l1.6,1.36Z"/>
  <path class="cls-1" d="M14.41,14.22s.03.02.04.02c.01,0,.02,0,.03-.01.02-.02.02-.05,0-.07l-1.36-1.6s-.05-.02-.07,0c-.02.02-.02.05,0,.07l1.36,1.6Z"/>
  <path class="cls-1" d="M12.83,12.79s-.01-.01-.02-.02c0,0,0,0,0,0-.02-.02-.05-.03-.07,0-1,.81-2.2,1.31-3.48,1.45-.02,0-.03.01-.04.03-.02,0-.04.03-.03.06l.24,1.55s.03.04.05.04c0,0,0,0,0,0,.03,0,.05-.03.04-.06l-.23-1.52c.45-.05.89-.15,1.32-.28l.24.72s.03.04.05.04c0,0,.01,0,.02,0,.03,0,.04-.04.03-.07l-.24-.72c.08-.03.16-.06.24-.09l.28.71s.03.03.05.03c0,0,.01,0,.02,0,.03-.01.04-.04.03-.07l-.28-.71c.08-.03.16-.06.23-.1l.31.69s.03.03.05.03c0,0,.01,0,.02,0,.03-.01.04-.04.03-.07l-.31-.69c.49-.23.96-.52,1.39-.86l.91,1.24s.03.02.04.02c.01,0,.02,0,.03-.01.02-.02.03-.05.01-.07l-.93-1.26Z"/>
  <path class="cls-1" d="M1.71.77s-.02.05,0,.07l1.97,1.97s.02.02.04.02.03,0,.04-.02c.02-.02.02-.05,0-.07L1.79.77s-.05-.02-.07,0Z"/>
  <path class="cls-1" d="M3.55,3.05s.02-.06,0-.07l-1.6-1.36s-.06-.02-.07,0c-.02.02-.02.06,0,.07l1.6,1.36s.02.01.03.01c.01,0,.03,0,.04-.02Z"/>
  <path class="cls-1" d="M2.57.92s-.02.05,0,.07l1.36,1.6s.03.02.04.02c.01,0,.02,0,.03-.01.02-.02.02-.05,0-.07l-1.36-1.6s-.05-.02-.07,0Z"/>
  <path class="cls-1" d="M15.59,10.27l-.71-.28c.03-.08.06-.16.09-.24l.72.24s.01,0,.02,0c.02,0,.04-.01.05-.04,0-.03,0-.06-.03-.07l-.72-.24c.11-.33.19-.68.24-1.02,0-.03-.02-.06-.04-.06-.03,0-.06.02-.06.04-.18,1.15-.66,2.24-1.39,3.15-.01.02-.01.03,0,.05,0,.02,0,.05.02.06l1.27.93s.02.01.03.01c.02,0,.03,0,.04-.02.02-.02.01-.06-.01-.07l-1.24-.91c.34-.43.63-.9.86-1.39l.69.31s.01,0,.02,0c.02,0,.04-.01.05-.03.01-.03,0-.06-.03-.07l-.69-.31c.03-.08.07-.15.1-.23l.71.28s.01,0,.02,0c.02,0,.04-.01.05-.03.01-.03,0-.06-.03-.07Z"/>
  <path class="cls-1" d="M1.5,4.78s-.06,0-.07.03c-.01.03,0,.06.03.07l.71.28c-.03.08-.06.16-.09.24l-.72-.24s-.06,0-.07.03c0,.03,0,.06.03.07l.72.24c-.14.44-.24.9-.29,1.37,0,.03.02.05.05.06,0,0,0,0,0,0,.03,0,.05-.02.05-.05.13-1.29.64-2.5,1.45-3.51.02-.02.01-.06,0-.07,0,0,0,0,0,0,0,0,0-.01-.02-.02l-1.27-.93s-.06-.01-.07.01c-.02.02-.01.06.01.07l1.24.91c-.34.43-.63.9-.86,1.39l-.69-.31s-.06,0-.07.03c-.01.03,0,.06.03.07l.69.31c-.03.08-.07.15-.1.23l-.71-.28Z"/>
  <path class="cls-1" d="M5.39.65s-.04.04-.03.07l.31.69c-.49.23-.96.51-1.39.86l-.91-1.24s-.05-.03-.07-.01c-.02.02-.03.05-.01.07l.93,1.26s.01.01.02.02c.01.01.03.02.04.02.01,0,.02,0,.03-.01,1.01-.82,2.23-1.32,3.52-1.45.03,0,.05-.03.05-.06,0-.01,0-.02-.02-.03l-.24-1.54s-.03-.05-.06-.04c-.03,0-.05.03-.04.06l.23,1.52c-.45.05-.89.15-1.32.28l-.24-.72s-.04-.04-.07-.03c-.03,0-.04.04-.03.07l.24.72c-.08.03-.16.06-.24.09l-.28-.71s-.04-.04-.07-.03c-.03.01-.04.04-.03.07l.28.71c-.08.03-.16.06-.23.1l-.31-.69s-.04-.04-.07-.03Z"/>
  <path class="cls-1" d="M1.59,10.71s.03.03.05.03c0,0,.01,0,.02,0l.69-.31c.23.49.52.96.86,1.39l-1.24.91s-.03.05-.01.07c.01.01.03.02.04.02.01,0,.02,0,.03-.01l1.27-.93s.03-.04.02-.06c0-.02,0-.04,0-.05-.81-1.01-1.31-2.22-1.44-3.51,0-.03-.03-.05-.06-.05-.03,0-.05.03-.05.06.05.48.15.94.29,1.39l-.72.24s-.04.04-.03.07c0,.02.03.04.05.04,0,0,.01,0,.02,0l.72-.24c.03.08.06.16.09.24l-.71.28s-.04.04-.03.07c0,.02.03.03.05.03,0,0,.01,0,.02,0l.71-.28c.03.08.06.16.1.23l-.69.31s-.04.04-.03.07Z"/>
  <path class="cls-1" d="M7.83,14.22c-1.28-.13-2.49-.63-3.5-1.44-.02-.01-.04-.01-.06,0-.02,0-.03,0-.04.02l-.93,1.26s-.01.06.01.07c0,0,.02.01.03.01.02,0,.03,0,.04-.02l.91-1.24c.43.34.9.63,1.39.86l-.31.69s0,.06.03.07c0,0,.01,0,.02,0,.02,0,.04-.01.05-.03l.31-.69c.08.03.15.07.23.1l-.28.71s0,.06.03.07c0,0,.01,0,.02,0,.02,0,.04-.01.05-.03l.28-.71c.08.03.16.06.24.09l-.24.72s0,.06.03.07c0,0,.01,0,.02,0,.02,0,.04-.01.05-.04l.24-.72c.43.14.87.23,1.32.28l-.23,1.52s.02.06.04.06c0,0,0,0,0,0,.03,0,.05-.02.05-.04l.24-1.55s0-.01,0-.02c0,0,0,0,0,0,0-.03-.02-.05-.05-.06Z"/>
  <path class="cls-1" d="M13.84,3.34l1.24-.91s.03-.05.01-.07c-.02-.02-.05-.03-.07-.01l-1.25.92s-.04,0-.05,0c-.02.02-.03.05,0,.07.75.91,1.24,2,1.42,3.16,0,.03.03.04.05.04,0,0,0,0,0,0,.03,0,.05-.03.04-.06-.05-.34-.14-.67-.24-1l.72-.24s.04-.04.03-.07c0-.03-.04-.04-.07-.03l-.72.24c-.03-.08-.06-.16-.09-.24l.71-.28s.04-.04.03-.07c-.01-.03-.04-.04-.07-.03l-.71.28c-.03-.08-.06-.16-.1-.23l.69-.31s.04-.04.03-.07c-.01-.03-.04-.04-.07-.03l-.69.31c-.23-.49-.52-.96-.86-1.39Z"/>
  <path class="cls-2" d="M8.52,3.08c-2.47,0-4.47,2.01-4.47,4.48s2.01,4.48,4.47,4.48,4.47-2.01,4.47-4.48-2.01-4.48-4.47-4.48ZM8.22,7.56c0,1.52.85,2.9,2.18,3.59-.58.3-1.22.46-1.88.46-2.23,0-4.05-1.82-4.05-4.06s1.82-4.06,4.05-4.06c.66,0,1.3.16,1.88.47-1.34.69-2.19,2.07-2.19,3.59Z"/>
  <path class="cls-3" d="M4.47,7.57c0,2.23,1.82,4.05,4.05,4.05.66,0,1.3-.16,1.88-.46-1.34-.69-2.19-2.07-2.19-3.59s.85-2.9,2.19-3.59c-.58-.31-1.22-.47-1.88-.47-2.24,0-4.05,1.82-4.05,4.05Z"/>
  <path class="cls-1" d="M11.19,3.85c-.75-.54-1.67-.85-2.66-.85-2.53,0-4.58,2.05-4.58,4.58s2.06,4.58,4.58,4.58c.99,0,1.91-.32,2.66-.85,1.16-.83,1.92-2.19,1.92-3.73s-.76-2.89-1.92-3.72ZM8.53,12.05c-2.47,0-4.48-2.01-4.48-4.47s2.01-4.47,4.48-4.47,4.48,2.01,4.48,4.47-2.01,4.47-4.48,4.47Z"/>
</svg>