<?xml version="1.0" encoding="UTF-8"?>
<svg id="Layer_1" data-name="Layer 1" xmlns="http://www.w3.org/2000/svg" viewBox="0 0 335 335.84">
  <defs>
    <style>
      .cls-1 {
        fill: #401717;
      }

      .cls-2 {
        fill: #f2e0dc;
      }

      .cls-3 {
        fill: #d97a43;
      }
    </style>
  </defs>
  <rect class="cls-2" width="335" height="335"/>
  <g>
    <g>
      <path class="cls-1" d="M96.59,79.84c-2.72-.48-2.62-.48-2.62,0,0,.4.82.8,2.52,1.24.87.23,2.45.15,2.78-.14.36-.31-.73-.75-2.68-1.1Z"/>
      <path class="cls-1" d="M165.14,104.73c.52-.52.34-.96-.41-.96-.63,0-.95.43-.73.99.2.53.58.51,1.13-.04Z"/>
      <path class="cls-1" d="M147.81,87.43c-.78.21-2.65,2.84-2.65,3.72,0,.45.44,1.24,1.14,2.06.85.99,1.33,1.33,1.91,1.33,2.34,0,3.72-1.54,3.77-4.22.03-1.53-.05-1.76-.75-2.37-.78-.67-2.11-.87-3.41-.52ZM149.76,89.79c.24,0,.44.13.44.28s-.12.28-.26.28-.34-.12-.44-.28c-.1-.15.02-.28.26-.28Z"/>
      <path class="cls-1" d="M166.11,89.16c-.94-.76-1.89-.89-2.95-.38-1.07.51-1.52,1.41-1.59,3.15-.05,1.31.55,2.19,1.89,2.76.45.19,1.29.36,1.86.36h1.04s.23-2,.23-2c.3-2.72.23-3.32-.48-3.9ZM164.32,91.47c-.68.64-.7.64-.7.09,0-.72.76-1.4,1.13-1.02.17.18.02.51-.43.93Z"/>
      <path class="cls-1" d="M57.06,203.99c.31-.08.56-.19.56-.25s-.25-.11-.56-.11-.56.11-.56.26.26.19.56.11Z"/>
      <path class="cls-1" d="M51.67,203.64c1.18.23,4.71.34,4.51.14-.14-.14-.92-.25-4.02-.57-2.03-.21-2.35.08-.49.44Z"/>
      <path class="cls-1" d="M58.74,203.86c.38,0,.54-.06.35-.14-.2-.08-.51-.08-.7,0-.19.08-.04.14.35.14Z"/>
      <path class="cls-1" d="M60.62,203.74c-.09-.1-.33-.1-.54-.02-.22.09-.15.16.17.17.29.01.46-.05.36-.15Z"/>
      <path class="cls-1" d="M54.08,204.62c-.88-.13-1.5-.1-1.61.07-.18.3.82.41,6.69.81,1.84.12,3.55.2,3.77.17.23-.03.52-.06.65-.08.13,0,.16-.14.06-.28-.09-.15-1.58-.27-3.3-.28-3.2-.02-3.73-.05-6.26-.41Z"/>
      <path class="cls-1" d="M310.9,232.74c-.77-.86-3.8-2.31-4.42-2.11-.56.18-1.35-1.12-1.35-2.2,0-.7-1.28-2.52-2.24-3.2-.43-.3-.55-.71-.55-1.87,0-2.69-1.26-5.53-2.81-6.32-.61-.31-1.11-.62-1.11-.68,0-.07.14-.76.3-1.53.27-1.27.24-1.51-.3-2.39-.33-.54-.78-.98-1-.98-.84,0-1.52-1.08-1.52-2.42,0-2.06-.55-3.5-1.46-3.85-.78-.29-1.08-.81-1.23-2.13-.22-1.93-.98-3.8-1.82-4.49-.66-.55-.9-.99-.96-1.82-.21-2.64-.45-3.33-1.47-4.23-.96-.84-1.02-1.01-1.19-3.04-.17-2.07-.22-2.19-1.32-3.2-1.21-1.12-1.74-2.42-1.74-4.31,0-1.3-.96-3.42-1.63-3.64-.78-.25-1.19-1.21-1.31-3.1-.12-1.87-.67-3.07-1.52-3.34-.48-.15-1.42-2.46-1.42-3.5,0-.72-.74-2.37-1.26-2.8-.66-.55-1.26-2.15-1.26-3.35,0-1.37-.49-2.83-1.15-3.41-.67-.59-.94-1.32-1.35-3.73-.26-1.52-.55-2.22-1.29-3.12-1.11-1.35-1.6-2.48-1.38-3.18.26-.81-.93-3.54-1.91-4.36-1.46-1.23-1.72-1.73-1.29-2.52.33-.62.24-.93-.99-3.35-1.35-2.65-1.35-2.68-.9-3.61.4-.85.41-1.09.05-2.29-.22-.74-.85-1.89-1.39-2.57-1.15-1.43-1.21-2.03-.35-3.22,1.33-1.83,1.75-3,1.75-4.9s-.02-1.86-1.34-3.28c-2.39-2.56-3.31-4.04-3.2-5.12.11-1.04-.35-3.33-.92-4.55-.45-.96-1.57-1.48-4.14-1.9-2.2-.36-4.47-.21-6.4.43-.65.21-1.59.45-2.1.52-.51.08-1.84.46-2.96.86-1.12.4-2.57.83-3.22.97-.65.14-1.75.39-2.46.56-1.27.31-2.33.23-7.24-.53-3.37-.52-6.44-2.04-9.51-4.72-.69-.6-2.58-2.15-4.2-3.45-1.62-1.3-3.24-2.6-3.61-2.91-1.12-.92-5.47-4.71-5.62-4.91-.27-.36-3.8-2.97-5.31-3.93-1.83-1.17-6.34-3.36-8.11-3.96-4.66-1.55-10.22-1.71-13.95-.4-2.14.75-4.02,1.91-6.19,3.8l-1.26,1.1-1.61-.28c-1.55-.27-1.61-.32-1.61-1.14,0-.47-.45-1.67-.99-2.65l-.99-1.8.74-1.86c.68-1.7.73-2.08.58-4.38-.15-2.23-.31-2.78-1.32-4.76-1.54-2.98-1.84-3.97-2.23-7.27-.38-3.21-.2-6.37.54-9.33.57-2.31.43-3.62-.49-4.61-.31-.33-.69-.93-.84-1.34-.26-.67-.19-.81.77-1.47.57-.4,1.27-.72,1.55-.72.63,0,4.22-3.59,5.39-5.39.76-1.17.9-1.68,1.07-3.96.18-2.42.14-2.78-.54-4.54-.4-1.05-.73-2.06-.73-2.25,0-.68-3.24-3.62-4.81-4.36-3.24-1.52-7.31-1.88-9.51-.82-.72.35-1.42.63-1.57.63s-.77.38-1.41.84c-.64.46-1.27.84-1.41.84-.39,0-2.52,2.95-3.1,4.29-.28.66-.67,2.33-.86,3.7-.3,2.18-.29,2.73.12,4.31.71,2.76,1.54,4.21,3.11,5.4,1.67,1.28,4.11,2.43,5.15,2.43.41,0,.96.15,1.22.35.43.32.43.5.06,2.08-.35,1.52-.35,1.88,0,2.88.56,1.59.82,7.21.46,9.99-.31,2.34-.67,3.53-2.85,9.31-1.02,2.7-1.21,3.51-1.18,5.07.04,1.94.4,2.94,1.61,4.37.69.81.69.87.27,1.88-.37.89-.53,1.01-1.1.87-1.72-.43-2.03-.68-2.23-1.75-.26-1.37-1.86-3.96-3.33-5.39-2.35-2.28-3.17-2.86-5.91-4.2-4.55-2.22-8.2-2.86-16.5-2.9-6.47-.03-8.23.19-16.28,2.07-1.27.3-2.93.54-3.69.54s-1.71.12-2.09.27c-.39.15-1.62.35-2.74.45-1.12.1-2.92.28-4,.41-2.18.27-5.33-.05-7.55-.77-2.75-.88-5.46-2.29-6.22-3.22-1.52-1.87-7.24-7.57-8.33-8.29-2.32-1.53-5.25-2.4-6.86-2.03-2.62.6-3.78,1.5-5.03,3.87l-.91,1.75h-1.37c-1.37,0-3.02.61-3.02,1.12,0,.15-.54.66-1.19,1.12-3.61,2.58-4.39,3.74-4.4,6.53,0,1.96,1.05,4.18,2.29,4.82,1.01.52.98,1.04-.2,3.27-1.08,2.03-1.18,2.74-.56,3.93.62,1.19.53,1.5-.65,2.24-1.32.83-1.84,2.26-1.45,3.95.36,1.53.37,1.47-.55,1.95-1.06.55-2.25,2.88-2.26,4.43,0,.93-.2,1.38-.96,2.23-1.11,1.23-1.96,3.53-1.73,4.69.13.65-.02,1-.81,1.83-1.86,1.97-2.71,3.51-2.56,4.63.1.82,0,1.13-.53,1.6-.9.79-2.36,3.74-2.36,4.79,0,.52-.25,1.11-.63,1.49-1.19,1.19-1.57,2.07-1.77,4.13-.16,1.64-.36,2.27-.97,3.05-1.17,1.48-2.27,4.43-1.91,5.1.23.43.18.62-.27.94-1.18.82-2.55,4.01-2.56,5.94,0,.37-.31.9-.71,1.22-.96.75-1.84,2.57-1.94,3.97-.04.63-.09,1.36-.11,1.61-.02.25-.48.72-1.03,1.05-1.26.74-1.91,2.22-1.72,3.91.16,1.44-.21,2.46-.99,2.71-.3.09-.72.59-.93,1.1-.21.51-.51,1.01-.65,1.1-.49.31-.96,3.09-.63,3.71.25.45.21.66-.2,1.02-.28.25-.71.45-.96.45s-.77.41-1.16.92c-.56.75-.74,1.38-.89,3.29-.19,2.34-.2,2.38-1.41,3.5-1.22,1.13-1.78,2.34-1.78,3.85,0,1.03-1.3,3.24-2.13,3.62-.82.37-1.86,2.46-2.05,4.12-.15,1.25-.16,1.26-1.27,1.3-3.41.12-5.91,3.06-6.06,7.13-.05,1.54.05,1.99.8,3.32.91,1.62,2.7,2.88,3.86,2.71.31-.05,1.13.32,1.84.81.71.49,2.97,1.73,5.03,2.76,2.07,1.03,3.95,2.04,4.17,2.25.23.2,1.43.68,2.66,1.07,1.23.39,3.31,1.1,4.62,1.58,3.91,1.44,7.04,2.44,8.67,2.75,5.27,1.01,10.75,1.68,15.52,1.88,2,.09,4.46.26,5.46.38,1,.12,4.96.13,8.81.01,6.23-.19,7.46-.3,11.33-1.08,2.39-.48,4.78-1.05,5.32-1.26.54-.2,1.92-.65,3.07-1,4.73-1.41,9-3.15,12.31-5.01,1.81-1.02,5.27-2.55,5.75-2.55.64,0,3.15-2.65,3.33-3.51.08-.38.21-.99.28-1.37.08-.37,0-1.34-.17-2.16-.36-1.69-1.4-2.87-3.24-3.7l-1.17-.52.02-1.57c.03-1.88-.59-3.24-1.76-3.91-1.02-.58-1.21-1.12-.84-2.48.5-1.86-.44-4.28-1.65-4.28-.72,0-1.16-1.21-.8-2.23.41-1.17.16-1.94-1.11-3.39-1.33-1.51-1.58-2.21-1.47-4.1.14-2.52-.18-3.62-1.22-4.27-1.18-.73-1.33-1.11-1.39-3.54-.07-2.45-.51-3.59-1.57-4.02-.63-.26-.84-.56-.96-1.35-.52-3.59-.76-4.4-1.43-5-.38-.35-.88-.63-1.11-.63-.48,0-.51-.51-.1-1.59.51-1.33.07-3.03-1.16-4.44-1.21-1.39-1.31-1.68-1.46-4.26-.1-1.7-.15-1.8-1.45-2.99-1.12-1.02-1.31-1.35-1.15-1.88.65-2.05.2-3.49-1.42-4.55-.55-.36-.68-.62-.55-1.13.09-.36.05-.73-.09-.82-.15-.09-.08-.51.15-.98.37-.75.36-.93-.18-2.11-.37-.82-.94-1.5-1.55-1.86-.89-.52-1.1-.92-.98-1.84.03-.19-.09-.35-.25-.35s-.29-.14-.29-.31.19-.24.42-.15c.23.09.42.03.42-.14,0-.53-1.43-3.17-1.84-3.41-.59-.33-1.49-2.35-1.33-2.97.26-1.01-.45-2.44-1.62-3.25-.8-.55-1.06-.91-.92-1.22.64-1.48.4-2.33-1.22-4.33-.57-.7-.63-1-.48-2.24.19-1.57-.31-3.21-1.19-3.86-.84-.62-1.22-1.84-1.02-3.29.19-1.41-.11-2.3-1.05-3.12-.29-.25-.51-.59-.51-.76s-.18-.24-.4-.15c-.23.09-.53-.1-.71-.42-.24-.45-.21-.73.14-1.27.38-.57.4-.86.13-1.67-.18-.53-.56-1.27-.86-1.65-.29-.37-.61-1.17-.7-1.77-.14-.89-.07-1.19.41-1.62.32-.29.58-.68.58-.87s.2-.5.44-.71c.24-.2.63-.73.86-1.18.4-.76.37-.99-.34-3.24-.42-1.33-.8-3.08-.83-3.89-.07-1.45-.06-1.48,1.14-2.31.67-.46,1.45-.83,1.75-.83,1.46,0,3.47,1.17,5.04,2.94,2.01,2.25,7.18,7.21,8.24,7.88.65.42,1.44.97,1.74,1.23,1.38,1.17,6.63,2.77,11.43,3.47.44.06,1.01.18,1.26.26,1.75.52,17.56.65,19.9.16.85-.17,3.64-.38,6.21-.45,5.14-.15,7.19.17,9.31,1.44,2.29,1.37,4.33,3.78,4.33,5.12,0,.93,1.07,3.52,1.95,4.74.55.76,1.41,1.42,2.64,2.03,1.61.79,2.02.88,3.3.73,1.8-.21,5.29-1.89,5.92-2.84.5-.77,1.25-.88,2.64-.4.7.25.94.55,1.19,1.47.17.64.49,1.5.7,1.91.33.64.33.86,0,1.54-1.41,2.81-1.61,3.92-1.15,6.37.36,1.88,1.05,3.2,2.34,4.43.76.72.81.88.58,1.89-.39,1.72.08,3.1,1.65,4.93.77.9,1.48,1.91,1.59,2.26.11.35.3.63.44.63s.32.25.42.56c.14.45.28.5.71.27.3-.16.54-.58.54-.95s.46-1.33,1.01-2.16c1.33-1.97,2.07-3.45,2.07-4.12,0-.3-.24-1.1-.52-1.77l-.52-1.22.68-.83c1.1-1.35,1.83-2.95,2.19-4.79.28-1.49.26-1.91-.15-2.99-.26-.69-.76-1.65-1.11-2.13-.53-.75-.58-1-.31-1.59.29-.64.42-.68,1.5-.51,1.84.31,2.66.87,3.39,2.31.83,1.64,1.33,2.1,3.1,2.86,2.81,1.21,6.32.96,8.12-.57.31-.26,1.13-.79,1.82-1.18,1.13-.63,1.64-.72,5.03-.83,3.59-.12,3.87-.09,5.9.65,2.96,1.08,7.76,3.3,8.83,4.08.49.36,1.01.65,1.15.65s1.63.92,3.3,2.06c2.52,1.7,10.84,6.61,11.19,6.61.05,0,1.2.5,2.55,1.1,2.96,1.33,6.8,2.48,9.41,2.81,1.55.2,2.43.14,4.47-.31,3.82-.82,5.04-1.28,8.56-3.21,3.27-1.79,4.85-2.34,6.85-2.34,1.4,0,1.77.23,2.08,1.31.21.72.15.96-.37,1.45-.34.32-.94.58-1.33.58-.89,0-3.49,2.65-3.73,3.81-.1.44-.22,1.04-.28,1.34-.06.29.06,1.27.27,2.17.21.9.38,1.67.38,1.7,0,.04.13.38.28.76.25.62.83,1.2,2.34,2.3.45.33.43.46-.25,2.03-.84,1.94-1.12,3.63-.69,4.15.3.36-.41,2.24-1.23,3.26-.18.23-.41.86-.51,1.4-.41,2.27-1.71,6.05-2.21,6.45-.61.5-1.4,3.04-1.35,4.29.05,1.14-.45,2.52-1.15,3.14-.91.81-1.9,3.17-1.9,4.54,0,.92-.26,1.65-1.05,2.94-1.53,2.49-1.75,3.13-1.57,4.47.15,1.09.08,1.28-.87,2.29-1.33,1.41-1.65,2.07-2.19,4.41-.37,1.66-.61,2.09-1.86,3.36-1.51,1.53-2.06,2.83-1.95,4.63.09,1.62-.27,2.49-1.32,3.1-1.14.67-1.77,2.02-1.77,3.75s-.57,2.9-1.62,3.55c-1.24.76-2.12,2.59-1.93,4.03.18,1.38-.15,2.05-1.69,3.37-1.53,1.31-2.7,3.66-2.46,4.94.21,1.12-.28,2.2-1.38,3.06-.41.33-1.13,1.39-1.58,2.35-.66,1.41-.8,1.98-.65,2.86.21,1.32-.46,2.86-1.24,2.86-1.08,0-2.59,2.8-2.73,5.04-.1,1.66-.97,3.63-1.62,3.63-.38,0-1.74,1.39-2.64,2.7-.66.97-.81,2.85-.26,3.4.26.26.03.34-1.05.35-.76,0-1.66.16-2,.35-.91.5-2.53,2.5-3.16,3.89-1.13,2.49-.45,6.89,1.29,8.37.68.58,2.2,1.09,3.25,1.09.45,0,1.16.23,1.57.52,1.41.99,9.72,4.79,10.46,4.79.21,0,1,.3,1.76.67.76.37,2.33.95,3.48,1.28,1.15.33,2.69.79,3.41,1.01.72.22,1.69.4,2.16.4s1.5.25,2.28.54c2.85,1.08,13.01,2.81,16.76,2.85,1.31.01,3.2.13,4.19.25,2.77.35,13.24.06,15.5-.42,1.06-.23,2.38-.43,2.94-.45.56-.02,1.32-.13,1.71-.25.76-.24,3.69-.76,5.45-.97,1.26-.15,2.37-.41,6.57-1.56,1.62-.44,3.76-1,4.75-1.24,2.03-.5,5.56-1.82,7.69-2.89.77-.39,1.79-.68,2.27-.65.67.04.91-.08,1.02-.51.12-.47.38-.57,1.5-.57,3.06,0,4.78-1.14,6.22-4.09.8-1.63.91-2.1.77-3.27-.16-1.37-1.14-3.39-2.25-4.63ZM64.87,70.05c.4-.09,1.08-.27,1.51-.41.68-.22.91-.14,1.61.56.81.81,1.03,1.52.57,1.81-.13.08-.38-.16-.55-.54-.49-1.08-1.2-.9-1.12.29.1,1.44-.41,1.79-1.45,1.02-1-.74-1.39-.59-1.39.53s-.5,1.02-.72-.2c-.25-1.33.52-2.84,1.54-3.06ZM61.1,74.13c.22,0,.81.38,1.32.85,1.17,1.07,2.6,1.48,3.88,1.1,1.19-.34,1.73.21,1.61,1.67-.1,1.16-.48,1.33-1.11.5-.37-.5-.53-.55-.82-.27-.54.52-1.8.42-3.11-.24-.91-.47-1.27-.52-1.66-.28-.4.25-.56.21-.79-.23-.59-1.11-.16-3.09.68-3.09ZM67.26,83.37c-.25.4-.69.32-.69-.12,0-.21-.08-.81-.17-1.33l-.17-.94.6,1.06c.33.59.52,1.18.43,1.33ZM65.04,109.37c.26,0,.4.3.4.84,0,.97-.7,1.17-.98.28-.21-.66.02-1.12.58-1.12ZM64.66,104.27c.05-.35.28-.63.51-.63s.46.28.51.63c.07.48-.05.63-.51.63s-.58-.15-.51-.63ZM65.41,116.43c-.19.35-.3.69-.27.76.04.07-.05.17-.21.22-.34.11-.71-.94-.46-1.33.1-.16.42-.28.73-.28.49,0,.51.08.21.63ZM63.91,98.46c-.2-.33.06-.84.44-.84.15,0,.26.25.26.56,0,.59-.41.76-.7.28ZM64.56,92.1c-.06.6-.26.94-.58,1-.39.08-.49-.1-.49-.91s.1-1,.58-1,.57.15.49.91ZM63.56,87.64c-.56-.2-.41-.64.21-.64.31,0,.56.12.56.26,0,.36-.35.52-.77.37ZM61.51,80.91c0,.42-.18,1.27-.43,1.89-.25.62-.56,1.12-.7,1.12-.36,0-.31-.63.12-1.57.21-.45.52-1.12.68-1.51l.31-.7.02.76ZM59.87,72.58c.55-.34.63.15.12.71-.28.31-.62.56-.76.56-.29,0,.21-1.01.63-1.27ZM58.57,78.41c-.1-.49-.05-.93.12-1.04.18-.11.37.23.49.83.1.56.36,1.07.57,1.16.21.08.38.32.38.54,0,1.05-1.31-.19-1.56-1.48ZM59.92,86.39c.23.23.22.5-.01,1.01-.49,1.08-1.17.89-1.17-.33,0-.74.71-1.16,1.18-.69ZM58.19,92.03c.57,0,.66.22.37.96-.21.56-.91.58-1.12.04-.22-.57.1-.99.75-.99ZM55.52,98.34c.15,0,.32.3.36.68.04.38-.1.95-.33,1.26-.4.54-.42.54-.62.04-.23-.6.17-1.94.58-1.98ZM52.27,105.11c.01-.11.17-.21.34-.21.2,0,.24.28.12.77-.42,1.69-.74,1.3-.46-.56ZM49.47,111.78c.47-.29.62.31.28,1.07-.33.72-.65.91-.89.51-.16-.28.26-1.37.62-1.58ZM47.1,117.99c.1.17.03.56-.16.88-.36.56-.79.77-.77.36.03-.54.76-1.52.94-1.24ZM44.05,124.19c.41,0,.7.16.7.39,0,.63-.68,1.06-1.07.67-.55-.55-.37-1.06.37-1.06ZM41.27,131c.63-.24.78.05.49.92-.37,1.11-.92,1.18-.92.12,0-.53.17-.94.43-1.04ZM38.92,137.06c.52,0,.54.8.05,1.83-.59,1.23-1.21,1.58-1.21.68,0-.76.81-2.51,1.16-2.51ZM35.78,145.28c.23.28.24.46.04.58-.16.1-.37-.02-.47-.26-.23-.61.03-.81.43-.32ZM32.38,150.77c.11,0,.37.11.58.24.31.2.3.39-.08,1.12-.51.99-1.28,1.17-1.28.3,0-.65.47-1.66.78-1.66ZM29.29,158.45c.96-1.41,1.22-.71.36.96-.32.63-.7,1.14-.86,1.14-.5,0-.28-.98.49-2.1ZM25.91,166.08c.22-1.41.3-1.53.7-1.12.19.19.24.7.12,1.31-.11.61-.35,1-.6,1-.32,0-.37-.25-.23-1.19ZM23.38,172.63c.74.14.81.94.13,1.61-.78.79-1.14.72-1.13-.19,0-1.03.37-1.54,1.01-1.42ZM21.54,180.17c0-1.03,1.18-3.23,2.5-4.66,1.3-1.41,1.56-2.19,1.31-3.98-.17-1.26-.15-1.33,1.19-2.7,1.55-1.6,2.07-2.83,1.82-4.34-.13-.84-.04-1.18.45-1.72,1.22-1.33,2.24-2.85,2.24-3.35,0-.28.14-.59.31-.7.2-.12.25-.67.14-1.53-.15-1.17-.1-1.4.46-1.85,1.64-1.33,3-3.79,2.8-5.08-.12-.82.02-1.09,1.18-2.28,1.04-1.06,1.38-1.64,1.58-2.7.14-.75.19-1.67.11-2.06-.11-.55.12-.95,1.12-1.95,1.43-1.42,1.96-2.86,1.71-4.68-.15-1.11-.11-1.22.7-1.64,1.29-.66,2.33-3.1,2.09-4.9-.11-.85-.08-1.37.1-1.37,1,0,3.23-4.09,2.98-5.44-.13-.68-.04-1.02.38-1.39.9-.81,1.99-3.17,1.93-4.15-.08-1.28.23-2.03.98-2.37.96-.43,1.93-2.7,1.91-4.47,0-1.27.09-1.55.78-2.13,1.2-1.01,1.96-2.73,1.96-4.44,0-1.42.05-1.5,1.02-2.04,1.68-.91,2.18-1.82,2.1-3.86-.06-1.72-.04-1.79,1-2.72.61-.56,1.22-1.46,1.45-2.16.35-1.07.34-1.31-.09-2.2-.46-.97-.46-1.02.1-1.41.31-.22.77-.78,1.01-1.25l.44-.84.68.73c.8.87.84,1.27.24,2.44-.6,1.17-.32,3.01.6,3.87.65.62.67.67.21,1.17-.31.35-.52,1.16-.59,2.35-.1,1.52-.02,1.96.46,2.6.48.65.53.95.32,1.86-.36,1.55-.32,3.49.1,4.31.29.57.28.9-.05,1.83-.48,1.33-.3,2.29.65,3.42l.69.81-.67.99c-1.36,2-1.27,3.48.25,4.21l.96.46-.4,1.32c-.57,1.9-.5,2.49.42,3.55.8.91.81.97.43,2.04-.58,1.63-.51,3.37.19,4.61.57,1.01.58,1.11.14,1.77-.58.89-.58,1.65,0,3.15.42,1.1.42,1.27,0,2.15-.61,1.29-.57,2.93.12,4.68.54,1.36.55,1.53.14,2.72-.57,1.67-.56,1.82.29,2.83.72.85.72.87.28,2.17-.66,1.93-.58,3.02.26,3.68.81.63.87.96.28,1.45-.77.64-.43,3.62.48,4.22.15.1.08,1.34-.17,3.04-.42,2.81-.31,3.92.4,3.92.41,0,.32.78-.18,1.55-.66,1.01-.43,4.07.37,4.94.54.58.58.86.44,3.24-.14,2.4-.1,2.65.46,3.25l.62.66-.57.94c-.38.63-.58,1.42-.58,2.38,0,1.32.09,1.52,1.12,2.44,1.31,1.18,1.37,1.47.42,1.9-.51.23-.7.54-.7,1.11v.8h-2.03c-1.12.02-3.01.05-4.22.08-1.21.03-2.22.03-2.25,0-.03-.03-9.08-.1-20.11-.14-19.1-.08-20.06-.1-20.06-.58,0-.7-.75-2.08-1.28-2.38-.4-.22-.38-.36.12-1.34,1.39-2.68,2-4.15,2-4.83ZM67.02,140.78c-.36-.36-.18-1.76.23-1.76.35,0,.99.79.99,1.23,0,.26-1.04.71-1.22.53ZM68.25,145.74c0,.31-.19.55-.42.55s-.42-.17-.42-.39.19-.46.42-.55c.28-.11.42.01.42.39ZM66.92,128.2c-.56-.22-.4-.93.21-.93.37,0,.56.19.56.56,0,.56-.14.63-.77.37ZM66.44,122.34c-.3.11-.43,0-.43-.41,0-.58.58-.62.76-.05.05.16-.1.37-.33.46ZM68.81,156.92c.32.2.34.32.07.59-.26.27-.38.24-.52-.14-.23-.61-.07-.77.45-.45ZM68.53,150.9c.17-.1.38-.13.46-.05.08.08.1.36.05.63-.09.44-.13.44-.46.05-.26-.31-.28-.49-.05-.63ZM69.29,163.26c-.12.49-.13.49-.34,0-.22-.51,0-.99.29-.69.09.09.11.4.05.68ZM69.64,169.78c0,.56-.3.73-.65.37-.34-.34-.2-.93.23-.93.23,0,.42.25.42.56ZM70.34,182.93c.23,0,.42.12.42.28s-.19.28-.42.28-.42-.13-.42-.28.19-.28.42-.28ZM69.92,176.9c0-.59.11-.92.28-.82.15.09.28.54.28.99s-.12.82-.28.82-.28-.45-.28-1ZM71.11,192.79c.66.22.52.98-.35,1.92-.47.52-1.06,1.61-1.29,2.43l-.43,1.48h-1.45c-.79,0-3.58.05-6.2.1-4.41.1-9.27-.2-15.35-.93-1.37-.16-2.55-.36-2.63-.45-.21-.21.91-.17,3.16.12,1.08.14,4.6.34,7.83.44,5.01.15,5.96.12,6.44-.24.46-.35.48-.45.14-.57-.23-.08-3.5-.28-7.27-.44-3.77-.16-7.2-.34-7.62-.39-.42-.05-1.11-.11-1.52-.14-1.73-.11-.21-.35,3.14-.49,1.98-.09,3.67-.21,3.77-.26.1-.06.62.03,1.16.2.77.24,1.39.2,2.84-.16,1.49-.37,2.61-.43,5.7-.29,2.24.1,4.33.06,4.97-.1l1.12-.27-1.12-.07c-.61-.04-1.5-.09-1.96-.11-.46-.03-1.08-.18-1.37-.35-.4-.22.5-.34,3.7-.5,3.47-.17,4.23-.28,4.23-.62,0-.23.16-.36.35-.3ZM71.74,188.8c.78,0,.94.41.26.67-.55.21-.54.21-.77-.02-.38-.38-.16-.65.51-.65ZM29.51,191.43c-3.69.05-7.27.19-7.95.31-1.11.2-1.22.17-1.05-.26.1-.26.19-.54.19-.6,0-.27,18.71-.1,18.88.16.11.17-.49.28-1.59.29-.97,0-4.78.05-8.48.1ZM31.33,195.52c0,.15-.19.28-.42.28s-.42-.13-.42-.28.19-.28.42-.28.42.13.42.28ZM42.09,193.81c2.15,0,4.36.13,4.89.27.69.18-.7.26-4.67.29-3.5.01-5.71-.08-5.82-.26-.19-.31.02-.32,5.59-.3ZM58.91,191.4s-3.51-.08-7.74-.1c-8.25-.05-12.13-.33-7.96-.57,1.23-.07,7.68-.12,14.34-.1,10.83.03,12.16.09,12.57.5.43.43.05.46-5.34.4-3.2-.04-5.83-.09-5.87-.12ZM61.68,194.1c-.1.16-1.07.29-2.17.29-2.52,0-2.29-.31.35-.46,1.33-.08,1.93-.02,1.82.17ZM55.52,194.42c-.61.24-1.54.24-4.47,0l-1.96-.16,1.95-.16c2.46-.2,5.29,0,4.48.32ZM17.88,181.3c.38-1.39.7-1.63,1.58-1.16.78.42.83.82.25,1.96-.42.82-1.06,1.03-1.76.58-.3-.19-.31-.47-.06-1.38ZM18.74,187.4c0,.15-.05.28-.12.28s-.2-.12-.3-.28c-.1-.16-.04-.28.12-.28s.3.13.3.28ZM17.36,184.63c.8-.96,1.31-.4.7.78-.45.86-.73,1.04-1.09.68-.31-.31-.2-.76.39-1.47ZM17.17,188.46c.62-.06.88.05.96.39.07.37-.34.6-1.87,1.06-1.08.32-2.33.9-2.79,1.27-.45.38-.88.69-.96.69-.32,0-.48-.98-.31-1.93.19-1.06,1.87-3.39,2.44-3.39.18,0,.63.45,1,.99.56.82.82.97,1.53.91ZM17.49,191.02c-.1.17-.4.29-.66.29-.41,0-.41-.06.07-.41.57-.44.9-.37.59.12ZM12.8,195.72c-.7-.18-1.21-.53-1.53-1.07-.26-.45-.56-.81-.66-.81s-.4-.49-.66-1.09c-.35-.77-.41-1.23-.22-1.61.15-.29.35-.99.46-1.56.36-1.97,1.47-3.51,3.17-4.38,1.37-.7,2.31-.77,2.31-.17,0,.27-.27.42-.78.42-.55,0-1.1.34-1.9,1.19-1.43,1.51-1.79,2.37-1.79,4.3,0,1.82.27,2.39,1.77,3.8.62.58,1.07,1.09,1.01,1.15-.06.05-.59-.02-1.17-.16ZM30.33,202.76c-.62.01-1.38-.16-1.68-.39-.68-.52-.35-.52,1.42-.03l1.4.39-1.13.03ZM33.88,201.95c-.15,0-.36-.13-.46-.28-.09-.16-.05-.28.11-.28s.36.12.45.28c.1.15.05.28-.1.28ZM29.93,198.16c-4.97-.69-14.29-3.31-15.59-4.38-.55-.45-.42-1.27.27-1.75.84-.59,1.06-.55,1.06.2,0,1.45,3.73,3.02,9.51,3.98,1.46.24,3.29.55,4.06.7,7.75,1.42,7.69,1.41,22.23,2.83,6.51.63,22.63.19,23.7-.65.46-.37.75.4.51,1.36-.17.66-.23.69-.66.31-.39-.33-.88-.37-2.58-.19-2.99.32-11.41.44-14.54.2-4.62-.36-9.75-.74-15.66-1.18-3.15-.24-6.49-.55-7.41-.71-.92-.15-3.13-.47-4.9-.72ZM87.01,197.23c-.37-.1-1.82-.08-3.22.06-1.9.19-2.67.38-3.04.77-.85.89-2.16.51-2.16-.62,0-.26-.37-1.18-.82-2.04-.46-.86-.74-1.58-.63-1.6,1.04-.19,1.99-.05,2.59.38.55.4,1.38.55,3.64.65,2.75.13,5.79.53,6.07.8.07.07-1.84.1-4.22.08-3.91-.05-5.04.08-4.62.5.08.08,2.27.17,4.87.22,4.69.08,6.46.41,5.79,1.08-.29.29-5.32.41-5.59.13-.09-.09.33-.18.93-.19.88-.02.96-.07.42-.22ZM75.22,194.67c.42,0,1.65,1.44,1.94,2.26.14.4.15.91.02,1.12-.17.27-.39.03-.77-.87-.3-.69-.74-1.43-.99-1.63-.51-.42-.6-.87-.19-.87ZM75.24,197.63c0,.46-.44.54-.7.12-.23-.37.1-.89.44-.69.14.09.26.34.26.56ZM77.19,199.43c.15,0,.28.16.27.35,0,.19-.12.54-.27.77-.21.32-.27.25-.28-.35,0-.42.12-.77.28-.77ZM81.62,193.37c.21-.08.45-.07.54.02.09.1-.07.16-.37.15-.32-.01-.39-.08-.17-.17ZM87.68,192.47c-3.85-.45-4.91-.54-7.97-.72-3.85-.22-5.59-.46-5.59-.78,0-.19.88-.21,2.59-.07,1.43.12,3.09.25,3.71.28,6.71.37,10.74.77,14.27,1.39,1.23.22,2.8.46,3.5.55,2.07.25,3.08.49,3.08.75,0,.14-.03.24-.07.22-.07-.03-8.83-1.08-13.49-1.62ZM75.24,201.89c0,.07-.27.36-.6.65-.33.29-.74.52-.91.51-.61-.04-1.64-.56-1.46-.74.21-.21,2.97-.6,2.97-.41ZM41.11,201.03c-.69,0-.97-.05-.63-.12.35-.07.91-.07,1.26,0,.35.07.06.12-.63.12ZM36.74,202.55c-.42.12-1.5-.35-1.5-.64,0-.16.33-.22.77-.13.42.09,1.84.29,3.15.45,1.31.16,3,.38,3.77.5,1.57.24,4.25.23,4.51-.02.32-.32-.21-.76-.96-.77-.41,0-1.51-.19-2.43-.41l-1.68-.4,2.66.13c1.46.07,3.98.26,5.59.41,6.19.59,11.18.81,14.69.64l3.63-.17.02,1.51c0,.86.23,1.91.51,2.44.27.51.4,1.02.3,1.12-.32.32-9.1.2-10.73-.15-.87-.18-3.83-.6-6.61-.91-2.77-.32-5.73-.72-6.57-.9-1.31-.27-1.43-.35-.84-.51.39-.11,1.58-.14,2.66-.06,4.18.29.41-.8-4.2-1.21-1.07-.1-2.98-.36-4.23-.58-1.25-.22-2.38-.38-2.52-.34ZM70.31,209.04c-3.31.09-7.17-.13-11.44-.65-1.23-.15-3.81-.39-5.73-.54-1.92-.15-3.81-.35-4.2-.44-.39-.1-1.27-.22-1.96-.27-1.59-.11-7.51-1.25-8.24-1.59-.74-.34.82-.15,5.87.71,6.39,1.09,7.98,1.25,10.63,1.11,2.42-.13,4.58.19,5.38.8.19.15,3.25.34,6.79.42,3.55.09,6.4.2,6.34.26-.06.05-1.6.15-3.43.2ZM73.78,206.95c-.56-.35-.1-1.22.62-1.17,3.41.23,5.59.48,5.59.64,0,.25-5.85.76-6.21.54ZM80.97,207.94c-.92.21-2.69.49-3.94.62-1.97.21-2.24.18-2.15-.19.09-.33.57-.44,1.99-.48,1.03-.03,2.75-.11,3.83-.19l1.96-.15-1.68.38ZM87.82,204.18c-.38.12-.95.22-1.26.22-.44,0-.41-.05.14-.22.38-.12.95-.22,1.26-.22.45,0,.41.05-.14.22ZM89.78,202.45c-.6.37-5.85.99-8.67,1.01-1.92.02-2.38.1-2.38.44,0,.31.34.43,1.26.45,3.42.09,3.74.12,3.48.36-.28.26-4.63.51-6.21.36l-.91-.09.76-1.03c.41-.56.78-1.07.82-1.12.03-.05,1.93-.13,4.21-.18,2.29-.05,5.03-.17,6.11-.27,1.26-.12,1.81-.1,1.54.07ZM94.23,203.06c-.25.15-1,.33-1.68.41l-1.23.15.98-.4c1.14-.47,2.67-.6,1.93-.17ZM104.32,197.63c-.84.11-1.83.31-2.18.44-.36.13-2.05.43-3.78.66-1.72.23-3.45.47-3.83.54-1.37.24-5.49.72-7.41.87-1.08.08-2.84.24-3.91.35-2.3.24-4.34.13-4.34-.22,0-.14.41-.31.91-.38,1.27-.19,8.14-.78,10-.86,2.27-.1,7.37-.67,9.93-1.12,1.23-.22,2.88-.47,3.67-.57.79-.1,1.84-.43,2.34-.73.91-.55.95-.75.42-2.03-.2-.47-.12-.5.73-.31,1.09.24,2.23.99,2.12,1.39-.14.52-3.1,1.77-4.66,1.98ZM102.79,192.72c.16-.9,1.62-2.8,2.14-2.8.43,0,.22.86-.4,1.71-.49.65-.63,1.23-.63,2.51,0,.91-.09,1.65-.21,1.65-.46,0-1.08-2.12-.91-3.08ZM109.41,190.56c.94.78,1.35,1.83,1.34,3.51,0,.72-.13,1.5-.28,1.73-.19.3-.27,0-.27-1.06,0-1.75-.47-2.75-1.66-3.63-.48-.35-.86-.76-.86-.91,0-.47.95-.27,1.73.37ZM109.08,193.17c0,.36-.1.66-.21.65-.2-.02-1.89-.61-2.87-.99-.26-.1.09-.32.93-.57,1.54-.46,2.14-.21,2.14.92ZM105.33,185.24c.67-.59.67-.59.97-.03.17.31.23.74.15.96-.19.5-1.46.52-1.65.04-.08-.2.16-.63.53-.96ZM103.03,177.61c.35,0,.74,1.13.74,2.13,0,.65-.56.43-.85-.33-.39-1.02-.34-1.8.11-1.8ZM100.3,171.48c.26-.26.95.89.95,1.58,0,.35-.12.65-.27.65-.31,0-.91-1.98-.68-2.22ZM97.71,163.35c.6,0,1.02.87,1.02,2.08,0,.68-.13,1-.4,1-.53,0-.62-.19-.86-1.75-.16-1.11-.12-1.33.24-1.33ZM95.23,156.64c.23,0,.5.31.59.69.28,1.1,0,1.46-.53.7-.58-.83-.6-1.39-.06-1.39ZM92.94,149.92c.15.56-.41,1.27-.73.94-.1-.1-.19-.48-.19-.84,0-.79.71-.87.92-.1ZM90.22,142.88c.51.72.44,1.38-.09.85-.19-.19-.34-.6-.34-.91,0-.54.02-.54.44.06ZM87.93,135.83c.29.11.45.42.4.77-.12.83-.95.92-1.16.13-.2-.77.11-1.15.76-.9ZM82.76,123c.27-.27.43-.23.76.21.22.31.37.74.33.96-.14.71-.76.66-1.1-.1-.26-.57-.25-.81.01-1.07ZM79.74,115.96c.31-.33.73.06.86.8.05.29-.06.58-.26.65-.44.15-.95-1.08-.6-1.45ZM77.25,110.75c.05-.17.22-.3.36-.3s.31.13.36.3c.05.16-.11.3-.36.3s-.42-.14-.36-.3ZM73.56,99.86c.15,0,.28.13.28.28s-.12.28-.28.28-.28-.13-.28-.28.12-.28.28-.28ZM70.34,94.83c.25.21.71.86,1.01,1.46.47.92.51,1.21.22,2-.45,1.25-.19,2.06,1.06,3.35.97,1,1.07,1.24,1.22,3.15.14,1.72.29,2.2.9,2.83.46.48.79,1.2.88,1.92.21,1.68.65,2.67,1.57,3.51.7.64.82.96.82,2.15,0,1.78.4,2.75,1.61,3.82.87.78.98,1.06,1.2,2.99.24,2.15.78,3.62,1.49,4.04.65.38,1.3,1.96,1.3,3.16,0,.66.26,1.63.63,2.29.35.63.84,1.54,1.11,2.02.26.48.48,1.41.49,2.08.02,1.39.63,2.75,1.59,3.55.55.46.7.89.8,2.38.16,2.29.77,4.29,1.63,5.31.49.58.71,1.29.86,2.68.22,2.18.71,3.15,1.91,3.84.76.44.83.6.69,1.47-.19,1.18.41,3.33,1.29,4.63.86,1.27,1.56,3.48,1.54,4.87-.02,1.17.68,3.21,1.1,3.21.13,0,.52.26.85.57.5.47.61.88.61,2.24,0,1.99.72,4.04,1.79,5.12.7.7.76.91.6,2.01-.14.94-.04,1.56.42,2.64.34.78.78,1.42.99,1.42.6,0,1.31,1.28,1.08,1.98-.36,1.15-.16,2.63.55,4.03.86,1.68.87,1.82.16,1.82-.54,0-2.79,2.05-2.79,2.55,0,.36-1.38.26-5.04-.34-1.77-.29-4.35-.65-5.73-.8-6.69-.7-8.32-.84-10.91-.97-1.54-.08-3.05-.2-3.36-.27-.31-.07-.97-.14-1.47-.15-.68-.02-.91-.15-.91-.52,0-.27-.4-.85-.88-1.27-.84-.73-.88-.86-.82-2.63.05-1.34-.11-2.31-.56-3.52-.55-1.47-.58-1.82-.3-2.9.46-1.72.41-3.21-.13-3.99-.36-.51-.47-1.36-.49-3.67-.02-2.57-.1-3.1-.57-3.61-.43-.48-.48-.71-.24-1.1.17-.27.4-1.33.51-2.35.16-1.56.11-2.03-.35-2.91-.48-.92-.5-1.17-.19-1.89.59-1.36.49-3.4-.19-4.08-.56-.56-.56-.63-.14-1.69.6-1.49.55-2.94-.11-4.02-.45-.73-.5-1.07-.28-1.85.4-1.39.33-3.15-.14-3.77-.23-.3-.41-.8-.41-1.1s.19-.81.41-1.1c.55-.74.51-1.17-.27-2.86-.62-1.33-.64-1.53-.29-2.52.61-1.69.51-3.01-.28-3.94-.57-.68-.62-.88-.31-1.21.38-.41,1-2.61,1-3.56,0-.3-.29-.84-.65-1.2-.79-.81-1.1-1.57-.74-1.8.4-.24.31-3.52-.11-4.28-.27-.48-.29-.92-.09-1.69.36-1.37.05-2.9-.8-3.91-.78-.93-.88-1.77-.27-2.28.55-.46.55-2.58,0-3.65-.39-.75-.38-.91.03-1.71.25-.49.47-1.5.5-2.26.04-1.12-.07-1.47-.59-1.89-.35-.28-.78-.56-.96-.62-.24-.08-.2-.43.15-1.28.65-1.63.6-3.25-.13-4.24l-.6-.81.6-1.27c.86-1.83.8-3.32-.16-4.08l-.76-.6.59-.47c.63-.51,1.2-1.93,1.24-3.1l.02-.73.21.7c.33,1.09,1.4,3.07,1.66,3.07.4,0,.88,1.39.88,2.54s.51,2.43,1.26,3.06ZM69.25,87.16c-.19.49-.71.52-.85.05-.36-1.17-.36-1.61,0-1.61.49,0,1.06,1.03.85,1.56ZM69.72,67.42c-.7,1.06-1.19,1.42-1.19.86,0-.35,1.39-1.98,1.69-1.98.13,0-.09.51-.5,1.12ZM142.92,83.87c0-.4,1.88-1.16,2.37-.97.6.23.36.6-.74,1.14-1.14.57-1.63.52-1.63-.17ZM141.52,82.4c0-.06.39-.4.86-.73.58-.41.95-.52,1.14-.33.19.19.07.43-.36.74-.59.41-1.64.62-1.64.33ZM152.36,92.76c-.5.75-1.41,1.64-2.03,1.98-1.31.74-2.55.78-4.44.15-2.26-.76-2.87-2.36-1.99-5.29.5-1.7,1.03-2.22,2.61-2.57.66-.15,1.43-.47,1.69-.71.27-.25.63-.45.81-.45.62,0,.57-.49-.23-2.11-.89-1.82-1.22-2.23-3.09-3.92-1.28-1.16-3.51-2.15-6.91-3.07-1.47-.4-2.56-.45-6.99-.31-5.03.16-11.73.96-12.83,1.52-.29.15-1.4.43-2.48.62-1.07.19-2.46.5-3.08.71-.61.2-1.87.44-2.8.55-.92.1-2.18.25-2.8.33-.61.08-2.09.17-3.28.21-1.18.04-2.25.16-2.37.28-.96.96,5.55,1.21,10.26.39,6.68-1.16,17.91-1.3,21.26-.28,4.78,1.47,5.94,1.98,7.04,3.17,1.57,1.68,2.01,2.62,1.57,3.33-.2.31-.56.57-.81.57-.42,0-1.93-1.92-1.93-2.46,0-.82-4.08-2.67-7.27-3.3-1.35-.27-6.19-.2-11.26.15-8.28.57-20.71.38-23.98-.36-1-.23-2.51-.56-3.36-.74-4.16-.89-7.22-3.12-13.22-9.62-2.07-2.24-2.32-2.46-3.96-3.54-1.41-.93-1.89-1.1-3.15-1.1-.82,0-1.48-.12-1.48-.28s-.26-.28-.59-.28c-.5,0-.54-.06-.23-.43.69-.84,1.27-.96,3.1-.64,3.13.54,3.82,1.08,8.21,6.44,2.72,3.31,6.33,5.96,9.09,6.67,4.26,1.09,10.69,1.29,14.43.45,3.28-.74,6.52-1.3,7.49-1.3.51,0,1.54-.19,2.3-.41.76-.23,2.89-.76,4.73-1.18,3.02-.69,3.89-.77,8.67-.77,6.2,0,9.72.42,12.96,1.55,4.78,1.67,6.3,2.64,8.14,5.13,2.08,2.83,3.08,5.37,3.09,7.89,0,1.48-.13,1.91-.91,3.07ZM141.11,80.82c-.23.38-.62.38-.85.02-.1-.15.03-.36.28-.46.53-.21.83.02.57.44ZM138.88,79.99c-.23.37-.62.38-.85.01-.1-.16.03-.36.27-.45.54-.21.83.02.58.44ZM136.76,79.31c0,.27-.28.41-.82.41-.91,0-1.36-.45-.91-.9.4-.4,1.73-.03,1.73.48ZM133.34,78.53c.07.22-.15.35-.6.35-.47,0-.72-.16-.72-.44,0-.53,1.15-.45,1.33.09ZM157.4,90.78c-.36,2.13-.55,2.47-1.26,2.19-.26-.11-.25-.32.07-.94.23-.44.42-1.34.42-2.01,0-1.41.38-2.19.83-1.74.22.22.2.92-.06,2.5ZM171.63,35.81c.22-.22,1.23,1.15,1.06,1.43-.32.51-.9.22-1.05-.52-.08-.42-.08-.83,0-.91ZM171.48,39.97c.29-1.5.38-1.64.91-1.47.85.26.87.33.32.94-.28.31-.42.75-.33,1,.1.27-.11.73-.56,1.18-.59.58-.67.83-.44,1.22.35.55.17.82-.55.82-.36,0-.51.2-.51.69s-.4,1.01-1.42,1.82c-1.47,1.16-2.5,1.45-2.5.7,0-.24.35-.56.77-.72,1.09-.41,1.68-1,2.9-2.87.67-1.02,1.19-2.26,1.4-3.29ZM162.54,29.67c.41,0,.81.18.9.41.2.54-.39.54-1.1,0-.52-.4-.51-.41.2-.42ZM158.44,47.4c-4.01-1.66-6.29-5.72-5.45-9.67.19-.91.46-1.72.6-1.8.13-.08.43-.59.66-1.13.4-.95,1.92-3.1,2.51-3.52,1.22-.9,2.84-1.61,3.65-1.61,1.06,0,1.11.06.68.86-.18.34-.59.54-1.07.54s-1.04.27-1.42.67c-.35.37-.94.75-1.31.85-1.52.38-3.79,5.94-2.88,7.05.15.17.27.91.29,1.62.01.72.2,1.48.41,1.69.21.21.38.64.38.94,0,.76.73,1.44,1.55,1.44.38,0,.8.24.97.56.22.41.59.56,1.36.56.87,0,1.12.13,1.39.71.18.39.33.77.33.84,0,.3-1.1.05-2.65-.59ZM160.65,43.53c-.22.52-.56.95-.75.94-1.59-.08-3.05-1.93-3.23-4.08-.24-2.83.83-4.96,3.56-7.08,1.04-.81,1.51-.98,2.96-1.07,2.69-.17,4.3.92,5.64,3.86.9,1.97.77,3.69-.45,5.91-1.17,2.13-1.6,2.47-1.96,1.54-.38-1.01-1.54-1.68-2.91-1.68-1.54,0-2.38.48-2.87,1.65ZM163.91,53.43c.1.55,0,.72-.46.78-1.12.16-1.28-.51-.67-2.83l.56-2.14-.72-2.03c-.96-2.75-.68-3.84,1-3.85,1.19,0,1.41.48.78,1.69-.46.88-.56,1.66-.59,4.37-.02,1.82.02,3.62.09,4ZM165.64,112.68c-.8.11-.85,1.07-.07,1.31.53.17.81.98.33.98-.12,0-.46.16-.73.37-.44.32-.46.45-.13.97.32.52.31.67-.06,1.04-.39.39-.56.3-1.73-.94-1.32-1.41-1.83-2.79-1.47-3.94.17-.53.36-.58,2.27-.5,1.97.08,2.94.51,1.58.7ZM165.54,108.1c-.71.1-1.52.35-1.81.55-.44.32-.46.45-.15.83.32.38.31.45-.06.45-.24,0-.51-.11-.59-.25-.08-.13-.58-.32-1.1-.42-.52-.1-1.13-.39-1.37-.66-1.21-1.38-1.91-4.31-1.36-5.72.25-.66.4-.74,1.14-.6.96.19,1.06-.04.38-.79-.83-.92-.06-1.2,1.45-.53.76.33,1.91.59,2.69.59s1.37.12,1.37.27.31.35.7.45c.73.18.98.95.31.95-.21,0-.54.19-.72.41-.28.33-.2.54.4,1.1.91.84.59,1.12-1.29,1.07-1.57-.04-1.93.33-1.13,1.12.53.53.6.54,1.03.11.55-.55.41-.53,1.5-.15,1.52.53,1.13.88-1.39,1.22ZM168.09,89.3c.3.19.56.62.56.95,0,.36-.22.65-.56.75-.31.08-.56.27-.56.42s.25.34.56.42c.3.08.56.34.56.57s-.26.51-.56.61c-.65.21-.76.98-.14.98.23,0,.42.24.42.52,0,.36-.26.58-.84.69-1,.2-1.12.93-.21,1.29.55.22.5.26-.41.27-.56.01-1.11.15-1.2.3-.1.16-.41.28-.69.28s-.59.19-.67.42c-.09.23-.32.4-.52.38-.2-.03-.76-.1-1.26-.16-1.18-.15-2.5-1.72-2.74-3.27-.1-.63-.3-1.52-.44-1.98-.19-.6-.13-1.51.23-3.21.48-2.29.53-2.39,1.61-3,.82-.47,1.58-.63,2.84-.64,1.56,0,1.78.07,2.28.76.42.58.76.75,1.42.7,1-.08,1.23.63.31.92-.31.1-.56.3-.56.44s.25.41.56.61ZM167.58,80.77c.1-.68.6-.76.73-.12.05.22-.12.47-.37.57-.35.14-.43.03-.36-.45ZM168.67,78.7c-.37.97-1.03.96-1.22-.03-.22-1.09-1.12-2.14-2.33-2.72-1.24-.59-2-.61-3.15-.1-.87.38-.97.55-.88,1.41.03.32-.2.5-.71.56-1.02.12-1.13.62-.23,1.02.84.38.78.98-.1,1.12-.34.05-.61.15-.61.22,0,.41,1.3,1.79,1.69,1.79.25,0,.7.27,1,.6.29.33.94.77,1.45.99,1.07.45,1.63.25,3.07-1.12.79-.75.91-.79.91-.31-.01,1.04-.96,1.87-2.4,2.1-3.11.51-4.08.24-5.16-1.44-1.26-1.97-1.5-3.3-.96-5.38.24-.93.54-1.83.67-1.99.13-.17.31-.65.42-1.08.1-.43.48-1.43.85-2.23.59-1.3.85-2.16,1.84-6.08.26-1.02.66-4.95.62-6.15-.01-.38-.11-1.42-.22-2.31l-.2-1.61h.83c1.16,0,1.24.19.59,1.29-.53.89-.54,1-.12,1.46.57.62.57.88.03.88-.23,0-.42.19-.42.42s.19.42.42.42c.49,0,.56.86.12,1.31-.22.21-.2.46.05.87.27.43.28.66.03.96-.25.29-.22.58.1,1.2.39.75.38.85-.06,1.17-.45.33-.45.39-.03.86.28.31.39.75.3,1.12-.11.41-.01.67.29.79.63.25.56,1.16-.13,1.52-.76.41-.55.94.45,1.11.69.12,1.07.67.48.72-.65.04-1.47.49-1.47.81,0,.51.69.72,1.71.52.58-.11.94-.05,1.1.21.31.51.08.82-.61.82-.38,0-.53.15-.46.49.06.33.36.49.91.5.86.01,1.3.61.71.97-.5.3-.1,1.22.44,1.01.57-.22.77.4.43,1.32ZM164.4,80.02c-.1,1.79-.56,2.05-1.71.99-.93-.86-.95-1.54-.05-2.96,1.17-1.85,1.93-1,1.77,1.97ZM307.72,232.43c.38,0,.86.19,1.05.42.29.36.24.42-.35.42-.38,0-.86-.19-1.05-.42-.3-.36-.24-.42.35-.42ZM305.43,232.71c.16,0,.22.13.13.28-.1.15-.23.28-.3.28-.06,0-.12-.13-.12-.28s.14-.28.3-.28ZM304.42,234.71c.59.26.95.26,1.71,0,1.19-.43,1.45-.28,2.13,1.25.3.66.66,1.29.81,1.38.15.09.27.65.27,1.22,0,.68-.19,1.23-.52,1.53-.5.46-.53.41-.71-1.21-.16-1.39-.32-1.77-.95-2.2-.96-.67-2.44-1.17-3.46-1.17-.86,0-1.02-.31-.41-.81.3-.25.57-.24,1.13.02ZM302.2,228.8c.23,0,.42.19.42.42,0,.44-.33.55-.65.23-.32-.32-.21-.65.23-.65ZM303.13,233.64c.06.31-.1.46-.49.46-.32,0-.58.17-.58.38s-.25.69-.55,1.07c-.3.38-.62,1.03-.73,1.44-.2.8-.56,1.17-.78.81-.26-.41.85-3.15,1.61-4.01.8-.89,1.36-.95,1.51-.16ZM299.26,219.29c.38,0,.9.81.71,1.11-.22.36-.9.38-1.11.04-.19-.31.1-1.14.4-1.14ZM296.81,213.51c.59-.59,1.06-.25,1.06.76s-.28,1.04-.99.25c-.47-.52-.47-.61-.07-1.02ZM288.63,194.4c.15,0,.28.12.28.28s-.13.28-.28.28-.28-.13-.28-.28.13-.28.28-.28ZM280.41,174.61c.1.1.12.33.05.52-.1.28-.16.28-.34,0-.24-.38,0-.81.28-.52ZM272.3,154.19c.09.09.11.4.04.68-.11.49-.13.49-.34,0-.22-.51-.01-.99.3-.69ZM265.65,139.3c.13,0,.38.31.55.7.38.83.05.94-.44.14-.4-.65-.43-.84-.11-.84ZM264.84,141.65c1.24,1.39,1.98,2.95,1.98,4.17,0,.63.34,1.37,1.07,2.35,1.01,1.35,1.36,2.2,2.44,6.02.26.91.88,2.11,1.42,2.75.52.63.95,1.22.96,1.32,0,.1.04,1.06.07,2.14.06,2.1.58,3.18,1.81,3.75.53.25.63.51.63,1.69,0,1.59,1.47,4.94,2.27,5.2.48.15.75.88.97,2.63.19,1.52.4,2.04,1.24,2.99,1.03,1.18,1.78,3.49,1.54,4.74-.17.89-.05,1.13,1.26,2.64,1.26,1.46,1.45,1.83,1.51,3.03.07,1.36,1.28,3.95,1.84,3.95.5,0,1.17,1.73,1.01,2.57-.19.96.61,2.74,1.66,3.64.49.42.69.89.69,1.58,0,1.91.86,4.22,1.86,5.02.85.68.94.89.94,2.23,0,1.58.4,2.45,1.73,3.77.91.91.86.71.92,2.97.05,1.7.1,1.83,1.22,2.85,1.1,1.02,1.16,1.15,1.16,2.69,0,1.84.62,3.26,2.09,4.83.83.88.94,1.2,1.12,3.22.11,1.23.45,2.9.75,3.71l.55,1.48-.9,1.02c-.5.56-1.07,1.44-1.29,1.95-.39.94-.74,1.1-1.5.68-.23-.13-2.49-.39-5.03-.57-2.54-.19-4.99-.39-5.45-.45-.46-.05-2.98-.18-5.59-.26-2.61-.09-6.13-.25-7.82-.36l-3.06-.2-.22-1.05c-.12-.58-.52-1.52-.89-2.1-1.04-1.63-1.11-2.35-.31-3.44.38-.52.69-1.32.69-1.79,0-.91-.92-2.67-1.39-2.67-.15,0-.28-.58-.28-1.29,0-.95.17-1.5.66-2.08.37-.45.75-1.36.86-2.11.18-1.18.11-1.45-.62-2.49-.66-.95-.85-1.54-.96-3.17-.08-1.1-.05-2.01.07-2.01s.35-.57.52-1.26c.29-1.16.26-1.35-.41-2.41-.86-1.37-.98-3.05-.3-4.36.68-1.32.59-2.69-.24-3.67-.8-.95-.87-1.91-.28-3.61.34-.97.36-1.45.09-2.66-.18-.81-.5-1.72-.7-2.03-.48-.72-.47-2.68.02-3.64.46-.88.21-2.08-.67-3.28-.7-.94-.73-2.64-.08-4.01.46-.96.46-1.07-.02-2.32-.96-2.54-1.02-3.09-.4-4.13.67-1.15.5-2.69-.4-3.67-.59-.64-.66-1.28-.34-3.37.14-.89.06-1.38-.3-1.93-.9-1.37-1.02-2.35-.45-3.58.91-1.96.93-2.78.11-3.98-.79-1.15-.98-3.07-.51-5.19.19-.9.12-1.18-.51-2.01-.78-1.03-.98-2.52-.36-2.76.27-.11.35-.68.28-2.18-.11-2.49-.26-2.98-.94-3.2-.6-.19-.92-1.43-.74-2.89.17-1.35.5-1.53,1.44-.77.7.55.77.72.46,1.09-.64.77-.11,2.92,1.06,4.22ZM284.72,236.06c0-.39.88-.55,2.33-.41,4.78.43,11.25,1.08,11.31,1.13.04.03,0,.26-.1.52-.19.5-.56.6-.79.23-.13-.21-5.74-.88-7.02-.83-1.32.05-5.74-.43-5.74-.62ZM290.29,239.53c-.29.26-4.01.49-3.75.22.15-.15.59-.31.98-.34,1.05-.08,2.9,0,2.77.11ZM271.29,248.38c2.11-.09,3.69-2.43,3.66-5.42,0-.95.09-1.32.33-1.23.23.08.32.71.28,1.97-.06,2-.86,3.71-2.1,4.49-.92.57-1.67.72-2.31.46-.51-.22-.5-.24.14-.27ZM270.56,246.12c-.97-.37-.64-.65.89-.75,1.04-.07,1.24,0,1.24.43,0,.28-.15.66-.33.84-.41.41-1.07.44-1.07.05,0-.16-.33-.41-.74-.57ZM264.35,177.04c.06-.2.29-.42.49-.49.21-.07.31.04.25.25-.07.2-.29.42-.49.49-.21.07-.31-.03-.24-.24ZM264.3,170.34c0-.15.13-.28.28-.28s.28.12.28.28-.13.28-.28.28-.28-.12-.28-.28ZM264.96,184.19c.1-.26.18-.52.18-.59,0-.06.2-.11.44-.11.27,0,.41.19.35.49-.05.26-.33.53-.62.59-.4.07-.48-.02-.35-.37ZM266.54,191.6c.15.23.27.7.27,1.05,0,.87-.78.8-1.01-.09-.22-.88.33-1.6.74-.96ZM267.38,199.29c0,.65-.51.75-.82.16-.2-.36-.2-.61-.02-.72.38-.23.84.08.84.56ZM267.7,206.48c.38.6.27,1.55-.2,1.73-1.03.39-1.52.13-1.52-.81,0-.76,1.35-1.49,1.72-.92ZM268.77,217.03c0,.65-.13.86-.51.86-.76,0-.89-.24-.89-1.58,0-.88.11-1.22.41-1.22.54,0,.99.88.99,1.94ZM267.81,224.53c.84-.16,1.21.41.68,1.05-.44.53-1.37.54-1.57,0-.22-.57.05-.9.89-1.06ZM267.66,231.73c.15.1.28.36.28.58s-.13.4-.28.4-.28-.26-.28-.57.13-.5.28-.41ZM267.86,236.61c.11-.43.23-.48.53-.23.21.18.38.49.38.71s-.1.37-.21.36c-.6-.06-.83-.34-.71-.84ZM269.26,239.26c.1.09-.07.16-.36.15-.33-.01-.39-.08-.17-.17.2-.08.44-.07.53.02ZM268.9,240.18c.27-.36.44-.41.59-.18.12.2.61.27,1.26.19.98-.13,1.67.15,1.67.69,0,.12-.88.22-1.96.22-2.04,0-2.19-.09-1.56-.92ZM272.13,238.4c0-.34,1.2.6,1.83,1.44.41.53.67,1.12.59,1.33-.09.21-.15.23-.16.04-.01-.17-.53-.85-1.14-1.5-.61-.65-1.12-1.24-1.12-1.3ZM275.51,238.27c-.58-.46-.63-.6-.29-.8.26-.16.62-.11,1.01.14.33.22,1.24.48,2.02.58,1.72.23,1.95.77.8,1.87-1.08,1.02-1.63.97-2.28-.24-.3-.55-.86-1.25-1.24-1.55ZM277.1,235.6c.19-.08.5-.08.7,0,.19.08.03.14-.35.14s-.54-.06-.35-.14ZM278.79,235.6c.21-.08.45-.07.54.02.1.09-.07.16-.36.15-.33-.01-.4-.08-.17-.17ZM263.3,157.03c.32-.12.44,0,.44.42s-.18.59-.56.59c-.31,0-.56-.19-.56-.42s.05-.42.12-.42.32-.07.56-.17ZM262.91,149.8c0-.6.07-.74.3-.51.22.22.22.46,0,.82-.26.45-.3.41-.31-.31ZM261.49,142.56c.34-.34.44-.25.7.59.14.45.08.63-.21.63-.52,0-.86-.84-.48-1.22ZM261.09,128.71c-.16-.54-.11-.64.31-.56.5.1,1.77,2,1.77,2.68,0,.19-.25.35-.57.35-.55,0-.96-.67-1.52-2.47ZM264.72,133.43c0,.76-.12.99-.57,1.06-.75.1-1.4-1.43-.82-1.91.73-.6,1.38-.2,1.38.86ZM263.14,119.16c.13,0,.57.48.98,1.07.79,1.15.94,2.38.41,3.54-.45.98-.81.9-.52-.12.27-.94-.11-2.68-.72-3.29-.43-.44-.53-1.2-.15-1.2ZM186.38,93.78c.18-.18,1.57,1.23,1.57,1.59,0,.16-.16.29-.35.29-.37,0-1.44-1.66-1.22-1.88ZM187.82,92.6c.31,0,.77.15,1.02.34.65.51,1.38,1.77,1.16,1.98-.18.18-.91.27-.96.12-.01-.04-.07-.31-.12-.6-.05-.3-.46-.83-.89-1.18-.71-.59-.73-.65-.21-.66ZM254.79,110.78c-2.34,0-3.16.22-6.71,1.81-5.31,2.37-7.98,3.44-9.71,3.89-1.99.51-2.88.52-5.54.03-4.74-.88-12.81-4.73-20.56-9.78-5.01-3.27-8.47-5.12-12.55-6.71-4.27-1.67-6.67-2.05-11.08-1.75-1.18.08-1.1-.66.14-1.25.54-.26,1.76-.56,2.72-.66,2.77-.31,4.46.3,14.2,5.08,3.78,1.85,8.02,4.37,9.53,5.65.48.41,1.24.96,1.68,1.23.45.27,1.22.77,1.71,1.12,2.6,1.82,5.76,3.56,6.45,3.56.26,0,.84.24,1.28.54.97.63,1.57.48,1.57-.4,0-.45-.28-.77-.95-1.09-.52-.25-1.08-.45-1.24-.45-.39,0-3.6-1.89-3.82-2.25-.1-.15-1.07-.97-2.18-1.81-2.03-1.55-3.94-3.12-6.49-5.32-.77-.67-1.89-1.54-2.49-1.95-1.07-.73-2.53-1.92-5.26-4.27-3.92-3.4-7.16-4.83-13.79-6.1-3.81-.73-7.56-.02-10.06,1.91-1.86,1.43-2.13,2.45-.66,2.45.49,0,1.11.2,1.37.45.27.25.9.65,1.4.91,1.15.59,1.5,1.16,1.27,2.08-.3,1.21-1.47,2.33-3.08,2.94-1.33.51-1.68.54-2.76.26-.82-.22-1.54-.67-2.12-1.33-1.58-1.81-1.82-3.22-.92-5.58,1.03-2.71,2.55-4.1,6.22-5.65,1.83-.78,2.34-.87,4.71-.85,3.22.02,7.08.67,9.72,1.62,3.17,1.14,7.57,3.75,10.12,6,.86.76,2.19,1.91,2.96,2.55,1.36,1.15,3.38,2.94,7.55,6.7,4.73,4.26,8.23,6.3,14.4,8.41,2.13.73,3.07.9,4.76.88,4.31-.05,5.74-.38,9.85-2.25,2.04-.94,6.21-2.19,8.1-2.45,2.57-.34,4.74,1.39,5.02,4.02.1.9-.32,1.28-.63.59-1.07-2.37-1.63-2.74-4.17-2.74ZM190.4,91.77c.51.04,1.5,1.68,1.33,2.22-.22.7-.7.74-.7.06,0-.28-.19-.75-.41-1.05-.44-.58-.56-1.25-.22-1.22ZM193.64,92.47c.31.12.46.51.46,1.27,0,1.51-.72,1.48-.98-.05-.22-1.28-.14-1.47.52-1.22ZM195.44,94.16c.06-.55.2-1.01.3-1,.45,0,.8.49.96,1.31.2,1.02.02,1.23-.81.91-.47-.18-.56-.4-.46-1.22ZM198.24,94.27c.54,0,1.17.77,1.34,1.61.19.97-.13,1.16-1.08.6-.5-.29-.72-2.22-.26-2.22ZM201.4,95.67c.29,0,.54.09.56.21.01.11.06.62.1,1.12.08.94-.19,1.11-1,.63-.65-.37-.38-1.96.33-1.96ZM203.03,97.66c.54-1.01,1.24-.65.95.48-.17.67-.32.72-.89.36-.3-.19-.31-.37-.06-.84ZM205.45,98.42c.21-.34,1.51.83,1.51,1.35,0,.4-.52.49-1,.16-.41-.29-.72-1.18-.51-1.51ZM208.65,101.1c0-.49.6-.41.77.11.06.18-.09.33-.33.33s-.44-.2-.44-.45ZM257.2,116.65c.77-.86,1.22-1.12,1.88-1.12.98,0,2.42,1.06,2.42,1.78,0,.65-.38.56-.71-.17-.15-.34-.5-.67-.76-.72-.38-.07-.49.1-.49.76,0,.57-.19.95-.59,1.16-.42.23-.55.51-.46.99.19,1-.81.89-1.42-.16-.26-.46-.57-.84-.69-.84-.45,0-.16-.61.81-1.68ZM254.64,120.96c.4-.53.42-.53,1.61.09,1.78.92,3.62,1.1,5.01.48.97-.44,1.17-.46,1.38-.11.4.63.31,2.03-.17,2.72-.52.74-.84.78-1.19.16-.2-.35-.65-.46-1.9-.44-.9.01-1.93-.12-2.29-.3-.49-.24-.78-.23-1.19.03-1.31.82-2.29-1.23-1.25-2.63ZM260.06,133.85c.59-.18.64-.12.56.59-.11.97-.94,1.23-1.21.37-.22-.69-.21-.7.65-.96ZM258.99,131.19c-.51-.27-.54-.49-.38-2.46.21-2.64.64-3.64.65-1.51,0,.81.2,1.84.42,2.28.22.44.45,1.33.49,1.98.05.76-.05,1.23-.27,1.31-.22.08-.35-.14-.35-.59s-.23-.83-.55-1.01ZM256.43,129.51c-.16.46-.41.83-.54.83-.33,0-.32-.35.03-1.26.39-1.03.88-.63.52.42ZM254.12,132.59c.42,0,1.79.99,1.79,1.3,0,.56-.38.62-1.19.2-.44-.23-.77-.64-.77-.95s.07-.55.16-.55ZM252.04,140.09c.05-.36.32-.69.6-.75.4-.08.49.05.42.55-.05.36-.32.7-.61.75-.4.07-.49-.05-.42-.56ZM250.47,147.41c.34,0,.37.11.13.56-.17.31-.36.56-.43.56-.07,0-.13-.26-.13-.56s.19-.56.43-.56ZM247.39,154.96c.48,0,.52.38.12,1.14-.33.62-.73.7-.91.19-.18-.51.31-1.33.79-1.33ZM244.36,161.81c.25-.42.41-.48.66-.24.25.24.2.56-.16,1.33-.52,1.11-.85,1.42-1.08,1.06-.17-.28.12-1.37.58-2.15ZM241.11,169.84c.17.05.3.22.3.36s-.13.31-.3.37c-.16.05-.3-.11-.3-.37s.14-.42.3-.36ZM236.9,177.04c.59-1.1,1.84-.39,1.32.75-.17.36-.38.65-.47.63-1.23-.25-1.36-.45-.86-1.38ZM234.4,183.77c.16,0,.25.4.2.89-.1.96-.68,1.39-.95.7-.19-.49.33-1.58.75-1.58ZM230.36,191.66l.52-.76.09.79c.05.44.02.97-.06,1.19-.09.22-.29.4-.45.4-.56,0-.62-.85-.1-1.61ZM226.28,200.11c.59-.71,1.44-.26,1.2.64-.21.82-.77.97-1.18.31-.27-.42-.27-.64-.02-.95ZM223.44,208.04c.99.14,1.03.26.43,1.12-.48.69-.55.7-1.46.34-1.21-.49-.38-1.66,1.02-1.45ZM218.56,216.23c.23-.38,2.39-.3,2.39.08,0,.6-.5,1.1-.94.93-.24-.09-.52-.05-.61.1-.09.15-.27.26-.41.26-.32,0-.64-1.03-.43-1.38ZM216.99,227.83c.33-.55.73-1.85.9-2.89.56-3.45.76-3.93,1.98-4.73,1.61-1.07,2.27-2.52,2.48-5.5l.19-2.48,1.43-1.38c1.17-1.12,1.49-1.65,1.76-2.87.26-1.13.26-1.72.01-2.41-.37-1.07.11-2.08,1.19-2.49,1.29-.49,2.07-1.82,2.26-3.85.27-2.93.38-3.2,1.83-4.54,1.17-1.09,1.38-1.46,1.54-2.66.31-2.39.95-4.34,1.43-4.34.24,0,.79-.35,1.22-.79.68-.68.82-1.09,1-3.01.2-2.13.25-2.25,1.39-3.34,1.66-1.58,2.38-2.9,2.38-4.4,0-1.6.47-2.95,1.09-3.15,1.11-.35,2.57-3.35,2.5-5.12-.05-1.07.42-2.3.87-2.3.41,0,1.92-2.61,2.11-3.64.1-.54.06-1.3-.09-1.69-.31-.82.26-2.5.85-2.5.2,0,.77-.44,1.27-.99.73-.8.91-1.22.91-2.22,0-.68-.14-1.32-.31-1.42-.69-.43.05-2.14,1.54-3.59,1.26-1.22,1.51-1.64,1.68-2.81.17-1.14.12-1.45-.27-1.74-.68-.5-.38-1.36,1.12-3.17.7-.85,1.28-1.73,1.3-1.96.01-.23.05-1.17.07-2.1l.04-1.67.91-.09c.58-.05,1.2.12,1.72.49.45.32,1.05.58,1.34.58.33,0,.77.41,1.14,1.07l.6,1.07-.69.65c-.45.43-.69.96-.69,1.54,0,.78.72,3.03,1.39,4.33.46.91.55,2.11.19,2.75-.4.71-.2,1.66,1.02,4.73.56,1.4.56,1.51.11,2.46-.61,1.28-.6,2.31.06,3.31.59.89.52,2.39-.16,3.38-.57.84-.46,1.57.5,3.35.85,1.56.86,1.67.54,3.11-.37,1.64-.07,3.42.68,4.04.53.45.52.88-.06,2.53-.47,1.31-.47,1.38.14,2.84.71,1.72.82,3.23.36,4.91-.4,1.43-.15,2.54.93,4.11.67.98.71,1.15.32,1.43-.24.18-.44.62-.44.99s-.14,1.16-.3,1.75c-.33,1.18-.06,2.19.97,3.61.5.69.52.87.2,1.67-.2.5-.49,1.46-.65,2.13-.24,1.06-.2,1.37.31,2.28.65,1.17.76,2.78.25,3.72-.18.33-.42,1.24-.53,2.01-.17,1.22-.1,1.53.52,2.45.39.57.83,1.05.98,1.05.26,0,.2,1.3-.24,5.5-.14,1.31-.07,1.94.27,2.63.64,1.27.58,3.22-.11,4.1-.38.48-.56,1.13-.56,2.02,0,1.09.14,1.44.84,2.11.9.86,1.13,2.18.46,2.57-.66.39-1.02,1.4-1.02,2.84v1.38l-5.11.2c-5.43.21-39.12.1-40.75-.14-.86-.12-1.01-.27-1.33-1.38-.2-.7-.8-1.69-1.38-2.29l-1.02-1.04.59-1ZM258.07,237.3c.09.1-.07.16-.37.15-.32-.01-.39-.08-.17-.17.2-.08.44-.07.54.02ZM257.99,235.48c-.09-.14,1.05-.25,2.56-.25s2.67.05,2.6.1c-.27.24-5.03.37-5.17.15ZM258.23,239.66c1.49-.04,2.71-.2,2.71-.33s-.5-.19-1.12-.1c-.62.08-1.19.04-1.27-.1-.09-.14.39-.26,1.05-.28,1.54-.04,2.53-.31,2.68-.75.08-.24-.34-.35-1.38-.37l-1.49-.03,1.12-.22c1.66-.33,6.01,0,6.01.45,0,.2-.12.44-.26.52-.15.09-.55.73-.89,1.42-.38.76-.81,1.25-1.12,1.25-.27,0-.69.08-.95.18-.31.12-.5,0-.6-.39-.21-.79-.77-.88-4.07-.62-2.61.21-4.07.05-3.39-.37.14-.09,1.48-.2,2.97-.24ZM264.02,235.23c0-.16.38-.28.86-.28.5,0,.78.11.68.28-.1.15-.48.28-.86.28s-.68-.13-.68-.28ZM248.36,235.46c-.38,0-.54-.06-.35-.14.19-.08.51-.08.7,0,.19.08.04.14-.35.14ZM245.56,235.46c-1.61,0-1.7-.03-.81-.24.56-.13,1.37-.13,1.82,0,.65.19.45.24-1.01.24ZM237.94,235.51c-1.07,0-1.88-.12-1.88-.28,0-.36,2.8-.36,3.35,0,.3.19-.15.27-1.47.28ZM214.07,224.93c.6-1.17.75-1.21,1.65-.49.64.51.75.77.6,1.38-.1.41-.33.73-.5.71-2.03-.24-2.31-.5-1.74-1.59ZM213.84,228.88l.72-.79-.16.7c-.09.38-.16.91-.16,1.18,0,.26-.25.62-.56.78-.49.26-.56.21-.56-.4,0-.38.32-1.04.72-1.47ZM206.97,234.14c0-.79,1.33-3,2.28-3.8.87-.73,2.09-1.18,2.4-.88.26.26.02.4-.91.57-.45.09-.99.38-1.19.65-.2.27-.6.77-.89,1.11-.29.34-.69,1.12-.87,1.75-.35,1.18-.81,1.53-.81.61ZM209.9,235.65l.07,1.75c.04.96.04,1.75,0,1.74-.65-.04-1.32-1.53-1.32-2.91,0-2.13,1.39-4.92,2.45-4.92.22,0,.72.25,1.11.56.39.31,1.13.56,1.64.56.64,0,1.02.17,1.22.54.48.9.35,1.05-1.09,1.22-.76.09-1.98.46-2.73.81l-1.35.64ZM212.35,237.54c-1.43-.71-1.16-1.24,1.05-2.07,1.79-.67,1.96-.69,1.96-.24,0,.28-.18.57-.41.66-.23.09-.6.6-.82,1.15-.47,1.12-.52,1.13-1.77.5ZM214.94,238.92c-.31-.06-.69-.24-.84-.39-.26-.25,1.22-.03,1.51.23.23.19-.12.27-.67.16ZM216.45,235.77c.42-.96.45-1.29.17-2.1-.18-.53-.6-1.26-.95-1.62-.38-.4-.55-.84-.44-1.12.22-.57.39-.57,1.16-.04,1.15.81,1.58,4.06.71,5.38-.23.35-.59.64-.79.64-.29,0-.26-.25.14-1.13ZM227.79,242.08c-3.32-.38-10.97-2.18-11.44-2.69-.46-.49,2.53-.03,3.73.57.56.28,2.08.65,3.39.82,2.51.33,8.62,1.38,9.09,1.57.54.21-1.71.08-4.77-.27ZM219.9,235.56c-.35-.05-.63-.21-.63-.35,0-.15,3.37-.25,8.32-.24,5.35,0,8.16.11,7.86.28-.43.24-14.15.52-15.55.31ZM235.35,242.77c-.69-.21-.63-.22.34-.09,2.38.3,35.07.11,37.13-.22.4-.07.56.06.56.46,0,.81-1.1.91-9.77.96-4.14.02-7.79.09-8.11.15-.32.06-.77.06-1,0-.23-.05-3.51-.15-7.27-.22-6.29-.11-9.7-.41-11.89-1.04ZM250.88,245.58c-.46.3-1.79.3-4.2,0-1.26-.15-.99-.2,1.54-.23,2.08-.03,2.94.05,2.66.23ZM237.61,245.3c-.24,0-.44-.13-.44-.28s.12-.28.26-.28.34.13.44.28c.1.15-.02.28-.26.28ZM238.97,250.03c-.33-.01-.39-.08-.17-.17.2-.08.44-.07.53.02.1.1-.07.16-.36.15ZM250.32,251.73c-.23.15-1.11.26-1.96.25-1.65-.02-7.12-1.11-7.47-1.49-.33-.35,4.1.12,5.38.56.61.21,1.88.39,2.8.4,1.19,0,1.55.09,1.26.28ZM254.37,251.67c-.46,0-.62-.07-.35-.14.27-.07.65-.06.84.01.19.08-.04.13-.5.13ZM282.25,250.01c-3.21.41-4.37.35-1.87-.09,3.51-.63,4.33-.72,4.33-.47,0,.14-1.11.39-2.47.56ZM293.79,246.4c-.77.31-14.56,2.53-15.73,2.53-.64,0-.82.52-.34,1.01.42.42-2.23.87-7.83,1.35-6.72.57-13.34.81-13.54.49-.21-.34.76-.59,2.35-.61.69,0,1.64-.19,2.1-.4l.84-.38-1.12-.02c-11.59-.21-13.05-.28-16.36-.87-1.92-.34-3.62-.74-3.77-.9-.19-.2.12-.23.98-.11,5.98.84,19.02.76,19.02-.12,0-.42-2.61-.62-9.07-.68-5.79-.05-12.02-.44-12.35-.76-.07-.06,2.36-.11,5.4-.1,7.23.03,9.91-.18,10.91-.85.68-.46,1.47-.54,6.86-.62,3.81-.06,6.08,0,6.08.18,0,.15-.19.63-.41,1.07-.57,1.09-.53,2.12.1,2.8.65.7,4.23,1.1,5.59.63.81-.28,2.39-1.94,3.08-3.26.3-.57.53-.63,2.74-.63s2.36.05,2.05.42c-.21.26-.86.43-1.64.45-1.11.02-1.19.05-.54.25,1.33.4,7.44,0,12.4-.83.92-.15,1.93-.27,2.24-.26.55.01.55.02-.01.25ZM277.59,245.02c.09-.15.3-.28.45-.28s.2.13.1.28c-.09.15-.3.28-.45.28s-.2-.13-.1-.28ZM295.15,243.32c-.34.15-1.66.4-2.94.57-1.28.16-3.21.41-4.28.56-3,.42-4.83.51-5.23.26-.27-.17-.22-.25.19-.29.31-.03.94-.09,1.4-.13.46-.04,2.41-.26,4.33-.5,5.49-.66,7.23-.79,6.52-.47ZM301.78,240.4c-.54.09-1.74.35-2.66.59-1.74.45-2.56.57-10.21,1.49-6.09.74-11.05,1.02-11.28.65-.21-.34.34-.83.94-.84,2.19-.04,12.75-1.23,14.36-1.62.75-.18,7.39-.98,8.15-.98.31,0,1.07-.29,1.68-.64.89-.5,1.12-.79,1.11-1.4,0-.71.05-.75.84-.58,1.18.25,1.83.63,1.83,1.06s-3.36,2.03-4.76,2.27ZM311.71,238.42c-.17,1.59-1.21,3.52-2.31,4.31-.91.64-3.38,1.02-3.98.62-.47-.31-.28-.37,1.02-.3,1.13.06,3.02-.9,3.66-1.85.27-.41.78-1.51,1.12-2.44l.63-1.71-.14,1.38Z"/>
      <path class="cls-1" d="M235.77,114.4c-1.15.01-2.79-.16-3.63-.38-.85-.22-1.63-.35-1.75-.27-.69.43.21,1.08,2.3,1.67.81.23,2.07.3,3.5.2,2.49-.18,2.66-.23,2.66-.8,0-.45-.07-.46-3.08-.41Z"/>
      <path class="cls-1" d="M177.6,97.58c0,.9.16,1.25.86,1.84.59.49,1.19.72,1.9.72,1.47,0,2.02-.5,2.19-2,.28-2.48-1.18-3.78-3.42-3.04-1.17.39-1.53.97-1.53,2.47ZM179.47,97.33c.41-.41,1.21-.14,1.21.41,0,.62-.42.75-1.01.31-.41-.3-.45-.47-.2-.73Z"/>
    </g>
    <path class="cls-3" d="M168.88,39.29c-.69-1.33-1.41-3.03-1.59-3.78-.39-1.55-2.06-2.7-2.72-1.86-.24.29-.53,1.6-.67,2.9-.35,3.36-.96,3.9-4.93,4.39-2.48.3-3.77.73-4.64,1.55-.67.62-4.83,2.54-9.25,4.26-4.42,1.73-9.85,3.85-12.07,4.72-5.12,2.02-13.95,5.34-20.26,7.64-2.7.98-6.99,2.6-9.54,3.59-2.54.99-5.22,1.91-5.96,2.05-.73.13-1.98.69-2.76,1.24-.95.66-1.98.92-3.07.77-1.61-.22-1.65-.28-2.74-3.94-.72-2.45-1.33-3.69-1.78-3.66-.37.02-.87-.01-1.12-.09-.26-.08-.73.96-1.16,2.59-1.26,4.75-.92,4.48-5.81,4.63-4.6.14-6.14.67-5.61,1.96.16.4.8.88,1.43,1.07,1.15.35,6.57,3.24,6.76,3.59.22.42-.95,4.24-1.99,6.48-1.44,3.09-.89,3.24,2.48.65,1.44-1.11,2.87-1.94,3.16-1.85.3.09.88,1.37,1.3,2.87.42,1.49,1.31,4.68,1.99,7.09.68,2.42,1.32,4.95,1.44,5.63.11.69.95,3.81,1.86,6.94,2.69,9.25,3.75,13.15,3.67,13.41-.07.24,1.58,6.4,2.41,8.98.85,2.65,4.31,15.8,5.38,20.44,1.08,4.71.96,6.02-.51,5.57-1.13-.34-4.07.51-4.29,1.25-.27.87.9,1.95,2.7,2.5,2.62.81,2.72,1.06,1.9,4.87-.5,2.31-.57,3.56-.22,3.67.29.09,1.58-.69,2.85-1.74,1.27-1.04,2.44-1.75,2.6-1.58.15.18.18,1.52.06,2.99-.12,1.47-.32,5.07-.44,8.01-.13,2.95-.35,7.34-.5,9.75-.14,2.42-.31,5.97-.38,7.89-.07,1.93-.38,6.71-.68,10.63-.3,3.93-.55,8.2-.53,9.51.01,1.3-.41,4.06-.93,6.14l-.95,3.79-1.52.05c-2.59.1-4.98,1.81-3.25,2.34,1.35.42.79,1.25-.97,1.42-1.54.16-11.73.63-14.6.69-.57,0-1.03-.68-1.58-2.37-.68-2.1-.87-2.32-1.61-1.93-.47.25-1.21,1.28-1.65,2.3-.92,2.1-1.08,2.18-4.26,2.19-3.86,0-4.7,1.83-1.33,2.88,2.66.83,3.26,1.66,2.82,3.95-.59,3.15-.07,3.55,2.07,1.62,1.76-1.59,1.89-1.62,3.5-.93.91.4,1.92.88,2.24,1.06.94.57,1.45-1.03.77-2.42-.72-1.47-.31-2.28,1.82-3.58,1.04-.63,3.22-.94,8.15-1.14,3.71-.14,7.01-.19,7.31-.1.33.1.47.94.33,1.99-.33,2.49.69,2.66,3.32.55,1.17-.93,2.27-1.66,2.44-1.6.17.05.92.6,1.66,1.23.75.61,1.64,1.21,2.01,1.32,1.16.36,1.16-1.25-.01-2.97-.62-.91-1.03-2.03-.89-2.48.14-.44,1.19-1.17,2.34-1.62,1.53-.59,2.1-1.06,2.13-1.74.05-1.18-.5-1.34-2.66-.79-3.69.94-5.44-1.78-5.17-7.99.25-5.95.84-15.71,1.36-22.68.26-3.55.74-11.02,1.06-16.61.64-11.21.85-12.47,1.9-11.75.37.26,1.31.49,2.07.51l1.41.04-1.17-2.1-1.17-2.09,2.72-1.8c1.5-.99,2.77-1.95,2.84-2.15.26-.85-.91-1.26-4.13-1.44l-3.46-.19-.95-2.28c-1.02-2.47-2.36-3.32-3.17-2.03-.27.44-.61.75-.76.7-.3-.09-2.44-7.21-4.22-14.02-.62-2.39-3-11.4-5.28-20.01-6.72-25.39-8.62-32.88-8.47-33.39.06-.2,1.59.13,3.4.75,1.92.65,3.4.95,3.56.72.16-.21-.25-1.13-.9-2.04-1.81-2.53-.87-2.72,5.45-1.16,6.47,1.61,25.78,5.97,31.61,7.16,2.32.47,5.61,1.17,7.31,1.54,4.79,1.07,14.15,3.21,18.28,4.18,2.05.49,5.54,1.24,7.74,1.67,2.2.44,6.97,1.5,10.59,2.35,3.63.85,9.46,2.21,12.97,3.02,3.51.81,12.89,3.05,20.85,4.97,7.95,1.92,14.62,3.45,14.81,3.4.73-.19,7.46,2.01,7.73,2.52.25.48-.14,2.82-1.03,6.06-.47,1.72.46,1.74,3.04.07,1.44-.94,2.36-1.27,2.54-.92.32.59-.29,8.6-1.14,15.07-.29,2.24-.65,5.74-.79,7.77-.15,2.03-.64,6.97-1.08,10.99-.45,4.01-1.25,11.62-1.79,16.89-.54,5.28-1.19,11.13-1.43,13-.25,1.87-.7,6.08-1.03,9.35-.32,3.27-.82,7.68-1.09,9.8-.28,2.12-.62,4.87-.77,6.12-.36,3.23-1.3,6.15-2.09,6.57-.37.2-1.09.23-1.6.07-1.17-.36-4.35.58-4.79,1.42-.27.51.15.84,2,1.58,1.29.52,2.49,1.21,2.66,1.55.17.33.03,1.91-.33,3.52-.36,1.61-.52,3.07-.36,3.25.16.19,1.56-.61,3.12-1.76,1.55-1.15,2.91-2.14,3.02-2.2.74-.41,14.77,9.39,14.54,10.16-.06.2-.67.44-1.35.53-.67.08-1.33.49-1.46.91-.23.75.06.98,3.49,2.71,1.61.82,1.78,1.56.97,4.28-.65,2.18-.63,3.58.08,3.8.34.1,1.78-.83,3.22-2.06l2.61-2.25,3.4,1.26c1.88.69,3.6,1.21,3.85,1.15h0c1.03-.27.68-1.37-1.09-3.54-1.04-1.27-1.83-2.48-1.76-2.7.06-.21,1.38-1.13,2.92-2.04,2.54-1.5,3.43-2.64,2.33-2.97-.23-.07-1.57.02-2.96.21-4.21.55-4.1.59-5.38-2.03-.65-1.33-1.32-2.82-1.49-3.32-.41-1.2-2.02-1.36-2.29-.22-.12.47-.38,1.92-.58,3.22-.35,2.25-.42,2.35-1.33,2.07-1.65-.51-10.98-7.53-12.93-9.73-.63-.71-1.08-1.48-1.01-1.71.07-.23,1.06-1.05,2.2-1.8,1.8-1.2,2.02-1.5,1.74-2.32-.28-.8-.5-.91-1.48-.72-2.93.57-3.8.28-4.73-1.59-.47-.97-.85-2.51-.82-3.41.14-4.3.8-12.28,1.81-21.84,2.24-21.28,4.67-43.48,5.22-47.67.31-2.37.93-7.89,1.37-12.27.44-4.38.99-8.34,1.21-8.82.3-.65.73-.77,1.7-.49,2.93.84,3.26.84,3.21-.04-.05-.85-.4-1.53-2-3.87-1.15-1.68-.57-2.43,2.8-3.67,2.78-1.02,2.93-1.15,2.61-2.35-.18-.66-.42-.72-1.89-.51-.93.14-2.65.11-3.82-.07-2.11-.32-2.14-.35-3.38-2.94-.68-1.44-1.52-2.61-1.86-2.6-.37,0-1.05.99-1.65,2.39-.56,1.31-1.16,2.44-1.32,2.53-.16.08-1.37-.74-2.68-1.84-2.24-1.86-4.44-3.86-15.23-13.86-2.42-2.24-5.24-4.81-6.26-5.7-1.88-1.65-25.24-23.59-30.87-28.99-1.69-1.62-3.08-3.17-3.08-3.46,0-.28.67-.97,1.52-1.51,1.24-.8,1.49-1.17,1.33-1.99-.19-.96-1.01-1.23-2.38-.75-.29.1-1.55.01-2.8-.2-2.24-.38-2.3-.42-3.53-2.8ZM76.47,223.26h0c.19-.1.56-.02.83.17.4.28.37.38-.16.52-.69.18-1.24-.38-.66-.69ZM80.51,221.81c-.19.84.8,2.36,1.51,2.31.36-.02.63,0,.6.04-.78,1.15-1.76,1.71-2.33,1.35-.39-.24-.88-.25-1.09-.01-.22.23-.18.01.08-.47.25-.49.31-1.01.13-1.14-.2-.14,0-.75.44-1.41.43-.65.73-.94.66-.66ZM107.52,218.43c.67,1.55.64,1.65-.62,2.63l-1,.77-.71-1.24c-.5-.88-1.01-1.24-1.75-1.23-.71,0-.91-.12-.6-.38.24-.22.67-.32.94-.23.27.08,1.1-.24,1.85-.73l1.34-.88.55,1.28ZM108.85,148.77c.99,2.22,1.61,2.62,3.2,2.04.57-.21,1.19-.33,1.38-.27.64.2.16.73-2.67,2.95-1.54,1.21-3.41,2.72-4.15,3.35-1.61,1.37-1.98.91-1.37-1.72.42-1.8.35-2.03-.83-2.75-1.41-.86-1.5-1.65-.19-1.66,1.62,0,2.33-.29,2.62-1.08,1.17-3.18,1.01-3.11,2.02-.86ZM248.99,223.55l.28-1.72.86,1.9c.48,1.04.81,2.08.74,2.29-.07.22.58.49,1.46.62,1.74.24,1.83.53.49,1.5-.48.35-.93.77-.99.92-.05.15.4.88,1.02,1.63l1.12,1.36-1.7-.59c-.94-.32-1.94-.64-2.24-.71-.29-.07-1.21.66-2.03,1.62-.83.95-1.58,1.58-1.68,1.4-.1-.18.02-1.4.25-2.71.39-2.19.33-2.45-.84-3.27-1.38-.96-1.1-1.49.53-.99,1.27.39,2.34-.88,2.74-3.25ZM228.41,207.72c.47,1.08,1.14,2.11,1.47,2.31.53.32.48.5-.33,1.37-.52.56-1.22.92-1.56.82-.34-.11-1.18.48-1.85,1.31-1.28,1.58-2.27,1.41-1.39-.25.64-1.21.23-2.35-1.07-2.94-1.59-.74-1.21-1.62.6-1.41,1.48.17,1.7.04,2.45-1.49l.82-1.67.86,1.95ZM89.29,73.66c.36.29.94,1.01,1.27,1.61.6,1.08.58,1.08-1.72.05-2.41-1.06-3.92-.89-4.34.5-.1.32-.54.72-.98.9-.7.29-.73.08-.22-1.59.75-2.44.21-3.36-2.91-4.99-1.32-.68-2.47-1.37-2.56-1.54-.33-.62,1.06-.86,4.05-.69l3.11.17,1.65-5.25.63,1.37c.34.76.86,2.09,1.15,2.95.51,1.49.62,1.57,2.12,1.48,2.19-.14,2.37.64.38,1.64-1.87.94-2.66,2.58-1.63,3.38ZM235.9,99.89c.24-.06.82.64,1.28,1.57.62,1.23,1.12,1.7,1.89,1.74,1.32.07,1.22.47-.35,1.35-1.36.77-1.54,2.05-.35,2.43.42.13,1.13.77,1.58,1.42.76,1.09.75,1.16-.07.98-.49-.1-1.26-.34-1.74-.52-.86-.34-3.54.74-4.91,1.98-.71.64-.76.6-.86-.76-.06-.79.17-1.96.51-2.58.48-.88.43-1.45-.19-2.52l-.8-1.39,1.26-.08c1.07-.07,1.34-.35,1.79-1.79.29-.94.73-1.76.96-1.82ZM176.08,51.06c1.29,1.2,3.93,3.63,5.86,5.38,1.92,1.76,5.96,5.52,8.98,8.36,3.02,2.85,6.42,5.9,7.57,6.8,1.15.89,4.89,4.25,8.31,7.48,3.41,3.22,7.12,6.67,8.25,7.66,1.12.98,2.87,2.53,3.89,3.43,1.02.91,4,3.8,6.63,6.43,2.62,2.64,4.73,4.94,4.67,5.11-.14.46-4.49.93-6.1.68-.75-.12-4.9-1.08-9.25-2.14-4.34-1.06-8.49-2.04-9.23-2.18-1.26-.24-14.41-3.29-27.51-6.36-3.26-.77-8.4-2.02-11.4-2.78-5.6-1.42-6.24-1.56-13.9-3.11-5.73-1.16-8.69-1.82-14.33-3.22-2.53-.62-7.5-1.72-11.03-2.45-3.54-.72-11.38-2.51-17.41-3.96-6.04-1.46-12.22-2.94-13.74-3.3-2.09-.49-2.79-.82-2.82-1.32-.05-.72,3.09-3.31,5.66-4.68,1.77-.94,16.95-6.97,24.01-9.55,9.03-3.29,21.12-7.88,24.63-9.35,1.97-.83,4.82-1.93,6.34-2.44,2.72-.92,2.76-.93,5.02.26,1.25.65,2.35,1.48,2.45,1.83.28,1.05-.5,3.03-2.52,6.35-2.27,3.75-2.31,3.83-1.49,4.08.35.11,1.28-.46,2.06-1.28.78-.8,2.65-2.14,4.13-2.96l2.7-1.49,2.27.97c1.25.53,2.78,1.32,3.4,1.75.62.42,1.38.85,1.69.95.87.27,1.06-1.58.24-2.39-1.17-1.14-2.32-3.99-2.02-4.97.18-.59,1.82.41,4,2.43ZM169.17,42.96c.39.94.64,1.07,2.15,1.08,2.09,0,2.09.71,0,1.74-2.06,1.01-2.25,2.36-.63,4.34.75.92,1.36,1.71,1.35,1.76-.15.48-1.14.29-3.18-.57-2.42-1.03-2.45-1.03-4.46.15-1.2.71-1.96.93-1.87.55,1.33-5.47,1.19-6.16-1.3-7.03-4.63-1.59-3.98-3.74.79-2.62,1.99.47,2.77-.05,3.34-2.21.25-.95.58-1.69.73-1.64.44.13,2.6,3.26,3.09,4.45Z"/>
  </g>
</svg>