<?xml version="1.0" encoding="UTF-8"?>
<svg id="Layer_1" data-name="Layer 1" xmlns="http://www.w3.org/2000/svg" viewBox="0 0 335 335.84">
  <defs>
    <style>
      .cls-1 {
        fill: #401717;
      }

      .cls-2 {
        fill: #f2e0dc;
      }

      .cls-3 {
        font-family: Oswald-Regular, Oswald;
        font-size: 33.66px;
        font-variation-settings: 'wght' 400;
      }

      .cls-3, .cls-4 {
        fill: #d97a43;
      }

      .cls-5 {
        letter-spacing: 0em;
      }
    </style>
  </defs>
  <rect class="cls-2" width="335" height="335"/>
  <g>
    <g>
      <path class="cls-1" d="M121.96,101.93c-.53.3-1.26.14-1.26-.27,0-.14-.4-.46-.89-.72-1.06-.54-1.03-1.15.11-1.83.77-.46.84-.46,1.21.04.34.45.48.48.99.16.42-.26.69-.28.9-.07.39.39-.37,2.3-1.07,2.69Z"/>
      <path class="cls-1" d="M115.06,97.46c-.2-.5,1.07-1.46,1.55-1.17.41.25.38.83-.05,1.26-.48.48-1.3.44-1.5-.09Z"/>
      <path class="cls-1" d="M112.35,94.53c-.21-.55.59-1.44,1.04-1.16.35.22.43,1.12.12,1.43-.35.35-.98.2-1.17-.27Z"/>
      <path class="cls-1" d="M285.09,175.87c.46-.36.47-.35.11.11-.38.48-.62.64-.62.4,0-.06.23-.29.51-.51Z"/>
      <path class="cls-1" d="M173.76,118.39c1.99-.53,2.81-.52,3.02.05.27.7-.45,1.17-2.38,1.54-.96.19-1.79.46-1.84.63-.19.57-1.21.3-1.21-.32,0-.89.71-1.44,2.41-1.89Z"/>
      <path class="cls-1" d="M162.47,111.06c1.69-.17,6.43,3.83,5.66,4.76-.58.69-.94.51-2.91-1.48-1.06-1.08-2.26-2-2.76-2.13-1.14-.3-1.14-1.04,0-1.15Z"/>
      <path class="cls-1" d="M169.31,112.16c1.26-.68,1.86.99.8,2.26-.58.7-1.24.27-1.33-.87-.07-.84.04-1.14.53-1.4Z"/>
      <path class="cls-1" d="M177.95,123.1c.2.27.29.61.2.76-.26.43-1.4.13-1.5-.39-.13-.69.86-.98,1.3-.37Z"/>
      <path class="cls-1" d="M177.52,99.29c-.54-.54-.43-1.4.17-1.4.67,0,1.22.55,1.22,1.22,0,.6-.86.71-1.4.18Z"/>
      <path class="cls-1" d="M162.47,123.62c.45.17.6,1.09.25,1.45-.4.4-1.2.17-1.35-.38-.17-.68.47-1.31,1.1-1.07Z"/>
      <path class="cls-1" d="M178.49,109.55c.58.48.53,1.08-.13,1.49-.45.29-.49.45-.22.88.5.81-.08,1.47-1.43,1.61-1.32.13-2.46.78-2.46,1.39,0,.34.16.37.74.14,1.2-.45,1.88-.36,1.88.28s-.21.82-2.33,1.68c-.88.36-1.73.85-1.89,1.1-.34.51-.27.49-.85.27-.68-.26-.56-1.08.26-1.86.4-.37.73-.93.73-1.23,0-.7.81-2.28,1.46-2.85.28-.24.55-.7.61-1.02.07-.34.74-.91,1.65-1.4,1.24-.66,1.62-.76,1.96-.47Z"/>
      <path class="cls-1" d="M176.88,120.32c0-.62.8-1.18,1.38-.96.38.14.49,1.01.17,1.34-.1.11-.5.19-.87.19-.48,0-.68-.17-.68-.57Z"/>
      <path class="cls-1" d="M174.92,110.34c1.18-.88,1.31-5.84.16-6.21-1.76-.56-3.58.8-3.93,2.93-.09.56-.25,1.02-.35,1.01-.1,0-.41-.5-.69-1.09-.49-1.04-.49-1.1.06-1.52.67-.52,2.05-2.51,2.05-2.97,0-.42,1.18-2.88,1.67-3.47.43-.53.24-1.3-.38-1.54-.23-.09-.87.24-1.43.74-.7.62-1.02.76-1.02.46,0-.24.19-.51.44-.61.24-.09.44-.46.44-.82s.35-.93.78-1.27c.82-.66.73-1.3-.19-1.3s-.96-.58-.02-.9c1.19-.42,1.12-1.11-.17-1.95-.98-.62-1.15-.64-2.48-.3-1.78.45-2.28.97-1.52,1.55.31.23.84.43,1.19.43,1.07.01,1.04.55-.05,1-1.26.53-1.31.98-.16,1.42,1.91.72.58.98-1.67.33-.55-.16-.65-.08-.65.51,0,.38.39,1.94.87,3.45,1.13,3.58,1.12,3.77-.09,3.77-1.44,0-2.16.93-2.44,3.17l-.23,1.85-1.45-1.2c-.8-.66-1.68-1.2-1.96-1.2-.87,0-.57.83.57,1.59.6.4,1.8,1.51,2.67,2.48,1.65,1.84,1.98,2.03,2.25,1.32.09-.24.08-.65-.01-.91-.14-.37-.04-.44.44-.31.8.21,1.8-.18,2.56-.99l.6-.65.52.6c.66.76,2.93,1.12,3.65.59ZM167.96,108.62c-.29-.06-.58-.34-.64-.63-.08-.38.04-.5.43-.43.29.06.58.34.64.64.08.38-.04.51-.43.43ZM169.33,99.06c-.33,0-.6-.13-.6-.29s.19-.29.42-.29.5.13.6.29c.1.16-.09.29-.42.29ZM173.35,108.67c-.14,0-.26-.25-.26-.55,0-.61.75-1.04,1.03-.59.2.32-.37,1.14-.78,1.14Z"/>
      <path class="cls-1" d="M178.35,116.54c.36.56.34.97-.06,1.36-.44.44-1.13.14-1.13-.5,0-.28.21-.69.46-.9.38-.32.5-.31.72.03Z"/>
      <path class="cls-1" d="M180.52,107.79c.32.27.35.49.12.92-.39.74-1.26.57-1.38-.27-.11-.78.64-1.17,1.26-.65Z"/>
      <path class="cls-1" d="M169.71,220.13c.53-.02.5-.07-.18-.31-.8-.29-.98-.69-.58-1.29.12-.17,1.03-.39,2.02-.48l1.81-.16.72,1.21c.45.74.62,1.31.45,1.48-.46.47-.3,1.46.31,1.84.82.51.74.8-.6,2.19l-1.19,1.23.82.15c.61.11.84.34.9.89.08.64-.07.79-1.02,1.06-2.08.6-4.44-.19-3.6-1.2.29-.36.26-.61-.17-1.33-.41-.7-.45-1.01-.2-1.42.27-.42.19-.64-.37-1.19-.5-.48-.65-.86-.52-1.29.28-.93.71-1.34,1.39-1.37Z"/>
      <path class="cls-1" d="M171.67,229.36c.66-.13,1.09-.06,1.37.23.55.55.26,1.26-.59,1.42-1.2.23-1.32.21-1.69-.23-.53-.64-.17-1.2.9-1.42Z"/>
      <path class="cls-1" d="M175.35,189.15c2.98.2,3.46.43,2.63,1.26-.2.19-.75.29-1.24.21-.9-.14-4.56-.55-7.96-.9-1.19-.12-1.8-.31-1.72-.52.13-.37,3.26-.39,8.28-.05Z"/>
      <path class="cls-1" d="M169.72,244.95c1.06.29,1.54.28,2.36-.02.79-.29,1.13-.29,1.44-.04.52.43.25,1.14-.54,1.46-1.45.58-3.91.09-4.78-.95-.57-.69,0-.86,1.52-.45Z"/>
      <path class="cls-1" d="M167.8,207.05c.47.4.62.75.49,1.16-.15.46-.01.66.6.89.75.28.76.32.25.7-.46.34-.48.47-.16.87.38.46,2.35.66,2.74.27.1-.1.92-.22,1.81-.26,1.83-.08,2.63-.72,2.12-1.67-.22-.41-.12-.65.45-1.1.43-.34.67-.75.57-1.01-.09-.24.12-.66.5-.96,1.04-.84.58-1.58-.82-1.33-.6.11-1.42.42-1.81.67-.98.64-3.26,1.18-3.8.91-1.01-.52-2.51-.6-3.07-.16-.56.43-.55.45.11,1.01ZM171.12,207.49c.3-.11.84.05,1.36.42.47.34,1.1.62,1.39.63.3.01.13.14-.37.29-.5.15-1.07.46-1.27.7-.57.69-.96.52-.75-.32.14-.55.05-.87-.33-1.15-.49-.36-.49-.4-.02-.58Z"/>
      <path class="cls-1" d="M172.97,191.92c1.12,0,1.58.11,1.58.39,0,.21-.1.49-.21.6-.2.2-1.59.05-2.77-.3-.99-.29-.17-.69,1.4-.69Z"/>
      <path class="cls-1" d="M170.79,247.5c1.87.4,2.45.8,1.99,1.37-.41.49-.45.49-2.47-.03-1.99-.52-2.11-.61-1.51-1.21.39-.39.69-.41,2-.13Z"/>
      <path class="cls-1" d="M171.13,211.72c.68.02,1.51-.05,1.84-.15.8-.25,1.53.57,1.1,1.25-.17.27-.62.57-1,.67-1.22.34-3.17-.5-3.17-1.36,0-.33.31-.43,1.24-.41Z"/>
      <path class="cls-1" d="M179.5,100.66c-.38-.46-.21-1.32.26-1.32.5,0,1.17.88,1.01,1.32-.21.55-.81.55-1.26,0Z"/>
      <path class="cls-1" d="M163.53,138.9c3.29-.02,18.85.38,19.39.5.36.08.65.27.65.42,0,.17-1.55.3-3.86.32-2.12.02-4.25.13-4.73.24-1.56.36-12.54-.33-13.03-.82-.4-.39.22-.65,1.57-.66Z"/>
      <path class="cls-1" d="M142.6,265.69h0c-1.03.56-1.22.56-1.43,0-.25-.64,1.09-1.95,1.74-1.7.75.29.59,1.22-.31,1.71Z"/>
      <path class="cls-1" d="M172.59,237.7c-1.23.49-3.2.36-3.87-.27-.39-.36-.39-.44,0-.69.24-.15.87-.28,1.4-.28.53,0,1.37-.22,1.87-.48.85-.44.94-.44,1.3.06.61.84.46,1.2-.7,1.66Z"/>
      <path class="cls-1" d="M169.31,260.18c-.35-.56-.72-1.02-.82-1.02s-.37-.28-.58-.62c-.3-.49-.31-.79-.03-1.45.45-1.09,1.31-1.1,2.61,0,.88.74.95.9.6,1.32-.31.38-.33.65-.08,1.2.18.39.25.91.16,1.16h0c-.29.77-1.2.48-1.85-.57Z"/>
      <path class="cls-1" d="M171.55,239.02c.7-.25,1.05-.26,1.29-.03.42.43.07,1.47-.55,1.64-1.15.3-2.91.18-3.25-.23-.48-.58-.13-1.03.79-1.03.42,0,1.2-.16,1.73-.35Z"/>
      <path class="cls-1" d="M167.44,263.14c.46.6.87.91.94.72.06-.19-.26-.84-.71-1.43-1.26-1.65-1.57-2.33-1.13-2.5.2-.08.72.09,1.14.37,1.91,1.25,2.94,3.96,1.63,4.31-.45.12-.57.37-.53,1.08.03.51-.04,1.08-.16,1.27-.12.19-.47.35-.79.35-.42,0-.56-.2-.56-.8,0-.44-.47-1.48-1.04-2.32-.58-.83-.96-1.65-.86-1.82.38-.61,1.27-.28,2.07.77Z"/>
      <path class="cls-1" d="M168.82,241.97c.87.29,1.19.25,2.34-.31,1.1-.54,1.4-.58,1.78-.27.67.56.56.82-.64,1.45-1.42.75-2.89.75-4.11,0-1.28-.78-.86-1.36.63-.87Z"/>
      <path class="cls-1" d="M178.04,114.84c0-.67.55-1.22,1.22-1.22s.7,1.04.02,1.43c-.78.45-1.24.37-1.24-.21Z"/>
      <path class="cls-1" d="M198.28,90.21c0-.79.85-1.26,1.42-.79.36.3.38.48.09.94-.44.72-1.51.61-1.51-.15Z"/>
      <path class="cls-1" d="M146.03,89.94c-.39.19-.81.62-.93.95-.45,1.22-1.91.33-1.58-.97.25-.99,2.07-2.03,2.83-1.62.75.4.6,1.18-.32,1.63Z"/>
      <path class="cls-1" d="M142.2,94.25c-.41-.13-.55-.03-.55.42,0,.33-.25.73-.57.9-.31.17-.5.48-.42.7.08.22-.06.61-.32.87-.26.26-.59.47-.72.47-.5,0-1.11-.88-.97-1.41.08-.3-.13-1.19-.46-1.97-.74-1.74-.88-2.77-.39-2.94.22-.08.61.41.97,1.21.86,1.95,1.4,1.41.63-.64-.29-.76.85-.32,1.32.51.27.48.61.87.74.87.3,0-.05-2.05-.43-2.51-.38-.46.01-1.32.57-1.21.52.1,1,.97,1.52,2.77.41,1.42.01,2.26-.93,1.96Z"/>
      <path class="cls-1" d="M200.46,92.63c0-.93.54-1.72,1.18-1.72s.77.83.27,1.76c-.41.77-1.44.75-1.44-.04Z"/>
      <path class="cls-1" d="M205.19,98.13c-.4-.08-.48-.35-.41-1.35.09-1.21.07-1.24-.53-.87-.54.33-.68.31-1-.13-.21-.28-.59-.51-.86-.51-.66,0-.61-1.09.11-2.27.67-1.1,1.48-1.15,1.72-.11.09.37.26.66.38.65.67-.05.8.04.8.55,0,.32.27.65.61.76.65.21.65.82,0,2.56-.21.54-.48.79-.82.73Z"/>
      <path class="cls-1" d="M57.57,173.36c-.85,1.71-.69,2.25.68,2.25.94,0,1.03-.08,1.03-.84,0-.46.2-1,.45-1.21.71-.59,1.13.09,1.3,2.12.13,1.65.2,1.8.95,2,.74.2.87.1,1.43-.99,1.49-2.92,4.25-4.57,7.72-4.62,2.23-.03,2.6.17,2,1.09-.92,1.4-.18,1.74,1.53.7,1.23-.75,1.77-.45.9.48-1.04,1.1-.37,1.48,1.46.82,1.49-.54,2.01-.51,6.1.34l.69.14-.66.71c-.62.66-.63.72-.13.91.3.11,1.11-.02,1.86-.32,1.56-.61,2-.64,3.95-.23,1.43.3,6.72.78,8.44.76.48,0,2.12-.61,3.64-1.35,1.7-.82,2.87-1.24,3.04-1.07.48.46.85.31,4.05-1.61,2.21-1.33,3.61-1.97,4.78-2.18,4.78-.88,6.25-1.54,9.47-4.24,2.72-2.28,4.37-3.21,5.69-3.21,1.12,0,1.17-.07,2.24-2.91.99-2.65,2.06-4.77,2.86-5.68,1.23-1.4,1.81-3.17,2.36-7.13.69-5.01.93-6.11,1.56-7.32,1.06-2,1.53-2.39,2.6-2.22l.97.15-.19,2.08c-.18,2.04-.07,2.56,1.15,5.48.16.39-.03.55-.94.8-1.71.46-2.53,1.26-3.69,3.56-.81,1.61-1.03,2.42-1.03,3.65,0,.87-.12,1.81-.28,2.09-.15.28-.33,2.39-.4,4.69l-.12,4.18-.96.79-.97.79,1.03.34c1.29.43,2.34,2.36,1.27,2.36-.54,0-.89.56-.55.9.14.14.71.31,1.26.37.76.09,1.15.35,1.64,1.13l.65,1.02-.99,1.04c-1.22,1.29-1.93,1.67-5.6,2.93-1.6.55-3.44,1.3-4.08,1.67-1.12.64-1.24.65-3.01.28-1.01-.21-2.14-.45-2.5-.53-.99-.21-.78.41.27.77,1.23.43,2.87,1.7,2.87,2.23,0,.24-.53.63-1.17.89-1.37.55-1.44.77-.37,1.17l.8.3-1.05.52c-.71.35-1.26.94-1.67,1.8l-.62,1.27h-3.63c-2.99,0-3.92.11-5.29.62-1.23.46-2.32.62-4.23.62-2.64,0-3.25.3-1.7.84,1.55.54.92,1.27-.99,1.16l-1.18-.07.67.72.67.71-.67.47c-.9.62-3.72.58-5.78-.1-1.89-.62-2.3-.26-.91.81l.92.71-.6.52c-.33.29-1.15.61-1.82.73-1.75.28-3.03.88-4.47,2.05-1.36,1.11-3.01,3.31-3.01,4,0,.24-.47,1.53-1.04,2.86-.87,2.03-1.04,2.76-1.03,4.46.02,3.28,1.45,5.63,3.21,5.25.49-.11.95-.29,1.01-.4.07-.11-.13-.97-.45-1.91-.55-1.65-.55-2.5,0-2.5.14,0,.43.43.64.94.21.52.57,1.18.81,1.46.76.9,3.25.48,3.25-.53,0-.25-.38-.8-.85-1.23-1.19-1.09-1.45-1.97-1.16-3.83.37-2.38,1.62-4.58,3.51-6.2l1.64-1.42,3.74-.14c2.06-.08,4.92-.16,6.36-.2,2.69-.07,2.9-.13,8.3-2.61.4-.18.86-.35,1.03-.36.35-.02,2.52-.66,3.7-1.09.44-.16.8-.49.8-.73,0-.31.19-.38.67-.26.49.12,1.55-.32,3.8-1.57,1.72-.95,3.23-1.74,3.36-1.74s.87-.28,1.65-.62c1.84-.81,4-2.52,5.64-4.48.72-.86,1.98-2.08,2.79-2.72,1.42-1.11,2.16-2.47,2.16-3.92,0-.3.25-.47.66-.47,1.16,0,1.89-.77,2.23-2.36.18-.81.26-1.57.19-1.69-.07-.11-.4-1.25-.74-2.52-.54-2.07-.57-2.54-.27-4.43.35-2.17.1-6.35-.66-11.36-.28-1.79-.25-2.28.14-3.2.26-.6.54-1.51.64-2.03.11-.58.52-1.18,1.06-1.57.48-.34,1.14-1.23,1.45-1.97,1.12-2.61,3.24-6.73,3.46-6.73s-.2,1.64-1.02,3.93c-.47,1.33-.9,4.27-.78,5.44.04.43-.14,1.42-.4,2.18-.51,1.5-.55,3.16-.38,14.77l.09,6.39.73.17c.72.17.73.19.79,3.86.04,2.31.23,4.26.52,5.23.53,1.79.69,2.07,1.43,2.48.55.3,1.33,2.17,3.05,7.36,1.22,3.66,2.22,5.65,3.07,6.1.54.29.74.64.74,1.24,0,1.06,2.06,7.27,3.08,9.31.43.84,1.3,2.44,1.94,3.54l1.17,2-.81,1.68c-.86,1.8-.82,2.61.14,2.61.72,0,.74.33.1,1.54-.75,1.43-.59,7.63.24,9.4.33.71.71,1.28.84,1.28.34,0,1.45,1.87,1.45,2.45,0,.27-.63,1.1-1.39,1.86-2.55,2.49-3.31,6.07-2.73,12.81.26,2.93.45,3.83,1.05,4.91.41.73.74,1.48.74,1.67,0,.6-2.95,4.27-5.38,6.72-1.28,1.28-2.66,2.89-3.06,3.55-.63,1.07-.86,1.23-1.74,1.23-.99,0-4.71-1.22-8.31-2.72-3.27-1.36-6.32-1.59-8.59-.64-.31.13-.56-.02-.77-.47-.29-.62-1.8-2.58-4.41-5.73-.59-.71-1.31-1.69-1.61-2.18-.3-.49-1.4-1.99-2.44-3.32-1.65-2.12-1.9-2.6-1.96-3.79-.08-1.56-1.58-5.42-2.83-7.27-.46-.68-1.81-2.06-3.01-3.05-1.19-.99-2.16-1.88-2.16-1.97s.92-.48,2.06-.88c1.43-.5,2.62-1.18,3.92-2.28,1.68-1.41,1.93-1.77,2.49-3.53.54-1.71.58-2.21.33-3.87-.27-1.76-.22-2.39.41-4.58.11-.4.79-1.42,1.5-2.25.71-.84,1.22-1.53,1.15-1.53s.45-1.08,1.16-2.4c.72-1.32,1.4-2.92,1.52-3.56.29-1.62-.53-4.22-1.84-5.82-1.37-1.67-4.25-3.42-5.81-3.52-.66-.05-1.85-.22-2.65-.4-1.56-.34-2.85-.18-3.78.46-.32.22-1.2.4-1.97.4-.97,0-1.39.12-1.39.39,0,.3.82.44,3.27.58,3.25.18,6.26.97,7.97,2.08,2.01,1.32,2.09,5.31.15,7.53-.55.64-4.31,2.44-7,3.36-3.18,1.09-4.78,2.22-6.47,4.54-2.41,3.31-3.09,8.39-1.7,12.76.7,2.2,1.48,3.44,2.33,3.73.33.11.34.29.02,1.05-.23.54-.32,1.47-.22,2.31.71,6.36,2.58,11.4,4.92,13.28.6.48,1.09,1.05,1.09,1.26s.25.51.54.67c.29.16.77.91,1.06,1.68.29.77.86,1.86,1.27,2.42,1.06,1.44,5.09,5.82,5.37,5.82.12,0,.69.42,1.26.94,1.35,1.23,2.49,1.69,4.23,1.69,1.2,0,1.42.08,1.42.55s1.14,2.12,2.55,3.63c1.44,1.55,9.3,4.28,14.4,5,1.97.28,4.16-.33,5.47-1.5l1.08-.98.7,1.08c.38.59,1.03,1.24,1.43,1.44,1.23.62,3.73.44,5.85-.44,2.29-.94,2.68-1.23,4.25-3.12.87-1.05,1.63-2.56,2.71-5.39.83-2.16,1.7-4.38,1.93-4.92.24-.55.51-2.08.6-3.42.15-2.09.1-2.51-.36-3.01-.56-.63-.5-.78.49-1.27,1.27-.63,2.04-2.79,2.3-6.36.51-7.07.3-9.83-.95-12.76l-.57-1.33.72-1.05c.39-.58,1.13-2.54,1.63-4.34,1.07-3.87,1.02-4.17-1.3-8.75-.82-1.61-.87-1.89-.26-1.38.35.29.61.29,1.2.02.71-.32.74-.43.56-1.79-.18-1.38-.13-1.54,1.1-3.26,1.67-2.36,2.14-3.45,3.98-9.27,1.43-4.5,1.6-4.87,2.47-5.34,1.68-.9,1.94-1.45,3.98-8.38.55-1.88.77-2.25,1.27-2.26.99,0,1.48-.86,2-3.5.27-1.36.68-3.14.91-3.95.24-.81.4-2.26.37-3.22-.03-1.19.1-1.98.42-2.46.76-1.16,1.14-7.6.62-10.35-.54-2.84-.54-2.86.31-3.25.9-.41.9-.59-.01-2.88-1.22-3.06-1.49-9.33-.37-8.63.15.09.56.84.93,1.66.37.83.88,1.68,1.15,1.9.36.3.48.89.49,2.33,0,1.06.2,2.59.45,3.38.34,1.1.44,2.85.44,7.14,0,3.75.13,6.37.4,7.71.22,1.12.49,2.67.6,3.44.16,1.11.44,1.65,1.36,2.58.8.8,1.35,1.12,1.72,1.02.59-.16,1.03.56,1.72,2.81.19.61.53,1.18.76,1.27.22.08,1.15,1.29,2.07,2.67,1.69,2.56,4.15,5.17,5.56,5.89.75.38,1.42.8,6.13,3.91,1.33.88,2.71,2.12,3.63,3.26.81,1.01,1.76,1.92,2.11,2,.36.09,1.23,1.03,2,2.15,2.25,3.29,6.6,6.84,9.46,7.72.39.12,1.12.63,1.63,1.13.51.5,1.58,1.48,2.4,2.19,1.36,1.18,1.47,1.37,1.43,2.47-.05,1.03.02,1.18.5,1.1.3-.05.74-.28.97-.51.45-.45.61-.39,2.02.72.72.57.87.84.65,1.23-.48.9-.32,1.42.44,1.42.39,0,.79-.13.89-.28.3-.5,1.02.03,1.72,1.26.61,1.08.67,1.49.58,3.97-.06,1.52-.3,3.26-.54,3.86-.59,1.49-.55,2.43.15,3.13.73.73.94.73,1.61-.02.35-.38.61-1.27.74-2.51.2-1.97.55-2.49,1.56-2.35.89.12,1.64,1.75,2.01,4.35.32,2.25.38,2.38,1.11,2.48.67.09.8-.03.99-.85.12-.53.19-2.04.17-3.36-.04-1.98-.22-2.87-1.04-4.99-1.4-3.62-3.35-7.01-6.37-11.03-1.48-1.96-1.62-2.25-1.11-2.34,1.32-.21-.61-2.52-2.32-2.79-.63-.1-1.14-.31-1.14-.47s-.45-.78-.99-1.38c-.54-.6-1.24-1.55-1.54-2.11-.78-1.42-3.06-2.91-4.45-2.91-.63,0-1.39-.23-1.79-.54-.88-.69-4.14-2.53-5.54-3.14-.92-.39-1.08-.61-1.17-1.57-.1-1.09-.08-1.12.91-1.2.76-.07,1.03-.22,1.03-.61,0-.37-.52-.73-1.75-1.23-2.5-1.01-3.67-2.54-1.83-2.39.69.05.96-.06,1.04-.43.08-.36-.29-.69-1.29-1.17-.86-.41-1.62-1.04-1.98-1.64-1.04-1.73-3.03-3.72-4.45-4.43-.76-.38-1.71-.9-2.1-1.17-.4-.26-1.69-.82-2.86-1.24-1.45-.52-2.38-1.06-2.9-1.68-.42-.5-1.72-1.36-2.89-1.91-1.17-.55-2.12-1.08-2.12-1.2,0-.11.23-.5.51-.86.46-.6.59-.62,1.45-.3.75.29,1.01.28,1.31-.02.3-.3.2-.51-.48-1.1-.55-.47-.92-1.15-1.07-1.94-.2-1.09-.15-1.28.5-1.8.81-.65.93-.4-1.13-2.29-.96-.88-1-1.22-.2-1.43.58-.15.56-.23-.44-1.71-.57-.85-1.04-1.76-1.04-2.02s-.38-1.64-.85-3.06c-.47-1.43-1.01-3.47-1.2-4.56-.2-1.11-.65-2.42-1.04-3-.54-.8-.66-1.26-.53-2.1.15-.93.03-1.23-.83-2.24-.99-1.16-1-1.18-1.13-4.6-.11-3.04-.08-3.41.33-3.23.25.11.79.19,1.21.17.73-.03.78.08,1.39,3.01.4,1.92.9,3.43,1.35,4.1.39.58.72,1.35.72,1.71s.18.8.41.99c.22.18.48.64.58,1.01.32,1.27,2.43,5.56,3.27,6.63.46.59,1.3,1.76,1.86,2.59,1.76,2.61,3.15,3.96,5.05,4.9,1.11.55,2.24,1.4,2.9,2.18,1.17,1.4,4.49,3.84,7.51,5.51,1.06.58,3.02,1.72,4.37,2.52,1.35.8,2.57,1.45,2.73,1.45s1.01.35,1.89.77c.88.42,1.87.87,2.19,1,.32.13,1.1.46,1.74.73,2.97,1.24,9.45,2.12,12.01,1.63.92-.18,2.85-.47,4.29-.65,1.44-.18,3.35-.57,4.23-.86,2.68-.88,10.94-.81,12.71.11.51.26,1.23.49,1.6.5.37.01,2.11.05,3.88.08,3.18.05,3.2.06,3.3.78.06.4.25.9.42,1.12.26.32.39.3.7-.13.21-.29.38-.82.38-1.19,0-1.09.77-.78,1.43.58.34.69.61,1.4.61,1.57,0,.55.83,1.01,1.45.81.7-.22.65-.5-.51-3.14-.8-1.8-3.07-4.14-4.33-4.46-.38-.09-.7-.28-.7-.4,0-.48-1.74-.71-5.53-.73-3.82-.02-7.42-.42-8.2-.9-.21-.13-2-.2-3.96-.15-3.44.08-3.59.06-4.13-.59-.52-.64-.6-.65-1.37-.23-1.17.62-2.81.43-3.16-.38-.22-.52-.48-.63-1.3-.56-.56.05-1.8.15-2.77.23-.96.08-3.49-.04-5.63-.27-3.76-.4-3.91-.45-4.88-1.38-.54-.53-.99-1.09-.99-1.24,0-.16.76-.2,1.87-.1,1.46.14,1.95.08,2.23-.27.7-.84-.34-1.38-2.75-1.44-2.45-.07-2.81-.2-2.81-1.06,0-.63-.11-.63,2.52-.03.45.1.73-.05.97-.5.45-.83.08-1.2-1.36-1.35-.61-.07-1.59-.25-2.16-.4-.58-.16-1.57-.26-2.21-.23-1.57.06-1.83-.16-1.63-1.36.15-.9.09-1.01-.5-1.01-.36,0-1.16.15-1.77.34-.9.27-1.44.24-2.82-.15-.94-.27-2.56-.48-3.61-.48-3.47,0-5.07-1.08-3.42-2.3.88-.65.9-.8.33-2.32-.11-.3.06-.35.76-.19.5.11,1.04.12,1.19.02.58-.36-.07-.99-1.82-1.76-2.36-1.04-3.15-1.95-1.94-2.26,1.04-.28.71-1.24-.57-1.66-1.17-.39-1.84-.98-2.72-2.39-.46-.75-.45-.79.09-.97.32-.1.58-.28.58-.4,0-.36-1.26-1.4-1.92-1.61-.34-.1-.93-.63-1.32-1.18-.39-.54-1.65-1.98-2.8-3.19-1.47-1.54-2.1-2.42-2.1-2.93,0-.41.08-.74.18-.74s.79.43,1.53.96c1.93,1.37,3.57,2.07,3.83,1.65.25-.42,2.72.05,4.49.86,2.3,1.06,7.36,1.8,11.1,1.64,2.22-.09,3.62-.31,7.4-1.13,1.88-.41,5.62-.45,7.76-.1,1.39.23,1.51.2,1.7-.38.11-.35.05-.81-.14-1.04-.61-.73,2.06-3.97,6.32-7.68,2.13-1.85,3.87-3.45,3.87-3.56s.9-1.19,2.01-2.41c1.52-1.67,2.24-2.77,2.94-4.47.51-1.24,1.44-3.06,2.08-4.04,1.11-1.73,1.2-1.79,2.67-1.99,4.18-.56,3.8-.6,5.69.68.97.65,1.83,1.32,1.93,1.48.28.45,1.31.35,1.5-.14.09-.24.03-.81-.13-1.27-.21-.6-.2-.94.03-1.17.24-.24.23-.32-.04-.32-.5,0-2.72-2.18-2.48-2.42.11-.11.82-.2,1.59-.2,1.21,0,1.46.11,2,.87.35.48.55.99.46,1.14-.22.36.76,2.06,1.18,2.07.63,0,1.06-.86.87-1.77-.27-1.37-1.07-2.95-1.89-3.78l-.75-.74-2.48.42c-1.37.23-3.93.39-5.69.37-2.98-.04-3.33.01-4.96.8-.97.46-1.95,1.03-2.18,1.26-.23.23-1.05.86-1.81,1.4-.76.54-1.38,1.09-1.38,1.23,0,.52-.69.2-1.66-.78-1.36-1.36-2.15-1.35-1.11.02.24.31.43.93.44,1.37,0,.45.19.88.41.97.49.18.3,1.11-.34,1.63-.36.3-.48.3-.57,0-.18-.52-1.14-.45-1.35.09-.09.26-.18.86-.18,1.35,0,.98-.93,2.7-1.6,2.95-.27.1-.56-.13-.8-.63-.45-.93-.91-.93-1.04,0-.22,1.66-.72,2.53-1.89,3.33-1.64,1.12-4.48,4.01-4.73,4.83-.31.99-1.9,3.1-2.48,3.28-.28.09-.85.08-1.27-.02-.57-.15-.75-.37-.75-.96,0-.43-.27-1.2-.58-1.72-.47-.78-.76-.95-1.53-.93-.52.01-1.27-.06-1.67-.16-.62-.15-.81-.02-1.28.87-.65,1.21-1.48,1.51-2.89,1.04-.99-.32-1-.35-.6-1.12.53-1.01.52-1.35-.06-1.83-.4-.33-.54-.29-1.03.33-1.43,1.83-1.66,1.97-3.48,2.08-1.45.08-1.82,0-2.04-.41-.45-.85-1.15-.58-2.6,1-1.29,1.4-1.49,1.51-2.77,1.53-1.23.02-1.44-.08-1.91-.85-.88-1.42-.92-1.59-.53-2.05.3-.36.25-.56-.31-1.16-.37-.4-.82-.72-1-.72-.69,0-.99-.62-.66-1.35.27-.58.21-.81-.37-1.43-.38-.4-1.02-.82-1.43-.94-.41-.12-1.79-1.33-3.07-2.69-2.7-2.87-4.64-4.6-6.7-5.98-1.29-.86-1.48-1.12-1.54-2.08-.08-1.27-1.43-2.84-4.12-4.81-.88-.65-2.06-1.6-2.62-2.11-1.47-1.34-3.53-2.03-5.82-1.94l-1.89.08,1.02-.88c.57-.49,1.21-.81,1.45-.72.24.09.89.2,1.43.26.6.06,1.19.35,1.47.72.26.35,1.03.75,1.72.91.99.22,1.91.88,4.38,3.11,4.56,4.13,5.79,5.18,6.5,5.58.35.19,1.1.6,1.66.91.56.31,1.44.56,1.97.56.68,0,.95.13.95.48,0,.57.56,1.04,2.39,2,.76.4,1.52.98,1.69,1.31.23.43.5.53.99.41.39-.1,1.29.08,2.1.4,3.45,1.41,5.6,1.89,7.47,1.68.99-.11,2.39-.26,3.12-.32,5.54-.52,6.8-.73,7.31-1.19.3-.27.55-.67.55-.87s1.72-2.12,3.82-4.25c4.54-4.6,5.74-6.08,9.24-11.36,1.99-3,2.76-3.96,3.1-3.82.27.11.71-.08,1.07-.48.34-.36,1.2-.91,1.91-1.23,1.16-.51,1.44-.53,2.61-.21.77.22,1.8.82,2.47,1.46,1.02.97,1.24,1.06,1.85.78.85-.39.85-.42.12-1.62-.72-1.18-.72-1.23,0-1.23.35,0,.73-.3.92-.73.28-.62.24-.86-.24-1.51-1.21-1.62-1.96-1.94-4.84-2.07-4.17-.18-4.55,0-8.66,4.02-1.96,1.92-3.68,3.49-3.83,3.49s-.66-.29-1.13-.64c-.64-.48-.95-.55-1.19-.3-.25.25-.21.51.15,1.06.53.8.61,1.84.22,2.47-.18.29-.56.35-1.35.2-.89-.17-1.06-.12-.93.22.35.9-.44,2.87-1.35,3.43-.8.49-.96.5-1.55.12-1.06-.7-1.35-.55-1.17.6.16.98.03,1.18-2.48,3.89-2.69,2.9-3.57,3.37-3.78,1.99-.05-.33-.32-.74-.6-.91-.42-.27-.63-.17-1.18.52-.52.64-.82.79-1.31.63-.87-.27-.8-.8.25-1.92,1.8-1.93.33-2.77-1.58-.9-.92.9-1.36,1.14-1.86,1.01-.38-.1-.65-.4-.65-.72,0-.71-.43-.69-1.5.07-1.27.9-4.28,1.21-6.67.67-1.73-.39-2.08-.6-3.75-2.29-1.26-1.27-1.78-2-1.66-2.33.35-.91,1.04-.82,2.08.29.98,1.04,1.09,1.08,2.46.92,2.64-.32,5.9-2.31,9.08-5.55,1.51-1.54,2.29-2.68,3.43-4.97.81-1.64,1.59-3.49,1.74-4.12.15-.63.62-2.39,1.04-3.91.42-1.52.95-4.01,1.19-5.53.57-3.75.89-4.36,2.22-4.36.58,0,1.43-.12,1.89-.26.46-.14,1.57-.42,2.44-.62,3.12-.71,5.1-2.98,7.26-8.29,1.91-4.71,2.07-5.69,2.12-13.44.04-5.61-.06-7.88-.44-10.14-.26-1.6-.62-4.4-.78-6.21-.16-1.81-.43-4.04-.6-4.95-1.02-5.49-1.13-6.61-1.12-11.91,0-4.85-.07-5.71-.52-6.48-.56-.95-1.28-1.13-1.85-.45-.26.32-.29.87-.09,2.11.15.92.2,3.45.1,5.61-.16,3.8-.18,3.93-.82,4.02-.8.11-.83.55-.1,1.35.47.52.52.81.3,2.06-.37,2.09-1.26,5.25-1.61,5.71-.33.44-.34.69-.02,1.59.38,1.13-.75,3.03-1.81,3.03-.12,0-.16-.82-.09-1.82.08-1.37.25-1.92.67-2.22.67-.48.72-1.29.12-1.79-.26-.22-.44-.85-.44-1.58,0-.94.17-1.37.73-1.86.91-.8.91-1.14,0-1.56-.85-.39-.96-1.35-.28-2.41.44-.66.42-.72-.29-1.18-.94-.61-1.03-2-.17-2.46.8-.43.74-1.41-.1-1.73-.86-.33-1.26-1.92-.66-2.61.43-.5.32-1.16-.28-1.63-.37-.29-.82-1.75-2.29-7.28-1.01-3.79-1.87-5.13-2.4-3.71-.1.28-.29.58-.43.67-.13.09-.06.75.16,1.46,1.75,5.59,2.35,12.95,1.48,18.32-.63,3.92-.82,4.68-1.86,7.68-.33.94-.6,1.93-.6,2.19s-.17.73-.38,1.05c-.21.32-.82,1.63-1.36,2.9-.54,1.28-1.2,2.66-1.47,3.06-.27.4-1.31,2.1-2.31,3.79-5.53,9.28-6.14,10.64-6.21,13.72-.03,1.18.06,2.44.19,2.8.2.55.1.71-.58,1-2.19.93-2.16,1.98.06,1.98,1.77,0,1.9.65.35,1.77-1.7,1.23-1.6,1.6.38,1.48,1.5-.08,1.64-.03,2.04.7.23.43,1.12,1.41,1.98,2.18,1.51,1.35,1.55,1.42,1.27,2.36-.16.54-.44,2.02-.63,3.3-.33,2.29-.8,3.93-1.12,3.93-.09,0-.53-.35-.98-.78-.65-.62-.9-.71-1.18-.43-.28.29-.19.66.45,1.8.76,1.35.78,1.49.37,2.25-.25.45-.64,1.06-.89,1.37-.43.55-.45.55-1.15-.1-.89-.83-1.44-.54-1.25.67.08.5.02,1.13-.12,1.4-.39.75-3.6,2.58-4.37,2.5-.61-.07-.69.06-.75,1.09-.17,3.17-.53,4.71-1.3,5.62-.43.51-.89.93-1.02.92-.34,0-2.13-1.72-2.13-2.05,0-.39.15-.35,1.23.31,1.4.85,1.97.77,1.97-.29,0-.68-.22-1.01-.94-1.45-.52-.32-1.71-1.31-2.64-2.2-1.58-1.51-1.67-1.67-1.24-2.14.65-.72.57-1.16-.25-1.47-.91-.35-1.64-1.75-1.55-2.97.07-.84-.02-.96-.77-1.1-.9-.17-1.21-.55-1.48-1.83-.12-.56-.35-.8-.77-.8-.95,0-2.29-1.1-2.29-1.89s-.48-1.19-1.27-1.06c-.3.05-1.33-.26-2.28-.69-1.39-.62-1.99-.74-2.98-.59l-1.24.19-.33-1.32c-.57-2.26-2.44-2.98-4.59-1.78-1.05.58-1.42.68-1.6.39-.14-.23-.84-.37-1.84-.36-1.43.01-1.73.13-2.66,1.02-1.01.96-1.06.98-1.38.42-.18-.32-.95-1.17-1.7-1.9-1.11-1.07-1.74-1.41-3.41-1.84-1.12-.29-2.18-.44-2.34-.34-.63.39-.31,1.57.57,2.09,1.07.64,1.1,1.05.12,1.69-.53.35-.71.67-.61,1.07.34,1.29-.53.25-1.14-1.37l-.65-1.73h-1.27c-.7,0-1.43-.11-1.63-.24-.67-.44-1.53.08-1.53.91,0,.43-.26,1.34-.57,2.02-.45.99-.71,1.24-1.32,1.24-.71,0-.73-.04-.34-.6.37-.53.36-.71-.02-1.49-.45-.89-.44-.91.76-2.04.66-.63,1.2-1.26,1.2-1.39,0-.71-1-1.16-2.53-1.16-1.28,0-1.96.19-3.25.93-2.54,1.44-3.48,2.24-3.68,3.17-.25,1.1-.53,1.08-1.47-.16-.98-1.29-2.19-1.38-3.36-.27l-.79.76-.52-.79c-.47-.72-.64-.78-1.94-.65-1.46.14-2.7.84-3.25,1.83-.17.31-.32.59-.32.62,0,.03-1.16.21-2.57.39-2.48.33-2.59.32-3.25-.3-.82-.78-1.31-.56-1.31.59,0,.7-.21.96-1.2,1.46l-1.19.61-.68-.63c-.92-.87-1.39-.5-1.15.9.16.96.08,1.23-.54,1.86-.83.83-1.5.95-1.74.3-.22-.56-.95-.57-1.16,0-.09.24-.02.84.15,1.34.26.73.22,1.11-.15,1.9-.53,1.1-.9,1.24-1.32.48-.21-.37-.38-.42-.61-.19-.23.23-.21.66.1,1.6.23.71.42,2.35.43,3.65v2.36s-2.33,1.22-2.33,1.22c-1.28.67-2.4,1.17-2.46,1.09-.07-.07.03-.73.23-1.46.47-1.77.06-2.67-1.5-3.29-.82-.33-1.17-.64-1.17-1.06,0-.52-.13-.56-1.17-.4-1.38.22-2.24-.16-2.37-1.04-.12-.83-.64-.97-1.26-.35-.46.46-.56.46-1.27.03-.51-.3-.82-.8-.92-1.42-.09-.64-.34-1.01-.73-1.11-.59-.16-2.66-1.58-4.27-2.93-.85-.71-.87-.78-.55-1.97.29-1.08.44-1.23,1.16-1.23.45,0,1-.21,1.22-.47.34-.41.28-.56-.4-1.1-.68-.54-.76-.77-.61-1.71.18-1.1.48-1.3,1.26-.81.53.34,1.18-.14,1.18-.87,0-.28-.44-.78-.97-1.09-.82-.48-1.02-.82-1.3-2.21-.61-3.01-3.77-8.37-6.56-11.11-1.51-1.49-4.27-5.32-4.27-5.93,0-.18-.13-.55-.29-.83-.16-.28-.7-1.69-1.2-3.13-.79-2.28-.93-3.12-1.06-6.58-.14-3.85-.12-4.01.65-5.75.67-1.49.74-1.86.43-2.24-1.24-1.49-3.43,1.22-4.26,5.26-.41,2.02-.42,2.35-.03,3.02.83,1.45.9,2.84.17,3.82-.74.99-.51,1.81.55,1.97.76.11,1.41,2.11.97,2.95-.47.88-.36,1.78.29,2.3.55.45.57.62.29,2.38-.16,1.04-.37,2.35-.46,2.91-.29,1.9-.43,2.33-.72,2.33-.17,0-.39-.23-.51-.51-.11-.28-.6-1.16-1.07-1.95-.53-.89-.83-1.75-.78-2.25.07-.64-.06-.84-.61-.98-.88-.22-1.43-1.65-1.19-3.09.14-.89.07-1.12-.45-1.39-.78-.42-.79-1.27,0-2.32.77-1.04.65-2.18-.24-2.31-.56-.08-.66-.27-.66-1.32,0-.86.18-1.37.58-1.72.67-.57.73-1.3.17-2.04-.44-.57-.31-1.42.57-3.87.62-1.72.45-2.45-.56-2.45-.56,0-.9.33-1.58,1.53-1.38,2.45-1.82,4.81-1.76,9.43.06,3.91-.47,10.89-.88,11.71-.11.22-.09,1.47.03,2.77.13,1.3.17,2.73.09,3.18-.08.47.03,1.09.27,1.46.23.35.57,1.36.76,2.24.44,2.08,4.3,9.97,5.96,12.17,1.48,1.98,3.15,3.42,5.23,4.52,1.17.62,1.85.77,3.49.78h2.04s1.38,2.84,1.38,2.84c.76,1.56,1.51,3.21,1.68,3.67.24.66.42.8.95.66,1.05-.26,1.4.19,1.58,2.02.22,2.22.51,2.62,1.48,1.99.85-.56,1.2-.24,1.26,1.18.05,1.39.4,2.32.9,2.42.27.05.53-.18.63-.55.14-.54.24-.59.62-.27.25.2.45.74.45,1.18,0,1.05.7,1.67,1.31,1.17.35-.29.57-.27,1.14.1.62.4,1.27,1.56,1,1.76-.5.35-6.71,1.98-8.52,2.23-3.49.48-5.34.17-7.36-1.26-.92-.65-2.01-1.46-2.41-1.81-1.23-1.07-3.65-2.48-5.2-3.02-1.09-.38-1.94-1.01-3.26-2.39-.98-1.03-2.45-2.58-3.28-3.45-.83-.86-2.09-1.83-2.81-2.15-.72-.32-1.53-.87-1.81-1.23-.71-.9-2.47-1.68-3.32-1.47-.38.09-1.18-.02-1.75-.27-1.4-.59-5.1-.59-6.24,0-.84.43-2.9,3.29-2.9,4.01,0,.59.87,1.66,1.35,1.66.25,0,.52-.26.6-.58.26-.98.67-.34.67,1.04,0,1.13.1,1.34.75,1.59,1.18.45,1.29.36,1.29-1.03,0-1.67.73-2.47,2.26-2.48.6,0,2.25-.03,3.68-.06l2.58-.06.49,1.59c.67,2.17,1.72,3.66,3.82,5.37.98.8,2.03,1.87,2.33,2.37.31.5,1.06,1.28,1.65,1.72.6.45,1.46,1.18,1.92,1.63,1.46,1.44,4.86,3.64,8.08,5.22.99.49,1.7,1.04,1.79,1.41.23.89,1.01,1.05,2.45.52,1.72-.64,2.78-.22,1.7.67-1.17.97.13,1.56,1.6.72.94-.53,2.04-.55,2.04-.03,0,.22-.4.56-.89.77-.77.32-1.44,1.06-1.44,1.58,0,.57,4.27-1,5.53-2.03.24-.2,1.48-.43,2.77-.51,2.24-.15,5.05-1.04,6.73-2.15,1.13-.74,2.49-.98,3.48-.62.79.28,1.12.24,2.24-.29.72-.34,1.66-.7,2.09-.81l.78-.19-.47,1.13c-.79,1.88-2.55,3.66-5.51,5.54-2.55,1.63-2.93,1.78-4.04,1.65l-1.23-.14.72.59c.9.73.57,1.16-1.04,1.38-2.54.33-3.03.45-3.03.69,0,.14.38.34.85.45.9.19,1.67.87,1.27,1.11-.13.08-.92.23-1.76.35-1.59.21-1.73.56-.45,1.05.65.25.72.4.56,1.34-.09.58-.32,1.15-.49,1.26-.64.4-5.4-.91-6.58-1.8-.18-.14-1.58-.31-3.12-.39-1.54-.08-3.13-.27-3.55-.43-1.13-.43-2.46-.35-2.65.15-.25.64-.88.54-3.99-.61-3.13-1.16-4.14-1.19-2.37-.07,1.64,1.03,2.12,1.65,1.58,2-.55.36-2.48.04-3.83-.64-1.12-.57-2.26-.72-2.26-.31,0,.13.51.52,1.13.87,1.19.67,1.97,1.43,1.71,1.68-.08.08-.7.18-1.36.21-1.17.06-1.24.01-2.02-1.4-.6-1.08-1.79-2.26-4.63-4.59-2.75-2.25-4.04-3.52-4.61-4.53-.46-.83-1.13-1.55-1.63-1.78-.47-.21-.99-.66-1.14-1.02-.54-1.18-6.43-5.97-8.25-6.71-.32-.13-1.3-.33-2.18-.44-.88-.11-2.87-.38-4.42-.6l-2.82-.38-2.28.86c-1.99.75-2.34.99-2.8,1.93-.29.59-.6,1.54-.69,2.1-.15.91-.08,1.07.63,1.39.68.31.85.29,1.16-.14.2-.28.64-.5.98-.5.52,0,.63.17.63,1.02,0,1.08.81,2.18,1.6,2.18.3,0,.44-.3.44-.95,0-2.01,1.59-3.11,4.7-3.26,1.3-.07,2.21-.26,2.53-.55.61-.55.91-.36,1.73,1.06.67,1.16.62,1.26-.79,1.43-1.3.16-.92.68,1.04,1.4,2.4.89,2.72,1.45.85,1.45-1.49,0-1.76.45-.53.88.44.16,1.03.41,1.3.57.28.16.89.29,1.35.29.71,0,1,.24,1.68,1.38.45.76.89,1.52.97,1.68.08.16.53.87.98,1.59.53.81.72,1.34.51,1.41-.64.21-.32.81.74,1.38.59.31,2.42,1.91,4.05,3.55,3.23,3.22,5.37,4.74,6.69,4.74,1,0,2.83.46,4.06,1.02.49.22,2,.49,3.35.58,1.35.1,3.37.46,4.49.8,1.67.51,2.82.63,6.41.64,4.79.02,7.77-.48,10.51-1.77.82-.38,1.97-.7,2.55-.7,2.36,0,7.06-3.09,10.96-7.21,2.49-2.63,2.63-2.73,1.88-1.4-.45.79-.96,2.03-1.15,2.76-.24.94-.51,1.35-.9,1.42-.31.05-.91.67-1.35,1.37-.47.77-1.17,1.45-1.75,1.7-1.27.55-2.73,2.17-3.47,3.84-.71,1.6-2.42,3.58-3.42,3.96-.8.3-.56.76.47.91.36.06.72.18.82.27.25.25-.45,2.67-.84,2.92-.18.12-1.22.22-2.3.22-1.08,0-1.96.12-1.96.26s.95.56,2.11.92c2.71.85,2.89,1.02,1.89,1.9-.6.52-1.02.65-1.64.53-.5-.1-.92-.02-1.05.19-.26.42.27.81,1.39,1.06,1.05.23,1.2.52.74,1.44-.37.75-.45.77-3.29.8-2.61.03-3.1.13-4.8.94-1.04.5-2.31,1.31-2.83,1.82-1.01.98-1.26,1.02-3.28.64-1.95-.37-2.31.02-.89.96,1.63,1.08,1.53,1.46-.28,1.21-1.49-.2-1.84.04-1.02.73.24.2.44.45.44.57,0,.44-1.55.89-3.07.89-1.72,0-1.85.1-1.09.94.47.52.45.62-.21,1.84-.79,1.44-1.24,1.55-3.98,1.02-.77-.15-2.77-.48-4.45-.74-2.78-.43-3.25-.43-5.19-.02-1.18.25-2.23.39-2.35.32-.11-.07-1.64-.27-3.39-.45-1.75-.17-3.9-.52-4.78-.77-3.49-1-8.22-.32-15.11,2.17-3.21,1.16-4.66,2.19-5.52,3.91ZM67.23,115.08c-1.05,0-2.14.22-2.86.56-1.06.5-2.28.55-3.58.14-.27-.08-.29-.27-.1-.64.45-.83,3.43-1.36,5.92-1.06,2.65.33,3.06.98.62.99ZM79.19,123.05c-.28.73-.5.57-1.92-1.36-.73-1-1.61-2.34-1.95-2.98-.34-.64-.84-1.47-1.12-1.86l-.5-.7.9.46c.49.26,1.76,1.29,2.82,2.31,1.96,1.87,2.31,2.69,1.76,4.12ZM91.08,134.26c-.28.49-.72.89-.98.89s-.64.2-.84.44c-.43.52-.65.55-1.08.11-.2-.2-.27-.91-.16-1.89.15-1.45.11-1.57-.45-1.57-.35,0-.68.25-.79.58-.1.32-.31.58-.45.58-.36,0-.35-.5.02-.73.41-.26.36-.82-.14-1.47-.43-.55-.45-.55-1,.15l-.56.72-.59-.72c-.41-.5-.53-.94-.4-1.44.39-1.51.26-2.18-.46-2.28-.49-.07-.72.07-.83.51-.15.58-.18.57-.75-.15-.63-.8-.89-2.36-.62-3.68.21-1.04.74-1.02,1.38.07.58.99,3.98,4.11,5.81,5.34,1.64,1.1,2.51,1.93,3,2.88.36.69.35.89-.1,1.67ZM119.25,136.19c0,.23-.21.42-.47.42-.39,0-.44.2-.29,1.14.2,1.24.21,1.22-1.77,1.62-.9.18-.94.15-1.25-1.07-.5-1.94-.55-2.03-1.09-1.92-.54.11-.59.53-.29,2.34.14.82.08,1.1-.22,1.1-.26,0-.46-.55-.59-1.68-.27-2.35-.41-2.74-.97-2.62-.39.08-.49.47-.51,2.12-.02,2.61,0,2.53-.91,2.42-.73-.08-.84-.28-1.5-2.79-.58-2.18-.82-2.69-1.26-2.69-.87,0-.93.74-.24,2.89.65,2.03.6,2.96-.14,2.35-.21-.17-.47-1.15-.58-2.18-.2-1.86-.7-2.72-1.35-2.32-.24.15-.29.85-.16,2.37.16,1.94.13,2.15-.32,2.07-.33-.06-.57-.5-.7-1.26-.34-1.92-.78-2.82-1.34-2.71-.54.11-.61,1.05-.2,2.66.19.75.14.82-.49.73-.63-.09-.69-.21-.6-1.51.08-1.32.05-1.4-.57-1.31-.49.07-.75.39-.98,1.2-.17.61-.4,1.1-.52,1.1-.11,0-.33-.02-.48-.02s-.31-.36-.37-.8c-.12-1.03-1.21-1.15-1.35-.15-.19,1.33-2.02.6-2.51-1-.21-.71.47-1.26,1.58-1.26.63,0,2.98-1.18,3.81-1.92.68-.6,3.62-1.06,5.49-.86.89.1,2.47.16,3.51.15,1.83-.02,4.89.72,6.8,1.65.45.22,1.06.4,1.36.4.64,0,1.45.74,1.45,1.33ZM79.58,97.82c-3.48.07-3.8.03-3.28-.37.69-.53,4.77-.57,6.19-.05.82.3.43.36-2.91.42ZM94.31,106.11c-.08.12-.76.23-1.53.23-1.13,0-1.52-.15-2.13-.8-.92-.98-2.56-4.03-2.56-4.77,0-.31.21-.54.48-.54.55,0,5.96,5.53,5.74,5.88ZM104.54,114.14c-.48.05-1,.22-1.15.37-.37.36-.66.34-.91-.05-.1-.17-.05-.46.13-.64.17-.18.32-.56.32-.85,0-.67-1.07-.7-1.79-.05-.71.64-1.48.06-1.24-.93.27-1.05-.11-1.41-.92-.88-.92.61-.99.59-1.34-.42-.2-.58-.5-.88-.89-.88-.63,0-2.27-1.05-2.27-1.44,0-.13.45-.32.99-.43,1.61-.3,4.9,1.18,7.19,3.25.42.37,1.2.92,1.75,1.21,1.27.69,1.34,1.59.11,1.72ZM106.84,115.48c-.19.51-.99.65-.99.18,0-.16.06-.29.12-.29s.33-.08.59-.18c.34-.13.41-.05.28.29ZM104.69,89.82c0-.12.34-.61.74-1.09.72-.85.73-.85.54-.15-.11.4-.33.89-.49,1.09-.32.4-.81.49-.8.14ZM92.75,63.29c0,.44-.88.28-1.06-.19-.09-.25-.09-.53,0-.63.21-.21,1.06.45,1.06.82ZM93.33,64.99c0,.17-.13.31-.29.31s-.29-.06-.29-.13.13-.21.29-.31c.16-.1.29-.04.29.13ZM101.78,77c0,.91.13,1.17.7,1.39.39.15,1.09.83,1.56,1.52,1.21,1.75,2.98,5.21,2.98,5.81,0,.28.14.59.32.7.23.14.23.28,0,.51-.23.23-.44.14-.77-.32-.25-.36-.62-.65-.82-.65-.52,0-1.47,1.09-2.21,2.53-.64,1.23-1.46,1.46-1.46.4,0-.64.87-3.28,1.2-3.64.34-.37.32-1.25-.03-1.47-.55-.34-1.53.5-2.13,1.84-.34.74-.62,1.54-.63,1.77,0,.23-.18.47-.38.54-.46.15-.47-1.07-.04-4.28.27-1.98.25-2.45-.08-2.66-.22-.14-.49-.25-.61-.26-.45,0-.91,1.39-1,3.02-.05.95-.16,1.79-.25,1.88-.31.31-.95-.7-1.26-1.99-.29-1.19-.25-1.46.44-2.82.82-1.63.75-2.42-.19-2.42-.42,0-.79.39-1.23,1.31-1.03,2.13-1.46,1.62-1.06-1.29.14-1.03.45-2.17.69-2.53.99-1.51-.55-2.16-1.6-.68-.35.48-.75.8-.9.71-.31-.19-.17-.92.69-3.7.47-1.52.53-2.04.27-2.31-.27-.27-.54-.2-1.19.28-.74.55-.87.57-1.03.17-.82-2.12,2.34-4.88,3.36-2.94.95,1.81,3.05,4.65,4.75,6.46,1.67,1.76,1.91,2.16,1.91,3.14ZM106.5,79.43c-.08.45-.25.64-.4.49-.15-.15-.18-.48-.08-.75.29-.76.64-.57.48.26ZM111.73,80.19c-.05,1.89-.08,1.95-.85,2.04-.54.06-.76.24-.7.53.25,1.02.15,2.58-.18,2.98-.19.24-.73.42-1.18.4-.71-.03-.8-.13-.68-.75h0c.08-.39.4-.93.72-1.18.41-.34.59-.85.61-1.76.03-1.12-.06-1.3-.61-1.38-.48-.07-.69.09-.83.65-.25.97-1,.99-1,.02,0-.4.11-.73.25-.73.36,0,1.29-2.54,1.06-2.9-.1-.17-.54-.3-.99-.3-.73,0-.8-.08-.68-.87.09-.65,0-.88-.32-.88-.48,0-1.23.64-1.45,1.23-.1.29-.21.29-.5.02-.3-.28-.3-.6,0-1.65.2-.72.27-1.44.17-1.62-.29-.47-1.03-.38-1.03.12,0,.24-.12.44-.28.44-.46,0-.68-.62-.34-.96.18-.17.32-.62.32-.98,0-.82-.92-1.39-1.42-.89-.27.27-.41.25-.62-.08-.45-.7-.33-.99.61-1.52,1.16-.66,1.11-1.78-.09-1.91-.91-.11-1.08-.8-.25-1.07.71-.22,1-.99.59-1.49-.26-.31-.17-.46.39-.72.67-.31.88-.16,3.25,2.3,2.62,2.72,3.83,4.47,5.18,7.49.85,1.91.94,2.46.86,5.43ZM125.36,99.07c0,.15-.26.94-.56,1.76-.45,1.18-.5,1.64-.25,2.19.18.38.43.7.56.7.38,0,.29.53-.21,1.3-.4.62-.67.7-2.15.68l-1.69-.02.04-.9c.03-.77-.12-.97-1.08-1.43-1.02-.49-1.17-.49-1.62-.08-.45.41-.55.37-1.14-.42-.51-.68-.58-.99-.35-1.43.61-1.13.39-1.56-.7-1.38-.94.15-1.03.09-1.33-.84-.18-.55-.48-1-.67-1.01-.4-.01-2.12-2.28-2.51-3.3-.15-.39-.41-.79-.58-.9-.17-.1-.31-.52-.31-.93s-.21-1.1-.47-1.53c-.45-.77-.44-.83.28-1.55l.75-.75.96,1.17c.53.64,1.32,1.6,1.76,2.12.44.52.8,1.16.8,1.42s.17.47.37.48c.2,0,1.02.6,1.82,1.32l1.45,1.31-.84.69c-.97.8-.87,1.62.2,1.62.83,0,1.52-1.11,1.23-2.01-.18-.57-.12-.61.62-.43,1.16.28,1.26.37,1.26,1.05,0,.53.13.58,1.1.43,1.19-.19,3.26.25,3.26.69ZM126.51,106.79c-.38.46-.86.56-.86.19,0-.13.18-.48.39-.77.29-.39.45-.44.61-.19.12.19.06.54-.14.77ZM127.68,112.85c0,1.11-.26,1.54-.99,1.68-.35.07-.65.46-.81,1.05-.31,1.22-1.14,1.26-1.59.07-.18-.48-.47-.87-.64-.87-.4,0-.73,1.31-.5,1.93.18.47-.27,1.27-.72,1.27-.13,0-.33-.49-.43-1.1-.31-1.84-.45-2.11-1.05-2.11-.52,0-.58.18-.54,1.67q.06,2.18-.37,2.04c-.2-.07-.48-.74-.62-1.49-.21-1.17-.34-1.36-.87-1.29-.61.09-.67.24-.74,2.08-.02.62-.16.8-.54.72-.38-.08-.52-.4-.54-1.34-.03-1.45-.26-1.76-.93-1.34-.31.19-.53.77-.59,1.52-.13,1.73-1.31,1.55-1.55-.25-.13-.97-1.27-1.18-1.56-.28-.14.44-.34.56-.68.41-.27-.11-.91-.27-1.43-.35-.64-.09-.95-.29-.95-.63,0-1.13.66-1.46,3.58-1.78,1.85-.2,3.89-.68,5.77-1.34,1.74-.61,3.19-.96,3.59-.86.37.09,1.04-.01,1.5-.23.55-.27,1.4-.35,2.51-.25,1.65.15,1.67.16,1.67,1.06ZM128.85,107.5c0,.39-.19.58-.58.58-.32,0-.58-.06-.58-.12s.08-.33.18-.58c.25-.66.99-.57.99.12ZM237.78,41.42c.29,0,.53.12.53.26,0,.42-1.55-.1-1.69-.57-.1-.34-.06-.35.25-.06.21.2.62.37.91.37ZM237.93,44.22c.25-.25.98.43.79.73-.24.38-.62.31-.8-.15-.09-.22-.08-.48.01-.58ZM239.17,33.27c0,.32-.13.58-.29.58s-.29-.26-.29-.58.13-.58.29-.58.29.26.29.58ZM239.17,36.35c0,.54-.91.46-1.1-.09-.07-.21.13-.36.49-.36s.61.18.61.45ZM239.15,39.58c-.38.38-1.28.18-1.76-.39-.5-.6,0-.94,1.13-.77.96.15,1.2.59.63,1.16ZM240.92,47.14c0,.77-.4,1.18-.53.54-.05-.27.04-.64.22-.82.23-.23.32-.15.32.28ZM243.7,48.12c-.25,0-.45-.13-.45-.29s.12-.29.28-.29.36.13.45.29c.09.16-.03.29-.28.29ZM245.46,44.92c.07,0,.12.12.12.27,0,.23-.43.43-1.21.57-.1.02-.12-.23-.03-.56.1-.37.31-.53.58-.44.23.09.48.16.54.16ZM246.16,39.55c0,.25-.13.37-.29.27-.16-.1-.29-.3-.29-.45s.13-.27.29-.27.29.2.29.45ZM246.88,42.89c-.22.36-1.59-.32-1.59-.79,0-.55,1.35-.49,1.57.07.09.26.1.58.02.72ZM234.19,75.55c-.2-.2-.61-.36-.92-.36-.39,0-.52-.18-.45-.65.08-.51.29-.66.96-.66,1.16,0,1.37-.9.32-1.3-.41-.16-.75-.37-.75-.48s.34-.92.76-1.8c.42-.89.93-2.6,1.13-3.81.92-5.49,1.86-8.63,2.74-9.18.15-.09.63-.03,1.06.13.56.21.9.2,1.18-.03.54-.45.05-1.31-.9-1.55-.8-.2-.87-.38-.45-1.04.22-.35.43-.37,1.14-.1.69.26.99.25,1.4-.08.5-.39.49-.43-.14-.97-.36-.31-.82-.62-1.02-.69-.26-.1-.23-.27.12-.63.38-.41.59-.44,1.1-.16.71.37,1.64.18,1.86-.39.2-.52-.13-.98-.89-1.26-.47-.17-.56-.35-.37-.67.22-.36.42-.37,1.21-.08.79.3,1.06.29,1.64-.1.42-.27.89-.37,1.18-.23.26.12.75.23,1.06.24.44.01.64.31.84,1.26.29,1.4.12,1.79-.56,1.23-.38-.32-.53-.31-.89.05-.38.38-.36.51.13,1.14.31.39.8,1.24,1.09,1.87.29.64.58,1.27.65,1.42.07.14-.28-.04-.76-.4-1.08-.8-1.64-.59-1.17.45.18.39.44.72.56.72.28,0,1.23,1.74,1.05,1.92-.07.06-.36-.15-.65-.46-.51-.56-1.32-.77-1.67-.42-.18.18,1.24,2.46,2.19,3.53.37.41.5.82.37,1.16-.17.45-.34.37-1.17-.61-.69-.81-1.1-1.08-1.46-.94-.47.18-.47.24-.03.85.26.36.74,1.24,1.07,1.96.33.72.76,1.51.96,1.74.43.52.45,1.51.03,1.64-.16.05-.59-.36-.95-.92-1.13-1.74-2.05-1.12-1.09.73.4.78.39.85-.15,1.02-.32.1-.58.36-.58.56,0,.56.89,2.61,1.23,2.82.33.21.03,1.42-.36,1.42-.14,0-.33-.13-.43-.29-.1-.16-.44-.29-.74-.29-.65,0-.78,1.09-.25,2.08.45.85.09,2-.62,2-.42,0-.64.25-.76.9-.24,1.22-.85,1.37-1.8.45-.95-.91-1.37-.96-1.77-.21-.19.37-.49.5-.88.4-.46-.12-.59,0-.62.53-.02.38-.02.79,0,.9.02.12-.09.22-.25.22s-.37-.53-.47-1.18c-.1-.65-.38-1.37-.61-1.6-.36-.37-.34-.53.18-1.26,1.16-1.63-.37-2.53-1.62-.97-.52.64-.71.73-1.01.44ZM233.35,80.72c0-.16.13-.29.29-.29s.29.13.29.29-.13.29-.29.29-.29-.13-.29-.29ZM232.9,76.94c1.02-.39,1.03-.39,1.03.24,0,.98-.81,1.26-1.45.49-.3-.36-.23-.48.42-.73ZM231.89,69.36c-.95-.5-1.31.03-.76,1.1.33.64.38,1.12.19,1.85-.14.54-.33,1.64-.42,2.44-.26,2.39-.3,2.61-.58,2.81-.46.33-.98-.06-.84-.63.09-.35-.08-.68-.47-.92-.82-.51-.77-.72.27-1.26,1.68-.87.77-1.99-1.08-1.33-1.14.41-1.62.2-.84-.37.79-.58.47-1.49-.56-1.61-.48-.05-1.04-.24-1.26-.42-.31-.26-.23-.4.37-.71.79-.41.95-.8.45-1.1-.16-.09-.29-.44-.29-.76s-.39-1.16-.88-1.86c-.54-.79-.76-1.34-.57-1.46.37-.23,1.16.37,1.16.9,0,.49,1.13.86,1.5.49s-.34-2.07-1.17-2.8c-.35-.3-.62-.73-.62-.93,0-.77.54-.66,1.59.32.59.56,1.2,1.01,1.35,1.01.68,0,.5-.9-.45-2.35-1.11-1.69-1.28-2.44-.61-2.7.27-.1.85.34,1.57,1.18,1.11,1.3,1.79,1.47,1.79.44,0-.28-.47-1.2-1.05-2.05-1.16-1.72-1.02-2.5.26-1.48,1.38,1.09,1.9-.18.72-1.78-.76-1.02-.46-1.85.68-1.9.38-.02.86-.05,1.06-.07.42-.05.48-1.16.09-1.77-.43-.67.14-1.42.96-1.26.97.18,1.21-.36.75-1.74-.38-1.14-.37-1.18.47-1.87.57-.46,1.06-.63,1.44-.51.32.1.93.2,1.35.23.43.02.84.1.92.18.08.08-.09,1.45-.38,3.06-.38,2.08-.99,3.95-2.14,6.59-.89,2.02-1.7,4.32-1.81,5.09-.11.78-.39,1.71-.62,2.08-.3.47-.37,1.05-.23,1.97.15,1.01.1,1.29-.22,1.29-.23,0-.55-.15-.74-.32-.18-.18-.47-.24-.64-.13-.22.14-.06.66.47,1.62.86,1.54.8,1.99-.21,1.45ZM215.89,106.57c0-.43.31-1.04.74-1.44,1.16-1.07,1.59-2.12,1.59-3.85,0-.88.13-1.68.29-1.78.16-.1.29.08.29.38,0,.7.73,1.34,1.27,1.13.4-.15.79-1.46.82-2.75,0-.36.12-.65.26-.65s.28.29.33.65c.07.48.29.65.82.65.67,0,.74-.12.88-1.6.1-1.17.27-1.63.61-1.69.53-.1.95,1.05.66,1.8-.11.28.02.53.33.65.7.27,1.3-.63,1.14-1.68-.07-.46-.19-1.21-.26-1.67-.09-.61.15-1.27.89-2.4,1.29-2,2.61-4.78,2.88-6.08.26-1.25,1.59-4.08,1.92-4.08.45,0,.48.44.23,2.76-.18,1.61-.16,2.57.07,3.12.28.66.23.95-.29,1.78-.41.66-.61,1.48-.61,2.45s-.16,1.59-.44,1.82c-.24.2-.44.61-.44.91,0,.32-.31.67-.74.83-.62.24-.73.45-.67,1.3.04.56-.08,1.17-.27,1.35-.19.19-.26.7-.17,1.18.11.57,0,1.01-.34,1.4-.51.56-.52.55-1.04-.08-.5-.61-.55-.62-1.03-.14-.43.42-.46.66-.19,1.53.18.58.2,1.03.05,1.03-.14,0-.26-.19-.26-.42s-.14-.51-.32-.62c-.56-.34-.94.39-.92,1.73,0,.85-.12,1.35-.38,1.45-.46.18-.52.11-.98-1.35-.19-.6-.52-1.09-.73-1.09-.76,0-.98.7-.72,2.32.25,1.58-.08,2.72-.41,1.41-.24-.96-2.28-2.9-2.75-2.61-.29.18-.25.51.21,1.52.32.71.59,1.61.59,2.01,0,.71,0,.7-.65-.21-.36-.51-.86-.94-1.11-.94-.25,0-.61.15-.8.34-.27.27-.35.18-.35-.41ZM263.76,98.29c.28.1.55.19.62.19.07,0,.12.2.12.44,0,.64-.51.54-.9-.19-.29-.54-.27-.6.16-.44ZM254.6,100.49c0-.73,1.33-2.1,2.54-2.61,1.72-.74,3.74-.74,4.14-.01.41.77.14.91-1.71.91-1.38,0-1.85.15-3.08,1-1.57,1.09-1.88,1.21-1.88.72ZM240.43,115.64c-.67,0-1.3-.11-1.39-.26-.09-.15.32-.64.93-1.09.6-.45,1.42-1.17,1.82-1.59.4-.43,1.68-1.27,2.85-1.87,1.47-.76,2.08-1.22,1.97-1.51-.09-.23,0-.69.17-1.03.65-1.21,3.17-4.23,4.17-4.99l1.02-.78-.27.72c-.15.4-1.12,1.97-2.16,3.48-1.04,1.52-1.81,2.83-1.72,2.92.08.09-.25.4-.75.68-.5.29-1.02.85-1.17,1.26-.15.41-.74,1.13-1.32,1.6-.58.47-1.48,1.21-2,1.65-.69.58-1.27.8-2.16.8ZM237.15,117.15c.35-.37.82-.6,1.06-.5.24.09.62.17.84.17.5,0,.54.91.07,1.4-.45.45-1.45.45-2.08-.02-.47-.35-.46-.41.12-1.04ZM217.43,116.53c1.28,0,3.11.54,3.11.92,0,.17-.26.24-.58.16-.32-.08-.65-.03-.74.11-.09.15.16.27.56.27s.8-.12.89-.26c.08-.14.85-.33,1.69-.43.84-.09,2.15-.28,2.9-.43,1.43-.26,1.51-.24,4.88,1.55.56.29,1.43.51,1.94.47.72-.05,1.13.15,1.82.89,1.07,1.14,1.12,1.55.24,1.79-1.47.39-2.72.19-3.42-.55-1.09-1.17-1.59-.97-1.48.58.04.57.03.57-.4.01-.25-.31-.45-.67-.45-.8,0-.6-1.12-.17-1.28.49-.13.53-.38.73-.89.73-.7,0-.78-.13-1.16-1.84-.15-.64-.33-.8-.83-.73-.49.07-.67.32-.74,1.06-.1,1.04-.76,1.16-.81.14-.07-1.33-.95-1.67-1.67-.65-.41.58-.47.58-1.33.14-.55-.29-.9-.69-.9-1.05,0-.74-.65-1-1.44-.57-.46.25-.8.23-1.4-.06-1.68-.8-.81-1.98,1.47-1.97ZM269.49,115.04c.22-.14,1.05-.24,1.85-.22l1.46.03-1.6.35c-1.63.37-2.41.29-1.71-.16ZM246.74,137.43c0-.15.51-.89,1.13-1.64.62-.75,1.47-1.96,1.89-2.69.78-1.36,2.27-2.73,3.84-3.55,1.34-.7,4.39-1.67,5.21-1.67.97,0,1.85-1.26,1.32-1.9-.2-.24-.54-.44-.76-.44-.59,0-.49-.38.4-1.54.44-.57,1.32-1.79,1.96-2.7,1.77-2.54,2.59-3.41,3.9-4.15,1.04-.58,1.22-.61,1.37-.22.09.25-.2,1.08-.65,1.84-.45.76-1.04,1.86-1.31,2.44-.27.58-.62,1.14-.78,1.24-.16.1-.38.57-.49,1.05-.14.61-.49,1.01-1.19,1.34-.64.3-1.07.75-1.18,1.24-.1.42-.84,1.58-1.64,2.58-1.21,1.5-1.66,1.85-2.65,2.05-1.01.21-1.18.35-1.12.9.07.59-.02.64-.75.48-1.06-.23-1.78.46-1.2,1.16.5.6.18.84-.58.43-.48-.26-.73-.25-1.05.02-.37.31-.36.42.07.9.7.77.12,1.35-.88.9-.55-.25-.83-.23-1.25.09-.52.4-.51.44.15,1,.78.66.66,1.59-.18,1.34-.28-.09-.69-.05-.9.08-.47.29-2.67-.21-2.67-.61ZM239.42,135.21c-.42-.18-.37-.33.34-1.18l.82-.98.49.75c.85,1.29-.05,2.05-1.65,1.4ZM220.67,138.79c.21-1.11.98-1.53,1.84-.99.46.28.98.16,3-.69,1.35-.57,2.94-1.18,3.54-1.37,1.45-.45,4.37-.15,7.5.78,3.96,1.18,5.5,1.54,6.51,1.54.72,0,1.1.21,1.59.86.35.47.64,1.11.64,1.42,0,.47-.27.58-1.82.7-1.34.11-1.9.04-2.14-.26-.47-.58-1.31-.49-1.48.16-.16.61-.85,1-1.28.74-.14-.09-.26-.49-.26-.89,0-.8-.74-1.25-1.23-.75-.17.17-.33.75-.34,1.27-.02.75-.17.98-.65,1.05-.46.06-.67-.11-.81-.67-.1-.41-.11-.89,0-1.05.29-.48-.14-1.72-.6-1.72-.66,0-.99.94-.82,2.27.15,1.1.1,1.22-.46,1.22s-.62-.16-.62-1.76c0-1.33-.11-1.8-.45-1.93-.78-.3-1.1.39-1.03,2.24.06,1.59,0,1.77-.46,1.67-.29-.06-.48-.3-.42-.53.27-1.04.15-3.78-.18-4.11-.63-.63-1.08.21-1.09,2.08,0,1.72-.39,2.58-1,2.2-.17-.11-.31-.98-.31-1.94,0-1.74,0-1.75-.8-1.66-.78.09-.8.14-.72,1.66.07,1.34.02,1.54-.39,1.38-.26-.1-.6-.19-.75-.19s-.53-.59-.84-1.31c-.31-.72-.64-1.31-.74-1.31-.53,0-1.3.68-1.3,1.14,0,.41-.17.5-.73.39-.95-.18-1.11-.48-.89-1.67ZM275.85,179c0-.48,6.52-.61,7.61-.16,1.08.45.92.95-.36,1.17-1.38.24-5.48,0-6.45-.37-.44-.17-.8-.46-.8-.64ZM263.35,177.55c.07-.08,1.57-.16,3.34-.18,3.01-.05,6.51.43,7.03.95.45.46-.55.71-1.74.44-.66-.15-2.77-.24-4.67-.18-3.01.08-3.51.03-3.78-.4-.17-.27-.25-.55-.18-.63ZM245.85,176.28c.52-.62.64-.64,2.83-.37,1.26.16,3.46.35,4.9.44,3.51.21,6.99.96,7.6,1.64.46.51.46.54-.11.54-.41,0-.64.22-.7.65-.12.83-1.41,1.04-2.33.38-.87-.61-1.4-.57-1.4.09,0,.55-.53.9-1.36.9-.25,0-.82-.4-1.28-.9-.46-.49-.97-.81-1.14-.71-.38.24-.39,1.23,0,1.46.17.1.22.3.13.45-.35.55-.89.21-1.65-1.04-.57-.95-.92-1.25-1.26-1.11-.35.13-.44.4-.31,1.01.14.69.07.83-.4.83-.65,0-1.17-.81-1.17-1.84,0-.39-.19-.79-.43-.88-.65-.25-1.39.65-1.19,1.46.25.97-.64.91-1.01-.06-.43-1.13-.33-2.24.28-2.96ZM253.44,222.12c.93,1.38,2.3,4.17,2.32,4.69,0,.29-.23.35-.9.22-.5-.1-1.22-.18-1.6-.18-.64,0-.69-.11-.69-1.61,0-.89-.19-2.08-.44-2.65-.77-1.84.17-2.17,1.31-.46ZM240.92,212.72c0-.09.77-.07,1.7.03,1.28.15,1.92.08,2.6-.28l.9-.46,1.33,1.56c.73.85,1.33,1.65,1.33,1.77s.37.7.83,1.28c.46.58.92,1.55,1.03,2.15.17.93.12,1.09-.32,1.09-.29,0-.9-.34-1.36-.75-.62-.55-.75-.82-.51-1.07.4-.4.44-1.38.05-1.38-.15,0-.61.15-1.01.33-.8.36-1.63-.04-1.63-.79,0-.21-.32-.73-.71-1.16-.57-.61-.89-.73-1.55-.58-.67.15-1.01,0-1.76-.71-.51-.49-.93-.96-.93-1.04ZM230.76,202.79c.74-1.18.97-1.15,3.9.58,1.12.66,2.62,1.52,3.35,1.9.72.38,1.52.88,1.77,1.09.25.22.58.4.74.4.88,0,3.89,3.01,3.89,3.89,0,.23-.6.23-2.53,0-1.25-.15-1.53-.29-1.6-.8-.09-.67-.69-.74-2.52-.32-.95.22-.97.2-.63-.43.5-.93,0-1.39-1.01-.94-1.09.5-1.47.42-.91-.19.67-.74.6-1.18-.25-1.51-.4-.15-.73-.41-.73-.57,0-.47-.92-.35-1.53.21-.53.48-.58.48-.93,0-.2-.28-.31-.83-.23-1.24.14-.71-.08-.87-1.02-.75-.51.07-.46-.19.25-1.34ZM130.3,207.22c0-.07.13-.21.29-.31.16-.1.29-.04.29.13s-.13.31-.29.31-.29-.06-.29-.13ZM127.68,212.88c0-.16.13-.29.29-.29s.29.13.29.29-.13.29-.29.29-.29-.13-.29-.29ZM125.94,214.04c0-.16.13-.29.29-.29s.29.13.29.29-.13.29-.29.29-.29-.13-.29-.29ZM118.22,229.31c-.53.09-1.3.02-1.72-.17-1.11-.51-1.59.04-.93,1.05.4.6.41.74.08.74-.23,0-.49-.32-.6-.72-.11-.46-.46-.8-.94-.91l-.76-.19,1.12-.94c.98-.83,1.07-1,.73-1.42-.3-.36-.66-.43-1.41-.29-.8.15-.99.1-.89-.21.08-.25.66-.44,1.51-.49.92-.06,1.43-.24,1.55-.55.23-.59-.65-1.25-1.67-1.25-.43,0-.85-.08-.96-.18-.33-.33.38-1.27.96-1.27.89,0,2.01-.62,2.2-1.21.27-.83-.12-1.18-1.08-.97l-.87.19.51-.83c1.39-2.24,3.06-3.33,4.19-2.73.7.37,1.46-.02,1.46-.76,0-.53.71-.51,1.17.04.2.24.62.44.93.44.48,0,.54-.14.38-.88-.26-1.18.5-1.48,1.47-.56.82.76.93,1.44.25,1.44-.38,0-.43.19-.27,1.05.15.79.07,1.18-.31,1.61-.47.53-.47.62-.03,1.56l.47,1-.92.73-.93.72.65.88c.84,1.15,1.25,2.23,1.04,2.78-.26.67-.63.53-1.12-.43-.4-.78-1.7-1.47-2.06-1.1-.08.08.15.88.49,1.79.35.9.55,1.73.44,1.84-.11.11-.63-.22-1.15-.73-.52-.51-1.17-.93-1.45-.93-.6,0-.6.05-.07,1.32.38.92.16,1.44-.29.69-.12-.19-.58-.25-1.15-.14ZM124.48,246.07c0,.5-.09.55-.56.29-.31-.17-.65-.44-.75-.61-.1-.16-.01-.51.19-.76.32-.38.29-.52-.16-.85-.3-.22-.46-.58-.37-.83.09-.24-.13-.81-.5-1.25-.37-.45-.74-1.19-.83-1.66l-.16-.86.5.66c.51.68,1.12,1.84,1.76,3.38.2.48.48,1.1.62,1.38.14.28.26.77.26,1.1ZM124.77,247.49c0,.14-.32.33-.71.43-.39.1-1.21.76-1.82,1.48-1.11,1.29-1.65,1.58-1.98,1.03-.09-.16-.04-.53.12-.84.42-.78-.35-1.45-1.01-.9-.33.27-.54.29-.77.06-.33-.32-.23-.7.41-1.59.54-.75-.14-1.37-.95-.87-.65.41-.76.08-.27-.83.37-.69-.1-1.72-.78-1.72-.38,0-.43-.23-.27-1.28.12-.79.08-1.36-.11-1.47-.17-.1-.31-.53-.31-.95s-.2-.98-.44-1.25c-.66-.72-.26-2.3.67-2.65.78-.29,1.86.28,3.64,1.95.94.88.85,1.28-.12.6-.48-.34-.76-.38-1.04-.14-.52.43-.48.76.17,1.59.3.39.49.95.41,1.26-.09.36.07.66.46.88.38.21.61.61.61,1.09,0,.42.23,1.03.51,1.35.37.42.41.61.15.7-.7.24-.36.95.84,1.71,1,.63,1.32.71,1.89.45.38-.18.69-.2.69-.06ZM125.42,252.48c-.12.61,2.27,4.16,3.96,5.88,1.12,1.15,1.28,1.44.92,1.67-.24.15-.53.27-.63.28-.11,0-.28.27-.38.59-.23.74-.78.74-1.44,0h0c-.37-.4-.47-.83-.35-1.43.2-1.01-.47-1.82-1.04-1.25-.87.87-1.68-.16-.95-1.21.24-.34.44-.79.44-.99,0-.46-.93-.48-1.39-.03-.56.56-.75.04-.35-.94.31-.76.31-.95-.04-1.17-.22-.14-.56-.2-.75-.14-.55.2-1.05-.64-.85-1.43.22-.88,1.59-2.43,2.21-2.5,1.07-.12,1.43.14,2.88,2.05,1.82,2.39,1.87,3.28.07,1.33-1.24-1.35-2.13-1.63-2.3-.72ZM132.63,258.94c0,.13-.26.1-.58-.07-.32-.17-.58-.48-.58-.69s-.33-.69-.73-1.06c-.4-.37-.72-.82-.71-1,.01-.36,2.61,2.45,2.61,2.82ZM135.53,262.68c-.01.61-.65,1.34-1.31,1.51-1.02.26-1.07.22-.89-.52.26-1.04-.61-1.34-1.33-.45-.51.63-.57.64-1.27.18-.84-.55-.88-.78-.29-1.9.39-.76.54-.82,1.6-.67.77.1,1.17.04,1.17-.17,0-.18.19-.33.42-.33.49,0,1.91,1.76,1.9,2.36ZM95.86,198.46c-1.98.83-3.38,3.14-4.45,7.36-.15.57-1.85,1.19-1.85.68,0-.93,2.13-6.06,2.82-6.8,1.05-1.12,3.25-2.54,3.93-2.54.88,0,.58.88-.45,1.31ZM103.89,196.05c-1.3.27-3.83.22-4.01-.07-.11-.17-.13-.38-.06-.45.39-.39,3.23-1.22,3.65-1.06.98.36,1.26,1.42.42,1.59ZM122.15,191.84c0,.08-.53.06-1.17-.04-.71-.11-1.17-.07-1.17.11,0,.45-.75.35-1.17-.16-.2-.25-.65-.41-.98-.37-.47.07-.59.27-.53.89.06.56-.05.8-.36.8-.25,0-.45-.18-.45-.4s-.2-.57-.44-.77c-.63-.53-1.4.17-1.18,1.07.22.89-.06.86-1.07-.11-.74-.72-.86-.74-1.27-.33-.39.38-.4.55-.08,1.06.56.91.12,1.06-.89.31-.71-.52-.97-.59-1.25-.31-.28.28-.28.47,0,.92.77,1.23.16,1.64-.64.44-.57-.88-1.2-.93-1.7-.15-.43.69-.89.74-1.38.16-.27-.33-.27-.54.05-1,.47-.68,2.73-2.23,5.43-3.73,1.82-1.02,2.1-1.09,5.02-1.19,1.98-.08,3.32,0,3.72.21.5.27,1.49,1.97,1.49,2.57ZM136.29,119c.69-1.67,1.53-2.52,2.18-2.18.28.15,1.25.36,2.15.47,1.23.14,1.72.34,1.96.78.25.47.2.68-.26,1.05-.32.26-.66.71-.77,1-.13.38-.34.48-.7.33-1.71-.72-2.34-.33-1.33.8.46.51.46.57,0,1.03-.46.46-.55.46-1.34,0-1.25-.74-1.59-.65-1.38.37.19.94-.05,1.07-1.03.55-.46-.25-.69-.22-1.02.11-.38.38-.31.52.62,1.23,1.35,1.03,1.32,1.36-.09,1.14-1.23-.2-1.75.18-1.05.76.54.45.57,1.16.03,1.16-.22,0-.56-.19-.76-.44-.2-.24-.67-.44-1.05-.44-.94,0-.9.77.09,1.8.99,1.04.34,1.08-1,.06-1.39-1.06-1.91-.53-.85.88.83,1.09.97,1.77.44,2.1-.2.12-.69-.22-1.19-.86-.47-.59-1.04-1.07-1.27-1.07-.6,0-.5,1.1.21,2.25.45.74.53,1.09.29,1.33-.24.24-.52.14-1.06-.37-1-.94-1.57-.45-1.02.88.32.79.31.98-.1,1.39-.37.37-.55.4-.83.12-.55-.55-1.11-.41-1.11.28,0,.59-.74,1.7-1.14,1.7-.09,0-.4-.78-.68-1.73-.74-2.5-.66-3.31.37-4.28.48-.45.87-1.03.87-1.29,0-.51,2.8-3.28,3.14-3.11.11.06.56.28,1,.5.65.32.88.33,1.24.03.57-.47.56-.72-.04-1.32-.28-.28-.37-.56-.21-.68,3.03-2.1,3.95-2.81,4.97-3.88.67-.69,1.44-1.79,1.7-2.43ZM149.55,126.08c.29.74.08,1.33-.36,1.06-.15-.09-.66-.85-1.14-1.68-1.3-2.27-1.04-3.38.7-2.95.43.11.82-.03,1.19-.44.64-.71,1.33-.78,1.33-.15,0,.25.26.96.58,1.59.62,1.22.77,2.19.29,1.89-.16-.1-.29-.42-.29-.71s-.2-.7-.45-.9c-.38-.31-.58-.22-1.27.62-.67.8-.78,1.13-.57,1.67ZM149.62,101.42c.54-.45,2.29-.95,3.52-1.01.86-.04.86-.03.92,1.66.05,1.5.01,1.64-.34,1.17-.58-.78-1.49-.17-1.36.92.11,1.01-.16,1.79-.52,1.43-.14-.15-.3-.79-.36-1.43-.08-1.02-.18-1.16-.82-1.16-.53,0-.75.17-.82.66-.11.79-.82.87-1.06.11-.21-.66.2-1.81.82-2.33ZM150.9,107.14c1.61.74,1.36.95-1.08.95h-2.35l.45-.88c.5-.96,1.02-.98,2.98-.07ZM153.1,111.92c-.1.53-.48,1.62-.84,2.42l-.65,1.45-.46-1.09c-.67-1.56-1.88-1.35-1.67.29.11.89-.47.83-.89-.08-.23-.51-.53-.72-.94-.66-.5.08-.59.27-.54,1.17.06,1.05.04,1.08-.77.91-.67-.13-.87-.05-1.03.45-.11.34-.11.74-.01.9.38.61-.31.26-.72-.37-.75-1.15-1.17-2.02-1.17-2.41,0-.67,3.01-3.7,4.22-4.25,1.41-.64,3.3-.69,4.66-.12.93.39.99.49.82,1.38ZM145.61,121.45c-.26.28-.46.92-.46,1.43,0,.77-.11.92-.69.92-.37,0-1.52.39-2.54.86-2.17,1-2,.95-2,.63,0-.49,2.93-3.09,3.48-3.09.3,0,1.62-.95,2.92-2.11,2.3-2.05,3.02-2.39,4.2-1.93.55.21.62,1.26.1,1.4-2.5.68-4.63,1.48-5,1.89ZM140.92,115.09c-.21.35-.92.36-1.13.01-.19-.32.65-.68,1.03-.45.15.09.19.29.1.44ZM130.3,103.88c0,.23-.13.42-.29.42s-.29-.27-.29-.6.13-.52.29-.42c.16.1.29.37.29.6ZM132.34,107.94c0,.53-.78,1.6-1.17,1.6-.12,0-.37-.19-.57-.44-.45-.54-.15-2.36.42-2.57.5-.19,1.33.69,1.33,1.41ZM132.37,104.01c-.65-1.16-.73-2.34-.17-2.52.36-.12.99,1.25,1.22,2.65.22,1.37-.23,1.32-1.04-.13ZM134.25,109.79c.4-.76.97-.99,2.09-.85.2.03.82-.42,1.39-.98.56-.57,1.26-1.03,1.55-1.03s1.29-.42,2.24-.93c1.56-.84,4.57-1.56,5.12-1.23.38.24-1.37,3.62-1.88,3.62-.13,0-.16-.26-.05-.58.27-.87-.64-1.09-1.39-.34-.59.59-.6.65-.14,1.61.45.93.45,1.03-.04,1.46-.73.67-.86.6-1.06-.62-.28-1.66-.37-1.82-.88-1.63-.87.34-1.08,1.53-.48,2.75.46.93.48,1.13.13,1.27-.78.29-.95.16-.95-.71,0-.68-.13-.87-.59-.87-.63,0-1.21,1.08-1.22,2.25,0,1.09-.45.73-.66-.53-.17-1-.3-1.17-.82-1.1-.53.08-.64.31-.72,1.47-.11,1.64-.84,1.96-.98.44-.08-.79-.21-.94-.82-.94s-.73.15-.77.87c-.03.48-.06,1.04-.08,1.24-.01.2-.29.37-.61.37s-.58.13-.58.29-.05.29-.1.29c-.06,0-.07-.87-.02-1.93.07-1.84.12-1.95.99-2.37.5-.24,1.1-.82,1.34-1.27ZM147.73,90.69c-.14.27-.26,1.15-.26,1.95,0,1.7-.39,2.1-.93.97-.23-.48-.62-.81-.97-.81-.45,0-.61.25-.73,1.17-.12,1.01-.24,1.17-.87,1.17-.69,0-.73.08-.73,1.71,0,1.45-.09,1.75-.58,1.93-.32.12-.81.09-1.09-.05-.7-.36-1.09-.07-1.09.82,0,.95-.4,1.68-1.9,3.45-.67.8-1.38,1.75-1.56,2.11-.37.72-1.19.89-1.19.26,0-.22-.09-.81-.19-1.31-.17-.82-.11-.91.55-.91.75,0,1.08-.45,1.1-1.55,0-.35.2-.89.44-1.2.93-1.23.1-4.82-1.11-4.82-.5,0-.54.14-.35,1.52.18,1.36.16,1.48-.25,1.14-1.03-.85-1.28.32-.6,2.8.27.99-.36.79-.91-.29-.54-1.07-.65-4.78-.15-5.27.17-.17.3-.57.3-.9.02-1.63,2.76-5.69,3.85-5.69.32,0,.85-.35,1.18-.76.73-.93,2.22-1.6,3.07-1.37.42.11.92-.09,1.54-.61.78-.65,1.15-.76,2.4-.69,1.44.08,1.49.12,1.69,1.1.2.99-.14,3.12-.66,4.15ZM145.15,95.57c.16,0,.29.2.29.45s-.13.37-.29.27c-.16-.1-.29-.3-.29-.45s.13-.28.29-.28ZM151.97,90.03c.07,0,.21.13.31.29.1.16.04.29-.13.29s-.31-.13-.31-.29.06-.29.13-.29ZM152.56,88.21c-.15.36-.3-.06-.48-1.35-.16-1.16-.15-1.97.02-2.14.36-.36.77,2.79.45,3.49ZM155.03,93.83c.26,1.29.27,1.89.04,2.12-.17.17-.31.68-.31,1.14s-.16.87-.37.93c-.32.09-2.76.59-4.49.92-1.1.21-2.4,1.56-2.92,3.05-.44,1.22-.6,1.4-1.1,1.24-.8-.27-3.3-.15-3.88.17-1.26.71-.49-.26,2.35-2.98,3.33-3.17,4.9-5.22,5.47-7.12.34-1.14.38-1.17,1.19-.88.81.28,1.72.22,3.04-.2.55-.18.64-.03.97,1.61ZM155.92,88.85c0,1.81-.13,1.81-.65,0-.38-1.34-.35-2.89.06-2.89.36,0,.59,1.12.59,2.89ZM158.83,89.65c0,1-.91,1.92-1.62,1.64-.31-.12-.28-.32.17-.92.47-.65.52-.97.29-1.94-.15-.64-.29-1.62-.29-2.18,0-.56-.2-1.54-.43-2.17-.23-.64-.36-1.2-.3-1.26.5-.5,2.18,4.77,2.19,6.84ZM160.14,95.49c-.18.43-.23.44-.36.08-.08-.24-.27-.67-.41-.95-.19-.38-.15-.51.19-.51.56,0,.86.7.58,1.38ZM161.45,90.3c0,.35-.19.61-.45.61s-.42-.2-.37-.49c.14-.73.82-.83.82-.12ZM163.78,85.16c0,.44-.13.8-.29.8s-.29-.16-.28-.36c0-.2.13-.56.28-.8.22-.34.29-.26.29.36ZM164.15,83.15l-.51,1-.1-.9c-.05-.5.04-.95.22-1.01.17-.06.31-.42.31-.81s.13-.71.29-.71c.46,0,.34,1.34-.22,2.43ZM167.86,88.6c-.72.02-1.64.14-2.04.27-.94.3-1.75.34-1.75.09,0-.42.99-1.26,1.49-1.26.29,0,.67-.26.84-.58.49-.92,2.45-.81,3.1.17.63.95.24,1.26-1.64,1.31ZM173.55,85.06c-.3.48-.45.38-.45-.33,0-.47.09-.55.32-.32.18.18.24.47.13.64ZM176.16,89.29c-1.2-.73-2.19-1.45-2.19-1.58,0-.42,1.25-1.16,1.95-1.16.77,0,2.02,1.23,2.6,2.54.84,1.94.55,1.97-2.35.2ZM179.92,83.46c-.16.86-.27.99-.6.73-.22-.19-.4-.48-.39-.66.01-.47.82-1.48,1.02-1.28.09.09.08.64-.03,1.22ZM182.38,95.49c.36.76-.12.91-.89.29-.51-.42-1.41-1.7-1.41-2.02,0-.42,2,1.08,2.3,1.72ZM184.52,93.18c-.49.51-.53.5-1.31-.05-.44-.32-.8-.69-.8-.82,0-.34.52-.29.74.07.11.18.55.23,1.04.12.97-.21,1.05-.06.33.68ZM185.28,86.25c0,.4-.07.56-.15.36-.08-.2-.08-.53,0-.73.08-.2.15-.04.15.37ZM188.2,85.95c-.1,1.94-.5,2.92-1.19,2.92-.5,0-.56-.14-.42-.95.09-.52.26-1.64.37-2.49.18-1.42.14-1.56-.43-1.71-.92-.24-.76-.68.25-.68,1.07,0,1.52.92,1.42,2.9ZM191.06,87.64c-.17,2.82-.61,3.65-1.62,3.01-.32-.2-.32-.39.04-1.09.24-.46.53-1.88.65-3.15.19-2.11.25-2.26.64-1.75.32.43.39,1.14.28,2.97ZM193.83,86.67c-.16.49-.3,1.36-.32,1.93-.02,1.37-.53,2.67-.98,2.52-.2-.07-.34-.51-.32-.97.02-.46.14-1.99.26-3.39.15-1.81.1-2.8-.16-3.43-.41-.99-.3-1.26.4-.99.73.28,1.5,3.23,1.12,4.33ZM209.43,103.63c-.3.37-.38.34-.58-.18-.18-.49-.47-.61-1.53-.61-.72,0-1.39.14-1.5.32-.27.44-.58.03-1.01-1.34-.43-1.36-.76-1.64-1.65-1.42-.57.14-.69,0-.98-1.18-.29-1.15-.47-1.37-1.25-1.58-.79-.2-.92-.38-1-1.31-.07-.87-.21-1.08-.7-1.08-.33,0-.77.23-.98.51-.56.77-.69.37-.39-1.24.34-1.8.18-2.3-.68-2.08-.45.11-.86-.05-1.31-.52-.63-.65-.64-.75-.28-2.53.33-1.63.46-1.86,1.09-1.95.39-.05.91-.35,1.15-.65.43-.55.47-.54,1.92.13.82.38,1.56.9,1.66,1.16.1.26.37.47.59.47s.73.41,1.1.9c.79,1.03.95,1.19,2.11,2.06,1.28.97,2.3,3.45,3.08,7.51.14.72.53,1.95.86,2.73.49,1.13.55,1.51.26,1.84ZM210.72,105.83c-.16,1.26-.66,1.48-.65.29,0-.8.44-1.78.66-1.52.07.08.06.63-.01,1.23ZM212.9,107.89c-.67.27-.8.19-.8-.46,0-.36.13-.85.29-1.09.26-.39.32-.39.57,0,.4.61.37,1.38-.07,1.55ZM198.79,104.49c.33-.45.51-.46,1.82-.12,1.91.51,3.15,1.19,3.71,2.06.57.87,3.31,2.71,4.45,3,.9.22,5.07,4.33,5.07,4.99,0,.76-.74,1.53-1.48,1.53-.42,0-1.34-.39-2.04-.87-1.08-.72-1.28-1.01-1.28-1.82,0-.85-.08-.95-.78-.9-.53.03-.81-.11-.88-.43-.06-.32-.39-.48-.97-.49-.79,0-.87-.09-.87-1,0-1.08-.5-1.45-1.19-.88-.68.56-1.43-.34-1.34-1.63.08-1.18-.62-1.7-1.21-.89-.33.45-.47.43-1.88-.3-1.56-.81-1.83-1.33-1.15-2.26ZM196.26,100.8c-2.17-1.9-3.86-2.53-5.49-2.04-.67.2-1.57.54-2,.77-1.03.54-1.03.55-1.39-.56-.25-.76-.23-1.19.1-1.98.23-.55.49-1.85.58-2.87.18-2.06.58-2.76,1.14-2.01.57.77,1.42,1.03,3.33.99,1.58-.02,1.82.04,1.82.5,0,.95,2.31,4.44,4.38,6.6,1.11,1.17,2.02,2.17,2.02,2.24,0,.16-.54.15-1.82-.07-.72-.12-1.63-.65-2.67-1.57ZM190.62,102.26c-.21,1.73-.71,1.89-.82.27-.05-.74.09-.96.9-1.34,1.46-.7,2.93-.3,4.43,1.21.69.68,1.25,1.46,1.25,1.72,0,.56.04.56-1.12.16-.57-.2-.98-.58-1.09-1-.19-.79-.9-1.15-1.42-.73-.26.21-.45.09-.69-.45-.43-.94-1.32-.83-1.44.17ZM190.56,105.17c-.16,0-.29-.2-.29-.45s.13-.37.29-.27c.16.1.29.3.29.45s-.13.27-.29.27ZM190.85,118.1c0,.42-.11.76-.25.76-.38,0-2.75-1.74-3.28-2.41-.26-.32-.62-.5-.8-.38-.69.43-.3,1.5,1.04,2.85,1.09,1.1,1.57,1.39,2.33,1.39.85,0,.96.09.95.8,0,1.71-.35,1.7-2.99-.04-3.87-2.55-4.89-2.13-2.05.83,1.76,1.84,1.72,2.3-.13,1.35-1.2-.61-2.4-.54-2.4.14,0,.22.54.7,1.2,1.06,2.76,1.52,3.61,2.3,3.33,3.05-.18.47-.25.44-.61-.24-.24-.45-.93-.98-1.65-1.27-.69-.27-1.32-.62-1.42-.77-.3-.49-1.14.08-1.14.77,0,.52.32.82,1.38,1.33,1.74.82,1.74.83,1.23,1.16-.7.45-.95.33-2.27-1.04-1.44-1.48-1.71-1.57-2.08-.65-.14.36-.27.48-.28.27-.01-.23-.28-.35-.67-.29-.47.07-.65.28-.63.76.02.55-.11.65-.73.58-.61-.07-.74-.22-.65-.79.06-.38.36-.91.67-1.17.52-.42.53-.51.12-1.04-.4-.52-.49-.54-.81-.13-.2.25-.6.54-.88.65-.28.1-.66.55-.84,1l-.33.81-.39-1.28c-.21-.71-.31-1.59-.22-1.97.14-.57,0-.75-.76-1.08l-.94-.39.87-.18c.85-.17,1.39-.87,1.07-1.39-.09-.15-.71-.27-1.38-.26-1.43,0-3.42,1.02-3.83,1.97-.23.51-.53.65-1.38.65-.6,0-1.1-.07-1.1-.15s.37-.55.8-1.05c1.08-1.2,1.01-1.55-.29-1.66-.6-.05-1.09-.21-1.09-.37v-.49c0-.12.23-.21.51-.22.81,0,.72-1.08-.17-2.09-1.56-1.76-3.28-3.01-4.14-3.01-1.04,0-1.45.59-.71,1,.88.49,3.83,3.45,3.19,3.19-.32-.13-1.1-.24-1.74-.25-.98-.02-1.17.08-1.17.56,0,.41.22.61.79.67.46.05,1.16.52,1.69,1.12.97,1.1.99,1.5.04.99-1.06-.56-1.5-.39-1.5.6,0,.52-.21,1.07-.48,1.27-.44.32-.42.45.29,1.37.9,1.19,1.02,1.83.27,1.46-.28-.13-1.27-.2-2.19-.13-1.37.09-1.67.21-1.61.6.1.59-.14.69-1.08.45-.88-.22-.94-.58-.15-.79.81-.21.73-.97-.14-1.55-.89-.58-.92-.87-.12-1.08.43-.11.58-.35.51-.83-.11-.82-1.08-1.08-1.57-.41-.42.57-1.4.29-1.16-.33.09-.23.16-.54.16-.69s.26-.26.57-.26c.69,0,1.23-.89.88-1.45-.2-.33-.4-.34-1-.06-.41.18-.75.51-.75.71,0,.38-2.86,2.11-3.1,1.87-.29-.29.78-1.84,1.51-2.17.42-.19.72-.51.66-.71-.16-.49-1.62-.63-2.14-.19-.23.19-.51.27-.61.17-.36-.36.49-1.66,1.28-1.96.44-.17.9-.45,1.01-.64.25-.41-.26-1.08-.82-1.08-.67,0-.45-.87.3-1.16.97-.37,1.23-.9.65-1.32-.69-.51-.6-.68.46-.95,1.19-.31,1.42-1.14.38-1.4-.41-.1-.74-.34-.74-.52,0-.64.52-1.15.98-.97,1.52.58,1.83-1.05.32-1.68-1.19-.5-1.34-1.04-.27-1.04.41,0,1-.14,1.31-.3.8-.43.28-1.3-.96-1.6l-.96-.23.87-.12c1.26-.18,1.66-.58,1.28-1.3-.24-.45-.5-.54-1.16-.42-1.19.24-1.1-.45.14-1.01.82-.37,1.02-.38,1.24-.05.14.22.61.44,1.04.48.43.05.96.22,1.17.4.91.76,3.15-.7,3.15-2.05,0-.89-.98-.85-1.74.08-.81.98-1.59,1.15-1.87.41-.13-.35-.41-.43-1.02-.3-.59.12-.9.04-1.01-.26-.09-.23-.49-.42-.9-.42-1.06,0-.93-.8.21-1.29.52-.22,1.77-.7,2.78-1.05,1.56-.55,1.89-.8,2.25-1.66.23-.56.43-1.38.43-1.83,0-.96.46-2.31.8-2.31.13,0,.38.39.56.88.62,1.65,1.8.73,1.37-1.07-.2-.81-.19-.82.37-.32.84.75,1.55.65,1.55-.2,0-.59.18-.75,1.09-.94.6-.12,1.94-.22,2.98-.23,1.76,0,1.9.04,1.99.66.11.78.82,1.15,1.29.68.61-.61.81-.34.62.83-.15.92-.08,1.2.29,1.34.26.1.68.02.92-.18.57-.47.84-.21,2,1.97.55,1.02,1.26,1.88,1.84,2.21.98.57,2.68.74,3.73.37.5-.18.68-.05.99.7.5,1.2-.04,1.78-1.72,1.87-1.43.08-2.04.53-1.52,1.15.62.74,2.12.85,2.99.21.68-.5.83-.52,1.14-.15.19.23.23.43.08.43s-.52.18-.82.4c-.53.38-.52.41.15.77.38.2.95.38,1.26.4.31.02.67.33.81.7.2.55.12.71-.47.94-.4.15-.73.4-.73.56,0,.38.98.89,1.73.89.45,0,.6.18.6.74,0,.64-.07.7-.58.43-.41-.22-.75-.22-1.17,0-.88.47-.7.96.56,1.56.63.3,1.21.82,1.3,1.16.29,1.08.19,1.93-.23,1.93-.22,0-.47.26-.56.59-.11.41.27,1.09,1.27,2.3.91,1.09,1.43,1.99,1.43,2.47ZM157.28,139.91c-1.37.1-2.82.32-3.22.47-.75.28-1.17.06-.81-.44.52-.72,1.67-1.05,3.36-.96,1.76.1,1.78.09,1.77-.67v-.78s3.86-.2,3.86-.2c2.47-.13,4.85-.08,6.57.13,1.48.19,5.84.46,9.68.62,3.84.16,7.86.45,8.95.67,2.07.41,3,.88,1.52.76-1.82-.15-4.51.03-4.51.29,0,.29,2.07.95,2.7.86.63-.08,2.26.38,2.26.65,0,.14-.49.19-1.1.1-2.3-.32-3.27-.27-3.27.16,0,.36.85.7,3.43,1.35,1.08.28,2.09.62,2.25.77.18.17.02.2-.44.08-6.67-1.74-6.99-1.8-6.99-1.22,0,.26.3.6.66.75.45.2-.29.24-2.4.13-3.2-.17-13.59-.51-14.85-.49-1.16.02-5.04.79-5.68,1.13-.32.17-1.3.39-2.18.5-.88.11-2.52.51-3.64.88-2.02.68-2.56.72-2,.16.16-.16,1.5-.62,2.98-1.01,3.07-.82,3.82-1.16,3.82-1.72,0-.65-.6-.68-2.91-.12-1.2.29-2.76.66-3.46.83-1.39.34-1.58.29-1.35-.33.23-.61,1.71-1.19,4.65-1.86,2.08-.46,2.64-.7,2.72-1.14.1-.53-.04-.55-2.38-.37ZM153.39,149.44c.48.01.36.15-.53.56-1.38.64-1.6.68-1.6.29,0-.37,1.27-.87,2.13-.84ZM191.85,142.25c-.67-.44-.69-.49-.2-.85.44-.32.56-.29.85.25.47.89.19,1.15-.65.59ZM192.6,143.89c.16,0,.29.13.29.29s-.13.29-.29.29-.29-.13-.29-.29.13-.29.29-.29ZM193.38,131.13l.67.63-.65.35c-.76.4-.95.28-1.2-.8-.23-.99.24-1.06,1.18-.17ZM193.32,146.82c-.15.23-2.53-.55-3.62-1.19-.76-.45.09-.3,1.97.33.99.33,1.73.72,1.65.86ZM187.87,124.53c-.16-.84-.19-.83,1.25-.4,1.35.4,1.25,1.13-.16,1.13-.79,0-.98-.13-1.09-.73ZM188.94,129.76c.72-.54,1.03-.54,1.03,0,0,.28-.27.43-.8.43-.77,0-.78-.03-.24-.44ZM190.56,133.47c0,.19-.36.23-.91.12-.5-.1-1.42-.18-2.04-.18s-1.13-.1-1.13-.22.92-.18,2.04-.12c1.16.06,2.04.23,2.04.4ZM189.77,141.38c.1-.09.35-.1.55-.02.23.09.17.16-.17.18-.3.01-.48-.05-.38-.15ZM184.8,136.9c-.65,0-1.27-.13-1.38-.3-.12-.19.25-.23,1.08-.1,1.66.26,1.78.4.3.4ZM181.68,131.39c-1.12.09-2.13.19-2.24.22-.11.03-.27-.05-.35-.18-.08-.13-.03-.41.1-.63.18-.3.69-.35,2.05-.21,2.6.28,2.78.61.44.8ZM181.54,128.46c-.16,0-.29-.2-.29-.45s.13-.37.29-.27c.16.1.29.3.29.45s-.13.27-.29.27ZM174.26,132.09c0,.26,1.04.43,3.78.58,2.21.12,3.79.33,3.79.5,0,.19-.62.22-1.67.1-.92-.1-5.9-.21-11.06-.25-8.28-.05-9.39-.11-9.39-.51,0-.25-.16-.61-.35-.8-.27-.28-.19-.36.37-.38.39-.02.82-.02.95,0,.13.02,2.06.09,4.27.15,3.39.09,4.14.03,4.7-.37.7-.49,3.49-.64,5.85-.3,1.39.19,1.76.54.58.54s-1.82.26-1.82.72ZM170.42,124.97c.19,0,.35-.26.35-.58s.13-.58.29-.58.29.27.29.59c0,.7.78,1.08,1.25.61.18-.18.53-.33.78-.32.32,0,.24.18-.28.58-.73.58-2.12.56-2.75-.03-.17-.16-.14-.26.08-.26ZM170.64,128.57c.97-.66,1.06-.67,1.75-.21.92.61.55.86-1.33.89l-1.44.02,1.02-.7ZM168.59,129.92c-.1.16-.73.27-1.4.26-1.15-.03-1.17-.05-.35-.26,1.29-.33,1.95-.33,1.75,0ZM167.96,127.1c-.28.28-.68.24-.68-.07,0-.14.2-.34.44-.43.45-.17.6.14.25.49ZM160.03,130.21c-.32,0-.66-.13-.76-.29-.1-.16.08-.29.4-.29s.66.13.76.29c.1.16-.08.29-.4.29ZM170.78,135.31c.17.1.92.29,1.67.42l1.37.23-1.22.04c-.66.02-1.42-.05-1.67-.14-.25-.1-.46-.3-.46-.45s.14-.19.31-.09ZM175.13,135.74c.16,0,.29.13.29.29s-.13.29-.29.29-.29-.13-.29-.29.13-.29.29-.29ZM154.19,132.66c.2-.23.56-.42.82-.42.35,0,.3.11-.18.45-.36.25-.66.67-.68.95-.03.43-.05.43-.17-.03-.07-.29.02-.72.22-.95ZM154.17,136.9c.16,0,.29.13.29.29s-.13.29-.29.29-.29-.13-.29-.29.13-.29.29-.29ZM154.94,123.87c.38-.61,1.27-.83,1.27-.33,0,.2-.22.61-.49.9-.62.69-1.27.21-.78-.57ZM156.79,125.55c.63,0,.99.45.73.87-.23.37-.34.37-1.05-.01-.66-.36-.48-.86.32-.86ZM158.15,128.96c.45.17.38.25-.34.4-1.52.34-1.89.29-1.71-.18.18-.46,1.17-.57,2.05-.23ZM158.08,131.69c-.66.25-1.87.33-1.87.11,0-.31,1.47-.7,1.94-.52.44.16.44.21-.07.41ZM191.81,139.78c.28.29.25.32-.17.16-.28-.11-.45-.27-.36-.36.09-.09.33,0,.53.2ZM192.45,126.01c.53-1.01,1.05-2.52,1.17-3.35.23-1.72.55-1.78,1.53-.33.71,1.04.85,2.57.34,3.59-.75,1.48-3.12,2.77-3.82,2.07-.09-.09.27-.99.79-1.99ZM202.79,116.3c0,.08-.33.89-.73,1.79-.77,1.74-1.21,1.98-2.02,1.07-.35-.39-.45-.82-.34-1.38.24-1.14-.17-1.67-1.1-1.44-.84.21-1.01-.27-.46-1.28.23-.44.17-.62-.32-.88-.49-.27-.72-.23-1.17.17-.3.28-.55.68-.55.9s-.2.39-.44.39c-.34,0-.44-.37-.44-1.58,0-.87-.12-1.66-.26-1.75-.55-.34-1.19.21-1.19,1.02,0,.45-.13.9-.3,1-.45.28-1.79-2.89-1.68-4,.08-.81.22-.97.93-1.05,1.16-.13,3.24.71,4.98,2.01,1.38,1.05,5.09,4.68,5.09,4.99ZM202.66,126.72c-.39-.15-1.57-.68-2.62-1.17-1.77-.83-1.91-.96-1.92-1.83,0-1.17-1.66-3.51-3.05-4.33-.62-.37-.97-.79-.94-1.15.09-1.18,2.39-.24,3.72,1.52.53.7,1.73,1.92,2.68,2.71,1.73,1.46,2.3,2.25,2.65,3.71.18.75.15.78-.52.53ZM212.51,133.27c-.62.81-.86.95-1.18.69-.56-.46-.54-.54.77-2.55,1.29-2,1.44-2.65.6-2.65-.37,0-.95.57-1.63,1.6-.58.88-1.18,1.53-1.33,1.44-.28-.17.04-.91.94-2.21,1.3-1.85.25-2.31-1.18-.52-.52.65-1,1.13-1.07,1.07-.06-.06.21-.79.61-1.62.4-.82.73-1.7.73-1.94,0-.8-1.1-.45-2.02.65-.9,1.08-.88.86.12-1.03.53-1,.43-1.86-.19-1.73-.2.04-.41-.23-.46-.6-.14-.91-.73-1.08-1.64-.47-.9.59-.84.63-1.58-1.09-.57-1.33-.54-2.51.06-2.91,1.33-.87,11.84,9.37,11.84,11.54,0,.53.21.83.72,1.03.46.18,1.01.85,1.51,1.87l.78,1.59-.7.56c-.59.48-.64.63-.32,1.03.32.38.28.6-.25,1.34-.7.99-.95,1.07-1.44.48-.26-.31-.22-.64.15-1.43.76-1.59-.03-2.63-1.16-1.51-.39.39-.42.33-.27-.58.15-.9.09-1.02-.46-1.02s-.58-.08-.33-.56c.89-1.67-.41-2.03-1.62-.45ZM230.14,171.4c.86-.91,1.25-.95.79-.08-.7,1.32-.83,1.45-1.16,1.12-.22-.22-.11-.52.37-1.04ZM222.77,164.68c.37-.56.65-.7,1.1-.55,1.43.45,3.35.77,5.12.83,1.98.08,4.55.84,7.09,2.11,2.36,1.18,3.25,1.99,4.08,3.69.43.87,1.32,2.2,1.98,2.95l1.2,1.36-.73.78c-.4.43-.96,1.15-1.24,1.59-.59.92-.48.88-1.44.52l-.74-.28.72-1.06c1.17-1.72.18-2.23-1.35-.7-.98.97-1.55,1.1-1.82.41-.3-.78-.2-1.28.45-2.15.74-1,.55-1.84-.4-1.7-.42.06-.9.54-1.33,1.33-.37.68-.87,1.24-1.1,1.24-.48,0-.55-.46-.12-.73.4-.25,1.45-2.34,1.45-2.9,0-1.28-2.23.43-2.53,1.95-.18.9-.34.97-1.06.44-.48-.35-.47-.44.14-1.55.71-1.29.59-2.16-.28-2.16-.36,0-.54-.18-.52-.51.07-.91-1.12-.77-1.96.22-.42.5-.77,1.03-.77,1.18,0,.46-1.18.29-1.36-.2-.09-.26.05-.85.33-1.33.28-.47.43-1.04.35-1.27-.27-.7-1.05-.48-1.58.45-.28.48-.63.82-.79.77-.36-.12-.21-1.64.2-2.14.38-.46.09-1.25-.46-1.25-.23,0-.66.33-.95.73-.58.79-.87.7-1.64-.51-.48-.75-.48-.84-.02-1.55ZM208.45,141.68c.35-.48.48-.49,1.65-.1.7.23,1.79.82,2.44,1.31,2.22,1.7,6.55,7.64,6.55,8.99,0,.45.27.9.67,1.17.37.24,1.11,1.32,1.65,2.41.55,1.09,1.23,2.32,1.52,2.75.29.43.53.9.53,1.06s-.7.76-1.56,1.33c-1.41.93-2.51,2.41-2.51,3.35,0,.52-.44.37-1.16-.4l-.68-.72.77-.61c.46-.36.77-.9.77-1.31,0-.86-.27-.89-1.24-.13-.91.72-1.26.74-1.64.08-.23-.41-.06-.72.89-1.59,1.71-1.57.89-2.34-1.17-1.08-.92.56-1.01.57-1.53.1-.79-.72-.69-1.08.49-1.71,1.1-.59,1.72-1.43,1.43-1.91-.29-.47-.92-.33-2.07.45-.77.52-1.18.65-1.39.43-.22-.22-.03-.53.63-1.05,1.01-.8,1.07-.92.68-1.54-.21-.34-.39-.33-1.13.03-1.09.55-1.38.37-1.6-1-.14-.9-.08-1.11.39-1.26.73-.23,1.18-1.07.84-1.61-.21-.34-.42-.36-1.18-.07-1.41.53-1.92-.07-.96-1.12.67-.74.31-1.42-.75-1.42s-1.2-.68-.28-1.17c.81-.44.64-1.52-.28-1.73-.88-.21-1.29-1.22-.77-1.93ZM207.89,137.2c-.45-.51-.89-.59-3.07-.59-1.91,0-2.58-.1-2.7-.41-.23-.61.06-.76,1.42-.76,2.08,0,2.46-1.39.52-1.88-.57-.14-.68-.27-.43-.52.19-.19.34-.5.34-.71,0-.51-1.74-.93-2.57-.63-1,.37-1.41.32-.99-.1.19-.19.35-.58.35-.87,0-.62-1.13-.72-2.11-.2-.85.45-2.62-.45-2.28-1.17,1.24-2.58,1.46-2.69,3.54-1.8,1.77.76,3,1.55,5.82,3.72,3.16,2.43,4.74,4.67,4.97,7.07.08.8,0,.99-.34.9-1.41-.38-4.06-.35-4.83.06-.98.52-1.86.2-1.86-.66,0-.76.78-.94,2.62-.59,1.85.35,2.43.04,1.61-.87ZM198.26,133.41c.07,0,.21.13.31.29.1.16.04.29-.13.29s-.31-.13-.31-.29.06-.29.13-.29ZM202.73,133.28c.41.18.37.25-.24.43-.87.26-1.19.22-1.24-.16-.04-.37.85-.54,1.47-.27ZM207.86,181.19c.28-.54.7-.92,1.03-.92.89,0,3.24,1.31,4.91,2.75.85.73,1.85,1.33,2.21,1.33.9,0,5.28,2.22,6.79,3.43.83.67,1.34,1.36,1.53,2.1.16.61.49,1.18.73,1.27.24.09.44.33.44.53.01.52,1.46,3.39,2.61,5.18.88,1.37.91,1.51.47,1.99-.26.29-.47.65-.47.81,0,.39-.63.99-1.03.99-.18,0-.85-.63-1.49-1.38-1.61-1.93-1.64-1.99-1.12-2.98.42-.82.42-.9-.03-1.07-.27-.1-.7-.03-.96.15-.84.61-1.23.71-1.54.4-.21-.21-.08-.61.45-1.3.42-.55.76-1.15.76-1.33,0-.61-1.01-.36-2.07.51-.75.62-1.15.78-1.45.57-.35-.24-.33-.34.12-.63,1.29-.83,1.93-1.44,1.93-1.82,0-.69-1.25-.47-2.75.48-1.25.79-1.46.84-1.84.46-.56-.55-.27-1.29.63-1.63,1.33-.51,2.25-2.63,1.14-2.63-.27,0-1.24.73-2.13,1.62-1.48,1.47-1.67,1.57-2.04,1.13-.36-.43-.31-.55.31-1.02,1.62-1.2,1.8-1.45,1.42-1.91-.22-.27-.62-.37-1.02-.27-.49.12-.71.01-.84-.42-.23-.73-.46-.73-1.91,0-.93.48-1.15.51-1.15.16,0-.23.13-.5.29-.6.16-.1.29-.45.29-.78,0-.53-.12-.58-1.06-.4l-1.05.2.19-1.04c.19-1.03.19-1.04-.84-1.04-.89,0-1.1-.14-1.5-.98-.42-.89-.42-1.05.01-1.89ZM200.75,154.96c0-.99.73-2.62,1.17-2.62.15,0,.86.55,1.56,1.24,1.08,1.04,1.34,1.51,1.63,2.98.18.96.61,2.73.94,3.93.76,2.76,1.64,6.4,1.99,8.33.15.82.48,1.97.73,2.57.75,1.79.01,4.98-1.31,5.69-.31.16-.99.31-1.52.32-.53,0-1.23.13-1.55.27-.81.35-1.3.35-1.35,0-.13-.87-.03-1.03.77-1.17.62-.11.87-.31.87-.73,0-.46-.23-.6-1.09-.67-1.08-.09-1.12-.15-1.09-1.44,0-.12.64-.17,1.41-.12,1.11.08,1.45,0,1.6-.39.29-.76-.04-1.02-1.31-1.02-1.34,0-2.29-.42-2.29-1.01,0-.29.46-.44,1.67-.5,1.48-.08,1.68-.16,1.77-.74.09-.68,0-.72-1.55-.71-1.35.01-1.89-.23-1.89-.84,0-.48.21-.56,1.42-.56,1.52,0,2.27-.51,1.96-1.33-.14-.37-.51-.45-1.71-.37-1.37.09-1.53.04-1.53-.48,0-.44.24-.62.99-.73,1.17-.17,1.87-1.02,1.19-1.46-.24-.16-.8-.21-1.24-.11-1.17.24-1.04-.56.15-.91.67-.2.97-.48,1.04-.97.09-.65.03-.67-1.09-.48-1.18.2-1.18.2-1.18-.71,0-.54.18-.98.44-1.07.59-.23.55-.98-.08-1.44-.4-.29-.43-.45-.16-.73.53-.54-.08-1.51-.81-1.28-.48.15-.56.04-.56-.73ZM195.29,137.45c.49-.66.54-.92.27-1.2-.28-.28-.48-.27-.96.03-.74.45-1.12.15-1.21-.95-.05-.68.1-.85,1.07-1.19l1.13-.4,1.52,1.52c1.06,1.06,1.91,2.35,2.84,4.27,1.51,3.15,1.73,4.23,1.48,7.14-.15,1.83-.27,2.14-.94,2.55-1.01.63-1.15.61-1.53-.23-.26-.57-.23-.86.14-1.43.4-.61.41-.76.06-1.06-.23-.18-.68-.26-1.01-.15-.75.24-.75-.03,0-1.27.93-1.52.29-1.78-1.27-.51-.71.58-1.37,1.05-1.48,1.05s-.19-.39-.19-.87c0-.56.15-.87.42-.87.71,0,2.5-2.34,2.5-3.28,0-1.2-.8-.95-1.83.59-.82,1.21-1.37,1.57-1.37.9,0-.19.4-1.06.9-1.93.95-1.68.85-2.43-.25-1.84-.86.46-.98.08-.28-.87ZM192.6,177.22c-.29-.35-.26-.47.14-.62.46-.18,1.01.28,1.02.84,0,.38-.78.23-1.16-.22ZM190.71,184.07c.32,0,.78.13,1.02.28.36.23.34.28-.15.28-.32,0-.78-.13-1.02-.28-.36-.23-.34-.28.15-.28ZM158.07,269.07c.39.92.37.95-1.19,2.51-1.72,1.72-2.5,1.9-2.65.6-.08-.63-.25-.8-.8-.8s-.75.2-.9.8c-.41,1.71-.85,1.68-1.11-.08-.16-1.03-.32-1.31-.75-1.31-.38,0-.63.29-.8.94-.35,1.35-1.06,1.23-1.18-.21-.15-1.84-.91-2-1.64-.35l-.4.92-.02-.78c-.05-1.63-1.65-2.13-1.82-.58-.06.46-.27.78-.53.78-.29,0-.41-.24-.35-.72.18-1.61-.1-1.93-1.74-1.95-1.08-.01-1.63.11-1.86.44-.31.42-.41.41-1.09-.04-.42-.27-.99-.86-1.27-1.29-.28-.44-.69-.98-.9-1.21-.45-.46-.27-1.89.32-2.59.96-1.15,3.04-1.47,5.66-.86,1.64.38,1.81.61,1.07,1.43-.6.66-.31,1.52.43,1.28.31-.1.7.01.91.27.2.24.73.45,1.17.45s.88.18.96.39c.33.85,4.28.71,4.28-.15,0-.13.26-.24.58-.24.82,0,.72.41-.22.89-.44.22-.85.44-.91.48-.07.04.05.28.25.52.82.99,3.82.26,3.41-.82-.26-.68.46-.61,1.11.11.33.37.73.52,1.07.42.41-.13.64.06.93.76ZM164.87,258.01c-.1-.39.08-.72.55-1.04.39-.25.68-.62.64-.81-.04-.19.15-.76.42-1.26.35-.65.76-.96,1.44-1.08,2.53-.44,3.8-.54,4.7-.37l.98.18.19,2.17c.2,2.39-.36,5.85-1.26,7.86-.29.64-.95,2.21-1.46,3.5-1.16,2.9-1.89,3.88-3.84,5.15-2.39,1.56-5.08,2.14-6.11,1.33-.31-.25-.52-1.04-.62-2.4-.18-2.37-.68-3.69-1.91-5.06-.89-.98-.89-.99-.35-1.74,1.03-1.44,1.66-1.86,2.31-1.51.32.17.86.31,1.18.31,1.11,0,2.93,2.16,2.93,3.49,0,.71-.87.21-1.36-.79-.53-1.09-1.36-1.54-1.88-1.02-.18.17,0,.81.49,1.7.61,1.12.73,1.68.61,2.63-.11.87-.05,1.26.24,1.36.61.24,1.63-.63,1.63-1.38,0-.51.2-.72.84-.84,1.14-.23,1.64-1.59,1.08-2.93-.41-.99-2.36-2.8-3.02-2.8-.48,0-2.1-1.18-2.1-1.53,0-.14.62-.21,1.37-.16,1.17.08,1.39.01,1.49-.46.06-.31-.1-.73-.37-.91-.42-.31-.37-.39.44-.67.71-.25.89-.45.77-.89ZM167.29,235.58c.5,0,1.38-.37,2.09-.9,1.09-.79,1.39-.87,2.52-.7,1.39.21,2.85.89,3.68,1.72.69.69,1.34,3.22,1.03,4.04-.13.35-.18,1.13-.1,1.73.1.82.02,1.13-.33,1.27-.52.2-.63,1.14-.18,1.43.16.1.29.5.29.9,0,.61-.1.69-.7.54-1.1-.27-1.18.38-.2,1.49,1.02,1.17,1.07,1.48.43,2.41-.26.36-.39.85-.3,1.08.09.24.08.63-.02.9-.15.39-.46.44-1.81.27-.9-.11-1.96-.21-2.36-.23-.4-.02-1.71.08-2.91.21-2.13.23-2.17.22-1.7-.31.72-.81.19-1.64-.87-1.38-.87.21-.72-.09.3-.6.36-.18.7-.55.75-.83.08-.4-.11-.5-.91-.5-.64,0-1.07-.16-1.18-.45-.17-.42.19-.67,1.63-1.12.28-.08.51-.36.51-.61,0-.32-.31-.45-1.17-.45s-1.17-.12-1.17-.44c0-.26.27-.44.67-.44.8,0,1.36-.51,1.36-1.22,0-.4-.23-.53-1.02-.53-1.09,0-1.37-.43-.46-.72.6-.19,1.01-.92.75-1.34-.09-.14-.34-.18-.55-.1-.22.09-.48.01-.59-.16-.1-.18.14-.44.55-.6.86-.33.98-1.01.24-1.43-.45-.25-.42-.32.29-.59.82-.31,1.12-1.33.46-1.55-.63-.21.07-.81.94-.81ZM166.71,225.36l-.7-.57.68-.47.67-.47-.67-.54c-.61-.49-.63-.62-.28-1.27.27-.52.3-.81.07-1.04-.41-.41.27-2.42,1.22-3.59l.7-.85,1.87.35c1.03.19,2.16.35,2.51.35,1.34,0,3.47,2.3,3.65,3.95.04.4.32.91.62,1.13.49.36.5.47.12,1.18-.38.7-.37.82.08,1.15.76.55.6,1.03-.34,1.03-.46,0-.91.18-1,.41-.17.44.64,1.34,1.21,1.34.44,0,.43.15-.09,1.15-.32.62-.59.8-1.02.68-.83-.22-1.15.74-.42,1.28.54.4.54.43-.12.97-.57.46-1.11.54-3.56.5-2.78-.05-2.9-.08-2.9-.69,0-.36-.33-1.03-.73-1.51-.4-.48-.72-1.16-.72-1.51,0-.39-.22-.7-.58-.79-.72-.18-.72-.32-.08-1.04.48-.53.47-.58-.19-1.12ZM165.58,200.83c1.47.2,2.61.98,1.43.98-.74,0-1.15.83-.58,1.18.22.14.4.53.4.89,0,.53.33.75,1.7,1.21,1.57.53,1.72.54,2.22.08.34-.31.99-.47,1.8-.45,1.63.04,3.61-.45,4.83-1.21.76-.47.92-.73.79-1.26-.15-.59-.04-.68,1-.85.9-.15,1.41-.05,2.2.42,1.52.9,1.36,1.43-.42,1.43s-1.85.37-.44,1.2c1.24.74,1.3,1.13.16,1.13s-1.32.37-.59,1.02c.8.73.73,1.5-.15,1.72-.77.19-.97.86-.37,1.24.24.15.07.28-.51.39-.79.14-.86.26-.79,1.15.07.78-.11,1.19-.86,1.95-.52.54-1.23.97-1.59.97s-.74.14-.84.31c-.66,1.07-4.55,1.05-6.43-.03-.91-.53-1.31-1.01-1.73-2.12-.3-.8-.77-1.51-1.04-1.58-.27-.07-.64-.51-.84-.98-.3-.72-.28-.94.12-1.38.26-.29.48-.76.48-1.04,0-.44-.17-.49-1.02-.33-.79.15-1.02.1-1.02-.24,0-.24.29-.47.63-.52.69-.1,1.37-.96,1.03-1.3-.11-.12-.77-.29-1.45-.38-1.32-.18-1.55-.64-.45-.9.4-.09.71-.41.76-.79.08-.54-.08-.66-1.08-.82-2.92-.46-.43-1.51,2.64-1.1ZM172.83,203.2c-1.33-.06-1.61-.17-1.81-.73-.24-.65-.21-.66,2.37-.66,1.44,0,2.61.1,2.61.23,0,.61-1.68,1.23-3.17,1.16ZM160.71,197.74c.25,0,.45.13.45.29s-.12.29-.27.29-.36-.13-.45-.29c-.1-.16.02-.29.27-.29ZM160.14,191.57l2.33-.09v-.82c.02-.47.24-.95.52-1.11.77-.43.59-1.11-.41-1.54-1.14-.48-.68-.82.65-.48.98.25,3.73.45,10.77.77,3.26.15,3.69.11,3.86-.32.1-.27.11-.61.02-.75-.09-.15-.03-.26.13-.26s.37.13.47.29c.09.16.86.3,1.69.32l1.51.02-1,.44c-1.23.53-.77.96,1.06.97.67,0,1.3.14,1.4.29.1.16-.13.29-.52.29s-.79.09-.9.2c-.3.29,2.44,1.54,3.45,1.56.48.01,1.13.14,1.45.28.56.24-.44.36-3.49.43-2,.04-1.9,1.29.11,1.35l1.05.03-.96.23c-.53.13-1.04.3-1.13.39-.34.34.19,1.06.77,1.06.81,0,.75.52-.06.64-.49.07-.64.27-.59.75.05.5-.09.66-.58.69-.36.02-2.35.13-4.43.24-2.08.12-4.25.23-4.8.26-.56.02-2.13-.15-3.49-.37-1.36-.23-3.52-.64-4.8-.9-1.28-.27-2.86-.57-3.5-.68-2.49-.43-2.4-1.19.14-1.19,1.11,0,1.81-.14,2.04-.42.54-.65-.51-1.04-2.84-1.04-1.47,0-2.12-.12-2.4-.45-.6-.72,0-.97,2.49-1.07ZM184.04,189.57c-.31.01-.48-.06-.38-.15.1-.1.35-.11.56-.02.23.09.17.16-.17.17ZM158.54,189.88c-.4.13-.75.25-.78.27-.03.01-.14-.1-.24-.27-.11-.17.21-.28.78-.26.9.03.92.04.24.26ZM156.02,187.43c.22-.57,2.5-.59,3.98-.02,1.12.43.85.51-1.46.45-.72-.01-1.51.1-1.74.26-.54.36-1.02-.07-.78-.69ZM158.85,176.03c-1.44-.32-2.95-.44-4.44-.36-1.25.07-2.27.03-2.27-.1,0-.75,3.63-1.38,4.45-.77.4.3,1.11.33,3.06.14,1.39-.13,3.19-.27,3.99-.31.8-.04,1.74-.25,2.09-.47.53-.34,1.11-.35,3.64-.05,1.65.19,3.72.55,4.61.79.96.26,2.77.42,4.52.4,4.66-.04,4.6-.05,4.4.47-.12.32.03.52.47.65.55.16.48.21-.44.34-2.08.28-1.27.73,1.68.93,4.55.3,8.88,1.14,8.88,1.72,0,.11-.17.34-.38.52-.29.24-.8.16-1.97-.29-1.06-.41-2.56-.66-4.56-.76-2.64-.14-2.98-.1-2.98.32,0,.3.24.48.65.48,1.35,0,5.98,1.11,7.15,1.72,1.3.66,1.67,1.36.56,1.09-.36-.09-2.21-.32-4.1-.5-3.05-.3-3.51-.28-3.91.12-.56.56-.5.58,2.53,1.05,2.3.35,2.74.5,2.52.87-.21.35-14.72.18-18.21-.21-1.68-.19-4.62-.41-6.55-.49-3.54-.14-10.71-1.29-11.21-1.79-.15-.15-.36-.68-.45-1.17-.18-.86-.13-.9.96-1.08.63-.1,2.16-.11,3.4-.02,2.04.14,2.25.11,2.16-.35-.11-.57-2.27-1.25-4.17-1.29-1.04-.03-1.08-.06-.4-.26.78-.23,2.31-.19,5.24.15,1.14.13,1.71.08,1.86-.16.31-.49-.27-.77-2.75-1.32ZM159.71,173.53c-.4,0-.56-.07-.37-.15.2-.08.53-.08.73,0,.2.08.03.15-.37.15ZM157.92,164.06c-.7.1-2.45.58-3.88,1.09-3.8,1.31-3.64,1.28-3.64.77,0-.45,1.27-1.54,2.53-2.2.35-.18,1.66-.41,2.91-.51,2.49-.2,3.21-.52,2.67-1.16-.51-.62-4.3-.52-6.24.16-1.17.41-1.59.46-1.59.19,0-.49,1.58-.95,5.24-1.5,4.3-.65,4.37-.67,4.37-1.15,0-.34-.47-.44-2.26-.45-2.24-.02-2.24-.02-1.18-.42,1.26-.46,6.54-.55,9.11-.15.96.15,2.99.54,4.51.88,3.52.76,9.94,1.16,12.33.77,4.2-.7,8.19-.24,9.91,1.13,1.51,1.2,2.77,7.55,1.39,6.98-2.34-.97-9-1.59-9.37-.88-.08.16.82.45,2.03.65,2.6.44,6.02,1.44,6.27,1.84.1.16.43.29.74.29s.56.15.56.33c0,.49-2.81.14-3.44-.43-.42-.38-1.18-.48-3.71-.49-1.75,0-3.68-.12-4.3-.27-.63-.15-3.23-.16-5.96-.03-3.64.17-5.24.13-6.45-.15-.89-.21-2.59-.62-3.79-.91-1.61-.39-3.26-.53-6.26-.52-3.58.02-4.38.11-6.56.8-2.97.93-3.48.97-3.48.23s1.57-1.54,5.53-2.96c2.14-.76,3.09-1.24,3.16-1.6.09-.45-.06-.49-1.17-.34ZM151.41,152.01c.48-.1,1.34-.4,1.92-.65.57-.25,1.72-.54,2.54-.65,1.41-.18,2.4-.78,1.99-1.2-.1-.1-.94-.17-1.86-.14-2.33.07-1.38-.44,1.57-.85,1.25-.18,2.47-.42,2.72-.55,1.36-.71,12.67-.84,15.67-.18,1.17.26,2.82.46,3.67.46s2.17.2,2.96.45c.79.25,2.84.75,4.55,1.11,1.72.36,3.22.75,3.33.86.27.28-3.01.24-4.26-.04-.56-.13-1.35-.14-1.75-.03l-.73.2.73.29c.4.16,1.97.52,3.49.79,4.4.8,5.53,1.08,5.53,1.4,0,.17-.27.21-.65.09-1.85-.58-7.73-1.61-8.32-1.47-1.24.31-.47.87,1.86,1.35,4.7.98,7.64,2.22,7.68,3.25,0,.28-.95.01-2.14-.59-1-.51-7.48-.93-14.49-.94-3.21,0-5.66-.17-7.28-.48-1.92-.37-3.59-.44-7.96-.32-5.86.16-7.78.49-10.36,1.79-1.46.73-1.72.71-1.72-.21,0-.42.15-.53.57-.42.34.09.77-.08,1.09-.45.79-.88,2.14-1.35,4.51-1.57,3.81-.34,4.54-1.06,1.36-1.35-2.43-.22-4.77.2-6.14,1.11l-1.14.75.1-.81c.07-.63.28-.85.97-1ZM150.97,130.52c0-.15.26-.36.58-.46.32-.1.58-.34.58-.53s.27-.51.58-.71c.74-.46.73-.24-.02.99-.55.9-1.72,1.38-1.72.71ZM149.42,133.63c-.7-.52-1.5-1.08-1.79-1.25-.48-.28-.46-.34.25-.81,1.47-.97,3.1.3,3.1,2.41,0,.77-.07.76-1.56-.36ZM144.32,143.58c-.73-.45-1.07-.51-1.36-.26-.31.25-.43.11-.59-.72-.26-1.36,0-2.6,1.02-5.1.88-2.12,2.07-3.93,2.77-4.2.49-.19,2.65,1.65,2.86,2.44.19.75-.02.73-1.36-.18-1.67-1.13-1.94-.49-.49,1.18,1.65,1.91,1.58,3.15-.11,2.04-1.23-.8-1.26.59-.03,1.61.56.46.59,1.43.05,1.64-.22.08-.77-.18-1.21-.6-.81-.75-2.05-1.25-2.35-.94-.23.23.18.86,1.43,2.2.6.65,1.09,1.25,1.09,1.34,0,.33-.76.13-1.7-.44ZM143.79,145.99c-.5-.32-1.08-1.91-.6-1.63.62.35,1.67,1.37,1.67,1.63,0,.3-.61.3-1.07,0ZM140.06,177.48c.65,1.22.3,1.84-1.12,1.97-.75.08-.91.21-.86.71.05.55-.08.61-1.21.58-.79-.02-1.5-.24-1.87-.58-.35-.32-.8-.47-1.08-.36-.44.17-.44.25.04.98,1.06,1.64,1.45,2.09,1.8,2.1.29,0,.29.13.01.57-.34.54-.39.54-1.52-.29-1.03-.76-1.21-.81-1.6-.42-.38.38-.35.53.36,1.26.91.95.97,1.29.32,1.83-.4.34-.57.26-1.24-.54-1.27-1.54-2.58-1.01-1.42.57.66.89.47,1.41-.52,1.41-.38,0-.78.13-.88.29-.1.16-.68.29-1.29.29s-1.27.19-1.46.42c-.21.25-.77.39-1.42.35-.86-.06-1.12-.22-1.34-.84-.33-.95.08-1.54,1.25-1.77.46-.09,1.06-.53,1.35-.98.29-.45.91-1.17,1.37-1.61.72-.68.79-.88.51-1.41-.28-.52-.23-.73.33-1.33.37-.39.87-.66,1.12-.6.25.06.84-.12,1.32-.39.48-.28,1.59-.66,2.47-.87,1.68-.39,2.37-.74,4.14-2.14,1.22-.96,1.52-.87,2.42.81ZM141.41,151.45c-.88,0-.95.33-.3,1.37.74,1.18.59,1.43-.62,1.01-.75-.26-.93-.24-1.08.15-.12.31.23.8,1.09,1.52.7.58,1.4,1.05,1.55,1.05s.34.17.41.39c.1.3-.16.34-1.21.18-1.35-.2-1.75.09-.98.73.2.16.79.64,1.31,1.06.53.42,1.09,1.02,1.26,1.34.29.54.23.57-1.07.48-1.93-.14-1.96.42-.07,1.41l1.55.82-1.53.09c-1.67.09-1.77.19-1.05.98.45.5.44.53-.29.53-1.18,0-.92.68.54,1.39.9.44,1.31.82,1.31,1.22,0,.32-.19.59-.42.59-.79,0-.74.52.11,1.35.47.46.99,1.2,1.16,1.65.29.75.27.81-.27.64-1.18-.37-1.19.2-.02,1.47.73.8,1.11,1.44,1,1.72-.29.75-.9.51-1.62-.64-.37-.6-.82-1.35-.98-1.67-.17-.32-.58-.63-.91-.67-.42-.06-1.04-.82-1.94-2.33-1.44-2.44-1.46-2.57-1.39-8.06.05-4.45.56-7.6,1.53-9.47,1.07-2.05,1.77-2.53,2.74-1.9.84.55.95,1.61.17,1.61ZM135.81,135.87c-.45-.28-.3-.95.63-2.79,1.38-2.74,3.56-5.33,5.07-6.04,1.64-.77,2.02-.77,3.16.03,1.28.9,1.54,1.18,1.77,1.91.25.8.26.8-1.61-.07-.84-.39-1.67-.63-1.83-.53-.16.1.26.65.93,1.23.67.58,1.22,1.19,1.22,1.37,0,.46-.71.67-1.19.36-.56-.36-2.59-.34-2.59.02,0,.16.26.45.58.65,1.09.68.72,1.18-.73.97-1.72-.26-2.11,0-1.29.88.57.61.6.79.29,1.54-.35.83-.38.85-2.25.74-1.04-.06-2.02-.18-2.16-.27ZM125.07,156.73c0-.42.26-1.34.59-2.04.32-.71.52-1.49.44-1.75-.3-.99-.18-3.74.22-5.17,1.15-4.07,3.49-7.5,5.58-8.16.48-.15,1.02-.56,1.19-.91.46-.92.58-.99,1.18-.67.3.16.77.36,1.05.45.44.13.46.26.15.97-.47,1.07-.73,1.22-1.64.99-.91-.24-2.08-.09-2.08.26,0,.14.56.55,1.24.93,1.5.83,1.92,1.89.62,1.56-2.91-.75-4.09.17-1.49,1.15.84.32,1.49.71,1.44.87-.05.16-.31.24-.58.17-1.16-.28-1.93-.16-2.03.34-.06.3.11.58.43.68,1.6.52,2.13.81,2.13,1.17,0,.52-.31.51-1.74-.07-1.25-.5-2.62-.36-2.62.27,0,.2.58.53,1.28.71,1.27.34,3.31,1.79,2.53,1.81-.22,0-1.03-.22-1.81-.5-1.09-.38-1.49-.42-1.76-.16-.47.47.09,1.12,1.16,1.34.45.09,1.11.4,1.47.7.65.53.65.55.13,1.19l-.53.65-1.1-.75c-.6-.41-1.22-.67-1.38-.57-.56.35-.26,1.17.62,1.67,1.26.72.94,1.25-.71,1.2-.74-.02-1.35.03-1.35.1,0,.08.33.4.73.72.83.65.91,1.29.31,2.71l-.42,1-1.62-1.05c-1.29-.84-1.62-1.21-1.61-1.81ZM103.81,169.18c0-.98,4.64-3.76,6.27-3.76,1.12,0,1.66-.49,1.29-1.18-.22-.41.04-.83,1.25-2.09,2.34-2.44,5.42-3.34,8.75-2.56,1.35.31,2.38,1.15,1.95,1.58-.42.42-.37,1.56.07,1.72.45.16-.54,1.38-1.13,1.38-.21,0-1-.4-1.76-.88-1.22-.78-1.43-.82-1.81-.45-.38.38-.36.52.26,1.17.81.86.73.89-.71.28-1.78-.74-3.01,0-1.4.85.44.23,1.12.76,1.52,1.19.61.65.65.82.29,1.04-.63.4-.75.36-1.29-.47-.39-.6-.64-.71-1.27-.57-.49.11-1,0-1.36-.26-.82-.62-1.81-.56-2.18.13-.17.32-.57.58-.88.58-.87,0-.68.8.3,1.31.48.25.87.58.87.74,0,.52-1.65.29-2.18-.3-.29-.32-.79-.58-1.1-.58-.49,0-.55.15-.41.99.17,1.09-.14,1.53-1.69,2.33-1.24.65-1.41.6-2.59-.71-.58-.64-1.05-1.31-1.05-1.48ZM84.64,172.35c.7-.57,1.97-1.38,2.83-1.81,1.44-.73,1.75-.77,4.37-.64,1.55.08,3.6.27,4.56.44.96.17,2.5.39,3.42.51,1.74.21,2.05.41,2.39,1.51.15.47.08.65-.24.65-.24,0-.52-.25-.61-.55-.22-.69-.93-.99-1.24-.53-.13.19-.23.88-.23,1.52,0,1.04-.11,1.22-1.02,1.67-.56.28-1.1.51-1.21.51s-.44-.48-.75-1.07c-.7-1.36-1.45-1.87-1.83-1.26-.15.24-.2.7-.1,1.02.29.98.27,1.17-.16,1.17-.24,0-.54-.57-.76-1.4-.41-1.6-.79-2.09-1.43-1.85-.35.14-.41.48-.27,1.64.14,1.17.09,1.47-.25,1.47-.26,0-.53-.48-.7-1.24-.21-.95-.41-1.24-.85-1.24s-.6.22-.67,1.11c-.09,1.05-.14,1.1-1.01,1.02-.7-.07-.96-.26-1.09-.82-.2-.85-1.14-1.14-1.52-.47-.31.57-1.67.61-2.39.08-.49-.36-.44-.46.74-1.42ZM72.74,169.42c.24-.71,2.49-.9,4.68-.4,1.15.26,2.9.56,3.91.67,1,.1,1.9.31,2,.46.21.35-.73,1.4-1.25,1.4-.22,0-.54.33-.73.73-.48,1.07-1.4.97-1.4-.15,0-1.05-.77-1.5-1.31-.77-.49.68-.87.61-1.45-.28-.37-.55-.58-.67-.82-.44-.18.17-.56.32-.86.32-.83,0-2.89-1.16-2.77-1.55ZM62.23,171.79c.74-.48,6.81-2.29,7.68-2.29.24,0,.43.19.43.41,0,.26-.54.53-1.44.72-1.3.28-4.42,1.73-5.1,2.39-.47.45-1.17.29-1.57-.36-.32-.52-.32-.66,0-.87Z"/>
      <path class="cls-1" d="M189.81,164.29c2.77.58,3.96,1.16,3.96,1.9,0,.53-.41.49-3.79-.45-1.2-.33-2.54-.6-2.99-.61-.45,0-1.28-.2-1.86-.44-.88-.37-.98-.51-.68-.87.41-.49,1.15-.43,5.36.46Z"/>
      <path class="cls-1" d="M185.78,161.28c2.49-.24,5.93.17,6.3.75.12.19.22.59.22.89,0,.58-.01.58-2.9-.08-.72-.17-2.1-.3-3.06-.31-3.73-.04-4.12-.9-.55-1.25Z"/>
      <path class="cls-1" d="M171.12,176.3c1.32.26,3.62.56,5.1.66,1.98.15,2.7.3,2.7.59,0,.47-1.34.5-4.98.12-2.6-.27-4.46-.69-5.2-1.17-.9-.58.07-.66,2.39-.21Z"/>
      <path class="cls-1" d="M165.45,160.61c.76.12,1.91.27,2.55.34.64.07,2.67.34,4.51.59,3.84.54,4.32.59,6.11.65,1.46.04,2.4.47,1.85.83-.71.46-13.73-.84-15.45-1.55-1.47-.61-1.22-1.12.44-.87Z"/>
      <path class="cls-1" d="M172.88,151.05c2.92.2,3.13.26,3.13.87,0,.43-.27.47-2.32.29-2.67-.22-3.21-.38-3.21-.93,0-.32.49-.37,2.4-.24Z"/>
      <path class="cls-1" d="M174.99,149.17c.64.17,2.34.39,3.76.5,1.85.13,2.63.3,2.73.6.14.44-1.65.38-9.26-.27-1.84-.16-5.14-.2-7.32-.1-3.92.19-5.82.02-5.31-.46.71-.67,13.09-.88,15.4-.26Z"/>
      <path class="cls-1" d="M170.99,163.83c.76.12,2.6.23,4.08.26,2.19.03,2.69.12,2.62.46-.05.24-.41.52-.81.62-1.13.32-1.61.29-4.01-.19-2.96-.6-3.26-.7-3.26-1.06,0-.2.46-.24,1.38-.09Z"/>
      <path class="cls-1" d="M175.76,178.75c.17.17.24.43.15.57-.1.15-1.05.17-2.23.04-2.4-.26-3.21-.48-3.21-.87s4.89-.15,5.29.25Z"/>
    </g>
    <path class="cls-4" d="M116.93,250.51c1.74,1.72,2.04,1.9,2.53,1.53.53-.4.53-.52-.07-2.44-.43-1.37-.53-2.12-.3-2.34.35-.35,22.23-.33,23.85.01.81.17.87.3.87,1.76,0,1.89.74,2.47,1.57,1.22.27-.42.78-1.1,1.14-1.51l.64-.75.87.68c1.12.88,2.11.63,1.89-.48-.08-.44-.28-.87-.43-.97-.98-.6,1.46-2.34,2.48-1.77.62.35,1.55.14,9.13-2.03,3.32-.95,6.21-1.72,6.45-1.72.25,0,.36.23.27.56-.08.31-.24,1.09-.35,1.75-.19,1.1-.15,1.19.56,1.19.52,0,1.31-.6,2.54-1.93l1.78-1.93,1.2.89c.66.49,1.58,1.31,2.03,1.84.72.83.9.9,1.35.53.69-.57.66-.92-.28-2.97-.44-.96-.72-1.94-.63-2.18.09-.24.68-.76,1.3-1.17,1.06-.69,1.1-.78.67-1.43-.34-.51-.84-.72-1.92-.79-1.39-.09-1.53-.19-2.63-1.85l-1.16-1.75-.16-7.59c-.11-5.25-.05-7.59.18-7.59.19,0,.79.38,1.33.84,1.46,1.22,1.83.66,1.16-1.71-.7-2.52-.7-2.54.75-2.93.7-.19,1.27-.44,1.27-.57,0-.36-2.05-1.65-2.62-1.65-.29,0-.79-.47-1.09-1.03-.51-.93-.56-1.99-.51-11.03.06-11.93.29-15.83.94-16.08.27-.1.98.36,1.73,1.13,1.09,1.11,1.38,1.25,1.92.97.42-.22.57-.52.43-.87-.11-.29-.34-1.22-.5-2.06-.16-.84-.36-1.64-.43-1.76-.21-.33.16-.77,1.29-1.57,1.11-.77,1.15-1.97.07-1.97-.38,0-.59-.22-.59-.64,0-.67,1.63-5.07,3.17-8.56.88-2,2.54-6.1,5.5-13.64,4.44-11.27,7.25-16.82,8.52-16.82.3,0,.94.5,1.43,1.1.82,1.03.91,1.06,1.44.58.31-.28.51-.74.43-1.02-.08-.27-.23-1.04-.34-1.7-.19-1.12-.14-1.22.74-1.53,1.25-.44,1.53-1.23.66-1.89-.65-.49-.66-.57-.2-1.47.27-.52,1.04-1.65,1.71-2.51.68-.86,1.53-2.07,1.92-2.69.38-.62.98-1.39,1.33-1.71.62-.56.67-.55,1.83.32.66.5,1.27.99,1.36,1.11.09.11.76.58,1.51,1.05.95.59,1.59.78,2.14.65.84-.21.97-.44.52-.94-.55-.6-2.58-4.58-2.58-5.05,0-.89,5.37-4.23,6.08-3.78.14.09.26.65.26,1.25,0,1.59.78,1.39,1.71-.41.29-.57.66-1.03.81-1.03s.7.51,1.21,1.12c.6.73,1.1,1.05,1.42.93.44-.17.44-.34,0-1.74-.6-1.88-.54-1.98,2.62-4.12,1.22-.83,3.11-2.21,4.2-3.06,1.08-.85,3.29-2.44,4.92-3.53,7.32-4.93,12.06-8,12.33-8,.17,0,.29.71.29,1.59,0,1.43.07,1.59.7,1.59.39,0,1.02-.39,1.4-.87s.79-.79.9-.68c.11.11-.11,1.32-.49,2.7-.37,1.37-.88,3.36-1.13,4.4-.55,2.32-1.58,5.31-2.36,6.86-.61,1.21-1.49,1.54-4.14,1.55-.63,0-1.32.21-1.53.46-.32.38-.14.58.99,1.15.75.38,1.77.98,2.26,1.32.89.62.89.65.68,3.13-.21,2.4-.19,2.5.45,2.5.37,0,.9-.36,1.19-.79.28-.44.62-.8.76-.8.65,0,1.11,3.28,1.11,7.93v4.92s-1.42,0-1.42,0c-1.93,0-2.13.83-.37,1.53.69.28,1.33.62,1.41.75.08.14-.06,1.09-.32,2.1-.26,1.02-.4,1.92-.33,1.99.33.32,1.25-.32,1.69-1.18.39-.76.57-.87,1.07-.6.33.18.91.75,1.28,1.28.55.77.79.89,1.27.64.51-.27.54-.47.26-1.35-.69-2.17-.67-2.28.35-2.73.76-.33.97-.62.97-1.35,0-.88-.07-.92-1.39-.92-.85,0-1.54-.19-1.79-.48-.91-1.1-2.23-10.91-1.6-11.88.26-.4.38-.39.9.09.63.57,1.66.44,1.65-.21,0-.2-.22-1.06-.47-1.93-.45-1.49-.44-1.6.19-2.28.37-.39,1.07-.87,1.56-1.07.53-.22.95-.68,1.03-1.13.13-.71.03-.77-1.75-.98-1.84-.21-1.91-.25-2.48-1.51-.33-.72-.6-1.84-.6-2.51,0-1.26,2.38-11.53,2.86-12.31.22-.36.52-.21,1.49.74,1.09,1.06,2.21,1.49,2.69,1.02.09-.09-.18-1.03-.61-2.08-.88-2.18-.86-3.15.09-3.62.92-.46,1.6-1.18,1.86-2,.2-.64.11-.7-1.03-.7-2.52,0-3.09-.27-3.85-1.84-1.35-2.79-3.18-7.95-3.19-9.01,0-.29.21-.58.47-.63.41-.09.39-.28-.17-1.31-.36-.66-.73-1.81-.83-2.55-.19-1.34-.18-1.35,1.47-2.38,1.17-.73,1.6-1.17,1.46-1.52-.1-.27-.19-.65-.19-.83,0-.22-.74-.27-2.22-.15-2.49.21-2.61.12-2.95-2.12-.2-1.28-.98-2.42-1.66-2.42-.24,0-.52.88-.72,2.27-.19,1.25-.53,2.4-.75,2.56-.23.15-1.45.2-2.71.09-2.22-.18-9.36-1.56-9.95-1.92-.51-.31-.31-1.04.34-1.25.41-.13.6-.44.56-.89-.06-.59-.32-.72-1.65-.86l-1.58-.15-.57-1.89c-.56-1.83-1.05-2.52-1.58-2.19-.14.08-.26.4-.26.69,0,.98-.65,2.89-1.15,3.39-.38.38-.86.44-2.05.29-1.41-.19-1.55-.15-1.55.43,0,.4.34.77.92,1.02,1.54.64,2.36,1.74,2.13,2.85-.11.53-.28,1.4-.39,1.92-.28,1.38.37,1.22,1.93-.48.72-.79,1.45-1.43,1.62-1.43s.83.5,1.47,1.11c1.32,1.25,2.32,1.23,2.08-.05-.08-.42-.06-.82.05-.88.11-.07,1.62.13,3.34.44,2.25.4,3.29.73,3.65,1.17.28.34,1.22,1.16,2.09,1.82l1.59,1.2.16,2.57c.14,2.39.21,2.57.87,2.62.5.04.71-.12.71-.53,0-.32.14-.58.33-.58s.78-.65,1.34-1.45l1.02-1.45.71.88c1.11,1.39,2.35,5.11,2.52,7.57.13,1.94.06,2.4-.63,3.65-.74,1.34-.88,1.44-2.48,1.66-4.1.56-4.49.76-2.91,1.48,1.09.5,3.27,2.22,3.27,2.59,0,.15-2.46,1.93-5.47,3.93-3.01,2.01-6.44,4.33-7.62,5.17-6.56,4.61-10.33,7.04-11.19,7.21-.88.17-1.07.05-2.04-1.33-.59-.84-1.23-1.62-1.42-1.75-.54-.37-1.15.51-1.23,1.74-.09,1.46-.24,1.59-2.2,1.98-2.06.4-2.27.99-.58,1.65.72.28,1.3.63,1.3.76,0,.62-4.2,1.37-5.55.99-1.02-.29-2.8-2.83-3.28-4.67-.17-.63-.45-.95-.84-.95-.49,0-.66.38-.95,2.13-.2,1.17-.45,2.22-.56,2.34-.12.12-1.11.24-2.21.27-2.63.07-2.74.61-.44,2.26,2,1.44,2.04,1.6,1.27,5.42-.54,2.7-1.32,4.26-3.15,6.39-1.28,1.48-1.82,1.44-2.15-.18-.15-.74-1.35-1.9-1.65-1.6-.06.06-.18.77-.26,1.6-.21,1.9-.37,2.15-1.42,2.15-.47,0-1.39.09-2.05.2-1.47.24-1.49.98-.05,1.69.53.26,1.3.72,1.71,1.02l.74.54-1.28,2.63c-.7,1.45-1.67,3.78-2.15,5.18-.48,1.39-.99,2.68-1.12,2.86-.29.37-3.04,6.74-3.66,8.49-.23.66-.64,1.66-.9,2.22-.26.56-.89,2.31-1.4,3.88-2.27,6.96-6.1,15.21-6.74,14.53-.5-.54-1.57-2.81-1.57-3.35,0-.32-.23-.66-.52-.77-.93-.36-1.53.37-1.75,2.11-.11.91-.33,1.79-.48,1.94-.15.15-1.17.3-2.27.33-1.1.03-2.08.21-2.2.39-.11.18.66,1.13,1.71,2.09l1.92,1.77-.7,1.49c-.38.82-.88,1.71-1.11,1.98-.23.27-.33.7-.23.96.15.37.37.4,1.12.14.52-.18,1.02-.53,1.12-.78.1-.25.34-.45.55-.45.28,0,.33,2.74.17,11.39-.18,9.45-.31,11.77-.79,13.65-.31,1.24-.7,2.39-.86,2.55-.17.16-1.01.34-1.88.39-2.06.13-2.13.83-.16,1.56.78.29,1.48.76,1.53,1.04.06.28-.26,1.32-.71,2.3-.45.98-.82,1.83-.82,1.9,0,.35,1.95-.2,2.44-.68.56-.56.58-.52.82,1.31.38,2.98.08,13.41-.43,14.89l-.44,1.27-2.3.09c-1.79.07-2.3.2-2.3.57,0,.56,1.02,1.65,2.46,2.64,1.05.72,1.35,1.55.64,1.74-.22.06-2.18.61-4.36,1.23-2.18.62-5.72,1.57-7.87,2.11-3.49.88-3.96.93-4.38.5-.26-.26-.82-.48-1.22-.48-1.3,0-1.76-.36-2.57-1.96-1.03-2.03-1.71-1.96-2.3.26l-.44,1.63-1.85.21c-1.95.22-2.48.57-1.91,1.25.19.23.25.51.13.62-.26.26-18.25.27-19.86,0-.65-.11-1.19-.29-1.19-.41s.49-.74,1.08-1.39c.74-.81,1.03-1.38.91-1.82-.15-.56-.39-.63-1.99-.55-1.25.06-2-.06-2.4-.39-.97-.79-2.37-3.24-2.37-4.14,0-1.59-1.75-2.01-2.04-.5-.07.37-.25,1.31-.39,2.08-.15.77-.42,1.46-.61,1.52-.41.14-10.07-9.67-12.21-12.4-.73-.93-1.87-3.01-1.87-3.41,0-.12.51-.52,1.13-.88,1.2-.71,1.19-1.16-.06-1.64-.68-.26-.73-.38-.41-1.01.82-1.63,3.03-4.67,3.39-4.67.22,0,1.13.77,2.02,1.73,1.62,1.72,1.63,1.72,2.16,1.06.55-.68.58-1.38.17-4.23-.26-1.84-.16-1.97,2.23-2.83,1.97-.71,1.87-.61,1.37-1.41-.33-.53-.74-.67-1.95-.67h-1.53l.7-1.03c1.41-2.08,6.44-6.9,7.19-6.9.5,0,1.07-.49,1.86-1.59.63-.87,1.23-1.59,1.34-1.59s.71.5,1.33,1.12c.97.94,1.22,1.05,1.66.71.48-.37.48-.52.03-1.82-.46-1.33-.45-1.44.08-1.75.86-.49,2.04-1.68,2.04-2.05,0-.19-.74-.33-1.74-.33h-1.74l-.8-1.58c-.44-.86-.8-1.8-.8-2.09s-.18-.45-.4-.38c-.33.11-.88,1.44-1.4,3.37-.18.68-.96-.12-1.39-1.42-.47-1.42.08-2.31,2.15-3.5.83-.47,1.55-.89,1.61-.93.05-.04-.08-.36-.3-.71-.28-.45-.89-.7-2.16-.85-1.6-.2-1.91-.37-3.3-1.85l-1.53-1.64.22,1.27c.25,1.47.76,2.13,2.34,3.08.62.38,1.19.72,1.25.77.25.19-.75,1.14-1.5,1.42-.69.26-.74.42-.56,1.55.11.7.09,1.26-.04,1.26-.13,0-.86-.57-1.61-1.27-1.52-1.41-1.84-1.52-2.11-.71-.25.72-1.42,2.11-1.61,1.92-.19-.19.74-2.08,1.14-2.33.35-.22-1.15-2.57-1.79-2.81-.93-.35-.47-.9.59-.7,1.41.26,2.45-.48,2.45-1.75,0-1.07.49-2.15,1.24-2.72.45-.34.46-.46.02-1.27-.73-1.34-1.37-1.13-1.64.54-.56,3.39-.67,3.64-1.75,3.75-.55.05-1.81-.05-2.79-.23-1.71-.32-3.01-.08-3,.54,0,.12.71.61,1.57,1.09.86.48,1.71,1.13,1.89,1.46.29.55.17.61-1.49.74-1,.08-3.75.13-6.14.11-3.3-.03-4.46-.14-4.89-.5-.38-.31-1.09-.43-2.21-.36l-1.65.11-1.22-2.09c-1.61-2.75-2.05-2.72-2.05.13,0,2.45.22,2.22-2.69,2.79-1.95.39-1.77,1.07.47,1.79,1.79.57,1.91.67,1.91,1.59,0,.54-.13,1.45-.29,2.01-.46,1.63.57,1.33,1.98-.56,1.31-1.75,1.59-1.76,3.37-.11,1.34,1.25,2.17.77,1.18-.69-.24-.35-.51-.96-.61-1.36-.24-.95.74-1.35,3.2-1.28.99.03,4.26-.07,7.28-.2,6.3-.29,6.02-.46,4.54,2.73-.52,1.11-1.03,2.41-1.15,2.89-.19.77-.12.87.55.87.5,0,1.35-.59,2.48-1.74.95-.96,1.97-1.75,2.26-1.75.51,0,1.26.78,2.61,2.71.33.46,1.01.98,1.51,1.16.51.18.91.51.91.73,0,.71-2.59,3.71-6.42,7.44l-3.73,3.62-1.27-2.75c-.7-1.51-1.39-2.74-1.54-2.74-.64,0-1.25,1.23-1.44,2.91-.33,2.91-.31,2.9-2.63,2.65l-2.01-.22v.9c-.02.68.37,1.24,1.58,2.32l1.6,1.43-.49,1.75c-.27.96-.54,2.14-.61,2.63-.2,1.41-.93,2.79-1.41,2.69-.25-.05-.62-.58-.82-1.19-.6-1.79-1.19-1.55-2.08.86l-.8,2.15-2.06.16c-2.61.2-2.69.73-.31,2.06l1.75.98-.11,1.93c-.07,1.2.03,2.01.25,2.15.2.12.88-.37,1.59-1.16l1.23-1.37,1.22,1.17c.66.65,1.71,1.38,2.33,1.64.68.29,2.91,2.35,5.77,5.34,6.73,7.05,6.86,7.26,3.87,6.59-3.01-.67-2.4.71,1.38,3.12.74.47,1.41,1.04,1.5,1.26.09.23-.34,1.61-.95,3.08-.61,1.47-1.11,2.89-1.11,3.17h0c0,.97,1.03.46,3.05-1.47l2.05-1.96,1.97,1.94ZM247.09,137.32c.26.22.47.52.47.68s-.22.28-.47.28c-.27,0-.48-.29-.48-.68,0-.56.08-.6.48-.28ZM247.54,117.59c1.27.13,1.24.46-.12,1.5-.78.59-1.08,1.05-1,1.52.06.38.06.53,0,.36-.07-.18-.41-.51-.77-.73-.74-.47-1.39-.11-1.72.93-.1.33-.33.6-.49.6-.33,0-.39-.36-.32-1.59.04-.64-.26-1-1.44-1.75l-1.49-.94,1.86-.32c1.7-.29,1.91-.42,2.48-1.52.7-1.34.99-1.23,1.62.6.35,1.03.58,1.25,1.41,1.33ZM224.48,71.13c-.54.28-1.05.51-1.13.51-.29,0-.53-1.07-.27-1.24.15-.1.36-.43.48-.74.25-.67.86-.74.86-.09,0,.25.24.59.53.76.45.25.39.37-.46.81ZM244.39,77.33c0,.27-.27.37-.77.27-.96-.18-1.13-.06-1.96,1.49-.98,1.82-1.31,1.73-1.14-.32.09-1.12,0-2.06-.26-2.55-.44-.83-1.12-1.02-1.35-.37-.11.31-.23.31-.56,0-.59-.55-.3-.71,1.59-.84,1.78-.12,2.12-.31,2.29-1.3.16-.84.71-.69.85.22.18,1.19.62,1.49,1.9,1.3l1.17-.18-.87.93c-.48.52-.87,1.12-.87,1.35ZM243.6,94.22c.11-.11.87-.2,1.69-.21,1.48,0,1.49-.01,1.93-1.41l.44-1.4.67.81c.37.44.91,1.25,1.21,1.8.47.87.71,1,1.9,1.01l1.36.02-1.19,1.05c-1.07.95-1.17,1.17-.98,2.13.19.98.16,1.03-.32.64-.29-.24-.53-.62-.53-.85,0-.47-.61-.75-1.19-.54-.22.08-.71.7-1.09,1.38-1.07,1.91-1.68,1.59-1.19-.63.31-1.39.2-1.95-.41-1.95-.52,0-2.54-1.62-2.31-1.85ZM217.05,113.84c.35.61.79.95,1.25.95.79,0,.91.31.33.89-.51.51-.78.48-1-.09-.1-.26-.52-.47-.92-.47-.64,0-.74-.16-.74-1.11,0-1.36.37-1.41,1.08-.16ZM201.85,117.8c.74.24,1.74-.89,1.53-1.71-.09-.35.03-.89.25-1.2.47-.64.5-.6,1.08,1.68.27,1.08.55,1.4,1.6,1.87,1.3.58,1.65,1.3.8,1.63-.66.26-.58.97.31,2.8.42.87.72,1.62.67,1.68-.05.05-.82-.55-1.7-1.34-1.94-1.75-2.68-1.82-3.38-.34-.56,1.18-1.45,2.02-.99.94.14-.34.43-1.36.66-2.28l.41-1.67-1.06-.85c-1.08-.87-1.18-1.52-.18-1.21ZM192.39,134.05c.39-.29,2.62-.79,2.97-.66.22.08.4.54.39,1.01,0,.47.1,1.11.24,1.41.33.72-.13.68-.9-.1-.34-.34-.84-.62-1.11-.63-.52-.01-1.82-.86-1.59-1.04ZM172.55,214.74c-.08,0-.23-.14-.34-.32-.11-.17-.05-.31.14-.31s.34.14.34.31-.06.32-.14.32ZM172.69,212.52c0,.18-.15.32-.34.32s-.25-.14-.14-.32c.11-.17.26-.32.34-.32s.14.15.14.32ZM169.7,177.53c.1-.1.66-.11,1.24-.02.97.16,1.08.09,1.46-.98.52-1.43.77-1.44,1.23-.05.2.6.74,1.37,1.2,1.71.73.53.79.68.41,1.13-.33.41-.35.69-.07,1.32.2.44.37.86.37.94,0,.35-.58.1-.74-.31-.19-.5-2.45-1.76-3.15-1.76-.53,0-2.22-1.71-1.95-1.98ZM171.26,210.3c.27,0,.48.28.48.63,0,.63-.34.82-.74.42-.39-.38-.22-1.05.26-1.05ZM169.12,236.8c1.15.21,1.68-.19,1.94-1.46.31-1.52.83-1.48,1.61.13.69,1.43,1.15,1.79,2.27,1.79.81,0,.77.49-.09,1.09-.7.49-.7.51-.16,1.97.3.82.48,1.55.39,1.64-.09.09-.66-.37-1.27-1.02l-1.11-1.18-1.53,1.28h0c-.84.71-1.63,1.29-1.75,1.29s.08-.74.44-1.66l.66-1.66-1.14-.91c-1.36-1.09-1.44-1.52-.26-1.31ZM146.83,243.29c.37,0,.79.66.79,1.22,0,.29-1.16,1.01-1.34.83-.3-.31.17-2.05.55-2.05ZM117.31,195.31c1.05-.2,1.6.37.88.91-.68.52-.8.52-1.27.05-.57-.56-.47-.79.39-.96ZM88.97,190.31c-.33,0-.77.21-.99.47-.45.55-.67.57-1.11.13-.17-.17-.6-.52-.95-.76-.61-.44-.61-.45.2-.47,1.04-.01,1.57-.63,1.33-1.53-.27-1.03.47-.86,1.1.25.29.52.65.95.77.95.13,0,.24.22.24.48s-.27.48-.6.48ZM101.3,210.07c.88-.34.95-.47.95-1.97,0-.89.13-1.62.3-1.62s.6.67.96,1.49c.36.82,1,1.94,1.43,2.49.51.67.66,1.11.44,1.32-.21.21-.22,1.06-.03,2.44.15,1.17.2,2.16.1,2.22-.1.06-.69-.51-1.3-1.25-.61-.74-1.35-1.43-1.65-1.51-.36-.1-.48-.37-.37-.79.12-.46-.11-.84-.82-1.36-.54-.4-.98-.81-.98-.91s.43-.35.96-.55ZM97.9,226.78c-.55-.03-1.36-.69-1.36-1.13,0-.86-.99-.92-1.64-.1l-.61.76.2-1.03c.18-.91.1-1.07-.7-1.4l-.89-.37.93-.19c.73-.14,1-.42,1.23-1.3l.3-1.11.43,1.03c.24.56.65,1.03.9,1.03.39,0,.4.14.09.83-.31.68-.29.89.11,1.19.27.2.67.68.87,1.07.21.39.27.71.13.71ZM113.81,247.89c-1.12,1.46-1.55,1.42-.8-.08,1.13-2.23,1.11-2.44-.28-3.41-1.56-1.08-1.6-1.43-.2-1.43,1.12,0,1.46-.39,1.47-1.69,0-.7,1.1-2.38,1.37-2.11.08.08.51.97.96,1.98.79,1.79.83,1.82,2.09,1.82.71,0,1.29.13,1.29.29s-.66.86-1.48,1.55c-1.45,1.24-1.47,1.29-1.07,2.26.55,1.34.2,1.57-.82.54-1.11-1.11-1.51-1.06-2.52.27Z"/>
  </g>
  <text class="cls-3" transform="translate(117.06 326.18)"><tspan x="0" y="0">S</tspan><tspan class="cls-5" x="15.92" y="0">c</tspan><tspan x="29.59" y="0">orpio</tspan></text>
</svg>